<svg width="181" height="182" viewBox="0 0 181 182" fill="none" xmlns="http://www.w3.org/2000/svg">
<g filter="url(#filter0_d_257_32)">
<path d="M81.5 150.5C119.884 150.5 151 119.384 151 81C151 42.6162 119.884 11.5 81.5 11.5C43.1162 11.5 12 42.6162 12 81C12 119.384 43.1162 150.5 81.5 150.5Z" fill="#8A8A8A"/>
</g>
<path d="M116.887 89.8203C115.14 96.8205 111.357 103.146 106.016 107.996C100.675 112.846 94.0156 116.004 86.88 117.07C79.7443 118.135 72.4529 117.061 65.9276 113.983C59.4023 110.905 53.9362 105.962 50.2204 99.7774C46.5046 93.593 44.706 86.4457 45.0521 79.2392C45.3981 72.0328 47.8731 65.0907 52.1643 59.2908C56.4555 53.4909 62.3701 49.0936 69.1603 46.6549C75.9505 44.2163 83.3113 43.8458 90.312 45.5903C94.9611 46.7495 99.3364 48.8131 103.188 51.6632C107.04 54.5133 110.292 58.0942 112.76 62.2013C115.228 66.3085 116.862 70.8615 117.57 75.6004C118.278 80.3392 118.046 85.1712 116.887 89.8203Z" fill="#F7931A"/>
<path d="M97.582 75.7941C98.307 70.9381 94.61 68.3281 89.555 66.5861L91.195 60.0081L87.19 59.0081L85.59 65.4081C84.539 65.1461 83.457 64.8981 82.383 64.6531L83.991 58.2061L79.991 57.2061L78.35 63.7821C77.479 63.5821 76.623 63.3871 75.793 63.1821V63.1611L70.271 61.7821L69.209 66.0651C69.209 66.0651 72.18 66.7461 72.117 66.7881C72.6713 66.8546 73.1773 67.1362 73.5261 67.5722C73.8749 68.0081 74.0386 68.5636 73.982 69.1191L72.114 76.6131C72.2554 76.6482 72.3944 76.6926 72.53 76.7461L72.108 76.6461L69.488 87.1461C69.4304 87.3293 69.3372 87.4994 69.2137 87.6465C69.0902 87.7936 68.9388 87.9149 68.7683 88.0032C68.5977 88.0916 68.4114 88.1454 68.22 88.1615C68.0286 88.1776 67.8359 88.1557 67.653 88.0971C67.693 88.1551 64.743 87.3711 64.743 87.3711L62.755 91.9551L67.967 93.2551C68.936 93.4981 69.886 93.7551 70.82 93.9921L69.163 100.646L73.163 101.646L74.805 95.0631C75.896 95.3631 76.957 95.6331 77.995 95.8911L76.36 102.443L80.36 103.443L82.017 96.8021C88.845 98.0941 93.98 97.5731 96.139 91.4021C97.88 86.4301 96.053 83.5621 92.461 81.6901C95.082 81.0651 97.053 79.3481 97.582 75.7941ZM88.432 88.6231C87.194 93.5951 78.823 90.9081 76.107 90.2331L78.307 81.4191C81.021 82.0961 89.724 83.4381 88.434 88.6191L88.432 88.6231ZM89.669 75.7231C88.54 80.2461 81.569 77.9481 79.311 77.3851L81.304 69.3911C83.564 69.9521 90.844 71.0041 89.667 75.7221L89.669 75.7231Z" fill="#8A8A8A"/>
<defs>
<filter id="filter0_d_257_32" x="7" y="7.5" width="167" height="167" filterUnits="userSpaceOnUse" color-interpolation-filters="sRGB">
<feFlood flood-opacity="0" result="BackgroundImageFix"/>
<feColorMatrix in="SourceAlpha" type="matrix" values="0 0 0 0 0 0 0 0 0 0 0 0 0 0 0 0 0 0 127 0" result="hardAlpha"/>
<feOffset dx="9" dy="10"/>
<feGaussianBlur stdDeviation="7"/>
<feColorMatrix type="matrix" values="0 0 0 0 0 0 0 0 0 0 0 0 0 0 0 0 0 0 0.471 0"/>
<feBlend mode="normal" in2="BackgroundImageFix" result="effect1_dropShadow_257_32"/>
<feBlend mode="normal" in="SourceGraphic" in2="effect1_dropShadow_257_32" result="shape"/>
</filter>
</defs>
</svg>
