<svg width="179" height="179" viewBox="0 0 179 179" fill="none" xmlns="http://www.w3.org/2000/svg">
<g filter="url(#filter0_d_257_39)">
<path d="M148.74 79.3671C148.74 92.89 144.73 106.109 137.217 117.353C129.704 128.597 119.026 137.361 106.532 142.536C94.0387 147.711 80.2912 149.065 67.0281 146.426C53.765 143.788 41.5821 137.276 32.02 127.714C22.4579 118.152 15.946 105.969 13.3078 92.7061C10.6696 79.443 12.0236 65.6955 17.1986 53.2019C22.3736 40.7084 31.1371 30.03 42.381 22.5171C53.6249 15.0041 66.8441 10.9941 80.367 10.9941C98.5007 10.9941 115.892 18.1977 128.714 31.0201C141.536 43.8426 148.74 61.2335 148.74 79.3671Z" fill="#8A8A8A"/>
</g>
<g opacity="0.6">
<mask id="mask0_257_39" style="mask-type:luminance" maskUnits="userSpaceOnUse" x="53" y="68" width="54" height="28">
<path d="M53.5 68.2432H106.2V95.8012H53.5V68.2432Z" fill="white"/>
</mask>
<g mask="url(#mask0_257_39)">
<path d="M79.857 68.2432L53.5 80.2302L79.857 95.8022L106.2 80.2302L79.857 68.2432Z" fill="#010101"/>
</g>
</g>
<g opacity="0.45">
<mask id="mask1_257_39" style="mask-type:luminance" maskUnits="userSpaceOnUse" x="53" y="36" width="27" height="60">
<path d="M53.5 36.499H79.857V95.799H53.5V36.499Z" fill="white"/>
</mask>
<g mask="url(#mask1_257_39)">
<path d="M53.5 80.23L79.857 95.799V36.499L53.5 80.23Z" fill="#010101"/>
</g>
</g>
<g opacity="0.8">
<mask id="mask2_257_39" style="mask-type:luminance" maskUnits="userSpaceOnUse" x="79" y="36" width="28" height="60">
<path d="M79.857 36.499H106.214V95.799H79.857V36.499Z" fill="white"/>
</mask>
<g mask="url(#mask2_257_39)">
<path d="M79.857 36.499V95.799L106.203 80.227L79.857 36.499Z" fill="#010101"/>
</g>
</g>
<g opacity="0.45">
<mask id="mask3_257_39" style="mask-type:luminance" maskUnits="userSpaceOnUse" x="53" y="85" width="27" height="38">
<path d="M53.5 85.2227H79.857V122.354H53.5V85.2227Z" fill="white"/>
</mask>
<g mask="url(#mask3_257_39)">
<path d="M53.5 85.2227L79.857 122.354V100.794L53.5 85.2227Z" fill="#010101"/>
</g>
</g>
<g opacity="0.8">
<mask id="mask4_257_39" style="mask-type:luminance" maskUnits="userSpaceOnUse" x="79" y="85" width="28" height="38">
<path d="M79.857 85.2227H106.224V122.354H79.857V85.2227Z" fill="white"/>
</mask>
<g mask="url(#mask4_257_39)">
<path d="M79.857 100.795V122.355L106.224 85.2236L79.857 100.795Z" fill="#010101"/>
</g>
</g>
<defs>
<filter id="filter0_d_257_39" x="6.99397" y="6.99414" width="164.746" height="164.746" filterUnits="userSpaceOnUse" color-interpolation-filters="sRGB">
<feFlood flood-opacity="0" result="BackgroundImageFix"/>
<feColorMatrix in="SourceAlpha" type="matrix" values="0 0 0 0 0 0 0 0 0 0 0 0 0 0 0 0 0 0 127 0" result="hardAlpha"/>
<feOffset dx="9" dy="10"/>
<feGaussianBlur stdDeviation="7"/>
<feColorMatrix type="matrix" values="0 0 0 0 0 0 0 0 0 0 0 0 0 0 0 0 0 0 0.471 0"/>
<feBlend mode="normal" in2="BackgroundImageFix" result="effect1_dropShadow_257_39"/>
<feBlend mode="normal" in="SourceGraphic" in2="effect1_dropShadow_257_39" result="shape"/>
</filter>
</defs>
</svg>
