<svg width="179" height="179" viewBox="0 0 179 179" fill="none" xmlns="http://www.w3.org/2000/svg">
<g clip-path="url(#clip0_257_74)">
<g filter="url(#filter0_d_257_74)">
<path d="M148.74 79.3671C148.74 92.89 144.73 106.109 137.217 117.353C129.704 128.597 119.026 137.361 106.532 142.536C94.0387 147.711 80.2912 149.065 67.0281 146.426C53.765 143.788 41.5821 137.276 32.02 127.714C22.4579 118.152 15.946 105.969 13.3078 92.7061C10.6696 79.443 12.0236 65.6955 17.1986 53.2019C22.3736 40.7084 31.1371 30.03 42.381 22.5171C53.6249 15.0041 66.8441 10.9941 80.367 10.9941C98.5007 10.9941 115.892 18.1977 128.714 31.0201C141.536 43.8426 148.74 61.2335 148.74 79.3671Z" fill="#8A8A8A"/>
</g>
<g clip-path="url(#clip1_257_74)">
<path d="M45.0191 124.085V98.8512C45.0191 94.2081 48.7782 90.4443 53.4153 90.4443L60.8565 90.4556C65.4801 90.4648 69.2236 94.2203 69.2236 98.8499V104.221C69.2236 108.864 65.4643 112.628 60.8272 112.628H50.3125" stroke="#434343" stroke-width="2" stroke-miterlimit="10" stroke-linecap="round" stroke-linejoin="round"/>
<path d="M71.303 90.4414H74.5308C76.4339 90.4414 77.9764 91.986 77.9764 93.8915V112.741" stroke="#434343" stroke-width="2" stroke-miterlimit="10" stroke-linecap="round" stroke-linejoin="round"/>
<path d="M77.2843 87.5207L75.8206 86.0549C75.4572 85.6913 75.4572 85.1016 75.8206 84.738L77.2834 83.2731C77.6473 82.909 78.237 82.909 78.6006 83.2731L80.0634 84.738C80.4268 85.1016 80.4268 85.6913 80.0634 86.0549L78.5996 87.5207C78.2365 87.8843 77.6477 87.8843 77.2843 87.5207Z" fill="#32BCAD"/>
<path d="M84.1689 90.4238H87.3701C89.0169 90.4238 90.5962 91.0789 91.7604 92.2446L99.2477 99.7412C100.217 100.712 101.79 100.712 102.76 99.7412L110.22 92.272C111.384 91.1063 112.963 90.4513 114.61 90.4513H117.213" stroke="#434343" stroke-width="2" stroke-miterlimit="10" stroke-linecap="round" stroke-linejoin="round"/>
<path d="M84.1689 112.576H87.3701C89.0169 112.576 90.5962 111.921 91.7604 110.755L99.2477 103.259C100.217 102.287 101.79 102.287 102.76 103.259L110.22 110.728C111.384 111.894 112.963 112.549 114.61 112.549H117.213" stroke="#434343" stroke-width="2" stroke-miterlimit="10" stroke-linecap="round" stroke-linejoin="round"/>
<path d="M51.4181 121.94C51.0702 121.94 50.6652 122.024 50.2647 122.116V123.654C50.5421 123.756 50.8589 123.804 51.1627 123.804C51.9328 123.804 52.2981 123.544 52.2981 122.865C52.2981 122.227 51.9989 121.94 51.4181 121.94ZM50.0049 124.796V121.755H50.2163L50.2383 121.887C50.5947 121.804 51.0876 121.693 51.4398 121.693C51.7262 121.693 51.9989 121.737 52.2276 121.922C52.492 122.139 52.5755 122.486 52.5755 122.865C52.5755 123.262 52.4432 123.637 52.0824 123.844C51.8316 123.985 51.4927 124.042 51.189 124.042C50.8764 124.042 50.5773 123.993 50.2647 123.901V124.796H50.0049Z" fill="#434343"/>
<path d="M54.5091 121.93C53.7387 121.93 53.3954 122.173 53.3954 122.851C53.3954 123.508 53.7343 123.803 54.5091 123.803C55.2748 123.803 55.6181 123.565 55.6181 122.887C55.6181 122.23 55.2794 121.93 54.5091 121.93ZM55.4993 123.803C55.2439 123.988 54.9008 124.041 54.5091 124.041C54.1085 124.041 53.765 123.984 53.5143 123.803C53.2326 123.605 53.118 123.279 53.118 122.869C53.118 122.463 53.2326 122.133 53.5143 121.93C53.765 121.75 54.1085 121.692 54.5091 121.692C54.905 121.692 55.2439 121.75 55.4993 121.93C55.7856 122.133 55.8954 122.463 55.8954 122.864C55.8954 123.275 55.781 123.605 55.4993 123.803Z" fill="#434343"/>
<path d="M59.1453 123.98L58.287 122.133H58.2692L57.4243 123.98H57.1911L56.2756 121.754H56.5617L57.3232 123.622H57.3409L58.168 121.754H58.4057L59.2553 123.622H59.273L60.0169 121.754H60.2939L59.3786 123.98H59.1453Z" fill="#434343"/>
<path d="M61.9543 121.926C61.2413 121.926 60.9992 122.243 60.955 122.702H62.9535C62.9316 122.195 62.6716 121.926 61.9543 121.926ZM61.9456 124.041C61.5184 124.041 61.2413 123.98 61.0213 123.794C60.7615 123.569 60.6734 123.244 60.6734 122.869C60.6734 122.512 60.7924 122.133 61.0873 121.917C61.3337 121.745 61.6374 121.692 61.9543 121.692C62.2405 121.692 62.5706 121.723 62.8432 121.908C63.1647 122.124 63.2265 122.503 63.2265 122.935H60.9464C60.955 123.393 61.1048 123.799 61.9673 123.799C62.3769 123.799 62.7597 123.733 63.1163 123.671V123.904C62.7465 123.971 62.3371 124.041 61.9456 124.041Z" fill="#434343"/>
<path d="M63.9716 123.98V121.754H64.1828L64.2051 121.886C64.6759 121.768 64.8959 121.692 65.3097 121.692H65.3406V121.939H65.2788C64.9313 121.939 64.7201 121.987 64.2316 122.116V123.98H63.9716Z" fill="#434343"/>
<path d="M66.8488 121.926C66.1359 121.926 65.8938 122.243 65.8496 122.702H67.848C67.8261 122.195 67.5662 121.926 66.8488 121.926ZM66.8401 124.041C66.4129 124.041 66.1359 123.98 65.9158 123.794C65.6559 123.569 65.5679 123.244 65.5679 122.869C65.5679 122.512 65.687 122.133 65.9819 121.917C66.2282 121.745 66.532 121.692 66.8488 121.692C67.1351 121.692 67.4651 121.723 67.7378 121.908C68.0592 122.124 68.121 122.503 68.121 122.935H65.841C65.8496 123.393 65.9994 123.799 66.8619 123.799C67.2712 123.799 67.6541 123.733 68.0108 123.671V123.904C67.641 123.971 67.2317 124.041 66.8401 124.041Z" fill="#434343"/>
<path d="M70.9658 122.081C70.6885 121.98 70.3717 121.931 70.0679 121.931C69.2978 121.931 68.9322 122.192 68.9322 122.87C68.9322 123.513 69.2315 123.795 69.8124 123.795C70.1603 123.795 70.5652 123.711 70.9658 123.623V122.081ZM71.0143 123.98L70.9923 123.848C70.6357 123.932 70.1426 124.042 69.7905 124.042C69.5048 124.042 69.2315 124.002 69.0027 123.813C68.7387 123.597 68.655 123.249 68.655 122.87C68.655 122.473 68.787 122.099 69.1478 121.896C69.3988 121.751 69.7377 121.693 70.0459 121.693C70.354 121.693 70.6534 121.746 70.9658 121.834V120.816H71.2255V123.98H71.0143Z" fill="#434343"/>
<path d="M75.0333 121.939C74.6854 121.939 74.2804 122.023 73.8799 122.116V123.649C74.1618 123.755 74.4741 123.804 74.7779 123.804C75.548 123.804 75.9133 123.543 75.9133 122.864C75.9133 122.226 75.6141 121.939 75.0333 121.939ZM75.6978 123.843C75.4469 123.984 75.108 124.041 74.8042 124.041C74.4742 124.041 74.1441 123.984 73.8096 123.874L73.7964 123.98H73.6201V120.815H73.8799V121.877C74.2365 121.798 74.7161 121.692 75.055 121.692C75.3415 121.692 75.6141 121.736 75.8428 121.921C76.1072 122.138 76.1907 122.485 76.1907 122.864C76.1907 123.262 76.0584 123.636 75.6978 123.843Z" fill="#434343"/>
<path d="M76.5354 124.834V124.592C76.6629 124.605 76.7821 124.614 76.8656 124.614C77.187 124.614 77.3804 124.521 77.5609 124.156L77.6446 123.98L76.4827 121.754H76.7821L77.7768 123.675H77.7943L78.7405 121.754H79.0355L77.7855 124.253C77.5566 124.707 77.3101 124.856 76.8568 124.856C76.7554 124.856 76.6456 124.848 76.5354 124.834Z" fill="#434343"/>
<path d="M82.6146 122.71H81.7521V123.491H82.6189C83.2131 123.491 83.4378 123.424 83.4378 123.098C83.4378 122.75 83.1298 122.71 82.6146 122.71ZM82.4564 121.446H81.7521V122.239H82.4606C83.0461 122.239 83.2792 122.168 83.2792 121.838C83.2792 121.486 82.9844 121.446 82.4564 121.446ZM83.7943 123.768C83.4772 123.971 83.0943 123.98 82.3946 123.98H81.0786V120.961H82.3639C82.9668 120.961 83.3364 120.97 83.6446 121.155C83.8648 121.287 83.9526 121.49 83.9526 121.754C83.9526 122.071 83.8208 122.283 83.4771 122.424V122.441C83.8648 122.53 84.1156 122.728 84.1156 123.156C84.1156 123.446 84.01 123.636 83.7943 123.768Z" fill="#434343"/>
<path d="M86.7487 123.045C86.4887 123.023 86.2248 123.01 85.9476 123.01C85.4943 123.01 85.3355 123.103 85.3355 123.31C85.3355 123.504 85.4678 123.609 85.8153 123.609C86.1058 123.609 86.4536 123.544 86.7487 123.477V123.045ZM86.8806 123.98L86.8629 123.847C86.4843 123.94 86.0444 124.041 85.6569 124.041C85.419 124.041 85.164 124.01 84.9833 123.878C84.8165 123.759 84.737 123.565 84.737 123.341C84.737 123.089 84.8472 122.856 85.111 122.737C85.3443 122.627 85.6569 122.618 85.9432 122.618C86.1763 122.618 86.4887 122.631 86.7486 122.649V122.609C86.7486 122.261 86.5196 122.146 85.8946 122.146C85.6525 122.146 85.3575 122.159 85.0759 122.186V121.736C85.3883 121.71 85.7406 121.692 86.0311 121.692C86.4182 121.692 86.8191 121.723 87.0654 121.899C87.3204 122.08 87.3692 122.332 87.3692 122.662V123.98L86.8806 123.98Z" fill="#434343"/>
<path d="M90.2711 123.98V122.75C90.2711 122.345 90.0645 122.199 89.6945 122.199C89.4218 122.199 89.0785 122.27 88.7878 122.34V123.98H88.1673V121.754H88.6734L88.6955 121.895C89.087 121.794 89.523 121.692 89.884 121.692C90.1566 121.692 90.4341 121.732 90.6453 121.922C90.8212 122.08 90.8874 122.3 90.8874 122.618V123.98H90.2711Z" fill="#434343"/>
<path d="M92.6408 124.042C92.3547 124.042 92.0419 124.003 91.8132 123.809C91.5404 123.588 91.4611 123.24 91.4611 122.865C91.4611 122.513 91.5755 122.129 91.9144 121.914C92.1918 121.733 92.535 121.693 92.8915 121.693C93.1469 121.693 93.3978 121.711 93.6749 121.737V122.213C93.4503 122.191 93.1818 122.174 92.9664 122.174C92.3764 122.174 92.0993 122.359 92.0993 122.87C92.0993 123.351 92.3061 123.557 92.7901 123.557C93.0718 123.557 93.4023 123.505 93.7235 123.443V123.901C93.3756 123.972 92.9971 124.042 92.6408 124.042Z" fill="#434343"/>
<path d="M95.5566 122.159C94.9668 122.159 94.707 122.344 94.707 122.851C94.707 123.358 94.9623 123.574 95.5566 123.574C96.1418 123.574 96.397 123.393 96.397 122.886C96.397 122.38 96.1464 122.159 95.5566 122.159ZM96.6216 123.808C96.3488 123.992 95.9923 124.041 95.5566 124.041C95.1119 124.041 94.7555 123.988 94.4871 123.808C94.1789 123.605 94.0687 123.27 94.0687 122.869C94.0687 122.468 94.1789 122.128 94.4871 121.926C94.7555 121.745 95.1119 121.692 95.5566 121.692C95.9969 121.692 96.3488 121.745 96.6216 121.926C96.9298 122.128 97.0354 122.468 97.0354 122.864C97.0354 123.266 96.9254 123.605 96.6216 123.808Z" fill="#434343"/>
<path d="M100.618 124.041C100.245 124.041 99.8396 123.98 99.5357 123.729C99.1749 123.429 99.0649 122.966 99.0649 122.468C99.0649 122.023 99.2056 121.494 99.6766 121.186C100.042 120.948 100.495 120.899 100.953 120.899C101.288 120.899 101.631 120.922 102.005 120.952V121.494C101.684 121.468 101.288 121.446 100.98 121.446C100.121 121.446 99.7559 121.772 99.7559 122.468C99.7559 123.178 100.095 123.495 100.729 123.495C101.142 123.495 101.604 123.411 102.071 123.314V123.852C101.604 123.945 101.116 124.041 100.618 124.041Z" fill="#434343"/>
<path d="M103.895 122.089C103.38 122.089 103.181 122.274 103.142 122.614H104.639C104.621 122.252 104.41 122.089 103.895 122.089ZM103.802 124.041C103.437 124.041 103.107 123.997 102.86 123.794C102.596 123.574 102.504 123.244 102.504 122.864C102.504 122.525 102.614 122.146 102.922 121.926C103.195 121.732 103.543 121.692 103.895 121.692C104.212 121.692 104.586 121.728 104.858 121.917C105.215 122.168 105.246 122.556 105.25 123.014H103.138C103.151 123.354 103.331 123.574 103.956 123.574C104.343 123.574 104.775 123.517 105.14 123.46V123.896C104.713 123.967 104.247 124.041 103.802 124.041Z" fill="#434343"/>
<path d="M108.011 123.98V122.75C108.011 122.345 107.805 122.199 107.435 122.199C107.162 122.199 106.819 122.27 106.528 122.34V123.98H105.907V121.754H106.414L106.436 121.895C106.827 121.794 107.263 121.692 107.624 121.692C107.897 121.692 108.174 121.732 108.386 121.922C108.561 122.08 108.628 122.3 108.628 122.618V123.98H108.011Z" fill="#434343"/>
<path d="M110.394 124.042C110.095 124.042 109.822 123.958 109.672 123.724C109.562 123.566 109.509 123.35 109.509 123.05V122.217H109.06V121.754H109.509L109.576 121.08H110.126V121.754H111.001V122.217H110.126V122.931C110.126 123.103 110.139 123.248 110.187 123.354C110.253 123.504 110.398 123.561 110.592 123.561C110.737 123.561 110.913 123.539 111.037 123.518V123.962C110.834 124.002 110.601 124.042 110.394 124.042Z" fill="#434343"/>
<path d="M111.607 123.98V121.754H112.113L112.135 121.895C112.545 121.78 112.848 121.692 113.236 121.692C113.253 121.692 113.28 121.692 113.315 121.697V122.226C113.244 122.221 113.161 122.221 113.099 122.221C112.795 122.221 112.566 122.256 112.227 122.336V123.98L111.607 123.98Z" fill="#434343"/>
<path d="M115.571 123.045C115.311 123.023 115.047 123.01 114.77 123.01C114.317 123.01 114.158 123.103 114.158 123.31C114.158 123.504 114.29 123.609 114.638 123.609C114.928 123.609 115.276 123.544 115.571 123.477V123.045ZM115.703 123.98L115.685 123.847C115.307 123.94 114.867 124.041 114.479 124.041C114.241 124.041 113.986 124.01 113.806 123.878C113.639 123.759 113.559 123.565 113.559 123.341C113.559 123.089 113.669 122.856 113.933 122.737C114.167 122.627 114.479 122.618 114.765 122.618C114.999 122.618 115.311 122.631 115.571 122.649V122.609C115.571 122.261 115.342 122.146 114.717 122.146C114.475 122.146 114.18 122.159 113.898 122.186V121.736C114.211 121.71 114.563 121.692 114.854 121.692C115.241 121.692 115.641 121.723 115.888 121.899C116.143 122.08 116.191 122.332 116.191 122.662V123.98L115.703 123.98Z" fill="#434343"/>
<path d="M116.99 120.816H117.61V123.98H116.99V120.816Z" fill="#434343"/>
</g>
<path d="M95.9378 63.5222C93.6313 63.5222 91.4618 62.6461 89.8307 61.0557L81.0125 52.4535C80.3933 51.8479 79.3143 51.8497 78.6954 52.4535L69.845 61.0872C68.2139 62.6776 66.0444 63.5537 63.7378 63.5537H62L73.1685 74.4482C76.6564 77.8506 82.3116 77.8506 85.7997 74.4482L97 63.5222H95.9378Z" fill="#32BCAD"/>
<path d="M63.7373 31.9757C66.0439 31.9757 68.2135 32.8863 69.8446 34.5393L78.6951 43.5143C79.3325 44.1608 80.3733 44.1632 81.0123 43.5135L89.8306 34.572C91.4617 32.919 93.6312 32.0084 95.9378 32.0084H97L85.7998 20.6525C82.3114 17.1158 76.6561 17.1158 73.1682 20.6525L62 31.9757L63.7373 31.9757Z" fill="#32BCAD"/>
<path d="M106.375 40.997L99.5826 34.0277C99.4331 34.0892 99.2711 34.1276 99.1001 34.1276H96.0119C94.4153 34.1276 92.8524 34.792 91.7242 35.9505L82.8751 45.0304C82.047 45.8801 80.9588 46.3053 79.8717 46.3053C78.7836 46.3053 77.6962 45.8801 76.8683 45.0313L67.9859 35.9173C66.8577 34.7586 65.2947 34.0944 63.6981 34.0944H59.9008C59.7388 34.0944 59.5875 34.0552 59.4446 34L52.6253 40.997C49.1249 44.5887 49.1249 50.4116 52.6253 54.0032L59.4443 61C59.5875 60.9448 59.7388 60.9056 59.9008 60.9056H63.6981C65.2947 60.9056 66.8577 60.2414 67.9859 59.083L76.8675 49.9698C78.4729 48.324 81.2714 48.3235 82.8751 49.9706L91.7242 59.0498C92.8524 60.2082 94.4153 60.8727 96.0119 60.8727H99.1001C99.2711 60.8727 99.4331 60.911 99.5826 60.9725L106.375 54.0032C109.875 50.4115 109.875 44.5887 106.375 40.997Z" fill="#32BCAD"/>
</g>
<defs>
<filter id="filter0_d_257_74" x="6.99397" y="6.99414" width="164.746" height="164.746" filterUnits="userSpaceOnUse" color-interpolation-filters="sRGB">
<feFlood flood-opacity="0" result="BackgroundImageFix"/>
<feColorMatrix in="SourceAlpha" type="matrix" values="0 0 0 0 0 0 0 0 0 0 0 0 0 0 0 0 0 0 127 0" result="hardAlpha"/>
<feOffset dx="9" dy="10"/>
<feGaussianBlur stdDeviation="7"/>
<feColorMatrix type="matrix" values="0 0 0 0 0 0 0 0 0 0 0 0 0 0 0 0 0 0 0.471 0"/>
<feBlend mode="normal" in2="BackgroundImageFix" result="effect1_dropShadow_257_74"/>
<feBlend mode="normal" in="SourceGraphic" in2="effect1_dropShadow_257_74" result="shape"/>
</filter>
<clipPath id="clip0_257_74">
<rect width="178.746" height="178.747" fill="white"/>
</clipPath>
<clipPath id="clip1_257_74">
<rect width="124" height="44" fill="white" transform="translate(-6 83)"/>
</clipPath>
</defs>
</svg>
