<svg width="181" height="182" viewBox="0 0 181 182" fill="none" xmlns="http://www.w3.org/2000/svg">
<g filter="url(#filter0_d_257_24)">
<path d="M81.5 150.5C119.884 150.5 151 119.384 151 81C151 42.6162 119.884 11.5 81.5 11.5C43.1162 11.5 12 42.6162 12 81C12 119.384 43.1162 150.5 81.5 150.5Z" fill="#8A8A8A"/>
</g>
<path d="M81.4101 118.32C88.8091 118.32 96.0419 116.126 102.194 112.015C108.346 107.905 113.141 102.062 115.972 95.2262C118.804 88.3904 119.545 80.8685 118.101 73.6117C116.658 66.3549 113.095 59.689 107.863 54.4572C102.631 49.2253 95.9653 45.6623 88.7084 44.2188C81.4516 42.7754 73.9297 43.5162 67.0939 46.3477C60.2581 49.1792 54.4155 53.9741 50.3048 60.1261C46.1942 66.2782 44.0001 73.511 44.0001 80.91C43.9882 85.8261 44.9478 90.6961 46.8236 95.2402C48.6994 99.7844 51.4546 103.913 54.9308 107.389C58.407 110.866 62.5357 113.621 67.0799 115.497C71.624 117.372 76.494 118.332 81.4101 118.32Z" fill="#363636"/>
<path d="M91.698 86.8336C91.698 81.3776 88.425 79.5076 81.878 78.7286C77.202 78.1046 76.266 76.8586 76.266 74.6756C76.266 72.4926 77.825 71.0906 80.942 71.0906C83.748 71.0906 85.307 72.0256 86.086 74.3636C86.1664 74.5895 86.314 74.7852 86.5091 74.9245C86.7042 75.0638 86.9373 75.1399 87.177 75.1426H89.671C89.8153 75.1462 89.9587 75.1204 90.0927 75.0669C90.2266 75.0133 90.3484 74.9331 90.4504 74.831C90.5524 74.729 90.6327 74.6073 90.6862 74.4733C90.7398 74.3393 90.7655 74.1959 90.762 74.0516V73.8956C90.4604 72.2064 89.6093 70.664 88.3409 69.5083C87.0725 68.3526 85.4579 67.6482 83.748 67.5046V63.7636C83.748 63.1396 83.28 62.6726 82.501 62.5166H80.163C79.539 62.5166 79.072 62.9846 78.916 63.7636V67.3486C74.24 67.9726 71.278 71.0896 71.278 74.9866C71.278 80.1306 74.395 82.1566 80.942 82.9366C85.307 83.7156 86.71 84.6516 86.71 87.1456C86.71 89.6396 84.528 91.3546 81.566 91.3546C77.513 91.3546 76.11 89.6396 75.643 87.3016C75.5964 87.0441 75.4625 86.8105 75.2638 86.6402C75.065 86.4699 74.8137 86.3732 74.552 86.3666H71.902C71.7578 86.363 71.6143 86.3888 71.4803 86.4424C71.3463 86.496 71.2247 86.5762 71.1226 86.6782C71.0206 86.7802 70.9404 86.9019 70.8868 87.0359C70.8332 87.1699 70.8074 87.3134 70.811 87.4576V87.6136C71.434 91.5136 73.928 94.3136 79.072 95.0956V98.8366C79.072 99.4596 79.54 99.9276 80.319 100.084H82.657C83.281 100.084 83.748 99.6156 83.904 98.8366V95.0956C88.581 94.3156 91.698 91.0416 91.698 86.8336Z" fill="#8A8A8A"/>
<path d="M73.461 103.2C68.9752 101.556 65.1026 98.5739 62.3668 94.6571C59.6309 90.7404 58.1638 86.078 58.1638 81.3004C58.1638 76.5227 59.6309 71.8603 62.3668 67.9436C65.1026 64.0268 68.9752 61.0447 73.461 59.4004C73.7598 59.2702 74.0105 59.05 74.1781 58.7705C74.3457 58.4911 74.4219 58.1662 74.396 57.8414V55.6594C74.4173 55.3736 74.3343 55.0898 74.1624 54.8605C73.9904 54.6312 73.7413 54.472 73.461 54.4124C73.2411 54.3893 73.0202 54.4445 72.837 54.5684C67.1622 56.3718 62.2085 59.9344 58.693 64.7404C55.1775 69.5464 53.2827 75.3464 53.2827 81.3009C53.2827 87.2554 55.1775 93.0554 58.693 97.8614C62.2085 102.667 67.1622 106.23 72.837 108.033C72.9665 108.108 73.1118 108.151 73.2611 108.158C73.4103 108.166 73.5593 108.138 73.6958 108.078C73.8323 108.017 73.9525 107.925 74.0465 107.808C74.1406 107.692 74.2058 107.556 74.237 107.409C74.393 107.253 74.393 107.097 74.393 106.786V104.604C74.3444 104.318 74.2364 104.045 74.0759 103.804C73.9153 103.562 73.7059 103.356 73.461 103.2ZM89.984 54.5674C89.8545 54.4928 89.7092 54.45 89.5599 54.4423C89.4107 54.4346 89.2617 54.4623 89.1252 54.5231C88.9887 54.584 88.8686 54.6762 88.7745 54.7924C88.6804 54.9085 88.6152 55.0452 88.584 55.1914C88.428 55.3474 88.428 55.5034 88.428 55.8154V57.9974C88.4548 58.3113 88.553 58.6149 88.715 58.8851C88.8771 59.1553 89.0987 59.3849 89.363 59.5564C93.8488 61.2007 97.7214 64.1828 100.457 68.0996C103.193 72.0163 104.66 76.6787 104.66 81.4564C104.66 86.234 103.193 90.8964 100.457 94.8131C97.7214 98.7299 93.8488 101.712 89.363 103.356C89.0642 103.487 88.8136 103.707 88.6459 103.986C88.4783 104.266 88.4021 104.591 88.428 104.915V107.097C88.4067 107.383 88.4897 107.667 88.6617 107.896C88.8336 108.125 89.0827 108.285 89.363 108.344C89.5829 108.367 89.8039 108.312 89.987 108.188C95.659 106.359 100.605 102.779 104.113 97.961C107.621 93.1435 109.511 87.3375 109.511 81.3779C109.511 75.4183 107.621 69.6122 104.113 64.7947C100.605 59.9772 95.659 56.3964 89.987 54.5674H89.984Z" fill="#8A8A8A"/>
<defs>
<filter id="filter0_d_257_24" x="7" y="7.5" width="167" height="167" filterUnits="userSpaceOnUse" color-interpolation-filters="sRGB">
<feFlood flood-opacity="0" result="BackgroundImageFix"/>
<feColorMatrix in="SourceAlpha" type="matrix" values="0 0 0 0 0 0 0 0 0 0 0 0 0 0 0 0 0 0 127 0" result="hardAlpha"/>
<feOffset dx="9" dy="10"/>
<feGaussianBlur stdDeviation="7"/>
<feColorMatrix type="matrix" values="0 0 0 0 0 0 0 0 0 0 0 0 0 0 0 0 0 0 0.471 0"/>
<feBlend mode="normal" in2="BackgroundImageFix" result="effect1_dropShadow_257_24"/>
<feBlend mode="normal" in="SourceGraphic" in2="effect1_dropShadow_257_24" result="shape"/>
</filter>
</defs>
</svg>
