<?xml version="1.0" encoding="UTF-8"?>
<!DOCTYPE svg PUBLIC "-//W3C//DTD SVG 1.1//EN" "http://www.w3.org/Graphics/SVG/1.1/DTD/svg11.dtd">
<!-- Creator: CorelDRAW -->
<svg xmlns="http://www.w3.org/2000/svg" xml:space="preserve" width="52.9117mm" height="10.2407mm" version="1.1" style="shape-rendering:geometricPrecision; text-rendering:geometricPrecision; image-rendering:optimizeQuality; fill-rule:evenodd; clip-rule:evenodd"
viewBox="0 0 247.34 47.87"
 xmlns:xlink="http://www.w3.org/1999/xlink"
 xmlns:xodm="http://www.corel.com/coreldraw/odm/2003">
 <defs>
  <style type="text/css">
   <![CDATA[
    .fil0 {fill:#1877F2;fill-rule:nonzero}
   ]]>
  </style>
 </defs>
 <g id="Camada_x0020_1">
  <metadata id="CorelCorpID_0Corel-Layer"/>
  <path class="fil0" d="M15.67 47.13l-9.32 0 0 -23.23 -6.35 0 0 -7.56 6.35 0 0 -5.38c0,-6.38 2.81,-10.95 12.1,-10.95 1.97,0 5.05,0.4 5.05,0.4l0 7.02 -3.24 0c-3.3,0 -4.59,1 -4.59,3.78l0 5.13 7.71 0 -0.69 7.56 -7.02 0 -0 23.23zm21.38 -31.4c-0.14,0 -0.28,0 -0.41,0.01 -8.64,0 -12.6,6.5 -12.6,15.73 0,11.62 5.13,16.28 12.66,16.28 4.31,0 7.14,-1.81 8.86,-5.2l0 4.59 8.86 0 0 -30.8 -8.86 0 0 4.74c-1.41,-3.05 -4.32,-5.31 -8.52,-5.34zm2.25 7.28c3.63,0 5.81,2.53 5.81,6.84l0.01 4.4c0,2.9 -1.8,6.3 -5.82,6.3 -6.18,0 -6.01,-6.67 -6.01,-8.89 0,-7.47 3.29,-8.65 6.01,-8.65zm18.71 8.73c0,-3.74 -0.18,-15.99 15.78,-15.99 6.4,0 9.08,2.04 9.08,2.04l-2.15 6.67c0,0 -2.67,-1.47 -6.15,-1.47 -4.46,0 -7.3,2.58 -7.3,7.13l0.01 3.26c0,4.37 2.74,7.28 7.31,7.28 3.17,0 6.09,-1.48 6.09,-1.48l2.14 6.53c0,0 -2.45,2.05 -8.98,2.05 -15.19,0 -15.82,-10.99 -15.82,-16.01l-0 -0zm76.83 -16c8.64,0 12.66,6.5 12.66,15.73 0,11.62 -5.13,16.28 -12.66,16.28 -4.31,0 -7.5,-1.81 -9.22,-5.2l0 4.59 -8.75 -0 0 -46.2 9.29 -0.81 0 20.53c1.34,-3.59 5.75,-4.92 8.68,-4.92l0 0zm-2.61 7.27c-3.63,0 -6.08,2.53 -6.08,6.84l-0.01 4.4c-0.01,2.9 1.7,6.3 6.09,6.3 6.18,0 6.01,-6.67 6.01,-8.89 0,-7.47 -3.29,-8.65 -6.01,-8.65zm-33.25 -7.24c-9.8,0 -14.98,5.34 -14.98,14.84l0 1.76c0,12.33 7.27,15.5 15.93,15.5 8.42,0 12.23,-2.36 12.23,-2.36l-1.74 -6.27c0,0 -4.48,1.91 -9.38,1.91 -5.08,0 -7.26,-1.29 -7.82,-6.17l19.68 0 0 -5.03c0,-10.3 -5.81,-14.18 -13.93,-14.18l0 0zm0.24 6.28c3.39,0 5.59,2.08 5.47,6.91l-11.44 0c0.2,-5.08 2.57,-6.91 5.97,-6.91l0 0zm66.8 -6.32c-10.07,0 -15.37,5.67 -15.37,15.84 0,13.95 9.13,16.19 15.38,16.19 9.15,0 15.23,-4.92 15.23,-16.07 0,-11.6 -6.84,-15.96 -15.25,-15.96zm-0.13 7.31c4.43,0 6.18,3.31 6.18,7.08l0 3.24c0,4.57 -2.45,7.21 -6.2,7.21 -3.5,0 -5.96,-2.47 -5.96,-7.21l0 -3.24c0,-5.05 2.93,-7.08 5.98,-7.08zm33.89 -7.31c-10.07,0 -15.37,5.67 -15.37,15.84 0,13.95 9.13,16.19 15.38,16.19 9.15,0 15.23,-4.92 15.23,-16.07 0,-11.6 -6.84,-15.96 -15.25,-15.96zm-0.13 7.31c4.43,0 6.18,3.31 6.18,7.08l0 3.24c0,4.57 -2.45,7.21 -6.2,7.21 -3.5,0 -5.96,-2.47 -5.96,-7.21l0 -3.24c0,-5.05 2.93,-7.08 5.98,-7.08zm18.89 24.1l0 -46.2 9.32 -0.81 0 30.96 9.25 -14.75 9.84 0 -9.65 15.28 10.02 15.52 -9.87 0 -9.59 -15.07 0 15.07 -9.32 0z"/>
 </g>
</svg>
