<?xml version="1.0" encoding="UTF-8"?>
<!DOCTYPE svg PUBLIC "-//W3C//DTD SVG 1.1//EN" "http://www.w3.org/Graphics/SVG/1.1/DTD/svg11.dtd">
<!-- Creator: CorelDRAW -->
<svg xmlns="http://www.w3.org/2000/svg" xml:space="preserve" width="34.7298mm" height="9.8728mm" version="1.1" style="shape-rendering:geometricPrecision; text-rendering:geometricPrecision; image-rendering:optimizeQuality; fill-rule:evenodd; clip-rule:evenodd"
viewBox="0 0 86.3 24.53"
 xmlns:xlink="http://www.w3.org/1999/xlink"
 xmlns:xodm="http://www.corel.com/coreldraw/odm/2003">
 <defs>
  <style type="text/css">
   <![CDATA[
    .fil0 {fill:white;fill-rule:nonzero}
   ]]>
  </style>
 </defs>
 <g id="Camada_x0020_1">
  <metadata id="CorelCorpID_0Corel-Layer"/>
  <g>
   <path class="fil0" d="M4.44 0.09c-1.77,0.74 -3.71,2.83 -4.32,5.46 -0.78,3.33 2.46,4.74 2.72,4.28 0.31,-0.54 -0.58,-0.73 -0.76,-2.45 -0.24,-2.23 0.8,-4.72 2.1,-5.82 0.24,-0.2 0.23,0.08 0.23,0.6 0,0.94 -0.05,9.33 -0.05,11.09 0,2.37 -0.1,3.12 -0.27,3.86 -0.18,0.75 -0.46,1.26 -0.25,1.45 0.24,0.22 1.28,-0.3 1.87,-1.14 0.72,-1 0.97,-2.21 1.01,-3.52 0.05,-1.58 0.05,-4.08 0.05,-5.51 0,-1.31 0.02,-5.15 -0.02,-7.45 -0.01,-0.57 -1.58,-1.16 -2.32,-0.85l0 0zm62.72 11.1c-0.06,1.23 -0.33,2.2 -0.67,2.88 -0.65,1.32 -2.01,1.72 -2.59,-0.17 -0.31,-1.03 -0.33,-2.75 -0.1,-4.19 0.23,-1.47 0.87,-2.57 1.94,-2.47 1.05,0.1 1.54,1.45 1.42,3.96zm-17.68 7.65c-0.01,2.05 -0.34,3.84 -1.03,4.37 -0.98,0.74 -2.29,0.18 -2.02,-1.31 0.24,-1.32 1.38,-2.67 3.05,-4.32 0,0 0,0.38 -0,1.27zm-0.27 -7.66c-0.06,1.12 -0.35,2.25 -0.67,2.89 -0.65,1.32 -2.02,1.73 -2.59,-0.17 -0.39,-1.29 -0.29,-2.97 -0.1,-4.03 0.25,-1.37 0.85,-2.64 1.94,-2.64 1.05,0 1.57,1.16 1.42,3.94zm-10.24 -0.02c-0.06,1.19 -0.3,2.18 -0.67,2.91 -0.67,1.31 -2,1.72 -2.59,-0.17 -0.42,-1.36 -0.28,-3.22 -0.1,-4.22 0.26,-1.49 0.91,-2.54 1.94,-2.44 1.05,0.1 1.56,1.45 1.42,3.93zm46.93 1.39c-0.26,0 -0.37,0.26 -0.47,0.71 -0.34,1.55 -0.69,1.9 -1.14,1.9 -0.51,0 -0.96,-0.77 -1.08,-2.3 -0.09,-1.21 -0.08,-3.43 0.04,-5.64 0.02,-0.45 -0.1,-0.9 -1.32,-1.35 -0.52,-0.19 -1.28,-0.47 -1.66,0.45 -1.07,2.59 -1.49,4.64 -1.59,5.48 -0.01,0.04 -0.06,0.05 -0.07,-0.05 -0.06,-0.67 -0.2,-1.88 -0.22,-4.44 -0,-0.5 -0.11,-0.92 -0.66,-1.27 -0.36,-0.23 -1.44,-0.62 -1.83,-0.15 -0.34,0.39 -0.73,1.43 -1.13,2.67 -0.33,1 -0.56,1.68 -0.56,1.68 0,0 0,-2.71 0.01,-3.74 0,-0.39 -0.26,-0.52 -0.34,-0.54 -0.36,-0.1 -1.07,-0.28 -1.37,-0.28 -0.37,0 -0.46,0.21 -0.46,0.51 0,0.04 -0.06,3.57 -0.06,6.04 0,0.11 0,0.22 0,0.35 -0.21,1.13 -0.87,2.67 -1.6,2.67 -0.73,0 -1.07,-0.64 -1.07,-3.59 0,-1.72 0.05,-2.46 0.08,-3.7 0.01,-0.72 0.04,-1.26 0.04,-1.39 -0.01,-0.38 -0.66,-0.57 -0.97,-0.65 -0.31,-0.07 -0.58,-0.1 -0.79,-0.09 -0.3,0.02 -0.51,0.21 -0.51,0.48 0,0.14 0,0.42 0,0.42 -0.38,-0.6 -0.99,-1.02 -1.4,-1.14 -1.1,-0.33 -2.25,-0.04 -3.11,1.18 -0.69,0.96 -1.1,2.06 -1.27,3.62 -0.12,1.15 -0.08,2.31 0.13,3.29 -0.26,1.11 -0.73,1.56 -1.25,1.56 -0.76,0 -1.3,-1.24 -1.24,-3.37 0.04,-1.41 0.32,-2.39 0.63,-3.82 0.13,-0.61 0.02,-0.93 -0.24,-1.23 -0.24,-0.28 -0.77,-0.42 -1.51,-0.25 -0.53,0.13 -1.3,0.26 -1.99,0.36 0,0 0.04,-0.17 0.08,-0.47 0.18,-1.56 -1.51,-1.43 -2.05,-0.93 -0.32,0.3 -0.54,0.65 -0.62,1.28 -0.13,1 0.68,1.47 0.68,1.47 -0.27,1.22 -0.92,2.82 -1.6,3.98 -0.36,0.62 -0.64,1.08 -1,1.57 -0,-0.18 -0,-0.36 -0,-0.54 -0.01,-2.57 0.03,-4.6 0.04,-5.33 0.01,-0.71 0.04,-1.25 0.04,-1.37 -0,-0.28 -0.17,-0.38 -0.51,-0.52 -0.3,-0.12 -0.65,-0.2 -1.02,-0.23 -0.46,-0.04 -0.74,0.21 -0.74,0.5 0,0.05 0,0.39 0,0.39 -0.38,-0.6 -0.99,-1.02 -1.4,-1.14 -1.1,-0.33 -2.25,-0.04 -3.11,1.18 -0.69,0.96 -1.14,2.32 -1.27,3.61 -0.12,1.21 -0.1,2.23 0.06,3.1 -0.17,0.87 -0.68,1.77 -1.25,1.77 -0.73,0 -1.14,-0.64 -1.14,-3.59 0,-1.72 0.05,-2.46 0.08,-3.7 0.01,-0.71 0.04,-1.26 0.04,-1.39 -0.01,-0.38 -0.66,-0.57 -0.97,-0.65 -0.32,-0.07 -0.6,-0.1 -0.81,-0.09 -0.28,0.02 -0.48,0.27 -0.48,0.46l0 0.43c-0.38,-0.6 -0.99,-1.02 -1.4,-1.14 -1.1,-0.33 -2.24,-0.03 -3.11,1.18 -0.57,0.79 -1.03,1.66 -1.27,3.59 -0.07,0.56 -0.1,1.08 -0.09,1.57 -0.23,1.39 -1.23,2.99 -2.05,2.99 -0.48,0 -0.94,-0.93 -0.94,-2.92 0,-2.64 0.16,-6.41 0.19,-6.77 0,0 1.03,-0.02 1.23,-0.02 0.52,-0.01 0.98,0.01 1.67,-0.03 0.34,-0.02 0.68,-1.26 0.32,-1.41 -0.16,-0.07 -1.3,-0.13 -1.75,-0.14 -0.38,-0.01 -1.44,-0.09 -1.44,-0.09 0,0 0.09,-2.5 0.12,-2.76 0.02,-0.22 -0.27,-0.33 -0.43,-0.4 -0.4,-0.17 -0.75,-0.25 -1.17,-0.33 -0.58,-0.12 -0.84,-0 -0.89,0.49 -0.08,0.74 -0.12,2.93 -0.12,2.93 -0.43,0 -1.88,-0.08 -2.31,-0.08 -0.4,0 -0.82,1.71 -0.28,1.73 0.63,0.02 1.73,0.05 2.45,0.07 0,0 -0.03,3.83 -0.03,5.01 0,0.13 0,0.25 0,0.36 -0.4,2.09 -1.81,3.22 -1.81,3.22 0.3,-1.38 -0.32,-2.42 -1.43,-3.3 -0.41,-0.32 -1.22,-0.94 -2.13,-1.61 0,0 0.53,-0.52 0.99,-1.56 0.33,-0.74 0.34,-1.58 -0.47,-1.77 -1.34,-0.31 -2.44,0.68 -2.77,1.73 -0.25,0.81 -0.12,1.42 0.38,2.05 0.04,0.05 0.08,0.09 0.12,0.14 -0.3,0.58 -0.72,1.37 -1.07,1.98 -0.98,1.69 -1.71,3.03 -2.27,3.03 -0.44,0 -0.44,-1.36 -0.44,-2.63 0,-1.1 0.08,-2.74 0.15,-4.45 0.02,-0.56 -0.26,-0.89 -0.73,-1.18 -0.29,-0.18 -0.9,-0.52 -1.25,-0.52 -0.53,0 -2.06,0.07 -3.51,4.26 -0.18,0.53 -0.54,1.49 -0.54,1.49l0.03 -5.04c0,-0.12 -0.06,-0.23 -0.21,-0.31 -0.24,-0.13 -0.89,-0.4 -1.47,-0.4 -0.28,0 -0.41,0.13 -0.41,0.38l-0.05 7.89c0,0.6 0.02,1.3 0.07,1.6 0.06,0.31 0.15,0.56 0.27,0.7 0.12,0.15 0.25,0.26 0.48,0.31 0.21,0.04 1.36,0.19 1.42,-0.25 0.07,-0.53 0.07,-1.1 0.68,-3.22 0.94,-3.31 2.16,-4.92 2.74,-5.49 0.1,-0.1 0.22,-0.11 0.21,0.06 -0.02,0.72 -0.11,2.54 -0.17,4.08 -0.16,4.12 0.59,4.88 1.66,4.88 0.82,0 1.97,-0.81 3.2,-2.87 0.77,-1.28 1.52,-2.54 2.05,-3.45 0.37,0.35 0.79,0.72 1.21,1.12 0.98,0.93 1.3,1.81 1.08,2.65 -0.16,0.64 -0.77,1.3 -1.86,0.66 -0.32,-0.19 -0.45,-0.33 -0.77,-0.54 -0.17,-0.11 -0.43,-0.15 -0.59,-0.03 -0.41,0.31 -0.64,0.7 -0.77,1.19 -0.13,0.47 0.34,0.72 0.83,0.94 0.42,0.19 1.33,0.36 1.9,0.38 2.25,0.08 4.05,-1.09 5.31,-4.09 0.22,2.59 1.18,4.06 2.84,4.06 1.11,0 2.22,-1.44 2.71,-2.85 0.14,0.58 0.35,1.08 0.61,1.5 1.28,2.03 3.76,1.59 5.01,-0.13 0.39,-0.53 0.44,-0.72 0.44,-0.72 0.18,1.63 1.49,2.2 2.24,2.2 0.84,0 1.71,-0.4 2.31,-1.77 0.07,0.15 0.15,0.29 0.23,0.43 1.28,2.03 3.76,1.59 5.01,-0.13 0.06,-0.08 0.11,-0.15 0.15,-0.22l0.04 1.07c0,0 -0.71,0.65 -1.15,1.05 -1.92,1.77 -3.38,3.11 -3.49,4.67 -0.14,1.99 1.47,2.73 2.69,2.83 1.29,0.1 2.4,-0.61 3.08,-1.62 0.6,-0.88 0.99,-2.78 0.96,-4.66 -0.01,-0.75 -0.03,-1.71 -0.05,-2.73 0.68,-0.79 1.44,-1.78 2.14,-2.94 0.76,-1.27 1.58,-2.97 2,-4.29 0,0 0.71,0.01 1.47,-0.04 0.24,-0.02 0.31,0.03 0.27,0.21 -0.05,0.22 -0.96,3.71 -0.13,6.04 0.56,1.59 1.84,2.11 2.59,2.11 0.88,0 1.73,-0.67 2.18,-1.66 0.05,0.11 0.11,0.22 0.17,0.32 1.28,2.03 3.75,1.59 5.01,-0.13 0.28,-0.39 0.44,-0.72 0.44,-0.72 0.27,1.69 1.58,2.21 2.33,2.21 0.78,0 1.52,-0.32 2.12,-1.75 0.03,0.63 0.06,1.14 0.13,1.3 0.04,0.1 0.26,0.22 0.42,0.28 0.71,0.27 1.44,0.14 1.71,0.09 0.19,-0.04 0.33,-0.19 0.35,-0.58 0.05,-1.02 0.02,-2.73 0.33,-4 0.52,-2.13 1,-2.96 1.23,-3.37 0.13,-0.23 0.27,-0.27 0.28,-0.02 0.01,0.49 0.04,1.93 0.24,3.87 0.15,1.43 0.34,2.27 0.49,2.53 0.43,0.76 0.96,0.8 1.4,0.8 0.28,0 0.85,-0.08 0.8,-0.56 -0.02,-0.24 0.02,-1.7 0.53,-3.8 0.33,-1.37 0.89,-2.61 1.09,-3.06 0.07,-0.17 0.11,-0.04 0.11,-0.01 -0.04,0.94 -0.14,4.03 0.25,5.72 0.52,2.29 2.03,2.55 2.55,2.55 1.12,0 2.04,-0.85 2.34,-3.1 0.07,-0.54 -0.04,-0.96 -0.37,-0.96l-0 0zm0 0l0 0 0 0z"/>
  </g>
 </g>
</svg>
