<?xml version="1.0" encoding="UTF-8"?>
<!DOCTYPE svg PUBLIC "-//W3C//DTD SVG 1.1//EN" "http://www.w3.org/Graphics/SVG/1.1/DTD/svg11.dtd">
<!-- Creator: CorelDRAW -->
<svg xmlns="http://www.w3.org/2000/svg" xml:space="preserve" width="37.5068mm" height="11.1116mm" version="1.1" style="shape-rendering:geometricPrecision; text-rendering:geometricPrecision; image-rendering:optimizeQuality; fill-rule:evenodd; clip-rule:evenodd"
viewBox="0 0 101.53 30.08"
 xmlns:xlink="http://www.w3.org/1999/xlink"
 xmlns:xodm="http://www.corel.com/coreldraw/odm/2003">
 <defs>
  <style type="text/css">
   <![CDATA[
    .fil0 {fill:#FF7705}
    .fil1 {fill:white}
    .fil4 {fill:url(#id0)}
    .fil3 {fill:url(#id1)}
    .fil6 {fill:url(#id2)}
    .fil2 {fill:url(#id3)}
    .fil5 {fill:url(#id4)}
   ]]>
  </style>
  <linearGradient id="id0" gradientUnits="userSpaceOnUse" x1="70.56" y1="17.8" x2="70.44" y2="13.77">
   <stop offset="0" style="stop-opacity:1; stop-color:#FF6000"/>
   <stop offset="0.0196078" style="stop-opacity:1; stop-color:#FF6000"/>
   <stop offset="1" style="stop-opacity:1; stop-color:#FF8D0A"/>
  </linearGradient>
  <linearGradient id="id1" gradientUnits="userSpaceOnUse" x1="66.29" y1="28.21" x2="66.09" y2="27.29">
   <stop offset="0" style="stop-opacity:1; stop-color:#FF6000"/>
   <stop offset="1" style="stop-opacity:1; stop-color:#FF8D0A"/>
  </linearGradient>
  <linearGradient id="id2" gradientUnits="userSpaceOnUse" xlink:href="#id1" x1="76.46" y1="6.89" x2="76.3" y2="1.12">
  </linearGradient>
  <linearGradient id="id3" gradientUnits="userSpaceOnUse" xlink:href="#id1" x1="73.44" y1="18.07" x2="73.33" y2="15.16">
  </linearGradient>
  <linearGradient id="id4" gradientUnits="userSpaceOnUse" xlink:href="#id1" x1="75.08" y1="15.99" x2="75.08" y2="11.29">
  </linearGradient>
 </defs>
 <g id="Camada_x0020_1">
  <metadata id="CorelCorpID_0Corel-Layer"/>
  <g id="_1557925572032">
   <g>
    <path class="fil0" d="M23.5 30.08l-16.92 0c-3.64,0 -6.58,-2.94 -6.58,-6.58l0 -16.92c0,-3.64 2.94,-6.58 6.58,-6.58l16.88 -0c3.64,0 6.58,2.94 6.58,6.58l0 16.92c0,3.64 -2.94,6.58 -6.53,6.58l0 0zm0 0l0 0 0 0z"/>
   </g>
   <path class="fil1" d="M10.08 25.3c-0.35,0 -1.18,-0.18 -2.02,-0.39 -0.83,-0.22 -1.4,-0.53 -1.4,-0.53 -0.31,-0.18 -0.44,-0.44 -0.48,-0.7 0,0 -0.09,-0.88 -0.09,-2.54 0,-1.27 0.04,-1.97 0.09,-2.15 0.04,-0.22 0.13,-0.39 0.44,-0.39 0.31,0 0.66,0 1.58,0.18 1.1,0.22 1.62,0.39 1.89,0.48 0.22,0.09 0.48,0.26 0.53,0.61 0,0 0.13,0.92 0.13,2.32 0,1.14 -0.09,2.28 -0.13,2.63 -0.04,0.31 -0.18,0.48 -0.53,0.48l0 0zm4.95 -3.95c0,-0.22 -0.09,-0.39 -0.22,-0.53l-2.85 -2.81c-0.31,-0.35 -0.7,-0.57 -1.18,-0.66 0,0 -1.05,-0.26 -2.67,-0.53 -1.58,-0.26 -2.02,-0.22 -2.02,-0.22 -1.4,0 -1.45,1.49 -1.49,1.67 -0.04,0.35 -0.13,1.32 -0.13,2.67 0,1.58 0.09,2.67 0.13,3.38 0.13,1.01 0.92,1.49 1.27,1.71 0.09,0.04 1.1,0.48 2.06,0.79 0.66,0.22 1.75,0.53 2.24,0.57 0.18,0.04 1.14,0.18 1.62,-0.44l3.03 -3.9c0.13,-0.18 0.18,-0.26 0.18,-0.53l0.04 -1.18 0 0zm6.62 -5.7c-0.44,-0.04 -0.88,-0.04 -1.27,-0.04l-6.8 0.66c0,0 -0.44,0.09 -0.7,0.39 -0.22,0.26 -0.22,0.48 -0.22,0.48l0.18 0.18 2.67 2.72c0.31,0.31 0.48,0.57 0.48,1.01l0 1.53c0,0.26 -0.04,0.53 -0.18,0.7l-1.45 1.97 1.45 0.57c0.57,0.18 1.05,0.18 1.62,0.09l6.23 -1.45c0,0 1.14,-0.31 1.14,-1.36l0 -3.81c0,-0.09 -0.04,-0.13 -0.13,-0.13l-3.99 0.79c-0.13,0.04 -0.26,0.18 -0.26,0.31l0 1.84c0,0.13 0.13,0.22 0.26,0.18l1.23 -0.26c0.04,0 0.13,0.04 0.13,0.13l0 0.61c0,0.13 -0.09,0.22 -0.22,0.22l-1.4 0.31c0,0 -0.96,0.26 -0.96,-0.79l0 -2.37c0,-1.01 0.75,-1.14 0.75,-1.14l4.38 -0.83c0.13,0 0.22,-0.13 0.22,-0.22l0 -0.96c0,-1.05 -1.01,-1.14 -1.01,-1.14l-2.15 -0.18 0 0zm-8.16 -9.95c1.62,0.09 2.85,1.62 2.76,3.51 -0.09,1.89 -1.49,3.38 -3.07,3.33 -1.62,-0.09 -2.81,-1.62 -2.72,-3.51 0.09,-1.93 1.45,-3.42 3.03,-3.33zm6.58 4.38c0.09,-1.27 0.96,-2.28 2.06,-2.24 1.01,0.04 1.84,1.14 1.8,2.37 -0.09,1.27 -1.01,2.28 -2.06,2.24 -1.05,-0.04 -1.84,-1.1 -1.8,-2.37zm5.48 0.18c0,-2.54 -1.89,-4.56 -4.21,-4.56 -1.36,0 -2.59,0.7 -3.38,1.8 -0.61,-2.72 -2.85,-4.69 -5.57,-4.69 -3.24,0 -5.83,2.81 -5.79,6.23 0,3.46 2.63,6.31 5.79,6.27 0.18,0 8.99,-0.61 8.94,-0.61 2.5,-0.22 4.21,-1.93 4.21,-4.43z"/>
   <g>
    <g>
     <path class="fil2" d="M82.37 10.52l0.04 0c1.18,-0.22 2.89,-0.48 4.87,-0.48 4.12,0 6.36,1.84 6.36,5.57l0 10.48c0,0.31 -0.26,0.61 -0.57,0.61l-2.46 0c-0.09,0 -0.31,-0.04 -0.44,-0.18 -0.13,-0.09 -0.18,-0.31 -0.18,-0.39l0 -0.22c-0.35,0.39 -1.1,0.96 -3.2,1.01 -2.24,0.04 -3.33,-0.57 -3.86,-0.96 -0.66,-0.48 -1.18,-1.1 -1.58,-1.8 -0.22,-0.44 -0.39,-0.92 -0.48,-1.8 -0.09,-0.96 0.09,-1.89 0.35,-2.5 0.75,-1.8 2.63,-2.81 5.96,-3.03 1.01,-0.04 2.67,-0.09 2.67,-0.09l0 -1.1c0,-1.89 -0.79,-2.15 -2.5,-2.15 -2.46,0 -4.65,0.44 -5.04,0.53 -0.18,0 -0.26,-0.04 -0.31,-0.09 -0.09,-0.09 -0.13,-0.22 -0.13,-0.26l0 -2.46c0,-0.26 0.22,-0.48 0.48,-0.57 -0.04,-0.13 -0.04,-0.13 0,-0.13l0 0zm2.19 11.22c0.09,-1.05 1.05,-1.4 1.27,-1.45 0.48,-0.18 1.14,-0.31 1.97,-0.35 1.01,-0.09 1.97,-0.04 1.97,-0.04l0 3.33c-0.83,0.39 -1.49,0.57 -2.5,0.61l-0.31 0c-0.92,0 -2.24,-0.26 -2.46,-1.89 0.04,-0.13 0.04,-0.18 0.04,-0.22z"/>
     <path class="fil3" d="M98.11 10.52c-0.35,0 -0.57,0.31 -0.61,0.61l0 14.91c0,0.09 0.04,0.22 0.18,0.39 0.13,0.18 0.35,0.18 0.44,0.18l2.81 0c0.39,0 0.57,-0.26 0.57,-0.61l0 -14.82c0,-0.35 -0.26,-0.61 -0.61,-0.61l-2.76 0 0 -0.04z"/>
     <path class="fil4" d="M49.13 3.37c-0.22,0 -0.39,0.09 -0.53,0.22l-7.02 8.9c-0.18,0.22 -0.61,0.04 -0.61,-0.31l0 -8.16c0,-0.22 -0.09,-0.35 -0.18,-0.48 -0.09,-0.09 -0.22,-0.22 -0.44,-0.22l-2.81 0c-0.39,0 -0.66,0.31 -0.66,0.66l0 21.97c0,0.22 0.09,0.35 0.18,0.44 0.13,0.13 0.31,0.18 0.44,0.18l2.81 0c0.44,0 0.66,-0.26 0.66,-0.61l0 -9.47c0,-0.75 0.57,-0.61 0.79,-0.35l8.46 10.08c0.18,0.22 0.44,0.35 0.75,0.35l3.77 0c0.09,0 0.13,-0.04 0.18,-0.13 0.04,-0.09 0.04,-0.22 -0.04,-0.26l-9.65 -11.31c-0.13,-0.13 -0.18,-0.31 -0.09,-0.44l8.02 -10.74c0.04,-0.04 0.09,-0.13 0,-0.26 -0.09,-0.09 -0.13,-0.09 -0.18,-0.09l-3.86 0.04 0 0z"/>
     <path class="fil5" d="M98.11 3.37c-0.39,0 -0.61,0.26 -0.61,0.57l0 3.33c0,0.35 0.26,0.61 0.61,0.61l2.76 0c0.39,0 0.66,-0.26 0.66,-0.61l0 -3.29c0,-0.35 -0.26,-0.61 -0.61,-0.61l-2.81 0z"/>
     <path class="fil6" d="M71.58 20.65c-0.09,0.31 -0.53,0.31 -0.66,0l-3.55 -9.73c-0.09,-0.18 -0.31,-0.35 -0.57,-0.35l-1.84 0c-0.31,0 -0.53,0.18 -0.61,0.39l-3.55 9.69c-0.09,0.31 -0.61,0.31 -0.66,0l-2.67 -9.34c0,-0.04 -0.04,-0.39 -0.26,-0.57 -0.22,-0.13 -0.26,-0.13 -0.53,-0.18l-2.46 0c-0.39,0 -0.75,0.31 -0.66,0.75 0,0.04 4.03,14.51 4.12,14.82 0.04,0.18 0.09,0.31 0.22,0.39 0.13,0.09 0.26,0.18 0.44,0.18l3.9 0c0.31,0 0.53,-0.13 0.61,-0.35l0.61 -1.4 2.24 -5.96c0.13,-0.26 0.53,-0.31 0.61,0l2.67 7.28c0.04,0.13 0.09,0.22 0.22,0.31 0.09,0.09 0.26,0.13 0.39,0.13l4.12 0c0.35,0 0.61,-0.18 0.66,-0.44l0.18 -0.7c0,0 0.09,-0.39 0.31,-1.14l3.33 -12.93c0.09,-0.39 -0.09,-0.79 -0.48,-0.88l-2.85 0c-0.31,0 -0.53,0.18 -0.61,0.44 -0.09,0.18 -2.59,9.3 -2.67,9.6z"/>
    </g>
   </g>
  </g>
 </g>
</svg>
