<?xml version="1.0" encoding="UTF-8"?>
<!DOCTYPE svg PUBLIC "-//W3C//DTD SVG 1.1//EN" "http://www.w3.org/Graphics/SVG/1.1/DTD/svg11.dtd">
<!-- Creator: CorelDRAW -->
<svg xmlns="http://www.w3.org/2000/svg" xml:space="preserve" width="42.0373mm" height="12.5291mm" version="1.1" style="shape-rendering:geometricPrecision; text-rendering:geometricPrecision; image-rendering:optimizeQuality; fill-rule:evenodd; clip-rule:evenodd"
viewBox="0 0 127.1 37.88"
 xmlns:xlink="http://www.w3.org/1999/xlink"
 xmlns:xodm="http://www.corel.com/coreldraw/odm/2003">
 <defs>
  <style type="text/css">
   <![CDATA[
    .fil3 {fill:#FEFEFE;fill-rule:nonzero}
    .fil5 {fill:#EE3E60;fill-rule:nonzero}
    .fil0 {fill:#EE3A60;fill-rule:nonzero}
    .fil4 {fill:#11BCC1;fill-rule:nonzero}
    .fil1 {fill:#02BABF;fill-rule:nonzero}
    .fil2 {fill:#00BABF;fill-rule:nonzero}
   ]]>
  </style>
 </defs>
 <g id="Camada_x0020_1">
  <metadata id="CorelCorpID_0Corel-Layer"/>
  <g id="_1559090903488">
   <g>
    <path class="fil0" d="M27.06 7.35c-2.3,-2.53 -2.17,-5.82 -2.17,-5.82l-1.79 0c0.29,1.65 1.2,4.25 3.96,5.82z"/>
    <path class="fil0" d="M11.56 19.58c-2.87,0 -5.19,2.32 -5.19,5.19 0,2.09 1.24,3.89 3.02,4.71 -0.68,-0.88 -1.09,-1.98 -1.09,-3.18 0,-2.87 2.32,-5.19 5.19,-5.19 0.56,0 1.09,0.09 1.6,0.25l0 -6.49c-0.52,-0.07 -1.05,-0.11 -1.6,-0.11 -0.11,0 -0.22,0 -0.33,0l0 5.06c-0.5,-0.16 -1.04,-0.25 -1.6,-0.25z"/>
    <path class="fil0" d="M31.77 9.92l0 5.1c0,0 -3.85,0.55 -8.73,-2.75 0,1.97 0,3.93 0,5.9 0,4 0.52,8.15 -1.33,11.85 -1.94,3.87 -5.8,6.34 -10.15,6.34 -2.28,0 -4.4,-0.66 -6.19,-1.79 2.09,2.06 4.95,3.33 8.11,3.33 4.35,0 8.21,-2.46 10.15,-6.34 1.85,-3.7 1.33,-7.85 1.33,-11.85 0,-1.97 0,-3.93 0,-5.9 4.88,3.3 8.73,2.75 8.73,2.75l0 -6.37c-0.7,-0.05 -1.34,-0.14 -1.93,-0.27z"/>
    <path class="fil1" d="M31.77 9.92l0 -1.27c-1.98,-0.14 -3.52,-0.62 -4.71,-1.3 1.02,1.12 2.51,2.09 4.71,2.57z"/>
    <path class="fil2" d="M1.93 26.32c0,-6.27 5,-11.38 11.23,-11.55l0 -1.43c-0.52,-0.07 -1.05,-0.11 -1.6,-0.11 -6.38,0 -11.56,5.18 -11.56,11.56 0,4.11 2.14,7.71 5.37,9.76 -2.13,-2.1 -3.44,-5.01 -3.44,-8.23z"/>
    <path class="fil2" d="M13.49 31.49c2.82,0 4.93,-2.2 5.14,-4.92 0.26,-3.51 0.13,-7.03 0.13,-10.55 0,-0.33 0,-14.49 0,-14.49l4.34 0c-0.16,-0.91 -0.14,-1.53 -0.14,-1.53l-6.13 0c0,0 0,14.16 0,14.49 0,3.52 0.13,7.04 -0.13,10.55 -0.2,2.72 -2.32,4.92 -5.14,4.92 -0.78,0 -1.51,-0.17 -2.17,-0.48 0.95,1.22 2.43,2.01 4.1,2.01z"/>
    <path class="fil3" d="M21.71 30.01c1.85,-3.7 1.33,-7.85 1.33,-11.85 0,-1.97 0,-3.93 0,-5.9 4.88,3.3 8.73,2.75 8.73,2.75l0 -5.1c-2.19,-0.47 -3.69,-1.45 -4.71,-2.57 -2.76,-1.57 -3.67,-4.17 -3.96,-5.82l-4.34 0c0,0 0,14.16 0,14.49 0,3.51 0.13,7.04 -0.13,10.55 -0.2,2.72 -2.32,4.92 -5.14,4.92 -1.67,0 -3.15,-0.79 -4.1,-2.01 -1.78,-0.82 -3.02,-2.62 -3.02,-4.71 0,-2.87 2.32,-5.19 5.19,-5.19 0.56,0 1.09,0.09 1.6,0.25l0 -5.06c-6.23,0.18 -11.23,5.28 -11.23,11.55 0,3.22 1.32,6.13 3.44,8.23 1.79,1.14 3.91,1.79 6.19,1.79 4.35,0 8.21,-2.46 10.15,-6.34z"/>
   </g>
   <g>
    <polygon class="fil3" points="38.85,12.79 38.85,17.1 43.57,17.1 43.57,32.21 48.5,32.21 48.5,17.21 52.3,17.21 53.95,12.79 "/>
    <polygon class="fil3" points="77.89,12.79 77.89,17.1 82.61,17.1 82.61,32.21 87.54,32.21 87.54,17.21 91.34,17.21 92.99,12.79 "/>
    <polygon class="fil3" points="54.36,32.21 59.29,32.21 59.29,19.26 54.36,19.26 "/>
    <path class="fil3" d="M59.29 15.25c0,1.36 -1.1,2.47 -2.47,2.47 -1.36,0 -2.47,-1.1 -2.47,-2.47 0,-1.36 1.1,-2.47 2.47,-2.47 1.36,0 2.47,1.1 2.47,2.47z"/>
    <path class="fil3" d="M60.83 12.79l0 19.42c0,0 4.78,-0.15 4.93,0 0.15,0.15 0,-4.73 0,-4.73l1.64 -1.34 4.11 6.06 5.24 0 -6.58 -9.25 5.96 -5.24 -5.86 0 -4.31 4.21 0 -9.14 -5.14 0z"/>
    <path class="fil3" d="M111.17 12.79l0 19.42c0,0 4.78,-0.15 4.93,0 0.15,0.15 0,-4.73 0,-4.73l1.64 -1.34 4.11 6.06 5.24 0 -6.58 -9.25 5.96 -5.24 -5.86 0 -4.31 4.21 0 -9.14 -5.14 0z"/>
    <path class="fil4" d="M92.17 24.35c0,-4.38 3.4,-7.96 7.71,-8.25 -0.19,-0.01 -0.38,-0.02 -0.57,-0.02 -4.57,0 -8.27,3.7 -8.27,8.27 0,4.57 3.7,8.27 8.27,8.27 0.19,0 0.38,-0.01 0.57,-0.02 -4.3,-0.29 -7.71,-3.87 -7.71,-8.25z"/>
    <path class="fil5" d="M101.26 16.08c-0.14,0 -0.28,0 -0.41,0.01 4.38,0.21 7.86,3.83 7.86,8.26 0,4.43 -3.48,8.05 -7.86,8.26 0.14,0.01 0.27,0.01 0.41,0.01 4.57,0 8.27,-3.7 8.27,-8.27 0,-4.57 -3.7,-8.27 -8.27,-8.27z"/>
    <path class="fil3" d="M96.8 24.35c0,-1.82 1.33,-3.32 3.08,-3.59 0.18,-0.03 0.37,-0.05 0.56,-0.05 0.14,0 0.28,0.01 0.41,0.02 1.82,0.2 3.23,1.74 3.23,3.62 0,1.87 -1.41,3.41 -3.23,3.62 -0.13,0.02 -0.27,0.02 -0.41,0.02 -0.19,0 -0.38,-0.02 -0.56,-0.05 -1.74,-0.27 -3.08,-1.77 -3.08,-3.59zm4.05 -8.26c-0.14,-0.01 -0.27,-0.01 -0.41,-0.01 -0.19,0 -0.38,0.01 -0.56,0.02 -4.3,0.29 -7.71,3.87 -7.71,8.25 0,4.38 3.4,7.96 7.71,8.25 0.19,0.01 0.37,0.02 0.56,0.02 0.14,0 0.28,-0 0.41,-0.01 4.38,-0.21 7.86,-3.83 7.86,-8.26 0,-4.43 -3.48,-8.05 -7.86,-8.26z"/>
   </g>
  </g>
 </g>
</svg>
