<?xml version="1.0" encoding="UTF-8"?>
<!DOCTYPE svg PUBLIC "-//W3C//DTD SVG 1.1//EN" "http://www.w3.org/Graphics/SVG/1.1/DTD/svg11.dtd">
<!-- Creator: CorelDRAW -->
<svg xmlns="http://www.w3.org/2000/svg" xml:space="preserve" width="46.7606mm" height="8.7702mm" version="1.1" style="shape-rendering:geometricPrecision; text-rendering:geometricPrecision; image-rendering:optimizeQuality; fill-rule:evenodd; clip-rule:evenodd"
viewBox="0 0 156.75 29.4"
 xmlns:xlink="http://www.w3.org/1999/xlink"
 xmlns:xodm="http://www.corel.com/coreldraw/odm/2003">
 <defs>
  <style type="text/css">
   <![CDATA[
    .fil1 {fill:#00AFEF}
    .fil0 {fill:white;fill-rule:nonzero}
   ]]>
  </style>
 </defs>
 <g id="Camada_x0020_1">
  <metadata id="CorelCorpID_0Corel-Layer"/>
  <g id="_1559575712208">
   <path class="fil0" d="M9.67 26.95c-5.34,0 -9.67,-4.33 -9.67,-9.67l0.03 -11.09c0,-1.53 1.24,-2.77 2.77,-2.77 1.53,0 2.77,1.24 2.77,2.77l0 4.15 6.92 0c1.53,0 2.77,1.24 2.77,2.77 0,1.53 -1.24,2.77 -2.77,2.77l-6.92 0 0 1.39c0,2.29 1.85,4.14 4.14,4.14l4.16 0c1.53,0 2.77,1.24 2.77,2.77 0,1.53 -1.24,2.77 -2.77,2.77l-4.2 0z"/>
   <path class="fil0" d="M64.31 26.95c-5.34,0 -9.63,-4.33 -9.63,-9.67l0 -11.09c0,-1.53 1.24,-2.77 2.77,-2.77 1.53,0 2.77,1.24 2.77,2.77l0 4.15 4.15 0c1.53,0 2.77,1.24 2.77,2.77 0,1.53 -1.24,2.77 -2.77,2.77l-4.15 0 0 1.39c0,2.29 1.85,4.14 4.14,4.14l1.39 0c1.53,0 2.77,1.24 2.77,2.77 0,1.53 -1.24,2.77 -2.77,2.77l-1.44 0z"/>
   <path class="fil0" d="M78.84 26.95c-5.34,0 -9.63,-4.33 -9.63,-9.67l0 -11.09c0,-1.53 1.24,-2.77 2.77,-2.77 1.53,0 2.77,1.24 2.77,2.77l0 4.15 4.15 0c1.53,0 2.77,1.24 2.77,2.77 0,1.53 -1.24,2.77 -2.77,2.77l-4.15 0 0 1.39c0,2.29 1.85,4.14 4.14,4.14l1.4 0c1.53,0 2.77,1.24 2.77,2.77 0,1.53 -1.24,2.77 -2.77,2.77l-1.44 0z"/>
   <path class="fil0" d="M102.43 18.65c0,-4.59 3.67,-8.3 8.26,-8.3l4.15 0c1.53,0 2.77,1.24 2.77,2.77 0,1.53 -1.24,2.77 -2.77,2.77l-4.15 0c-1.53,0 -2.77,1.24 -2.77,2.77l0.05 5.53c0,1.53 -1.24,2.77 -2.77,2.77 -1.53,0 -2.77,-1.24 -2.77,-2.77l0 -5.53z"/>
   <path class="fil0" d="M42.23 10.34c-1.53,0 -2.77,1.24 -2.77,2.77l0 5.53c0,1.53 -1.24,2.77 -2.77,2.77 -1.53,0 -2.77,-1.24 -2.77,-2.77l0 -5.53c0,-1.53 -1.24,-2.77 -2.77,-2.77 -1.53,0 -2.77,1.24 -2.77,2.77l0 5.53c0,1.53 -1.24,2.77 -2.77,2.77 -1.53,0 -2.77,-1.24 -2.77,-2.77l0 -5.53c0,-1.53 -1.24,-2.77 -2.77,-2.77 -1.53,0 -2.77,1.24 -2.77,2.77l0 5.53c0,4.58 3.72,8.3 8.3,8.3 2.13,0 4.06,-0.81 5.53,-2.13 1.47,1.32 3.4,2.13 5.53,2.13 4.58,0 8.3,-3.72 8.3,-8.3l0 -5.53c0,-1.53 -1.24,-2.77 -2.77,-2.77z"/>
   <g>
    <path class="fil0" d="M49.84 10.34c-1.53,0 -2.77,1.24 -2.77,2.77l0 11.07c0,1.53 1.24,2.77 2.77,2.77 1.53,0 2.77,-1.24 2.77,-2.77l0 -11.07c0,-1.53 -1.24,-2.77 -2.77,-2.77z"/>
    <path class="fil0" d="M49.84 8.96c1.53,0 2.77,-1.24 2.77,-2.77 0,-1.53 -1.24,-2.77 -2.77,-2.77 -1.53,0 -2.77,1.24 -2.77,2.77 0,1.53 1.24,2.77 2.77,2.77z"/>
   </g>
   <path class="fil1" d="M134.8 10.69c1.36,-4.24 3.02,-6.98 4.93,-8.98 1.42,-1.49 2.16,-1.96 1.32,-0.32 0.37,-0.3 0.9,-0.69 1.31,-0.9 2.31,-1.09 2.15,-0.18 0.55,0.8 4.35,-1.55 4.19,0.43 -0.4,1.41 3.76,0.07 7.75,2.46 8.9,7.55 0.16,0.7 -0.03,0.64 0.69,0.76 1.56,0.28 3.02,0.26 4.45,-0.19 -0.15,1.05 -1.54,1.74 -3.71,2.19 -0.8,0.17 -0.97,0.12 -0.01,0.34 1.19,0.27 2.51,0.34 3.91,0.27 -1.09,1.26 -2.83,1.9 -4.99,1.93 -1.35,4.92 -4.43,8.44 -8.32,10.65 -9.15,5.19 -22.46,4.44 -29.14,-5 4.38,3.44 10.87,4.2 15.69,-0.6 -3.16,0 -3.98,-2.36 -1.47,-3.64 -2.37,-0.02 -3.88,-0.77 -4.76,-2.13 -0.34,-0.52 -0.34,-0.55 0.21,-0.95 0.6,-0.44 1.42,-0.63 2.27,-0.69 -2.45,-0.7 -3.95,-1.98 -4.47,-3.7 -0.17,-0.57 -0.2,-0.54 0.38,-0.69 0.57,-0.14 1.29,-0.22 1.95,-0.25 -1.93,-1.17 -3.08,-2.6 -3.37,-4.18 -0.28,-1.5 0.01,-1.11 1.13,-0.68 5,1.91 9.99,3.97 12.94,7.01z"/>
   <path class="fil0" d="M100.34 17.26c0,0.97 -0.41,2.76 -1.85,2.76 -1.06,0 -9.13,-0 -9.13,-0 0.3,1.2 1.39,2.08 2.68,2.08l5.9 0c1.34,0 2.42,1.08 2.42,2.42 0,1.34 -1.08,2.42 -2.42,2.42l-5.9 0c-4.58,0 -8.3,-3.74 -8.3,-8.99 0,-4.61 3.72,-7.61 8.3,-7.61 4.58,0 8.3,3.1 8.3,6.92l-0 0zm-5.53 -0.69l0 0c0,-1.27 -1.24,-2.31 -2.77,-2.31 -1.53,0 -2.77,1.03 -2.77,2.31l5.53 0z"/>
  </g>
 </g>
</svg>
