<?xml version="1.0" encoding="UTF-8"?>
<!DOCTYPE svg PUBLIC "-//W3C//DTD SVG 1.1//EN" "http://www.w3.org/Graphics/SVG/1.1/DTD/svg11.dtd">
<!-- Creator: CorelDRAW -->
<svg xmlns="http://www.w3.org/2000/svg" xml:space="preserve" width="39.1039mm" height="8.7239mm" version="1.1" style="shape-rendering:geometricPrecision; text-rendering:geometricPrecision; image-rendering:optimizeQuality; fill-rule:evenodd; clip-rule:evenodd"
viewBox="0 0 109.75 24.48"
 xmlns:xlink="http://www.w3.org/1999/xlink"
 xmlns:xodm="http://www.corel.com/coreldraw/odm/2003">
 <defs>
  <style type="text/css">
   <![CDATA[
    .fil0 {fill:#EC0000;fill-rule:nonzero}
    .fil1 {fill:white;fill-rule:nonzero}
    .fil2 {fill:white;fill-rule:nonzero}
   ]]>
  </style>
 </defs>
 <g id="Camada_x0020_1">
  <metadata id="CorelCorpID_0Corel-Layer"/>
  <path class="fil0" d="M34.25 3.83c-0.4,-1.5 -1.58,-2.68 -3.08,-3.08 -2.74,-0.75 -13.68,-0.75 -13.68,-0.75 0,0 -10.95,0 -13.68,0.72 -1.47,0.4 -2.68,1.61 -3.08,3.11 -0.72,2.74 -0.72,8.41 -0.72,8.41 0,0 0,5.7 0.72,8.41 0.4,1.5 1.58,2.68 3.08,3.08 2.77,0.75 13.68,0.75 13.68,0.75 0,0 10.95,0 13.68,-0.72 1.5,-0.4 2.68,-1.58 3.08,-3.08 0.72,-2.74 0.72,-8.41 0.72,-8.41 0,0 0.03,-5.7 -0.72,-8.44z"/>
  <polygon class="fil1" points="14,7 14,17.48 23.1,12.24 "/>
  <path class="fil2" d="M50.78 22.29c-0.69,-0.46 -1.18,-1.18 -1.47,-2.19 -0.29,-0.98 -0.43,-2.3 -0.43,-3.92l0 -2.22c0,-1.64 0.17,-2.97 0.49,-3.97 0.35,-1.01 0.86,-1.73 1.56,-2.19 0.72,-0.46 1.64,-0.69 2.79,-0.69 1.12,0 2.05,0.23 2.74,0.69 0.69,0.46 1.18,1.21 1.5,2.19 0.32,0.98 0.49,2.3 0.49,3.97l0 2.22c0,1.64 -0.14,2.94 -0.46,3.95 -0.32,0.98 -0.81,1.73 -1.5,2.19 -0.69,0.46 -1.64,0.69 -2.82,0.69 -1.21,-0.03 -2.19,-0.26 -2.88,-0.72zm3.89 -2.42c0.2,-0.49 0.29,-1.33 0.29,-2.45l0 -4.78c0,-1.09 -0.09,-1.9 -0.29,-2.42 -0.2,-0.52 -0.52,-0.75 -1.01,-0.75 -0.46,0 -0.81,0.26 -0.98,0.75 -0.2,0.52 -0.29,1.32 -0.29,2.42l0 4.78c0,1.12 0.09,1.96 0.29,2.45 0.17,0.49 0.52,0.75 1.01,0.75 0.46,0 0.78,-0.23 0.98,-0.75z"/>
  <path class="fil2" d="M103.96 16.22l0 0.78c0,0.98 0.03,1.73 0.09,2.22 0.06,0.49 0.17,0.86 0.37,1.07 0.17,0.23 0.46,0.35 0.86,0.35 0.52,0 0.86,-0.2 1.07,-0.6 0.2,-0.4 0.29,-1.07 0.32,-2.02l2.97 0.17c0.03,0.14 0.03,0.32 0.03,0.55 0,1.41 -0.37,2.48 -1.15,3.17 -0.78,0.69 -1.87,1.04 -3.28,1.04 -1.7,0 -2.88,-0.55 -3.57,-1.61 -0.69,-1.07 -1.04,-2.71 -1.04,-4.95l0 -2.68c0,-2.3 0.35,-3.97 1.07,-5.04 0.72,-1.07 1.93,-1.58 3.63,-1.58 1.18,0 2.1,0.23 2.74,0.66 0.63,0.43 1.07,1.12 1.33,2.02 0.26,0.92 0.37,2.19 0.37,3.8l0 2.62 -5.79 0 0 0.06zm0.43 -6.45c-0.17,0.23 -0.29,0.58 -0.35,1.07 -0.06,0.49 -0.09,1.24 -0.09,2.25l0 1.09 2.53 0 0 -1.09c0,-0.98 -0.03,-1.73 -0.09,-2.25 -0.06,-0.52 -0.2,-0.86 -0.37,-1.07 -0.17,-0.2 -0.46,-0.32 -0.81,-0.32 -0.4,-0.03 -0.66,0.09 -0.84,0.32z"/>
  <path class="fil2" d="M42.37 15.93l-3.92 -14.2 3.43 0 1.38 6.42c0.35,1.58 0.6,2.94 0.78,4.06l0.09 0c0.12,-0.81 0.37,-2.13 0.78,-4.03l1.44 -6.45 3.43 0 -3.98 14.2 0 6.8 -3.4 0 0 -6.8 -0.03 0z"/>
  <path class="fil2" d="M69.59 7.4l0 15.35 -2.71 0 -0.29 -1.87 -0.09 0c-0.72,1.41 -1.84,2.13 -3.31,2.13 -1.01,0 -1.76,-0.35 -2.25,-1.01 -0.49,-0.66 -0.72,-1.7 -0.72,-3.14l0 -11.46 3.46 0 0 11.26c0,0.69 0.09,1.18 0.23,1.47 0.14,0.29 0.4,0.43 0.75,0.43 0.29,0 0.58,-0.09 0.86,-0.29 0.29,-0.17 0.49,-0.4 0.6,-0.69l0 -12.18 3.46 0z"/>
  <path class="fil2" d="M87.31 7.4l0 15.35 -2.71 0 -0.29 -1.87 -0.09 0c-0.72,1.41 -1.84,2.13 -3.31,2.13 -1.01,0 -1.76,-0.35 -2.25,-1.01 -0.49,-0.66 -0.72,-1.7 -0.72,-3.14l0 -11.46 3.46 0 0 11.26c0,0.69 0.09,1.18 0.23,1.47 0.14,0.29 0.4,0.43 0.75,0.43 0.29,0 0.58,-0.09 0.86,-0.29 0.29,-0.17 0.49,-0.4 0.61,-0.69l0 -12.18 3.46 0z"/>
  <polygon class="fil2" points="78.98,4.52 75.56,4.52 75.56,22.73 72.19,22.73 72.19,4.52 68.76,4.52 68.76,1.73 78.98,1.73 "/>
  <path class="fil2" d="M98.74 9.85c-0.2,-0.98 -0.55,-1.67 -1.01,-2.1 -0.46,-0.43 -1.12,-0.66 -1.93,-0.66 -0.63,0 -1.24,0.17 -1.79,0.55 -0.55,0.35 -0.98,0.84 -1.27,1.41l-0.03 0 0 -8.09 -3.34 0 0 21.78 2.85 0 0.35 -1.44 0.09 0c0.26,0.52 0.66,0.92 1.21,1.24 0.55,0.29 1.12,0.46 1.79,0.46 1.18,0 2.02,-0.55 2.56,-1.61 0.55,-1.07 0.83,-2.77 0.83,-5.04l0 -2.42c-0.03,-1.76 -0.12,-3.11 -0.32,-4.06zm-3.17 6.25c0,1.12 -0.06,1.99 -0.14,2.62 -0.09,0.63 -0.26,1.09 -0.46,1.35 -0.23,0.26 -0.52,0.4 -0.86,0.4 -0.29,0 -0.55,-0.06 -0.78,-0.2 -0.23,-0.14 -0.43,-0.35 -0.58,-0.61l0 -8.7c0.11,-0.4 0.32,-0.75 0.61,-1.04 0.29,-0.26 0.6,-0.4 0.92,-0.4 0.35,0 0.63,0.14 0.81,0.4 0.2,0.29 0.32,0.75 0.4,1.38 0.09,0.66 0.12,1.58 0.12,2.77l0 2.02 -0.03 0z"/>
 </g>
</svg>
