<svg width="2802" height="2059" viewBox="0 0 2802 2059" fill="none" xmlns="http://www.w3.org/2000/svg">
<g clip-path="url(#clip0_252_116)">
<path d="M2732.94 115.918H70.3144C34.579 115.918 5.60962 144.883 5.60962 180.613V1971.2C5.60962 2006.93 34.579 2035.9 70.3144 2035.9H2732.94C2768.68 2035.9 2797.65 2006.93 2797.65 1971.2V180.613C2797.65 144.883 2768.68 115.918 2732.94 115.918Z" fill="#121213" stroke="#282B3F"/>
<g filter="url(#filter0_f_252_116)">
<path d="M1494.39 675.707H1308.87C1113.44 675.707 955.015 834.108 955.015 1029.51C955.015 1224.9 1113.44 1383.31 1308.87 1383.31H1494.39C1689.82 1383.31 1848.25 1224.9 1848.25 1029.51C1848.25 834.108 1689.82 675.707 1494.39 675.707Z" fill="#E4441A"/>
<path d="M1494.39 678.52H1308.87C1114.99 678.52 957.829 835.662 957.829 1029.51C957.829 1223.35 1114.99 1380.49 1308.87 1380.49H1494.39C1688.27 1380.49 1845.43 1223.35 1845.43 1029.51C1845.43 835.662 1688.27 678.52 1494.39 678.52Z" stroke="#282B3F"/>
</g>
<path d="M508.698 1143.75H1067.73V1673.11H508.698V1143.75Z" fill="#C4CCD5"/>
<path d="M598.137 1256.83C617.291 1256.83 632.819 1241.31 632.819 1222.16C632.819 1203.01 617.291 1187.48 598.137 1187.48C578.983 1187.48 563.455 1203.01 563.455 1222.16C563.455 1241.31 578.983 1256.83 598.137 1256.83Z" fill="#5E6D7C"/>
<path d="M643.616 1225.17H1021.26M677.831 1575.69L894.142 1359.4M898.593 1575.69L682.282 1359.4" stroke="#5E6D7C" stroke-width="1.118"/>
<path d="M2051.49 1363.46H2379.04V1673.62H2051.49V1363.46Z" fill="#C4CCD5"/>
<path d="M2103.89 1429.71C2115.12 1429.71 2124.21 1420.61 2124.21 1409.39C2124.21 1398.17 2115.12 1389.07 2103.89 1389.07C2092.67 1389.07 2083.57 1398.17 2083.57 1409.39C2083.57 1420.61 2092.67 1429.71 2103.89 1429.71Z" fill="#5E6D7C"/>
<path d="M2130.54 1411.16H2351.81M2150.59 1616.54L2277.33 1489.81M2279.94 1616.54L2153.2 1489.81" stroke="#5E6D7C" stroke-width="0.655"/>
<path d="M1826.94 1057.02H2154.49V1367.18H1826.94V1057.02Z" fill="#C4CCD5"/>
<path d="M1879.34 1123.27C1890.57 1123.27 1899.67 1114.17 1899.67 1102.95C1899.67 1091.73 1890.57 1082.63 1879.34 1082.63C1868.12 1082.63 1859.02 1091.73 1859.02 1102.95C1859.02 1114.17 1868.12 1123.27 1879.34 1123.27Z" fill="#5E6D7C"/>
<path d="M1905.99 1104.72H2127.26M1926.04 1310.09L2052.78 1183.37M2055.39 1310.09L1928.65 1183.37" stroke="#5E6D7C" stroke-width="0.655"/>
<g filter="url(#filter1_d_252_116)">
<path d="M1277.44 1057.02H1926.89V1671.99H1277.44V1057.02Z" fill="#C4CCD5"/>
<path d="M1381.35 1188.38C1403.6 1188.38 1421.64 1170.35 1421.64 1148.1C1421.64 1125.85 1403.6 1107.81 1381.35 1107.81C1359.09 1107.81 1341.06 1125.85 1341.06 1148.1C1341.06 1170.35 1359.09 1188.38 1381.35 1188.38Z" fill="#5E6D7C"/>
<path d="M1434.18 1153.41H1872.9M1475.21 1560.08L1726.51 1308.82M1729.12 1560.08L1477.82 1308.82" stroke="#5E6D7C" stroke-width="0.655"/>
</g>
<path d="M1599.2 641.119C1599.2 528.444 1507.85 437.104 1395.16 437.104C1282.47 437.104 1191.12 528.444 1191.12 641.119V969.619C1191.12 1082.29 1282.47 1173.63 1395.16 1173.63C1507.85 1173.63 1599.2 1082.29 1599.2 969.619V641.119Z" stroke="url(#paint0_linear_252_116)" stroke-width="23.484"/>
<path d="M1741.62 775.359H1099.26C1029.76 775.359 973.414 831.693 973.414 901.183V1549.77C973.414 1619.26 1029.76 1675.59 1099.26 1675.59H1741.62C1811.12 1675.59 1867.46 1619.26 1867.46 1549.77V901.183C1867.46 831.693 1811.12 775.359 1741.62 775.359Z" fill="url(#paint1_linear_252_116)"/>
<path d="M1665.79 775.359H1023.43C953.932 775.359 897.591 831.693 897.591 901.183V1549.77C897.591 1619.26 953.932 1675.59 1023.43 1675.59H1665.79C1735.3 1675.59 1791.64 1619.26 1791.64 1549.77V901.183C1791.64 831.693 1735.3 775.359 1665.79 775.359Z" fill="#E4441A"/>
<path d="M1188.79 1394.67L1518.71 1052.35" stroke="white" stroke-width="12" stroke-linecap="round"/>
<path d="M2753.82 1999.55H1695.78C1695.04 1999.55 1694.33 1999.26 1693.81 1998.74C1693.29 1998.22 1693 1997.51 1693 1996.78C1693 1996.04 1693.29 1995.33 1693.81 1994.81C1694.33 1994.29 1695.04 1994 1695.78 1994H2753.82C2754.55 1994 2755.26 1994.29 2755.78 1994.81C2756.3 1995.33 2756.59 1996.04 2756.59 1996.78C2756.59 1997.51 2756.3 1998.22 2755.78 1998.74C2755.26 1999.26 2754.55 1999.55 2753.82 1999.55Z" fill="#CACACA"/>
<path d="M644.24 950.437C795.699 950.437 918.48 827.665 918.48 676.219C918.48 524.772 795.699 402 644.24 402C492.781 402 370 524.772 370 676.219C370 827.665 492.781 950.437 644.24 950.437Z" fill="#E4441A"/>
<path d="M644.24 904.734C770.456 904.734 872.774 802.424 872.774 676.219C872.774 550.013 770.456 447.703 644.24 447.703C518.025 447.703 415.707 550.013 415.707 676.219C415.707 802.424 518.025 904.734 644.24 904.734Z" fill="#FF9F86"/>
<g clip-path="url(#clip1_252_116)">
<path d="M2066.24 972.836C2217.7 972.836 2340.48 850.064 2340.48 698.617C2340.48 547.17 2217.7 424.398 2066.24 424.398C1914.78 424.398 1792 547.17 1792 698.617C1792 850.064 1914.78 972.836 2066.24 972.836Z" fill="#E4E4E4"/>
<path d="M2066.24 927.132C2192.46 927.132 2294.77 824.823 2294.77 698.617C2294.77 572.411 2192.46 470.102 2066.24 470.102C1940.02 470.102 1837.71 572.411 1837.71 698.617C1837.71 824.823 1940.02 927.132 2066.24 927.132Z" fill="#68B82D"/>
<path d="M2046.82 781.254C2046.41 781.254 2046 781.244 2045.59 781.224C2041.98 781.05 2038.45 780.096 2035.23 778.427C2032.02 776.759 2029.21 774.416 2026.99 771.559L1991.93 726.491C1987.85 721.231 1986.02 714.567 1986.85 707.96C1987.68 701.354 1991.09 695.344 1996.34 691.251L1997.6 690.269C2002.86 686.188 2009.53 684.359 2016.13 685.185C2022.74 686.01 2028.75 689.422 2032.85 694.673C2034.82 697.213 2037.32 699.296 2040.18 700.78C2043.03 702.264 2046.18 703.114 2049.39 703.27C2052.61 703.427 2055.82 702.887 2058.8 701.688C2061.79 700.489 2064.48 698.659 2066.69 696.323L2137.88 621.19C2140.14 618.795 2142.86 616.871 2145.87 615.527C2148.89 614.183 2152.13 613.446 2155.43 613.357C2158.73 613.268 2162.01 613.829 2165.09 615.008C2168.17 616.188 2170.99 617.963 2173.38 620.231L2174.54 621.332C2179.38 625.913 2182.2 632.226 2182.38 638.884C2182.56 645.541 2180.08 651.998 2175.5 656.832L2065.05 773.411C2062.7 775.889 2059.88 777.863 2056.74 779.211C2053.61 780.559 2050.23 781.254 2046.82 781.254Z" fill="white"/>
<path d="M2674.14 643.091H2493.63V486.121C2493.82 476.401 2497.85 467.152 2504.84 460.401C2511.84 453.649 2521.23 449.947 2530.95 450.104H2590.95C2636.82 450.104 2674.14 486.125 2674.14 530.399V643.091Z" fill="#2F2E41"/>
<path d="M2740.96 1956.62L2706.7 1956.61L2690.4 1824.45L2740.97 1824.45L2740.96 1956.62Z" fill="#FFB6B6"/>
<path d="M2749.7 1989.83L2639.21 1989.83V1988.43C2639.21 1977.02 2643.74 1966.09 2651.81 1958.02C2659.88 1949.96 2670.81 1945.43 2682.22 1945.43L2749.71 1945.43L2749.7 1989.83Z" fill="#2F2E41"/>
<path d="M2425.12 1956.62L2390.85 1956.61L2374.55 1824.45L2425.13 1824.45L2425.12 1956.62Z" fill="#FFB6B6"/>
<path d="M2433.86 1989.83L2323.37 1989.83V1988.43C2323.37 1977.02 2327.9 1966.09 2335.97 1958.02C2344.03 1949.96 2354.97 1945.43 2366.38 1945.43L2433.86 1945.43L2433.86 1989.83Z" fill="#2F2E41"/>
<path d="M2466.5 894.852L2444.14 1037.39L2656.56 1040.18L2628.61 903.237L2466.5 894.852Z" fill="#FFB6B6"/>
<path d="M2450.3 1002.59L2382.64 1182.72L2374.26 1929.23H2431.56L2568.52 1329.45L2694.29 1913.58H2750.2L2711.06 1256.79C2711.06 1256.79 2722.6 1124.96 2663.55 1047.17L2649.17 1005.65L2450.3 1002.59Z" fill="#2F2E41"/>
<path d="M2740.51 1143.01C2734.59 1141.4 2729.11 1138.51 2724.43 1134.55C2719.75 1130.59 2716 1125.65 2713.44 1120.08C2710.88 1114.51 2709.57 1108.45 2709.6 1102.32C2709.64 1096.19 2711.02 1090.14 2713.64 1084.6L2623.27 789.997L2689.74 776.822L2772.39 1065.59C2781.41 1070.62 2788.26 1078.78 2791.66 1088.52C2795.06 1098.27 2794.77 1108.92 2790.84 1118.46C2786.91 1128.01 2779.62 1135.78 2770.34 1140.3C2761.06 1144.83 2750.45 1145.79 2740.51 1143.01Z" fill="#FFB6B6"/>
<path d="M2620.92 973.57L2474.48 970.744C2470.3 970.655 2466.26 969.196 2462.98 966.592C2459.7 963.987 2457.37 960.381 2456.34 956.324C2448.49 925.246 2431.22 844.254 2440.38 763.586C2442.19 747.959 2447.11 732.853 2454.86 719.162C2462.61 705.471 2473.03 693.474 2485.49 683.879C2497.96 674.284 2512.23 667.287 2527.45 663.302C2542.67 659.317 2558.53 658.425 2574.1 660.678C2590.53 663.029 2606.27 668.826 2620.29 677.689C2634.32 686.552 2646.32 698.28 2655.49 712.104C2664.67 725.928 2670.81 741.536 2673.53 757.903C2676.25 774.27 2675.48 791.027 2671.26 807.074C2652.83 877.066 2642.42 927.139 2640.32 955.906C2640.01 960.065 2638.34 964.008 2635.58 967.133C2632.82 970.257 2629.11 972.392 2625.02 973.21C2623.8 973.451 2622.56 973.574 2621.32 973.574C2621.19 973.575 2621.05 973.573 2620.92 973.57Z" fill="#E4E4E4"/>
<path d="M2176.12 714.796C2177 716.768 2177.72 718.807 2178.28 720.894L2361.57 783.172L2396.99 752.234L2450.67 799.577L2393.29 860.44C2388.66 865.356 2382.55 868.637 2375.9 869.789C2369.24 870.941 2362.38 869.902 2356.37 866.829L2160.24 766.653C2153.14 771.004 2144.89 773.092 2136.59 772.64C2128.28 772.188 2120.3 769.217 2113.72 764.123C2107.15 759.029 2102.27 752.053 2099.76 744.123C2097.24 736.193 2097.2 727.684 2099.63 719.729C2102.07 711.774 2106.87 704.749 2113.4 699.589C2119.93 694.429 2127.87 691.378 2136.17 690.843C2144.48 690.307 2152.75 692.312 2159.88 696.591C2167.02 700.87 2172.68 707.219 2176.12 714.796Z" fill="#FFB6B6"/>
<path d="M2361.95 773.239C2361.97 770.716 2362.53 768.224 2363.59 765.936C2364.66 763.648 2366.2 761.616 2368.12 759.98L2435.24 702.817C2443.73 693.085 2455.73 687.119 2468.62 686.226C2481.51 685.334 2494.22 689.588 2503.97 698.056C2513.73 706.524 2519.72 718.514 2520.65 731.397C2521.57 744.28 2517.35 757.004 2508.91 766.777L2461.11 841.193C2459.75 843.317 2457.94 845.122 2455.82 846.485C2453.69 847.848 2451.3 848.737 2448.8 849.091C2446.3 849.446 2443.76 849.258 2441.34 848.54C2438.92 847.822 2436.68 846.591 2434.78 844.93L2367.96 786.575C2366.06 784.916 2364.54 782.865 2363.5 780.564C2362.46 778.262 2361.94 775.764 2361.95 773.239Z" fill="#E4E4E4"/>
<path d="M2619.22 864.622C2616.99 863.447 2615.04 861.804 2613.49 859.805C2611.95 857.806 2610.86 855.498 2610.29 853.039L2590.45 767.147C2585.73 755.128 2585.96 741.726 2591.1 729.879C2596.24 718.032 2605.87 708.707 2617.88 703.95C2629.89 699.192 2643.29 699.39 2655.15 704.501C2667.01 709.611 2676.37 719.216 2681.16 731.209L2725.21 807.897C2726.47 810.085 2727.24 812.519 2727.47 815.032C2727.7 817.546 2727.39 820.079 2726.55 822.461C2725.72 824.843 2724.38 827.016 2722.63 828.833C2720.87 830.65 2718.75 832.069 2716.4 832.992L2633.83 865.428C2631.48 866.352 2628.96 866.759 2626.44 866.62C2623.92 866.48 2621.46 865.799 2619.22 864.622Z" fill="#E4E4E4"/>
<path d="M2690.26 465.443C2697.04 449.572 2685.38 429.378 2664.22 420.339C2643.05 411.3 2620.4 416.838 2613.62 432.709C2606.84 448.579 2618.5 468.773 2639.66 477.812C2660.83 486.852 2683.48 481.313 2690.26 465.443Z" fill="#2F2E41"/>
<path d="M2624.61 583.414C2647.25 542.002 2632.03 490.08 2590.61 467.442C2549.2 444.804 2497.27 460.024 2474.63 501.435C2451.99 542.847 2467.21 594.769 2508.63 617.407C2550.04 640.045 2601.97 624.825 2624.61 583.414Z" fill="#FFB6B6"/>
<path d="M2596.5 444.551H2498.75C2491.58 444.458 2484.65 447.078 2479.33 451.885C2474.01 456.693 2470.71 463.331 2470.09 470.471C2469.83 474.264 2470.36 478.07 2471.64 481.651C2472.92 485.232 2474.92 488.512 2477.52 491.289C2480.12 494.066 2483.26 496.279 2486.74 497.793C2490.23 499.306 2493.99 500.087 2497.8 500.087C2505.16 500.087 2512.23 503.013 2517.43 508.22C2522.64 513.428 2525.57 520.49 2525.57 527.855V641.703H2678.3V526.346C2678.3 515.605 2676.19 504.968 2672.08 495.045C2667.97 485.121 2661.94 476.104 2654.34 468.508C2646.75 460.913 2637.73 454.888 2627.81 450.777C2617.88 446.667 2607.24 444.551 2596.5 444.551Z" fill="#2F2E41"/>
</g>
</g>
<defs>
<filter id="filter0_f_252_116" x="835.015" y="555.707" width="1133.23" height="947.598" filterUnits="userSpaceOnUse" color-interpolation-filters="sRGB">
<feFlood flood-opacity="0" result="BackgroundImageFix"/>
<feBlend mode="normal" in="SourceGraphic" in2="BackgroundImageFix" result="shape"/>
<feGaussianBlur stdDeviation="60" result="effect1_foregroundBlur_252_116"/>
</filter>
<filter id="filter1_d_252_116" x="1277.44" y="1052.54" width="658.393" height="623.919" filterUnits="userSpaceOnUse" color-interpolation-filters="sRGB">
<feFlood flood-opacity="0" result="BackgroundImageFix"/>
<feColorMatrix in="SourceAlpha" type="matrix" values="0 0 0 0 0 0 0 0 0 0 0 0 0 0 0 0 0 0 127 0" result="hardAlpha"/>
<feOffset dx="4.473"/>
<feGaussianBlur stdDeviation="2.237"/>
<feComposite in2="hardAlpha" operator="out"/>
<feColorMatrix type="matrix" values="0 0 0 0 0 0 0 0 0 0 0 0 0 0 0 0 0 0 0.25 0"/>
<feBlend mode="normal" in2="BackgroundImageFix" result="effect1_dropShadow_252_116"/>
<feBlend mode="normal" in="SourceGraphic" in2="effect1_dropShadow_252_116" result="shape"/>
</filter>
<linearGradient id="paint0_linear_252_116" x1="1395.17" y1="371.047" x2="1395.17" y2="816.426" gradientUnits="userSpaceOnUse">
<stop stop-color="#5D6C81"/>
<stop offset="0.816" stop-color="#2C3C4A"/>
</linearGradient>
<linearGradient id="paint1_linear_252_116" x1="1420.44" y1="775.359" x2="1420.44" y2="1675.6" gradientUnits="userSpaceOnUse">
<stop stop-color="#BC3114"/>
<stop offset="1" stop-color="#8C251A"/>
</linearGradient>
<clipPath id="clip0_252_116">
<rect width="2802" height="2059" fill="white"/>
</clipPath>
<clipPath id="clip1_252_116">
<rect width="2005" height="1578" fill="white" transform="translate(1792 416)"/>
</clipPath>
</defs>
</svg>
