<svg width="1154" height="947" viewBox="0 0 1154 947" fill="none" xmlns="http://www.w3.org/2000/svg">
<path d="M344.641 89.9062H614.359C622.601 89.9062 629.344 96.6492 629.344 104.891V179.812H329.656V104.891C329.656 96.6492 336.399 89.9062 344.641 89.9062ZM239.75 104.891V179.812H119.875C53.7564 179.812 0 233.569 0 299.688V479.5H359.625H599.375H959V299.688C959 233.569 905.244 179.812 839.125 179.812H719.25V104.891C719.25 47.0135 672.237 0 614.359 0H344.641C286.763 0 239.75 47.0135 239.75 104.891ZM959 539.438H599.375V599.375C599.375 632.528 572.59 659.312 539.438 659.312H419.562C386.41 659.312 359.625 632.528 359.625 599.375V539.438H0V779.188C0 845.306 53.7564 899.062 119.875 899.062H839.125C905.244 899.062 959 845.306 959 779.188V539.438Z" fill="#68B82D"/>
<path d="M857.363 454.264C861.71 456.333 866.129 458.186 870.574 460.034C876.672 462.577 882.732 465.173 888.722 467.963C889.457 468.296 890.192 468.628 890.949 468.971C891.751 469.39 892.553 469.809 893.379 470.241C896.927 471.249 898.384 470.353 901.699 468.784C902.93 468.218 904.162 467.653 905.394 467.088C906.097 466.759 906.8 466.43 907.524 466.091C912.507 463.789 917.547 461.614 922.574 459.409C924.128 458.721 924.128 458.721 925.714 458.019C930.907 455.724 936.111 453.457 941.34 451.245C942.271 450.851 943.202 450.457 944.161 450.051C957.841 444.754 969.22 444.796 982.949 449.971C994.989 455.416 1001.2 465.69 1006.62 477.28C1008.66 481.412 1011.01 485.362 1013.36 489.326C1015.95 493.76 1015.95 493.76 1015.95 495.971C1016.94 496.301 1017.93 496.631 1018.95 496.971C1020.05 498.613 1020.05 498.613 1021.07 500.717C1021.45 501.472 1021.83 502.227 1022.22 503.004C1022.99 504.602 1023.77 506.201 1024.54 507.801C1025.11 508.935 1025.11 508.935 1025.7 510.092C1026.03 510.788 1026.37 511.483 1026.72 512.199C1029.04 515.546 1032.63 516.256 1036.47 517.008C1037.8 517.274 1037.8 517.274 1039.16 517.544C1040.59 517.819 1040.59 517.819 1042.04 518.1C1043.52 518.392 1043.52 518.392 1045.02 518.69C1048.16 519.31 1051.31 519.922 1054.45 520.534C1057.59 521.151 1060.73 521.769 1063.87 522.388C1065.83 522.773 1067.78 523.156 1069.74 523.537C1070.63 523.711 1071.51 523.884 1072.43 524.063C1073.6 524.291 1073.6 524.291 1074.79 524.523C1076.86 524.952 1078.9 525.443 1080.95 525.971C1080.95 526.631 1080.95 527.291 1080.95 527.971C1082.12 528.074 1083.3 528.177 1084.51 528.284C1093.5 529.45 1102.24 534.506 1108.26 541.284C1115.03 551.197 1115.59 564.334 1114.2 575.814C1113.92 578.251 1113.7 580.688 1113.49 583.131C1112.86 590.536 1112.18 597.934 1111.37 605.323C1111.28 606.17 1111.19 607.017 1111.1 607.89C1110.92 609.471 1110.74 611.051 1110.56 612.63C1109.19 621.065 1109.19 621.065 1111.16 628.889C1111.69 629.308 1112.22 629.727 1112.76 630.159C1115.52 632.545 1117.09 634.811 1118.95 637.971C1119.84 638.858 1120.72 639.745 1121.64 640.659C1123.95 642.971 1123.95 642.971 1123.95 644.971C1124.53 645.212 1125.11 645.453 1125.7 645.702C1128.38 647.212 1129.9 648.947 1131.89 651.284C1134.14 653.907 1136.38 656.462 1138.89 658.846C1140.95 660.971 1140.95 660.971 1141.95 663.971C1142.51 664.528 1143.06 665.085 1143.64 665.659C1144.4 666.422 1145.16 667.185 1145.95 667.971C1146.45 668.394 1146.94 668.817 1147.45 669.253C1153.82 675.816 1152.96 684.438 1152.9 693.005C1152.89 695.703 1152.96 698.391 1153.03 701.088C1153.15 711.358 1152.3 717.733 1145.29 725.61C1144.51 726.389 1143.74 727.168 1142.95 727.971C1141.9 729.165 1140.85 730.36 1139.8 731.557C1138.92 732.477 1138.04 733.398 1137.14 734.346C1133.61 738.036 1130.76 741.721 1127.95 745.971C1126.31 747.341 1124.65 748.683 1122.95 749.971C1122.62 750.631 1122.29 751.291 1121.95 751.971C1121.29 751.971 1120.63 751.971 1119.95 751.971C1119.95 752.631 1119.95 753.291 1119.95 753.971C1118.66 755.351 1117.32 756.675 1115.95 757.971C1115.06 758.858 1114.18 759.745 1113.26 760.659C1112.16 761.763 1111.05 762.867 1109.95 763.971C1109.66 771.297 1110.45 778.392 1111.32 785.659C1112.34 794.485 1113.32 803.311 1114.14 812.159C1114.22 813.035 1114.3 813.912 1114.39 814.816C1115.61 828.323 1114.72 841.785 1105.95 852.827C1099.78 859.432 1093.7 862.317 1085.03 864.37C1084.16 864.581 1083.29 864.792 1082.4 865.009C1072.89 867.284 1063.33 869.263 1053.75 871.194C1050.76 871.796 1047.78 872.406 1044.79 873.016C1042.88 873.404 1040.97 873.791 1039.07 874.178C1038.18 874.359 1037.29 874.541 1036.37 874.727C1035.55 874.891 1034.74 875.055 1033.9 875.224C1033.18 875.369 1032.46 875.514 1031.73 875.663C1029.95 875.971 1029.95 875.971 1027.95 875.971C1027.83 876.551 1027.7 877.131 1027.58 877.728C1026.93 880.029 1026.07 881.792 1024.88 883.862C1024.48 884.571 1024.08 885.28 1023.66 886.01C1023.24 886.74 1022.82 887.469 1022.39 888.221C1021.96 888.966 1021.54 889.711 1021.1 890.479C1020.05 892.312 1019 894.142 1017.95 895.971C1017.29 895.971 1016.63 895.971 1015.95 895.971C1015.66 896.706 1015.37 897.441 1015.08 898.198C1011.34 907.37 1006.25 915.829 1001.03 924.217C1000.07 925.771 999.134 927.339 998.199 928.909C992.683 937.607 985.399 942.356 975.449 944.909C962.397 947.365 949.425 946.064 937.949 938.971C935.778 938.076 933.589 937.223 931.386 936.409C927.805 935.08 924.325 933.763 920.949 931.971C920.949 931.311 920.949 930.651 920.949 929.971C920.216 929.845 919.483 929.719 918.728 929.589C916.09 929.002 913.932 928.205 911.48 927.088C910.662 926.726 909.843 926.364 909 925.991C907.296 925.226 905.596 924.455 903.898 923.678C903.08 923.318 902.261 922.959 901.418 922.588C900.68 922.254 899.942 921.92 899.181 921.576C895.119 920.475 891.632 921.966 887.883 923.565C887.15 923.873 886.417 924.181 885.662 924.498C884.536 924.98 884.536 924.98 883.386 925.471C881.886 926.109 880.385 926.745 878.883 927.377C878.223 927.659 877.564 927.941 876.884 928.231C874.926 928.98 872.991 929.505 870.949 929.971C870.949 930.631 870.949 931.291 870.949 931.971C864.027 935.232 857.159 938.405 849.949 940.971C848.616 941.492 847.282 942.013 845.949 942.534C832.924 947.33 820.969 947.238 807.949 941.971C806.243 940.688 804.574 939.355 802.949 937.971C801.653 937.229 801.653 937.229 800.332 936.471C789.34 929.552 781.409 909.555 775.949 897.971C775.949 897.311 775.949 896.651 775.949 895.971C775.289 895.971 774.629 895.971 773.949 895.971C772.804 894.458 772.804 894.458 771.566 892.358C771.121 891.604 770.677 890.851 770.218 890.075C769.758 889.277 769.298 888.48 768.824 887.659C768.356 886.873 767.888 886.087 767.406 885.278C763.949 879.356 763.949 879.356 763.949 875.971C763.013 875.807 763.013 875.807 762.058 875.639C747.922 873.137 733.828 870.429 719.779 867.483C718.155 867.144 716.53 866.811 714.904 866.483C706.284 864.738 698.316 863.054 690.949 857.971C690.062 857.414 689.175 856.857 688.261 856.284C680.256 848.278 676.984 837.665 676.793 826.506C676.877 819.609 677.625 812.765 678.324 805.909C678.461 804.522 678.598 803.135 678.735 801.748C679.578 793.278 680.507 784.821 681.617 776.381C682.596 769.176 682.596 769.176 680.418 762.51C679.768 761.879 679.118 761.247 678.449 760.596C677.259 759.411 676.086 758.207 674.949 756.971C674.949 756.311 674.949 755.651 674.949 754.971C674.392 754.744 673.835 754.517 673.261 754.284C668.447 751.551 665.066 747.014 661.531 742.834C659.962 740.986 658.365 739.164 656.761 737.346C653.519 733.646 650.321 729.908 647.136 726.159C646.416 725.313 646.416 725.313 645.681 724.451C640.895 718.802 639.6 715.425 639.472 708.096C639.456 707.216 639.44 706.337 639.423 705.43C639.396 703.564 639.374 701.698 639.359 699.832C639.336 697.939 639.295 696.046 639.236 694.153C638.64 675.172 638.64 675.172 645.891 667.097C646.57 666.395 647.249 665.694 647.949 664.971C649.098 663.426 650.227 661.866 651.324 660.284C652.722 658.334 652.722 658.334 653.949 656.971C654.609 656.971 655.269 656.971 655.949 656.971C655.949 656.311 655.949 655.651 655.949 654.971C656.609 654.971 657.269 654.971 657.949 654.971C658.225 654.379 658.501 653.788 658.785 653.178C661.494 648.041 665.674 644.119 670.074 640.409C673.409 637.581 675.628 634.701 677.949 630.971C678.995 630.099 678.995 630.099 680.062 629.209C682.225 627.076 682.225 627.076 682.226 623.995C682.114 622.791 682.002 621.587 681.886 620.346C681.828 619.67 681.77 618.993 681.711 618.296C681.488 615.85 681.223 613.412 680.949 610.971C680.836 609.959 680.722 608.947 680.606 607.905C680.096 603.41 679.576 598.917 679.043 594.426C678.118 586.611 677.309 578.835 676.949 570.971C676.896 570.125 676.843 569.28 676.789 568.409C676.389 557.558 678.253 547.39 685.64 539.162C692.956 532.218 699.671 527.971 709.949 527.971C709.949 527.311 709.949 526.651 709.949 525.971C710.875 525.79 710.875 525.79 711.82 525.605C718.245 524.346 724.669 523.08 731.091 521.808C733.489 521.335 735.887 520.864 738.285 520.394C741.731 519.72 745.176 519.038 748.621 518.354C749.694 518.145 750.767 517.937 751.872 517.722C752.873 517.522 753.874 517.322 754.905 517.116C756.224 516.856 756.224 516.856 757.57 516.591C760.787 515.753 763.249 514.977 765.182 512.199C765.519 511.504 765.856 510.809 766.203 510.092C766.582 509.336 766.962 508.58 767.353 507.801C767.927 506.617 767.927 506.617 768.511 505.409C769.275 503.84 770.046 502.276 770.828 500.717C771.164 500.023 771.5 499.329 771.846 498.613C772.949 496.971 772.949 496.971 775.949 495.971C776.663 493.988 777.32 491.983 777.949 489.971C779.178 487.657 780.427 485.408 781.761 483.159C782.487 481.917 783.213 480.675 783.937 479.432C784.46 478.538 784.46 478.538 784.994 477.626C786.198 475.539 787.323 473.413 788.449 471.284C795.495 458.797 802.916 450.983 817.074 447.034C831.547 444.038 844.293 447.89 857.363 454.264Z" fill="#85B73E"/>
<path d="M857.363 454.264C861.71 456.333 866.129 458.186 870.574 460.034C876.672 462.577 882.732 465.173 888.722 467.963C889.457 468.296 890.192 468.628 890.949 468.971C891.751 469.39 892.553 469.809 893.379 470.241C896.927 471.249 898.384 470.353 901.699 468.784C902.93 468.218 904.162 467.653 905.394 467.088C906.097 466.759 906.8 466.43 907.524 466.091C912.507 463.789 917.547 461.614 922.574 459.409C924.128 458.721 924.128 458.721 925.714 458.019C930.907 455.724 936.111 453.457 941.34 451.245C942.271 450.851 943.202 450.457 944.161 450.051C957.841 444.754 969.22 444.796 982.949 449.971C994.989 455.416 1001.2 465.69 1006.62 477.28C1008.66 481.412 1011.01 485.362 1013.36 489.326C1015.95 493.76 1015.95 493.76 1015.95 495.971C1016.94 496.301 1017.93 496.631 1018.95 496.971C1020.05 498.613 1020.05 498.613 1021.07 500.717C1021.45 501.472 1021.83 502.227 1022.22 503.004C1022.99 504.602 1023.77 506.201 1024.54 507.801C1025.11 508.935 1025.11 508.935 1025.7 510.092C1026.03 510.788 1026.37 511.483 1026.72 512.199C1029.04 515.546 1032.63 516.256 1036.47 517.008C1037.8 517.274 1037.8 517.274 1039.16 517.544C1040.59 517.819 1040.59 517.819 1042.04 518.1C1043.52 518.392 1043.52 518.392 1045.02 518.69C1048.16 519.31 1051.31 519.922 1054.45 520.534C1057.59 521.151 1060.73 521.769 1063.87 522.388C1065.83 522.773 1067.78 523.156 1069.74 523.537C1070.63 523.711 1071.51 523.884 1072.43 524.063C1073.6 524.291 1073.6 524.291 1074.79 524.523C1076.86 524.952 1078.9 525.443 1080.95 525.971C1080.95 526.631 1080.95 527.291 1080.95 527.971C1082.12 528.074 1083.3 528.177 1084.51 528.284C1093.5 529.45 1102.24 534.506 1108.26 541.284C1115.03 551.197 1115.59 564.334 1114.2 575.814C1113.92 578.251 1113.7 580.688 1113.49 583.131C1112.86 590.536 1112.18 597.934 1111.37 605.323C1111.28 606.17 1111.19 607.017 1111.1 607.89C1110.92 609.471 1110.74 611.051 1110.56 612.63C1109.19 621.065 1109.19 621.065 1111.16 628.889C1111.69 629.308 1112.22 629.727 1112.76 630.159C1115.52 632.545 1117.09 634.811 1118.95 637.971C1119.84 638.858 1120.72 639.745 1121.64 640.659C1123.95 642.971 1123.95 642.971 1123.95 644.971C1124.53 645.212 1125.11 645.453 1125.7 645.702C1128.38 647.212 1129.9 648.947 1131.89 651.284C1134.14 653.907 1136.38 656.462 1138.89 658.846C1140.95 660.971 1140.95 660.971 1141.95 663.971C1142.51 664.528 1143.06 665.085 1143.64 665.659C1144.4 666.422 1145.16 667.185 1145.95 667.971C1146.45 668.394 1146.94 668.817 1147.45 669.253C1153.82 675.816 1152.96 684.438 1152.9 693.005C1152.89 695.703 1152.96 698.391 1153.03 701.088C1153.15 711.358 1152.3 717.733 1145.29 725.61C1144.51 726.389 1143.74 727.168 1142.95 727.971C1141.9 729.165 1140.85 730.36 1139.8 731.557C1138.92 732.477 1138.04 733.398 1137.14 734.346C1133.61 738.036 1130.76 741.721 1127.95 745.971C1126.31 747.341 1124.65 748.683 1122.95 749.971C1122.62 750.631 1122.29 751.291 1121.95 751.971C1121.29 751.971 1120.63 751.971 1119.95 751.971C1119.95 752.631 1119.95 753.291 1119.95 753.971C1118.66 755.351 1117.32 756.675 1115.95 757.971C1115.06 758.858 1114.18 759.745 1113.26 760.659C1112.16 761.763 1111.05 762.867 1109.95 763.971C1109.66 771.297 1110.45 778.392 1111.32 785.659C1112.34 794.485 1113.32 803.311 1114.14 812.159C1114.22 813.035 1114.3 813.912 1114.39 814.816C1115.61 828.323 1114.72 841.785 1105.95 852.827C1099.78 859.432 1093.7 862.317 1085.03 864.37C1084.16 864.581 1083.29 864.792 1082.4 865.009C1072.89 867.284 1063.33 869.263 1053.75 871.194C1050.76 871.796 1047.78 872.406 1044.79 873.016C1042.88 873.404 1040.97 873.791 1039.07 874.178C1038.18 874.359 1037.29 874.541 1036.37 874.727C1035.55 874.891 1034.74 875.055 1033.9 875.224C1033.18 875.369 1032.46 875.514 1031.73 875.663C1029.95 875.971 1029.95 875.971 1027.95 875.971C1027.83 876.551 1027.7 877.131 1027.58 877.728C1026.93 880.029 1026.07 881.792 1024.88 883.862C1024.48 884.571 1024.08 885.28 1023.66 886.01C1023.24 886.74 1022.82 887.469 1022.39 888.221C1021.96 888.966 1021.54 889.711 1021.1 890.479C1020.05 892.312 1019 894.142 1017.95 895.971C1017.29 895.971 1016.63 895.971 1015.95 895.971C1015.66 896.706 1015.37 897.441 1015.08 898.198C1011.34 907.37 1006.25 915.829 1001.03 924.217C1000.07 925.771 999.134 927.339 998.199 928.909C992.683 937.607 985.399 942.356 975.449 944.909C962.397 947.365 949.425 946.064 937.949 938.971C935.778 938.076 933.589 937.223 931.386 936.409C927.805 935.08 924.325 933.763 920.949 931.971C920.949 931.311 920.949 930.651 920.949 929.971C920.216 929.845 919.483 929.719 918.728 929.589C916.09 929.002 913.932 928.205 911.48 927.088C910.662 926.726 909.843 926.364 909 925.991C907.296 925.226 905.596 924.455 903.898 923.678C903.08 923.318 902.261 922.959 901.418 922.588C900.68 922.254 899.942 921.92 899.181 921.576C895.119 920.475 891.632 921.966 887.883 923.565C887.15 923.873 886.417 924.181 885.662 924.498C884.536 924.98 884.536 924.98 883.386 925.471C881.886 926.109 880.385 926.745 878.883 927.377C878.223 927.659 877.564 927.941 876.884 928.231C874.926 928.98 872.991 929.505 870.949 929.971C870.949 930.631 870.949 931.291 870.949 931.971C864.027 935.232 857.159 938.405 849.949 940.971C848.616 941.492 847.282 942.013 845.949 942.534C832.924 947.33 820.969 947.238 807.949 941.971C806.243 940.688 804.574 939.355 802.949 937.971C801.653 937.229 801.653 937.229 800.332 936.471C789.34 929.552 781.409 909.555 775.949 897.971C775.949 897.311 775.949 896.651 775.949 895.971C775.289 895.971 774.629 895.971 773.949 895.971C772.804 894.458 772.804 894.458 771.566 892.358C771.121 891.604 770.677 890.851 770.218 890.075C769.758 889.277 769.298 888.48 768.824 887.659C768.356 886.873 767.888 886.087 767.406 885.278C763.949 879.356 763.949 879.356 763.949 875.971C763.013 875.807 763.013 875.807 762.058 875.639C747.922 873.137 733.828 870.429 719.779 867.483C718.155 867.144 716.53 866.811 714.904 866.483C706.284 864.738 698.316 863.054 690.949 857.971C690.062 857.414 689.175 856.857 688.261 856.284C680.256 848.278 676.984 837.665 676.793 826.506C676.877 819.609 677.625 812.765 678.324 805.909C678.461 804.522 678.598 803.135 678.735 801.748C679.578 793.278 680.507 784.821 681.617 776.381C682.596 769.176 682.596 769.176 680.418 762.51C679.768 761.879 679.118 761.247 678.449 760.596C677.259 759.411 676.086 758.207 674.949 756.971C674.949 756.311 674.949 755.651 674.949 754.971C674.392 754.744 673.835 754.517 673.261 754.284C668.447 751.551 665.066 747.014 661.531 742.834C659.962 740.986 658.365 739.164 656.761 737.346C653.519 733.646 650.321 729.908 647.136 726.159C646.416 725.313 646.416 725.313 645.681 724.451C640.895 718.802 639.6 715.425 639.472 708.096C639.456 707.216 639.44 706.337 639.423 705.43C639.396 703.564 639.374 701.698 639.359 699.832C639.336 697.939 639.295 696.046 639.236 694.153C638.64 675.172 638.64 675.172 645.891 667.097C646.57 666.395 647.249 665.694 647.949 664.971C649.098 663.426 650.227 661.866 651.324 660.284C652.722 658.334 652.722 658.334 653.949 656.971C654.609 656.971 655.269 656.971 655.949 656.971C655.949 656.311 655.949 655.651 655.949 654.971C656.609 654.971 657.269 654.971 657.949 654.971C658.225 654.379 658.501 653.788 658.785 653.178C661.494 648.041 665.674 644.119 670.074 640.409C673.409 637.581 675.628 634.701 677.949 630.971C678.995 630.099 678.995 630.099 680.062 629.209C682.225 627.076 682.225 627.076 682.226 623.995C682.114 622.791 682.002 621.587 681.886 620.346C681.828 619.67 681.77 618.993 681.711 618.296C681.488 615.85 681.223 613.412 680.949 610.971C680.836 609.959 680.722 608.947 680.606 607.905C680.096 603.41 679.576 598.917 679.043 594.426C678.118 586.611 677.309 578.835 676.949 570.971C676.896 570.125 676.843 569.28 676.789 568.409C676.389 557.558 678.253 547.39 685.64 539.162C692.956 532.218 699.671 527.971 709.949 527.971C709.949 527.311 709.949 526.651 709.949 525.971C710.875 525.79 710.875 525.79 711.82 525.605C718.245 524.346 724.669 523.08 731.091 521.808C733.489 521.335 735.887 520.864 738.285 520.394C741.731 519.72 745.176 519.038 748.621 518.354C749.694 518.145 750.767 517.937 751.872 517.722C752.873 517.522 753.874 517.322 754.905 517.116C756.224 516.856 756.224 516.856 757.57 516.591C760.787 515.753 763.249 514.977 765.182 512.199C765.519 511.504 765.856 510.809 766.203 510.092C766.582 509.336 766.962 508.58 767.353 507.801C767.927 506.617 767.927 506.617 768.511 505.409C769.275 503.84 770.046 502.276 770.828 500.717C771.164 500.023 771.5 499.329 771.846 498.613C772.949 496.971 772.949 496.971 775.949 495.971C776.663 493.988 777.32 491.983 777.949 489.971C779.178 487.657 780.427 485.408 781.761 483.159C782.487 481.917 783.213 480.675 783.937 479.432C784.46 478.538 784.46 478.538 784.994 477.626C786.198 475.539 787.323 473.413 788.449 471.284C795.495 458.797 802.916 450.983 817.074 447.034C831.547 444.038 844.293 447.89 857.363 454.264ZM826.949 484.971C826.949 485.631 826.949 486.291 826.949 486.971C825.959 487.301 824.969 487.631 823.949 487.971C821.483 491.35 820.949 492.677 820.949 496.971C820.289 496.971 819.629 496.971 818.949 496.971C817.32 500.031 815.696 503.095 814.074 506.159C813.614 507.023 813.154 507.887 812.679 508.778C812.235 509.619 811.79 510.46 811.332 511.327C810.719 512.481 810.719 512.481 810.094 513.659C808.878 515.998 808.878 515.998 807.988 518.699C807.645 519.449 807.302 520.199 806.949 520.971C805.959 521.301 804.969 521.631 803.949 521.971C800.168 527.618 793.949 536.963 793.949 543.971C793.289 543.971 792.629 543.971 791.949 543.971C791.634 544.895 791.634 544.895 791.312 545.838C788.453 550.311 781.839 550.799 776.949 551.971C773.58 552.593 770.22 553.122 766.824 553.577C764.169 553.941 761.57 554.417 758.949 554.971C758.949 555.631 758.949 556.291 758.949 556.971C758.348 557.002 757.748 557.033 757.129 557.065C748.312 557.679 739.853 559.583 731.261 561.534C729.77 561.867 728.278 562.2 726.787 562.532C723.173 563.338 719.56 564.152 715.949 564.971C715.64 572.745 716.493 580.224 717.545 587.919C719.066 599.102 720.354 610.276 721.199 621.534C721.279 622.59 721.358 623.646 721.441 624.735C721.635 627.479 721.798 630.224 721.949 632.971C722.033 634.267 722.116 635.562 722.203 636.897C721.899 640.571 721.053 641.855 718.636 644.596C717.548 645.863 717.548 645.863 716.437 647.155C715.616 648.084 714.795 649.014 713.949 649.971C712.545 651.627 711.151 653.291 709.756 654.954C708.34 656.64 706.914 658.316 705.484 659.991C704.042 661.686 702.607 663.388 701.195 665.108C698.701 668.131 696.147 670.706 693.136 673.221C688.035 677.552 684.098 682.752 679.949 687.971C677.97 690.324 675.962 692.648 673.949 694.971C675.576 698.971 678.386 701.776 681.324 704.846C684.993 708.682 688.048 712.495 690.949 716.971C693.449 719.806 693.449 719.806 695.949 721.971C696.609 721.971 697.269 721.971 697.949 721.971C698.169 722.509 698.39 723.046 698.617 723.6C700.399 726.773 702.785 729.274 705.261 731.909C705.735 732.421 706.209 732.933 706.697 733.461C710.412 737.461 714.229 741.347 718.199 745.096C719.949 746.971 719.949 746.971 720.949 749.971C721.609 750.301 722.269 750.631 722.949 750.971C723.542 753.62 723.691 756.263 723.949 758.971C723.289 758.971 722.629 758.971 721.949 758.971C721.874 759.87 721.799 760.769 721.721 761.695C721.364 765.934 721.002 770.171 720.636 774.409C720.57 775.176 720.504 775.943 720.436 776.734C719.467 787.887 718.333 799.001 716.864 810.102C716.174 815.439 715.625 820.589 715.949 825.971C718.208 828.231 719.012 828.372 722.066 828.944C722.962 829.117 723.859 829.29 724.782 829.468C726.288 829.748 726.288 829.748 727.824 830.034C730.064 830.466 732.303 830.899 734.543 831.334C735.834 831.584 737.126 831.834 738.457 832.091C746.752 833.707 755.03 835.412 763.31 837.105C766.307 837.718 769.306 838.327 772.304 838.936C774.173 839.317 776.041 839.699 777.91 840.08C778.778 840.256 779.645 840.432 780.539 840.613C781.34 840.777 782.141 840.942 782.966 841.111C783.666 841.253 784.365 841.396 785.086 841.543C786.949 841.971 786.949 841.971 789.949 842.971C791.136 845.534 791.136 845.534 791.949 847.971C792.609 847.971 793.269 847.971 793.949 847.971C794.258 849.085 794.568 850.199 794.886 851.346C795.772 854.766 795.772 854.766 796.949 856.971C797.609 856.971 798.269 856.971 798.949 856.971C799.073 857.714 799.196 858.456 799.324 859.221C800.053 862.428 800.833 864.949 803.298 867.207C805.53 869.592 806.908 872.208 808.488 875.065C808.814 875.653 809.141 876.241 809.477 876.846C810.163 878.086 810.847 879.326 811.529 880.568C812.572 882.468 813.623 884.362 814.675 886.256C819.801 895.528 819.801 895.528 820.949 898.971C821.609 898.971 822.269 898.971 822.949 898.971C823.052 899.714 823.155 900.456 823.261 901.221C823.991 904.141 825.017 905.703 826.949 907.971C832.869 906.211 838.365 903.574 843.949 900.971C843.949 900.311 843.949 899.651 843.949 898.971C844.639 898.862 845.328 898.754 846.039 898.642C849.414 897.864 852.335 896.633 855.508 895.241C856.133 894.968 856.759 894.695 857.403 894.414C859.4 893.542 861.393 892.663 863.386 891.784C864.69 891.212 865.994 890.641 867.299 890.071C868.264 889.648 868.264 889.648 869.248 889.217C870.546 888.65 871.844 888.083 873.142 887.517C876.383 886.103 879.614 884.672 882.832 883.207C884.07 882.653 885.308 882.099 886.547 881.545C887.636 881.05 888.725 880.555 889.848 880.044C894.296 878.505 897.53 878.429 901.922 880.108C902.941 880.62 903.961 881.131 905.011 881.659C909.298 883.734 913.543 885.637 918.011 887.284C924.909 889.856 931.565 892.913 938.234 896.025C939.061 896.406 939.887 896.786 940.738 897.178C941.847 897.696 941.847 897.696 942.979 898.224C945.065 899.148 945.065 899.148 947.949 898.971C947.949 899.631 947.949 900.291 947.949 900.971C950.381 902.171 952.819 903.356 955.261 904.534C955.952 904.876 956.642 905.218 957.353 905.571C961.499 907.716 961.499 907.716 965.949 906.971C967.3 904.767 967.3 904.767 968.511 901.971C971.442 895.84 974.778 890.045 978.26 884.213C981.222 879.24 984.03 874.212 986.695 869.073C987.949 866.971 987.949 866.971 989.609 865.432C991.4 863.81 991.4 863.81 990.949 859.971C991.609 859.971 992.269 859.971 992.949 859.971C993.526 858.795 994.104 857.62 994.699 856.409C996.646 852.508 998.762 848.742 1000.95 844.971C1001.28 844.311 1001.61 843.651 1001.95 842.971C1004.22 842.257 1004.22 842.257 1007.25 841.604C1008.36 841.36 1009.47 841.116 1010.62 840.865C1011.82 840.612 1013.02 840.358 1014.26 840.096C1015.49 839.83 1016.72 839.564 1017.99 839.29C1028.29 837.075 1038.61 834.989 1048.95 832.971C1053.51 832.08 1058.07 831.183 1062.64 830.284C1064.3 829.962 1064.3 829.962 1065.99 829.633C1067.52 829.33 1067.52 829.33 1069.09 829.022C1070 828.843 1070.92 828.664 1071.86 828.48C1073.92 828.169 1073.92 828.169 1074.95 826.971C1075.61 815.055 1074.49 803.494 1072.81 791.712C1070.74 777.083 1069.13 762.774 1069.95 747.971C1070.56 747.689 1071.16 747.406 1071.79 747.116C1075.48 745.159 1078.19 742.336 1080.21 738.69C1082.43 735.214 1085.16 732.615 1088.14 729.784C1090.13 727.884 1092.05 725.966 1093.95 723.971C1093.95 723.311 1093.95 722.651 1093.95 721.971C1094.53 721.724 1095.1 721.476 1095.7 721.221C1099.07 719.348 1101.31 717.123 1103.18 713.741C1105.85 709.561 1109.38 706.248 1112.92 702.788C1116.16 699.564 1116.16 699.564 1116.93 695.241C1115.68 692.348 1114.11 690.259 1111.95 687.971C1111.29 687.971 1110.63 687.971 1109.95 687.971C1109.72 687.435 1109.5 686.899 1109.26 686.346C1106.51 681.36 1102.93 677.889 1098.53 674.362C1096.08 672.213 1094.04 669.752 1091.93 667.276C1089.65 664.628 1087.31 662.05 1084.95 659.471C1081.4 655.572 1077.85 651.673 1074.42 647.663C1073.18 646.233 1071.85 644.874 1070.51 643.534C1066.79 637.434 1069.33 627.823 1070.23 621.006C1070.5 618.885 1070.76 616.763 1071.03 614.641C1071.46 611.35 1071.88 608.06 1072.31 604.77C1074.02 591.504 1075.46 578.343 1075.95 564.971C1071.6 563.984 1067.24 563.005 1062.88 562.035C1061.4 561.705 1059.93 561.372 1058.45 561.037C1049.98 559.116 1041.65 557.418 1032.95 556.971C1032.95 556.311 1032.95 555.651 1032.95 554.971C1028.4 553.863 1023.93 552.908 1019.26 552.471C1015.58 552.114 1012.45 551.188 1008.95 549.971C1007.77 549.971 1006.6 549.971 1005.39 549.971C1001.95 548.971 1001.95 548.971 1000.39 546.686C999.13 544.148 997.988 541.609 996.949 538.971C996.289 538.971 995.629 538.971 994.949 538.971C994.711 538.153 994.711 538.153 994.468 537.319C992.64 531.41 990.12 526.272 986.949 520.971C986.289 520.971 985.629 520.971 984.949 520.971C984.687 520.263 984.426 519.556 984.156 518.827C982.874 515.794 981.334 513.103 979.636 510.284C976.884 505.637 974.375 500.944 972.008 496.092C970.781 493.635 969.391 491.307 967.949 488.971C967.268 487.645 966.596 486.314 965.949 484.971C960.447 485.581 955.854 487.484 950.824 489.659C949.985 490.016 949.146 490.373 948.282 490.741C942.567 493.201 936.993 495.835 931.492 498.745C928.706 500.088 925.898 501.05 922.949 501.971C922.949 502.631 922.949 503.291 922.949 503.971C922.306 504.052 921.662 504.134 921 504.217C915.975 505.459 911.441 507.903 906.806 510.176C901.863 512.483 897.437 514.181 891.949 512.971C887.199 511.237 882.641 509.131 878.074 506.971C875.642 505.84 873.206 504.718 870.769 503.596C869.165 502.842 869.165 502.842 867.528 502.073C865.11 500.84 865.11 500.84 862.949 500.971C862.949 500.311 862.949 499.651 862.949 498.971C861.299 498.971 859.649 498.971 857.949 498.971C857.949 498.311 857.949 497.651 857.949 496.971C856.629 496.971 855.309 496.971 853.949 496.971C853.949 496.311 853.949 495.651 853.949 494.971C853.364 494.739 852.779 494.507 852.176 494.268C849.517 493.213 846.858 492.154 844.199 491.096C843.279 490.731 842.358 490.366 841.41 489.991C840.52 489.636 839.631 489.282 838.715 488.916C837.898 488.592 837.081 488.267 836.239 487.933C833.949 486.971 833.949 486.971 831.839 485.85C829.843 484.76 829.843 484.76 826.949 484.971Z" fill="white"/>
<path d="M970 637C974.089 638.65 976.98 641.574 980.125 644.562C983.764 648.186 983.764 648.186 988 651C987.448 654.856 985.808 656.454 983 659.062C979.662 662.285 976.64 665.559 973.75 669.188C969.664 674.295 965.287 679.043 960.804 683.799C957.486 687.34 954.342 690.954 951.312 694.75C947.624 699.366 943.597 703.451 939.363 707.566C936.419 710.598 933.928 713.852 931.473 717.285C930 719 930 719 927 720C926.584 720.833 926.584 720.833 926.16 721.684C924.503 724.992 921.973 727.415 919.438 730.062C915.656 734.078 912.006 738.123 908.562 742.438C904.542 747.451 900.223 752.113 895.817 756.784C891.6 761.281 887.699 765.933 883.902 770.793C882 773 882 773 878 776C853.25 751.25 828.5 726.5 803 701C805.244 696.511 807.886 693.711 811.375 690.188C811.952 689.577 812.53 688.967 813.125 688.338C813.972 687.48 813.972 687.48 814.836 686.605C815.347 686.081 815.858 685.557 816.384 685.016C818 684 818 684 819.767 684.119C822.973 685.384 825.001 687.65 827.348 690.086C827.869 690.615 828.389 691.143 828.926 691.688C830.054 692.834 831.179 693.984 832.301 695.137C834.076 696.959 835.861 698.771 837.649 700.58C842.73 705.725 847.792 710.889 852.847 716.059C855.94 719.222 859.045 722.372 862.158 725.516C863.343 726.718 864.524 727.924 865.699 729.136C867.339 730.826 868.994 732.501 870.652 734.172C871.137 734.679 871.621 735.186 872.12 735.709C873.612 737.251 873.612 737.251 876 739C879.087 738.898 879.848 738.144 882.113 735.996C882.839 735.152 883.565 734.307 884.312 733.438C885.107 732.524 885.901 731.61 886.719 730.668C887.472 729.788 888.224 728.907 889 728C890.103 726.749 891.207 725.499 892.312 724.25C894.474 721.773 896.617 719.28 898.75 716.777C904.324 710.241 909.956 703.786 915.762 697.453C918.313 694.657 920.806 691.817 923.289 688.961C925.846 686.03 928.438 683.13 931.027 680.227C932.89 678.124 934.727 676.002 936.562 673.875C938.791 671.318 941.083 668.879 943.5 666.5C948.294 661.769 952.601 656.641 956.969 651.52C957.498 650.9 958.028 650.28 958.573 649.641C959.63 648.403 960.684 647.164 961.737 645.924C964.382 642.821 967.062 639.833 970 637Z" fill="white"/>
</svg>
