<svg width="1065" height="970" viewBox="0 0 1065 970" fill="none" xmlns="http://www.w3.org/2000/svg">
<path d="M344.641 89.9062H614.359C622.601 89.9062 629.344 96.6492 629.344 104.891V179.812H329.656V104.891C329.656 96.6492 336.399 89.9062 344.641 89.9062ZM239.75 104.891V179.812H119.875C53.7564 179.812 0 233.569 0 299.688V479.5H359.625H599.375H959V299.688C959 233.569 905.244 179.812 839.125 179.812H719.25V104.891C719.25 47.0135 672.237 0 614.359 0H344.641C286.763 0 239.75 47.0135 239.75 104.891ZM959 539.438H599.375V599.375C599.375 632.528 572.59 659.312 539.438 659.312H419.562C386.41 659.312 359.625 632.528 359.625 599.375V539.438H0V779.188C0 845.306 53.7564 899.062 119.875 899.062H839.125C905.244 899.062 959 845.306 959 779.188V539.438Z" fill="#68B82D"/>
<g clip-path="url(#clip0_238_875)">
<path d="M860.161 265C885.838 265 906.582 285.772 906.582 311.482V363.338C908.903 363.629 911.079 363.919 913.4 364.355C913.98 364.5 914.415 364.5 914.996 364.645L984.626 377.428C1009.87 382.076 1026.55 406.334 1021.91 431.463C1017.27 456.592 993.04 473.442 967.944 468.794L899.038 456.157C853.633 449.475 813.596 453.978 785.453 465.162C757.311 476.347 745.996 491.744 743.385 505.979C740.483 521.522 742.659 530.237 745.125 535.611C747.736 541.276 753.104 547.668 763.694 554.785C787.339 570.328 823.605 580.496 870.606 592.988L874.813 594.15C916.301 605.189 967.074 618.553 1004.79 643.246C1025.39 656.755 1044.83 675.057 1056.87 700.622C1069.2 726.623 1071.81 755.674 1066.15 786.613C1056.14 841.811 1018.14 878.706 970.99 898.025C951.116 906.159 929.502 911.388 906.582 914.003V962.518C906.582 988.228 885.838 1009 860.161 1009C834.485 1009 813.741 988.228 813.741 962.518V911.824C813.16 911.679 812.435 911.679 811.855 911.533H811.565C776.169 906.014 717.998 890.762 678.831 873.331C655.476 862.873 644.886 835.419 655.331 812.033C665.775 788.647 693.192 778.043 716.548 788.502C746.866 802.011 796.768 815.374 825.636 819.877C871.911 826.704 910.063 822.782 935.885 812.178C960.401 802.156 971.571 787.63 974.762 770.2C977.518 754.802 975.342 745.942 972.876 740.567C970.12 734.757 964.753 728.366 954.018 721.248C930.227 705.706 893.816 695.538 846.67 683.046L842.608 682.029C801.265 670.699 750.493 657.191 712.776 632.497C692.177 618.988 672.883 600.541 660.843 574.976C648.658 548.975 646.191 519.924 651.994 488.984C662.439 433.497 703.927 397.473 751.073 378.735C770.366 371.037 791.546 365.807 813.741 362.757V311.482C813.741 285.772 834.485 265 860.161 265Z" fill="#68B82D"/>
<path d="M857 294C880.01 294 898.6 312.601 898.6 335.625V382.063C900.68 382.323 902.63 382.583 904.71 382.973C905.23 383.104 905.62 383.104 906.14 383.234L968.54 394.68C991.16 398.843 1006.11 420.566 1001.95 443.07C997.79 465.573 976.08 480.662 953.59 476.5L891.84 465.183C851.15 459.199 815.27 463.232 790.05 473.248C764.83 483.264 754.69 497.052 752.35 509.8C749.75 523.718 751.7 531.523 753.91 536.336C756.25 541.409 761.06 547.132 770.55 553.506C791.74 567.424 824.24 576.53 866.36 587.716L870.13 588.757C907.31 598.643 952.81 610.61 986.61 632.723C1005.07 644.821 1022.49 661.211 1033.28 684.104C1044.33 707.388 1046.67 733.404 1041.6 761.111C1032.63 810.54 998.57 843.58 956.32 860.88C938.51 868.165 919.14 872.848 898.6 875.189V918.635C898.6 941.659 880.01 960.26 857 960.26C833.99 960.26 815.4 941.659 815.4 918.635V873.238C814.88 873.108 814.23 873.108 813.71 872.978H813.45C781.73 868.035 729.6 854.377 694.5 838.767C673.57 829.402 664.08 804.817 673.44 783.874C682.8 762.932 707.37 753.436 728.3 762.802C755.47 774.899 800.19 786.866 826.06 790.898C867.53 797.012 901.72 793.5 924.86 784.004C946.83 775.029 956.84 762.021 959.7 746.412C962.17 732.623 960.22 724.689 958.01 719.876C955.54 714.673 950.73 708.949 941.11 702.575C919.79 688.657 887.16 679.552 844.91 668.365L841.27 667.454C804.22 657.308 758.72 645.211 724.92 623.098C706.46 611 689.17 594.48 678.38 571.587C667.46 548.303 665.25 522.287 670.45 494.58C679.81 444.891 716.99 412.631 759.24 395.851C776.53 388.957 795.51 384.274 815.4 381.543V335.625C815.4 312.601 833.99 294 857 294Z" fill="white"/>
</g>
<defs>
<clipPath id="clip0_238_875">
<rect width="416" height="666" fill="white" transform="translate(649 304)"/>
</clipPath>
</defs>
</svg>
