<svg width="1105" height="922" viewBox="0 0 1105 922" fill="none" xmlns="http://www.w3.org/2000/svg">
<path d="M344.641 89.9062H614.359C622.601 89.9062 629.344 96.6492 629.344 104.891V179.812H329.656V104.891C329.656 96.6492 336.399 89.9062 344.641 89.9062ZM239.75 104.891V179.812H119.875C53.7564 179.812 0 233.569 0 299.688V479.5H359.625H599.375H959V299.688C959 233.569 905.244 179.812 839.125 179.812H719.25V104.891C719.25 47.0135 672.237 0 614.359 0H344.641C286.763 0 239.75 47.0135 239.75 104.891ZM959 539.438H599.375V599.375C599.375 632.528 572.59 659.312 539.438 659.312H419.562C386.41 659.312 359.625 632.528 359.625 599.375V539.438H0V779.188C0 845.306 53.7564 899.062 119.875 899.062H839.125C905.244 899.062 959 845.306 959 779.188V539.438Z" fill="#68B82D"/>
<path d="M529 538H1105C1105 502.7 1076.3 474 1041 474H593C557.7 474 529 502.7 529 538ZM529 570V858C529 893.3 557.7 922 593 922H1041C1076.3 922 1105 893.3 1105 858V570H529ZM593 847.3C593 817.8 616.9 794 646.3 794H763.6C793.1 794 816.9 817.9 816.9 847.3C816.9 853.2 812.1 858 806.2 858H603.7C597.8 858 593 853.2 593 847.3ZM705 634C721.974 634 738.253 640.743 750.255 652.745C762.257 664.747 769 681.026 769 698C769 714.974 762.257 731.252 750.255 743.255C738.253 755.257 721.974 762 705 762C688.026 762 671.747 755.257 659.745 743.255C647.743 731.252 641 714.974 641 698C641 681.026 647.743 664.747 659.745 652.745C671.747 640.743 688.026 634 705 634ZM881 650C881 641.2 888.2 634 897 634H1025C1033.8 634 1041 641.2 1041 650C1041 658.8 1033.8 666 1025 666H897C888.2 666 881 658.8 881 650ZM881 714C881 705.2 888.2 698 897 698H1025C1033.8 698 1041 705.2 1041 714C1041 722.8 1033.8 730 1025 730H897C888.2 730 881 722.8 881 714ZM881 778C881 769.2 888.2 762 897 762H1025C1033.8 762 1041 769.2 1041 778C1041 786.8 1033.8 794 1025 794H897C888.2 794 881 786.8 881 778Z" fill="white"/>
</svg>
