<svg width="2050" height="1512" viewBox="0 0 2050 1512" fill="none" xmlns="http://www.w3.org/2000/svg">
<path d="M1422.98 948.958C1420.98 942.925 1421.43 936.344 1424.24 930.641C1427.05 924.939 1432 920.576 1438.01 918.497C1439.24 918.09 1440.5 917.786 1441.79 917.587L1454.73 864.474L1488.47 864.578L1469.16 939.324C1469.63 944.676 1468.29 950.032 1465.37 954.539C1462.45 959.046 1458.1 962.446 1453.02 964.196C1450.05 965.187 1446.91 965.579 1443.79 965.348C1440.66 965.117 1437.61 964.268 1434.82 962.851C1432.03 961.433 1429.54 959.475 1427.51 957.091C1425.48 954.706 1423.94 951.942 1422.98 948.958Z" fill="#9F616A"/>
<path d="M1479.96 914.588L1428.27 910.956L1453.3 759.679L1437.38 593.107L1489.62 571.383L1524.46 756.362L1524.36 756.7L1479.96 914.588Z" fill="black"/>
<path d="M1080.34 896.858C1080.23 890.515 1082.64 884.386 1087.04 879.819C1091.44 875.251 1097.48 872.619 1103.82 872.5C1105.12 872.494 1106.41 872.595 1107.69 872.802L1136 826.229L1168.1 836.772L1127.21 901.974C1125.97 907.701 1122.66 912.766 1117.91 916.192C1113.15 919.619 1107.3 921.163 1101.48 920.527C1095.65 919.892 1090.27 917.121 1086.37 912.75C1082.47 908.379 1080.32 902.718 1080.34 896.858Z" fill="#9F616A"/>
<path d="M1239.72 1479.21H1212.23L1199.15 1371.66L1239.73 1371.67L1239.72 1479.21Z" fill="#9F616A"/>
<path d="M1246.73 1506.23L1158.09 1506.23V1505.09C1158.05 1495.83 1161.69 1486.94 1168.19 1480.35C1171.37 1477.1 1175.17 1474.52 1179.36 1472.76C1183.55 1471 1188.05 1470.1 1192.59 1470.1L1246.73 1470.1L1246.73 1506.23Z" fill="#2F2E41"/>
<path d="M1431.52 1479.21H1404.02L1390.95 1371.66L1431.52 1371.67L1431.52 1479.21Z" fill="#9F616A"/>
<path d="M1438.53 1506.23L1349.88 1506.23V1505.09C1349.85 1495.83 1353.48 1486.94 1359.99 1480.35C1363.17 1477.1 1366.96 1474.52 1371.15 1472.76C1375.34 1471 1379.84 1470.1 1384.39 1470.1L1438.53 1470.1L1438.53 1506.23Z" fill="#2F2E41"/>
<path d="M1405.37 469.32C1441.44 469.32 1470.69 439.664 1470.69 403.081C1470.69 366.499 1441.44 336.843 1405.37 336.843C1369.3 336.843 1340.06 366.499 1340.06 403.081C1340.06 439.664 1369.3 469.32 1405.37 469.32Z" fill="#9F616A"/>
<path d="M1383.31 399.449C1373.49 403.235 1362.64 403.359 1352.73 399.796C1342.83 396.234 1334.54 389.225 1329.38 380.051C1324.7 370.537 1323.52 359.676 1326.05 349.377C1328.57 339.078 1334.65 330 1343.21 323.737C1360.59 311.939 1386.55 315.844 1403.4 329.527C1414.77 324.291 1427.52 322.855 1439.76 325.432C1452.01 328.009 1463.1 334.462 1471.39 343.835C1487.66 362.921 1489.43 393.217 1477.58 415.466C1472.39 427.08 1470.09 439.777 1470.88 452.472C1471.66 465.168 1475.51 477.485 1482.08 488.372C1476.98 488.161 1465.75 487.203 1451.7 485.974C1447.64 485.618 1445.88 473.507 1441.42 473.118C1437.49 472.774 1430.9 484.154 1426.78 483.801C1396.27 481.186 1362.11 478.531 1346.63 479.05C1357.49 451.908 1369.73 425.339 1383.31 399.449Z" fill="#404040"/>
<path d="M1455.46 869.724C1455.46 869.724 1476.69 891.918 1463.73 1006.53L1454.77 1249.88L1438.93 1465.36L1387.96 1461.93L1343.18 965.967L1280.5 1147.45L1246.75 1447.49L1197.84 1444.05L1189.49 1145.68L1210.93 915.095L1455.46 869.724Z" fill="black"/>
<path d="M1245.37 928.977C1219.29 928.979 1208.79 925.799 1208.02 925.554L1206.81 925.168L1207.02 923.9C1207.2 922.858 1224.72 819.254 1248.76 764.862L1265.67 544.28C1266.11 537.766 1268.75 531.595 1273.15 526.77C1277.55 521.946 1283.45 518.752 1289.89 517.707L1332.89 510.861L1359.2 487.37L1422.21 490.904L1427.77 517.938C1435.31 520.074 1485.04 535.533 1489.97 572.549L1490.03 573.013L1489.81 573.427L1398.7 751.19C1406.4 758.897 1467.25 822.29 1471.38 903.332L1471.48 905.282L1469.6 904.847C1469.43 904.811 1449.95 901.057 1347.56 918.613C1300.2 926.731 1267.29 928.977 1245.37 928.977Z" fill="black"/>
<path d="M1144.36 895.784L1107.22 866.778L1190.12 698.585L1267.21 533.739C1268.27 531.441 1270.01 529.526 1272.2 528.256C1274.39 526.987 1276.91 526.425 1279.43 526.648C1281.95 526.871 1284.34 527.867 1286.27 529.501C1288.2 531.134 1289.58 533.325 1290.22 535.773L1309.3 605.983L1249.63 763.44L1144.36 895.784Z" fill="black"/>
<path d="M1941.59 1505.03L1943.8 1500.95C1914.21 1484.95 1877.39 1465.03 1858.16 1432.35C1839.2 1400.12 1838.77 1356.37 1857.05 1318.16C1872.6 1285.64 1901.17 1256.5 1939.66 1233.9C1947.26 1229.44 1955.23 1225.21 1962.94 1221.13C1981.57 1211.25 2000.83 1201.04 2016.72 1186.55C2038.6 1166.59 2055.16 1133.1 2042.82 1103.27C2038.76 1093.74 2032.11 1085.55 2023.63 1079.62C2015.16 1073.68 2005.18 1070.25 1994.85 1069.7L1994.59 1074.33C2004.05 1074.83 2013.19 1077.98 2020.96 1083.41C2028.73 1088.85 2034.82 1096.35 2038.54 1105.07C2050.01 1132.79 2034.28 1164.25 2013.6 1183.12C1998.14 1197.21 1979.14 1207.29 1960.76 1217.03C1953.01 1221.14 1944.99 1225.39 1937.31 1229.9C1898.02 1252.97 1868.81 1282.8 1852.86 1316.15C1833.93 1355.74 1834.43 1401.17 1854.16 1434.7C1874.05 1468.5 1911.5 1488.76 1941.59 1505.03Z" fill="#F1F1F1"/>
<path d="M1965.44 1094.16C1987.86 1094.16 2006.04 1085.33 2006.04 1074.43C2006.04 1063.54 1987.86 1054.71 1965.44 1054.71C1943.02 1054.71 1924.84 1063.54 1924.84 1074.43C1924.84 1085.33 1943.02 1094.16 1965.44 1094.16Z" fill="#68B82D"/>
<path d="M1932.96 1224.1C1955.38 1224.1 1973.56 1215.27 1973.56 1204.37C1973.56 1193.48 1955.38 1184.65 1932.96 1184.65C1910.54 1184.65 1892.36 1193.48 1892.36 1204.37C1892.36 1215.27 1910.54 1224.1 1932.96 1224.1Z" fill="#68B82D"/>
<path d="M2007.2 1244.98C2029.62 1244.98 2047.8 1236.15 2047.8 1225.26C2047.8 1214.37 2029.62 1205.53 2007.2 1205.53C1984.78 1205.53 1966.6 1214.37 1966.6 1225.26C1966.6 1236.15 1984.78 1244.98 2007.2 1244.98Z" fill="#68B82D"/>
<path d="M1891.2 1354.04C1913.62 1354.04 1931.8 1345.21 1931.8 1334.32C1931.8 1323.42 1913.62 1314.59 1891.2 1314.59C1868.78 1314.59 1850.6 1323.42 1850.6 1334.32C1850.6 1345.21 1868.78 1354.04 1891.2 1354.04Z" fill="#68B82D"/>
<path d="M1810 1354.04C1832.43 1354.04 1850.6 1345.21 1850.6 1334.32C1850.6 1323.42 1832.43 1314.59 1810 1314.59C1787.58 1314.59 1769.41 1323.42 1769.41 1334.32C1769.41 1345.21 1787.58 1354.04 1810 1354.04Z" fill="#68B82D"/>
<path d="M2043.99 1511.34H720.193C719.253 1511.34 718.352 1510.97 717.687 1510.31C717.022 1509.64 716.649 1508.74 716.649 1507.8C716.649 1506.86 717.022 1505.96 717.687 1505.29C718.352 1504.63 719.253 1504.25 720.193 1504.25H2045.71C2046.65 1504.25 2047.55 1504.63 2048.22 1505.29C2048.88 1505.96 2049.26 1506.86 2049.26 1507.8C2049.26 1509.76 2045.95 1511.34 2043.99 1511.34Z" fill="#CBCBCB"/>
<path d="M809.979 396.211H221.648C216.949 396.205 212.445 394.336 209.123 391.013C205.801 387.691 203.932 383.186 203.927 378.486V179.976C203.932 175.277 205.801 170.772 209.123 167.449C212.445 164.126 216.949 162.257 221.648 162.251H809.979C814.677 162.257 819.182 164.126 822.504 167.449C825.826 170.772 827.695 175.277 827.7 179.976V378.486C827.695 383.186 825.826 387.691 822.504 391.013C819.182 394.336 814.677 396.205 809.979 396.211Z" fill="#404040"/>
<path d="M452.018 215.424H296.075V233.148H452.018V215.424Z" fill="white"/>
<path d="M657.58 236.693C663.452 236.693 668.213 231.932 668.213 226.059C668.213 220.186 663.452 215.424 657.58 215.424C651.708 215.424 646.948 220.186 646.948 226.059C646.948 231.932 651.708 236.693 657.58 236.693Z" fill="#68B82D"/>
<path d="M693.022 236.693C698.894 236.693 703.654 231.932 703.654 226.059C703.654 220.186 698.894 215.424 693.022 215.424C687.149 215.424 682.389 220.186 682.389 226.059C682.389 231.932 687.149 236.693 693.022 236.693Z" fill="#68B82D"/>
<path d="M728.464 236.693C734.336 236.693 739.096 231.932 739.096 226.059C739.096 220.186 734.336 215.424 728.464 215.424C722.591 215.424 717.831 220.186 717.831 226.059C717.831 231.932 722.591 236.693 728.464 236.693Z" fill="#68B82D"/>
<path d="M809.979 647.894H221.648C216.949 647.889 212.445 646.02 209.123 642.697C205.801 639.374 203.932 634.869 203.927 630.17V431.659C203.932 426.96 205.801 422.455 209.123 419.132C212.445 415.81 216.949 413.941 221.648 413.935H809.979C814.677 413.94 819.182 415.81 822.504 419.132C825.826 422.455 827.695 426.96 827.7 431.659V630.17C827.695 634.869 825.826 639.374 822.504 642.697C819.182 646.02 814.677 647.889 809.979 647.894Z" fill="#404040"/>
<path d="M452.018 467.107H296.075V484.832H452.018V467.107Z" fill="white"/>
<path d="M657.58 488.376C663.452 488.376 668.213 483.615 668.213 477.742C668.213 471.869 663.452 467.107 657.58 467.107C651.708 467.107 646.948 471.869 646.948 477.742C646.948 483.615 651.708 488.376 657.58 488.376Z" fill="#68B82D"/>
<path d="M693.022 488.376C698.894 488.376 703.654 483.615 703.654 477.742C703.654 471.869 698.894 467.107 693.022 467.107C687.149 467.107 682.389 471.869 682.389 477.742C682.389 483.615 687.149 488.376 693.022 488.376Z" fill="#68B82D"/>
<path d="M728.464 488.376C734.336 488.376 739.096 483.615 739.096 477.742C739.096 471.869 734.336 467.107 728.464 467.107C722.591 467.107 717.831 471.869 717.831 477.742C717.831 483.615 722.591 488.376 728.464 488.376Z" fill="#68B82D"/>
<path d="M809.979 899.578H221.648C216.949 899.572 212.445 897.703 209.123 894.381C205.801 891.058 203.932 886.553 203.927 881.854V683.343C203.932 678.644 205.801 674.139 209.123 670.816C212.445 667.493 216.949 665.624 221.648 665.619H809.979C814.677 665.624 819.182 667.493 822.504 670.816C825.826 674.139 827.695 678.644 827.7 683.343V881.854C827.695 886.553 825.826 891.058 822.504 894.381C819.182 897.703 814.677 899.572 809.979 899.578Z" fill="#404040"/>
<path d="M452.018 718.791H296.075V736.515H452.018V718.791Z" fill="white"/>
<path d="M657.58 740.06C663.452 740.06 668.213 735.299 668.213 729.426C668.213 723.552 663.452 718.791 657.58 718.791C651.708 718.791 646.948 723.552 646.948 729.426C646.948 735.299 651.708 740.06 657.58 740.06Z" fill="#68B82D"/>
<path d="M693.022 740.06C698.894 740.06 703.654 735.299 703.654 729.426C703.654 723.552 698.894 718.791 693.022 718.791C687.149 718.791 682.389 723.552 682.389 729.426C682.389 735.299 687.149 740.06 693.022 740.06Z" fill="#68B82D"/>
<path d="M728.464 740.06C734.336 740.06 739.096 735.299 739.096 729.426C739.096 723.552 734.336 718.791 728.464 718.791C722.591 718.791 717.831 723.552 717.831 729.426C717.831 735.299 722.591 740.06 728.464 740.06Z" fill="#68B82D"/>
<path d="M595.42 1053.65H0V818.857H7.08833V1046.56H595.42V1053.65Z" fill="#CCCCCC"/>
<path d="M372.138 0H967.558V234.789H960.469V7.08967H372.138V0Z" fill="#CCCCCC"/>
<rect x="149.12" y="99.4492" width="729.031" height="837.906" rx="47.5" stroke="#68B82D" stroke-width="15"/>
</svg>
