<svg width="1665" height="1733" viewBox="0 0 1665 1733" fill="none" xmlns="http://www.w3.org/2000/svg">
<g clip-path="url(#clip0_220_2)">
<path d="M1479.25 1318.86L1479.21 1319.64L1518.3 1733H1233.06L1196.09 1479.13L1179.81 1726.49L886.886 1723.24L918.001 1398.47L944.462 1247.94V1247.91L948.433 1225.25H1471.47L1472.15 1233.46L1479.25 1318.86Z" fill="#555555"/>
<path d="M725.424 1558.49C755.634 1563.99 787.135 1529.97 795.784 1482.49C799.57 1461.71 798.348 1441.8 793.245 1425.52L797.877 1398.15L875.611 1030C875.611 1030 1018.75 743.665 1018.75 693.955C1018.75 644.245 977.343 619.867 977.343 619.867L921.315 620.391L745.616 1049.52L713.973 1366.63L708.854 1410.14C698.336 1423.58 690.17 1441.78 686.385 1462.56C677.736 1510.04 695.215 1552.98 725.424 1558.49Z" fill="#FFB6B6"/>
<path d="M1295.35 442.481L1243.28 322.055L1074.03 351.348L1062.64 493.033L1295.35 442.481Z" fill="#FFB6B6"/>
<path opacity="0.1" d="M1295.35 442.481L1243.28 322.055L1074.03 351.348L1062.64 493.033L1295.35 442.481Z" fill="black"/>
<path d="M1663.14 693.099C1663.14 693.099 1542.71 468.52 1519.93 445.736C1509.79 435.594 1493.85 435.453 1479.27 438.409L1311.63 380.641L1254.81 348.714L1251.06 409.454L1064.52 442.938C1065.55 405.896 1070.78 391.806 1070.78 391.806L1002.43 471.774L868.985 536.87L869.058 537.456C859.265 540.874 849.981 546.724 842.947 556.399C816.909 592.201 745.305 1028.34 745.305 1028.34L898.278 1060.89L919.096 930.244L934.08 1047.87L945.471 1267.57C945.471 1267.57 1153.77 1446.58 1254.67 1381.48C1355.57 1316.39 1479.25 1319.64 1479.25 1319.64L1482.33 1217.81C1484.53 1214.3 1485.76 1212.24 1485.76 1212.24L1482.5 851.007V754.887C1507.3 789.431 1537.22 819.139 1572.01 833.054C1685.92 878.621 1663.14 693.099 1663.14 693.099Z" fill="black"/>
<path d="M1140.97 372.536C1226.96 372.536 1296.67 302.826 1296.67 216.833C1296.67 130.84 1226.96 61.1294 1140.97 61.1294C1054.97 61.1294 985.264 130.84 985.264 216.833C985.264 302.826 1054.97 372.536 1140.97 372.536Z" fill="#FFB6B6"/>
<path d="M1252.66 260.836C1252.66 260.836 1266.2 213.448 1296.67 216.833C1327.13 220.218 1333.9 193.139 1327.13 179.599C1320.36 166.06 1306.82 98.3628 1306.82 98.3628C1306.82 98.3628 1313.59 50.9748 1272.97 44.2051C1232.36 37.4354 1218.82 30.6656 1212.05 17.1262C1205.28 3.58674 1103.73 -9.9527 1069.88 10.3565C1036.04 30.6656 1008.96 69.6315 985.264 80.6123C961.571 91.5931 941.262 111.902 954.801 145.751C968.34 179.599 987.976 245.8 987.976 245.8C987.976 245.8 1022.5 233.757 1029.27 254.066C1036.04 274.375 1008.96 247.297 1042.81 193.139C1076.65 138.981 1076.65 84.8234 1130.81 105.133C1184.97 125.442 1245.9 118.672 1239.13 159.29C1232.36 199.909 1252.66 260.836 1252.66 260.836Z" fill="#2F2E41"/>
<path d="M1243.14 1495.19H60.6462C27.2052 1495.19 0 1467.98 0 1434.55V806.396C0 772.958 27.2052 745.75 60.6462 745.75H1243.14C1276.58 745.75 1303.79 772.958 1303.79 806.396V1434.55C1303.79 1467.98 1276.58 1495.19 1243.14 1495.19Z" fill="#555555"/>
<path d="M1243.14 1495.19H60.6462C27.2052 1495.19 0 1467.98 0 1434.55V806.396C0 772.958 27.2052 745.75 60.6462 745.75H1243.14C1276.58 745.75 1303.79 772.958 1303.79 806.396V1434.55C1303.79 1467.98 1276.58 1495.19 1243.14 1495.19ZM60.6462 755.877C32.7907 755.877 10.1275 778.541 10.1275 806.396V1434.55C10.1275 1462.4 32.7907 1485.06 60.6462 1485.06H1243.14C1271 1485.06 1293.66 1462.4 1293.66 1434.55V806.396C1293.66 778.541 1271 755.877 1243.14 755.877H60.6462Z" fill="white"/>
<path d="M1151.88 821.707C1160.27 821.707 1167.07 814.905 1167.07 806.515C1167.07 798.125 1160.27 791.324 1151.88 791.324C1143.49 791.324 1136.69 798.125 1136.69 806.515C1136.69 814.905 1143.49 821.707 1151.88 821.707Z" fill="white"/>
<path d="M1192.39 821.707C1200.78 821.707 1207.58 814.905 1207.58 806.515C1207.58 798.125 1200.78 791.324 1192.39 791.324C1184 791.324 1177.2 798.125 1177.2 806.515C1177.2 814.905 1184 821.707 1192.39 821.707Z" fill="white"/>
<path d="M1232.9 821.707C1241.29 821.707 1248.09 814.905 1248.09 806.515C1248.09 798.125 1241.29 791.324 1232.9 791.324C1224.51 791.324 1217.71 798.125 1217.71 806.515C1217.71 814.905 1224.51 821.707 1232.9 821.707Z" fill="white"/>
<path d="M86.0836 1052.11C81.8952 1052.11 78.488 1055.52 78.488 1059.71C78.488 1061.75 79.2768 1063.64 80.7084 1065.03C82.1523 1066.51 84.0438 1067.3 86.0836 1067.3H1222.77C1226.96 1067.3 1230.37 1063.89 1230.37 1059.71C1230.37 1057.66 1229.58 1055.77 1228.15 1054.38C1226.7 1052.9 1224.81 1052.11 1222.77 1052.11H86.0836Z" fill="#E6E6E6"/>
<path d="M1080.99 1049.58V1069.83H86.0836C83.2986 1069.83 80.7667 1068.72 78.9438 1066.85C77.0699 1065.02 75.9561 1062.49 75.9561 1059.71C75.9561 1054.13 80.5135 1049.58 86.0835 1049.58H1080.99Z" fill="#68B82D"/>
<path d="M1210.11 1011.6H1108.84C1097.67 1011.6 1088.58 1002.52 1088.58 991.344C1088.58 980.173 1097.67 971.089 1108.84 971.089H1210.11C1221.28 971.089 1230.37 980.173 1230.37 991.344C1230.37 1002.52 1221.28 1011.6 1210.11 1011.6Z" fill="#E6E6E6"/>
<path d="M546.761 905.259H93.679C82.5106 905.259 73.4241 896.175 73.4241 885.004C73.4241 873.833 82.5106 864.749 93.679 864.749H546.761C557.929 864.749 567.016 873.833 567.016 885.004C567.016 896.175 557.929 905.259 546.761 905.259Z" fill="#E6E6E6"/>
<path d="M86.0836 1279.98C81.8952 1279.98 78.488 1283.39 78.488 1287.58C78.488 1289.62 79.2768 1291.51 80.7084 1292.9C82.1523 1294.38 84.0438 1295.17 86.0836 1295.17H1222.77C1226.96 1295.17 1230.37 1291.76 1230.37 1287.58C1230.37 1285.53 1229.58 1283.64 1228.15 1282.25C1226.7 1280.77 1224.81 1279.98 1222.77 1279.98H86.0836Z" fill="#E6E6E6"/>
<path d="M691.078 1277.45V1297.7H86.0836C83.2986 1297.7 80.7667 1296.59 78.9438 1294.72C77.0699 1292.89 75.9561 1290.36 75.9561 1287.58C75.9561 1282.01 80.5135 1277.45 86.0835 1277.45H691.078Z" fill="#68B82D"/>
<path d="M1210.11 1239.47H1108.84C1097.67 1239.47 1088.58 1230.39 1088.58 1219.22C1088.58 1208.04 1097.67 1198.96 1108.84 1198.96H1210.11C1221.28 1198.96 1230.37 1208.04 1230.37 1219.22C1230.37 1230.39 1221.28 1239.47 1210.11 1239.47Z" fill="#E6E6E6"/>
<path d="M1387.41 384.521C1474.99 384.521 1546 315.012 1546 229.269C1546 143.526 1474.99 74.0171 1387.41 74.0171C1299.82 74.0171 1228.82 143.526 1228.82 229.269C1228.82 315.012 1299.82 384.521 1387.41 384.521Z" fill="#68B82D"/>
<path d="M1441.23 150.959C1420.12 189.405 1399.01 227.851 1377.89 266.297C1364.44 242.521 1351.05 218.703 1337.56 194.946C1332.9 186.741 1320.23 194.121 1324.9 202.346C1340.54 229.886 1356.02 257.518 1371.65 285.058C1374.33 289.767 1381.67 289.876 1384.31 285.058C1407.51 242.825 1430.7 200.592 1453.89 158.359C1458.44 150.084 1445.78 142.677 1441.23 150.959Z" fill="white"/>
<path d="M1606.34 638.495L1448.33 562.908C1448.33 562.908 1441.98 512.317 1412.35 494.272C1407.31 482.254 1401.52 469.05 1396.25 458.589C1383.23 432.717 1402.76 383.896 1386.49 383.896C1370.21 383.896 1346.16 435.241 1347.43 448.991C1348.41 459.546 1357.13 477.974 1358.93 494.105C1339.09 501.589 1323.08 514.418 1312.55 524.632C1303.45 533.471 1300.06 546.659 1303.62 558.842C1313.94 594.146 1339.72 667.061 1376.72 667.061C1425.54 667.061 1438.56 657.297 1438.56 657.297C1438.56 657.297 1539.46 784.233 1614.32 793.997C1689.18 803.762 1606.34 638.495 1606.34 638.495Z" fill="#FFB6B6"/>
<g clip-path="url(#clip1_220_2)">
<path d="M1361.39 67.0415C1364.56 68.549 1367.78 69.8988 1371.01 71.2447C1375.46 73.0977 1379.87 74.9887 1384.24 77.0216C1384.77 77.2639 1385.31 77.5062 1385.86 77.7558C1386.44 78.061 1387.03 78.3662 1387.63 78.6807C1390.21 79.4153 1391.27 78.7622 1393.69 77.6192C1394.59 77.2071 1395.48 76.7954 1396.38 76.3841C1396.89 76.1444 1397.41 75.9047 1397.93 75.6578C1401.56 73.9808 1405.23 72.396 1408.9 70.7894C1410.03 70.2883 1410.03 70.2883 1411.18 69.7772C1414.97 68.1049 1418.76 66.4534 1422.57 64.8417C1423.25 64.5547 1423.92 64.2677 1424.62 63.972C1434.59 60.113 1442.88 60.1437 1452.88 63.914C1461.65 67.8804 1466.18 75.3658 1470.13 83.8087C1471.61 86.8194 1473.33 89.6966 1475.04 92.5849C1476.92 95.8151 1476.92 95.8151 1476.92 97.4257C1477.64 97.6661 1478.36 97.9065 1479.11 98.1542C1479.91 99.3507 1479.91 99.3507 1480.65 100.883C1480.93 101.433 1481.2 101.983 1481.49 102.55C1482.05 103.714 1482.62 104.879 1483.18 106.044C1483.6 106.87 1483.6 106.87 1484.02 107.713C1484.27 108.22 1484.51 108.726 1484.77 109.248C1486.46 111.687 1489.07 112.204 1491.87 112.752C1492.84 112.945 1492.84 112.945 1493.83 113.142C1494.87 113.343 1494.87 113.343 1495.93 113.547C1497.01 113.76 1497.01 113.76 1498.1 113.976C1500.39 114.428 1502.68 114.874 1504.97 115.32C1507.26 115.769 1509.55 116.22 1511.84 116.671C1513.26 116.951 1514.68 117.23 1516.11 117.508C1516.75 117.634 1517.4 117.761 1518.07 117.891C1518.92 118.057 1518.92 118.057 1519.79 118.226C1521.29 118.539 1522.78 118.896 1524.28 119.281C1524.28 119.762 1524.28 120.243 1524.28 120.738C1525.13 120.813 1525.99 120.888 1526.87 120.966C1533.42 121.816 1539.79 125.499 1544.17 130.437C1549.11 137.658 1549.51 147.229 1548.5 155.593C1548.29 157.368 1548.14 159.143 1547.98 160.923C1547.52 166.318 1547.03 171.708 1546.44 177.09C1546.37 177.707 1546.31 178.324 1546.24 178.96C1546.11 180.112 1545.98 181.263 1545.85 182.414C1544.85 188.558 1544.85 188.558 1546.28 194.259C1546.67 194.564 1547.05 194.869 1547.45 195.183C1549.46 196.922 1550.6 198.573 1551.96 200.875C1552.6 201.521 1553.25 202.167 1553.92 202.833C1555.6 204.518 1555.6 204.518 1555.6 205.975C1556.02 206.15 1556.44 206.326 1556.88 206.507C1558.83 207.607 1559.94 208.871 1561.38 210.573C1563.03 212.484 1564.66 214.346 1566.48 216.083C1567.99 217.631 1567.99 217.631 1568.71 219.816C1569.12 220.222 1569.53 220.628 1569.94 221.046C1570.5 221.602 1571.06 222.158 1571.63 222.73C1571.99 223.038 1572.35 223.347 1572.73 223.664C1577.37 228.446 1576.74 234.727 1576.69 240.968C1576.68 242.934 1576.73 244.892 1576.79 246.857C1576.87 254.338 1576.26 258.983 1571.15 264.721C1570.58 265.289 1570.02 265.856 1569.44 266.441C1568.68 267.311 1567.91 268.182 1567.15 269.054C1566.51 269.724 1565.87 270.395 1565.21 271.086C1562.64 273.773 1560.56 276.459 1558.52 279.555C1557.32 280.553 1556.11 281.53 1554.87 282.469C1554.63 282.95 1554.39 283.43 1554.14 283.926C1553.66 283.926 1553.18 283.926 1552.69 283.926C1552.69 284.407 1552.69 284.887 1552.69 285.383C1551.75 286.388 1550.77 287.353 1549.77 288.297C1549.13 288.943 1548.48 289.589 1547.82 290.255C1547.01 291.059 1546.21 291.864 1545.4 292.668C1545.19 298.005 1545.77 303.174 1546.4 308.468C1547.15 314.898 1547.86 321.327 1548.45 327.773C1548.51 328.412 1548.57 329.051 1548.64 329.709C1549.53 339.549 1548.88 349.357 1542.49 357.401C1537.99 362.212 1533.57 364.314 1527.25 365.81C1526.62 365.964 1525.98 366.117 1525.33 366.276C1518.41 367.933 1511.44 369.375 1504.46 370.781C1502.28 371.22 1500.11 371.664 1497.93 372.109C1496.54 372.391 1495.15 372.674 1493.76 372.955C1493.12 373.087 1492.47 373.219 1491.8 373.355C1491.2 373.475 1490.61 373.594 1490 373.718C1489.48 373.823 1488.95 373.929 1488.42 374.037C1487.12 374.262 1487.12 374.262 1485.66 374.262C1485.57 374.684 1485.49 375.106 1485.39 375.542C1484.92 377.218 1484.29 378.502 1483.43 380.01C1483.14 380.527 1482.84 381.043 1482.54 381.575C1482.23 382.107 1481.93 382.638 1481.61 383.186C1481.3 383.729 1480.99 384.272 1480.67 384.831C1479.91 386.166 1479.15 387.499 1478.38 388.832C1477.9 388.832 1477.42 388.832 1476.92 388.832C1476.71 389.367 1476.5 389.903 1476.29 390.454C1473.57 397.136 1469.86 403.299 1466.06 409.41C1465.36 410.542 1464.67 411.684 1463.99 412.827C1459.97 419.164 1454.67 422.624 1447.42 424.484C1437.91 426.274 1428.46 425.325 1420.1 420.158C1418.52 419.506 1416.92 418.884 1415.32 418.291C1412.71 417.323 1410.17 416.364 1407.71 415.059C1407.71 414.578 1407.71 414.097 1407.71 413.602C1407.18 413.51 1406.65 413.418 1406.09 413.323C1404.17 412.896 1402.6 412.315 1400.81 411.501C1400.22 411.237 1399.62 410.974 1399.01 410.702C1397.77 410.145 1396.53 409.583 1395.29 409.017C1394.69 408.755 1394.1 408.493 1393.48 408.223C1392.95 407.98 1392.41 407.736 1391.85 407.486C1388.9 406.684 1386.36 407.77 1383.62 408.934C1383.09 409.159 1382.56 409.383 1382.01 409.615C1381.19 409.965 1381.19 409.965 1380.35 410.323C1379.26 410.788 1378.16 411.251 1377.07 411.712C1376.59 411.917 1376.11 412.122 1375.61 412.334C1374.18 412.879 1372.77 413.262 1371.29 413.602C1371.29 414.082 1371.29 414.563 1371.29 415.059C1366.24 417.434 1361.24 419.746 1355.99 421.615C1355.02 421.995 1354.05 422.374 1353.07 422.753C1343.59 426.247 1334.88 426.18 1325.39 422.344C1324.15 421.409 1322.93 420.438 1321.75 419.43C1320.8 418.889 1320.8 418.889 1319.84 418.337C1311.83 413.296 1306.06 398.728 1302.08 390.289C1302.08 389.808 1302.08 389.327 1302.08 388.832C1301.6 388.832 1301.12 388.832 1300.62 388.832C1299.79 387.73 1299.79 387.73 1298.89 386.2C1298.56 385.651 1298.24 385.102 1297.9 384.536C1297.57 383.955 1297.23 383.375 1296.89 382.776C1296.55 382.204 1296.21 381.631 1295.85 381.042C1293.34 376.728 1293.34 376.728 1293.34 374.262C1292.65 374.142 1292.65 374.142 1291.96 374.02C1281.66 372.197 1271.39 370.224 1261.16 368.078C1259.97 367.831 1258.79 367.588 1257.61 367.349C1251.33 366.078 1245.52 364.851 1240.15 361.148C1239.51 360.743 1238.86 360.337 1238.2 359.919C1232.36 354.087 1229.98 346.355 1229.84 338.226C1229.9 333.201 1230.45 328.215 1230.96 323.22C1231.06 322.21 1231.16 321.199 1231.26 320.189C1231.87 314.018 1232.55 307.858 1233.36 301.709C1234.07 296.46 1234.07 296.46 1232.48 291.604C1232.01 291.143 1231.54 290.683 1231.05 290.209C1230.18 289.346 1229.33 288.469 1228.5 287.568C1228.5 287.087 1228.5 286.607 1228.5 286.111C1228.09 285.946 1227.69 285.781 1227.27 285.61C1223.76 283.62 1221.3 280.314 1218.72 277.269C1217.58 275.923 1216.42 274.596 1215.25 273.271C1212.89 270.575 1210.56 267.853 1208.24 265.121C1207.71 264.505 1207.71 264.505 1207.18 263.877C1203.69 259.762 1202.75 257.301 1202.65 251.962C1202.64 251.321 1202.63 250.68 1202.62 250.02C1202.6 248.661 1202.58 247.301 1202.57 245.942C1202.55 244.562 1202.52 243.183 1202.48 241.805C1202.05 227.977 1202.05 227.977 1207.33 222.093C1207.82 221.582 1208.32 221.071 1208.83 220.545C1209.67 219.419 1210.49 218.283 1211.29 217.13C1212.31 215.71 1212.31 215.71 1213.2 214.717C1213.68 214.717 1214.16 214.717 1214.66 214.717C1214.66 214.236 1214.66 213.755 1214.66 213.26C1215.14 213.26 1215.62 213.26 1216.11 213.26C1216.31 212.829 1216.52 212.398 1216.72 211.954C1218.7 208.211 1221.74 205.354 1224.95 202.651C1227.38 200.591 1228.99 198.492 1230.68 195.775C1231.45 195.14 1231.45 195.14 1232.22 194.492C1233.8 192.938 1233.8 192.938 1233.8 190.693C1233.72 189.816 1233.64 188.939 1233.55 188.035C1233.51 187.542 1233.47 187.049 1233.42 186.541C1233.26 184.759 1233.07 182.983 1232.87 181.205C1232.79 180.468 1232.7 179.731 1232.62 178.971C1232.25 175.697 1231.87 172.424 1231.48 169.151C1230.81 163.458 1230.22 157.794 1229.95 152.064C1229.92 151.448 1229.88 150.832 1229.84 150.198C1229.55 142.293 1230.91 134.885 1236.29 128.891C1241.62 123.832 1246.51 120.738 1254 120.738C1254 120.257 1254 119.777 1254 119.281C1254.67 119.149 1254.67 119.149 1255.36 119.014C1260.04 118.098 1264.72 117.175 1269.4 116.249C1271.15 115.904 1272.89 115.56 1274.64 115.219C1277.15 114.727 1279.66 114.23 1282.17 113.732C1282.95 113.58 1283.73 113.428 1284.54 113.272C1285.27 113.126 1286 112.98 1286.75 112.83C1287.71 112.641 1287.71 112.641 1288.69 112.448C1291.03 111.837 1292.83 111.272 1294.23 109.248C1294.48 108.742 1294.72 108.235 1294.98 107.713C1295.25 107.162 1295.53 106.612 1295.82 106.044C1296.23 105.181 1296.23 105.181 1296.66 104.301C1297.22 103.159 1297.78 102.019 1298.35 100.883C1298.59 100.378 1298.84 99.8718 1299.09 99.3507C1299.89 98.1542 1299.89 98.1542 1302.08 97.4257C1302.6 95.9807 1303.08 94.5206 1303.54 93.0546C1304.43 91.369 1305.34 89.7304 1306.31 88.0916C1306.84 87.1869 1307.37 86.282 1307.9 85.3768C1308.28 84.7256 1308.28 84.7256 1308.67 84.0613C1309.54 82.5407 1310.36 80.992 1311.18 79.4405C1316.32 70.3436 1321.72 64.6509 1332.04 61.774C1342.58 59.5916 1351.87 62.3981 1361.39 67.0415Z" fill="#85B73E"/>
<path d="M1361.39 67.0415C1364.56 68.549 1367.78 69.8988 1371.01 71.2447C1375.46 73.0977 1379.87 74.9887 1384.24 77.0216C1384.77 77.2639 1385.31 77.5062 1385.86 77.7558C1386.44 78.061 1387.03 78.3662 1387.63 78.6807C1390.21 79.4153 1391.27 78.7622 1393.69 77.6192C1394.59 77.2071 1395.48 76.7954 1396.38 76.3841C1396.89 76.1444 1397.41 75.9047 1397.93 75.6578C1401.56 73.9808 1405.23 72.396 1408.9 70.7894C1410.03 70.2883 1410.03 70.2883 1411.18 69.7772C1414.97 68.1049 1418.76 66.4534 1422.57 64.8417C1423.25 64.5547 1423.92 64.2677 1424.62 63.972C1434.59 60.113 1442.88 60.1437 1452.88 63.914C1461.65 67.8804 1466.18 75.3658 1470.13 83.8087C1471.61 86.8194 1473.33 89.6966 1475.04 92.5849C1476.92 95.8151 1476.92 95.8151 1476.92 97.4257C1477.64 97.6661 1478.36 97.9065 1479.11 98.1542C1479.91 99.3507 1479.91 99.3507 1480.65 100.883C1480.93 101.433 1481.2 101.983 1481.49 102.55C1482.05 103.714 1482.62 104.879 1483.18 106.044C1483.6 106.87 1483.6 106.87 1484.02 107.713C1484.27 108.22 1484.51 108.726 1484.77 109.248C1486.46 111.687 1489.07 112.204 1491.87 112.752C1492.84 112.945 1492.84 112.945 1493.83 113.142C1494.87 113.343 1494.87 113.343 1495.93 113.547C1497.01 113.76 1497.01 113.76 1498.1 113.976C1500.39 114.428 1502.68 114.874 1504.97 115.32C1507.26 115.769 1509.55 116.22 1511.84 116.671C1513.26 116.951 1514.68 117.23 1516.11 117.508C1516.75 117.634 1517.4 117.761 1518.07 117.891C1518.92 118.057 1518.92 118.057 1519.79 118.226C1521.29 118.539 1522.78 118.896 1524.28 119.281C1524.28 119.762 1524.28 120.243 1524.28 120.738C1525.13 120.813 1525.99 120.888 1526.87 120.966C1533.42 121.816 1539.79 125.499 1544.17 130.437C1549.11 137.658 1549.51 147.229 1548.5 155.593C1548.29 157.368 1548.14 159.143 1547.98 160.923C1547.52 166.318 1547.03 171.708 1546.44 177.09C1546.37 177.707 1546.31 178.324 1546.24 178.96C1546.11 180.112 1545.98 181.263 1545.85 182.414C1544.85 188.558 1544.85 188.558 1546.28 194.259C1546.67 194.564 1547.05 194.869 1547.45 195.183C1549.46 196.922 1550.6 198.573 1551.96 200.875C1552.6 201.521 1553.25 202.167 1553.92 202.833C1555.6 204.518 1555.6 204.518 1555.6 205.975C1556.02 206.15 1556.44 206.326 1556.88 206.507C1558.83 207.607 1559.94 208.871 1561.38 210.573C1563.03 212.484 1564.66 214.346 1566.48 216.083C1567.99 217.631 1567.99 217.631 1568.71 219.816C1569.12 220.222 1569.53 220.628 1569.94 221.046C1570.5 221.602 1571.06 222.158 1571.63 222.73C1571.99 223.038 1572.35 223.347 1572.73 223.664C1577.37 228.446 1576.74 234.727 1576.69 240.968C1576.68 242.934 1576.73 244.892 1576.79 246.857C1576.87 254.338 1576.26 258.983 1571.15 264.721C1570.58 265.289 1570.02 265.856 1569.44 266.441C1568.68 267.311 1567.91 268.182 1567.15 269.054C1566.51 269.724 1565.87 270.395 1565.21 271.086C1562.64 273.773 1560.56 276.459 1558.52 279.555C1557.32 280.553 1556.11 281.53 1554.87 282.469C1554.63 282.95 1554.39 283.43 1554.14 283.926C1553.66 283.926 1553.18 283.926 1552.69 283.926C1552.69 284.407 1552.69 284.887 1552.69 285.383C1551.75 286.388 1550.77 287.353 1549.77 288.297C1549.13 288.943 1548.48 289.589 1547.82 290.255C1547.01 291.059 1546.21 291.864 1545.4 292.668C1545.19 298.005 1545.77 303.174 1546.4 308.468C1547.15 314.898 1547.86 321.327 1548.45 327.773C1548.51 328.412 1548.57 329.051 1548.64 329.709C1549.53 339.549 1548.88 349.357 1542.49 357.401C1537.99 362.212 1533.57 364.314 1527.25 365.81C1526.62 365.964 1525.98 366.117 1525.33 366.276C1518.41 367.933 1511.44 369.375 1504.46 370.781C1502.28 371.22 1500.11 371.664 1497.93 372.109C1496.54 372.391 1495.15 372.674 1493.76 372.955C1493.12 373.087 1492.47 373.219 1491.8 373.355C1491.2 373.475 1490.61 373.594 1490 373.718C1489.48 373.823 1488.95 373.929 1488.42 374.037C1487.12 374.262 1487.12 374.262 1485.66 374.262C1485.57 374.684 1485.49 375.106 1485.39 375.542C1484.92 377.218 1484.29 378.502 1483.43 380.01C1483.14 380.527 1482.84 381.043 1482.54 381.575C1482.23 382.107 1481.93 382.638 1481.61 383.186C1481.3 383.729 1480.99 384.272 1480.67 384.831C1479.91 386.166 1479.15 387.499 1478.38 388.832C1477.9 388.832 1477.42 388.832 1476.92 388.832C1476.71 389.367 1476.5 389.903 1476.29 390.454C1473.57 397.136 1469.86 403.299 1466.06 409.41C1465.36 410.542 1464.67 411.684 1463.99 412.827C1459.97 419.164 1454.67 422.624 1447.42 424.484C1437.91 426.274 1428.46 425.325 1420.1 420.158C1418.52 419.506 1416.92 418.884 1415.32 418.291C1412.71 417.323 1410.17 416.364 1407.71 415.059C1407.71 414.578 1407.71 414.097 1407.71 413.602C1407.18 413.51 1406.65 413.418 1406.09 413.323C1404.17 412.896 1402.6 412.315 1400.81 411.501C1400.22 411.237 1399.62 410.974 1399.01 410.702C1397.77 410.145 1396.53 409.583 1395.29 409.017C1394.69 408.755 1394.1 408.493 1393.48 408.223C1392.95 407.98 1392.41 407.736 1391.85 407.486C1388.9 406.684 1386.36 407.77 1383.62 408.934C1383.09 409.159 1382.56 409.383 1382.01 409.615C1381.19 409.965 1381.19 409.965 1380.35 410.323C1379.26 410.788 1378.16 411.251 1377.07 411.712C1376.59 411.917 1376.11 412.122 1375.61 412.334C1374.18 412.879 1372.77 413.262 1371.29 413.602C1371.29 414.082 1371.29 414.563 1371.29 415.059C1366.24 417.434 1361.24 419.746 1355.99 421.615C1355.02 421.995 1354.05 422.374 1353.07 422.753C1343.59 426.247 1334.88 426.18 1325.39 422.344C1324.15 421.409 1322.93 420.438 1321.75 419.43C1320.8 418.889 1320.8 418.889 1319.84 418.337C1311.83 413.296 1306.06 398.728 1302.08 390.289C1302.08 389.808 1302.08 389.327 1302.08 388.832C1301.6 388.832 1301.12 388.832 1300.62 388.832C1299.79 387.73 1299.79 387.73 1298.89 386.2C1298.56 385.651 1298.24 385.102 1297.9 384.536C1297.57 383.955 1297.23 383.375 1296.89 382.776C1296.55 382.204 1296.21 381.631 1295.85 381.042C1293.34 376.728 1293.34 376.728 1293.34 374.262C1292.65 374.142 1292.65 374.142 1291.96 374.02C1281.66 372.197 1271.39 370.224 1261.16 368.078C1259.97 367.831 1258.79 367.588 1257.61 367.349C1251.33 366.078 1245.52 364.851 1240.15 361.148C1239.51 360.743 1238.86 360.337 1238.2 359.919C1232.36 354.087 1229.98 346.355 1229.84 338.226C1229.9 333.201 1230.45 328.215 1230.96 323.22C1231.06 322.21 1231.16 321.199 1231.26 320.189C1231.87 314.018 1232.55 307.858 1233.36 301.709C1234.07 296.46 1234.07 296.46 1232.48 291.604C1232.01 291.143 1231.54 290.683 1231.05 290.209C1230.18 289.346 1229.33 288.469 1228.5 287.568C1228.5 287.087 1228.5 286.607 1228.5 286.111C1228.09 285.946 1227.69 285.781 1227.27 285.61C1223.76 283.62 1221.3 280.314 1218.72 277.269C1217.58 275.923 1216.42 274.596 1215.25 273.271C1212.89 270.575 1210.56 267.853 1208.24 265.121C1207.71 264.505 1207.71 264.505 1207.18 263.877C1203.69 259.762 1202.75 257.301 1202.65 251.962C1202.64 251.321 1202.63 250.68 1202.62 250.02C1202.6 248.661 1202.58 247.301 1202.57 245.942C1202.55 244.562 1202.52 243.183 1202.48 241.805C1202.05 227.977 1202.05 227.977 1207.33 222.093C1207.82 221.582 1208.32 221.071 1208.83 220.545C1209.67 219.419 1210.49 218.283 1211.29 217.13C1212.31 215.71 1212.31 215.71 1213.2 214.717C1213.68 214.717 1214.16 214.717 1214.66 214.717C1214.66 214.236 1214.66 213.755 1214.66 213.26C1215.14 213.26 1215.62 213.26 1216.11 213.26C1216.31 212.829 1216.52 212.398 1216.72 211.954C1218.7 208.211 1221.74 205.354 1224.95 202.651C1227.38 200.591 1228.99 198.492 1230.68 195.775C1231.45 195.14 1231.45 195.14 1232.22 194.492C1233.8 192.938 1233.8 192.938 1233.8 190.693C1233.72 189.816 1233.64 188.939 1233.55 188.035C1233.51 187.542 1233.47 187.049 1233.42 186.541C1233.26 184.759 1233.07 182.983 1232.87 181.205C1232.79 180.468 1232.7 179.731 1232.62 178.971C1232.25 175.697 1231.87 172.424 1231.48 169.151C1230.81 163.458 1230.22 157.794 1229.95 152.064C1229.92 151.448 1229.88 150.832 1229.84 150.198C1229.55 142.293 1230.91 134.885 1236.29 128.891C1241.62 123.832 1246.51 120.738 1254 120.738C1254 120.257 1254 119.777 1254 119.281C1254.67 119.149 1254.67 119.149 1255.36 119.014C1260.04 118.098 1264.72 117.175 1269.4 116.249C1271.15 115.904 1272.89 115.56 1274.64 115.219C1277.15 114.727 1279.66 114.23 1282.17 113.732C1282.95 113.58 1283.73 113.428 1284.54 113.272C1285.27 113.126 1286 112.98 1286.75 112.83C1287.71 112.641 1287.71 112.641 1288.69 112.448C1291.03 111.837 1292.83 111.272 1294.23 109.248C1294.48 108.742 1294.72 108.235 1294.98 107.713C1295.25 107.162 1295.53 106.612 1295.82 106.044C1296.23 105.181 1296.23 105.181 1296.66 104.301C1297.22 103.159 1297.78 102.019 1298.35 100.883C1298.59 100.378 1298.84 99.8718 1299.09 99.3507C1299.89 98.1542 1299.89 98.1542 1302.08 97.4257C1302.6 95.9807 1303.08 94.5206 1303.54 93.0546C1304.43 91.369 1305.34 89.7304 1306.31 88.0916C1306.84 87.1869 1307.37 86.282 1307.9 85.3768C1308.28 84.7256 1308.28 84.7256 1308.67 84.0613C1309.54 82.5407 1310.36 80.992 1311.18 79.4405C1316.32 70.3436 1321.72 64.6509 1332.04 61.774C1342.58 59.5916 1351.87 62.3981 1361.39 67.0415ZM1339.23 89.412C1339.23 89.8929 1339.23 90.3737 1339.23 90.8691C1338.51 91.1095 1337.79 91.3499 1337.05 91.5976C1335.25 94.059 1334.86 95.0257 1334.86 98.1542C1334.38 98.1542 1333.9 98.1542 1333.4 98.1542C1332.22 100.384 1331.03 102.615 1329.85 104.847C1329.52 105.477 1329.18 106.107 1328.84 106.756C1328.51 107.368 1328.19 107.981 1327.85 108.612C1327.41 109.454 1327.41 109.454 1326.95 110.312C1326.07 112.015 1326.07 112.015 1325.42 113.983C1325.17 114.53 1324.92 115.076 1324.66 115.639C1323.94 115.879 1323.22 116.119 1322.48 116.367C1319.72 120.481 1315.19 127.289 1315.19 132.394C1314.71 132.394 1314.23 132.394 1313.73 132.394C1313.5 133.068 1313.5 133.068 1313.27 133.755C1311.19 137.013 1306.37 137.369 1302.81 138.223C1300.35 138.676 1297.9 139.061 1295.43 139.392C1293.5 139.658 1291.6 140.005 1289.69 140.408C1289.69 140.889 1289.69 141.37 1289.69 141.865C1289.26 141.888 1288.82 141.91 1288.37 141.933C1281.94 142.381 1275.78 143.768 1269.52 145.189C1268.44 145.432 1267.35 145.674 1266.26 145.916C1263.63 146.503 1261 147.097 1258.37 147.693C1258.14 153.357 1258.76 158.805 1259.53 164.411C1260.64 172.558 1261.58 180.699 1262.19 188.9C1262.25 189.67 1262.31 190.439 1262.37 191.232C1262.51 193.232 1262.63 195.231 1262.74 197.232C1262.8 198.176 1262.86 199.12 1262.92 200.092C1262.7 202.769 1262.09 203.705 1260.32 205.701C1259.53 206.624 1259.53 206.624 1258.72 207.565C1258.12 208.242 1257.53 208.92 1256.91 209.617C1255.89 210.823 1254.87 212.035 1253.86 213.248C1252.82 214.475 1251.78 215.697 1250.74 216.917C1249.69 218.152 1248.65 219.391 1247.62 220.644C1245.8 222.847 1243.94 224.723 1241.75 226.555C1238.03 229.71 1235.16 233.499 1232.14 237.301C1230.7 239.015 1229.24 240.708 1227.77 242.4C1228.95 245.314 1231 247.358 1233.14 249.594C1235.82 252.389 1238.04 255.166 1240.15 258.428C1241.98 260.493 1241.98 260.493 1243.8 262.07C1244.28 262.07 1244.76 262.07 1245.25 262.07C1245.41 262.462 1245.57 262.853 1245.74 263.257C1247.04 265.569 1248.78 267.391 1250.58 269.31C1250.93 269.683 1251.27 270.056 1251.63 270.441C1254.33 273.355 1257.11 276.186 1260.01 278.917C1261.28 280.283 1261.28 280.283 1262.01 282.469C1262.49 282.709 1262.97 282.95 1263.47 283.197C1263.9 285.127 1264.01 287.052 1264.2 289.025C1263.71 289.025 1263.23 289.025 1262.74 289.025C1262.68 289.68 1262.63 290.335 1262.57 291.01C1262.31 294.098 1262.05 297.185 1261.78 300.272C1261.73 300.831 1261.69 301.39 1261.64 301.966C1260.93 310.091 1260.1 318.188 1259.03 326.275C1258.53 330.163 1258.13 333.915 1258.37 337.836C1260.01 339.482 1260.6 339.585 1262.82 340.002C1263.48 340.128 1264.13 340.254 1264.8 340.384C1265.9 340.587 1265.9 340.587 1267.02 340.795C1268.65 341.11 1270.28 341.426 1271.91 341.743C1272.85 341.925 1273.79 342.107 1274.76 342.294C1280.81 343.472 1286.84 344.714 1292.87 345.947C1295.05 346.393 1297.24 346.837 1299.42 347.281C1300.78 347.559 1302.15 347.837 1303.51 348.115C1304.14 348.243 1304.77 348.371 1305.42 348.503C1306.01 348.623 1306.59 348.742 1307.19 348.865C1307.7 348.969 1308.21 349.073 1308.73 349.18C1310.09 349.492 1310.09 349.492 1312.28 350.221C1313.14 352.087 1313.14 352.087 1313.73 353.863C1314.22 353.863 1314.7 353.863 1315.19 353.863C1315.42 354.675 1315.64 355.486 1315.87 356.322C1316.52 358.813 1316.52 358.813 1317.38 360.42C1317.86 360.42 1318.34 360.42 1318.83 360.42C1318.92 360.961 1319.01 361.502 1319.11 362.059C1319.64 364.395 1320.21 366.232 1322 367.877C1323.63 369.614 1324.63 371.52 1325.78 373.601C1326.02 374.03 1326.26 374.458 1326.5 374.899C1327 375.802 1327.5 376.706 1328 377.611C1328.76 378.994 1329.52 380.375 1330.29 381.755C1334.03 388.509 1334.03 388.509 1334.86 391.018C1335.34 391.018 1335.82 391.018 1336.32 391.018C1336.39 391.558 1336.47 392.099 1336.55 392.657C1337.08 394.784 1337.82 395.922 1339.23 397.574C1343.54 396.292 1347.55 394.371 1351.62 392.475C1351.62 391.994 1351.62 391.513 1351.62 391.018C1352.12 390.938 1352.62 390.859 1353.14 390.778C1355.6 390.211 1357.73 389.315 1360.04 388.3C1360.49 388.101 1360.95 387.902 1361.42 387.697C1362.87 387.062 1364.33 386.422 1365.78 385.781C1366.73 385.365 1367.68 384.949 1368.63 384.533C1369.33 384.226 1369.33 384.226 1370.05 383.912C1370.99 383.498 1371.94 383.085 1372.88 382.673C1375.25 381.643 1377.6 380.601 1379.94 379.533C1380.85 379.13 1381.75 378.726 1382.65 378.323C1383.44 377.962 1384.24 377.601 1385.05 377.229C1388.3 376.108 1390.65 376.052 1393.85 377.275C1394.59 377.648 1395.34 378.021 1396.1 378.405C1399.22 379.917 1402.32 381.303 1405.57 382.503C1410.6 384.377 1415.45 386.604 1420.31 388.871C1420.91 389.148 1421.51 389.426 1422.13 389.711C1422.94 390.089 1422.94 390.089 1423.76 390.473C1425.28 391.147 1425.28 391.147 1427.38 391.018C1427.38 391.498 1427.38 391.979 1427.38 392.475C1429.15 393.349 1430.93 394.212 1432.71 395.07C1433.21 395.319 1433.72 395.569 1434.23 395.825C1437.25 397.388 1437.25 397.388 1440.5 396.846C1441.48 395.24 1441.48 395.24 1442.36 393.203C1444.5 388.737 1446.93 384.515 1449.46 380.266C1451.62 376.643 1453.67 372.98 1455.61 369.236C1456.52 367.705 1456.52 367.705 1457.73 366.584C1459.04 365.402 1459.04 365.402 1458.71 362.605C1459.19 362.605 1459.67 362.605 1460.17 362.605C1460.59 361.749 1461.01 360.892 1461.44 360.01C1462.86 357.168 1464.4 354.425 1465.99 351.678C1466.23 351.197 1466.47 350.716 1466.72 350.221C1468.38 349.7 1468.38 349.7 1470.58 349.225C1471.39 349.047 1472.2 348.87 1473.04 348.687C1473.91 348.502 1474.79 348.317 1475.69 348.126C1476.59 347.932 1477.48 347.738 1478.41 347.539C1485.91 345.925 1493.43 344.405 1500.96 342.935C1504.29 342.286 1507.61 341.633 1510.93 340.978C1512.14 340.743 1512.14 340.743 1513.38 340.504C1514.49 340.283 1514.49 340.283 1515.63 340.058C1516.3 339.928 1516.97 339.798 1517.65 339.664C1519.16 339.437 1519.16 339.437 1519.9 338.564C1520.39 329.883 1519.57 321.461 1518.35 312.878C1516.83 302.22 1515.67 291.796 1516.26 281.012C1516.7 280.806 1517.15 280.6 1517.6 280.388C1520.29 278.963 1522.27 276.907 1523.74 274.25C1525.36 271.718 1527.35 269.825 1529.51 267.762C1530.96 266.378 1532.36 264.981 1533.75 263.527C1533.75 263.046 1533.75 262.566 1533.75 262.07C1534.17 261.89 1534.59 261.71 1535.02 261.524C1537.48 260.159 1539.11 258.539 1540.47 256.074C1542.42 253.029 1544.99 250.616 1547.57 248.095C1549.93 245.746 1549.93 245.746 1550.49 242.597C1549.58 240.489 1548.43 238.968 1546.86 237.301C1546.38 237.301 1545.9 237.301 1545.4 237.301C1545.24 236.91 1545.07 236.519 1544.9 236.117C1542.89 232.484 1540.29 229.956 1537.09 227.386C1535.3 225.821 1533.82 224.028 1532.28 222.224C1530.62 220.295 1528.91 218.417 1527.19 216.538C1524.6 213.698 1522.02 210.857 1519.52 207.935C1518.61 206.894 1517.65 205.904 1516.67 204.927C1513.96 200.484 1515.81 193.482 1516.46 188.516C1516.66 186.97 1516.86 185.424 1517.05 183.879C1517.36 181.481 1517.67 179.084 1517.98 176.687C1519.23 167.023 1520.28 157.435 1520.63 147.693C1517.46 146.974 1514.29 146.261 1511.11 145.555C1510.04 145.314 1508.96 145.072 1507.88 144.827C1501.72 143.428 1495.65 142.191 1489.31 141.865C1489.31 141.384 1489.31 140.904 1489.31 140.408C1485.99 139.601 1482.74 138.905 1479.33 138.587C1476.65 138.327 1474.37 137.652 1471.82 136.766C1470.97 136.766 1470.11 136.766 1469.23 136.766C1466.72 136.037 1466.72 136.037 1465.59 134.372C1464.67 132.523 1463.84 130.674 1463.08 128.752C1462.6 128.752 1462.12 128.752 1461.62 128.752C1461.45 128.156 1461.45 128.156 1461.27 127.548C1459.94 123.243 1458.1 119.501 1455.79 115.639C1455.31 115.639 1454.83 115.639 1454.34 115.639C1454.15 115.123 1453.96 114.607 1453.76 114.076C1452.83 111.867 1451.7 109.907 1450.47 107.853C1448.46 104.468 1446.63 101.048 1444.91 97.5139C1444.02 95.7239 1443 94.0275 1441.95 92.3261C1441.46 91.36 1440.97 90.3905 1440.5 89.412C1436.49 89.8567 1433.14 91.243 1429.48 92.827C1428.87 93.0872 1428.26 93.3475 1427.63 93.6156C1423.46 95.4075 1419.4 97.3268 1415.39 99.4462C1413.36 100.425 1411.32 101.126 1409.17 101.797C1409.17 102.278 1409.17 102.758 1409.17 103.254C1408.7 103.313 1408.23 103.372 1407.75 103.433C1404.09 104.338 1400.79 106.119 1397.41 107.774C1393.81 109.455 1390.58 110.692 1386.59 109.81C1383.13 108.547 1379.8 107.013 1376.48 105.439C1374.71 104.616 1372.93 103.798 1371.16 102.981C1369.99 102.431 1369.99 102.431 1368.79 101.871C1367.03 100.973 1367.03 100.973 1365.46 101.068C1365.46 100.587 1365.46 100.107 1365.46 99.6113C1364.26 99.6113 1363.05 99.6113 1361.82 99.6113C1361.82 99.1304 1361.82 98.6496 1361.82 98.1542C1360.85 98.1542 1359.89 98.1542 1358.9 98.1542C1358.9 97.6734 1358.9 97.1926 1358.9 96.6972C1358.48 96.5283 1358.05 96.3594 1357.61 96.1853C1355.67 95.4163 1353.74 94.6453 1351.8 93.8742C1351.13 93.6084 1350.46 93.3427 1349.77 93.0689C1349.12 92.8106 1348.47 92.5523 1347.8 92.2863C1347.21 92.0497 1346.61 91.8132 1346 91.5695C1344.33 90.8691 1344.33 90.8691 1342.79 90.052C1341.34 89.2585 1341.34 89.2585 1339.23 89.412Z" fill="#C5FA7B"/>
<path d="M1442.68 196.504C1445.66 197.706 1447.77 199.836 1450.06 202.013C1452.71 204.653 1452.71 204.653 1455.79 206.703C1455.39 209.512 1454.2 210.676 1452.15 212.577C1449.72 214.924 1447.52 217.309 1445.41 219.953C1442.44 223.674 1439.25 227.133 1435.98 230.597C1433.56 233.177 1431.27 235.81 1429.07 238.576C1426.38 241.939 1423.45 244.915 1420.36 247.913C1418.22 250.121 1416.4 252.492 1414.61 254.993C1413.54 256.242 1413.54 256.242 1411.36 256.971C1411.05 257.578 1411.05 257.578 1410.74 258.197C1409.54 260.608 1407.69 262.372 1405.85 264.301C1403.09 267.227 1400.43 270.174 1397.92 273.317C1394.99 276.969 1391.85 280.366 1388.64 283.769C1385.57 287.044 1382.72 290.433 1379.96 293.974C1378.57 295.582 1378.57 295.582 1375.66 297.768C1357.63 279.737 1339.6 261.706 1321.02 243.129C1322.65 239.859 1324.58 237.819 1327.12 235.252C1327.54 234.807 1327.96 234.363 1328.4 233.904C1329.01 233.28 1329.01 233.28 1329.64 232.642C1330.01 232.26 1330.39 231.878 1330.77 231.485C1331.95 230.744 1331.95 230.744 1333.23 230.831C1335.57 231.752 1337.05 233.403 1338.76 235.178C1339.14 235.563 1339.52 235.948 1339.91 236.345C1340.73 237.18 1341.55 238.018 1342.37 238.858C1343.66 240.185 1344.96 241.505 1346.26 242.823C1349.96 246.571 1353.65 250.333 1357.33 254.1C1359.59 256.404 1361.85 258.699 1364.12 260.989C1364.98 261.865 1365.84 262.744 1366.7 263.626C1367.89 264.858 1369.1 266.078 1370.31 267.295C1370.66 267.665 1371.01 268.034 1371.37 268.415C1372.46 269.538 1372.46 269.538 1374.2 270.812C1376.45 270.738 1377 270.189 1378.65 268.624C1379.18 268.009 1379.71 267.394 1380.26 266.76C1380.84 266.094 1381.41 265.428 1382.01 264.742C1382.56 264.101 1383.11 263.46 1383.67 262.799C1384.48 261.887 1385.28 260.977 1386.09 260.067C1387.66 258.262 1389.22 256.446 1390.77 254.623C1394.84 249.861 1398.94 245.159 1403.17 240.545C1405.03 238.508 1406.84 236.439 1408.65 234.358C1410.52 232.223 1412.4 230.11 1414.29 227.995C1415.65 226.463 1416.98 224.917 1418.32 223.368C1419.95 221.505 1421.62 219.728 1423.38 217.995C1426.87 214.549 1430.01 210.812 1433.19 207.082C1433.57 206.63 1433.96 206.178 1434.36 205.713C1435.13 204.811 1435.9 203.909 1436.66 203.005C1438.59 200.745 1440.54 198.568 1442.68 196.504Z" fill="#FBFEFE"/>
<path d="M1324.66 64.6426C1325.38 65.0032 1325.38 65.0032 1326.12 65.3711C1325.59 65.7768 1325.07 66.1825 1324.53 66.6005C1318.92 71.2102 1313.89 76.8292 1310.85 83.4645C1309.92 85.392 1308.86 87.2065 1307.77 89.0479C1305.98 92.0757 1304.23 95.1185 1302.52 98.1867C1301.68 99.685 1300.83 101.179 1299.99 102.673C1299.04 104.354 1298.12 106.039 1297.23 107.75C1296.87 108.4 1296.52 109.05 1296.16 109.719C1295.87 110.274 1295.58 110.828 1295.29 111.398C1293.49 113.347 1291.47 113.669 1288.96 114.182C1288.32 114.319 1287.67 114.455 1287 114.596C1284.71 115.065 1282.42 115.513 1280.13 115.957C1271.91 117.571 1271.91 117.571 1263.74 119.429C1261.69 119.914 1259.64 120.35 1257.57 120.772C1248.84 122.613 1241.8 124.349 1236.19 131.803C1229.23 143.493 1232.34 158.115 1233.96 170.869C1234.22 172.955 1234.49 175.041 1234.74 177.128C1234.9 178.413 1235.06 179.699 1235.23 180.983C1235.61 184.06 1235.88 187.126 1235.98 190.225C1236.01 191.095 1236.01 191.095 1236.04 191.982C1235.54 195.118 1232.98 196.73 1230.68 198.689C1230.01 199.479 1229.36 200.282 1228.73 201.103C1227.2 202.872 1226.28 203.721 1224.13 204.518C1224.86 202.332 1224.86 202.332 1226.59 200.966C1228.58 199.355 1229.42 197.97 1230.68 195.775C1231.19 195.357 1231.69 194.938 1232.21 194.506C1233.8 192.941 1233.8 192.941 1233.8 190.693C1233.68 189.377 1233.68 189.377 1233.55 188.035C1233.51 187.542 1233.47 187.049 1233.42 186.541C1233.26 184.759 1233.07 182.983 1232.87 181.205C1232.75 180.099 1232.75 180.099 1232.62 178.971C1232.25 175.697 1231.87 172.424 1231.48 169.151C1230.81 163.459 1230.22 157.794 1229.96 152.064C1229.92 151.448 1229.88 150.832 1229.84 150.198C1229.55 142.293 1230.91 134.885 1236.29 128.891C1241.62 123.833 1246.51 120.738 1254 120.738C1254 120.257 1254 119.777 1254 119.281C1254.67 119.149 1254.67 119.149 1255.36 119.014C1260.04 118.098 1264.72 117.175 1269.4 116.249C1271.15 115.904 1272.89 115.56 1274.64 115.219C1277.15 114.727 1279.66 114.23 1282.17 113.732C1282.95 113.58 1283.73 113.428 1284.54 113.272C1285.27 113.126 1286 112.98 1286.75 112.83C1287.71 112.641 1287.71 112.641 1288.69 112.448C1291.03 111.837 1292.83 111.272 1294.23 109.248C1294.6 108.488 1294.6 108.488 1294.98 107.713C1295.25 107.162 1295.53 106.612 1295.82 106.044C1296.09 105.469 1296.37 104.894 1296.66 104.301C1297.22 103.159 1297.78 102.019 1298.35 100.883C1298.59 100.378 1298.84 99.8719 1299.09 99.3508C1299.89 98.1543 1299.89 98.1543 1302.08 97.4258C1302.6 95.9807 1303.08 94.5207 1303.54 93.0547C1304.43 91.3691 1305.34 89.7305 1306.31 88.0917C1306.84 87.187 1307.37 86.282 1307.9 85.3768C1308.15 84.9427 1308.41 84.5086 1308.67 84.0614C1309.54 82.5408 1310.36 80.9921 1311.18 79.4406C1318.11 67.0402 1318.11 67.0402 1324.66 64.6426Z" fill="#BFF5B1"/>
<path d="M1575.27 253.328C1575.51 253.328 1575.75 253.328 1576 253.328C1576.34 257.138 1575.57 258.818 1573.22 261.797C1572.63 262.552 1572.04 263.307 1571.42 264.085C1568.83 267.228 1566.05 270.203 1563.24 273.152C1561.43 275.179 1560.01 277.295 1558.52 279.555C1557.32 280.553 1556.11 281.53 1554.87 282.469C1554.51 283.19 1554.51 283.19 1554.14 283.926C1553.66 283.926 1553.18 283.926 1552.69 283.926C1552.69 284.407 1552.69 284.887 1552.69 285.383C1551.75 286.388 1550.77 287.353 1549.77 288.297C1549.13 288.943 1548.48 289.589 1547.82 290.255C1547.01 291.059 1546.21 291.864 1545.4 292.668C1545.19 298.005 1545.77 303.174 1546.4 308.468C1547.15 314.898 1547.86 321.328 1548.45 327.773C1548.51 328.412 1548.57 329.051 1548.64 329.709C1549.53 339.549 1548.88 349.357 1542.49 357.401C1535.97 364.376 1528.18 365.827 1519.18 367.705C1518.05 367.945 1516.92 368.186 1515.79 368.427C1511.96 369.244 1508.12 370.048 1504.29 370.847C1503.65 370.98 1503.01 371.114 1502.35 371.251C1500.51 371.634 1498.67 372.011 1496.82 372.386C1495.99 372.56 1495.99 372.56 1495.14 372.738C1492.43 373.283 1489.89 373.671 1487.12 373.533C1489.2 372.145 1490.18 371.785 1492.55 371.348C1493.18 371.227 1493.81 371.107 1494.46 370.983C1495.12 370.863 1495.78 370.743 1496.46 370.619C1500.5 369.868 1504.35 369.047 1508.25 367.705C1509.96 367.331 1511.67 366.983 1513.39 366.658C1529.47 363.984 1529.47 363.984 1542.31 354.637C1546.84 347.621 1547.24 339.545 1546.31 331.527C1546.02 328.753 1545.83 325.971 1545.63 323.19C1545.09 316.077 1544.43 309.003 1543.48 301.934C1543.4 301.04 1543.31 300.146 1543.22 299.225C1543.15 298.699 1543.07 298.173 1543 297.631C1542.79 295.111 1542.78 293.372 1544.14 291.185C1545.45 289.678 1546.82 288.304 1548.27 286.931C1549.28 285.919 1550.29 284.905 1551.3 283.889C1551.79 283.4 1552.28 282.911 1552.78 282.407C1554.59 280.558 1556.18 278.619 1557.79 276.595C1559.49 274.457 1561.18 272.464 1563.16 270.585C1565.67 268.149 1567.85 265.483 1570.04 262.753C1570.39 262.323 1570.74 261.893 1571.1 261.45C1573.15 258.848 1574.41 256.586 1575.27 253.328Z" fill="#BFF5AF"/>
<path d="M1203 254.785C1203.72 255.867 1203.72 255.867 1204.46 256.971C1205.51 258.418 1206.58 259.859 1207.64 261.296C1208.49 262.433 1208.49 262.433 1209.35 263.593C1210.79 265.424 1212.26 267.009 1213.93 268.627C1215.19 270.046 1216.42 271.485 1217.66 272.927C1219.26 274.72 1220.97 276.397 1222.67 278.098C1224.34 279.884 1226 281.681 1227.64 283.496C1229.17 285.195 1230.71 286.863 1232.34 288.473C1232.8 288.941 1233.26 289.409 1233.73 289.891C1234.14 290.276 1234.54 290.662 1234.95 291.06C1237.55 296.083 1235.3 303.556 1234.58 308.955C1233.5 317.078 1232.59 325.182 1232.23 333.374C1232.2 334.081 1232.16 334.789 1232.12 335.518C1231.98 339.769 1232.4 343.648 1233.28 347.811C1233.6 349.492 1233.6 349.492 1233.6 351.678C1234.08 351.678 1234.56 351.678 1235.05 351.678C1235.99 352.742 1235.99 352.742 1236.97 354.136C1237.29 354.593 1237.62 355.049 1237.95 355.52C1238.7 356.777 1238.7 356.777 1238.7 358.234C1239.1 358.415 1239.51 358.595 1239.93 358.781C1241.61 359.691 1241.61 359.691 1242.97 361.092C1246.46 363.406 1250.19 363.749 1254.27 364.427C1255.99 364.733 1257.7 365.042 1259.42 365.354C1260.25 365.504 1261.07 365.655 1261.92 365.809C1265.57 366.513 1269.11 367.485 1272.68 368.496C1276.85 369.633 1281.08 370.486 1285.32 371.348C1285.32 371.588 1285.32 371.828 1285.32 372.076C1280.91 372.271 1276.93 371.539 1272.62 370.611C1271.9 370.458 1271.18 370.304 1270.44 370.147C1268.92 369.822 1267.4 369.494 1265.88 369.164C1263.57 368.664 1261.26 368.182 1258.95 367.701C1257.47 367.382 1255.99 367.062 1254.5 366.74C1253.82 366.6 1253.14 366.459 1252.43 366.314C1245.11 364.683 1238.45 361.386 1234.24 355.002C1228.5 344.97 1229.83 334.23 1230.96 323.22C1231.06 322.21 1231.16 321.2 1231.26 320.189C1231.87 314.018 1232.55 307.858 1233.36 301.709C1234.07 296.46 1234.07 296.46 1232.48 291.604C1232.01 291.143 1231.54 290.683 1231.05 290.209C1230.18 289.346 1229.33 288.469 1228.5 287.568C1228.5 287.088 1228.5 286.607 1228.5 286.111C1228.09 285.946 1227.69 285.781 1227.27 285.61C1223.76 283.62 1221.3 280.315 1218.72 277.27C1217.58 275.923 1216.42 274.596 1215.25 273.271C1212.89 270.575 1210.56 267.853 1208.24 265.121C1207.89 264.71 1207.54 264.3 1207.18 263.877C1202.79 258.698 1202.79 258.698 1203 254.785Z" fill="#C0F5AF"/>
<path d="M1450.7 63.9141C1457.35 65.3147 1461.59 69.3021 1465.23 74.827C1467.07 77.7293 1468.67 80.7004 1470.13 83.8088C1471.61 86.8194 1473.33 89.6966 1475.04 92.585C1476.92 95.8151 1476.92 95.8151 1476.92 97.4258C1477.64 97.6662 1478.36 97.9066 1479.11 98.1543C1479.91 99.3508 1479.91 99.3508 1480.65 100.883C1481.07 101.708 1481.07 101.708 1481.49 102.55C1482.05 103.714 1482.62 104.879 1483.18 106.044C1483.46 106.595 1483.74 107.146 1484.02 107.713C1484.27 108.22 1484.51 108.726 1484.77 109.248C1486.46 111.687 1489.07 112.204 1491.87 112.752C1492.84 112.945 1492.84 112.945 1493.83 113.142C1494.52 113.276 1495.22 113.409 1495.93 113.547C1497.01 113.76 1497.01 113.76 1498.1 113.977C1500.39 114.428 1502.68 114.874 1504.97 115.32C1507.26 115.769 1509.55 116.22 1511.84 116.671C1513.26 116.951 1514.68 117.23 1516.11 117.508C1517.08 117.698 1517.08 117.698 1518.07 117.891C1518.92 118.057 1518.92 118.057 1519.79 118.226C1521.29 118.539 1522.78 118.896 1524.28 119.281C1524.28 119.762 1524.28 120.243 1524.28 120.738C1525.13 120.813 1525.99 120.889 1526.87 120.966C1529.99 121.355 1532.4 122.223 1535.2 123.652C1535.44 124.133 1535.68 124.614 1535.93 125.109C1532.63 124.447 1529.41 123.712 1526.23 122.605C1518.1 119.8 1509.6 118.368 1501.16 116.823C1486.26 114.085 1486.26 114.085 1483.6 111.353C1483.33 110.814 1483.07 110.275 1482.8 109.719C1482.46 109.079 1482.12 108.439 1481.77 107.779C1481.37 107.007 1480.98 106.235 1480.56 105.439C1479.37 103.362 1478.15 101.306 1476.92 99.2471C1476.29 98.165 1475.65 97.0827 1475.02 96.0001C1473.69 93.7499 1472.35 91.5091 1471 89.2755C1469.53 86.8392 1468.11 84.3753 1466.72 81.8945C1465.52 79.7772 1464.3 77.6742 1463.08 75.5703C1462.79 75.0491 1462.5 74.5279 1462.21 73.9909C1459.86 70.1871 1456.19 68.1277 1452.48 65.8093C1451.89 65.4243 1451.3 65.0393 1450.7 64.6426C1450.7 64.4022 1450.7 64.1618 1450.7 63.9141Z" fill="#BFF5B0"/>
<path d="M1484.21 373.533C1485.17 373.774 1486.13 374.014 1487.12 374.262C1486.64 374.262 1486.16 374.262 1485.66 374.262C1485.57 374.684 1485.49 375.106 1485.39 375.542C1484.92 377.218 1484.29 378.503 1483.43 380.01C1483.14 380.527 1482.84 381.043 1482.54 381.575C1482.23 382.107 1481.93 382.638 1481.61 383.186C1481.3 383.729 1480.99 384.272 1480.67 384.831C1479.91 386.166 1479.15 387.499 1478.38 388.832C1477.9 388.832 1477.42 388.832 1476.92 388.832C1476.71 389.367 1476.5 389.903 1476.29 390.454C1473.57 397.136 1469.86 403.299 1466.06 409.41C1465.36 410.542 1464.67 411.684 1463.99 412.828C1459.97 419.164 1454.67 422.624 1447.42 424.484C1437.91 426.274 1428.46 425.325 1420.1 420.158C1418.52 419.506 1416.92 418.885 1415.32 418.291C1412.71 417.323 1410.17 416.364 1407.71 415.059C1407.71 414.578 1407.71 414.097 1407.71 413.602C1410.73 413.979 1413.03 415.102 1415.7 416.484C1417.84 417.581 1420.06 418.499 1422.28 419.43C1423.03 419.805 1423.79 420.181 1424.56 420.568C1433.78 424.532 1443.69 423.292 1452.88 420.158C1461.17 416.36 1464.86 408.191 1468.91 400.488C1471.52 395.655 1474.31 390.935 1477.11 386.208C1479.57 382.032 1481.93 377.815 1484.21 373.533Z" fill="#BFF5B0"/>
<path d="M1304.26 392.475C1306.61 393.647 1307.41 396.073 1308.63 398.303C1315.9 412.583 1315.9 412.583 1328.34 421.641C1337.06 423.843 1345.19 423.451 1353.8 420.887C1355.28 419.943 1356.74 418.972 1358.17 417.973C1359.7 417.32 1361.25 416.712 1362.82 416.151C1365.65 415.113 1368.32 414.04 1370.97 412.6C1373.57 411.37 1373.87 411.296 1376.39 412.145C1374.46 413.209 1373.55 413.602 1371.29 413.602C1371.29 414.082 1371.29 414.563 1371.29 415.059C1366.24 417.434 1361.24 419.746 1355.99 421.615C1355.02 421.995 1354.05 422.374 1353.07 422.754C1343.59 426.247 1334.88 426.18 1325.39 422.344C1324.15 421.409 1322.93 420.438 1321.75 419.43C1321.12 419.069 1320.49 418.708 1319.84 418.337C1314.67 415.082 1311.76 407.97 1308.73 402.81C1308.37 402.21 1308.01 401.609 1307.65 400.991C1307.31 400.414 1306.98 399.838 1306.64 399.245C1306.34 398.73 1306.04 398.216 1305.73 397.686C1304.92 395.958 1304.57 394.353 1304.26 392.475Z" fill="#BFF5B0"/>
<path d="M1535.93 125.109C1539.06 125.457 1540.44 127.228 1542.49 129.48C1543.09 130.125 1543.7 130.769 1544.32 131.433C1546.41 133.964 1547.17 136.462 1547.86 139.634C1548.04 140.452 1548.04 140.452 1548.23 141.287C1549.21 146.158 1549.1 150.66 1548.5 155.593C1548.29 157.368 1548.14 159.143 1547.98 160.923C1547.52 166.318 1547.03 171.708 1546.44 177.09C1546.37 177.707 1546.31 178.325 1546.24 178.96C1546.11 180.112 1545.98 181.263 1545.85 182.414C1544.85 188.626 1544.85 188.626 1546.36 194.387C1546.76 194.725 1547.17 195.063 1547.59 195.411C1548.31 196.012 1549.03 196.613 1549.77 197.232C1549.53 197.954 1549.29 198.675 1549.04 199.418C1548.05 198.606 1547.09 197.766 1546.13 196.914C1545.59 196.449 1545.05 195.984 1544.49 195.505C1541.77 191.421 1543.26 185.806 1543.85 181.16C1544.67 174.287 1545.26 167.402 1545.8 160.502C1545.99 158.142 1546.19 155.791 1546.46 153.439C1547.25 145.88 1546.98 137.846 1542.22 131.575C1541.36 130.613 1540.48 129.669 1539.57 128.752C1539.2 128.355 1538.82 127.957 1538.43 127.548C1537.62 126.713 1536.78 125.907 1535.93 125.109Z" fill="#C0F5AE"/>
<path d="M1351.62 63.9141C1354.43 64.3797 1356.84 65.2153 1359.45 66.3387C1360.25 66.6814 1361.06 67.0242 1361.89 67.3774C1363.14 67.9169 1363.14 67.9169 1364.41 68.4673C1366.05 69.1695 1367.69 69.8714 1369.33 70.5732C1370.14 70.9199 1370.94 71.2666 1371.78 71.6238C1374.86 72.9357 1377.96 74.2017 1381.06 75.4581C1382.87 76.2642 1384.47 77.2014 1386.13 78.2567C1388.28 79.1843 1389.24 79.2792 1391.53 78.7007C1393.72 77.7734 1395.85 76.7578 1397.97 75.6877C1401.6 73.9097 1405.33 72.3247 1409.03 70.6984C1409.81 70.3522 1410.58 70.0061 1411.38 69.6495C1415.69 67.7339 1419.97 66.0494 1424.47 64.6426C1422.96 66.283 1421.61 67.2849 1419.59 68.214C1419.07 68.455 1418.56 68.6959 1418.02 68.9441C1417.47 69.1925 1416.93 69.4408 1416.36 69.6967C1415.8 69.9567 1415.24 70.2168 1414.66 70.4848C1413.07 71.2139 1411.49 71.9366 1409.9 72.6562C1409.28 72.9361 1408.67 73.216 1408.03 73.5043C1407.07 73.938 1406.1 74.3668 1405.13 74.7906C1403.58 75.4682 1402.03 76.1577 1400.49 76.8509C1399.44 77.3196 1398.38 77.7882 1397.33 78.2567C1396.83 78.4826 1396.33 78.7085 1395.82 78.9413C1389.35 81.8056 1389.35 81.8056 1386.17 80.8149C1385.52 80.5032 1384.87 80.1914 1384.2 79.8703C1383.47 79.5286 1382.74 79.1869 1381.99 78.8349C1380.84 78.2783 1380.84 78.2783 1379.67 77.7103C1378.88 77.3387 1378.09 76.9671 1377.28 76.5843C1375.73 75.8504 1374.17 75.1126 1372.62 74.3708C1370.2 73.2134 1367.76 72.0888 1365.32 70.9716C1363.91 70.319 1362.5 69.6664 1361.09 69.0137C1359.31 68.1938 1357.54 67.3744 1355.76 66.5549C1354.38 65.9175 1353 65.28 1351.62 64.6426C1351.62 64.4022 1351.62 64.1618 1351.62 63.9141Z" fill="#BFF5B0"/>
<path d="M1549.77 199.418C1550.61 200.095 1551.45 200.78 1552.28 201.467C1552.74 201.847 1553.21 202.228 1553.69 202.619C1554.87 203.789 1554.87 203.789 1555.6 205.975C1556.57 206.464 1557.54 206.949 1558.52 207.432C1559.95 208.88 1559.95 208.88 1561.38 210.573C1563.5 213.031 1565.66 215.373 1567.99 217.631C1567.75 218.352 1567.51 219.073 1567.26 219.816C1563.67 216.298 1560.16 212.75 1556.89 208.929C1554.93 206.658 1552.9 204.456 1550.87 202.247C1549.77 200.875 1549.77 200.875 1549.77 199.418Z" fill="#BFF5B1"/>
<path d="M1393.38 406.353C1393.95 406.657 1394.52 406.96 1395.1 407.273C1398.26 408.91 1401.44 410.254 1404.78 411.493C1406.26 412.145 1406.26 412.145 1407.71 413.602C1405.23 413.174 1403.11 412.546 1400.81 411.501C1400.22 411.238 1399.62 410.974 1399.01 410.702C1397.77 410.145 1396.53 409.583 1395.29 409.017C1394.69 408.755 1394.1 408.493 1393.48 408.223C1392.95 407.98 1392.41 407.736 1391.85 407.486C1388.85 406.672 1386.71 407.718 1383.95 408.957C1381.49 409.959 1381.49 409.959 1379.3 409.231C1384.16 406.137 1387.84 403.85 1393.38 406.353Z" fill="#C0F5AF"/>
<path d="M1288.96 372.804C1290.99 372.608 1290.99 372.608 1293.34 372.804C1294.72 374.116 1294.72 374.116 1295.89 375.946C1296.52 376.939 1296.52 376.939 1297.17 377.952C1303 387.788 1303 387.788 1304.26 392.474C1303.17 391.473 1303.17 391.473 1302.08 390.289C1302.08 389.808 1302.08 389.327 1302.08 388.832C1301.6 388.832 1301.12 388.832 1300.62 388.832C1299.79 387.73 1299.79 387.73 1298.89 386.2C1298.4 385.376 1298.4 385.376 1297.9 384.536C1297.57 383.955 1297.23 383.374 1296.89 382.776C1296.55 382.204 1296.21 381.631 1295.85 381.042C1293.34 376.728 1293.34 376.728 1293.34 374.262C1291.17 373.901 1291.17 373.901 1288.96 373.533C1288.96 373.293 1288.96 373.052 1288.96 372.804Z" fill="#BFF5B1"/>
<path d="M1223.4 204.518C1223.4 207.382 1222.38 208.28 1220.48 210.346C1220 210.346 1219.52 210.346 1219.03 210.346C1218.88 210.729 1218.72 211.112 1218.57 211.507C1217.15 213.998 1215.25 215.921 1213.29 217.995C1212.9 218.409 1212.52 218.823 1212.12 219.25C1210.09 221.422 1208.03 223.557 1205.91 225.645C1206.88 222.198 1208.97 220.037 1211.34 217.463C1212.52 216.226 1212.52 216.226 1213.2 214.717C1213.68 214.717 1214.16 214.717 1214.66 214.717C1214.66 214.236 1214.66 213.755 1214.66 213.26C1215.14 213.26 1215.62 213.26 1216.11 213.26C1216.31 212.834 1216.5 212.409 1216.71 211.971C1217.58 210.329 1218.54 209.061 1219.76 207.659C1220.13 207.221 1220.51 206.782 1220.89 206.33C1221.94 205.246 1221.94 205.246 1223.4 204.518Z" fill="#BFF5B4"/>
</g>
</g>
<defs>
<clipPath id="clip0_220_2">
<rect width="1665" height="1733" fill="white"/>
</clipPath>
<clipPath id="clip1_220_2">
<rect width="373" height="373" fill="white" transform="translate(1203 61)"/>
</clipPath>
</defs>
</svg>
