<svg width="1922" height="1384" viewBox="0 0 1922 1384" fill="none" xmlns="http://www.w3.org/2000/svg">
<g clip-path="url(#clip0_224_114)">
<path d="M322.523 1328.51C320.984 1328.58 319.459 1328.18 318.156 1327.35C316.854 1326.53 315.836 1325.32 315.242 1323.9C314.647 1322.48 314.504 1320.91 314.832 1319.4C315.16 1317.9 315.943 1316.53 317.075 1315.48L317.59 1313.43C317.522 1313.27 317.454 1313.11 317.385 1312.94C315.834 1309.28 313.234 1306.15 309.913 1303.96C306.591 1301.77 302.696 1300.61 298.717 1300.62C294.738 1300.64 290.852 1301.83 287.547 1304.05C284.242 1306.26 281.665 1309.4 280.141 1313.08C274.05 1327.75 266.294 1342.44 264.385 1357.95C263.544 1364.81 263.899 1371.76 265.433 1378.49C251.126 1347.29 243.697 1313.37 243.649 1279.05C243.646 1270.43 244.125 1261.82 245.083 1253.26C245.875 1246.25 246.973 1239.28 248.379 1232.36C256.047 1194.83 272.511 1159.64 296.419 1129.71C307.99 1123.39 317.348 1113.69 323.231 1101.89C325.363 1097.65 326.869 1093.13 327.704 1088.46C326.399 1088.63 322.782 1068.75 323.767 1067.53C321.948 1064.77 318.692 1063.4 316.705 1060.71C306.824 1047.31 293.211 1049.65 286.105 1067.85C270.923 1075.51 270.776 1088.22 280.091 1100.44C286.018 1108.21 286.832 1118.73 292.032 1127.05C291.497 1127.74 290.941 1128.4 290.406 1129.09C280.626 1141.66 272.103 1155.16 264.958 1169.39C266.695 1153.45 264.621 1137.31 258.907 1122.32C253.115 1108.35 242.259 1096.59 232.699 1084.51C221.215 1070 197.668 1076.34 195.645 1094.72C195.625 1094.9 195.606 1095.08 195.588 1095.26C197.008 1096.06 198.398 1096.91 199.758 1097.81C201.466 1098.95 202.79 1100.58 203.556 1102.49C204.322 1104.39 204.494 1106.49 204.049 1108.49C203.605 1110.5 202.564 1112.32 201.065 1113.73C199.565 1115.13 197.677 1116.05 195.646 1116.37L195.438 1116.4C195.944 1121.51 196.838 1126.59 198.113 1131.57C185.848 1178.99 212.326 1196.26 250.133 1197.04C250.968 1197.46 251.781 1197.89 252.616 1198.3C245.437 1218.64 240.934 1239.83 239.22 1261.33C238.249 1274.02 238.307 1286.76 239.391 1299.44L239.327 1298.99C236.587 1284.89 229.067 1272.17 218.035 1262.98C201.649 1249.52 178.5 1244.56 160.823 1233.75C158.945 1232.54 156.76 1231.9 154.528 1231.89C152.295 1231.89 150.108 1232.52 148.223 1233.72C146.339 1234.91 144.836 1236.62 143.892 1238.65C142.948 1240.67 142.602 1242.92 142.895 1245.13C142.919 1245.29 142.943 1245.45 142.968 1245.6C145.603 1246.68 148.168 1247.91 150.65 1249.31C152.07 1250.11 153.46 1250.96 154.82 1251.86C156.528 1253 157.852 1254.63 158.618 1256.53C159.384 1258.44 159.555 1260.53 159.111 1262.54C158.667 1264.55 157.626 1266.37 156.127 1267.78C154.628 1269.18 152.739 1270.1 150.708 1270.41L150.5 1270.44C150.35 1270.47 150.222 1270.49 150.072 1270.51C154.575 1281.26 160.894 1291.15 168.753 1299.76C176.422 1341.15 209.359 1345.08 244.591 1333.03H244.612C248.478 1349.82 254.079 1366.17 261.325 1381.81H321.027C321.242 1381.14 321.434 1380.46 321.627 1379.8C316.1 1380.14 310.552 1379.81 305.107 1378.81C309.536 1373.38 313.966 1367.9 318.395 1362.47C318.494 1362.36 318.587 1362.26 318.674 1362.14C320.92 1359.36 323.189 1356.6 325.436 1353.82L325.437 1353.82C325.556 1345.29 324.576 1336.79 322.523 1328.51Z" fill="#68B82D"/>
<path d="M391.192 1380.47H487.534C504.011 1325 487.622 1193.9 509.34 1140.32C551.008 1037.58 604.24 929.176 703.595 879.011C746.016 857.591 792.271 849.225 839.508 849.68C904.761 850.299 971.85 867.813 1033.27 891.023C1058.4 900.497 1083.29 910.914 1108.09 921.559C1201.52 961.697 1293.93 1005.42 1394.4 1017.23C1521.53 1032.18 1671 975.305 1705.73 852.805C1732.23 759.018 1684.5 661.651 1634.45 577.89C1584.39 494.13 1528.44 404.51 1537.58 307.533C1537.61 307.207 1537.65 306.849 1537.71 306.524C1541.15 271.691 1561.95 246.658 1591.01 230.609H1464.5C1462.83 321.076 1515.17 400.929 1562.28 479.774C1612.33 563.502 1660.06 660.902 1633.56 754.689C1598.84 877.155 1311.31 733.599 1184.18 718.625C1148.27 714.425 1205.31 729.367 1171.07 718.625C1117.38 701.794 1111.43 856.159 1059.18 833.501C1026.65 819.373 994.093 805.342 961.105 792.874C947.445 787.698 933.49 782.848 919.372 778.355C919.359 778.355 919.347 778.351 919.336 778.346C919.324 778.34 919.314 778.332 919.306 778.323C824.504 748.309 720.826 736.622 633.231 780.016C632.641 780.309 632.019 780.602 631.429 780.894C532.074 831.027 478.842 939.43 437.174 1042.17C402.746 1127.1 408.161 1290.88 391.192 1380.47Z" fill="#575757"/>
<path d="M962.279 1377.63C492.097 1387.59 481.787 1181.66 481.787 936.73C481.787 691.797 696.194 500.191 961.886 500.191C1227.58 500.191 1438.59 691.726 1438.59 936.653C1438.59 1181.58 1227.97 1377.63 962.279 1377.63Z" fill="#D2D2D2"/>
<path d="M959.601 1380.31C489.419 1390.26 479.109 1184.34 479.109 939.407C479.109 694.475 695.266 495.215 960.958 495.215C1226.65 495.215 1442.81 694.48 1442.81 939.407C1442.81 1184.33 1225.29 1380.31 959.601 1380.31ZM960.958 507.437C702.575 507.437 496.719 701.252 492.367 939.408C488.32 1160.92 743.59 1437.34 960.958 1371.38C1077.53 1253.04 1407.1 1125.57 1429.55 939.408C1458.1 702.677 1219.34 507.437 960.958 507.437Z" fill="black"/>
<path d="M1.41082e-05 1380.81C-0.00123408 1381.23 0.0803522 1381.65 0.24008 1382.03C0.399807 1382.42 0.634523 1382.77 0.930724 1383.07C1.22693 1383.37 1.57877 1383.6 1.96601 1383.76C2.35325 1383.92 2.76825 1384 3.18713 1384H1918.81C1919.66 1384 1920.47 1383.66 1921.07 1383.07C1921.66 1382.47 1922 1381.66 1922 1380.81C1922 1379.97 1921.66 1379.16 1921.07 1378.56C1920.47 1377.96 1919.66 1377.63 1918.81 1377.63H3.18713C2.76825 1377.63 2.35326 1377.71 1.96602 1377.87C1.57879 1378.03 1.22695 1378.26 0.930748 1378.56C0.634549 1378.85 0.399832 1379.21 0.240101 1379.59C0.0803702 1379.98 -0.00122341 1380.39 1.41082e-05 1380.81Z" fill="#CCCCCC"/>
<path d="M1290.78 1340.03H1257.7L1241.96 1212.45L1290.79 1212.46L1290.78 1340.03Z" fill="#A0616A"/>
<path d="M1291.94 1374.54L1190.22 1374.53V1373.25C1190.22 1362.75 1194.39 1352.68 1201.82 1345.25C1209.24 1337.83 1219.31 1333.66 1229.81 1333.66L1248.4 1319.56L1283.07 1333.66L1291.95 1333.66L1291.94 1374.54Z" fill="#2F2E41"/>
<path d="M1240.52 1044.31C1202.74 1007.63 1159.33 977.249 1111.93 954.314L1087.76 981.598L1103.15 950.164C1039.72 921.2 970.85 906.032 901.112 905.663C831.374 905.295 762.352 919.734 698.612 948.027L711.172 975.303L691.886 951.062C642.096 974.218 596.533 1005.54 557.081 1043.73C553.025 1047.51 550.519 1052.66 550.051 1058.18C549.849 1061.18 550.293 1064.19 551.354 1067C552.415 1069.82 554.068 1072.37 556.202 1074.49C562.28 1077.37 570.942 1083.97 583.812 1102.09C587.758 1105.99 593.069 1108.18 598.613 1108.22C604.156 1108.25 609.493 1106.12 613.488 1102.28C689.918 1028.3 792.124 986.946 898.498 986.946C1004.87 986.946 1107.08 1028.3 1183.51 1102.28C1187.5 1106.12 1192.84 1108.25 1198.38 1108.22C1203.93 1108.18 1209.24 1105.99 1213.18 1102.09C1226.13 1090.45 1229.16 1073.99 1240.29 1075C1244.2 1071.21 1246.58 1066.1 1246.96 1060.67C1247.13 1057.64 1246.63 1054.61 1245.52 1051.79C1244.41 1048.96 1242.7 1046.41 1240.52 1044.31Z" fill="#68B82D"/>
<path d="M988.306 1084.01L955.226 1084.01L939.489 956.432L988.311 956.434L988.306 1084.01Z" fill="#A0616A"/>
<path d="M989.471 1118.51L887.745 1118.51V1117.22C887.745 1106.72 891.917 1096.66 899.342 1089.23C906.768 1081.81 916.838 1077.64 927.339 1077.64L945.923 1063.54L980.592 1077.64L989.472 1077.64L989.471 1118.51Z" fill="#2F2E41"/>
<path d="M1328.6 614.306L1093.84 638.829L1036.16 695.816L944.4 725.772C932.847 729.543 922.722 736.751 915.378 746.432C908.035 756.113 903.823 767.806 903.306 779.945C900.919 835.898 896.199 928.793 891.217 927.821C884.092 926.429 898.334 961.24 908.309 959.219C918.285 957.198 928.658 979.896 921.762 983.931C914.865 987.967 926.353 1022.49 926.353 1022.49L998.213 1010.92C1007.21 943.079 1040.06 871.578 1001.34 821.667C1066.91 800.391 1124.68 782.6 1167.16 771.636L1190.13 762.105L1237.82 1268.81L1305.28 1269.91C1323.89 1174.19 1333.24 1088.03 1318.69 1026.56C1318.69 1026.56 1320.78 841.922 1328.76 843.941C1336.73 845.96 1329.97 821.906 1329.97 821.906C1329.97 821.906 1322.99 801.42 1331.57 792.921C1340.15 784.422 1334.79 734.437 1334.79 734.437C1348.98 687.133 1344.71 648.074 1328.6 614.306Z" fill="black"/>
<path d="M1356.36 510.913C1358.68 500.487 1361.01 490.06 1363.33 479.633C1369.86 450.435 1376.38 421.25 1382.89 392.078C1391.44 353.855 1400.02 314.302 1392.67 275.839C1391.57 270.055 1390.03 264.363 1388.06 258.814C1377.04 227.327 1352.73 199.737 1320.49 193.927L1315.22 174.302L1243.28 165.448L1229.67 184.223C1200.36 181.88 1182.96 211.057 1162.74 235.101L1154.71 243.134C1148.85 250.456 1147.65 277.963 1144 285.977C1127.74 321.616 1150.14 286.981 1149.35 326.143C1148.54 366.723 1140.56 406.102 1139.74 446.68C1139.65 451.034 1130.28 454.354 1128.67 461.987C1127.8 466.107 1135.06 473.75 1133.96 478.357C1133.02 482.288 1137.71 498.089 1136.7 502.152C1132.03 521.004 1121.45 528.426 1120.99 537.721C1120.78 541.299 1120.25 544.85 1119.4 548.331C1118.82 550.802 1110.71 547.841 1109.92 550.351C1108.59 554.567 1114.43 564.275 1112.83 568.495C1109.73 576.662 1111.82 591.086 1109.92 598.549C1101.96 629.881 1105.02 617.447 1087.76 644.786C1131.93 658.138 1151.01 702.853 1196.45 710.902C1198.5 704.284 1200.54 697.648 1202.57 690.995C1208.6 691.382 1214.66 691.742 1220.72 692.075C1221.06 697.851 1221.4 703.63 1221.74 709.372C1267.8 712.341 1314 712.593 1360.08 710.125C1358.54 705.495 1357.31 700.766 1356.39 695.971C1353.86 682.637 1359.3 668.177 1359.88 654.979C1360.29 645.202 1355.64 636.895 1355.78 626.364C1355.81 624.416 1366.75 622.777 1366.72 620.792C1366.55 603.288 1356.6 579.868 1359.88 562.673C1363.3 544.998 1352.46 528.488 1356.36 510.918L1356.36 510.913Z" fill="black"/>
<path d="M1019.84 88.1099C1013.74 88.117 1007.89 90.5428 1003.58 94.8552C999.265 99.1676 996.839 105.014 996.832 111.113V249.72C996.839 255.818 999.265 261.665 1003.58 265.977C1007.89 270.29 1013.74 272.716 1019.84 272.723H1062.73C1068.83 272.716 1074.67 270.29 1078.99 265.977C1083.3 261.665 1085.73 255.818 1085.73 249.719C1092.57 180.073 1090.06 142.487 1085.73 111.113C1085.73 105.014 1083.3 99.1676 1078.99 94.8552C1074.67 90.5428 1068.83 88.1169 1062.73 88.1099L1019.84 88.1099Z" fill="#68B82D"/>
<path d="M1014.48 88.1099C1008.38 88.117 1002.54 90.5428 998.222 94.855C993.909 99.1673 991.483 105.014 991.476 111.112C989.012 165.597 987.299 217.558 991.476 249.719C991.482 255.818 993.909 261.665 998.222 265.977C1002.53 270.29 1008.38 272.716 1014.48 272.723H1057.37C1063.47 272.716 1069.32 270.29 1073.63 265.977C1077.94 261.665 1080.37 255.818 1080.38 249.719V111.113C1080.37 105.014 1077.94 99.1677 1073.63 94.8553C1069.32 90.5429 1063.47 88.1171 1057.37 88.11L1014.48 88.1099Z" fill="black"/>
<path d="M1124.89 289.837C1124.89 289.837 1165.46 288.192 1144.81 305.704C1131.37 317.099 1101.12 396.432 1069.69 406.03C1065.99 407.158 1062.09 407.505 1058.25 407.049C1054.41 406.594 1050.7 405.345 1047.37 403.383C1044.03 401.42 1041.14 398.787 1038.88 395.649C1036.62 392.512 1035.03 388.938 1034.22 385.156L1005.73 252.371L1042.95 246.711L1065.63 351.804L1124.89 289.837Z" fill="#A0616A"/>
<path d="M1026.4 262.07C1040.93 262.07 1052.72 250.286 1052.72 235.75C1052.72 221.214 1040.93 209.43 1026.4 209.43C1011.86 209.43 1000.07 221.214 1000.07 235.75C1000.07 250.286 1011.86 262.07 1026.4 262.07Z" fill="#A0616A"/>
<path d="M1179.92 217.278C1204.03 235.385 1211.13 294.76 1195.98 320.829C1167.01 370.663 1109.9 409.03 1107.47 403.702C1104.13 396.405 1098.32 406.203 1098.52 409.41C1098.72 412.618 1087.72 411.662 1089 415.056C1090.28 418.45 1081.6 419.188 1077.83 421.156C1077.83 421.156 1043.32 421.739 1032.43 405.994C1021.54 390.249 1020.08 368.491 1020.08 368.491L1006.57 352.591L1078.23 310.709L1072.32 338.978L1108.07 297.361L1115.63 280.664L1127.7 274.502L1131.7 261.92L1142.83 256.89L1186.85 205.647L1179.92 217.278Z" fill="black"/>
<path d="M1377.92 705.042C1380.92 703.058 1383.46 700.439 1385.35 697.37C1387.23 694.3 1388.42 690.854 1388.83 687.275C1389.24 683.696 1388.86 680.07 1387.72 676.654C1386.58 673.237 1384.7 670.113 1382.22 667.501L1387.28 442.349L1342.78 449.27L1345.92 667.653C1341.81 672.112 1339.47 677.924 1339.36 683.989C1339.25 690.053 1341.37 695.948 1345.31 700.557C1349.25 705.165 1354.75 708.168 1360.76 708.994C1366.77 709.821 1372.87 708.415 1377.92 705.042Z" fill="#A0616A"/>
<path d="M1379.86 250.429C1379.86 250.429 1376.9 252.659 1392.04 275.718C1395.04 280.291 1397.08 298.73 1398.5 322.792C1398.96 330.631 1403.43 336.138 1403.77 344.886C1404.07 352.31 1400.26 362.887 1400.49 370.586C1400.61 374.692 1403.67 378.265 1403.77 382.374C1403.82 384.086 1400.91 386.344 1400.95 388.051C1400.99 389.891 1401.04 391.725 1401.08 393.555C1402.12 439.287 1402.34 480.591 1403.38 479.893C1405.58 478.406 1400.11 486.094 1402.84 487.378C1405.58 488.662 1400.51 495.031 1401.81 498.333C1403.41 502.355 1401.43 506.792 1400.18 510.83C1396.56 522.488 1395.79 532.5 1392.65 538.038C1396.37 540.176 1399.28 543.494 1400.92 547.468C1402.55 551.442 1402.82 555.847 1401.67 559.989L1338.96 548.652C1331.31 536.406 1332.42 523.552 1337.63 521.312L1336.08 481.46L1318.22 275.283L1370.56 251.916L1379.86 250.429Z" fill="black"/>
<path d="M990.628 123.659C989.727 123.659 988.995 124.088 988.995 124.615V132.265C988.995 132.792 989.727 133.221 990.628 133.221C991.528 133.221 992.26 132.792 992.26 132.265V124.615C992.26 124.088 991.528 123.659 990.628 123.659Z" fill="black"/>
<path d="M990.628 143.931C989.727 143.931 988.995 144.36 988.995 144.887V159.708C988.995 160.236 989.727 160.665 990.628 160.665C991.528 160.665 992.26 160.236 992.26 159.708V144.887C992.26 144.36 991.528 143.931 990.628 143.931Z" fill="black"/>
<path d="M1081.68 146.608C1081.2 146.663 1080.76 146.904 1080.46 147.279C1080.15 147.653 1080.01 148.133 1080.05 148.614V179.697C1080 179.939 1080.01 180.19 1080.06 180.43C1080.12 180.671 1080.23 180.895 1080.39 181.087C1080.55 181.279 1080.74 181.434 1080.97 181.54C1081.19 181.647 1081.44 181.702 1081.68 181.702C1081.93 181.702 1082.18 181.647 1082.4 181.54C1082.62 181.434 1082.82 181.279 1082.98 181.087C1083.13 180.895 1083.24 180.671 1083.3 180.43C1083.36 180.19 1083.37 179.939 1083.32 179.697V148.614C1083.36 148.133 1083.21 147.653 1082.91 147.279C1082.6 146.904 1082.16 146.663 1081.68 146.608Z" fill="black"/>
<path d="M987.95 167.646C987.05 167.646 986.317 168.074 986.317 168.602V183.423C986.317 183.951 987.05 184.38 987.95 184.38C988.85 184.38 989.582 183.951 989.582 183.423V168.602C989.582 168.074 988.85 167.646 987.95 167.646Z" fill="black"/>
<path d="M1274.21 158.495C1311.35 158.495 1341.45 128.399 1341.45 91.2744C1341.45 54.1494 1311.35 24.0537 1274.21 24.0537C1237.08 24.0537 1206.98 54.1494 1206.98 91.2744C1206.98 128.399 1237.08 158.495 1274.21 158.495Z" fill="#A0616A"/>
<path d="M1349.28 122.161C1344.03 132.663 1339.04 139.231 1329.96 145.102C1329.5 143.764 1329.13 142.396 1328.85 141.009C1327.88 143.168 1326.94 145.321 1325.95 147.485C1320.21 150.69 1326.41 145.745 1317.01 149.329L1309.1 135.765C1306.94 129.326 1310.01 122.314 1313.91 116.742C1317.81 111.192 1322.67 106.105 1324.79 99.6529C1326.91 93.2014 1325.03 84.6542 1318.68 82.2528C1312.43 79.8547 1305.53 84.4042 1298.88 83.6138C1291.21 82.7095 1286 74.6871 1285.58 66.9691C1285.16 59.251 1288.31 51.8403 1291.4 44.7775C1282.11 51.4319 1253.34 63.3539 1237.68 63.9235C1237.25 59.0392 1235 54.4963 1231.36 51.2097C1232 55.6564 1230.91 60.1788 1228.33 63.8547C1213 63.0686 1210.12 85.336 1202.2 77.2728C1204.67 76.0294 1195.56 48.3563 1198.03 47.113C1196.13 41.9031 1194.23 36.7083 1192.34 31.5286C1195.86 32.4164 1199.41 33.3221 1202.96 34.205C1203.18 32.311 1203.75 30.4757 1204.66 28.7952C1207.18 27.3544 1209.87 26.219 1212.67 25.4131C1213.57 25.1725 1214.49 24.9271 1215.42 24.7272C1216.81 24.4196 1218.2 24.1917 1219.61 24.0448C1217.57 22.8629 1215.52 21.7085 1213.47 20.504C1213.23 20.3658 1213.01 20.2227 1212.76 20.0845C1215.63 18.1118 1218.63 16.3324 1221.74 14.7582C1234.84 7.90574 1248.44 0.923402 1263.21 0.069276C1272.8 -0.541498 1282.31 2.19576 1290.11 7.81401C1296.84 12.6452 1304.99 15.0955 1313.26 14.7772C1317.29 14.7465 1321.27 15.6329 1324.9 17.369C1323.24 19.0444 1321.42 20.5579 1319.47 21.8892C1323.73 22 1327.97 22.1157 1332.23 22.2493C1337.01 26.5963 1341.04 31.7002 1344.16 37.3561C1359.1 62.8845 1362.52 95.714 1349.28 122.161Z" fill="#2F2E41"/>
<path d="M1133.38 1169.41C1132.87 1166.06 1131.57 1162.87 1129.58 1160.12C1127.59 1157.37 1124.97 1155.13 1121.94 1153.6C1093.52 1139.06 1063.73 1127.35 1033.01 1118.66L1004.26 1156.55L1025.51 1116.57C946.867 1095.47 864.207 1094.3 784.998 1113.16L796.053 1143.64L777.992 1114.9C742.326 1123.87 707.792 1136.85 675.053 1153.6C672.038 1155.14 669.431 1157.38 667.444 1160.12C665.457 1162.86 664.146 1166.03 663.618 1169.38C663.091 1172.72 663.361 1176.15 664.407 1179.37C665.454 1182.59 667.246 1185.51 669.639 1187.91C682.068 1188.67 690.276 1200.22 698.468 1216.73C701.607 1219.83 705.627 1221.88 709.977 1222.61C714.327 1223.33 718.795 1222.69 722.768 1220.78C777.67 1194.67 837.702 1181.12 898.498 1181.12C959.294 1181.12 1019.33 1194.67 1074.23 1220.78C1078.2 1222.69 1082.67 1223.33 1087.02 1222.61C1091.37 1221.88 1095.39 1219.83 1098.52 1216.73C1103.45 1203.38 1113.6 1195.49 1127.36 1187.91C1129.76 1185.53 1131.56 1182.61 1132.61 1179.39C1133.66 1176.17 1133.92 1172.75 1133.38 1169.41Z" fill="#68B82D"/>
<path d="M974.547 1299.91C968.252 1298.92 961.918 1298.06 955.546 1297.32L930.572 1337.05L949.181 1296.64C918.942 1293.55 888.484 1293.23 858.186 1295.68L877.236 1337.05L851.593 1296.26C841.806 1297.18 832.091 1298.4 822.447 1299.91C819.145 1300.4 816.048 1301.81 813.511 1303.98C810.975 1306.14 809.102 1308.99 808.108 1312.17C807.049 1315.38 806.904 1318.83 807.69 1322.12C808.476 1325.41 810.161 1328.42 812.557 1330.8C822.87 1340.9 834.241 1354.93 852.928 1371.17C854.751 1373.01 856.953 1374.44 859.383 1375.36C861.813 1376.27 864.412 1376.65 867 1376.46C877.356 1375.69 887.953 1375.3 898.497 1375.3C909.041 1375.3 919.638 1375.69 929.994 1376.46C932.582 1376.64 935.18 1376.27 937.61 1375.35C940.039 1374.44 942.242 1373.01 944.067 1371.17C963.365 1354.7 973.116 1339.6 984.438 1330.8C986.834 1328.42 988.52 1325.41 989.305 1322.12C990.091 1318.83 989.946 1315.38 988.886 1312.17C987.893 1308.99 986.02 1306.14 983.483 1303.97C980.947 1301.81 977.85 1300.4 974.547 1299.91Z" fill="#68B82D"/>
</g>
<defs>
<clipPath id="clip0_224_114">
<rect width="1922" height="1384" fill="white"/>
</clipPath>
</defs>
</svg>
