<svg width="3437" height="3323" viewBox="0 0 3437 3323" fill="none" xmlns="http://www.w3.org/2000/svg">
<g clip-path="url(#clip0_255_277)">
<path d="M2246 2901.35C2246 2903.21 2247.49 2904.7 2249.35 2904.7H3327.78C3329.63 2904.7 3331.12 2903.21 3331.12 2901.35C3331.12 2899.49 3329.63 2898 3327.78 2898H2249.35C2247.49 2898 2246 2899.49 2246 2901.35Z" fill="#68B82D"/>
<path d="M3071.8 2848.48H2514.39C2446.43 2848.48 2391.13 2793.18 2391.13 2725.21V1527.24C2391.13 1459.27 2446.43 1403.97 2514.39 1403.97H3071.8C3139.77 1403.97 3195.06 1459.27 3195.06 1527.24V2725.21C3195.06 2793.18 3139.77 2848.48 3071.8 2848.48Z" fill="#3F3D56"/>
<path d="M3195.06 1844.63C3192.19 1844.63 3189.85 1846.97 3189.85 1849.84V2016.72C3189.85 2019.59 3192.19 2021.93 3195.06 2021.93C3197.94 2021.93 3200.28 2019.59 3200.28 2016.72V1849.84C3200.28 1846.97 3197.94 1844.63 3195.06 1844.63Z" fill="#3F3D56"/>
<path d="M3183.33 1527.24V2725.19C3183.33 2784.36 3137.28 2832.75 3079.06 2836.5H3079.04C3078.18 2836.56 3077.32 2836.61 3076.43 2836.63C3074.89 2836.71 3073.35 2836.74 3071.79 2836.74C3071.79 2836.74 3066.05 2836.32 3055.57 2835.54C3044.99 2834.76 3029.58 2833.58 3010.36 2832.04C3004.6 2831.6 2998.53 2831.11 2992.11 2830.58C2979.34 2829.54 2965.31 2828.39 2950.26 2827.09C2944.27 2826.6 2938.06 2826.05 2931.73 2825.5C2899.34 2822.71 2863.08 2819.45 2824.83 2815.75C2818.36 2815.15 2811.84 2814.52 2805.27 2813.87C2803.55 2813.69 2801.81 2813.53 2800.06 2813.35C2772.79 2810.66 2402.86 2739.17 2402.86 2725.19V1527.24C2402.86 1465.63 2452.79 1415.7 2514.4 1415.7H2580.99C2591.63 1415.7 2600.18 1423.99 2601.1 1434.6C2601.17 1435.31 2601.25 1436.01 2601.38 1436.71C2603.31 1447.38 2613.09 1454.81 2623.94 1454.81H2962.26C2973.1 1454.81 2982.88 1447.38 2984.81 1436.71C2984.94 1436.01 2985.02 1435.31 2985.1 1434.6C2986.01 1423.99 2994.56 1415.7 3005.2 1415.7H3071.79C3133.4 1415.7 3183.33 1465.63 3183.33 1527.24Z" fill="white"/>
<path d="M2388.52 1719.47C2385.65 1719.47 2383.31 1721.81 2383.31 1724.69V1766.4C2383.31 1769.28 2385.65 1771.62 2388.52 1771.62C2391.4 1771.62 2393.74 1769.28 2393.74 1766.4V1724.69C2393.74 1721.81 2391.4 1719.47 2388.52 1719.47Z" fill="#3F3D56"/>
<path d="M2388.52 1844.63C2385.65 1844.63 2383.31 1846.97 2383.31 1849.84V1930.67C2383.31 1933.55 2385.65 1935.89 2388.52 1935.89C2391.4 1935.89 2393.74 1933.55 2393.74 1930.67V1849.84C2393.74 1846.97 2391.4 1844.63 2388.52 1844.63Z" fill="#3F3D56"/>
<path d="M2388.52 1959.35C2385.65 1959.35 2383.31 1961.69 2383.31 1964.57V2045.4C2383.31 2048.27 2385.65 2050.61 2388.52 2050.61C2391.4 2050.61 2393.74 2048.27 2393.74 2045.4V1964.57C2393.74 1961.69 2391.4 1959.35 2388.52 1959.35Z" fill="#3F3D56"/>
<path d="M2579.18 1433.96H2479.45C2478.91 1433.96 2478.47 1434.4 2478.47 1434.94V1446.02C2478.47 1446.56 2478.91 1447 2479.45 1447H2579.18C2579.72 1447 2580.16 1446.56 2580.16 1446.02V1434.94C2580.16 1434.4 2579.72 1433.96 2579.18 1433.96Z" fill="#E6E6E6"/>
<path d="M3021.68 1447C3027.44 1447 3032.11 1442.33 3032.11 1436.57C3032.11 1430.81 3027.44 1426.14 3021.68 1426.14C3015.92 1426.14 3011.25 1430.81 3011.25 1436.57C3011.25 1442.33 3015.92 1447 3021.68 1447Z" fill="#E6E6E6"/>
<path d="M3050.36 1447C3056.12 1447 3060.79 1442.33 3060.79 1436.57C3060.79 1430.81 3056.12 1426.14 3050.36 1426.14C3044.6 1426.14 3039.93 1430.81 3039.93 1436.57C3039.93 1442.33 3044.6 1447 3050.36 1447Z" fill="#E6E6E6"/>
<path d="M3079.04 1447C3084.8 1447 3089.47 1442.33 3089.47 1436.57C3089.47 1430.81 3084.8 1426.14 3079.04 1426.14C3073.28 1426.14 3068.61 1430.81 3068.61 1436.57C3068.61 1442.33 3073.28 1447 3079.04 1447Z" fill="#E6E6E6"/>
<path d="M3013.35 2139H2570.65C2563.67 2139 2558 2133.39 2558 2126.5C2558 2119.61 2563.67 2114 2570.65 2114H3013.35C3020.33 2114 3026 2119.61 3026 2126.5C3026 2133.39 3020.33 2139 3013.35 2139Z" fill="#E6E6E6"/>
<path d="M2793.5 2629C2894.84 2629 2977 2546.84 2977 2445.5C2977 2344.16 2894.84 2262 2793.5 2262C2692.16 2262 2610 2344.16 2610 2445.5C2610 2546.84 2692.16 2629 2793.5 2629Z" fill="#68B82D"/>
<path d="M2822.4 2386C2806.99 2386.64 2789.56 2387.69 2778.17 2399.51C2768.28 2409.78 2766.11 2425.02 2776.14 2435.99C2786.21 2446.98 2801.85 2448.47 2813.45 2457.04C2827.07 2467.11 2825.07 2487.03 2811.89 2496.57C2796.35 2507.83 2776.29 2502.58 2762.08 2491.87C2758.44 2489.13 2754.9 2495.28 2758.5 2497.99C2771.23 2507.58 2787.84 2512.92 2803.58 2508.33C2817.79 2504.19 2828.8 2492.61 2829.92 2477.55C2830.45 2470.37 2828.41 2463.07 2823.94 2457.4C2819.22 2451.41 2812.42 2447.72 2805.55 2444.72C2793.72 2439.56 2773.35 2432.88 2776.79 2416.07C2780.96 2395.7 2805.77 2393.77 2822.4 2393.08C2826.94 2392.9 2826.96 2385.82 2822.4 2386Z" fill="white"/>
<path d="M2793.7 2376.44L2793 2532.56C2792.98 2537.14 2800.28 2537.15 2800.3 2532.56L2801 2376.44C2801.02 2371.86 2793.72 2371.85 2793.7 2376.44Z" fill="white"/>
<path d="M3243.89 580H2340.11C2306.96 580 2280 606.939 2280 640.067V1258.93C2280 1292.06 2306.96 1319 2340.11 1319H3243.89C3277.04 1319 3304 1292.06 3304 1258.93V640.067C3304 606.939 3277.04 580 3243.89 580Z" fill="white"/>
<path d="M2788 948C2843.78 948 2889 902.557 2889 846.5C2889 790.443 2843.78 745 2788 745C2732.22 745 2687 790.443 2687 846.5C2687 902.557 2732.22 948 2788 948Z" fill="#68B82D"/>
<path d="M2807.23 801.003C2794.7 801.52 2780.6 802.317 2771.12 811.666C2763.26 819.411 2760.52 831.467 2767.73 840.586C2775.33 850.186 2787.96 852.008 2797.88 858.143C2804.04 861.956 2808.13 867.733 2808.26 875.157C2808.38 882.107 2805.18 888.601 2799.84 892.957C2786.71 903.645 2768.82 899.221 2756.4 889.874C2753.96 888.035 2751.59 892.163 2754.01 893.982C2764.29 901.723 2777.53 906.219 2790.32 902.888C2802.1 899.822 2811.59 890.534 2812.86 878.123C2814.21 865.042 2805.64 856.136 2794.53 851.026C2784.38 846.355 2766.57 841.379 2768.25 826.869C2770.38 808.421 2792.91 806.352 2807.23 805.76C2810.27 805.634 2810.29 800.876 2807.23 801.003Z" fill="white"/>
<path d="M2785.54 793.278L2785 922.722C2784.99 925.758 2789.45 925.761 2789.46 922.722L2790 793.278C2790.01 790.242 2785.55 790.239 2785.54 793.278Z" fill="white"/>
<path d="M3243.89 580H2340.11C2306.96 580 2280 606.939 2280 640.067V1258.93C2280 1292.06 2306.96 1319 2340.11 1319H3243.89C3277.04 1319 3304 1292.06 3304 1258.93V640.067C3304 606.939 3277.04 580 3243.89 580ZM3297.68 1258.93C3297.68 1288.59 3273.56 1312.68 3243.89 1312.68H2340.11C2310.44 1312.68 2286.32 1288.59 2286.32 1258.93V640.067C2286.32 610.413 2310.44 586.316 2340.11 586.316H3243.89C3273.56 586.316 3297.68 610.413 3297.68 640.067V1258.93Z" fill="#3F3D56"/>
<path d="M2687.67 640.668H2599.01C2594.56 640.668 2590.92 644.302 2590.92 648.757C2590.92 653.243 2594.56 656.877 2599.01 656.877H2687.67C2692.12 656.877 2695.75 653.243 2695.75 648.757C2695.75 644.302 2692.12 640.668 2687.67 640.668Z" fill="#E6E6E6"/>
<path d="M2836.16 640.668H2747.51C2743.05 640.668 2739.42 644.302 2739.42 648.757C2739.42 653.243 2743.05 656.877 2747.51 656.877H2836.16C2840.62 656.877 2844.25 653.243 2844.25 648.757C2844.25 644.302 2840.62 640.668 2836.16 640.668Z" fill="#E6E6E6"/>
<path d="M2984.66 640.668H2896C2891.55 640.668 2887.91 644.302 2887.91 648.757C2887.91 653.243 2891.55 656.877 2896 656.877H2984.66C2989.11 656.877 2992.74 653.243 2992.74 648.757C2992.74 644.302 2989.11 640.668 2984.66 640.668Z" fill="#E6E6E6"/>
<path d="M3130.87 1005H2453.13C2424.93 1005 2402 1027.86 2402 1055.98V1102.02C2402 1130.14 2424.93 1153 2453.13 1153H3130.87C3159.07 1153 3182 1130.14 3182 1102.02V1055.98C3182 1027.86 3159.07 1005 3130.87 1005Z" fill="#68B82D"/>
<path d="M2614.88 1864.63L2589 1852.29C2599.61 1867.2 2608.76 1890.48 2613.65 1909C2621.94 1891.75 2635.31 1870.63 2648.53 1858.02L2621.19 1865.1C2638.04 1781.99 2701.42 1722.33 2774 1722.33V1716C2698.19 1716 2632.08 1778.16 2614.88 1864.63Z" fill="#3F3D56"/>
<path d="M2734.33 1991H2569.67C2562.68 1991 2557 1985.17 2557 1978C2557 1970.83 2562.68 1965 2569.67 1965H2734.33C2741.32 1965 2747 1970.83 2747 1978C2747 1985.17 2741.32 1991 2734.33 1991Z" fill="#E6E6E6"/>
<path d="M3135.7 3319.68V2986.44C3135.7 2986.44 3265.58 3222.7 3135.7 3319.68Z" fill="#68B82D"/>
<path d="M3143.72 3319.63L2898.2 3094.26C2898.2 3094.26 3160.1 3158.37 3143.72 3319.63Z" fill="#68B82D"/>
<path d="M2277.76 1470.4L974.903 2231.79C970.343 2234.44 964.915 2235.19 959.809 2233.85C954.704 2232.51 950.338 2229.2 947.669 2224.65L109.846 791.33C107.188 786.77 106.447 781.343 107.786 776.238C109.125 771.133 112.434 766.767 116.988 764.099L1419.85 2.71616C1424.41 0.0583176 1429.84 -0.682458 1434.94 0.656349C1440.05 1.99515 1444.41 5.30422 1447.08 9.85759L2284.9 1443.17C2287.56 1447.73 2288.3 1453.16 2286.96 1458.27C2285.63 1463.37 2282.32 1467.74 2277.76 1470.4Z" fill="white"/>
<path d="M2277.76 1470.4L974.903 2231.79C970.343 2234.44 964.915 2235.19 959.809 2233.85C954.704 2232.51 950.338 2229.2 947.669 2224.65L109.846 791.33C107.188 786.77 106.447 781.343 107.786 776.238C109.125 771.133 112.434 766.767 116.988 764.099L1419.85 2.71616C1424.41 0.0583176 1429.84 -0.682458 1434.94 0.656349C1440.05 1.99515 1444.41 5.30422 1447.08 9.85759L2284.9 1443.17C2287.56 1447.73 2288.3 1453.16 2286.96 1458.27C2285.63 1463.37 2282.32 1467.74 2277.76 1470.4ZM121.007 770.973C118.274 772.574 116.288 775.194 115.485 778.257C114.682 781.32 115.126 784.576 116.721 787.312L954.544 2220.63C956.145 2223.36 958.765 2225.35 961.828 2226.15C964.892 2226.95 968.149 2226.51 970.885 2224.91L2273.74 1463.53C2276.48 1461.93 2278.46 1459.31 2279.27 1456.25C2280.07 1453.18 2279.62 1449.93 2278.03 1447.19L1440.21 13.8752C1438.6 11.1431 1435.99 9.15751 1432.92 8.35421C1429.86 7.55091 1426.6 7.99546 1423.87 9.59034L121.007 770.973Z" fill="#3F3D56"/>
<path d="M958.489 913.711L635.353 1102.55C630.793 1105.21 625.365 1105.95 620.259 1104.61C615.153 1103.27 610.787 1099.96 608.119 1095.41L419.257 772.311C416.599 767.752 415.858 762.324 417.197 757.219C418.536 752.114 421.845 747.749 426.399 745.081L749.536 556.242C754.096 553.584 759.524 552.843 764.63 554.182C769.735 555.521 774.101 558.83 776.77 563.383L965.631 886.481C968.29 891.04 969.031 896.468 967.692 901.573C966.353 906.678 963.043 911.043 958.489 913.711ZM430.418 751.955C427.685 753.556 425.699 756.175 424.896 759.238C424.093 762.301 424.537 765.558 426.132 768.293L614.994 1091.39C616.595 1094.12 619.215 1096.11 622.278 1096.91C625.342 1097.72 628.599 1097.27 631.335 1095.68L954.471 906.837C957.204 905.236 959.189 902.617 959.993 899.554C960.796 896.491 960.352 893.234 958.756 890.498L769.895 567.401C768.294 564.669 765.674 562.683 762.611 561.88C759.547 561.077 756.29 561.521 753.554 563.116L430.418 751.955Z" fill="#F2F2F2"/>
<path d="M955.95 965.473L632.813 1154.31C628.709 1156.7 623.824 1157.37 619.229 1156.17C614.634 1154.96 610.705 1151.98 608.303 1147.88L419.441 824.787C417.049 820.684 416.382 815.799 417.587 811.205C418.792 806.61 421.77 802.681 425.869 800.28L749.006 611.441C753.11 609.049 757.995 608.382 762.59 609.587C767.185 610.792 771.114 613.77 773.516 617.868L962.378 940.966C964.77 945.069 965.437 949.954 964.232 954.548C963.027 959.143 960.048 963.072 955.95 965.473Z" fill="#68B82D"/>
<path d="M1668.72 763.806L658.063 1354.43C653.961 1356.83 649.073 1357.5 644.477 1356.29C639.88 1355.09 635.951 1352.11 633.553 1348C631.155 1343.9 630.485 1339.01 631.691 1334.42C632.896 1329.82 635.878 1325.89 639.981 1323.5L1650.64 732.871C1652.67 731.684 1654.92 730.909 1657.25 730.589C1659.58 730.27 1661.95 730.413 1664.23 731.009C1666.5 731.606 1668.64 732.645 1670.52 734.068C1672.39 735.49 1673.97 737.268 1675.15 739.299C1676.34 741.33 1677.12 743.575 1677.44 745.906C1677.75 748.237 1677.61 750.608 1677.01 752.884C1676.42 755.159 1675.38 757.295 1673.96 759.169C1672.53 761.044 1670.76 762.619 1668.72 763.806Z" fill="#CCCCCC"/>
<path d="M1486.94 1012.99L720.348 1460.98C718.316 1462.17 716.071 1462.95 713.74 1463.27C711.408 1463.59 709.037 1463.44 706.761 1462.85C702.165 1461.64 698.235 1458.66 695.837 1454.56C693.439 1450.45 692.769 1445.57 693.975 1440.97C695.18 1436.38 698.162 1432.45 702.265 1430.05L1468.86 982.059C1470.89 980.872 1473.13 980.096 1475.46 979.777C1477.79 979.457 1480.17 979.6 1482.44 980.197C1484.72 980.794 1486.85 981.833 1488.73 983.255C1490.6 984.677 1492.18 986.455 1493.37 988.486C1494.55 990.517 1495.33 992.763 1495.65 995.094C1495.97 997.424 1495.82 999.795 1495.23 1002.07C1494.63 1004.35 1493.59 1006.48 1492.17 1008.36C1490.75 1010.23 1488.97 1011.81 1486.94 1012.99Z" fill="#CCCCCC"/>
<path d="M1436.24 373.973L989.352 635.134C985.249 637.531 980.362 638.201 975.765 636.996C971.168 635.79 967.239 632.809 964.841 628.706C962.443 624.604 961.773 619.718 962.979 615.122C964.184 610.525 967.166 606.596 971.269 604.199L1418.16 343.038C1422.26 340.641 1427.15 339.971 1431.75 341.176C1434.02 341.773 1436.16 342.812 1438.03 344.235C1439.91 345.657 1441.48 347.435 1442.67 349.466C1443.86 351.497 1444.63 353.742 1444.95 356.073C1445.27 358.404 1445.13 360.775 1444.53 363.051C1443.94 365.326 1442.9 367.462 1441.47 369.336C1440.05 371.211 1438.27 372.786 1436.24 373.973Z" fill="#CCCCCC"/>
<path d="M1387 545.704L1051.63 741.687C1049.6 742.875 1047.36 743.65 1045.03 743.97C1042.7 744.289 1040.32 744.146 1038.05 743.549C1035.77 742.953 1033.64 741.913 1031.76 740.491C1029.89 739.069 1028.31 737.291 1027.12 735.26C1025.94 733.229 1025.16 730.984 1024.84 728.653C1024.52 726.322 1024.66 723.951 1025.26 721.675C1025.86 719.399 1026.9 717.264 1028.32 715.389C1029.74 713.515 1031.52 711.94 1033.55 710.753L1368.91 514.769C1373.02 512.371 1377.9 511.702 1382.5 512.907C1387.1 514.112 1391.03 517.094 1393.42 521.196C1395.82 525.298 1396.49 530.185 1395.29 534.781C1394.08 539.377 1391.1 543.306 1387 545.704Z" fill="#CCCCCC"/>
<path d="M1793.29 976.913L782.632 1567.54C778.529 1569.94 773.642 1570.6 769.045 1569.4C764.449 1568.19 760.519 1565.21 758.121 1561.11C755.723 1557.01 755.054 1552.12 756.259 1547.53C757.465 1542.93 760.447 1539 764.549 1536.6L1775.21 945.978C1779.31 943.581 1784.2 942.911 1788.8 944.116C1793.39 945.322 1797.32 948.303 1799.72 952.406C1802.12 956.508 1802.79 961.395 1801.58 965.991C1800.38 970.587 1797.4 974.516 1793.29 976.913Z" fill="#CCCCCC"/>
<path d="M1611.51 1226.1L844.916 1674.09C842.884 1675.28 840.639 1676.05 838.308 1676.37C835.977 1676.69 833.605 1676.55 831.329 1675.95C829.053 1675.36 826.917 1674.32 825.043 1672.9C823.169 1671.47 821.593 1669.7 820.405 1667.66C819.218 1665.63 818.443 1663.39 818.123 1661.06C817.803 1658.73 817.946 1656.35 818.543 1654.08C819.14 1651.8 820.179 1649.67 821.602 1647.79C823.024 1645.92 824.802 1644.34 826.833 1643.16L1593.42 1195.17C1595.45 1193.98 1597.7 1193.2 1600.03 1192.88C1602.36 1192.56 1604.73 1192.71 1607.01 1193.3C1609.29 1193.9 1611.42 1194.94 1613.3 1196.36C1615.17 1197.78 1616.75 1199.56 1617.93 1201.59C1619.12 1203.62 1619.9 1205.87 1620.22 1208.2C1620.54 1210.53 1620.39 1212.9 1619.8 1215.18C1619.2 1217.45 1618.16 1219.59 1616.74 1221.46C1615.32 1223.34 1613.54 1224.91 1611.51 1226.1Z" fill="#CCCCCC"/>
<path d="M1917.86 1190.02L907.2 1780.64C905.169 1781.83 902.923 1782.61 900.592 1782.93C898.261 1783.25 895.89 1783.1 893.614 1782.51C891.338 1781.91 889.201 1780.87 887.327 1779.45C885.453 1778.03 883.877 1776.25 882.69 1774.22C881.502 1772.19 880.727 1769.94 880.407 1767.61C880.088 1765.28 880.23 1762.91 880.827 1760.63C881.424 1758.36 882.464 1756.22 883.886 1754.35C885.309 1752.47 887.086 1750.9 889.118 1749.71L1899.78 1159.09C1901.81 1157.9 1904.06 1157.12 1906.39 1156.8C1908.72 1156.48 1911.09 1156.63 1913.37 1157.22C1915.64 1157.82 1917.78 1158.86 1919.65 1160.28C1921.53 1161.7 1923.1 1163.48 1924.29 1165.51C1925.48 1167.54 1926.25 1169.79 1926.57 1172.12C1926.89 1174.45 1926.75 1176.82 1926.15 1179.1C1925.55 1181.37 1924.52 1183.51 1923.09 1185.38C1921.67 1187.26 1919.89 1188.83 1917.86 1190.02Z" fill="#CCCCCC"/>
<path d="M1980.15 1296.57L969.484 1887.2C967.453 1888.39 965.207 1889.16 962.876 1889.48C960.545 1889.8 958.174 1889.66 955.898 1889.06C953.622 1888.46 951.486 1887.42 949.611 1886C947.737 1884.58 946.161 1882.8 944.974 1880.77C943.786 1878.74 943.011 1876.49 942.691 1874.16C942.372 1871.83 942.515 1869.46 943.111 1867.19C943.708 1864.91 944.748 1862.77 946.17 1860.9C947.593 1859.03 949.37 1857.45 951.402 1856.26L1962.06 1265.64C1964.09 1264.45 1966.34 1263.68 1968.67 1263.36C1971 1263.04 1973.37 1263.18 1975.65 1263.78C1977.93 1264.37 1980.06 1265.41 1981.94 1266.84C1983.81 1268.26 1985.39 1270.04 1986.57 1272.07C1987.76 1274.1 1988.54 1276.34 1988.86 1278.67C1989.18 1281 1989.03 1283.38 1988.44 1285.65C1987.84 1287.93 1986.8 1290.06 1985.38 1291.94C1983.95 1293.81 1982.18 1295.39 1980.15 1296.57Z" fill="#CCCCCC"/>
<path d="M1653.32 1711.37C1667.36 1694.84 1680 1677.17 1691.1 1658.53C1701.06 1641.72 1710.83 1623.75 1713.03 1604.04C1714.15 1595.64 1713.28 1587.1 1710.48 1579.11C1707.68 1571.12 1703.03 1563.9 1696.91 1558.04C1691 1552.59 1683.5 1549.16 1675.52 1548.25C1667.53 1547.35 1659.45 1549 1652.47 1552.99C1645.4 1557.04 1639.56 1562.94 1635.57 1570.04C1631.58 1577.14 1629.58 1585.2 1629.79 1593.34C1630.36 1602.31 1632.95 1611.03 1637.37 1618.86C1641.79 1626.69 1647.91 1633.42 1655.29 1638.55C1685.17 1660.19 1731.82 1659.06 1763.66 1642.59C1799.52 1624.04 1818.05 1575.51 1789.88 1542.29C1784.01 1535.38 1774.26 1543.1 1775.73 1550.56C1777.59 1560.63 1783.23 1569.6 1791.49 1575.66C1799.75 1581.71 1810.01 1584.38 1820.17 1583.12C1830.33 1581.87 1839.63 1576.78 1846.17 1568.9C1852.7 1561.02 1855.98 1550.94 1855.34 1540.72L1842.67 1548.12C1858.2 1555 1875.27 1557.67 1892.15 1555.86C1909.04 1554.04 1925.15 1547.82 1938.87 1537.8C1945.65 1532.87 1951.71 1527.02 1956.87 1520.41C1963.07 1512.32 1973.48 1507.1 1981.92 1501.27L2042.69 1459.28C2051.63 1453.11 2043.13 1438.39 2034.12 1444.62L1979.08 1482.64C1969.91 1488.98 1960.67 1495.24 1951.56 1501.65C1945.04 1506.24 1941.03 1513.65 1935.1 1519.09C1923.88 1529.19 1910.01 1535.89 1895.12 1538.41C1880.23 1540.93 1864.94 1539.16 1851.01 1533.32C1849.72 1532.62 1848.26 1532.27 1846.79 1532.29C1845.32 1532.32 1843.88 1532.72 1842.6 1533.47C1841.33 1534.21 1840.27 1535.27 1839.53 1536.54C1838.78 1537.81 1838.38 1539.25 1838.35 1540.72C1839.02 1546.82 1837.25 1552.93 1833.43 1557.73C1829.62 1562.54 1824.06 1565.63 1817.96 1566.36C1811.87 1567.08 1805.74 1565.36 1800.91 1561.59C1796.07 1557.81 1792.93 1552.28 1792.15 1546.19L1778.01 1554.46C1796.19 1575.89 1784.08 1608.76 1763.14 1623.14C1739.73 1639.22 1705.12 1642.01 1678.73 1632.01C1672.25 1629.79 1666.31 1626.25 1661.26 1621.62C1656.21 1616.99 1652.18 1611.37 1649.4 1605.11C1646.83 1599.46 1646.09 1593.14 1647.3 1587.04C1648.51 1580.95 1651.6 1575.39 1656.14 1571.14C1660.07 1567.26 1665.35 1565.06 1670.88 1565C1676.4 1564.94 1681.74 1567.03 1685.75 1570.83C1690.12 1575.29 1693.33 1580.76 1695.09 1586.75C1696.85 1592.74 1697.11 1599.08 1695.84 1605.19C1693.12 1622.21 1683.71 1637.91 1674.96 1652.44C1664.96 1669.01 1653.66 1684.75 1641.15 1699.51C1634.14 1707.8 1646.24 1719.75 1653.32 1711.37Z" fill="#68B82D"/>
<path d="M1804.16 2115.29C1805.63 2116.8 1806.97 2118.42 1808.18 2120.14L1996.38 2115.53L2018.33 2075.42L2083.21 2100.63L2051.25 2175.43C2048.66 2181.47 2044.19 2186.51 2038.5 2189.79C2032.81 2193.08 2026.2 2194.43 2019.68 2193.64L1807.05 2167.96C1802.03 2174.31 1795.2 2178.98 1787.47 2181.35C1779.73 2183.72 1771.46 2183.68 1763.74 2181.24C1756.03 2178.8 1749.24 2174.06 1744.29 2167.67C1739.33 2161.27 1736.44 2153.52 1735.99 2145.44C1735.55 2137.36 1737.58 2129.34 1741.81 2122.44C1746.03 2115.54 1752.26 2110.1 1759.66 2106.82C1767.06 2103.55 1775.28 2102.61 1783.23 2104.12C1791.18 2105.63 1798.48 2109.53 1804.16 2115.29Z" fill="#FFB7B7"/>
<path d="M2417.66 3258.1H2355.78L2326.34 3019.45L2417.67 3019.45L2417.66 3258.1Z" fill="#FFB7B7"/>
<path d="M2433.44 3318.08L2233.91 3318.08V3315.55C2233.91 3294.96 2242.1 3275.21 2256.66 3260.65C2271.22 3246.08 2290.98 3237.9 2311.57 3237.9H2311.58L2433.45 3237.91L2433.44 3318.08Z" fill="black"/>
<path d="M1855.76 3256.73L1798.85 3232.42L1865.54 3001.39L1949.53 3037.26L1855.76 3256.73Z" fill="#FFB7B7"/>
<path d="M1846.71 3318.08L1663.22 3239.71L1664.21 3237.38C1672.3 3218.45 1687.59 3203.5 1706.7 3195.83C1725.82 3188.16 1747.2 3188.39 1766.14 3196.48L1766.14 3196.48L1878.21 3244.35L1846.71 3318.08Z" fill="black"/>
<path d="M2116.88 2166.99L2112.4 2239.5L2243.2 2253.49L2380.07 2268.14L2339.78 2158.04L2116.88 2166.99Z" fill="#FFB7B7"/>
<path d="M2108.28 2240.43L2057.47 1886.23L2145.54 1857.37L2171.41 1821.9L2297.3 1829.35L2315.78 1870.74L2382.9 1902.46L2372.59 2094.01L2380.11 2254.25L2108.28 2240.43Z" fill="black"/>
<path d="M2076.3 2145.51L1986.72 2109.67L1987.1 2108.08C1987.48 2106.47 2025.61 1947.16 2030.67 1921.55C2035.95 1894.88 2055.22 1887.51 2056.03 1887.21L2056.63 1886.99L2092.09 1897.78L2107.66 2020.11L2076.3 2145.51Z" fill="black"/>
<path d="M1901.85 3214.79L1782.6 3190.33L1973.2 2664.46L2038.43 2485.09C2038.43 2485.09 2079.8 2341.27 2098.5 2285.62L2109.78 2210.94L2376.82 2240.5C2376.82 2240.5 2451.4 2350.02 2428.75 2528.53L2438.99 3199.5L2319.74 3205.61L2219.86 2528.91L2044.54 2899.88C2044.54 2899.88 1989.29 3058.18 1949.75 3092.49L1901.85 3214.79Z" fill="black"/>
<path d="M2269.73 2265.4C2271.83 2265.35 2273.93 2265.47 2276.01 2265.75L2400.59 2124.63L2386.1 2081.26L2448.71 2050.83L2481.82 2125.12C2484.5 2131.13 2485.16 2137.83 2483.69 2144.24C2482.23 2150.65 2478.73 2156.4 2473.72 2160.65L2310.31 2299.09C2311.56 2307.09 2310.34 2315.27 2306.82 2322.56C2303.3 2329.84 2297.65 2335.88 2290.61 2339.88C2283.58 2343.87 2275.49 2345.63 2267.43 2344.91C2259.37 2344.2 2251.72 2341.05 2245.49 2335.88C2239.27 2330.72 2234.76 2323.77 2232.58 2315.98C2230.39 2308.19 2230.63 2299.92 2233.26 2292.27C2235.89 2284.62 2240.79 2277.95 2247.31 2273.15C2253.82 2268.35 2261.64 2265.65 2269.73 2265.4Z" fill="#FFB7B7"/>
<path d="M2390.65 2138.36L2338.68 2016.14L2358.95 1931L2380.79 1903.41C2382.39 1902.73 2384.11 1902.38 2385.85 1902.4C2387.59 1902.41 2389.31 1902.79 2390.89 1903.5C2398.95 1906.75 2405.81 1916.68 2411.28 1933.03L2459.99 2071.74L2390.65 2138.36Z" fill="black"/>
<path d="M2121.02 1776.61V1684.46C2121.02 1651.71 2134.03 1620.3 2157.19 1597.15C2180.35 1573.99 2211.76 1560.98 2244.52 1560.98C2277.27 1560.98 2308.68 1573.99 2331.84 1597.15C2355 1620.3 2368.01 1651.71 2368.01 1684.46V1776.61C2368.01 1781.01 2366.26 1785.22 2363.15 1788.33C2360.04 1791.44 2355.82 1793.19 2351.42 1793.2H2137.61C2133.21 1793.19 2129 1791.44 2125.89 1788.33C2122.78 1785.22 2121.03 1781.01 2121.02 1776.61Z" fill="black"/>
<path d="M2219.14 1791.05C2269.14 1791.05 2309.68 1750.52 2309.68 1700.52C2309.68 1650.52 2269.14 1609.99 2219.14 1609.99C2169.14 1609.99 2128.6 1650.52 2128.6 1700.52C2128.6 1750.52 2169.14 1791.05 2219.14 1791.05Z" fill="#FFB7B7"/>
<path d="M2091.81 1691.83C2091.84 1665.94 2102.14 1641.11 2120.45 1622.8C2138.77 1604.48 2163.6 1594.18 2189.5 1594.15H2207.93C2233.83 1594.18 2258.66 1604.48 2276.97 1622.8C2295.29 1641.11 2305.59 1665.94 2305.62 1691.83V1693.68H2266.66L2253.38 1656.48L2250.72 1693.68H2230.59L2223.89 1674.91L2222.55 1693.68H2091.81L2091.81 1691.83Z" fill="black"/>
<path d="M2210.23 1803.56C2208.4 1801.08 2207.31 1798.14 2207.08 1795.07C2206.85 1792 2207.49 1788.93 2208.93 1786.21C2228.46 1749.06 2255.81 1680.42 2219.51 1638.09L2216.9 1635.05H2322.29V1793.25L2226.55 1810.14C2225.58 1810.31 2224.6 1810.4 2223.62 1810.4C2221 1810.4 2218.43 1809.78 2216.1 1808.59C2213.77 1807.4 2211.76 1805.68 2210.23 1803.56Z" fill="black"/>
<path d="M980.899 3205.98L1036.82 3225.96L1140.53 3019.79L1057.99 2990.29L980.899 3205.98Z" fill="#9F616A"/>
<path d="M947.259 3255.08L973.159 3182.62L1083.29 3221.98C1101.89 3228.65 1117.09 3242.42 1125.55 3260.28C1134 3278.14 1135.03 3298.62 1128.4 3317.24L1127.58 3319.52L947.259 3255.08Z" fill="black"/>
<path d="M1344.56 3261.28L1403.95 3261.28L1432.2 3032.24L1344.55 3032.24L1344.56 3261.28Z" fill="#9F616A"/>
<path d="M1329.41 3241.9L1446.37 3241.89H1446.37C1456.16 3241.89 1465.85 3243.82 1474.89 3247.56C1483.94 3251.31 1492.15 3256.8 1499.07 3263.72C1506 3270.64 1511.49 3278.85 1515.23 3287.9C1518.98 3296.94 1520.91 3306.63 1520.91 3316.42V3318.84L1329.41 3318.84L1329.41 3241.9Z" fill="black"/>
<path d="M1209.21 1797.99L1235.04 1746.96C1235.04 1746.96 1331.26 1771.06 1340 1826.82L1209.21 1797.99Z" fill="#F1F1F1"/>
<path d="M1102.64 2381.47L1172.88 2773.38L986.378 3103.16L1097.79 3146.76L1286.72 2827.08L1310.94 2739.89L1325.47 3195.19L1425.95 3192.14L1472.02 2767L1398.13 2371.78L1102.64 2381.47Z" fill="black"/>
<path d="M1235.97 2474.12C1132.79 2474.12 1067.27 2454.38 1065.8 2454.07L1063.43 2453.57L1117.17 2204.41L1119.59 1974.59C1119.59 1877.19 1183.7 1805.39 1192.6 1798.76C1194.09 1792.85 1196.86 1787.34 1200.71 1782.61C1204.56 1777.88 1209.4 1774.05 1214.88 1771.38C1236.27 1761.68 1262.4 1773.32 1263.5 1773.82L1341.93 1803.22L1342.3 1804.31C1343.24 1807.09 1446.55 2146.19 1446.55 2146.19C1446.55 2146.19 1440.29 2442.47 1438.11 2452.17C1438.11 2452.17 1293.3 2474.12 1235.97 2474.12Z" fill="#969696"/>
<path d="M1315.26 1730.89C1373.8 1730.89 1421.26 1683.44 1421.26 1624.9C1421.26 1566.36 1373.8 1518.91 1315.26 1518.91C1256.72 1518.91 1209.26 1566.36 1209.26 1624.9C1209.26 1683.44 1256.72 1730.89 1315.26 1730.89Z" fill="#9F616A"/>
<path opacity="0.2" d="M1197.07 1993.38L1382.52 2252.1L1409.91 2131.28L1197.07 1993.38Z" fill="black"/>
<path d="M1778.5 2169.42C1773.29 2173.54 1767.23 2176.48 1760.76 2178.01C1754.29 2179.54 1747.56 2179.63 1741.05 2178.28C1734.53 2176.93 1728.4 2174.17 1723.07 2170.19C1717.74 2166.22 1713.35 2161.12 1710.2 2155.26L1550.58 2180.81L1585.16 2104.26L1731.44 2091.73C1741.63 2087.1 1753.17 2086.37 1763.87 2089.68C1774.57 2092.98 1783.68 2100.1 1789.48 2109.67C1795.28 2119.25 1797.37 2130.62 1795.34 2141.63C1793.32 2152.64 1787.33 2162.53 1778.5 2169.42Z" fill="#9F616A"/>
<path d="M1593.38 2099.9L1650.73 2094.28L1666.63 2174.28L1594.45 2175.55L1593.38 2099.9Z" fill="#F1F1F1"/>
<path d="M1640.39 2202.15L1359.49 2177.14L1217.65 1951.6L1217.22 1949.6C1213.19 1931.18 1216.01 1911.92 1225.15 1895.42C1234.28 1878.92 1249.11 1866.31 1266.87 1859.94C1284.62 1853.58 1304.09 1853.89 1321.63 1860.82C1339.17 1867.75 1353.59 1880.83 1362.19 1897.61L1445.45 2060L1613.49 2085.4L1640.39 2202.15Z" fill="#969696"/>
<path d="M1224.97 1716.93L1312.95 1720.08C1318.31 1720.28 1332.87 1662.4 1334.78 1650.4C1336.28 1642.58 1340.58 1635.58 1346.87 1630.7C1353.16 1625.83 1361.01 1623.4 1368.96 1623.89C1375.55 1624.51 1392.15 1612.21 1409.29 1597.64C1441.83 1569.98 1440.14 1518.04 1404.39 1494.67C1403.42 1494.03 1402.46 1493.45 1401.52 1492.92C1378.97 1480.3 1352.59 1476.06 1326.76 1475.74C1303.34 1475.45 1279.25 1478.39 1258.62 1489.48C1221.62 1509.35 1201.94 1552.78 1200.21 1594.73C1198.48 1636.68 1211.93 1677.71 1227.19 1716.82" fill="black"/>
<path d="M3430.56 3323H4.60724C3.38532 3323 2.21345 3322.51 1.34943 3321.65C0.485401 3320.79 0 3319.62 0 3318.39C0 3317.17 0.485401 3316 1.34943 3315.14C2.21345 3314.27 3.38532 3313.79 4.60724 3313.79H3432.39C3433.61 3313.79 3434.79 3314.27 3435.65 3315.14C3436.51 3316 3437 3317.17 3437 3318.39C3437 3320.94 3433.11 3323 3430.56 3323Z" fill="#CBCBCB"/>
</g>
<defs>
<clipPath id="clip0_255_277">
<rect width="3437" height="3323" fill="white"/>
</clipPath>
</defs>
</svg>
