<svg width="2410" height="2409" viewBox="0 0 2410 2409" fill="none" xmlns="http://www.w3.org/2000/svg">
<path d="M1878.74 1842.67C1784.22 1842.67 1695.33 1805.88 1628.49 1739.08L1267.16 1377.79C1241.79 1352.36 1197.57 1352.43 1172.21 1377.79L809.563 1740.4C742.726 1807.2 653.83 1843.99 559.317 1843.99H488.109L945.748 2301.56C1088.66 2444.46 1320.39 2444.46 1463.32 2301.56L1922.26 1842.67H1878.74Z" fill="#32BCAD"/>
<path d="M559.312 564.74C653.825 564.74 742.722 601.536 809.558 668.332L1172.21 1031C1198.33 1057.13 1240.97 1057.22 1267.15 1030.97L1628.48 669.654C1695.32 602.858 1784.22 566.062 1878.73 566.062H1922.25L1463.32 107.182C1320.39 -35.7274 1088.66 -35.7274 945.743 107.182L488.125 564.741L559.312 564.74Z" fill="#32BCAD"/>
<path d="M2301.87 945.617L2024.53 668.315C2018.42 670.76 2011.81 672.287 2004.83 672.287H1878.73C1813.54 672.287 1749.72 698.726 1703.66 744.818L1342.34 1106.1C1308.52 1139.91 1264.09 1156.83 1219.7 1156.83C1175.27 1156.83 1130.88 1139.91 1097.07 1106.13L734.388 743.498C688.322 697.395 624.506 670.967 559.314 670.967H404.264C397.651 670.967 391.471 669.408 385.637 667.211L107.196 945.617C-35.7319 1088.53 -35.7319 1320.21 107.196 1463.12L385.626 1741.52C391.47 1739.32 397.651 1737.76 404.264 1737.76H559.314C624.506 1737.76 688.322 1711.33 734.388 1665.24L1097.04 1302.64C1162.59 1237.15 1276.85 1237.13 1342.34 1302.67L1703.66 1663.92C1749.72 1710.01 1813.54 1736.45 1878.73 1736.45H2004.83C2011.81 1736.45 2018.42 1737.97 2024.53 1740.42L2301.87 1463.12C2444.78 1320.21 2444.78 1088.53 2301.87 945.617Z" fill="#32BCAD"/>
</svg>
