<svg width="45" height="42" viewBox="0 0 45 42" fill="none" xmlns="http://www.w3.org/2000/svg">
<path d="M39.3751 5.64841V0.46844C39.3751 0.286284 39.2698 0.121003 39.105 0.0436588C38.9411 -0.0323724 38.7442 -0.00809054 38.6061 0.108628C32.1948 5.46953 22.2691 6.53519 21.9967 6.56331L10.8957 7.30328C9.39928 7.40303 7.90519 7.64754 6.45544 8.02975C5.41463 8.30388 4.68788 9.24035 4.68759 10.3067H4.21875C1.89244 10.3067 0 12.5067 0 15.2111V18.5376C0 21.2421 1.89244 23.4421 4.21875 23.4421H4.68759C4.68778 24.5084 5.41463 25.4448 6.45544 25.719C7.30613 25.9433 8.17294 26.114 9.04575 26.2421C9.51666 26.6686 11.2395 28.3893 11.9353 31.3143C12.589 34.0613 12.1056 36.8367 10.5743 39.1301C10.2942 39.5499 10.269 40.0667 10.5075 40.5121C10.7515 40.9684 11.2289 41.2518 11.7535 41.2518H20.1283C20.5444 41.2518 20.9367 41.0738 21.2045 40.7629C21.4636 40.4622 21.5789 40.0657 21.5208 39.6749C21.2157 37.6326 20.3159 31.6265 18.3065 26.9399L21.9967 27.186C22.2688 27.2141 32.1946 28.2793 38.606 33.6407C38.6911 33.7126 38.7983 33.7496 38.9062 33.7496C38.974 33.7496 39.0417 33.735 39.1049 33.7056C39.2697 33.6283 39.375 33.463 39.375 33.2808V28.1009C42.5161 27.8599 45 25.2327 45 22.0308V11.7183C45 8.5166 42.5162 5.88935 39.3751 5.64841ZM0.937594 18.5377V15.2112C0.937594 13.024 2.40975 11.2443 4.21884 11.2443H4.68759V22.5048H4.21884C2.40975 22.5048 0.937594 20.7249 0.937594 18.5377ZM20.5935 39.8132C20.6118 39.9359 20.5765 40.0558 20.4941 40.151C20.4049 40.2549 20.2712 40.3144 20.1284 40.3144H11.7536C11.5728 40.3144 11.4158 40.2228 11.3343 40.07C11.2995 40.0051 11.2317 39.8343 11.3544 39.6512C13.0317 37.1385 13.5623 34.1008 12.8472 31.0974C12.3233 28.8951 11.2779 27.3374 10.493 26.4091C10.6273 26.4203 10.7614 26.4366 10.8957 26.4456L17.2478 26.8693C18.6414 29.941 19.7683 34.2866 20.5935 39.8132ZM21.5626 26.2172L10.9581 25.5099C9.52116 25.4142 8.0865 25.1798 6.69441 24.8127C6.06497 24.6466 5.62509 24.083 5.62509 23.4417V10.307C5.62509 9.66569 6.06497 9.10216 6.69441 8.93604C8.0865 8.56891 9.52106 8.33454 10.9581 8.23882L21.5626 7.53203V26.2172ZM38.4376 32.3082C32.4667 27.7747 24.4103 26.5383 22.5001 26.3009V7.44841C24.4103 7.21103 32.4667 5.97419 38.4376 1.4411V32.3082ZM44.0626 22.0309C44.0626 24.7158 41.9988 26.9254 39.3751 27.1635V6.58591C41.9988 6.82385 44.0626 9.03353 44.0626 11.7184V22.0309Z" fill="#68B82D"/>
</svg>
