<svg width="135" height="39" viewBox="0 0 135 39" fill="none" xmlns="http://www.w3.org/2000/svg">
<path d="M7.72528 0.507003C4.99211 1.65348 1.98745 4.8924 1.03848 8.95796C-0.163311 14.1092 4.83792 16.2875 5.24812 15.5732C5.73093 14.734 4.35196 14.4502 4.06811 11.7775C3.70126 8.32551 5.30272 4.46828 7.31821 2.77584C7.69285 2.4614 7.67503 2.89905 7.67503 3.70856C7.67503 5.15615 7.59521 18.1513 7.59521 20.8634C7.59521 24.5332 7.44396 25.6921 7.1723 26.8372C6.89705 27.9977 6.45454 28.7818 6.78985 29.0838C7.16447 29.4216 8.764 28.618 9.68998 27.3229C10.8004 25.7696 11.1891 23.9042 11.2589 21.8784C11.3431 19.4364 11.3395 15.5614 11.3431 13.3511C11.3465 11.3239 11.3772 5.388 11.3077 1.81953C11.2906 0.944259 8.8683 0.0259689 7.72514 0.505938L7.72528 0.507003ZM104.78 17.6815C104.692 19.5893 104.27 21.0806 103.747 22.1324C102.735 24.1687 100.634 24.801 99.7414 21.8738C99.2553 20.2781 99.2326 17.6131 99.5821 15.3864C99.9379 13.118 100.931 11.4049 102.576 11.5594C104.199 11.7121 104.958 13.8074 104.78 17.6815ZM77.4258 29.5182C77.4038 32.6882 76.9059 35.4677 75.8383 36.2749C74.324 37.4196 72.2888 36.561 72.7102 34.2478C73.0831 32.2008 74.8466 30.1104 77.4301 27.5562C77.4301 27.5562 77.4354 28.1386 77.4258 29.5182ZM77.0122 17.663C76.9196 19.4007 76.4701 21.1463 75.9797 22.1327C74.9673 24.169 72.8509 24.8056 71.9739 21.874C71.3742 19.871 71.5178 17.2787 71.8145 15.6452C72.1995 13.5259 73.1328 11.5598 74.8089 11.5598C76.4384 11.5598 77.242 13.3513 77.0122 17.663ZM61.166 17.6364C61.0667 19.4768 60.7084 21.0152 60.1335 22.1327C59.0932 24.155 57.0353 24.7963 56.1277 21.874C55.4734 19.7668 55.6961 16.8935 55.9683 15.3414C56.3722 13.0381 57.3837 11.4051 58.9626 11.5598C60.5846 11.7186 61.373 13.8074 61.166 17.6364ZM133.786 19.7861C133.389 19.7861 133.208 20.1956 133.058 20.885C132.539 23.282 131.994 23.8232 131.29 23.8232C130.504 23.8232 129.797 22.6363 129.616 20.2604C129.473 18.3921 129.496 14.9526 129.678 11.5312C129.716 10.8283 129.522 10.1328 127.64 9.4478C126.831 9.15318 125.654 8.71937 125.068 10.1368C123.412 14.1413 122.765 17.3206 122.612 18.6121C122.604 18.6789 122.523 18.6926 122.508 18.5364C122.411 17.502 122.194 15.6223 122.167 11.6729C122.162 10.9024 121.999 10.2465 121.15 9.70952C120.599 9.36109 118.927 8.74483 118.325 9.47797C117.803 10.0776 117.199 11.6912 116.571 13.6039C116.061 15.1585 115.706 16.2102 115.706 16.2102C115.706 16.2102 115.713 12.0155 115.719 10.4244C115.721 9.82418 115.311 9.62416 115.187 9.5879C114.629 9.42571 113.53 9.15477 113.064 9.15477C112.489 9.15477 112.348 9.47708 112.348 9.94671C112.348 10.0082 112.257 15.4693 112.257 19.288C112.257 19.4539 112.257 19.6349 112.259 19.8271C111.94 21.5822 110.908 23.9648 109.786 23.9648C108.662 23.9648 108.132 22.9687 108.132 18.4162C108.132 15.7604 108.211 14.6056 108.25 12.6848C108.273 11.5784 108.317 10.7288 108.314 10.536C108.306 9.94476 107.286 9.64677 106.811 9.53664C106.334 9.42558 105.92 9.38256 105.596 9.40103C105.138 9.42693 104.814 9.72809 104.814 10.1423C104.814 10.3644 104.816 10.7867 104.816 10.7867C104.226 9.8576 103.277 9.21093 102.646 9.02354C100.945 8.51743 99.1709 8.96587 97.8325 10.8428C96.7687 12.3341 96.1274 14.0232 95.875 16.4499C95.6905 18.224 95.7507 20.0231 96.0786 21.5446C95.6824 23.2614 94.9467 23.9648 94.1412 23.9648C92.9717 23.9648 92.1239 22.0519 92.2223 18.7437C92.2873 16.5678 92.7218 15.0408 93.1967 12.8316C93.3992 11.8899 93.2347 11.3969 92.822 10.9243C92.4435 10.491 91.637 10.2696 90.4777 10.5419C89.6519 10.736 88.4712 10.9448 87.391 11.1052C87.391 11.1052 87.4562 10.8446 87.5097 10.3851C87.7906 7.9755 85.1777 8.17101 84.3441 8.94064C83.8464 9.40013 83.5077 9.94206 83.3791 10.9164C83.1753 12.4627 84.4337 13.192 84.4337 13.192C84.0208 15.0861 83.0087 17.5603 81.9638 19.3492C81.4041 20.3076 80.976 21.0178 80.4232 21.7727C80.4212 21.4916 80.4197 21.2105 80.4187 20.9307C80.406 16.9487 80.4589 13.8147 80.4823 12.6852C80.505 11.5788 80.5493 10.7517 80.5468 10.5589C80.5406 10.1265 80.2885 9.96316 79.7644 9.75639C79.3009 9.57351 78.7529 9.44692 78.1845 9.40277C77.4671 9.34669 77.0348 9.72802 77.0461 10.1789C77.0483 10.2641 77.0483 10.7869 77.0483 10.7869C76.4582 9.85775 75.5093 9.2111 74.8779 9.02369C73.1773 8.5178 71.4028 8.96626 70.0643 10.8429C69.0007 12.3343 68.3042 14.4269 68.1068 16.4316C67.923 18.2999 67.9569 19.8876 68.2075 21.2251C67.9372 22.5644 67.1597 23.9649 66.2806 23.9649C65.1568 23.9649 64.5173 22.9688 64.5173 18.4164C64.5173 15.7606 64.5969 14.6058 64.636 12.6852C64.6587 11.5788 64.7025 10.729 64.7001 10.5364C64.6918 9.94515 63.6715 9.64716 63.1968 9.53679C62.7001 9.42169 62.2713 9.37935 61.942 9.40366C61.5075 9.43611 61.202 9.826 61.202 10.1168V10.7869C60.612 9.85775 59.6631 9.2111 59.0317 9.02369C57.3311 8.5178 55.5665 8.97347 54.2181 10.8429C53.3388 12.0619 52.627 13.4134 52.2606 16.405C52.1548 17.2695 52.108 18.0791 52.1141 18.8358C51.7634 20.9846 50.2148 23.4613 48.948 23.4613C48.2068 23.4613 47.5008 22.0205 47.5008 18.9498C47.5008 14.8594 47.7534 9.03563 47.7961 8.47434C47.7961 8.47434 49.3967 8.44709 49.7066 8.44347C50.505 8.43469 51.2281 8.45361 52.2914 8.3991C52.8248 8.37185 53.3386 6.45371 52.7882 6.21632C52.5387 6.10888 50.7754 6.01473 50.0764 5.99986C49.4886 5.98652 47.8523 5.86517 47.8523 5.86517C47.8523 5.86517 47.9991 1.99961 48.0332 1.59126C48.0622 1.25092 47.6228 1.07569 47.3709 0.969367C46.7582 0.709673 46.2099 0.585334 45.5602 0.451093C44.6624 0.265506 44.2551 0.447039 44.1756 1.20632C44.0558 2.35866 43.9937 5.73385 43.9937 5.73385C43.335 5.73385 41.0846 5.6048 40.4256 5.6048C39.8133 5.6048 39.1525 8.24347 39.999 8.2759C40.9729 8.31374 42.6701 8.3464 43.7953 8.38042C43.7953 8.38042 43.7452 14.3001 43.7452 16.1277C43.7452 16.3222 43.7468 16.5094 43.7472 16.6911C43.1279 19.9255 40.9468 21.6727 40.9468 21.6727C41.4152 19.5329 40.4584 17.9261 38.7349 16.5659C38.0999 16.0646 36.8464 15.1157 35.4439 14.0758C35.4439 14.0758 36.2562 13.2735 36.9766 11.6595C37.487 10.5162 37.509 9.20775 36.2562 8.91924C34.1861 8.44217 32.4792 9.96568 31.9701 11.5921C31.5757 12.8521 31.7861 13.7871 32.5588 14.7583C32.6152 14.8293 32.6763 14.9018 32.7395 14.9748C32.2722 15.8773 31.6303 17.0925 31.0866 18.0349C29.5775 20.6512 28.4375 22.7207 27.576 22.7207C26.8873 22.7207 26.8965 20.6197 26.8965 18.6525C26.8965 16.9566 27.0215 14.4069 27.1213 11.7672C27.1543 10.8941 26.7187 10.3968 25.9884 9.94632C25.5448 9.67265 24.5978 9.13456 24.0494 9.13456C23.2285 9.13456 20.8602 9.2465 18.6224 15.7332C18.3404 16.5507 17.7864 18.0405 17.7864 18.0405L17.8341 10.24C17.8341 10.0571 17.7369 9.88032 17.5143 9.75936C17.1372 9.55418 16.1301 9.13456 15.2345 9.13456C14.8078 9.13456 14.5949 9.33345 14.5949 9.72986L14.5168 21.9338C14.5168 22.861 14.5409 23.9428 14.6324 24.4159C14.7235 24.8896 14.8712 25.275 15.0541 25.5043C15.2367 25.7331 15.4479 25.9077 15.7962 25.9797C16.1204 26.0466 17.8954 26.275 17.9877 25.5952C18.0982 24.7806 18.1025 23.8995 19.0345 20.6132C20.4856 15.4969 22.3775 13.0006 23.2669 12.114C23.4224 11.9591 23.5999 11.9498 23.5914 12.2034C23.5534 13.3251 23.4199 16.128 23.33 18.5092C23.0891 24.8817 24.2459 26.0628 25.8991 26.0628C27.1639 26.0628 28.9467 24.8035 30.8579 21.6157C32.0494 19.6291 33.2062 17.6813 34.0374 16.2773C34.6166 16.8147 35.2667 17.393 35.9162 18.0108C37.4257 19.4465 37.9214 20.8107 37.5925 22.105C37.341 23.0943 36.3939 24.114 34.7081 23.1229C34.2168 22.8338 34.0071 22.6104 33.513 22.2845C33.2476 22.1094 32.8423 22.057 32.5994 22.2404C31.9682 22.7173 31.6072 23.3239 31.4011 24.0748C31.2007 24.8055 31.9309 25.1918 32.6879 25.5297C33.3397 25.8204 34.7407 26.0839 35.6341 26.1139C39.1153 26.2306 41.904 24.4296 43.8453 19.7838C44.1928 23.796 45.6717 26.0664 48.2413 26.0664C49.9591 26.0664 51.6815 23.8412 52.4347 21.6522C52.6509 22.5445 52.971 23.3205 53.3843 23.9766C55.3643 27.1203 59.2053 26.4437 61.1347 23.7742C61.7313 22.9494 61.8221 22.653 61.8221 22.653C62.1035 25.1736 64.129 26.0543 65.2888 26.0543C66.5878 26.0543 67.9289 25.4389 68.8689 23.3183C68.9791 23.5485 69.0993 23.7682 69.2306 23.9766C71.2105 27.1203 75.0515 26.4436 76.9809 23.7741C77.072 23.6489 77.1509 23.5353 77.2199 23.4334L77.2765 25.0891C77.2765 25.0891 76.1758 26.1009 75.5002 26.7216C72.5265 29.4556 70.2654 31.5298 70.0991 33.9452C69.8855 37.0252 72.3782 38.1698 74.264 38.3198C76.2666 38.4791 77.9816 37.3705 79.0357 35.819C79.9629 34.4534 80.5698 31.5142 80.5253 28.6114C80.5075 27.4489 80.4783 25.9709 80.4554 24.3866C81.5005 23.1703 82.6781 21.633 83.7623 19.8336C84.9439 17.8726 86.2103 15.2391 86.8587 13.1897C86.8587 13.1897 87.959 13.1992 89.1331 13.1221C89.5087 13.0976 89.6166 13.1744 89.5471 13.4503C89.4633 13.7836 88.0637 19.1934 89.341 22.7973C90.2154 25.2643 92.1863 26.058 93.3549 26.058C94.7228 26.058 96.0314 25.0228 96.7327 23.4856C96.8172 23.657 96.9055 23.8228 97.0019 23.9759C98.9819 27.1196 102.809 26.4389 104.752 23.7735C105.191 23.1721 105.44 22.6522 105.44 22.6522C105.857 25.2609 107.881 26.0668 109.041 26.0668C110.249 26.0668 111.395 25.5706 112.325 23.3653C112.364 24.3363 112.425 25.1303 112.522 25.3806C112.58 25.5337 112.924 25.7258 113.173 25.8187C114.278 26.2293 115.405 26.0351 115.822 25.9506C116.111 25.892 116.336 25.6598 116.367 25.0602C116.448 23.4858 116.398 20.8406 116.875 18.8747C117.674 15.5754 118.42 14.2956 118.774 13.662C118.972 13.307 119.195 13.2485 119.203 13.6242C119.22 14.3844 119.258 16.6167 119.567 19.616C119.795 21.8218 120.099 23.1257 120.332 23.5383C120.999 24.7183 121.822 24.7742 122.492 24.7742C122.918 24.7742 123.81 24.6561 123.73 23.9052C123.691 23.5392 123.759 21.2771 124.548 18.0267C125.062 15.904 125.921 13.9861 126.23 13.285C126.344 13.0264 126.397 13.2302 126.395 13.2699C126.33 14.7317 126.184 19.5131 126.778 22.1281C127.584 25.6707 129.914 26.0671 130.726 26.0671C132.46 26.0671 133.878 24.7456 134.355 21.2684C134.47 20.4316 134.3 19.7854 133.79 19.7854" fill="#1B2245"/>
</svg>
