<svg width="152" height="35" viewBox="0 0 152 35" fill="none" xmlns="http://www.w3.org/2000/svg">
<path fill-rule="evenodd" clip-rule="evenodd" d="M43.3644 1.60869C45.4165 2.16118 47.0345 3.77918 47.587 5.83127C48.613 9.58029 48.5736 17.394 48.5736 17.394C48.5736 17.394 48.5736 25.1683 47.587 28.9173C47.0345 30.9694 45.4165 32.5874 43.3644 33.1399C39.6154 34.1265 24.6193 34.1265 24.6193 34.1265C24.6193 34.1265 9.66269 34.1265 5.87421 33.1005C3.82211 32.548 2.20411 30.93 1.65162 28.8779C0.665039 25.1683 0.665039 17.3546 0.665039 17.3546C0.665039 17.3546 0.665039 9.58029 1.65162 5.83127C2.20411 3.77918 3.86157 2.12171 5.87421 1.56923C9.62323 0.582642 24.6193 0.582642 24.6193 0.582642C24.6193 0.582642 39.6154 0.582642 43.3644 1.60869ZM32.3149 17.3546L19.8445 24.5369V10.1723L32.3149 17.3546Z" fill="#1B2245"/>
<path d="M70.2394 31.1273C69.2922 30.4959 68.6214 29.5093 68.2267 28.1281C67.8321 26.7863 67.6348 24.971 67.6348 22.761V19.7224C67.6348 17.4729 67.8715 15.6576 68.3056 14.2764C68.7792 12.8952 69.4895 11.9086 70.4367 11.2772C71.4233 10.6458 72.6861 10.3301 74.2646 10.3301C75.8037 10.3301 77.0665 10.6458 78.0136 11.2772C78.9608 11.9086 79.6316 12.9347 80.0657 14.2764C80.4998 15.6182 80.7366 17.4335 80.7366 19.7224V22.761C80.7366 25.0105 80.5393 26.7863 80.1052 28.1675C79.6711 29.5093 79.0002 30.5353 78.0531 31.1667C77.106 31.7982 75.8037 32.1139 74.1857 32.1139C72.5282 32.0744 71.1865 31.7587 70.2394 31.1273V31.1273ZM75.5669 27.8124C75.8432 27.1415 75.9615 25.997 75.9615 24.458V17.907C75.9615 16.4074 75.8432 15.3025 75.5669 14.5921C75.2907 13.8818 74.8566 13.5661 74.1857 13.5661C73.5543 13.5661 73.0807 13.9212 72.8439 14.5921C72.5677 15.3025 72.4493 16.4074 72.4493 17.907V24.458C72.4493 25.997 72.5677 27.1415 72.8439 27.8124C73.0807 28.4832 73.5543 28.8384 74.2251 28.8384C74.8566 28.8384 75.2907 28.5227 75.5669 27.8124Z" fill="#1B2245"/>
<path d="M143.088 22.8006V23.8661C143.088 25.2078 143.128 26.2339 143.207 26.9048C143.286 27.5756 143.444 28.0887 143.72 28.3649C143.957 28.6806 144.351 28.8385 144.904 28.8385C145.614 28.8385 146.088 28.5622 146.364 28.0097C146.64 27.4573 146.759 26.5496 146.798 25.2473L150.863 25.4841C150.902 25.6814 150.902 25.9182 150.902 26.2339C150.902 28.1676 150.389 29.6277 149.324 30.5749C148.258 31.522 146.759 31.9955 144.825 31.9955C142.497 31.9955 140.879 31.2457 139.931 29.7856C138.984 28.3254 138.511 26.076 138.511 22.9979V19.3278C138.511 16.1707 138.984 13.8819 139.971 12.4217C140.957 10.9616 142.615 10.2512 144.943 10.2512C146.561 10.2512 147.824 10.5669 148.692 11.1589C149.56 11.7508 150.152 12.6979 150.508 13.9213C150.863 15.1841 151.021 16.9205 151.021 19.1305V22.7216H143.088V22.8006ZM143.68 13.9608C143.444 14.2765 143.286 14.75 143.207 15.4209C143.128 16.0918 143.088 17.1178 143.088 18.4991V19.9987H146.561V18.4991C146.561 17.1573 146.522 16.1313 146.443 15.4209C146.364 14.7106 146.167 14.237 145.93 13.9608C145.693 13.6845 145.298 13.5267 144.825 13.5267C144.272 13.4872 143.917 13.6451 143.68 13.9608Z" fill="#1B2245"/>
<path d="M58.7157 22.4059L53.3486 2.95044H58.0448L59.939 11.7508C60.4126 13.9213 60.7677 15.776 61.0045 17.3151H61.1229C61.2808 16.2101 61.6359 14.3948 62.1884 11.7902L64.1616 2.95044H68.8577L63.4118 22.4059V31.7192H58.7551V22.4059H58.7157Z" fill="#1B2245"/>
<path d="M96.0092 10.7247V31.7587H92.2996L91.905 29.1936H91.7866C90.8 31.1273 89.2609 32.1139 87.2483 32.1139C85.8671 32.1139 84.8411 31.6403 84.1702 30.7327C83.4993 29.825 83.1836 28.4043 83.1836 26.4312V10.7247H87.9192V26.1549C87.9192 27.102 88.0376 27.7729 88.2349 28.1675C88.4322 28.5622 88.7874 28.7595 89.261 28.7595C89.6556 28.7595 90.0502 28.6411 90.4449 28.3649C90.8395 28.1281 91.1157 27.8124 91.2736 27.4177V10.7247H96.0092Z" fill="#1B2245"/>
<path d="M120.279 10.7247V31.7587H116.569L116.175 29.1936H116.056C115.07 31.1273 113.53 32.1139 111.518 32.1139C110.137 32.1139 109.111 31.6403 108.44 30.7327C107.769 29.825 107.453 28.4043 107.453 26.4312V10.7247H112.189V26.1549C112.189 27.102 112.307 27.7729 112.504 28.1675C112.702 28.5622 113.057 28.7595 113.53 28.7595C113.925 28.7595 114.32 28.6411 114.714 28.3649C115.109 28.1281 115.385 27.8124 115.543 27.4177V10.7247H120.279Z" fill="#1B2245"/>
<path d="M108.874 6.77839H104.178V31.7192H99.5604V6.77839H94.8643V2.95044H108.874V6.77839Z" fill="#1B2245"/>
<path d="M135.946 14.0792C135.669 12.7374 135.196 11.7903 134.564 11.1984C133.933 10.6064 133.025 10.2907 131.92 10.2907C131.052 10.2907 130.224 10.5275 129.474 11.0405C128.724 11.5141 128.132 12.185 127.737 12.9742H127.698V1.88501H123.12V31.7193H127.027L127.501 29.7462H127.619C127.974 30.4565 128.527 31.009 129.276 31.4431C130.026 31.8377 130.815 32.0745 131.723 32.0745C133.341 32.0745 134.486 31.3247 135.235 29.8645C135.985 28.4044 136.38 26.0761 136.38 22.9585V19.6435C136.34 17.2363 136.222 15.3815 135.946 14.0792V14.0792ZM131.605 22.6427C131.605 24.1818 131.526 25.3657 131.407 26.2339C131.289 27.1021 131.052 27.7335 130.776 28.0887C130.46 28.4439 130.066 28.6412 129.592 28.6412C129.197 28.6412 128.842 28.5623 128.527 28.3649C128.211 28.1676 127.935 27.8914 127.737 27.5362V15.6183C127.895 15.0658 128.171 14.5922 128.566 14.1976C128.961 13.8424 129.395 13.6451 129.829 13.6451C130.302 13.6451 130.697 13.8424 130.934 14.1976C131.21 14.5922 131.368 15.2236 131.486 16.0918C131.605 16.9995 131.644 18.2623 131.644 19.8803V22.6427H131.605Z" fill="#1B2245"/>
</svg>
