<?xml version="1.0" encoding="UTF-8"?>
<!DOCTYPE svg PUBLIC "-//W3C//DTD SVG 1.1//EN" "http://www.w3.org/Graphics/SVG/1.1/DTD/svg11.dtd">
<!-- Creator: CorelDRAW 2020 (64 Bit) -->
<svg xmlns="http://www.w3.org/2000/svg" xml:space="preserve" width="42.418mm" height="17.526mm" version="1.1" style="shape-rendering:geometricPrecision; text-rendering:geometricPrecision; image-rendering:optimizeQuality; fill-rule:evenodd; clip-rule:evenodd"
viewBox="0 0 868.89 359"
 xmlns:xlink="http://www.w3.org/1999/xlink"
 xmlns:xodm="http://www.corel.com/coreldraw/odm/2003">
 <defs>
  <style type="text/css">
   <![CDATA[
    .str0 {stroke:#1A1E2B;stroke-width:1.56;stroke-miterlimit:10}
    .fil38 {fill:none}
    .fil5 {fill:#047065;fill-rule:nonzero}
    .fil3 {fill:#14998E;fill-rule:nonzero}
    .fil1 {fill:#1A1E2B;fill-rule:nonzero}
    .fil31 {fill:#1C1A31;fill-rule:nonzero}
    .fil30 {fill:#21102B;fill-rule:nonzero}
    .fil29 {fill:#222737;fill-rule:nonzero}
    .fil34 {fill:#22A7F0;fill-rule:nonzero}
    .fil28 {fill:#293856;fill-rule:nonzero}
    .fil33 {fill:#2B3145;fill-rule:nonzero}
    .fil36 {fill:#2E568D;fill-rule:nonzero}
    .fil4 {fill:#2EA9A0;fill-rule:nonzero}
    .fil9 {fill:#371A45;fill-rule:nonzero}
    .fil17 {fill:#3B50A0;fill-rule:nonzero}
    .fil25 {fill:#3B54A6;fill-rule:nonzero}
    .fil20 {fill:#3E6DD0;fill-rule:nonzero}
    .fil21 {fill:#8699D0;fill-rule:nonzero}
    .fil26 {fill:#A79BAD;fill-rule:nonzero}
    .fil14 {fill:#AFA3B5;fill-rule:nonzero}
    .fil23 {fill:#B0B4D0;fill-rule:nonzero}
    .fil19 {fill:#B26DC6;fill-rule:nonzero}
    .fil12 {fill:#B3D0FF;fill-rule:nonzero}
    .fil32 {fill:#B72E73;fill-rule:nonzero}
    .fil35 {fill:#B9AFBE;fill-rule:nonzero}
    .fil18 {fill:#C32730;fill-rule:nonzero}
    .fil16 {fill:#C39129;fill-rule:nonzero}
    .fil10 {fill:#C39B84;fill-rule:nonzero}
    .fil11 {fill:#C3B1B3;fill-rule:nonzero}
    .fil22 {fill:#CD9927;fill-rule:nonzero}
    .fil24 {fill:#CDB48D;fill-rule:nonzero}
    .fil37 {fill:#CDC6D0;fill-rule:nonzero}
    .fil2 {fill:#CED5ED;fill-rule:nonzero}
    .fil13 {fill:#D9E7FF;fill-rule:nonzero}
    .fil15 {fill:#F5D3FF;fill-rule:nonzero}
    .fil7 {fill:#F8DEFF;fill-rule:nonzero}
    .fil27 {fill:#FF5AA5;fill-rule:nonzero}
    .fil6 {fill:#FFD39F;fill-rule:nonzero}
    .fil8 {fill:#FFF2E2;fill-rule:nonzero}
    .fil0 {fill:white;fill-rule:nonzero}
   ]]>
  </style>
   <clipPath id="id0">
    <path d="M-0 0l868.89 0 0 359 -868.89 0 0 -359z"/>
   </clipPath>
 </defs>
 <g id="Camada_x0020_1">
  <metadata id="CorelCorpID_0Corel-Layer"/>
  <g>
  </g>
  <g style="clip-path:url(#id0)">
   <g>
    <path class="fil0" d="M555.44 162.7l-12.34 22.51 -5.3 9.68c0,0 -1.77,0.12 -4.83,0.09 -14.88,-0.18 -60.52,-4.14 -84.11,-44.25 -19.52,-33.19 -7.58,-48.87 11.24,-48.47 4.55,0.1 8.85,2.14 13.62,5.56 11.77,8.39 26.44,25.08 54.8,41.5 7.85,4.55 16.75,9.07 26.92,13.38z"/>
    <path class="fil1" d="M475.67 180.85c-0.87,0 -1.7,-0.51 -2.06,-1.37 -0.48,-1.14 0.06,-2.44 1.19,-2.92 1.06,-0.45 25.93,-11.35 28.38,-44.09 0.09,-1.23 1.17,-2.14 2.39,-2.06 1.22,0.09 2.15,1.16 2.05,2.39 -2.66,35.55 -29.94,47.39 -31.1,47.87 -0.28,0.12 -0.57,0.17 -0.86,0.17z"/>
    <path class="fil2" d="M529.91 191.9c-6.08,-0.26 -15.21,-1.16 -25.33,-3.88 -8.71,-2.35 -16.61,-5.57 -23.7,-9.65 1.98,-1.2 4.47,-2.91 7.14,-5.2 16.23,7.28 32.21,9.16 41.52,9.57 0.18,3.14 0.31,6.2 0.38,9.16z"/>
    <path class="fil2" d="M476.56 175.71c-10.37,-6.83 -18.78,-15.68 -25.14,-26.5 -5.53,-9.4 -8.71,-17.8 -9.44,-24.71 1.6,4.29 3.87,8.98 6.87,14.1 9.25,15.73 21.89,25.89 34.74,32.46 -2.89,2.3 -5.43,3.81 -7.03,4.65z"/>
    <path class="fil1" d="M480.88 178.38c-1.47,-0.85 -2.91,-1.74 -4.32,-2.66 1.6,-0.85 4.14,-2.35 7.03,-4.65 1.47,0.75 2.95,1.46 4.42,2.12 -2.66,2.29 -5.16,4 -7.14,5.2z"/>
    <path class="fil1" d="M534.03 197.96c-5.81,0 -17.36,-0.55 -30.8,-4.14 -25.21,-6.74 -44.89,-21.12 -56.93,-41.58 -13.44,-22.84 -11.45,-35.83 -7.42,-42.71 3.99,-6.81 11.58,-10.45 21.28,-10.23 9.2,0.2 17.12,7.09 28.08,16.64 14.2,12.37 33.65,29.3 68.36,44.04 1.51,0.64 2.21,2.39 1.58,3.9 -0.64,1.51 -2.39,2.22 -3.9,1.58 -35.58,-15.1 -55.44,-32.4 -69.94,-45.03 -10.39,-9.05 -17.25,-15.03 -24.31,-15.18 -7.49,-0.17 -13.17,2.43 -16.03,7.3 -4.56,7.78 -1.93,20.81 7.42,36.69 11.36,19.31 29.24,32.36 53.16,38.81 18.01,4.85 32.87,3.91 33.01,3.9 1.62,-0.13 3.05,1.12 3.17,2.76 0.11,1.64 -1.12,3.06 -2.76,3.17 -0.18,0.01 -1.6,0.1 -3.97,0.1z"/>
    <path class="fil0" d="M659.6 272.09c-11.54,13.21 -34.72,16.55 -40.66,25.48 -5.21,7.84 -3.35,17.82 -2.84,28.28 0.43,8.96 -1.1,20.68 -8.63,30.84 -11.4,15.36 -33.03,16.96 -44.75,7.19 -13.38,-11.16 3.24,-39.22 5.66,-42.68 0,0 -3.66,-4.49 -7.06,-8.53 -2.47,-2.95 -4.21,-7.13 -5.12,-11.9 -27.13,-1.5 -48.78,20.32 -63.14,24.21 -15.94,4.32 -33.25,-7.12 -44.86,-29.43 -9.54,-18.35 -2.59,-34.58 11.53,-36.29 10.8,-1.29 29.45,13.44 29.45,13.44 0,0 8.48,-36.98 40.67,-32.64 0,0 3.51,-18.24 3.12,-45.1 -0.06,-4.2 -0.21,-8.62 -0.5,-13.2 -0.62,-10.11 -1.83,-21.07 -3.96,-32.46 -0.24,-1.24 -0.48,-2.47 -0.73,-3.71l101.54 -6.91c1.79,2.02 3.5,4.06 5.16,6.11 1.57,1.95 3.07,3.91 4.52,5.88 7.17,9.75 12.94,19.82 17.45,29.8 17.58,38.9 16.07,76.78 3.14,91.6z"/>
    <path class="fil0" d="M573.77 305.1c-35.4,-15.65 -63.38,15.2 -80.72,19.89 -15.94,4.32 -33.25,-7.12 -44.86,-29.43 -3.56,-6.85 -4.82,-13.4 -4.27,-19.02 0.92,-9.42 6.95,-16.19 15.81,-17.26 10.8,-1.29 29.45,13.44 29.45,13.44 0,0 8.48,-36.98 40.67,-32.64 0,0 8.31,-43.19 -2.06,-94.46l32.94 114.25 13.04 45.24z"/>
    <path class="fil2" d="M452.6 297.41c-0.6,-1.05 -1.19,-2.12 -1.76,-3.22 -2.45,-4.72 -3.81,-9.41 -4.05,-13.74 5.64,6.23 14.04,8.57 23.23,8.57 20.38,0 44.74,-11.46 52,-17.47 0.03,-0.02 0.05,-0.04 0.08,-0.06 1.57,2.96 2.95,6.25 3.99,9.9l-73.49 16.02z"/>
    <path class="fil2" d="M561.96 264.13l-1.23 -4.27 -0.83 -2.86c4.54,-0.88 9.09,-1.52 13.44,-1.85 -0.05,0.02 -0.1,0.05 -0.15,0.08 -4.14,2.28 -8.06,5.15 -11.24,8.9z"/>
    <path class="fil2" d="M530.47 280.43c-1.2,-4.34 -2.83,-8.19 -4.65,-11.54 7.93,-4.83 20.98,-9.35 34.09,-11.89l0.83 2.86 1.23 4.27c-0.37,0.43 -0.72,0.88 -1.07,1.34 -2.22,2.92 -3.93,6.13 -5.21,9.46l-25.21 5.5z"/>
    <path class="fil1" d="M529.62 308.32c-0.11,0 -0.21,-0.01 -0.32,-0.02 -1.22,-0.18 -2.06,-1.31 -1.88,-2.53 5.72,-39.14 -25.28,-55.1 -25.59,-55.26 -1.1,-0.55 -1.55,-1.89 -1,-2.99 0.55,-1.1 1.89,-1.54 2.99,-1 0.35,0.18 8.73,4.42 16.4,13.94 7.08,8.78 14.84,23.88 11.62,45.96 -0.16,1.11 -1.11,1.91 -2.2,1.91z"/>
    <path class="fil1" d="M486.2 328.88c-15.01,0 -30.06,-11.61 -40.64,-31.95 -5.58,-10.72 -6.28,-21.59 -1.93,-29.83 3.23,-6.11 8.82,-9.93 15.74,-10.77 9.11,-1.1 22,7.07 28.21,11.49 3.43,-9.73 14.29,-32.68 39.78,-30.98 1.55,-10.14 6.19,-47.74 -2.5,-90.64 -0.32,-1.61 0.71,-3.18 2.32,-3.5 1.6,-0.33 3.18,0.71 3.5,2.32 10.38,51.25 2.15,95.18 2.07,95.62l-0.53 2.76 -2.78 -0.37c-29.08,-3.91 -37.04,28.96 -37.37,30.36l-1.06 4.57 -3.68 -2.9c-4.92,-3.89 -19.44,-13.74 -27.26,-12.81 -4.93,0.59 -8.9,3.31 -11.19,7.64 -3.43,6.49 -2.72,15.35 1.94,24.31 11.01,21.17 26.89,31.88 41.44,27.94 4.48,-1.21 9.96,-4.46 16.31,-8.21 16.68,-9.87 39.53,-23.39 66.4,-11.53 1.5,0.66 2.18,2.42 1.52,3.92 -0.66,1.5 -2.42,2.18 -3.92,1.52 -24.07,-10.64 -44.53,1.47 -60.97,11.21 -6.72,3.98 -12.52,7.41 -17.78,8.83 -2.53,0.69 -5.07,1.02 -7.62,1.02z"/>
    <path class="fil3" d="M428.42 305.78l-34.15 7.45c-27.63,6.03 -45.14,33.31 -39.12,60.94l0 0c6.02,27.63 33.31,45.14 60.93,39.11l34.15 -7.44 -21.82 -100.05z"/>
    <path class="fil4" d="M357.05 366.31c-1.5,-23.37 14.29,-45.03 37.86,-50.18l15.67 -3.42c-0.42,1.92 -0.48,3.9 -0.11,5.88 0.23,1.22 0.47,2.49 0.72,3.81l-14.68 3.2c-20.76,4.53 -35.81,21.05 -39.45,40.7z"/>
    <path class="fil5" d="M407.7 407.6c-9.97,0 -19.52,-2.93 -27.61,-8.12 -11.03,-7.08 -19.35,-18.37 -22.36,-32.18 -0.14,-0.65 -0.27,-1.29 -0.38,-1.94l-0 -0c9.47,13.41 25.04,21.69 41.81,21.69 3.61,0 7.28,-0.38 10.96,-1.18l13.88 -3.03c1.62,6.82 3.21,13.29 4.57,18.76 0.21,0.86 0.5,1.68 0.86,2.47l-10.76 2.35c-3.68,0.8 -7.35,1.19 -10.96,1.19z"/>
    <path class="fil1" d="M426.15 309.32l-31.24 6.81c-25.98,5.67 -42.51,31.41 -36.85,57.4 2.74,12.59 10.23,23.35 21.07,30.31 10.84,6.96 23.74,9.28 36.33,6.53l31.24 -6.81 -20.55 -94.24zm-21.07 108.13c-10.26,0 -20.32,-2.93 -29.16,-8.6 -12.18,-7.82 -20.58,-19.91 -23.66,-34.04 -6.36,-29.19 12.2,-58.11 41.39,-64.47l34.14 -7.45c0.77,-0.17 1.58,-0.02 2.24,0.4 0.66,0.43 1.13,1.1 1.3,1.87l21.82 100.05c0.35,1.6 -0.67,3.19 -2.27,3.54l-34.15 7.45c-3.88,0.84 -7.78,1.26 -11.65,1.26z"/>
    <polygon class="fil3" points="749.06,340.67 459.11,403.9 437.28,303.79 727.23,240.56 "/>
    <path class="fil4" d="M451.03 311.01c-0.03,-0.13 -0.05,-0.26 -0.08,-0.4 -0,-0.03 -0.01,-0.06 -0.02,-0.09 0,-0 0,-0 0,-0.01l0 -0c-0.01,-0.06 -0.03,-0.12 -0.04,-0.19 -0.01,-0.05 -0.02,-0.09 -0.03,-0.14 -0.27,-1.26 -0.71,-2.46 -1.29,-3.56l0 0c-0.4,-0.76 -0.86,-1.49 -1.38,-2.17l105.52 -23.01c-0.56,2.48 -0.93,4.99 -1.11,7.52l-101.57 22.05zm216.8 -47.07c0.35,-0.86 0.67,-1.73 0.96,-2.6 0.07,-0.2 0.14,-0.4 0.2,-0.6 11.73,-2.05 22.21,-5.48 29.76,-10.92l20.51 -4.48c-1.36,2.47 -2.23,5.18 -2.55,7.99l-48.89 10.61z"/>
    <path class="fil5" d="M469.08 394.3c-0.06,-0.76 -0.19,-1.53 -0.38,-2.29 -0.71,-2.85 -1.47,-5.96 -2.27,-9.23 -0.9,-3.7 -1.84,-7.6 -2.78,-11.6l0 0c0.93,3.96 1.86,7.83 2.75,11.5 -0.91,-3.72 -1.85,-7.65 -2.8,-11.67l0 -0c0.01,0.06 0.03,0.12 0.04,0.18 0,-0.06 0.01,-0.12 0.01,-0.19l90.93 -19.83c-0,0.31 0,0.61 0.01,0.92 0.05,2.05 0.31,4.17 0.98,6.25 0.66,2.08 1.74,4.1 3.19,5.81l0.55 0.64c0.19,0.21 0.4,0.39 0.6,0.58 0.41,0.36 0.82,0.81 1.23,1.08 0.84,0.6 1.65,1.25 2.51,1.8 0.89,0.5 1.77,1.03 2.68,1.5l2.81 1.2c0.94,0.35 1.91,0.65 2.87,0.9l-102.95 22.45zm134.45 -29.32c0.69,-0.54 1.38,-1.09 1.99,-1.73 0.7,-0.71 1.46,-1.37 2.12,-2.13l1.91 -2.31c0.63,-0.77 1.15,-1.6 1.72,-2.4 2.15,-3.3 3.86,-6.87 5.13,-10.57 0.93,-2.82 1.63,-5.71 2.08,-8.62l111.34 -24.28c0.76,0.32 1.53,0.6 2.33,0.85 0.14,0.04 0.23,0.12 0.28,0.23 0.04,0.09 0.08,0.24 0.01,0.44 -1.5,3.94 -1.81,8.2 -0.91,12.33 0.76,3.49 2.34,6.66 4.54,9.29l-132.54 28.9z"/>
    <path class="fil1" d="M440.82 306.06l20.56 94.3 278.45 -60.72c-4.15,-3.08 -7.15,-7.6 -8.3,-12.85 -0.9,-4.13 -0.59,-8.39 0.91,-12.33 0.07,-0.2 0.03,-0.35 -0.01,-0.44 -0.06,-0.11 -0.15,-0.19 -0.28,-0.23 -8.46,-2.59 -14.89,-9.57 -16.78,-18.21 -1.88,-8.64 1.06,-17.66 7.67,-23.54 0.1,-0.09 0.15,-0.19 0.16,-0.32 0,-0.1 -0.03,-0.25 -0.17,-0.4 -3,-2.96 -5.06,-6.7 -5.96,-10.83 -1.15,-5.26 -0.29,-10.62 2.2,-15.14l-278.45 60.72zm18.29 100.81c-0.56,0 -1.12,-0.16 -1.61,-0.47 -0.66,-0.42 -1.13,-1.1 -1.3,-1.87l-21.83 -100.11c-0.35,-1.6 0.67,-3.19 2.27,-3.54l289.95 -63.23c0.51,-0.11 1.05,-0.09 1.55,0.08l0.11 0.04c1.07,0.35 1.85,1.26 2.02,2.37 0.17,1.11 -0.29,2.22 -1.2,2.87 -5.1,3.69 -7.54,10.05 -6.19,16.2 0.66,3 2.15,5.72 4.32,7.87 1.28,1.26 1.99,3.01 1.94,4.79 -0.05,1.78 -0.81,3.42 -2.15,4.61 -5.01,4.45 -7.24,11.28 -5.81,17.83 1.43,6.55 6.3,11.84 12.71,13.8 1.71,0.52 3.09,1.69 3.87,3.3 0.78,1.6 0.87,3.48 0.23,5.16 -1.08,2.86 -1.3,5.96 -0.66,8.96 1.34,6.15 6.2,10.93 12.38,12.16 1.13,0.23 2.03,1.09 2.3,2.21 0.28,1.12 -0.12,2.3 -1.02,3.02l-0.01 0.01c-0.37,0.3 -0.84,0.55 -1.3,0.65l-289.95 63.22c-0.21,0.05 -0.42,0.07 -0.63,0.07z"/>
    <path class="fil6" d="M814.7 281.92l-14.14 12.66 -28.99 25.94 -22.43 20.08c-7.11,-1.42 -13.06,-6.91 -14.7,-14.44 -0.81,-3.69 -0.47,-7.36 0.78,-10.65 0.49,-1.29 0.19,-2.66 -0.66,-3.6 -0.39,-0.43 -0.91,-0.77 -1.53,-0.96 -7.2,-2.21 -13.03,-8.12 -14.74,-16 -1.72,-7.87 1.11,-15.68 6.74,-20.68 1.52,-1.35 1.54,-3.64 0.1,-5.06 -2.5,-2.47 -4.34,-5.66 -5.14,-9.35 -1.64,-7.54 1.48,-15 7.36,-19.25l28.74 8.91 37.15 11.52 18.14 5.62c2.56,0.79 4.43,2.56 5.44,4.69 1.61,3.39 1.08,7.71 -2.11,10.57z"/>
    <path class="fil7" d="M816.72 279.32c1.3,-2.53 1.26,-5.5 0.09,-7.97 -0.08,-0.16 -0.16,-0.31 -0.24,-0.46 0.08,0.15 0.16,0.31 0.24,0.46 1.18,2.47 1.21,5.44 -0.09,7.97zm-0.15 -8.44c0,-0 0,-0 0,-0 0,0 0,0 0,0zm-23.43 -9.87l-37.05 -11.5 -10.6 -3.29 10.6 3.28 37.05 11.5z"/>
    <path class="fil8" d="M816.11 280.33c-0,-0.03 -0.02,-0.07 -0.04,-0.1 -0.99,-2.11 -2.84,-3.87 -5.39,-4.67 0.32,-0.42 0.6,-0.85 0.84,-1.3l0.22 -0.12 -0.22 0.12 0 0 -1.82 1 -17.21 -5.34 -37.15 -11.52 -28.75 -8.91c-3.19,2.3 -5.57,5.56 -6.82,9.26 -1.13,-7.15 1.97,-14.1 7.56,-18.14l18.15 5.62 10.6 3.29 37.05 11.5 0.09 0.03 18.15 5.63c2.37,0.73 4.14,2.29 5.2,4.21 0,0 0,0 0,0 0,0 0,0 0,0 0.08,0.15 0.16,0.31 0.24,0.46 1.17,2.47 1.21,5.44 -0.09,7.97 -0.18,0.34 -0.38,0.68 -0.61,1.01z"/>
    <path class="fil9" d="M734.06 320.68c0.14,-1.79 0.54,-3.53 1.16,-5.17 0.19,-0.5 0.26,-1.02 0.23,-1.52 0.04,0.5 -0.04,1.01 -0.23,1.52 -0.62,1.64 -1.02,3.38 -1.16,5.17zm1.38 -6.69c0,-0 0,-0 0,-0 0,0 0,0 0,0zm-0.27 -1.12c-0.15,-0.35 -0.36,-0.68 -0.62,-0.96l0 0c0.26,0.28 0.47,0.61 0.62,0.96z"/>
    <path class="fil10" d="M743.99 335.46c-2.46,-0.49 -4.76,-1.47 -6.81,-2.85 -1.28,-1.9 -2.23,-4.07 -2.75,-6.45 -0.4,-1.85 -0.52,-3.69 -0.38,-5.47 0.14,-1.79 0.54,-3.53 1.16,-5.17 0.19,-0.5 0.26,-1.02 0.23,-1.52l0 -0c0,-0 0,-0 0,-0 -0.03,-0.39 -0.12,-0.76 -0.27,-1.11 -0.15,-0.35 -0.36,-0.68 -0.62,-0.96l2.28 -0.5c7.83,-1.71 15.37,-4.53 22.39,-8.39l50.48 -27.77 0.93 0.28c0.02,0.01 0.04,0.01 0.05,0.02 -0.33,0.43 -0.7,0.83 -1.13,1.21l-12.35 13.3 -30.78 25.3 -22.43 20.08z"/>
    <path class="fil11" d="M810.68 275.56c-0.01,-0.01 -0.03,-0.01 -0.05,-0.02l-0.93 -0.28 1.82 -1c-0.24,0.45 -0.52,0.89 -0.84,1.3z"/>
    <path class="fil10" d="M738.17 333.94c-0.35,-0.43 -0.69,-0.88 -1.01,-1.35 0,0 0.01,0.01 0.02,0.01 0.31,0.46 0.64,0.91 0.99,1.34z"/>
    <path class="fil1" d="M814.7 281.92l-14.14 12.66c-3.91,-3.6 -7.05,-9.14 -8.49,-15.73 -1.43,-6.58 -0.88,-12.92 1.17,-17.82l18.14 5.62c6.66,2.06 8.52,10.6 3.33,15.26z"/>
    <path class="fil1" d="M814.7 281.92l0.01 0 -0.01 0zm-86.74 -38.02c-4.33,3.77 -6.31,9.63 -5.07,15.31 0.66,3 2.15,5.72 4.32,7.87 1.28,1.26 1.99,3.01 1.94,4.79 -0.05,1.78 -0.81,3.42 -2.15,4.61 -5.01,4.45 -7.24,11.28 -5.81,17.83 1.43,6.55 6.3,11.84 12.71,13.8 1.71,0.52 3.09,1.69 3.87,3.3 0.78,1.6 0.87,3.48 0.23,5.16 -1.08,2.86 -1.3,5.96 -0.66,8.96 1.24,5.68 5.48,10.19 10.98,11.82l64.39 -57.64 0 0c1.64,-1.46 2.33,-3.62 1.86,-5.76 -0.46,-2.14 -1.99,-3.8 -4.08,-4.45l-82.54 -25.6zm21.18 99.67c-0.19,0 -0.39,-0.02 -0.58,-0.06 -8.5,-1.7 -15.18,-8.26 -17.02,-16.73 -0.9,-4.13 -0.59,-8.39 0.91,-12.33 0.07,-0.2 0.03,-0.35 -0.01,-0.44 -0.06,-0.11 -0.15,-0.19 -0.28,-0.23 -8.46,-2.59 -14.89,-9.57 -16.78,-18.21 -1.88,-8.64 1.06,-17.66 7.67,-23.54 0.1,-0.09 0.15,-0.19 0.16,-0.32 0,-0.1 -0.03,-0.25 -0.17,-0.4 -3,-2.96 -5.06,-6.7 -5.96,-10.83 -1.85,-8.47 1.5,-17.22 8.53,-22.29 0.76,-0.54 1.73,-0.7 2.62,-0.43l84.03 26.06c4.16,1.29 7.2,4.6 8.14,8.86 0.93,4.26 -0.45,8.54 -3.71,11.45l0 0 -65.56 58.68c-0.55,0.49 -1.26,0.76 -1.98,0.76z"/>
    <path class="fil3" d="M452.28 413.51c-10.94,2.39 -21.47,-2.9 -23.71,-11.91 -2.84,-11.41 -6.65,-27.13 -9.75,-41.35 -3.1,-14.22 -6.18,-30.1 -8.35,-41.66 -1.71,-9.13 5.66,-18.32 16.6,-20.7l0 0c11.32,-2.47 22.11,3.27 23.89,12.72 2.16,11.48 5.17,26.95 8.2,40.85 3.03,13.89 6.74,29.21 9.55,40.55 2.32,9.33 -5.1,19.04 -16.43,21.51z"/>
    <path class="fil12" d="M451.85 315.35c0,-0 -0,-0 -0,-0 -0.05,-0.26 -0.1,-0.53 -0.15,-0.79 0.05,0.26 0.1,0.53 0.15,0.79z"/>
    <path class="fil13" d="M450.94 310.52c0,-0 0,-0 0,-0.01 0,0 0,0 0,0.01zm0 -0.01c-0.01,-0.06 -0.02,-0.12 -0.04,-0.18 0,0 0,-0 0,-0.01 0.01,0.06 0.02,0.13 0.04,0.19zm-1.36 -3.89c-0.4,-0.76 -0.86,-1.49 -1.38,-2.17l0 0c0.52,0.68 0.99,1.41 1.38,2.17 0,0 0,0 0,0z"/>
    <path class="fil14" d="M448.19 304.45c-0.36,-0.47 -0.75,-0.92 -1.16,-1.35 0.41,0.43 0.8,0.88 1.16,1.35l0 0z"/>
    <path class="fil15" d="M413.94 305.81c0.53,-0.67 1.11,-1.32 1.74,-1.93 -0.63,0.61 -1.21,1.26 -1.74,1.93z"/>
    <path class="fil4" d="M411.77 325.45c-0.46,-2.41 -0.9,-4.71 -1.3,-6.86 -0.85,-4.52 0.53,-9.06 3.47,-12.78 0.53,-0.67 1.11,-1.32 1.74,-1.93 2.91,-2.84 6.84,-5 11.38,-5.99 1.78,-0.39 3.55,-0.57 5.27,-0.57 5.87,0 11.21,2.16 14.7,5.79 0.41,0.43 0.8,0.88 1.16,1.35 0.52,0.68 0.99,1.41 1.38,2.17 0.52,2.59 1.05,5.22 1.59,7.84 -3.62,-4.34 -9.6,-6.96 -16.24,-6.96 -1.8,0 -3.66,0.19 -5.53,0.6 -9.73,2.12 -16.77,9.36 -17.62,17.34zm40.08 -10.1l0 -0c-0.12,-0.62 -0.23,-1.22 -0.35,-1.83 0.07,0.34 0.13,0.69 0.2,1.04 0.05,0.26 0.1,0.53 0.15,0.79zm-0.76 -4.01c-0.05,-0.24 -0.09,-0.49 -0.14,-0.73 -0.02,-0.09 -0.04,-0.18 -0.06,-0.28 0.01,0.06 0.03,0.12 0.04,0.18l0 0c0,0 0,0 0,0.01 0.01,0.03 0.01,0.06 0.02,0.09 0.05,0.24 0.09,0.48 0.14,0.73z"/>
    <path class="fil16" d="M418.27 356.7c-0.05,-0.2 -0.09,-0.4 -0.14,-0.6 0.05,0.2 0.09,0.4 0.14,0.6z"/>
    <polygon class="fil16" points="417.52,353.52 417.51,353.51 "/>
    <path class="fil16" d="M416.9 350.91c-0.04,-0.18 -0.09,-0.36 -0.13,-0.54 0.04,0.18 0.09,0.36 0.13,0.54z"/>
    <path class="fil16" d="M419.61 362.28c-0.04,-0.17 -0.08,-0.34 -0.12,-0.52 0.04,0.17 0.08,0.34 0.12,0.52z"/>
    <path class="fil17" d="M466.43 382.77c-0.01,-0.03 -0.02,-0.07 -0.03,-0.1 -0.89,-3.67 -1.82,-7.54 -2.75,-11.5l0 -0c0.94,4 1.88,7.9 2.78,11.6z"/>
    <path class="fil16" d="M466.91 384.73c-0.16,-0.68 -0.33,-1.36 -0.5,-2.06 0.01,0.03 0.02,0.07 0.03,0.1 0.16,0.66 0.32,1.31 0.48,1.96z"/>
    <path class="fil16" d="M432.8 408.78c-2.05,-1.96 -3.54,-4.39 -4.23,-7.17l0 0c0.69,2.79 2.18,5.22 4.23,7.17zm-4.23 -7.17c-0,-0.01 -0,-0.03 -0.01,-0.04 0,0.01 0.01,0.03 0.01,0.04zm-0.01 -0.04c-0,-0 -0,-0.01 -0,-0.01 0,0.01 0,0.01 0,0.01zm-0 -0.01c-0.06,-0.23 -0.12,-0.47 -0.18,-0.7 0.06,0.23 0.12,0.48 0.18,0.7z"/>
    <path class="fil16" d="M420.88 367.53c-0.02,-0.08 -0.04,-0.16 -0.06,-0.24 0.02,0.08 0.04,0.16 0.06,0.24z"/>
    <path class="fil18" d="M416.46 349.14c-0.1,-0.48 -0.2,-0.95 -0.29,-1.42l0 0c0.09,0.46 0.19,0.92 0.28,1.37 0,0.02 0.01,0.03 0.01,0.05z"/>
    <path class="fil5" d="M445.31 407.22c-8.77,0 -16.38,-4.82 -18.37,-12.22 -2.57,-10.47 -5.58,-23.11 -8.12,-34.76 -0.79,-3.62 -1.58,-7.36 -2.36,-11.1 -0,-0.02 -0.01,-0.03 -0.01,-0.05 0.17,0.8 0.34,1.6 0.5,2.4 1.58,6.62 3.12,12.89 4.45,18.22 0.02,0.09 0.06,0.18 0.08,0.27 0.57,2.31 1.12,4.53 1.63,6.59 1.87,7.55 9.57,12.49 18.45,12.49 1.72,0 3.49,-0.19 5.26,-0.57 9.52,-2.08 16.28,-9.29 16.81,-17.07 1.19,4.93 2.33,9.59 3.36,13.73 2.32,9.33 -5.1,19.04 -16.43,21.51 -1.78,0.39 -3.54,0.57 -5.26,0.57zm-18.34 -12.08c-0.01,-0.05 -0.02,-0.1 -0.03,-0.15 0,0 0,0 0,0.01 0.01,0.05 0.02,0.09 0.03,0.14zm36.66 -23.73c0,-0 0,-0 0,-0.01 0,-0.02 0,-0.04 0,-0.06 -0,0.02 -0,0.04 -0,0.07z"/>
    <path class="fil16" d="M447.09 414.08l0 0c0,0 0,0 0.01,0 -0,0 -0,0 -0.01,0zm0 0c0,0 -0,0 -0,0 0,0 0,0 0,0l0 0zm-0 0c-1.32,0 -2.62,-0.11 -3.87,-0.32 1.25,0.21 2.55,0.32 3.87,0.32zm0.01 0c1.66,-0 3.35,-0.17 5.06,-0.54 -1.71,0.36 -3.41,0.53 -5.06,0.54zm-3.88 -0.32c-0.01,-0 -0.01,-0 -0.02,-0 0,0 0.01,0 0.02,0zm-0.02 -0c-0.03,-0 -0.06,-0.01 -0.1,-0.02 0.03,0.01 0.06,0.01 0.1,0.02zm-0.1 -0.02c-0.04,-0.01 -0.07,-0.01 -0.11,-0.02 0.04,0.01 0.07,0.01 0.11,0.02zm9.06 -0.2c0,0 0.01,-0 0.01,-0 -0,0 -0.01,0 -0.01,0zm0.01 -0c0.01,-0 0.03,-0.01 0.04,-0.01 -0.01,0 -0.03,0.01 -0.04,0.01zm0.04 -0.01c0.02,-0 0.05,-0.01 0.07,-0.01 2.48,-0.54 4.77,-1.43 6.81,-2.58 -2.04,1.15 -4.33,2.04 -6.81,2.58 -0.02,0 -0.05,0.01 -0.07,0.01z"/>
    <path class="fil16" d="M439.36 412.76c-0.76,-0.27 -1.5,-0.57 -2.2,-0.93 0.7,0.35 1.44,0.65 2.2,0.93z"/>
    <path class="fil19" d="M459.79 410.52l0 0c0,0 0,0 0,0l0 0c-0,0 -0,0 -0,0zm0.05 -0.02l0 0c0.01,-0.01 0.02,-0.01 0.03,-0.02l0 0c-0.01,0.01 -0.02,0.01 -0.03,0.02zm0.05 -0.03l0 0c0.31,-0.19 0.6,-0.39 0.9,-0.59 -0.3,0.2 -0.6,0.4 -0.9,0.59z"/>
    <path class="fil16" d="M459.09 410.93c0.24,-0.13 0.47,-0.27 0.7,-0.41l0 0c-0.23,0.14 -0.46,0.28 -0.7,0.41zm0.7 -0.41c0.01,-0.01 0.03,-0.02 0.04,-0.02l0 0c-0.01,0.01 -0.03,0.02 -0.04,0.02l0 0zm0.07 -0.04c0.01,-0 0.01,-0.01 0.02,-0.01l0 0c-0.01,0 -0.01,0.01 -0.02,0.01l0 0z"/>
    <path class="fil16" d="M427.61 397.75c-0.08,-0.31 -0.15,-0.61 -0.23,-0.92 0.08,0.31 0.15,0.61 0.23,0.92z"/>
    <path class="fil19" d="M460.78 409.88c0.54,-0.37 1.06,-0.76 1.56,-1.17 -0.5,0.41 -1.02,0.8 -1.56,1.17z"/>
    <path class="fil16" d="M428.11 399.78c-0.07,-0.29 -0.14,-0.59 -0.22,-0.88 0.07,0.29 0.15,0.59 0.22,0.88z"/>
    <path class="fil16" d="M434.8 410.4c-0.69,-0.48 -1.35,-1 -1.94,-1.56 0.6,0.57 1.26,1.08 1.94,1.56z"/>
    <path class="fil20" d="M456.51 338.92c-0.01,-0.05 -0.02,-0.1 -0.03,-0.15 -0.63,-3.05 -1.24,-6.1 -1.83,-9.09 0.6,3.04 1.23,6.14 1.87,9.24z"/>
    <path class="fil21" d="M450.9 310.33c-0.27,-1.31 -0.72,-2.55 -1.32,-3.7l0 -0c0.58,1.11 1.02,2.3 1.29,3.56 0.01,0.05 0.02,0.09 0.03,0.14z"/>
    <path class="fil22" d="M456.47 338.77c-0.96,-4.15 -1.9,-8.31 -2.78,-12.34 -0.85,-3.9 -1.7,-7.93 -2.53,-11.96 0.24,0.29 0.47,0.58 0.69,0.88 0.84,4.45 1.79,9.31 2.79,14.33 0.59,2.99 1.21,6.04 1.83,9.09zm-4.97 -25.25c-0.14,-0.74 -0.28,-1.47 -0.41,-2.19 0.14,0.71 0.27,1.44 0.41,2.19z"/>
    <path class="fil23" d="M450.9 310.33c-0.27,-1.31 -0.72,-2.55 -1.32,-3.71 0,0 0,0 0,-0 0.6,1.15 1.05,2.39 1.32,3.7 0,0 0,0.01 0,0.01z"/>
    <path class="fil24" d="M451.85 315.35c-0.22,-0.3 -0.45,-0.6 -0.69,-0.88 -0.54,-2.62 -1.07,-5.25 -1.59,-7.84 0.6,1.15 1.05,2.39 1.32,3.71 0.02,0.09 0.03,0.18 0.06,0.28 0.05,0.24 0.09,0.49 0.14,0.73 0.14,0.71 0.27,1.44 0.41,2.19 0.11,0.6 0.23,1.21 0.35,1.83z"/>
    <path class="fil20" d="M463.61 371c-1.53,-6.46 -3.06,-13.15 -4.46,-19.54 -0.47,-2.17 -0.95,-4.38 -1.42,-6.6 -0.1,-0.46 -0.19,-0.92 -0.29,-1.38 -0.32,-1.52 -0.63,-3.04 -0.94,-4.56 2.32,10.07 4.75,20.06 6.74,28.06 0.33,1.34 0.47,2.68 0.42,4.01l-0.05 0.01z"/>
    <path class="fil25" d="M463.65 371.17c-0.01,-0.06 -0.03,-0.12 -0.04,-0.18l0.05 -0.01c-0,0.06 -0.01,0.12 -0.01,0.19z"/>
    <path class="fil22" d="M457.73 344.85c-0.1,-0.46 -0.19,-0.92 -0.29,-1.38 0.1,0.46 0.19,0.92 0.29,1.38z"/>
    <path class="fil1" d="M432.35 299.89c-1.56,0 -3.15,0.17 -4.74,0.52 -9.5,2.07 -16.06,10.02 -14.62,17.71 2.07,11.01 5.19,27.16 8.33,41.58 3.14,14.41 7.03,30.4 9.74,41.28 1.89,7.6 11.16,12.09 20.67,10.02 5.46,-1.19 10.09,-4.29 12.71,-8.51 1.97,-3.17 2.58,-6.58 1.76,-9.87 -2.65,-10.68 -6.47,-26.41 -9.57,-40.62 -3.1,-14.22 -6.18,-30.1 -8.21,-40.92 -0.63,-3.33 -2.6,-6.17 -5.71,-8.23 -2.94,-1.94 -6.56,-2.96 -10.36,-2.96zm19.92 113.62l0.01 0 -0.01 0zm-5.35 3.16c-10.05,0 -18.68,-5.68 -20.86,-14.45 -2.72,-10.91 -6.62,-26.95 -9.77,-41.42 -3.16,-14.49 -6.29,-30.69 -8.36,-41.73 -1.98,-10.58 6.18,-20.98 18.58,-23.69 6.81,-1.49 13.75,-0.33 19.04,3.18 4.23,2.81 7.05,6.92 7.92,11.58 2.03,10.78 5.09,26.61 8.18,40.77 3.08,14.16 6.89,29.83 9.54,40.48 1.14,4.6 0.3,9.51 -2.39,13.82 -3.35,5.39 -9.18,9.33 -15.99,10.82l0 0c-1.99,0.44 -3.97,0.64 -5.9,0.64z"/>
    <path class="fil0" d="M684.73 141.78c13.67,10.25 26.2,59.04 23.03,88.12 -3.16,29.08 -54.58,31.26 -83.98,30.32 -29.4,-0.94 -29.3,-67.42 -28.91,-85.23 0.6,-27.81 69.6,-48.4 89.86,-33.21z"/>
    <path class="fil2" d="M670.7 254.35c0.3,-1.41 0.56,-2.82 0.78,-4.23 0.54,-3.78 0.84,-7.57 0.93,-11.35 0.14,-7.57 -0.54,-15.09 -1.77,-22.49 -0.29,-1.67 -0.61,-3.34 -0.96,-5 0.5,-0.99 0.92,-2.15 1.17,-3.48l0 -0c0,-0.01 0,-0.01 0,-0.02 0,-0.01 0,-0.01 0,-0.02 0,-0 0,-0 0,-0 0.17,-0.93 0.26,-1.94 0.23,-3.03l0 0c-0.2,-6.21 -5.74,-9.6 -5.74,-9.6 -0.01,0.01 -0.02,0.01 -0.02,0.02 -1.5,-4.54 -3.2,-9 -5.09,-13.38 0.01,-0 0.01,-0 0.02,-0 2.7,-0.57 5.38,-1.24 8.06,-1.86 2.69,-0.61 5.36,-1.3 8.02,-2.04 0.8,-0.23 1.6,-0.45 2.4,-0.69 1.46,3.97 2.86,8.29 4.16,12.99l-1.06 0.42c-2.2,0.88 -3.56,3.12 -3.3,5.47 0.57,5.12 1.28,9.89 2.23,14.08 2.29,10.17 6,16.92 12.5,16.93 0.23,0 0.47,-0.01 0.72,-0.03 1.31,-0.09 2.74,-0.45 4.28,-1.1 2.61,-1.1 4.32,-3.24 5.39,-6.01 0.54,-0.15 1.08,-0.33 1.61,-0.56 0.03,3.61 -0.12,7.05 -0.47,10.23 -1.53,14.04 -16.28,21.24 -34.11,24.76z"/>
    <path class="fil1" d="M663.87 139.57c-12.65,0 -28.47,3.6 -42.28,10.33 -14.9,7.25 -23.56,16.42 -23.75,25.16 -0.41,19.07 0.24,81.36 26.04,82.19 29,0.93 78.07,-1.43 80.93,-27.67 3.05,-28.04 -9.21,-75.94 -21.86,-85.42 -4.14,-3.1 -10.96,-4.59 -19.08,-4.59zm-29.82 123.79c-3.49,0 -6.95,-0.06 -10.35,-0.17 -29.3,-0.94 -32.49,-55.7 -31.79,-88.26 0.24,-11.2 9.86,-21.99 27.09,-30.37 21.69,-10.56 53.67,-15.53 67.53,-5.15 15.63,11.72 27.26,62.72 24.2,90.82 -2.92,26.81 -41.21,33.14 -76.67,33.14z"/>
    <path class="fil0" d="M681.85 190.58l13.05 -5.2c2.95,-1.18 6.27,0.49 7.06,3.57 2.74,10.57 6.97,32.49 -3.68,36.98 -12.89,5.44 -17.46,-9.44 -19.73,-29.87 -0.26,-2.35 1.1,-4.59 3.3,-5.47z"/>
    <path class="fil26" d="M693.28 227.06c-6.5,-0 -10.21,-6.75 -12.5,-16.93 2.31,10.17 6.03,16.92 12.52,16.92 0.23,0 0.46,-0.01 0.7,-0.02 -0.25,0.02 -0.49,0.03 -0.72,0.03z"/>
    <path class="fil2" d="M693.3 227.05c-6.49,0 -10.21,-6.75 -12.52,-16.92 -0.94,-4.2 -1.65,-8.98 -2.2,-14.11 -0.25,-2.2 0.93,-4.31 2.9,-5.27 2.08,14.44 5.86,24.83 13.92,24.83 1.5,0 3.14,-0.36 4.96,-1.12 2.16,-0.9 3.7,-2.52 4.77,-4.62 0.04,7.32 -1.59,13.87 -6.88,16.09 -1.53,0.64 -2.94,1 -4.24,1.09 -0.24,0.02 -0.47,0.02 -0.7,0.02z"/>
    <path class="fil1" d="M681.88 190.56l0.01 0 -0.01 0zm15.01 -2.57c-0.26,0 -0.55,0.05 -0.85,0.17l-13.06 5.17c-0.96,0.38 -1.56,1.36 -1.45,2.38 0.64,5.9 2.59,23.87 9,27.65 1.73,1.02 3.87,0.97 6.56,-0.15 7.08,-2.96 5.69,-19.24 2.03,-33.49 -0.22,-0.87 -0.83,-1.29 -1.18,-1.47 -0.22,-0.11 -0.6,-0.25 -1.05,-0.25zm-3.62 42.05c-2.07,0 -3.99,-0.52 -5.76,-1.56 -6.29,-3.71 -9.85,-13.32 -11.89,-32.13 -0.4,-3.67 1.73,-7.18 5.17,-8.55l13.06 -5.17c2.2,-0.87 4.68,-0.76 6.79,0.32 2.11,1.07 3.65,3 4.24,5.29 4.04,15.71 6.36,35.48 -5.49,40.45 -2.16,0.91 -4.2,1.35 -6.12,1.35z"/>
    <path class="fil9" d="M688.87 147.53c-3.19,0.96 -6.4,1.97 -9.58,3.01 -3.18,1.05 -6.35,2.13 -9.48,3.29l-0 0c-0.77,0.29 -1.63,-0.11 -1.92,-0.88 -0.26,-0.7 0.04,-1.47 0.68,-1.83 2.98,-1.64 6,-3.19 9.03,-4.71 3.04,-1.52 6.07,-2.99 9.16,-4.45 1.49,-0.7 3.26,-0.06 3.97,1.43 0.7,1.49 0.06,3.27 -1.43,3.97 -0.13,0.06 -0.26,0.11 -0.39,0.15l-0.02 0.01z"/>
    <path class="fil0" d="M531.91 169.09l-4.12 -23.48c2,7.99 3.32,15.87 4.12,23.48z"/>
    <path class="fil0" d="M557.97 208.9c-13.23,-4.02 32.33,41.89 19.79,47.63 -4.34,1.99 -8.54,4.6 -12.02,8.05 -12.69,12.59 -13.05,37.86 -4.43,48.11 3.4,4.04 7.05,8.53 7.05,8.53 -2.42,3.46 -19.05,31.53 -5.66,42.68 11.72,9.77 33.35,8.16 44.75,-7.2 7.53,-10.16 9.06,-21.87 8.63,-30.83 -0.5,-10.47 -2.38,-20.46 2.84,-28.29 5.95,-8.93 29.12,-12.26 40.66,-25.48 17.63,-20.21 14.03,-83.3 -30.27,-133.4l-71.34 70.22z"/>
    <path class="fil0" d="M617.89 254.14c-13.22,-4.02 -27.58,-3.35 -40.13,2.39 -4.34,1.99 -8.54,4.6 -12.02,8.05 -12.69,12.59 -13.05,37.86 -4.43,48.11 3.4,4.04 7.05,8.53 7.05,8.53 -2.42,3.46 -19.05,31.53 -5.66,42.68 11.72,9.77 33.35,8.16 44.75,-7.2 7.53,-10.16 9.06,-21.87 8.63,-30.83 -0.5,-10.47 -2.38,-20.46 2.84,-28.29 5.95,-8.93 29.12,-12.26 40.66,-25.48 17.63,-20.21 14.03,-83.3 -30.27,-133.4l-11.43 115.45z"/>
    <path class="fil2" d="M580.76 367.01c-3.26,0 -6.52,-0.53 -9.54,-1.63l-2.25 -0.97c-0.72,-0.38 -1.41,-0.8 -2.12,-1.19 -0.68,-0.43 -1.3,-0.95 -1.96,-1.41 -0.36,-0.23 -0.56,-0.49 -0.84,-0.73 -0.13,-0.12 -0.27,-0.24 -0.39,-0.37l-0.34 -0.41c-0.24,-0.27 -0.45,-0.56 -0.66,-0.86 5.09,2 10.96,3.19 16.76,3.19 9.15,0 18.13,-2.96 23.61,-10.35 7.53,-10.16 4.06,-23.3 3.63,-32.26 -0.51,-10.47 -4.32,-25.48 2.98,-34.01 11.69,-13.64 28.98,-6.55 40.52,-19.77 7.79,-8.92 11.44,-26.22 9.26,-47.06 2.41,-1.02 4.15,-1.94 5.25,-2.58 0.04,0.22 0.08,0.45 0.12,0.67 1.18,7.08 1.82,14.24 1.69,21.36 -0.09,3.56 -0.37,7.1 -0.87,10.59 -0.55,3.48 -1.33,6.9 -2.43,10.17 -1.11,3.26 -2.56,6.38 -4.49,9.05 -1.89,2.63 -4.44,4.93 -7.22,6.93 -5.63,4.02 -12.26,6.88 -18.98,9.91 -3.37,1.54 -6.8,3.09 -10.17,5.24 -1.68,1.1 -3.36,2.37 -4.86,4.1 -0.37,0.42 -0.73,0.93 -1.04,1.38l-0.82 1.37c-0.28,0.45 -0.48,0.94 -0.72,1.42 -0.24,0.47 -0.44,0.96 -0.62,1.45 -0.76,1.96 -1.24,4 -1.5,5.99 -0.26,2 -0.38,3.98 -0.36,5.9 0.01,3.86 0.35,7.57 0.58,11.19l0.16 2.7c0.03,0.87 0.07,1.74 0.06,2.61 -0,1.74 -0.08,3.48 -0.26,5.2 -0.33,3.45 -1.07,6.84 -2.14,10.1 -2.23,6.45 -5.93,12.54 -11.21,16.59 -2.62,2.05 -5.56,3.75 -8.74,4.79 -3.17,1.08 -6.51,1.65 -9.85,1.67 -0.07,0 -0.14,0 -0.22,0zm75.56 -165.51c-1.49,-6.1 -3.44,-12.37 -5.89,-18.71 0.15,0 0.29,0 0.44,0 0.39,0 0.78,-0.01 1.17,-0.02 0.7,-0.03 1.39,-0.08 2.09,-0.14 2.39,5.37 4.48,10.88 6.23,16.49 -1.3,0.87 -2.65,1.66 -4.05,2.37z"/>
    <path class="fil1" d="M617.6 255.09c-2.45,-0.28 -4.85,-0.57 -7.25,-0.73 -2.4,-0.12 -4.78,-0.24 -7.15,-0.16 -2.37,0.07 -4.72,0.21 -7.05,0.51 -2.32,0.29 -4.64,0.65 -6.9,1.23 -1.14,0.25 -2.25,0.61 -3.38,0.91 -1.1,0.38 -2.22,0.7 -3.29,1.15 -2.18,0.81 -4.31,1.77 -6.34,2.86 -2.03,1.08 -3.97,2.32 -5.75,3.7 -0.89,0.7 -1.74,1.43 -2.55,2.21 -0.38,0.4 -0.77,0.78 -1.14,1.19 -0.35,0.43 -0.74,0.82 -1.07,1.27 -2.75,3.49 -4.68,7.73 -5.88,12.17 -1.18,4.46 -1.63,9.15 -1.36,13.76 0.27,4.59 1.28,9.19 3.33,12.99 0.52,0.94 1.1,1.8 1.75,2.59l2.36 2.86 4.75 5.74 1.41 1.71 -1.28 1.87c-0.42,0.62 -0.9,1.39 -1.34,2.14 -0.44,0.76 -0.88,1.53 -1.3,2.31 -0.85,1.56 -1.64,3.15 -2.39,4.75 -1.5,3.21 -2.78,6.51 -3.74,9.85 -0.94,3.33 -1.57,6.73 -1.49,9.96 0.05,3.24 0.92,6.22 2.77,8.37l0.34 0.41c0.12,0.13 0.26,0.25 0.39,0.37 0.28,0.24 0.48,0.5 0.84,0.73 0.66,0.46 1.28,0.97 1.96,1.41 0.71,0.39 1.4,0.81 2.12,1.19l2.25 0.97c3.09,1.13 6.42,1.66 9.76,1.63 3.34,-0.02 6.68,-0.6 9.85,-1.67 3.19,-1.05 6.12,-2.74 8.74,-4.79 5.28,-4.05 8.98,-10.14 11.21,-16.59 1.07,-3.26 1.81,-6.65 2.14,-10.1 0.19,-1.72 0.26,-3.46 0.26,-5.2 0.01,-0.87 -0.02,-1.74 -0.06,-2.61l-0.16 -2.7c-0.23,-3.62 -0.57,-7.33 -0.58,-11.19 -0.02,-1.92 0.1,-3.9 0.36,-5.9 0.26,-2 0.74,-4.03 1.5,-5.99 0.18,-0.49 0.37,-0.98 0.62,-1.45 0.24,-0.48 0.44,-0.97 0.72,-1.42l0.82 -1.37c0.32,-0.46 0.67,-0.97 1.04,-1.38 1.5,-1.73 3.18,-3.01 4.86,-4.1 3.38,-2.15 6.81,-3.7 10.17,-5.24 6.72,-3.03 13.35,-5.89 18.98,-9.91 2.78,-2 5.33,-4.3 7.22,-6.93 1.93,-2.66 3.38,-5.78 4.49,-9.05 1.11,-3.27 1.88,-6.7 2.43,-10.17 0.5,-3.49 0.78,-7.03 0.87,-10.59 0.13,-7.12 -0.51,-14.29 -1.69,-21.36 -2.46,-14.15 -7.16,-27.94 -13.57,-40.84 -3.2,-6.47 -7.14,-12.52 -11.03,-18.57 -3.92,-6.06 -8.01,-11.96 -11.6,-18.52l-0 -0.01c-0.27,-0.49 -0.09,-1.11 0.4,-1.37 0.35,-0.2 0.78,-0.16 1.09,0.07 6.1,4.47 11.03,10.2 15.33,16.31 4.33,6.11 7.81,12.77 11.15,19.45 6.64,13.39 11.53,27.69 14.1,42.49 1.24,7.4 1.92,14.92 1.77,22.49 -0.09,3.78 -0.39,7.57 -0.93,11.35 -0.6,3.77 -1.44,7.53 -2.69,11.22 -1.25,3.67 -2.91,7.3 -5.3,10.6 -2.42,3.35 -5.41,6 -8.58,8.28 -6.36,4.53 -13.35,7.48 -19.98,10.49 -3.31,1.51 -6.59,3.02 -9.4,4.82 -1.39,0.9 -2.65,1.9 -3.55,2.95 -0.24,0.27 -0.4,0.52 -0.61,0.81l-0.6 1c-0.21,0.32 -0.34,0.69 -0.52,1.04 -0.18,0.34 -0.33,0.71 -0.46,1.08 -1.15,2.91 -1.46,6.28 -1.47,9.75 0.01,3.49 0.33,7.1 0.57,10.81l0.16 2.8c0.03,0.96 0.07,1.93 0.06,2.9 -0,1.93 -0.08,3.87 -0.29,5.79 -0.37,3.86 -1.2,7.69 -2.42,11.4 -1.27,3.7 -2.98,7.27 -5.13,10.57 -0.57,0.8 -1.09,1.63 -1.72,2.4l-1.91 2.31c-0.66,0.76 -1.41,1.42 -2.12,2.13 -0.69,0.73 -1.49,1.33 -2.28,1.95 -3.15,2.46 -6.68,4.48 -10.48,5.74 -3.78,1.29 -7.76,1.97 -11.76,2 -4,0.03 -8.03,-0.6 -11.85,-2l-2.81 -1.2c-0.91,-0.47 -1.79,-1 -2.68,-1.5 -0.87,-0.55 -1.68,-1.2 -2.51,-1.8 -0.41,-0.27 -0.83,-0.71 -1.23,-1.08 -0.2,-0.19 -0.41,-0.38 -0.6,-0.58l-0.55 -0.64c-1.46,-1.71 -2.53,-3.74 -3.19,-5.81 -0.68,-2.08 -0.93,-4.2 -0.98,-6.25 -0.1,-4.12 0.67,-8.02 1.71,-11.74 1.07,-3.72 2.46,-7.28 4.07,-10.73 0.8,-1.72 1.65,-3.41 2.56,-5.08 0.45,-0.84 0.92,-1.66 1.41,-2.49 0.5,-0.83 0.97,-1.62 1.59,-2.52l0.13 3.58 -4.71 -5.69 -2.36 -2.85c-0.92,-1.13 -1.71,-2.32 -2.39,-3.55 -2.65,-4.94 -3.72,-10.25 -4.05,-15.49 -0.3,-5.26 0.2,-10.52 1.54,-15.63 1.32,-5.1 3.49,-10.07 6.79,-14.42 3.35,-4.41 7.69,-7.7 12.31,-10.24 2.32,-1.26 4.71,-2.32 7.18,-3.21 2.46,-0.88 4.98,-1.62 7.54,-2.11 10.2,-2.12 21.07,-1.12 30.26,3.29 0.5,0.24 0.71,0.84 0.47,1.34 -0.19,0.4 -0.6,0.61 -1.02,0.56l-0.03 -0z"/>
    <path class="fil1" d="M615.82 308.01c-0.1,0 -0.2,-0.01 -0.3,-0.02 -1.22,-0.17 -2.08,-1.29 -1.91,-2.51 3.21,-23.73 -10.68,-34.85 -16.8,-38.53 -9.76,-5.87 -21.74,-6.61 -28.49,-1.76 -1,0.72 -2.39,0.49 -3.11,-0.51 -0.72,-1 -0.49,-2.39 0.51,-3.11 8.26,-5.93 21.99,-5.29 33.38,1.56 6.88,4.13 22.48,16.59 18.92,42.94 -0.15,1.12 -1.11,1.93 -2.21,1.93z"/>
    <path class="fil1" d="M568.11 316.27l1.25 0.84 1.35 0.87c0.92,0.56 1.84,1.12 2.8,1.61 1.89,1.02 3.86,1.87 5.89,2.45 1.02,0.3 2.05,0.53 3.1,0.67 1.05,0.16 2.11,0.26 3.2,0.26 2.2,0.09 4.44,-0.26 6.93,-0.71 -1.58,1.96 -3.83,3.44 -6.34,4.26 -2.51,0.85 -5.25,0.98 -7.88,0.68 -2.64,-0.31 -5.19,-1.07 -7.57,-2.14 -1.18,-0.55 -2.34,-1.15 -3.42,-1.86 -0.55,-0.35 -1.09,-0.71 -1.61,-1.11 -0.54,-0.41 -1,-0.78 -1.59,-1.33 -1.2,-1.12 -1.26,-3 -0.14,-4.2 1.01,-1.08 2.64,-1.24 3.83,-0.43l0.19 0.13z"/>
    <path class="fil0" d="M625.93 148.61c61.88,-26.26 68.76,-53.19 87.57,-53.59 18.81,-0.4 27.71,17.4 16.7,41.62 -18.1,39.83 -86.63,44.16 -86.63,44.16l-17.64 -32.19z"/>
    <path class="fil2" d="M643.22 180.01c-0.99,-2.84 0.71,-6.02 3.78,-6.65 20.5,-4.24 56.7,-15.25 71.81,-41.76 5.4,-9.47 7.89,-19.86 7.88,-29.09 0.36,0.35 0.71,0.71 1.04,1.09 1.45,1.74 2.58,3.79 3.26,6.06 0.71,2.25 1.03,4.68 1.03,7.15 0.01,2.47 -0.27,4.97 -0.79,7.45 -0.52,2.48 -1.26,4.94 -2.16,7.36l-0.71 1.8 -0.77 1.78c-0.55,1.15 -1.15,2.27 -1.71,3.41 -2.47,4.46 -5.7,8.5 -9.44,12.06 -3.74,3.56 -7.97,6.66 -12.46,9.36 -9,5.39 -19,9.24 -29.24,12.11 -2.56,0.71 -5.14,1.38 -7.75,1.96 -2.6,0.61 -5.24,1 -7.87,1.42 -2.63,0.41 -5.25,0.93 -7.85,1.54 -2.6,0.65 -5.2,1.45 -7.76,2.76l-0.04 0.02c-0.09,0.05 -0.18,0.11 -0.25,0.18z"/>
    <path class="fil1" d="M625.54 147.7c4.36,-3.56 9.08,-6.09 13.8,-8.64 4.7,-2.58 9.48,-4.98 14.15,-7.58 4.68,-2.59 9.18,-5.49 13.56,-8.53 4.39,-3.05 8.64,-6.27 12.78,-9.68 4.15,-3.39 8.16,-6.96 12.33,-10.53 2.09,-1.78 4.24,-3.56 6.58,-5.22 2.34,-1.66 4.93,-3.2 7.87,-4.23 1.45,-0.54 3.01,-0.86 4.56,-1.08 0.78,-0.09 1.57,-0.13 2.34,-0.17 0.75,0.01 1.5,-0.01 2.25,0.05 3,0.18 6.07,0.76 8.92,2.06 2.87,1.24 5.48,3.19 7.55,5.57 2.03,2.41 3.53,5.23 4.42,8.15 0.93,2.92 1.3,5.93 1.31,8.89 0.01,2.96 -0.33,5.87 -0.92,8.69 -0.59,2.83 -1.42,5.58 -2.41,8.24l-0.78 1.98 -0.84 1.95c-0.62,1.29 -1.29,2.57 -1.94,3.86 -2.79,5.04 -6.42,9.56 -10.53,13.48 -4.12,3.92 -8.7,7.27 -13.5,10.15 -9.63,5.76 -20.08,9.76 -30.7,12.74 -2.66,0.74 -5.33,1.43 -8.02,2.04 -2.69,0.62 -5.36,1.29 -8.06,1.86 -2.7,0.56 -5.45,0.89 -8.21,1.02 -2.77,0.08 -5.57,-0.09 -8.41,-0.99 -0.56,-0.18 -0.87,-0.77 -0.69,-1.33 0.09,-0.28 0.28,-0.5 0.53,-0.62l0.04 -0.02c2.56,-1.31 5.16,-2.1 7.76,-2.76 2.61,-0.61 5.22,-1.13 7.85,-1.54 2.63,-0.43 5.27,-0.81 7.87,-1.42 2.61,-0.58 5.18,-1.25 7.75,-1.96 10.24,-2.87 20.23,-6.71 29.24,-12.11 4.49,-2.7 8.72,-5.8 12.46,-9.36 3.73,-3.56 6.97,-7.6 9.44,-12.06 0.57,-1.14 1.16,-2.26 1.71,-3.41l0.77 -1.78 0.71 -1.8c0.9,-2.41 1.64,-4.87 2.16,-7.36 0.52,-2.48 0.81,-4.99 0.79,-7.45 0,-2.47 -0.32,-4.9 -1.03,-7.15 -0.68,-2.27 -1.81,-4.32 -3.26,-6.06 -1.49,-1.71 -3.33,-3.09 -5.44,-4 -2.09,-0.96 -4.44,-1.41 -6.84,-1.56 -0.6,-0.05 -1.21,-0.02 -1.81,-0.04 -0.58,0.04 -1.15,0.06 -1.72,0.12 -1.13,0.17 -2.25,0.39 -3.34,0.8 -4.39,1.52 -8.49,4.92 -12.56,8.36 -4.07,3.49 -8.16,7.13 -12.41,10.6 -4.24,3.49 -8.64,6.82 -13.15,9.96 -4.52,3.15 -9.18,6.07 -13.86,8.96 -4.69,2.88 -9.5,5.55 -14.51,7.8 -1.26,0.55 -2.51,1.12 -3.78,1.64 -1.28,0.51 -2.57,0.97 -3.88,1.4 -1.3,0.44 -2.63,0.82 -3.99,1.12 -1.35,0.32 -2.71,0.6 -4.12,0.76 -0.57,0.07 -1.08,-0.34 -1.15,-0.9 -0.04,-0.36 0.11,-0.7 0.37,-0.92z"/>
    <path class="fil0" d="M485.32 133.95c69.19,102.52 214.96,11.54 159.34,-93.79 -68.33,-106.63 -218.93,-12.44 -159.34,93.79z"/>
    <path class="fil0" d="M485.32 133.95c69.19,102.52 214.96,11.54 159.34,-93.79 -68.33,-106.63 -218.93,-12.44 -159.34,93.79z"/>
    <path class="fil2" d="M529.4 180.49c-10.48,-4.63 -20.59,-11.55 -29.84,-21.08 0.48,-0.81 0.95,-1.65 1.4,-2.51 2.58,2.39 5.26,4.6 8.01,6.62 6.29,4.71 12.98,8.55 20,11.47 0.16,1.86 0.3,3.7 0.42,5.51zm-33.02 -24.51c-3.52,-3.95 -6.91,-8.3 -10.13,-13.07 -2.15,-3.83 -4.02,-7.65 -5.64,-11.44 0.67,1.31 1.38,2.62 2.11,3.92l0.13 0.21c1.93,2.86 3.93,5.59 6,8.2 2.61,3.47 5.47,6.87 8.57,10.2 -0.34,0.68 -0.69,1.34 -1.05,1.98z"/>
    <path class="fil1" d="M499.56 159.4c-1.07,-1.11 -2.13,-2.25 -3.18,-3.42 0.36,-0.64 0.71,-1.3 1.05,-1.98 0.16,0.17 0.32,0.34 0.49,0.52l0.29 0.31 0.36 0.22c0.38,0.22 0.76,0.44 1.13,0.66 0.42,0.4 0.84,0.8 1.27,1.19 -0.45,0.86 -0.92,1.7 -1.4,2.51z"/>
    <path class="fil2" d="M564.17 187.81c-7.01,0 -14.08,-0.84 -21.07,-2.6 -1.41,-0.35 -2.82,-0.75 -4.23,-1.18l-1.76 -6.11c3.06,0.94 6.17,1.71 9.33,2.31 5.56,1.06 11.2,1.59 16.84,1.59 8.72,0 17.47,-1.25 25.99,-3.71l-8.22 8.09c-5.54,1.06 -11.19,1.61 -16.87,1.61z"/>
    <path class="fil2" d="M538.86 184.02c-1.13,-0.35 -2.25,-0.72 -3.37,-1.11 -0.1,-1.85 -0.22,-3.73 -0.37,-5.63 0.66,0.22 1.32,0.43 1.98,0.63l1.76 6.11z"/>
    <path class="fil1" d="M535.49 182.91c-1.01,-0.36 -2.02,-0.74 -3.02,-1.13 -1.03,-0.41 -2.05,-0.84 -3.07,-1.29 -0.12,-1.81 -0.26,-3.65 -0.42,-5.51 2.02,0.84 4.07,1.61 6.15,2.3 0.15,1.9 0.27,3.78 0.37,5.63z"/>
    <path class="fil2" d="M581.04 186.2l8.22 -8.09c8.16,-2.35 16.11,-5.81 23.65,-10.32 5.22,-3.13 10.09,-6.67 14.57,-10.57l-0.63 6.37c-12.93,11.41 -28.87,19.38 -45.81,22.61z"/>
    <path class="fil2" d="M626.86 163.59l0.63 -6.37c0.72,-0.62 1.42,-1.26 2.12,-1.9l2.05 3.74c0,0 0,0 0,0 -1.55,1.56 -3.15,3.08 -4.8,4.53z"/>
    <path class="fil2" d="M631.65 159.06l-2.05 -3.74c3.08,-2.85 5.97,-5.87 8.64,-9.05 0.02,-0.01 0.04,-0.02 0.07,-0.03 1.27,-0.52 2.52,-1.09 3.78,-1.64 0.62,-0.28 1.24,-0.57 1.86,-0.86 -1.54,2.39 -3.19,4.71 -4.94,6.95 -2.28,2.94 -4.73,5.73 -7.35,8.37z"/>
    <path class="fil1" d="M638.24 146.26c1.46,-1.74 2.85,-3.52 4.17,-5.34 1.05,-0.54 2.08,-1.08 3.1,-1.62 0.4,-0.05 0.79,-0.1 1.19,-0.18 -0.88,1.57 -1.8,3.11 -2.77,4.61 -0.62,0.29 -1.24,0.58 -1.86,0.86 -1.26,0.55 -2.51,1.12 -3.78,1.64 -0.02,0.01 -0.04,0.02 -0.07,0.03z"/>
    <path class="fil27" d="M485.32 133.95c69.19,102.52 214.96,11.54 159.34,-93.79 -68.33,-106.63 -218.93,-12.44 -159.34,93.79z"/>
    <path class="fil9" d="M487.12 132.83c34.69,51.32 86.85,52.35 123.18,30.58 35.49,-21.26 60.8,-68.56 32.53,-122.2 -34.07,-53.08 -88.32,-54.02 -124.32,-32.41 -36.36,21.82 -61.67,69.93 -31.38,124.02zm76.15 48.13c-5.59,0 -11.18,-0.52 -16.68,-1.57 -24.91,-4.76 -46.7,-20.07 -63.03,-44.26l-0.09 -0.15c-14.19,-25.29 -17.63,-51.69 -9.96,-76.36 6.84,-22.01 22.05,-40.99 42.81,-53.45 20.72,-12.44 44.48,-16.81 66.88,-12.32 25.27,5.07 47.14,21.03 63.24,46.15l0.09 0.16c13.26,25.11 16.15,51.17 8.37,75.38 -6.96,21.65 -22.03,40.3 -42.42,52.51 -15.29,9.16 -32.3,13.91 -49.2,13.91z"/>
    <path class="fil2" d="M555.38 173.83c-7.61,0 -15.44,-1.16 -23.21,-3.8 -2.5,-1.01 -4.99,-2.16 -7.45,-3.45 8.9,2.64 17.8,3.97 26.55,3.97 5.61,0 11.16,-0.55 16.62,-1.65 19.88,-4.02 37.4,-15.25 49.36,-31.62 2.24,-3.07 4.24,-6.26 6,-9.56 0.84,1.38 1.77,2.64 2.75,3.77 -8.36,14.92 -21.15,26.78 -35.58,33.99 -10.17,5.08 -22.29,8.35 -35.04,8.35zm32.36 -1.45c1.67,-0.71 3.33,-1.47 4.97,-2.29 15.7,-7.84 28.67,-20.05 37.28,-34.93 2.1,1.54 4.38,2.66 6.71,3.37 -7.43,9.88 -16.72,18.09 -26.85,24.16 -6.87,4.12 -14.32,7.41 -22.11,9.69z"/>
    <path class="fil28" d="M487.85 132.38c34.37,50.83 86.04,51.86 122.01,30.3 35.15,-21.06 60.22,-67.9 32.23,-121.03 -33.76,-52.58 -87.49,-53.51 -123.15,-32.11 -36.01,21.61 -61.08,69.26 -31.09,122.84zm75.42 49.43c-5.65,0 -11.28,-0.52 -16.84,-1.59 -25.14,-4.81 -47.12,-20.24 -63.57,-44.62l-0.13 -0.21c-14.3,-25.49 -17.77,-52.13 -10.02,-77.03 6.9,-22.21 22.24,-41.36 43.18,-53.93 20.9,-12.54 44.87,-16.96 67.49,-12.42 25.5,5.11 47.56,21.2 63.79,46.53l0.13 0.22c13.37,25.31 16.28,51.61 8.42,76.03 -7.03,21.84 -22.22,40.66 -42.8,52.99 -15.42,9.24 -32.59,14.03 -49.65,14.03z"/>
    <path class="fil1" d="M487.85 132.38c34.37,50.83 86.04,51.86 122.01,30.3 35.15,-21.06 60.22,-67.9 32.23,-121.03 -33.76,-52.58 -87.49,-53.51 -123.15,-32.11 -36.01,21.61 -61.08,69.26 -31.09,122.84zm75.42 49.43c-5.65,0 -11.28,-0.52 -16.84,-1.59 -25.14,-4.81 -47.12,-20.24 -63.57,-44.62l-0.13 -0.21c-14.3,-25.49 -17.77,-52.13 -10.02,-77.03 6.9,-22.21 22.24,-41.36 43.18,-53.93 20.9,-12.54 44.87,-16.96 67.49,-12.42 25.5,5.11 47.56,21.2 63.79,46.53l0.13 0.22c13.37,25.31 16.28,51.61 8.42,76.03 -7.03,21.84 -22.22,40.66 -42.8,52.99 -15.42,9.24 -32.59,14.03 -49.65,14.03z"/>
    <path class="fil29 str0" d="M500.07 152.48c93.52,55.18 172.92,-53.95 101.98,-117.25 -83.77,-66.08 -177.79,36.91 -101.98,117.25z"/>
    <path class="fil30" d="M475.07 88.17c-0.41,98.15 139.95,106.32 155.05,16.65 -44.97,52.83 -128.75,30.84 -155.05,-16.65z"/>
    <path class="fil1" d="M487.49 132.57c30.13,47.2 74.27,47.23 102.92,32.91 32.93,-16.45 57.28,-57.11 40.09,-102.99 -8.75,-21.64 -27.35,-39.3 -51.02,-48.4 -23.68,-9.11 -49.4,-8.46 -70.59,1.76 -38.98,28.12 -42.55,83.01 -21.4,116.72zm68.02 46.45c-6.59,0 -13.14,-0.82 -19.5,-2.49 -20.87,-5.47 -39.15,-19.72 -52.86,-41.2l-0.01 -0.02c-22.43,-35.74 -18.57,-94.01 22.93,-123.77l0.38 -0.22c22.51,-10.94 49.8,-11.68 74.89,-2.03 24.99,9.61 44.66,28.32 53.97,51.33 8.44,22.52 8.09,45.31 -0.98,65.99 -8.22,18.74 -22.99,34.18 -41.61,43.48 -11.85,5.92 -24.6,8.94 -37.21,8.94z"/>
    <path class="fil31" d="M501.95 150.14c47.68,27.93 89.83,11.94 110.5,-16.36 18.76,-25.68 22.22,-65.4 -12.3,-96.27 -41.58,-32.75 -83.2,-22.26 -106.03,2.67 -23.45,25.62 -30.08,69.52 7.83,109.96zm49.32 20.42c-17.36,0 -35.3,-5.24 -52.71,-15.51l-0.36 -0.22 -0.29 -0.31c-18.3,-19.4 -28.21,-41.55 -28.65,-64.05 -0.4,-20.16 6.87,-39.45 20.47,-54.3 13.29,-14.52 31.3,-23.33 50.72,-24.8 21.58,-1.63 43.52,5.81 63.45,21.53l0.14 0.12c16.65,14.86 26.34,33.19 28,53 1.51,17.94 -3.74,36.15 -14.79,51.27 -11.96,16.37 -29.48,27.6 -49.36,31.62 -5.45,1.1 -11.01,1.65 -16.62,1.65z"/>
    <path class="fil27" d="M669.22 105.04c-5.91,43.21 -49.71,40.93 -48.23,-0.9 4.53,-45.52 51.35,-43.08 48.23,0.9z"/>
    <path class="fil32" d="M642.49 133.5c-0.28,-0.01 -0.56,-0.03 -0.84,-0.05 -8.98,-0.77 -17.76,-9.54 -17.71,-27.36 1.31,1.24 2.75,1.79 4.27,1.79 1.21,0 2.46,-0.35 3.74,-0.97 -0.01,0.1 -0.02,0.2 -0.03,0.3l-0.01 0.15c-0.49,13.78 4.33,22.33 10.59,26.14z"/>
    <path class="fil1" d="M669.22 105.04l0.01 0 -0.01 0zm-45.26 -0.69c-0.64,19.01 8.41,28.32 17.68,29.11 9.83,0.85 21.73,-7.79 24.62,-28.73 1.38,-19.93 -8.14,-29.87 -17.6,-30.68 -10.66,-0.92 -22.58,9.2 -24.71,30.29zm18.98 35.12c-0.61,0 -1.21,-0.03 -1.81,-0.08 -12.09,-1.04 -23.93,-12.37 -23.11,-35.35l0.01 -0.19c2.49,-24.98 17.55,-36.89 31.14,-35.72 12.28,1.04 24.72,13.11 23.01,37.12l-0.02 0.19c-3.24,23.67 -17.06,34.02 -29.22,34.02z"/>
    <path class="fil27" d="M670.95 107.42c-4.82,35.01 -37.67,33.85 -36.48,0.03 3.54,-37.31 39.23,-36.02 36.48,-0.03z"/>
    <path class="fil1" d="M670.95 107.42l0.01 0 -0.01 0zm-33.91 0.19c-0.51,15.1 6.02,22.44 12.72,23.02 7.31,0.64 16.25,-6.45 18.62,-23.49 1.21,-16.05 -5.7,-24 -12.64,-24.59 -8,-0.7 -17.04,7.7 -18.71,25.06zm13.6 28.21c-0.44,0 -0.88,-0.02 -1.31,-0.06 -9.14,-0.79 -18.08,-9.88 -17.43,-28.41l0.01 -0.15c1.97,-20.75 13.69,-30.69 24.28,-29.78 9.4,0.81 18.83,10.59 17.33,30.19l-0.02 0.15c-2.69,19.51 -13.47,28.05 -22.86,28.05z"/>
    <path class="fil33" d="M600.33 96.57c-6.28,0 -12.28,-5.56 -11.41,-14.56 1.37,-8.87 6.8,-12.72 12.13,-12.72 6.75,0 13.33,6.17 11.33,16.14 -2.1,7.76 -7.16,11.15 -12.05,11.15z"/>
    <path class="fil33" d="M597.01 117.32c-2.8,0 -5.42,-2.52 -4.4,-6.9 0.92,-2.77 2.98,-4.03 4.97,-4.03 2.8,0 5.42,2.52 4.4,6.9 -0.92,2.77 -2.98,4.03 -4.97,4.03z"/>
    <path class="fil33" d="M484.77 95.02c-9.8,-51.87 28.28,-70.58 57.11,-70.58 9.48,0 17.96,2.02 23.41,5.55 -45.89,4.04 -65.69,32.8 -80.52,65.02z"/>
    <path class="fil32" d="M650.68 130.68c-0.31,0 -0.61,-0.01 -0.92,-0.04 -6.71,-0.58 -13.23,-7.92 -12.72,-23.02 0.02,-0.19 0.04,-0.38 0.06,-0.57 3.01,5 7.22,7.1 11.66,7.1 7.5,0 15.63,-6 19.61,-14.2 0.2,2.19 0.22,4.58 0.02,7.19 -2.27,16.33 -10.58,23.53 -17.7,23.53z"/>
    <path class="fil1" d="M649.4 132.86c-6.97,0 -13.68,-5.27 -16.54,-17.46 -0.72,-4.92 -0.1,-10.05 1.55,-14.77 0.72,2.52 1.63,4.65 2.69,6.42 -0.02,0.19 -0.04,0.38 -0.06,0.57 -0.51,15.1 6.02,22.44 12.72,23.02 0.3,0.02 0.61,0.04 0.92,0.04 7.12,0 15.43,-7.2 17.7,-23.53 0.2,-2.61 0.18,-5.01 -0.02,-7.19 0.58,-1.2 1.08,-2.45 1.47,-3.73 3.69,21.82 -8.74,36.64 -20.43,36.64z"/>
    <path class="fil9" d="M622.88 72.61l0 0zm0.03 5.95c-0.88,0 -1.62,-0.22 -2.22,-0.49 -3.93,-1.84 -4.35,-7.91 -4.39,-9.72 -0.03,-1.64 1.27,-3 2.91,-3.03 0.02,0 0.04,0 0.06,0 1.61,0 2.94,1.29 2.97,2.9 0.04,1.61 0.46,3.54 0.9,4.3 0.2,-0.09 0.5,-0.28 0.93,-0.61 1.28,-1.03 3.15,-0.82 4.18,0.46 1.03,1.28 0.82,3.15 -0.46,4.18 -1.9,1.52 -3.54,2.02 -4.87,2.02z"/>
    <path class="fil0" d="M524.89 219.47c0.42,5.54 5.25,9.7 10.79,9.28 5.54,-0.42 9.7,-5.25 9.28,-10.79 -0.42,-5.55 -5.25,-9.7 -10.79,-9.28 -5.54,0.42 -9.7,5.25 -9.28,10.79z"/>
    <path class="fil2" d="M532.96 225.94c-2.97,-0.81 -5.27,-3.42 -5.51,-6.67 -0.04,-0.57 -0.02,-1.14 0.06,-1.7 1.47,1.33 3.32,2.23 5.36,2.52l0.09 5.85z"/>
    <path class="fil1" d="M534.93 211.22c-0.19,0 -0.37,0.01 -0.57,0.02 -2,0.15 -3.81,1.07 -5.12,2.59 -1.3,1.52 -1.94,3.45 -1.79,5.45 0.31,4.12 3.92,7.22 8.03,6.91 4.12,-0.31 7.22,-3.91 6.91,-8.03 -0.29,-3.93 -3.59,-6.93 -7.47,-6.93zm-0.01 20.13c-6.54,0 -12.1,-5.06 -12.6,-11.69 -0.25,-3.37 0.82,-6.63 3.02,-9.19 2.2,-2.56 5.27,-4.11 8.63,-4.36 3.37,-0.25 6.63,0.82 9.19,3.02 2.56,2.2 4.11,5.27 4.36,8.63 0.52,6.95 -4.71,13.03 -11.65,13.55 -0.32,0.02 -0.64,0.04 -0.96,0.04z"/>
    <path class="fil0" d="M547.26 242.82l53.2 -0.84c6.3,-0.1 11.37,-5.33 11.27,-11.63l-0.45 -28.31c-0.09,-5.52 -4.12,-10.09 -9.35,-11.08 -0.74,-0.15 -1.51,-0.21 -2.29,-0.2l-53.2 0.84c-6.31,0.1 -11.38,5.33 -11.28,11.64l0.35 22.42 0.09 5.89c0.1,6.3 5.34,11.37 11.64,11.27z"/>
    <path class="fil2" d="M545.32 240.07c-1.64,-0.33 -3.17,-1.13 -4.41,-2.33 -1.71,-1.66 -2.67,-3.87 -2.71,-6.23l-0.07 -4.63c5.01,2.23 12.44,4.74 22.67,5.26 1.72,0.09 3.35,0.13 4.9,0.13 9.75,-0 16.25,-1.69 20.66,-4.7 3.74,-0.98 6.6,-4.77 7.09,-9.44 0.79,-2.14 1.36,-4.48 1.8,-7l0.3 19.27c0.04,2.36 -0.85,4.6 -2.51,6.31 -1.66,1.71 -3.87,2.67 -6.23,2.71l-41.49 0.65z"/>
    <path class="fil1" d="M599.83 193.33c-0.05,0 -0.09,0 -0.14,0l-53.2 0.84c-2.36,0.04 -4.57,1 -6.23,2.71 -1.66,1.71 -2.55,3.95 -2.51,6.31l0.44 28.32c0.04,2.36 1,4.57 2.71,6.23 1.71,1.66 3.95,2.54 6.31,2.51l53.2 -0.84c2.36,-0.04 4.57,-1 6.23,-2.71 1.66,-1.71 2.55,-3.95 2.51,-6.31l-0.44 -28.32c-0.08,-4.85 -4.05,-8.74 -8.88,-8.74zm-52.76 52.07c-7.64,0 -13.91,-6.15 -14.03,-13.81l-0.45 -28.32c-0.12,-7.73 6.07,-14.13 13.81,-14.25l53.2 -0.84c7.69,-0.12 14.13,6.07 14.25,13.81l0.44 28.32c0.06,3.74 -1.35,7.28 -3.96,9.98 -2.61,2.7 -6.11,4.22 -9.84,4.28l-53.2 0.84c-0.08,0 -0.15,0 -0.22,0z"/>
    <path class="fil0" d="M545.12 242.64c0.69,0.13 1.4,0.19 2.14,0.18l53.2 -0.84c4.61,-0.07 8.57,-2.9 10.32,-6.9 0.64,-1.45 0.98,-3.06 0.95,-4.74l-0.19 -12.58 -0.06 -4.15 -0.18 -11.58c-0.1,-6.31 -5.34,-11.37 -11.64,-11.28l-11.5 0.18c5.31,0.92 9.42,5.52 9.51,11.1l0.25 15.29 0.2 13.03c0.1,6.3 -4.98,11.54 -11.27,11.64l-41.73 0.65z"/>
    <path class="fil2" d="M597.48 239.46c2.13,-2.57 3.27,-5.78 3.21,-9.14l-0.17 -10.63c0.98,0.65 1.99,1.04 3.01,1.04 0.16,0 0.31,-0.01 0.46,-0.03 0.32,-0.03 0.62,-0.09 0.92,-0.17 1.2,3.17 3.3,5.38 3.3,5.38 0.29,0.02 0.59,0.03 0.88,0.05l0.07 4.42 0 0c0.04,2.36 -0.85,4.6 -2.51,6.31 -1.66,1.71 -3.87,2.67 -6.23,2.71l-2.94 0.05z"/>
    <path class="fil1" d="M597.09 193.37c1.94,2.38 3.1,5.39 3.15,8.63l0.44 28.32c0.06,3.36 -1.08,6.57 -3.21,9.14l2.94 -0.05c2.36,-0.03 4.57,-1 6.23,-2.71 1.66,-1.71 2.55,-3.95 2.51,-6.31l0 -0 -0.45 -28.32c-0.03,-2.36 -1,-4.57 -2.71,-6.23 -1.68,-1.63 -3.87,-2.52 -6.18,-2.52 -0.05,0 -0.09,0 -0.14,0l-2.6 0.04zm-50.07 52.03c-0.79,0 -1.59,-0.07 -2.37,-0.22l0.43 -5.1 41.73 -0.66c2.36,-0.03 4.57,-1 6.23,-2.71 1.66,-1.71 2.55,-3.95 2.51,-6.31l-0.44 -28.32c-0.07,-4.26 -3.17,-7.88 -7.38,-8.61l0.4 -5.11 11.49 -0.18c3.74,-0.04 7.28,1.35 9.98,3.96 2.7,2.62 4.22,6.11 4.28,9.85l0.44 28.31c0.06,3.74 -1.34,7.28 -3.96,9.98 -2.61,2.7 -6.11,4.22 -9.84,4.27l-53.2 0.84c-0.09,0 -0.18,0 -0.27,0z"/>
    <path class="fil34" d="M576.92 216.76c0.02,1.04 1.68,9.47 1.68,9.47 0,0 2.68,-0.06 5.96,-0.13 4.11,-0.09 7.35,-4.41 7.23,-9.66 -0.11,-5.25 -3.53,-9.43 -7.64,-9.34 -2.77,0.06 -5.96,0.13 -5.96,0.13 0,0 -1.3,7.82 -1.27,9.53z"/>
    <path class="fil5" d="M582.83 224.42c1.72,-1.61 2.86,-4.15 2.99,-7.03 0.01,-0.27 0.01,-0.54 0.01,-0.82 -0.07,-3.22 -1.38,-6.04 -3.34,-7.71l1.7 -0.04c0.03,0 0.07,0 0.1,0 3.11,0 5.7,3.41 5.79,7.66 0.09,4.29 -2.4,7.84 -5.55,7.91l-1.7 0.04z"/>
    <path class="fil1" d="M578.64 216.72c0.03,0.59 0.68,4.19 1.37,7.76l4.52 -0.1c3.15,-0.07 5.65,-3.61 5.55,-7.91 -0.09,-4.29 -2.73,-7.73 -5.89,-7.66l-4.54 0.1c-0.47,2.96 -1.03,6.84 -1.02,7.8zm-1.45 11.25l-0.28 -1.42c-0.4,-2.01 -1.69,-8.65 -1.71,-9.76 -0.04,-1.78 1.07,-8.52 1.29,-9.85l0.24 -1.4 7.38 -0.16c0.05,-0 0.11,-0 0.16,-0 4.98,0 9.1,4.9 9.23,11.02 0.13,6.18 -3.87,11.3 -8.91,11.41l-7.41 0.16z"/>
    <path class="fil3" d="M570.96 216.89c0.11,5.25 3.53,9.43 7.64,9.34 4.11,-0.09 7.35,-4.41 7.23,-9.66 -0.11,-5.25 -3.54,-9.43 -7.64,-9.34 -4.11,0.09 -7.35,4.41 -7.23,9.66z"/>
    <path class="fil35" d="M576.8 225.99c-2.68,-0.78 -4.84,-3.41 -5.57,-6.79 0.74,3.38 2.89,6.01 5.57,6.79 0,0 0,0 0,0z"/>
    <path class="fil36" d="M582.83 224.42c1.72,-1.61 2.86,-4.15 2.99,-7.03 -0.13,2.88 -1.27,5.42 -2.99,7.03l-0 0z"/>
    <path class="fil9" d="M578.47 226.23c-0.57,0 -1.13,-0.08 -1.67,-0.24 0,-0 0,-0 0,-0 0.54,0.16 1.1,0.24 1.67,0.24 0.04,0 0.09,0 0.13,0 1.59,-0.03 3.04,-0.7 4.23,-1.81l0 0c-1.18,1.11 -2.64,1.78 -4.23,1.81 -0.04,0 -0.09,0 -0.13,0z"/>
    <path class="fil5" d="M578.47 226.23c-0.57,0 -1.13,-0.08 -1.67,-0.24 -2.68,-0.78 -4.83,-3.41 -5.57,-6.79 -0.16,-0.74 -0.25,-1.51 -0.27,-2.31 -0.02,-0.71 0.03,-1.4 0.14,-2.07 1.12,3.53 3.83,6.02 6.96,6.02 0.05,0 0.09,-0 0.14,-0 3.55,-0.08 6.45,-3.31 7.09,-7.58 0.33,1.03 0.51,2.15 0.54,3.32 0,0.28 0,0.55 -0.01,0.82 -0.13,2.88 -1.28,5.42 -2.99,7.03 -1.19,1.11 -2.64,1.77 -4.23,1.81 -0.04,0 -0.09,0 -0.13,0z"/>
    <path class="fil0" d="M585.83 216.57c0.01,0.36 0,0.71 -0.03,1.06 -0.91,-4.09 -3.89,-7.07 -7.36,-6.99 -3.83,0.09 -6.9,3.85 -7.2,8.61 -0.17,-0.76 -0.27,-1.54 -0.29,-2.36 -0.11,-5.24 3.13,-9.57 7.23,-9.66 4.11,-0.08 7.53,4.09 7.64,9.34z"/>
    <path class="fil1" d="M578.31 208.94c-0.03,0 -0.06,0 -0.09,0 -3.16,0.07 -5.65,3.62 -5.56,7.91 0.05,2.16 0.74,4.15 1.94,5.62 1.1,1.34 2.5,2.09 3.95,2.04 1.45,-0.03 2.82,-0.81 3.86,-2.21 1.14,-1.52 1.74,-3.54 1.69,-5.7 -0.05,-2.16 -0.73,-4.15 -1.94,-5.62 -1.08,-1.32 -2.45,-2.04 -3.86,-2.04zm0.15 19c-2.46,0 -4.77,-1.17 -6.51,-3.3 -1.69,-2.06 -2.65,-4.8 -2.71,-7.72 -0.13,-6.18 3.87,-11.3 8.91,-11.41 2.52,-0.05 4.9,1.12 6.68,3.3 1.69,2.06 2.65,4.8 2.71,7.72 0.06,2.92 -0.78,5.7 -2.38,7.83 -1.69,2.26 -4.01,3.53 -6.53,3.58 -0.06,0 -0.11,0 -0.17,0z"/>
    <path class="fil1" d="M563.79 244.07c-0.92,0 -1.68,-0.72 -1.71,-1.65l-0.74 -18.71 -8.41 -5.1c-0.5,-0.31 -0.81,-0.85 -0.82,-1.44l-0.49 -25.64c-0.02,-0.95 0.74,-1.73 1.68,-1.75l0.03 0c0.93,0 1.7,0.75 1.71,1.68l0.48 24.7 8.39 5.09c0.49,0.3 0.8,0.83 0.82,1.4l0.77 19.63c0.04,0.95 -0.7,1.75 -1.64,1.78 -0.02,0 -0.05,0 -0.07,0z"/>
    <path class="fil0" d="M665.36 195.12c0,0 5.62,3.44 5.74,9.74 0.14,7.29 -5,10.85 -5,10.85 0,0 -17.44,12.69 -57.88,10.2 0,0 -10.22,-10.74 1.6,-18.86 0,0 36.96,6.06 55.55,-11.93z"/>
    <path class="fil37" d="M618.49 226.23c-1.38,0 -2.8,-0.02 -4.24,-0.06l-0 -0c1.45,0.04 2.87,0.06 4.26,0.06 0.73,0 1.45,-0.01 2.15,-0.02l0 0c-0.71,0.01 -1.44,0.02 -2.17,0.02z"/>
    <path class="fil37" d="M620.65 226.22l0 0c3.93,-0.05 7.58,-0.26 10.97,-0.57 -3.39,0.32 -7.04,0.52 -10.97,0.57z"/>
    <polygon class="fil9" points="614.25,226.18 614.24,226.18 614.24,226.17 614.24,226.17 "/>
    <path class="fil37" d="M604.91 220.53c-1.11,-2.94 -1.44,-6.71 1.41,-10.31 0,0 0,0 0,0 -2.85,3.6 -2.52,7.37 -1.41,10.31l0 0z"/>
    <path class="fil26" d="M609.09 225.96c-0.29,-0.02 -0.58,-0.03 -0.88,-0.05 0,0 -2.1,-2.21 -3.3,-5.38l0 0c1.2,3.17 3.3,5.38 3.3,5.38 0.29,0.02 0.59,0.04 0.88,0.05l0 0z"/>
    <path class="fil9" d="M614.24 226.18c-1.67,-0.05 -3.39,-0.11 -5.15,-0.21l0 -0c1.76,0.1 3.48,0.17 5.15,0.21l0 0z"/>
    <path class="fil26" d="M670.85 207.79c0,0 0,0 0,-0l0 0zm0 -0.02c0,-0 0,-0.01 0,-0.02 -0,0.01 -0,0.01 -0,0.02zm0 -0.02c0.17,-0.89 0.25,-1.85 0.23,-2.89 0,-0.05 -0,-0.1 -0,-0.14l0 0c0.03,1.09 -0.06,2.1 -0.23,3.03z"/>
    <path class="fil2" d="M618.5 226.23c-1.39,0 -2.8,-0.02 -4.26,-0.06l-0 0c-1.67,-0.04 -3.39,-0.11 -5.15,-0.21 -0.29,-0.02 -0.58,-0.03 -0.88,-0.05 0,0 -2.1,-2.21 -3.3,-5.38 -1.11,-2.94 -1.44,-6.71 1.41,-10.31 0.01,0.04 0.01,0.09 0.02,0.13 0.76,4.55 4.72,7.89 9.33,8.03 1.68,0.05 3.32,0.08 4.91,0.08 33.14,0 47.6,-10.52 47.6,-10.52 0,0 1.54,-1.07 2.9,-3.22l0 0c0,0.05 0,0.09 0,0.14 0.02,1.04 -0.07,2 -0.23,2.89 0,0 0,0 0,0 -0,0.01 -0,0.01 -0,0.02 0,0.01 -0,0.02 -0,0.02 0,0 0,0 0,0 -1.01,5.31 -4.76,7.92 -4.76,7.92 0,0 -10.61,7.72 -34.47,9.93 -3.38,0.32 -7.04,0.52 -10.97,0.57 -0.71,0.01 -1.43,0.02 -2.15,0.02z"/>
    <path class="fil1" d="M609.47 223.41c38.06,2.09 54.94,-9.66 55.11,-9.78 0.19,-0.13 4.04,-2.98 3.94,-8.72 -0.06,-2.95 -1.76,-5.15 -3.06,-6.41 -18,15.39 -48.73,12.11 -54.99,11.25 -2.26,1.75 -3.52,3.72 -3.75,5.85 -0.36,3.29 1.69,6.42 2.75,7.8zm9.09 5.4c-3.32,0 -6.82,-0.1 -10.51,-0.33l-1.01 -0.06 -0.7 -0.73c-0.22,-0.23 -5.46,-5.82 -4.75,-12.59 0.41,-3.95 2.69,-7.37 6.75,-10.16l0.85 -0.58 1.02 0.17c0.35,0.06 35.91,5.63 53.34,-11.24l1.43 -1.39 1.7 1.04c0.28,0.17 6.83,4.26 6.97,11.89 0.16,8.57 -5.85,12.84 -6.11,13.01 -0.63,0.46 -15.51,10.98 -48.99,10.98z"/>
    <path class="fil1" d="M672.69 122.94l0 0 -0 0zm0 0l0 0 -0 -0zm33.09 41.69c-0.08,0 -0.17,-0.01 -0.25,-0.01 -14.61,-1.66 -26.07,-15.99 -33.15,-41.45 -0.12,-0.46 -0.22,-0.8 -0.28,-0.99 -0.35,-0.76 -0.26,-1.69 0.31,-2.37 0.79,-0.94 2.2,-1.07 3.14,-0.27 0.58,0.48 0.68,0.86 1.12,2.44 6.46,23.22 16.89,36.8 29.36,38.22 1.22,0.14 2.1,1.24 1.96,2.47 -0.12,1.14 -1.09,1.98 -2.21,1.98z"/>
    <path class="fil1" d="M491.16 270.49c0.76,0.78 1.34,1.46 1.96,2.2 0.61,0.73 1.19,1.48 1.75,2.23 1.13,1.51 2.17,3.08 3.13,4.69 0.97,1.61 1.84,3.28 2.61,4.99 0.79,1.7 1.41,3.49 1.96,5.27 0.24,0.78 -0.19,1.62 -0.98,1.86 -0.71,0.22 -1.47,-0.12 -1.79,-0.78l-0.03 -0.07c-0.74,-1.56 -1.51,-3.1 -2.45,-4.55 -0.91,-1.46 -1.91,-2.87 -2.99,-4.2 -1.08,-1.34 -2.22,-2.63 -3.42,-3.85 -0.6,-0.61 -1.22,-1.21 -1.84,-1.78 -0.61,-0.56 -1.3,-1.16 -1.86,-1.59 -1.3,-1 -1.55,-2.87 -0.55,-4.18 1,-1.31 2.87,-1.55 4.18,-0.55 0.11,0.08 0.23,0.19 0.32,0.28z"/>
   </g>
  </g>
  <polygon class="fil38" points="-0,0 868.89,0 868.89,359 -0,359 "/>
 </g>
</svg>
