<svg width="210" height="184" viewBox="0 0 210 184" fill="none" xmlns="http://www.w3.org/2000/svg">
<rect width="210" height="184" rx="30" fill="black"/>
<path fill-rule="evenodd" clip-rule="evenodd" d="M47.1669 108.215L32.707 140.941L75.908 164.864L69.898 120.813L47.1669 108.215Z" fill="white"/>
<path fill-rule="evenodd" clip-rule="evenodd" d="M25.4707 95.8633V133.511L39.0379 103.511L25.4707 95.8633Z" fill="white"/>
<path fill-rule="evenodd" clip-rule="evenodd" d="M90.842 11.2548L102.123 5L102.019 73.8919L90.7383 67.7557L90.842 11.2548Z" fill="white"/>
<path fill-rule="evenodd" clip-rule="evenodd" d="M85.3528 109.705L85.4619 109.646L101.817 101.02V179.012L85.1348 169.763L85.3528 109.705Z" fill="white"/>
<path fill-rule="evenodd" clip-rule="evenodd" d="M84.3822 15.043L40.3184 39.3508L71.648 56.9295L84.3822 15.043Z" fill="white"/>
<path fill-rule="evenodd" clip-rule="evenodd" d="M25.467 47.8332L31.7716 44.9556L104.703 86.2058L104.772 94.7742L98.3059 99.0438L25.4472 59.6323L25.467 47.8332Z" fill="white"/>
<path fill-rule="evenodd" clip-rule="evenodd" d="M25.4805 72.4883L86.1085 105.681L74.4697 112.69L25.4803 85.3845L25.4805 72.4883Z" fill="white"/>
<path fill-rule="evenodd" clip-rule="evenodd" d="M167.763 108.215L182.223 140.941L139.022 164.864L145.032 120.813L167.763 108.215Z" fill="white"/>
<path fill-rule="evenodd" clip-rule="evenodd" d="M189.488 95.8633V133.511L175.921 103.511L189.488 95.8633Z" fill="white"/>
<path fill-rule="evenodd" clip-rule="evenodd" d="M124.119 11.2548L112.838 5L112.942 73.8919L124.223 67.7557L124.119 11.2548Z" fill="white"/>
<path fill-rule="evenodd" clip-rule="evenodd" d="M129.62 109.705L129.511 109.646L113.156 101.02V179.012L129.838 169.763L129.62 109.705Z" fill="white"/>
<path fill-rule="evenodd" clip-rule="evenodd" d="M130.548 15.043L174.611 39.3508L143.282 56.9295L130.548 15.043Z" fill="white"/>
<path fill-rule="evenodd" clip-rule="evenodd" d="M189.465 47.8137L183.16 44.9361L110.229 86.1863L110.16 94.7547L116.626 99.0242L189.484 59.6127L189.465 47.8137Z" fill="white"/>
<path fill-rule="evenodd" clip-rule="evenodd" d="M189.48 72.4688L128.852 105.662L140.491 112.671L189.481 85.365L189.48 72.4688Z" fill="white"/>
</svg>
