<svg width="390" height="337" viewBox="0 0 390 337" fill="none" xmlns="http://www.w3.org/2000/svg">
<rect width="390" height="337" rx="20" fill="#4C5461"/>
<path d="M168.928 47.0234C176.968 47.0118 176.968 47.0118 185.171 47C190.78 47.0232 196.388 47.0464 202.167 47.0703C207.798 47.0471 213.43 47.0239 219.233 47C227.262 47.0116 227.262 47.0116 235.453 47.0234C240.384 47.0302 245.314 47.037 250.394 47.0439C261.927 47.8201 261.927 47.8201 267.94 53.8188C270.674 69.7431 266.438 91.1919 268.228 107.257C272.065 107.62 287.053 105.909 287.053 105.909C287.053 105.909 297.985 107.289 303.104 107.807C310.534 108.538 308.069 105.163 315.65 105.909C328.076 107.807 328.076 107.807 334.09 113.806C334.691 126.166 334.876 138.547 334.888 150.923C334.9 162.22 334.9 162.22 334.912 173.746C334.899 177.687 334.887 181.629 334.874 185.69C334.842 197.737 334.873 209.782 334.912 221.829C334.904 229.36 334.896 236.892 334.888 244.652C334.882 251.619 334.875 258.586 334.868 265.765C334.09 281.769 334.09 281.769 328.076 287.768C319.768 288.324 311.431 288.472 303.104 288.449C297.807 288.448 292.51 288.448 287.053 288.447C281.296 288.416 275.539 288.385 269.608 288.353C263.744 288.345 257.879 288.336 251.837 288.328C233.025 288.294 214.213 288.219 195.401 288.142C182.681 288.112 169.961 288.085 157.241 288.06C125.987 287.994 94.7327 287.894 63.4785 287.768C50.4035 261.682 56.3526 226.44 56.3374 197.787C56.2637 190.503 56.1901 183.219 56.1142 175.714C56.1026 168.77 56.091 161.826 56.079 154.672C56.0543 148.277 56.0296 141.882 56.0041 135.293C57.4649 119.804 57.4649 119.804 69.4921 107.807C83.8213 106.635 83.8213 106.635 100.312 107.057C108.521 107.22 108.521 107.22 116.896 107.385C121.098 107.524 125.299 107.664 129.628 107.807C129.628 89.9909 129.628 72.1748 129.628 53.8188C143.967 46.6672 152.94 47.0453 168.928 47.0234ZM159.696 77.8136C159.696 87.7114 159.696 97.6092 159.696 107.807C187.479 107.807 215.261 107.807 243.886 107.807C243.886 97.9091 243.886 88.0113 243.886 77.8136C216.103 77.8136 188.32 77.8136 159.696 77.8136ZM261.551 179.791C258.136 182.652 254.721 185.513 251.203 188.461C242.74 195.556 234.291 202.669 225.845 209.785C209.809 201.786 193.773 193.788 177.737 185.79C168.084 194.407 158.439 203.031 148.796 211.659C140.738 218.862 140.738 218.862 132.517 226.211C121.264 236.446 110.329 247.032 99.56 257.774C167.032 257.774 234.505 257.774 304.022 257.774C304.022 222.142 304.022 186.51 304.022 149.798C289.472 149.798 272.787 170.312 261.551 179.791Z" fill="white"/>
<path d="M279.208 137C283.461 142.484 283.461 142.484 287.8 148.079C299.291 162.566 299.291 162.566 312.94 174.984C325.078 187.692 329.101 196.891 335.216 212.968C340.257 216.31 345.298 219.653 350.491 223.097C354.151 238.536 353.506 253.15 350.491 268.677C337.762 284.187 337.762 284.187 325.033 294C321.672 292.329 318.312 290.657 314.85 288.935C316.53 280.579 318.21 272.223 319.941 263.613C316.581 263.613 313.22 263.613 309.758 263.613C308.078 268.627 306.397 273.641 304.666 278.806C297.324 264.201 296.579 249.309 294.483 233.226C271.987 255.096 271.987 255.096 262.023 283.554C262.653 287.001 263.283 290.449 263.933 294C246.764 286.934 237.2 280.008 228.291 263.613C225.379 241.275 226.918 230.663 237.838 210.752C241.408 206.469 244.979 202.187 248.657 197.774C252.018 197.774 255.378 197.774 258.841 197.774C258.841 206.131 258.841 214.487 258.841 223.097C262.201 223.097 265.562 223.097 269.024 223.097C267.344 206.384 265.664 189.671 263.933 172.452C268.973 174.123 274.014 175.794 279.208 177.516C277.527 175.845 275.847 174.174 274.116 172.452C273.479 157.258 273.479 157.258 274.116 142.065C275.796 140.393 277.476 138.722 279.208 137Z" fill="#FE7507"/>
<path d="M324.457 197C338.255 207.649 348.586 216.162 352.691 233.554C353.851 256.626 352.366 265.695 337.273 284.109C333.044 287.373 328.815 290.637 324.457 294C321.074 292.315 317.691 290.631 314.205 288.895C315.897 280.471 317.588 272.047 319.331 263.368C315.948 263.368 312.565 263.368 309.079 263.368C307.387 268.423 305.696 273.477 303.953 278.684C297.118 265.07 300.513 257.412 303.953 242.947C312.411 244.632 320.869 246.317 329.583 248.053C327.892 244.683 326.2 241.314 324.457 237.842C323.77 224.199 324.236 210.669 324.457 197Z" fill="#FE8819"/>
<path d="M282.545 157C284.383 159.367 286.22 161.733 288.114 164.172C294.39 171.857 300.874 178.804 308 185.688C306.95 187.791 305.9 189.895 304.818 192.062C299.568 192.062 294.318 192.062 288.909 192.062C286.809 197.322 284.709 202.581 282.545 208C275.784 197.839 274.584 191.217 273 179.312C276.15 180.364 279.3 181.416 282.545 182.5C281.495 181.448 280.445 180.396 279.364 179.312C278.966 169.75 278.966 169.75 279.364 160.188C280.414 159.136 281.464 158.084 282.545 157Z" fill="#FE540E"/>
</svg>
