<svg width="473" height="418" viewBox="0 0 473 418" fill="none" xmlns="http://www.w3.org/2000/svg">
<g clip-path="url(#clip0_327_181)">
<path d="M248.325 82.375H252.325V78.375V45.7188C252.325 40.3013 248.239 35.1875 242.412 35.1875H135.988C130.161 35.1875 126.075 40.3013 126.075 45.7188V78.375V82.375H130.075H248.325ZM94.6 82.375H98.6V78.375V45.7188C98.6 22.3171 115.725 4 135.988 4H242.412C262.675 4 279.8 22.3171 279.8 45.7188V78.375V82.375H283.8H331.1C354.615 82.375 374.4 103.631 374.4 130.625V152.979C371.797 152.818 369.195 152.75 366.575 152.75C325.43 152.75 288.765 173.109 264.224 205H260.15H141.9H4V130.625C4 103.631 23.7855 82.375 47.3 82.375H94.6ZM165.55 291.375H232.731C232.569 294.386 232.5 297.399 232.5 300.438C232.5 333.088 242.144 363.384 258.488 387.875H47.3C23.7855 387.875 4 366.619 4 339.625V239.125H137.9V261.25C137.9 277.526 149.894 291.375 165.55 291.375ZM438.863 219.993C458.122 241.266 469 270.197 469 300.438C469 330.678 458.122 359.609 438.863 380.882C419.617 402.143 393.604 414 366.575 414C339.546 414 313.533 402.143 294.287 380.882C275.028 359.609 264.15 330.678 264.15 300.438C264.15 270.197 275.028 241.266 294.287 219.993C313.533 198.732 339.546 186.875 366.575 186.875C393.604 186.875 419.617 198.732 438.863 219.993ZM382.4 248.188C382.4 239.178 375.653 231.125 366.575 231.125C357.497 231.125 350.75 239.178 350.75 248.188V300.438C350.75 309.447 357.497 317.5 366.575 317.5H402.05C411.128 317.5 417.875 309.447 417.875 300.438C417.875 291.428 411.128 283.375 402.05 283.375H382.4V248.188Z" fill="#68B82D" fill-opacity="0.34" stroke="#73CF2F" stroke-width="8"/>
</g>
<defs>
<clipPath id="clip0_327_181">
<rect width="473" height="418" fill="white"/>
</clipPath>
</defs>
</svg>
