<svg width="473" height="418" viewBox="0 0 473 418" fill="none" xmlns="http://www.w3.org/2000/svg">
<path d="M248.325 82.375H252.325V78.375V45.7188C252.325 40.3013 248.239 35.1875 242.412 35.1875H135.988C130.161 35.1875 126.075 40.3013 126.075 45.7188V78.375V82.375H130.075H248.325ZM183.13 300.894L187.085 302.924C187.693 311.79 191.484 320.232 196.832 328.118C202.683 336.744 210.599 345.001 218.916 352.782C224.457 357.965 230.307 363.053 235.907 367.924C238.681 370.338 241.395 372.698 243.979 374.989C249.11 379.54 253.741 383.831 257.554 387.875H47.3C23.7855 387.875 4 366.619 4 339.625V239.125H137.9V261.25C137.9 276.797 148.845 290.131 163.471 291.293C163.575 292.111 163.889 292.792 164.213 293.289C165.006 294.506 166.236 295.216 166.904 295.573C167.737 296.019 168.707 296.422 169.684 296.784C171.977 297.635 175.244 298.58 178.328 299.472C180.053 299.971 181.721 300.454 183.13 300.894ZM186.186 293.471L182.913 291.79C184.17 291.71 185.531 291.632 187 291.559V293.737C186.73 293.647 186.459 293.558 186.186 293.471ZM135.988 43.1875H242.412C243.09 43.1875 244.325 43.9518 244.325 45.7188V74.375H134.075V45.7188C134.075 43.9518 135.31 43.1875 135.988 43.1875ZM94.6 82.375H98.6V78.375V45.7188C98.6 22.3171 115.725 4 135.988 4H242.412C262.675 4 279.8 22.3171 279.8 45.7188V78.375V82.375H283.8H331.1C354.615 82.375 374.4 103.631 374.4 130.625V152.979C371.797 152.818 369.195 152.75 366.575 152.75C346.346 152.75 319.481 153.202 294.614 157.719C269.969 162.196 246.24 170.84 233.333 188.055L199.792 230.218L143.517 205.342L142.745 205H141.9H4V130.625C4 103.631 23.7855 82.375 47.3 82.375H94.6Z" fill="black" fill-opacity="0.33" stroke="black" stroke-width="8"/>
<path d="M287.416 167.217L287.419 167.205C287.611 166.378 287.816 165.495 288.53 165.039C289.897 164.166 293.548 163 303.297 163C313.046 163 316.697 164.166 318.064 165.039C318.777 165.495 318.983 166.378 319.175 167.205L319.177 167.217C319.683 169.394 320.76 174.264 321.776 180.378C361.474 187.924 392.763 219.331 400.281 259.178C406.372 260.198 411.224 261.279 413.393 261.786L413.405 261.789C414.229 261.982 415.108 262.188 415.562 262.904C416.432 264.276 417.594 267.941 417.594 277.727C417.594 287.512 416.432 291.177 415.562 292.549C415.108 293.265 414.229 293.471 413.405 293.664L413.393 293.667C411.224 294.174 406.372 295.255 400.281 296.275C392.763 336.122 361.474 367.529 321.776 375.075C320.76 381.189 319.683 386.059 319.177 388.236L319.175 388.248C318.983 389.075 318.777 389.958 318.064 390.414C316.697 391.287 313.046 392.453 303.297 392.453C293.548 392.453 289.897 391.287 288.53 390.414C287.816 389.958 287.611 389.075 287.419 388.248L287.416 388.236C286.911 386.059 285.834 381.189 284.818 375.075C245.12 367.529 213.831 336.122 206.313 296.275C200.222 295.255 195.37 294.174 193.201 293.667L193.189 293.664C192.365 293.471 191.485 293.265 191.031 292.549C190.161 291.177 189 287.512 189 277.727C189 267.941 190.162 264.276 191.031 262.904C191.485 262.188 192.365 261.982 193.189 261.789L193.201 261.786C195.37 261.279 200.222 260.198 206.313 259.178C213.831 219.331 245.12 187.924 284.818 180.378C285.834 174.264 286.911 169.394 287.416 167.217Z" fill="#FFC701" fill-opacity="0.46" stroke="#F0FF40" stroke-width="5" stroke-linecap="round" stroke-linejoin="round"/>
<path d="M235.758 277.727C235.758 315.168 265.996 345.52 303.297 345.52C340.598 345.52 370.836 315.168 370.836 277.727C370.836 240.286 340.598 209.934 303.297 209.934C265.996 209.934 235.758 240.286 235.758 277.727Z" fill="#FFC701" fill-opacity="0.46" stroke="#F0FF40" stroke-width="5" stroke-linecap="round" stroke-linejoin="round"/>
<path d="M324.078 257.24C324.078 257.24 315.766 251.652 303.297 251.652C292.906 251.652 282.516 257.24 282.516 264.689C282.516 283.314 324.078 272.139 324.078 290.764C324.078 298.214 313.687 303.801 303.297 303.801C290.828 303.801 282.516 298.214 282.516 298.214" fill="#FFC701" fill-opacity="0.46"/>
<path d="M324.078 257.24C324.078 257.24 315.766 251.652 303.297 251.652C292.906 251.652 282.516 257.24 282.516 264.689C282.516 283.314 324.078 272.139 324.078 290.764C324.078 298.214 313.687 303.801 303.297 303.801C290.828 303.801 282.516 298.214 282.516 298.214" stroke="#F0FF40" stroke-width="5" stroke-linecap="round" stroke-linejoin="round"/>
<path d="M303.297 251.652V241.223Z" fill="#FFC701" fill-opacity="0.46"/>
<path d="M303.297 251.652V241.223" stroke="#F0FF40" stroke-width="5" stroke-linecap="round" stroke-linejoin="round"/>
<path d="M303.297 314.23V303.801Z" fill="#FFC701" fill-opacity="0.46"/>
<path d="M303.297 314.23V303.801" stroke="#F0FF40" stroke-width="5" stroke-linecap="round" stroke-linejoin="round"/>
</svg>
