<svg width="473" height="418" viewBox="0 0 473 418" fill="none" xmlns="http://www.w3.org/2000/svg">
<path d="M248.325 82.375H252.325V78.375V45.7188C252.325 40.3013 248.239 35.1875 242.412 35.1875H135.988C130.161 35.1875 126.075 40.3013 126.075 45.7188V78.375V82.375H130.075H248.325ZM183.13 300.894L187.085 302.924C187.693 311.79 191.484 320.232 196.832 328.118C202.683 336.744 210.599 345.001 218.916 352.782C224.457 357.965 230.307 363.053 235.907 367.924C238.681 370.338 241.395 372.698 243.979 374.989C249.11 379.54 253.741 383.831 257.554 387.875H47.3C23.7855 387.875 4 366.619 4 339.625V239.125H137.9V261.25C137.9 276.797 148.845 290.131 163.471 291.293C163.575 292.111 163.889 292.792 164.213 293.289C165.006 294.506 166.236 295.216 166.904 295.573C167.737 296.019 168.707 296.422 169.684 296.784C171.977 297.635 175.244 298.58 178.328 299.472C180.053 299.971 181.721 300.454 183.13 300.894ZM186.186 293.471L182.913 291.79C184.17 291.71 185.531 291.632 187 291.559V293.737C186.73 293.647 186.459 293.558 186.186 293.471ZM135.988 43.1875H242.412C243.09 43.1875 244.325 43.9518 244.325 45.7188V74.375H134.075V45.7188C134.075 43.9518 135.31 43.1875 135.988 43.1875ZM94.6 82.375H98.6V78.375V45.7188C98.6 22.3171 115.725 4 135.988 4H242.412C262.675 4 279.8 22.3171 279.8 45.7188V78.375V82.375H283.8H331.1C354.615 82.375 374.4 103.631 374.4 130.625V152.979C371.797 152.818 369.195 152.75 366.575 152.75C346.346 152.75 319.481 153.202 294.614 157.719C269.969 162.196 246.24 170.84 233.333 188.055L199.792 230.218L143.517 205.342L142.745 205H141.9H4V130.625C4 103.631 23.7855 82.375 47.3 82.375H94.6Z" fill="black" fill-opacity="0.33" stroke="black" stroke-width="8"/>
<path d="M416.167 240.501C416.186 242.057 415.712 243.58 414.813 244.851L308.867 393.234C308.426 393.844 307.844 394.338 307.171 394.675C306.497 395.012 305.753 395.181 305 395.167C304.263 395.171 303.535 394.997 302.879 394.66C302.223 394.324 301.658 393.835 301.23 393.234L195.254 244.851C194.372 243.572 193.9 242.054 193.901 240.501C193.889 238.932 194.395 237.402 195.341 236.151L240.775 174.767C241.174 174.195 241.709 173.73 242.331 173.414L261.268 240.501L305 172.834L348.8 240.501L367.698 173.414C368.32 173.73 368.855 174.195 369.254 174.767L414.688 236.151C415.637 237.403 416.156 238.929 416.167 240.501Z" fill="#FFC701" fill-opacity="0.6"/>
<path d="M240.784 174.767L195.341 236.151C194.4 237.405 193.894 238.932 193.901 240.501H261.278L242.331 173.414C241.71 173.728 241.178 174.193 240.784 174.767Z" fill="#FFC701" fill-opacity="0.44"/>
<path d="M261.278 240.501H348.761L304.971 172.834L261.278 240.501Z" fill="#FFC701" fill-opacity="0.44"/>
<path d="M369.255 174.767C368.861 174.193 368.329 173.728 367.708 173.414L348.761 240.501H416.167C416.161 238.931 415.649 237.406 414.707 236.151L369.255 174.767Z" fill="#FFC701" fill-opacity="0.44"/>
<path d="M416.167 240.501C416.186 242.057 415.712 243.58 414.813 244.851L308.867 393.234C308.426 393.844 307.844 394.338 307.171 394.675C306.497 395.012 305.753 395.181 305 395.167C304.263 395.171 303.535 394.997 302.879 394.66C302.223 394.324 301.658 393.835 301.23 393.234L195.254 244.851C194.372 243.572 193.9 242.054 193.901 240.501C193.889 238.932 194.395 237.402 195.341 236.151L240.775 174.767C241.174 174.195 241.709 173.73 242.331 173.414L261.268 240.501L305 172.834L348.8 240.501L367.698 173.414C368.32 173.73 368.855 174.195 369.254 174.767L414.688 236.151C415.637 237.403 416.156 238.929 416.167 240.501Z" stroke="#F0FF40" stroke-linecap="round" stroke-linejoin="round"/>
<path d="M416.167 240.5H193.833" stroke="#F0FF40" stroke-width="5" stroke-linecap="round" stroke-linejoin="round"/>
<path d="M305 172.834L261.307 240.501L242.331 173.414C243.044 173.029 243.841 172.83 244.651 172.834H305Z" fill="#FFC701" fill-opacity="0.6" stroke="#F0FF40" stroke-width="3" stroke-linecap="round" stroke-linejoin="round"/>
<path d="M304.961 395.167L261.268 240.5" stroke="#F0FF40" stroke-width="3" stroke-linecap="round" stroke-linejoin="round"/>
<path d="M367.698 173.414L348.761 240.501L305 172.834H365.417C366.213 172.836 366.997 173.036 367.698 173.414Z" fill="#FFC701" fill-opacity="0.6" stroke="#F0FF40" stroke-width="3" stroke-linecap="round" stroke-linejoin="round"/>
<path d="M348.751 240.5L304.961 395.167" stroke="#F0FF40" stroke-width="3" stroke-linecap="round" stroke-linejoin="round"/>
</svg>
