<svg width="234" height="181" viewBox="0 0 234 181" fill="none" xmlns="http://www.w3.org/2000/svg">
<rect width="234" height="181" rx="20" fill="#4C5461"/>
<path d="M102.281 17.014C107.1 17.0071 107.1 17.0071 112.017 17C115.378 17.0139 118.739 17.0278 122.203 17.0421C125.578 17.0282 128.953 17.0143 132.431 17C137.243 17.007 137.243 17.007 142.152 17.014C145.107 17.0181 148.062 17.0222 151.107 17.0263C158.019 17.4915 158.019 17.4915 161.623 21.0868C163.262 30.6308 160.723 43.4859 161.795 53.1143C164.095 53.3321 173.078 52.3064 173.078 52.3064C173.078 52.3064 179.63 53.1335 182.698 53.4439C187.151 53.8819 185.674 51.8596 190.217 52.3064C197.665 53.4439 197.665 53.4439 201.269 57.0392C201.629 64.4473 201.74 71.8678 201.748 79.2847C201.755 86.0557 201.755 86.0557 201.762 92.9634C201.754 95.3259 201.747 97.6883 201.739 100.122C201.72 107.342 201.739 114.562 201.762 121.782C201.757 126.296 201.752 130.81 201.748 135.46C201.744 139.636 201.74 143.812 201.735 148.114C201.269 157.706 201.269 157.706 197.665 161.301C192.685 161.635 187.689 161.723 182.698 161.709C179.524 161.709 176.349 161.709 173.078 161.708C169.628 161.69 166.178 161.671 162.623 161.652C159.108 161.647 155.593 161.642 151.972 161.637C140.697 161.617 129.423 161.571 118.148 161.526C110.524 161.508 102.901 161.491 95.2769 161.477C76.545 161.437 57.8133 161.377 39.0815 161.301C31.2451 145.667 34.8107 124.545 34.8015 107.372C34.7574 103.007 34.7133 98.6411 34.6678 94.1431C34.6608 89.9814 34.6539 85.8196 34.6467 81.5317C34.6319 77.699 34.6171 73.8663 34.6018 69.9174C35.4773 60.6344 35.4773 60.6344 42.6857 53.4439C51.2737 52.7417 51.2737 52.7417 61.157 52.9945C66.0771 53.0918 66.0771 53.0918 71.0966 53.1911C73.6148 53.2745 76.1329 53.358 78.7273 53.4439C78.7273 42.7661 78.7273 32.0882 78.7273 21.0868C87.3211 16.8006 92.6991 17.0272 102.281 17.014ZM96.7482 35.4677C96.7482 41.3999 96.7482 47.332 96.7482 53.4439C113.399 53.4439 130.051 53.4439 147.206 53.4439C147.206 47.5118 147.206 41.5796 147.206 35.4677C130.555 35.4677 113.904 35.4677 96.7482 35.4677ZM157.794 96.5868C155.747 98.3015 153.701 100.016 151.592 101.783C146.519 106.035 141.456 110.298 136.394 114.563C126.783 109.769 117.172 104.976 107.561 100.182C101.776 105.346 95.9947 110.515 90.2156 115.686C85.3861 120.003 85.3861 120.004 80.459 124.408C73.7144 130.542 67.1606 136.887 60.7065 143.325C101.145 143.325 141.584 143.325 183.248 143.325C183.248 121.969 183.248 100.613 183.248 78.6106C174.528 78.6106 164.528 90.9057 157.794 96.5868Z" fill="white"/>
</svg>
