<svg width="473" height="418" viewBox="0 0 473 418" fill="none" xmlns="http://www.w3.org/2000/svg">
<path d="M248.325 82.375H252.325V78.375V45.7188C252.325 40.3013 248.239 35.1875 242.412 35.1875H135.988C130.161 35.1875 126.075 40.3013 126.075 45.7188V78.375V82.375H130.075H248.325ZM135.988 43.1875H242.412C243.09 43.1875 244.325 43.9518 244.325 45.7188V74.375H134.075V45.7188C134.075 43.9518 135.31 43.1875 135.988 43.1875ZM94.6 82.375H98.6V78.375V45.7188C98.6 22.3171 115.725 4 135.988 4H242.412C262.675 4 279.8 22.3171 279.8 45.7188V78.375V82.375H283.8H331.1C354.615 82.375 374.4 103.631 374.4 130.625V152.979C371.797 152.818 369.195 152.75 366.575 152.75C325.43 152.75 288.765 173.109 264.224 205H260.15H141.9H4V130.625C4 103.631 23.7855 82.375 47.3 82.375H94.6ZM165.55 291.375H232.731C232.569 294.386 232.5 297.399 232.5 300.438C232.5 333.088 242.144 363.384 258.488 387.875H47.3C23.7855 387.875 4 366.619 4 339.625V239.125H137.9V261.25C137.9 277.526 149.894 291.375 165.55 291.375Z" fill="#68B82D" fill-opacity="0.19" stroke="#73CF2F" stroke-width="8"/>
<g clip-path="url(#clip0_328_183)">
<path fill-rule="evenodd" clip-rule="evenodd" d="M202.714 165C188.513 165 177 176.513 177 190.714V327.857C177 342.058 188.513 353.571 202.714 353.571H305.63C297.495 341.815 292.714 327.527 292.714 312.15C292.714 271.912 325.334 239.293 365.571 239.293C385.646 239.293 403.822 247.411 417 260.543V190.714C417 176.513 405.487 165 391.286 165H202.714ZM228.429 206.15C222.511 206.15 217.714 210.946 217.714 216.864C217.714 222.781 222.511 227.578 228.429 227.578H329.143C335.06 227.578 339.857 222.781 339.857 216.864C339.857 210.946 335.06 206.15 329.143 206.15H228.429ZM217.714 260.435C217.714 254.517 222.511 249.72 228.429 249.72H271.286C277.203 249.72 282 254.517 282 260.435C282 266.352 277.203 271.149 271.286 271.149H228.429C222.511 271.149 217.714 266.352 217.714 260.435ZM314.143 312.15C314.143 283.747 337.168 260.721 365.571 260.721C393.975 260.721 417 283.747 417 312.15C417 326.044 411.49 338.652 402.535 347.906V396.429C402.535 399.293 401.105 401.967 398.724 403.557C396.341 405.147 393.324 405.442 390.679 404.345L365.571 393.924L340.465 404.345C337.82 405.442 334.801 405.147 332.419 403.557C330.037 401.967 328.607 399.293 328.607 396.429V347.906C319.653 338.652 314.143 326.044 314.143 312.15ZM350.571 312.15C350.571 320.434 357.288 327.15 365.571 327.15C373.857 327.15 380.571 320.434 380.571 312.15C380.571 303.866 373.857 297.15 365.571 297.15C357.288 297.15 350.571 303.866 350.571 312.15Z" fill="#848484" fill-opacity="0.95"/>
</g>
<defs>
<clipPath id="clip0_328_183">
<rect width="240" height="240" fill="white" transform="translate(177 165)"/>
</clipPath>
</defs>
</svg>
