<svg width="390" height="394" viewBox="0 0 390 394" fill="none" xmlns="http://www.w3.org/2000/svg">
<rect width="390" height="394" rx="20" fill="#4C5461"/>
<path d="M113.928 93.0234C121.968 93.0118 121.968 93.0118 130.171 93C135.78 93.0232 141.388 93.0464 147.167 93.0703C152.798 93.0471 158.43 93.0239 164.233 93C172.262 93.0116 172.262 93.0116 180.453 93.0234C185.384 93.0302 190.314 93.037 195.394 93.0439C206.927 93.8201 206.927 93.8201 212.94 99.8188C215.674 115.743 211.438 137.192 213.228 153.257C217.065 153.62 232.053 151.909 232.053 151.909C232.053 151.909 242.985 153.289 248.104 153.807C255.534 154.538 253.069 151.163 260.65 151.909C273.076 153.807 273.076 153.807 279.09 159.806C279.691 172.166 279.876 184.547 279.888 196.923C279.9 208.22 279.9 208.22 279.912 219.746C279.899 223.687 279.887 227.629 279.874 231.69C279.842 243.737 279.873 255.782 279.912 267.829C279.904 275.36 279.896 282.892 279.888 290.652C279.882 297.619 279.875 304.586 279.868 311.765C279.09 327.769 279.09 327.769 273.076 333.768C264.768 334.324 256.431 334.472 248.104 334.449C242.807 334.448 237.51 334.448 232.053 334.447C226.296 334.416 220.539 334.385 214.608 334.353C208.744 334.345 202.879 334.336 196.837 334.328C178.025 334.294 159.213 334.219 140.401 334.142C127.681 334.112 114.961 334.085 102.241 334.06C70.9867 333.994 39.7327 333.894 8.47851 333.768C-4.59655 307.682 1.35263 272.44 1.33738 243.787C1.26374 236.503 1.1901 229.219 1.11422 221.714C1.10259 214.77 1.09097 207.826 1.07899 200.672C1.05428 194.277 1.02957 187.882 1.00411 181.293C2.46493 165.804 2.46493 165.804 14.4921 153.807C28.8213 152.635 28.8213 152.635 45.3117 153.057C53.5209 153.22 53.5209 153.22 61.896 153.385C66.0976 153.524 70.2991 153.664 74.6279 153.807C74.6279 135.991 74.6279 118.175 74.6279 99.8188C88.9666 92.6672 97.9399 93.0453 113.928 93.0234ZM104.696 123.814C104.696 133.711 104.696 143.609 104.696 153.807C132.479 153.807 160.261 153.807 188.886 153.807C188.886 143.909 188.886 134.011 188.886 123.814C161.103 123.814 133.32 123.814 104.696 123.814ZM206.551 225.791C203.136 228.652 199.721 231.513 196.203 234.461C187.74 241.556 179.291 248.669 170.845 255.785C154.809 247.786 138.773 239.788 122.737 231.79C113.084 240.407 103.439 249.031 93.7962 257.659C85.7381 264.862 85.7381 264.862 77.5173 272.211C66.2637 282.446 55.3287 293.032 44.56 303.774C112.032 303.774 179.505 303.774 249.022 303.774C249.022 268.142 249.022 232.51 249.022 195.798C234.472 195.798 217.787 216.312 206.551 225.791Z" fill="white"/>
<path d="M312.352 131.283C316.397 134.172 322.018 133.234 324.906 129.189C327.795 125.144 326.858 119.523 322.813 116.635C318.768 113.746 313.147 114.684 310.258 118.728C307.37 122.773 308.307 128.394 312.352 131.283Z" fill="#0F0F0F"/>
<path fill-rule="evenodd" clip-rule="evenodd" d="M306.988 76.0731C305.676 74.2139 304.246 72.3404 302.701 70.5162C297.863 64.8063 291.566 59.1894 283.843 56.298C275.853 53.3066 266.791 53.4158 257.233 58.4704C247.674 63.5249 242.463 70.964 240.406 79.2679C238.418 87.2948 239.477 95.6818 241.437 102.913C241.934 104.745 242.496 106.534 243.101 108.261C244.107 111.136 247.227 112.604 250.154 111.747C253.629 110.729 255.4 106.894 254.244 103.465C253.83 102.236 253.444 100.981 253.1 99.7098C251.416 93.4985 250.837 87.3813 252.134 82.1428C253.363 77.1818 256.359 72.5949 262.849 69.1628C269.339 65.7308 274.804 65.8432 279.578 67.6303C284.618 69.5172 289.32 73.4542 293.475 78.3588C295.739 81.031 297.745 83.8756 299.465 86.6074L265.931 133.564C260.1 141.729 261.97 153.058 270.107 158.869L304.483 183.419C312.62 189.23 323.943 187.322 329.774 179.157L372.005 120.022C377.836 111.857 375.967 100.527 367.83 94.7164L333.453 70.1664C325.316 64.3554 313.993 66.2639 308.162 74.4288L306.988 76.0731ZM277.145 149.013C274.433 147.076 273.81 143.3 275.753 140.578L317.984 81.4431C319.928 78.7215 323.702 78.0853 326.415 80.0223L360.792 104.572C363.504 106.509 364.127 110.286 362.183 113.007L319.952 172.143C318.008 174.864 314.234 175.5 311.522 173.563L277.145 149.013Z" fill="#0F0F0F"/>
<path d="M331.542 177V200.167M331.542 200.167C354.708 200.167 368.222 207.889 372.083 223.333M331.542 200.167C296.792 200.167 291 222.83 291 234.917C291 282.875 372.083 257.677 372.083 304.417C372.083 316.504 366.292 339.167 331.542 339.167M331.542 339.167V362.333M331.542 339.167C308.375 339.167 294.861 331.444 291 316" stroke="#68B82D" stroke-width="15" stroke-linecap="round" stroke-linejoin="round"/>
</svg>
