<svg width="473" height="418" viewBox="0 0 473 418" fill="none" xmlns="http://www.w3.org/2000/svg">
<path d="M248.325 82.375H252.325V78.375V45.7188C252.325 40.3013 248.239 35.1875 242.412 35.1875H135.988C130.161 35.1875 126.075 40.3013 126.075 45.7188V78.375V82.375H130.075H248.325ZM183.13 300.894L187.085 302.924C187.693 311.79 191.484 320.232 196.832 328.118C202.683 336.744 210.599 345.001 218.916 352.782C224.457 357.965 230.307 363.053 235.907 367.924C238.681 370.338 241.395 372.698 243.979 374.989C249.11 379.54 253.741 383.831 257.554 387.875H47.3C23.7855 387.875 4 366.619 4 339.625V239.125H137.9V261.25C137.9 276.797 148.845 290.131 163.471 291.293C163.575 292.111 163.889 292.792 164.213 293.289C165.006 294.506 166.236 295.216 166.904 295.573C167.737 296.019 168.707 296.422 169.684 296.784C171.977 297.635 175.244 298.58 178.328 299.472C180.053 299.971 181.721 300.454 183.13 300.894ZM186.186 293.471L182.913 291.79C184.17 291.71 185.531 291.632 187 291.559V293.737C186.73 293.647 186.459 293.558 186.186 293.471ZM135.988 43.1875H242.412C243.09 43.1875 244.325 43.9518 244.325 45.7188V74.375H134.075V45.7188C134.075 43.9518 135.31 43.1875 135.988 43.1875ZM94.6 82.375H98.6V78.375V45.7188C98.6 22.3171 115.725 4 135.988 4H242.412C262.675 4 279.8 22.3171 279.8 45.7188V78.375V82.375H283.8H331.1C354.615 82.375 374.4 103.631 374.4 130.625V152.979C371.797 152.818 369.195 152.75 366.575 152.75C346.346 152.75 319.481 153.202 294.614 157.719C269.969 162.196 246.24 170.84 233.333 188.055L199.792 230.218L143.517 205.342L142.745 205H141.9H4V130.625C4 103.631 23.7855 82.375 47.3 82.375H94.6Z" fill="#68B82D" fill-opacity="0.19" stroke="#73CF2F" stroke-width="8"/>
<path d="M290.416 167.217L290.419 167.205C290.611 166.378 290.816 165.495 291.53 165.039C292.897 164.166 296.548 163 306.297 163C316.046 163 319.697 164.166 321.064 165.039C321.777 165.495 321.983 166.378 322.175 167.205L322.177 167.217C322.683 169.394 323.76 174.264 324.776 180.378C364.474 187.924 395.763 219.331 403.281 259.178C409.372 260.198 414.224 261.279 416.393 261.786L416.405 261.789C417.229 261.982 418.108 262.188 418.562 262.904C419.432 264.276 420.594 267.941 420.594 277.727C420.594 287.512 419.432 291.177 418.562 292.549C418.108 293.265 417.229 293.471 416.405 293.664L416.393 293.667C414.224 294.174 409.372 295.255 403.281 296.275C395.763 336.122 364.474 367.529 324.776 375.075C323.76 381.189 322.683 386.059 322.177 388.236L322.175 388.248C321.983 389.075 321.777 389.958 321.064 390.414C319.697 391.287 316.046 392.453 306.297 392.453C296.548 392.453 292.897 391.287 291.53 390.414C290.816 389.958 290.611 389.075 290.419 388.248L290.416 388.236C289.911 386.059 288.834 381.189 287.818 375.075C248.12 367.529 216.831 336.122 209.313 296.275C203.222 295.255 198.37 294.174 196.201 293.667L196.189 293.664C195.365 293.471 194.485 293.265 194.031 292.549C193.161 291.177 192 287.512 192 277.727C192 267.941 193.162 264.276 194.031 262.904C194.485 262.188 195.365 261.982 196.189 261.789L196.201 261.786C198.37 261.279 203.222 260.198 209.313 259.178C216.831 219.331 248.12 187.924 287.818 180.378C288.834 174.264 289.911 169.394 290.416 167.217Z" fill="#68B82D" fill-opacity="0.19" stroke="#68B82D" stroke-width="5" stroke-linecap="round" stroke-linejoin="round"/>
<path d="M238.758 277.727C238.758 315.168 268.996 345.52 306.297 345.52C343.598 345.52 373.836 315.168 373.836 277.727C373.836 240.286 343.598 209.934 306.297 209.934C268.996 209.934 238.758 240.286 238.758 277.727Z" fill="#68B82D" fill-opacity="0.19" stroke="#68B82D" stroke-width="5" stroke-linecap="round" stroke-linejoin="round"/>
<path d="M327.078 257.24C327.078 257.24 318.766 251.652 306.297 251.652C295.906 251.652 285.516 257.24 285.516 264.689C285.516 283.314 327.078 272.139 327.078 290.764C327.078 298.214 316.687 303.801 306.297 303.801C293.828 303.801 285.516 298.214 285.516 298.214" fill="#68B82D" fill-opacity="0.19"/>
<path d="M327.078 257.24C327.078 257.24 318.766 251.652 306.297 251.652C295.906 251.652 285.516 257.24 285.516 264.689C285.516 283.314 327.078 272.139 327.078 290.764C327.078 298.214 316.687 303.801 306.297 303.801C293.828 303.801 285.516 298.214 285.516 298.214" stroke="#68B82D" stroke-width="5" stroke-linecap="round" stroke-linejoin="round"/>
<path d="M306.297 251.652V241.223Z" fill="#68B82D" fill-opacity="0.19"/>
<path d="M306.297 251.652V241.223" stroke="#68B82D" stroke-width="5" stroke-linecap="round" stroke-linejoin="round"/>
<path d="M306.297 314.23V303.801Z" fill="#68B82D" fill-opacity="0.19"/>
<path d="M306.297 314.23V303.801" stroke="#68B82D" stroke-width="5" stroke-linecap="round" stroke-linejoin="round"/>
</svg>
