<svg width="473" height="418" viewBox="0 0 473 418" fill="none" xmlns="http://www.w3.org/2000/svg">
<path d="M248.325 82.375H252.325V78.375V45.7188C252.325 40.3013 248.239 35.1875 242.412 35.1875H135.988C130.161 35.1875 126.075 40.3013 126.075 45.7188V78.375V82.375H130.075H248.325ZM183.13 300.894L187.085 302.924C187.693 311.79 191.484 320.232 196.832 328.118C202.683 336.744 210.599 345.001 218.916 352.782C224.457 357.965 230.307 363.053 235.907 367.924C238.681 370.338 241.395 372.698 243.979 374.989C249.11 379.54 253.741 383.831 257.554 387.875H47.3C23.7855 387.875 4 366.619 4 339.625V239.125H137.9V261.25C137.9 276.797 148.845 290.131 163.471 291.293C163.575 292.111 163.889 292.792 164.213 293.289C165.006 294.506 166.236 295.216 166.904 295.573C167.737 296.019 168.707 296.422 169.684 296.784C171.977 297.635 175.244 298.58 178.328 299.472C180.053 299.971 181.721 300.454 183.13 300.894ZM186.186 293.471L182.913 291.79C184.17 291.71 185.531 291.632 187 291.559V293.737C186.73 293.647 186.459 293.558 186.186 293.471ZM135.988 43.1875H242.412C243.09 43.1875 244.325 43.9518 244.325 45.7188V74.375H134.075V45.7188C134.075 43.9518 135.31 43.1875 135.988 43.1875ZM94.6 82.375H98.6V78.375V45.7188C98.6 22.3171 115.725 4 135.988 4H242.412C262.675 4 279.8 22.3171 279.8 45.7188V78.375V82.375H283.8H331.1C354.615 82.375 374.4 103.631 374.4 130.625V152.979C371.797 152.818 369.195 152.75 366.575 152.75C346.346 152.75 319.481 153.202 294.614 157.719C269.969 162.196 246.24 170.84 233.333 188.055L199.792 230.218L143.517 205.342L142.745 205H141.9H4V130.625C4 103.631 23.7855 82.375 47.3 82.375H94.6Z" fill="#68B82D" fill-opacity="0.19" stroke="#73CF2F" stroke-width="8"/>
<g clip-path="url(#clip0_328_214)">
<path d="M285.201 180.288C286.925 181.109 288.677 181.843 290.439 182.576C292.857 183.584 295.259 184.613 297.635 185.72C297.926 185.852 298.217 185.984 298.517 186.119C298.835 186.286 299.153 186.452 299.481 186.623C300.888 187.023 301.465 186.667 302.78 186.045C303.268 185.821 303.756 185.597 304.245 185.373C304.523 185.242 304.802 185.112 305.089 184.978C307.065 184.065 309.063 183.202 311.056 182.328C311.672 182.055 311.672 182.055 312.301 181.777C314.36 180.867 316.423 179.968 318.496 179.091C318.866 178.935 319.235 178.779 319.615 178.618C325.039 176.518 329.551 176.534 334.994 178.586C339.768 180.745 342.23 184.819 344.379 189.414C345.188 191.052 346.121 192.618 347.051 194.19C348.078 195.948 348.078 195.948 348.078 196.824C348.47 196.955 348.863 197.086 349.267 197.221C349.705 197.872 349.705 197.872 350.108 198.706C350.258 199.005 350.408 199.305 350.563 199.613C350.871 200.247 351.179 200.881 351.486 201.515C351.712 201.965 351.712 201.965 351.942 202.423C352.076 202.699 352.209 202.975 352.347 203.259C353.27 204.586 354.691 204.867 356.214 205.165C356.742 205.271 356.742 205.271 357.281 205.378C357.847 205.487 357.847 205.487 358.424 205.598C359.009 205.714 359.009 205.714 359.605 205.832C360.851 206.078 362.097 206.321 363.343 206.563C364.588 206.808 365.834 207.053 367.08 207.298C367.854 207.451 368.629 207.603 369.404 207.754C369.756 207.823 370.108 207.892 370.471 207.963C370.934 208.053 370.934 208.053 371.406 208.145C372.227 208.315 373.038 208.51 373.849 208.719C373.849 208.981 373.849 209.242 373.849 209.512C374.315 209.553 374.782 209.594 375.262 209.636C378.825 210.098 382.292 212.103 384.678 214.79C387.364 218.721 387.585 223.929 387.032 228.481C386.921 229.447 386.835 230.413 386.752 231.382C386.501 234.318 386.232 237.251 385.913 240.181C385.876 240.517 385.84 240.852 385.802 241.199C385.733 241.825 385.662 242.452 385.589 243.078C385.047 246.422 385.047 246.422 385.826 249.524C386.036 249.69 386.246 249.857 386.463 250.028C387.557 250.974 388.177 251.872 388.916 253.125C389.267 253.477 389.619 253.829 389.981 254.191C390.898 255.108 390.898 255.108 390.898 255.901C391.128 255.996 391.357 256.092 391.594 256.19C392.653 256.789 393.259 257.477 394.045 258.403C394.94 259.443 395.826 260.457 396.821 261.402C397.638 262.244 397.638 262.244 398.035 263.434C398.256 263.655 398.476 263.875 398.704 264.103C399.007 264.405 399.309 264.708 399.621 265.02C399.818 265.187 400.015 265.355 400.218 265.528C402.743 268.13 402.4 271.549 402.375 274.945C402.371 276.015 402.399 277.081 402.43 278.15C402.474 282.222 402.139 284.75 399.358 287.873C399.052 288.182 398.746 288.491 398.431 288.809C398.015 289.282 397.599 289.756 397.185 290.231C396.836 290.596 396.486 290.96 396.127 291.336C394.731 292.799 393.598 294.261 392.484 295.946C391.835 296.489 391.177 297.021 390.502 297.532C390.371 297.793 390.24 298.055 390.105 298.324C389.844 298.324 389.582 298.324 389.312 298.324C389.312 298.586 389.312 298.848 389.312 299.117C388.803 299.665 388.269 300.19 387.726 300.703C387.375 301.055 387.023 301.407 386.661 301.769C386.223 302.207 385.785 302.645 385.347 303.082C385.233 305.987 385.547 308.8 385.893 311.681C386.296 315.181 386.684 318.68 387.008 322.188C387.041 322.536 387.074 322.883 387.108 323.241C387.592 328.597 387.241 333.934 383.763 338.312C381.316 340.931 378.906 342.075 375.468 342.889C375.123 342.972 374.779 343.056 374.424 343.142C370.656 344.044 366.864 344.829 363.066 345.594C361.881 345.833 360.697 346.075 359.512 346.317C358.756 346.471 358 346.624 357.243 346.778C356.891 346.849 356.538 346.921 356.175 346.995C355.851 347.06 355.528 347.125 355.194 347.192C354.91 347.25 354.626 347.307 354.333 347.366C353.629 347.489 353.629 347.489 352.836 347.489C352.787 347.718 352.739 347.948 352.689 348.185C352.433 349.097 352.09 349.797 351.62 350.617C351.46 350.898 351.3 351.179 351.136 351.469C350.969 351.758 350.802 352.047 350.63 352.345C350.462 352.641 350.293 352.936 350.12 353.241C349.705 353.967 349.288 354.693 348.871 355.418C348.609 355.418 348.347 355.418 348.078 355.418C347.964 355.71 347.85 356.001 347.732 356.301C346.252 359.938 344.234 363.292 342.165 366.617C341.783 367.233 341.411 367.855 341.04 368.477C338.853 371.926 335.965 373.809 332.02 374.821C326.845 375.795 321.702 375.279 317.152 372.467C316.291 372.112 315.424 371.774 314.55 371.451C313.13 370.924 311.751 370.402 310.412 369.692C310.412 369.43 310.412 369.168 310.412 368.899C310.121 368.849 309.831 368.799 309.531 368.747C308.485 368.515 307.63 368.199 306.658 367.756C306.333 367.612 306.009 367.468 305.674 367.321C304.999 367.017 304.325 366.712 303.651 366.404C303.327 366.261 303.002 366.118 302.668 365.972C302.375 365.839 302.083 365.707 301.781 365.57C300.171 365.134 298.788 365.725 297.302 366.359C297.011 366.481 296.72 366.603 296.421 366.729C295.975 366.92 295.975 366.92 295.519 367.115C294.924 367.367 294.329 367.619 293.733 367.87C293.472 367.982 293.21 368.094 292.941 368.209C292.165 368.506 291.397 368.714 290.588 368.899C290.588 369.16 290.588 369.422 290.588 369.692C287.843 370.984 285.12 372.243 282.261 373.26C281.733 373.466 281.204 373.673 280.676 373.88C275.511 375.781 270.771 375.745 265.609 373.657C264.933 373.148 264.271 372.619 263.627 372.071C263.113 371.776 263.113 371.776 262.589 371.476C258.231 368.733 255.086 360.804 252.922 356.211C252.922 355.95 252.922 355.688 252.922 355.418C252.66 355.418 252.398 355.418 252.129 355.418C251.675 354.818 251.675 354.818 251.184 353.986C251.008 353.687 250.831 353.388 250.65 353.08C250.467 352.764 250.285 352.448 250.097 352.122C249.911 351.811 249.726 351.499 249.534 351.178C248.164 348.831 248.164 348.831 248.164 347.489C247.793 347.423 247.793 347.423 247.414 347.357C241.81 346.365 236.221 345.291 230.651 344.123C230.007 343.989 229.363 343.857 228.718 343.727C225.3 343.035 222.141 342.367 219.22 340.352C218.869 340.131 218.517 339.91 218.155 339.683C214.981 336.509 213.684 332.301 213.608 327.877C213.641 325.142 213.938 322.428 214.215 319.71C214.269 319.16 214.324 318.61 214.378 318.06C214.712 314.702 215.08 311.349 215.52 308.003C215.909 305.146 215.909 305.146 215.045 302.503C214.787 302.253 214.53 302.002 214.264 301.744C213.793 301.274 213.328 300.797 212.877 300.307C212.877 300.045 212.877 299.784 212.877 299.514C212.656 299.424 212.435 299.334 212.208 299.241C210.299 298.158 208.958 296.359 207.557 294.702C206.934 293.969 206.302 293.247 205.666 292.526C204.38 291.059 203.112 289.577 201.849 288.09C201.564 287.755 201.564 287.755 201.272 287.413C199.375 285.173 198.862 283.835 198.811 280.929C198.804 280.58 198.798 280.231 198.791 279.872C198.78 279.132 198.772 278.392 198.766 277.652C198.757 276.901 198.74 276.151 198.717 275.401C198.481 267.875 198.481 267.875 201.356 264.673C201.625 264.395 201.894 264.117 202.172 263.83C202.627 263.218 203.075 262.599 203.51 261.972C204.064 261.199 204.064 261.199 204.551 260.658C204.812 260.658 205.074 260.658 205.344 260.658C205.344 260.397 205.344 260.135 205.344 259.865C205.605 259.865 205.867 259.865 206.136 259.865C206.246 259.631 206.355 259.396 206.468 259.155C207.542 257.118 209.2 255.563 210.944 254.092C212.266 252.971 213.146 251.829 214.066 250.35C214.481 250.004 214.481 250.004 214.904 249.651C215.761 248.805 215.761 248.805 215.762 247.584C215.718 247.106 215.673 246.629 215.627 246.137C215.604 245.869 215.581 245.601 215.558 245.324C215.469 244.355 215.364 243.388 215.256 242.42C215.211 242.019 215.166 241.618 215.12 241.204C214.917 239.422 214.711 237.641 214.5 235.86C214.133 232.762 213.813 229.679 213.67 226.561C213.649 226.226 213.628 225.89 213.606 225.545C213.448 221.243 214.187 217.211 217.116 213.949C220.016 211.196 222.678 209.512 226.754 209.512C226.754 209.25 226.754 208.989 226.754 208.719C227.121 208.647 227.121 208.647 227.496 208.574C230.043 208.075 232.59 207.573 235.136 207.069C236.087 206.881 237.038 206.694 237.988 206.508C239.355 206.24 240.721 205.97 242.086 205.699C242.512 205.616 242.937 205.534 243.376 205.449C243.772 205.369 244.169 205.29 244.578 205.208C245.101 205.105 245.101 205.105 245.635 205C246.91 204.668 247.886 204.36 248.653 203.259C248.786 202.983 248.92 202.707 249.057 202.423C249.208 202.124 249.359 201.824 249.514 201.515C249.741 201.045 249.741 201.045 249.973 200.566C250.275 199.945 250.581 199.324 250.891 198.706C251.024 198.431 251.158 198.156 251.295 197.872C251.732 197.221 251.732 197.221 252.922 196.824C253.205 196.038 253.465 195.243 253.715 194.446C254.202 193.528 254.697 192.636 255.226 191.745C255.514 191.252 255.802 190.76 256.089 190.267C256.296 189.913 256.296 189.913 256.508 189.551C256.985 188.724 257.431 187.881 257.878 187.036C260.671 182.085 263.614 178.987 269.227 177.422C274.965 176.234 280.019 177.761 285.201 180.288Z" fill="#68B82D" fill-opacity="0.25"/>
<path d="M285.201 180.288C286.925 181.109 288.677 181.843 290.439 182.576C292.857 183.584 295.259 184.613 297.635 185.72C297.926 185.852 298.217 185.984 298.517 186.119C298.835 186.286 299.153 186.452 299.481 186.623C300.888 187.023 301.465 186.667 302.78 186.045C303.268 185.821 303.756 185.597 304.245 185.373C304.523 185.242 304.802 185.112 305.089 184.978C307.065 184.065 309.063 183.202 311.056 182.328C311.672 182.055 311.672 182.055 312.301 181.777C314.36 180.867 316.423 179.968 318.496 179.091C318.866 178.935 319.235 178.779 319.615 178.618C325.039 176.518 329.551 176.534 334.994 178.586C339.768 180.745 342.23 184.819 344.379 189.414C345.188 191.052 346.121 192.618 347.051 194.19C348.078 195.948 348.078 195.948 348.078 196.824C348.47 196.955 348.863 197.086 349.267 197.221C349.705 197.872 349.705 197.872 350.108 198.706C350.258 199.005 350.408 199.305 350.563 199.613C350.871 200.247 351.179 200.881 351.486 201.515C351.712 201.965 351.712 201.965 351.942 202.423C352.076 202.699 352.209 202.975 352.347 203.259C353.27 204.586 354.691 204.867 356.214 205.165C356.742 205.271 356.742 205.271 357.281 205.378C357.847 205.487 357.847 205.487 358.424 205.598C359.009 205.714 359.009 205.714 359.605 205.832C360.851 206.078 362.097 206.321 363.343 206.563C364.588 206.808 365.834 207.053 367.08 207.298C367.854 207.451 368.629 207.603 369.404 207.754C369.756 207.823 370.108 207.892 370.471 207.963C370.934 208.053 370.934 208.053 371.406 208.145C372.227 208.315 373.038 208.51 373.849 208.719C373.849 208.981 373.849 209.242 373.849 209.512C374.315 209.553 374.782 209.594 375.262 209.636C378.825 210.098 382.292 212.103 384.678 214.79C387.364 218.721 387.585 223.929 387.032 228.481C386.921 229.447 386.835 230.413 386.752 231.382C386.501 234.318 386.232 237.251 385.913 240.181C385.876 240.517 385.84 240.852 385.802 241.199C385.733 241.825 385.662 242.452 385.589 243.078C385.047 246.422 385.047 246.422 385.826 249.524C386.036 249.69 386.246 249.857 386.463 250.028C387.557 250.974 388.177 251.872 388.916 253.125C389.267 253.477 389.619 253.829 389.981 254.191C390.898 255.108 390.898 255.108 390.898 255.901C391.128 255.996 391.357 256.092 391.594 256.19C392.653 256.789 393.259 257.477 394.045 258.403C394.94 259.443 395.826 260.457 396.821 261.402C397.638 262.244 397.638 262.244 398.035 263.434C398.256 263.655 398.476 263.875 398.704 264.103C399.007 264.405 399.309 264.708 399.621 265.02C399.818 265.187 400.015 265.355 400.218 265.528C402.743 268.13 402.4 271.549 402.375 274.945C402.371 276.015 402.399 277.081 402.43 278.15C402.474 282.222 402.139 284.75 399.358 287.873C399.052 288.182 398.746 288.491 398.431 288.809C398.015 289.282 397.599 289.756 397.185 290.231C396.836 290.596 396.486 290.96 396.127 291.336C394.731 292.799 393.598 294.261 392.484 295.946C391.835 296.489 391.177 297.021 390.502 297.532C390.371 297.793 390.24 298.055 390.105 298.324C389.844 298.324 389.582 298.324 389.312 298.324C389.312 298.586 389.312 298.848 389.312 299.117C388.803 299.665 388.269 300.19 387.726 300.703C387.375 301.055 387.023 301.407 386.661 301.769C386.223 302.207 385.785 302.645 385.347 303.082C385.233 305.987 385.547 308.8 385.893 311.681C386.296 315.181 386.684 318.68 387.008 322.188C387.041 322.536 387.074 322.883 387.108 323.241C387.592 328.597 387.241 333.934 383.763 338.312C381.316 340.931 378.906 342.075 375.468 342.889C375.123 342.972 374.779 343.056 374.424 343.142C370.656 344.044 366.864 344.829 363.066 345.594C361.881 345.833 360.697 346.075 359.512 346.317C358.756 346.471 358 346.624 357.243 346.778C356.891 346.849 356.538 346.921 356.175 346.995C355.851 347.06 355.528 347.125 355.194 347.192C354.91 347.25 354.626 347.307 354.333 347.366C353.629 347.489 353.629 347.489 352.836 347.489C352.787 347.718 352.739 347.948 352.689 348.185C352.433 349.097 352.09 349.797 351.62 350.617C351.46 350.898 351.3 351.179 351.136 351.469C350.969 351.758 350.802 352.047 350.63 352.345C350.462 352.641 350.293 352.936 350.12 353.241C349.705 353.967 349.288 354.693 348.871 355.418C348.609 355.418 348.347 355.418 348.078 355.418C347.964 355.71 347.85 356.001 347.732 356.301C346.252 359.938 344.234 363.292 342.165 366.617C341.783 367.233 341.411 367.855 341.04 368.477C338.853 371.926 335.965 373.809 332.02 374.821C326.845 375.795 321.702 375.279 317.152 372.467C316.291 372.112 315.424 371.774 314.55 371.451C313.13 370.924 311.751 370.402 310.412 369.692C310.412 369.43 310.412 369.168 310.412 368.899C310.121 368.849 309.831 368.799 309.531 368.747C308.485 368.515 307.63 368.199 306.658 367.756C306.333 367.612 306.009 367.468 305.674 367.321C304.999 367.017 304.325 366.712 303.651 366.404C303.327 366.261 303.002 366.118 302.668 365.972C302.375 365.839 302.083 365.707 301.781 365.57C300.171 365.134 298.788 365.725 297.302 366.359C297.011 366.481 296.72 366.603 296.421 366.729C295.975 366.92 295.975 366.92 295.519 367.115C294.924 367.367 294.329 367.619 293.733 367.87C293.472 367.982 293.21 368.094 292.941 368.209C292.165 368.506 291.397 368.714 290.588 368.899C290.588 369.16 290.588 369.422 290.588 369.692C287.843 370.984 285.12 372.243 282.261 373.26C281.733 373.466 281.204 373.673 280.676 373.88C275.511 375.781 270.771 375.745 265.609 373.657C264.933 373.148 264.271 372.619 263.627 372.071C263.113 371.776 263.113 371.776 262.589 371.476C258.231 368.733 255.086 360.804 252.922 356.211C252.922 355.95 252.922 355.688 252.922 355.418C252.66 355.418 252.398 355.418 252.129 355.418C251.675 354.818 251.675 354.818 251.184 353.986C251.008 353.687 250.831 353.388 250.65 353.08C250.467 352.764 250.285 352.448 250.097 352.122C249.911 351.811 249.726 351.499 249.534 351.178C248.164 348.831 248.164 348.831 248.164 347.489C247.793 347.423 247.793 347.423 247.414 347.357C241.81 346.365 236.221 345.291 230.651 344.123C230.007 343.989 229.363 343.857 228.718 343.727C225.3 343.035 222.141 342.367 219.22 340.352C218.869 340.131 218.517 339.91 218.155 339.683C214.981 336.509 213.684 332.301 213.608 327.877C213.641 325.142 213.938 322.428 214.215 319.71C214.269 319.16 214.324 318.61 214.378 318.06C214.712 314.702 215.08 311.349 215.52 308.003C215.909 305.146 215.909 305.146 215.045 302.503C214.787 302.253 214.53 302.002 214.264 301.744C213.793 301.274 213.328 300.797 212.877 300.307C212.877 300.045 212.877 299.784 212.877 299.514C212.656 299.424 212.435 299.334 212.208 299.241C210.299 298.158 208.958 296.359 207.557 294.702C206.934 293.969 206.302 293.247 205.666 292.526C204.38 291.059 203.112 289.577 201.849 288.09C201.564 287.755 201.564 287.755 201.272 287.413C199.375 285.173 198.862 283.835 198.811 280.929C198.804 280.58 198.798 280.231 198.791 279.872C198.78 279.132 198.772 278.392 198.766 277.652C198.757 276.901 198.74 276.151 198.717 275.401C198.481 267.875 198.481 267.875 201.356 264.673C201.625 264.395 201.894 264.117 202.172 263.83C202.627 263.218 203.075 262.599 203.51 261.972C204.064 261.199 204.064 261.199 204.551 260.658C204.812 260.658 205.074 260.658 205.344 260.658C205.344 260.397 205.344 260.135 205.344 259.865C205.605 259.865 205.867 259.865 206.136 259.865C206.246 259.631 206.355 259.396 206.468 259.155C207.542 257.118 209.2 255.563 210.944 254.092C212.266 252.971 213.146 251.829 214.066 250.35C214.481 250.004 214.481 250.004 214.904 249.651C215.761 248.805 215.761 248.805 215.762 247.584C215.718 247.106 215.673 246.629 215.627 246.137C215.604 245.869 215.581 245.601 215.558 245.324C215.469 244.355 215.364 243.388 215.256 242.42C215.211 242.019 215.166 241.618 215.12 241.204C214.917 239.422 214.711 237.641 214.5 235.86C214.133 232.762 213.813 229.679 213.67 226.561C213.649 226.226 213.628 225.89 213.606 225.545C213.448 221.243 214.187 217.211 217.116 213.949C220.016 211.196 222.678 209.512 226.754 209.512C226.754 209.25 226.754 208.989 226.754 208.719C227.121 208.647 227.121 208.647 227.496 208.574C230.043 208.075 232.59 207.573 235.136 207.069C236.087 206.881 237.038 206.694 237.988 206.508C239.355 206.24 240.721 205.97 242.086 205.699C242.512 205.616 242.937 205.534 243.376 205.449C243.772 205.369 244.169 205.29 244.578 205.208C245.101 205.105 245.101 205.105 245.635 205C246.91 204.668 247.886 204.36 248.653 203.259C248.786 202.983 248.92 202.707 249.057 202.423C249.208 202.124 249.359 201.824 249.514 201.515C249.741 201.045 249.741 201.045 249.973 200.566C250.275 199.945 250.581 199.324 250.891 198.706C251.024 198.431 251.158 198.156 251.295 197.872C251.732 197.221 251.732 197.221 252.922 196.824C253.205 196.038 253.465 195.243 253.715 194.446C254.202 193.528 254.697 192.636 255.226 191.745C255.514 191.252 255.802 190.76 256.089 190.267C256.296 189.913 256.296 189.913 256.508 189.551C256.985 188.724 257.431 187.881 257.878 187.036C260.671 182.085 263.614 178.987 269.227 177.422C274.965 176.234 280.019 177.761 285.201 180.288ZM273.142 192.463C273.142 192.725 273.142 192.987 273.142 193.256C272.75 193.387 272.357 193.518 271.953 193.653C270.975 194.992 270.763 195.518 270.763 197.221C270.502 197.221 270.24 197.221 269.97 197.221C269.325 198.434 268.681 199.649 268.038 200.864C267.855 201.206 267.673 201.549 267.485 201.902C267.308 202.236 267.132 202.569 266.95 202.913C266.707 203.371 266.707 203.371 266.46 203.838C265.977 204.765 265.977 204.765 265.624 205.836C265.489 206.133 265.353 206.43 265.213 206.737C264.82 206.867 264.428 206.998 264.023 207.133C262.524 209.372 260.058 213.077 260.058 215.856C259.797 215.856 259.535 215.856 259.265 215.856C259.14 216.222 259.14 216.222 259.013 216.596C257.879 218.369 255.257 218.563 253.318 219.028C251.982 219.274 250.65 219.484 249.304 219.664C248.251 219.809 247.221 219.997 246.181 220.217C246.181 220.479 246.181 220.74 246.181 221.01C245.943 221.022 245.705 221.034 245.46 221.047C241.964 221.291 238.61 222.045 235.204 222.819C234.612 222.951 234.021 223.083 233.43 223.215C231.997 223.534 230.564 223.857 229.133 224.182C229.01 227.264 229.348 230.229 229.765 233.28C230.368 237.714 230.879 242.145 231.214 246.608C231.246 247.027 231.277 247.446 231.31 247.877C231.387 248.965 231.452 250.054 231.511 251.143C231.545 251.656 231.578 252.17 231.612 252.699C231.492 254.156 231.156 254.665 230.198 255.752C229.767 256.254 229.767 256.254 229.326 256.766C229.001 257.135 228.675 257.503 228.34 257.883C227.783 258.54 227.23 259.199 226.677 259.859C226.116 260.527 225.55 261.192 224.983 261.856C224.412 262.528 223.843 263.202 223.283 263.885C222.294 265.083 221.282 266.104 220.088 267.101C218.065 268.818 216.504 270.88 214.859 272.949C214.075 273.882 213.279 274.804 212.48 275.725C213.125 277.311 214.239 278.423 215.404 279.64C216.859 281.161 218.07 282.673 219.22 284.448C220.212 285.571 220.212 285.571 221.203 286.43C221.465 286.43 221.726 286.43 221.996 286.43C222.083 286.643 222.171 286.856 222.261 287.076C222.967 288.334 223.913 289.325 224.895 290.37C225.083 290.573 225.271 290.776 225.464 290.986C226.937 292.572 228.451 294.112 230.025 295.599C230.719 296.342 230.719 296.342 231.115 297.532C231.377 297.662 231.638 297.793 231.908 297.928C232.143 298.978 232.202 300.026 232.304 301.1C232.043 301.1 231.781 301.1 231.511 301.1C231.482 301.456 231.452 301.813 231.421 302.18C231.28 303.86 231.136 305.541 230.991 307.221C230.965 307.525 230.939 307.829 230.912 308.143C230.527 312.565 230.078 316.971 229.495 321.372C229.222 323.488 229.004 325.53 229.133 327.664C230.028 328.56 230.347 328.616 231.558 328.843C231.913 328.912 232.269 328.98 232.635 329.051C233.232 329.162 233.232 329.162 233.841 329.275C234.729 329.446 235.617 329.618 236.505 329.791C237.017 329.89 237.529 329.989 238.057 330.091C241.346 330.732 244.628 331.408 247.91 332.079C249.099 332.322 250.288 332.563 251.476 332.805C252.217 332.956 252.958 333.107 253.699 333.258C254.043 333.328 254.387 333.398 254.742 333.47C255.059 333.535 255.377 333.6 255.704 333.667C255.981 333.723 256.259 333.78 256.544 333.838C257.283 334.008 257.283 334.008 258.472 334.405C258.943 335.421 258.943 335.421 259.265 336.387C259.527 336.387 259.789 336.387 260.058 336.387C260.181 336.829 260.304 337.27 260.43 337.725C260.781 339.081 260.781 339.081 261.248 339.955C261.509 339.955 261.771 339.955 262.041 339.955C262.09 340.25 262.139 340.544 262.189 340.847C262.478 342.119 262.788 343.118 263.765 344.014C264.65 344.959 265.196 345.997 265.823 347.129C265.952 347.362 266.082 347.595 266.215 347.836C266.487 348.327 266.758 348.819 267.029 349.311C267.442 350.064 267.859 350.815 268.276 351.566C270.308 355.242 270.308 355.242 270.763 356.608C271.025 356.608 271.287 356.608 271.556 356.608C271.597 356.902 271.638 357.196 271.68 357.5C271.97 358.658 272.376 359.277 273.142 360.176C275.489 359.478 277.669 358.433 279.883 357.401C279.883 357.139 279.883 356.877 279.883 356.608C280.156 356.565 280.43 356.521 280.711 356.477C282.05 356.169 283.208 355.681 284.465 355.129C284.713 355.02 284.961 354.912 285.217 354.801C286.009 354.455 286.799 354.107 287.589 353.758C288.106 353.531 288.623 353.305 289.14 353.079C289.523 352.911 289.523 352.911 289.913 352.74C290.428 352.515 290.942 352.291 291.457 352.066C292.742 351.506 294.023 350.938 295.299 350.357C295.79 350.138 296.281 349.918 296.772 349.699C297.204 349.502 297.636 349.306 298.081 349.103C299.845 348.493 301.127 348.463 302.868 349.129C303.272 349.332 303.676 349.534 304.093 349.744C305.792 350.566 307.476 351.321 309.247 351.974C311.982 352.994 314.621 354.206 317.265 355.44C317.593 355.59 317.92 355.741 318.258 355.897C318.698 356.102 318.698 356.102 319.146 356.312C319.974 356.678 319.974 356.678 321.117 356.608C321.117 356.869 321.117 357.131 321.117 357.401C322.081 357.876 323.048 358.346 324.016 358.813C324.29 358.949 324.564 359.085 324.846 359.224C326.489 360.075 326.489 360.075 328.254 359.78C328.789 358.906 328.789 358.906 329.27 357.797C330.431 355.366 331.754 353.069 333.135 350.756C334.309 348.785 335.422 346.791 336.479 344.753C336.976 343.92 336.976 343.92 337.635 343.31C338.344 342.667 338.344 342.667 338.166 341.145C338.427 341.145 338.689 341.145 338.959 341.145C339.188 340.679 339.417 340.213 339.653 339.732C340.425 338.186 341.264 336.693 342.131 335.198C342.261 334.936 342.392 334.674 342.527 334.405C343.429 334.121 343.429 334.121 344.629 333.862C345.07 333.766 345.511 333.669 345.965 333.57C346.441 333.469 346.918 333.368 347.409 333.265C347.897 333.159 348.384 333.054 348.887 332.945C352.97 332.067 357.063 331.24 361.162 330.44C362.971 330.086 364.78 329.731 366.589 329.374C367.247 329.246 367.247 329.246 367.919 329.116C368.526 328.996 368.526 328.996 369.146 328.874C369.508 328.803 369.871 328.732 370.245 328.659C371.064 328.536 371.064 328.536 371.47 328.061C371.733 323.336 371.29 318.752 370.623 314.081C369.8 308.281 369.164 302.608 369.488 296.739C369.729 296.627 369.969 296.515 370.217 296.399C371.682 295.623 372.756 294.504 373.558 293.059C374.437 291.681 375.521 290.65 376.699 289.527C377.489 288.774 378.25 288.014 379.004 287.223C379.004 286.961 379.004 286.7 379.004 286.43C379.233 286.332 379.462 286.234 379.698 286.133C381.034 285.39 381.923 284.508 382.663 283.167C383.722 281.509 385.124 280.196 386.524 278.824C387.81 277.546 387.81 277.546 388.115 275.832C387.62 274.685 386.996 273.857 386.14 272.949C385.879 272.949 385.617 272.949 385.347 272.949C385.257 272.737 385.168 272.524 385.075 272.305C383.982 270.328 382.566 268.952 380.822 267.554C379.85 266.702 379.042 265.726 378.204 264.744C377.301 263.694 376.37 262.672 375.435 261.65C374.027 260.104 372.62 258.558 371.261 256.968C370.768 256.401 370.242 255.862 369.711 255.331C368.236 252.912 369.241 249.102 369.598 246.399C369.705 245.558 369.811 244.716 369.918 243.875C370.086 242.571 370.255 241.266 370.424 239.961C371.103 234.702 371.674 229.484 371.867 224.182C370.141 223.79 368.414 223.403 366.686 223.018C366.1 222.887 365.514 222.755 364.929 222.622C361.572 221.86 358.268 221.187 354.818 221.01C354.818 220.748 354.818 220.487 354.818 220.217C353.014 219.778 351.242 219.399 349.391 219.226C347.932 219.084 346.69 218.717 345.302 218.235C344.836 218.235 344.37 218.235 343.89 218.235C342.527 217.838 342.527 217.838 341.911 216.932C341.41 215.926 340.957 214.919 340.545 213.873C340.283 213.873 340.021 213.873 339.752 213.873C339.657 213.549 339.657 213.549 339.561 213.218C338.836 210.875 337.837 208.838 336.58 206.737C336.318 206.737 336.056 206.737 335.787 206.737C335.683 206.456 335.579 206.175 335.472 205.886C334.964 204.684 334.354 203.617 333.681 202.499C332.589 200.657 331.594 198.796 330.656 196.872C330.17 195.898 329.619 194.975 329.047 194.049C328.777 193.523 328.51 192.996 328.254 192.463C326.072 192.705 324.251 193.46 322.257 194.322C321.924 194.463 321.592 194.605 321.249 194.751C318.983 195.726 316.773 196.771 314.592 197.924C313.488 198.457 312.374 198.838 311.205 199.203C311.205 199.465 311.205 199.727 311.205 199.996C310.95 200.029 310.695 200.061 310.432 200.094C308.44 200.586 306.642 201.555 304.805 202.457C302.844 203.371 301.09 204.045 298.914 203.565C297.031 202.877 295.223 202.042 293.413 201.186C292.448 200.737 291.482 200.293 290.516 199.848C289.88 199.549 289.88 199.549 289.231 199.244C288.273 198.755 288.273 198.755 287.416 198.807C287.416 198.545 287.416 198.284 287.416 198.014C286.762 198.014 286.107 198.014 285.433 198.014C285.433 197.752 285.433 197.491 285.433 197.221C284.91 197.221 284.387 197.221 283.847 197.221C283.847 196.959 283.847 196.698 283.847 196.428C283.616 196.336 283.384 196.244 283.145 196.149C282.09 195.731 281.036 195.311 279.982 194.892C279.617 194.747 279.252 194.602 278.876 194.453C278.523 194.313 278.171 194.172 277.807 194.027C277.483 193.899 277.159 193.77 276.826 193.637C275.918 193.256 275.918 193.256 275.081 192.811C274.29 192.38 274.29 192.38 273.142 192.463Z" fill="#8BFF35"/>
<path d="M329.443 250.746C331.065 251.4 332.211 252.56 333.458 253.745C334.901 255.181 334.901 255.181 336.58 256.297C336.361 257.826 335.711 258.459 334.598 259.494C333.274 260.771 332.076 262.069 330.93 263.508C329.31 265.533 327.575 267.416 325.797 269.301C324.482 270.705 323.235 272.138 322.034 273.643C320.571 275.473 318.975 277.093 317.296 278.725C316.129 279.927 315.142 281.217 314.168 282.578C313.584 283.258 313.584 283.258 312.395 283.654C312.23 283.985 312.23 283.985 312.062 284.322C311.404 285.634 310.401 286.594 309.396 287.644C307.897 289.236 306.45 290.84 305.084 292.55C303.49 294.538 301.778 296.387 300.031 298.239C298.359 300.021 296.812 301.866 295.307 303.793C294.553 304.668 294.553 304.668 292.967 305.857C283.154 296.044 273.341 286.231 263.23 276.121C264.12 274.341 265.168 273.231 266.551 271.834C266.78 271.592 267.009 271.35 267.245 271.101C267.581 270.761 267.581 270.761 267.923 270.414C268.126 270.206 268.328 269.998 268.537 269.784C269.178 269.381 269.178 269.381 269.878 269.428C271.149 269.93 271.954 270.828 272.884 271.794C273.09 272.004 273.297 272.213 273.51 272.429C273.957 272.883 274.403 273.339 274.848 273.796C275.552 274.519 276.259 275.237 276.968 275.955C278.983 277.995 280.99 280.042 282.994 282.092C284.22 283.346 285.452 284.595 286.686 285.841C287.156 286.318 287.624 286.796 288.09 287.276C288.74 287.947 289.396 288.611 290.054 289.273C290.246 289.474 290.438 289.675 290.635 289.883C291.227 290.494 291.227 290.494 292.174 291.188C293.398 291.147 293.7 290.848 294.598 289.996C294.885 289.662 295.173 289.327 295.47 288.982C295.784 288.62 296.099 288.257 296.424 287.884C296.722 287.535 297.021 287.186 297.328 286.826C297.765 286.33 298.203 285.835 298.641 285.339C299.499 284.357 300.348 283.369 301.194 282.377C303.404 279.785 305.637 277.226 307.939 274.715C308.95 273.606 309.939 272.48 310.923 271.348C311.937 270.186 312.965 269.036 313.991 267.885C314.73 267.051 315.458 266.21 316.186 265.366C317.069 264.353 317.978 263.386 318.937 262.442C320.837 260.567 322.545 258.533 324.277 256.503C324.487 256.257 324.697 256.011 324.913 255.758C325.332 255.267 325.75 254.776 326.167 254.284C327.216 253.054 328.278 251.869 329.443 250.746Z" fill="#FBFEFE"/>
<path d="M265.213 178.982C265.605 179.179 265.605 179.179 266.006 179.379C265.72 179.6 265.433 179.82 265.139 180.048C262.087 182.557 259.35 185.615 257.695 189.226C257.191 190.275 256.611 191.263 256.019 192.265C255.047 193.912 254.094 195.568 253.16 197.238C252.704 198.054 252.244 198.867 251.784 199.68C251.267 200.595 250.769 201.512 250.281 202.443C250.09 202.797 249.898 203.15 249.7 203.515C249.544 203.816 249.388 204.118 249.227 204.429C248.248 205.489 247.149 205.665 245.785 205.943C245.432 206.018 245.078 206.092 244.714 206.169C243.47 206.424 242.224 206.668 240.978 206.91C236.502 207.788 236.502 207.788 232.055 208.799C230.939 209.063 229.824 209.301 228.701 209.53C223.947 210.532 220.116 211.477 217.065 215.533C213.277 221.896 214.967 229.853 215.851 236.795C215.994 237.93 216.136 239.065 216.275 240.201C216.361 240.901 216.449 241.6 216.54 242.299C216.746 243.974 216.892 245.642 216.948 247.329C216.964 247.802 216.964 247.802 216.98 248.285C216.71 249.992 215.318 250.869 214.066 251.936C213.701 252.365 213.345 252.802 213.001 253.249C212.172 254.212 211.669 254.674 210.498 255.107C210.895 253.918 210.895 253.918 211.836 253.175C212.919 252.298 213.38 251.544 214.066 250.35C214.34 250.122 214.614 249.894 214.897 249.659C215.762 248.807 215.762 248.807 215.762 247.584C215.696 246.867 215.696 246.867 215.628 246.137C215.605 245.869 215.582 245.6 215.558 245.324C215.47 244.354 215.364 243.388 215.256 242.42C215.188 241.818 215.188 241.818 215.12 241.204C214.918 239.422 214.712 237.641 214.5 235.86C214.134 232.762 213.813 229.679 213.67 226.561C213.649 226.225 213.628 225.89 213.606 225.545C213.448 221.242 214.187 217.211 217.116 213.949C220.016 211.196 222.679 209.512 226.754 209.512C226.754 209.25 226.754 208.988 226.754 208.719C227.121 208.647 227.121 208.647 227.496 208.574C230.043 208.075 232.59 207.572 235.137 207.068C236.087 206.881 237.038 206.694 237.989 206.508C239.355 206.24 240.721 205.97 242.087 205.699C242.512 205.616 242.938 205.533 243.376 205.448C243.773 205.369 244.169 205.29 244.578 205.208C245.101 205.105 245.101 205.105 245.635 205C246.91 204.667 247.886 204.36 248.653 203.258C248.853 202.845 248.853 202.845 249.058 202.423C249.208 202.123 249.359 201.823 249.514 201.515C249.665 201.202 249.817 200.889 249.973 200.566C250.276 199.944 250.582 199.324 250.891 198.706C251.025 198.431 251.158 198.155 251.295 197.872C251.732 197.221 251.732 197.221 252.922 196.824C253.205 196.038 253.466 195.243 253.715 194.445C254.202 193.528 254.697 192.636 255.226 191.744C255.514 191.252 255.802 190.759 256.089 190.267C256.227 190.03 256.366 189.794 256.508 189.551C256.985 188.723 257.431 187.88 257.878 187.036C261.65 180.287 261.65 180.287 265.213 178.982Z" fill="#BFF5B1"/>
<path d="M401.604 281.672C401.734 281.672 401.865 281.672 402 281.672C402.187 283.745 401.764 284.66 400.488 286.281C400.165 286.692 399.842 287.103 399.51 287.526C398.095 289.237 396.586 290.856 395.054 292.461C394.072 293.564 393.297 294.716 392.484 295.945C391.836 296.489 391.177 297.021 390.502 297.531C390.306 297.924 390.306 297.924 390.105 298.324C389.844 298.324 389.582 298.324 389.312 298.324C389.312 298.586 389.312 298.848 389.312 299.117C388.803 299.664 388.27 300.189 387.727 300.703C387.375 301.055 387.023 301.406 386.661 301.769C386.223 302.206 385.785 302.644 385.348 303.082C385.233 305.987 385.547 308.8 385.893 311.681C386.297 315.18 386.684 318.68 387.008 322.188C387.041 322.535 387.074 322.883 387.108 323.241C387.593 328.597 387.241 333.934 383.763 338.312C380.216 342.108 375.973 342.898 371.074 343.92C370.46 344.051 369.845 344.182 369.23 344.313C367.145 344.757 365.058 345.195 362.971 345.63C362.623 345.702 362.276 345.775 361.917 345.85C360.915 346.058 359.912 346.263 358.909 346.468C358.454 346.562 358.454 346.562 357.991 346.659C356.517 346.956 355.134 347.167 353.629 347.092C354.762 346.337 355.294 346.14 356.586 345.902C356.929 345.837 357.272 345.772 357.625 345.704C357.983 345.639 358.341 345.573 358.709 345.506C360.913 345.097 363.004 344.65 365.127 343.92C366.057 343.716 366.991 343.527 367.927 343.35C376.676 341.895 376.676 341.895 383.663 336.808C386.13 332.989 386.349 328.594 385.843 324.23C385.682 322.721 385.581 321.207 385.469 319.693C385.18 315.822 384.821 311.972 384.304 308.125C384.256 307.638 384.208 307.152 384.158 306.65C384.119 306.364 384.08 306.078 384.04 305.783C383.926 304.412 383.92 303.465 384.66 302.275C385.372 301.455 386.12 300.707 386.909 299.96C387.459 299.409 388.007 298.857 388.555 298.304C388.822 298.038 389.09 297.772 389.365 297.498C390.346 296.491 391.215 295.436 392.088 294.335C393.014 293.171 393.933 292.086 395.012 291.064C396.379 289.738 397.566 288.287 398.754 286.801C398.944 286.567 399.135 286.333 399.331 286.092C400.446 284.676 401.137 283.445 401.604 281.672Z" fill="#BFF5AF"/>
<path d="M199 282.465C199.393 283.054 199.393 283.054 199.793 283.654C200.367 284.442 200.946 285.226 201.528 286.008C201.986 286.627 201.986 286.627 202.454 287.258C203.238 288.255 204.039 289.118 204.947 289.998C205.634 290.77 206.306 291.554 206.978 292.338C207.852 293.314 208.778 294.227 209.705 295.152C210.614 296.125 211.516 297.102 212.408 298.09C213.244 299.015 214.079 299.923 214.966 300.799C215.217 301.054 215.468 301.308 215.727 301.57C215.945 301.78 216.163 301.991 216.388 302.207C217.806 304.94 216.58 309.008 216.186 311.946C215.601 316.367 215.104 320.777 214.909 325.236C214.89 325.621 214.87 326.006 214.85 326.403C214.773 328.716 215 330.827 215.477 333.093C215.652 334.008 215.652 334.008 215.652 335.197C215.914 335.197 216.176 335.197 216.445 335.197C216.957 335.777 216.957 335.777 217.486 336.535C217.663 336.784 217.84 337.032 218.022 337.288C218.428 337.973 218.428 337.973 218.428 338.766C218.649 338.864 218.869 338.962 219.097 339.063C220.014 339.559 220.014 339.559 220.756 340.321C222.652 341.58 224.682 341.767 226.903 342.136C227.837 342.302 228.772 342.471 229.706 342.641C230.155 342.722 230.605 342.804 231.068 342.888C233.052 343.271 234.977 343.8 236.922 344.35C239.193 344.969 241.496 345.433 243.803 345.902C243.803 346.033 243.803 346.164 243.803 346.299C241.401 346.405 239.236 346.006 236.892 345.501C236.5 345.418 236.107 345.335 235.703 345.249C234.876 345.072 234.049 344.894 233.222 344.714C231.966 344.442 230.708 344.18 229.45 343.918C228.643 343.744 227.836 343.57 227.03 343.395C226.658 343.318 226.286 343.242 225.903 343.163C221.915 342.275 218.292 340.481 215.999 337.006C212.88 331.547 213.605 325.701 214.215 319.71C214.27 319.16 214.324 318.61 214.378 318.06C214.712 314.702 215.081 311.349 215.521 308.002C215.909 305.146 215.909 305.146 215.045 302.503C214.788 302.252 214.53 302.002 214.265 301.744C213.793 301.274 213.328 300.797 212.877 300.307C212.877 300.045 212.877 299.783 212.877 299.514C212.656 299.424 212.435 299.334 212.208 299.241C210.299 298.158 208.959 296.359 207.557 294.702C206.935 293.969 206.302 293.247 205.666 292.526C204.38 291.058 203.113 289.577 201.85 288.09C201.659 287.867 201.469 287.643 201.273 287.413C198.885 284.595 198.885 284.595 199 282.465Z" fill="#C0F5AF"/>
<path d="M333.805 178.586C337.425 179.348 339.732 181.518 341.716 184.525C342.716 186.105 343.588 187.722 344.38 189.413C345.188 191.052 346.121 192.618 347.051 194.19C348.078 195.948 348.078 195.948 348.078 196.824C348.471 196.955 348.863 197.086 349.268 197.221C349.705 197.872 349.705 197.872 350.109 198.706C350.334 199.155 350.334 199.155 350.563 199.613C350.871 200.246 351.179 200.88 351.486 201.515C351.637 201.814 351.787 202.114 351.942 202.423C352.076 202.699 352.21 202.974 352.347 203.258C353.27 204.586 354.691 204.867 356.215 205.165C356.743 205.27 356.743 205.27 357.281 205.378C357.658 205.45 358.035 205.523 358.424 205.598C359.009 205.714 359.009 205.714 359.606 205.832C360.851 206.078 362.097 206.32 363.343 206.563C364.589 206.807 365.834 207.053 367.08 207.298C367.855 207.451 368.629 207.603 369.404 207.754C369.932 207.857 369.932 207.857 370.471 207.962C370.934 208.052 370.934 208.052 371.406 208.144C372.227 208.315 373.038 208.509 373.85 208.719C373.85 208.98 373.85 209.242 373.85 209.512C374.316 209.553 374.782 209.593 375.262 209.636C376.961 209.847 378.273 210.32 379.797 211.098C379.928 211.359 380.059 211.621 380.193 211.891C378.398 211.53 376.646 211.13 374.915 210.528C370.488 209.001 365.862 208.222 361.267 207.381C353.163 205.891 353.163 205.891 351.71 204.404C351.566 204.111 351.423 203.817 351.275 203.515C351.091 203.166 350.908 202.818 350.719 202.459C350.502 202.039 350.284 201.618 350.061 201.186C349.412 200.055 348.744 198.936 348.078 197.815C347.732 197.227 347.386 196.637 347.04 196.048C346.32 194.824 345.592 193.604 344.857 192.389C344.055 191.063 343.285 189.722 342.525 188.372C341.873 187.219 341.209 186.075 340.545 184.93C340.388 184.646 340.231 184.362 340.069 184.07C338.795 182 336.795 180.879 334.776 179.617C334.455 179.408 334.135 179.198 333.805 178.982C333.805 178.852 333.805 178.721 333.805 178.586Z" fill="#BFF5B0"/>
<path d="M352.043 347.092C352.566 347.223 353.09 347.353 353.629 347.488C353.367 347.488 353.106 347.488 352.836 347.488C352.787 347.718 352.739 347.948 352.689 348.185C352.433 349.097 352.09 349.796 351.62 350.617C351.46 350.898 351.301 351.179 351.136 351.469C350.969 351.758 350.802 352.047 350.63 352.345C350.462 352.641 350.294 352.936 350.12 353.24C349.706 353.967 349.289 354.693 348.871 355.418C348.609 355.418 348.348 355.418 348.078 355.418C347.964 355.709 347.85 356.001 347.733 356.301C346.252 359.937 344.234 363.291 342.165 366.617C341.784 367.233 341.411 367.855 341.041 368.477C338.854 371.926 335.966 373.809 332.021 374.821C326.846 375.795 321.702 375.279 317.152 372.467C316.292 372.112 315.424 371.774 314.55 371.451C313.131 370.924 311.751 370.402 310.412 369.691C310.412 369.43 310.412 369.168 310.412 368.898C312.056 369.104 313.308 369.715 314.756 370.467C315.926 371.064 317.131 371.564 318.342 372.07C318.751 372.275 319.16 372.479 319.581 372.69C324.599 374.847 329.995 374.172 334.994 372.467C339.503 370.399 341.512 365.954 343.717 361.762C345.137 359.131 346.658 356.563 348.179 353.99C349.519 351.717 350.805 349.422 352.043 347.092Z" fill="#BFF5B0"/>
<path d="M254.111 357.4C255.387 358.038 255.825 359.359 256.49 360.572C260.442 368.344 260.442 368.344 267.215 373.274C271.959 374.472 276.386 374.259 281.072 372.863C281.875 372.35 282.669 371.821 283.451 371.277C284.284 370.922 285.127 370.591 285.979 370.286C287.518 369.721 288.974 369.137 290.414 368.353C291.83 367.684 291.992 367.643 293.363 368.105C292.314 368.685 291.819 368.898 290.588 368.898C290.588 369.16 290.588 369.422 290.588 369.691C287.843 370.984 285.12 372.242 282.262 373.26C281.733 373.466 281.204 373.673 280.676 373.879C275.512 375.781 270.772 375.744 265.609 373.656C264.933 373.148 264.271 372.619 263.627 372.07C263.285 371.874 262.942 371.678 262.589 371.476C259.776 369.704 258.191 365.833 256.54 363.026C256.346 362.699 256.152 362.372 255.953 362.035C255.771 361.722 255.59 361.408 255.403 361.085C255.24 360.805 255.077 360.525 254.909 360.236C254.467 359.296 254.276 358.423 254.111 357.4Z" fill="#BFF5B0"/>
<path d="M380.193 211.891C381.894 212.08 382.645 213.044 383.762 214.27C384.09 214.62 384.419 214.971 384.758 215.332C385.895 216.71 386.312 218.069 386.686 219.796C386.785 220.241 386.785 220.241 386.886 220.695C387.419 223.346 387.358 225.796 387.032 228.481C386.921 229.447 386.835 230.413 386.752 231.382C386.501 234.318 386.232 237.251 385.913 240.18C385.876 240.516 385.84 240.852 385.802 241.198C385.733 241.825 385.662 242.451 385.589 243.078C385.048 246.459 385.048 246.459 385.868 249.594C386.089 249.778 386.31 249.962 386.537 250.151C386.93 250.478 387.322 250.806 387.727 251.143C387.596 251.535 387.465 251.928 387.33 252.332C386.791 251.89 386.265 251.433 385.744 250.969C385.45 250.716 385.155 250.463 384.852 250.202C383.373 247.98 384.184 244.924 384.505 242.395C384.95 238.655 385.271 234.908 385.564 231.153C385.665 229.868 385.777 228.588 385.924 227.309C386.352 223.195 386.205 218.822 383.613 215.409C383.147 214.886 382.668 214.372 382.176 213.873C381.971 213.657 381.766 213.441 381.555 213.218C381.113 212.764 380.655 212.325 380.193 211.891Z" fill="#C0F5AE"/>
<path d="M279.883 178.586C281.413 178.839 282.723 179.294 284.147 179.905C284.584 180.092 285.021 180.279 285.472 180.471C286.152 180.764 286.152 180.764 286.846 181.064C287.739 181.446 288.631 181.828 289.524 182.21C289.963 182.399 290.401 182.587 290.854 182.782C292.531 183.496 294.219 184.185 295.909 184.869C296.889 185.307 297.76 185.817 298.666 186.392C299.837 186.897 300.357 186.948 301.606 186.633C302.798 186.129 303.954 185.576 305.11 184.994C307.088 184.026 309.115 183.163 311.131 182.278C311.552 182.09 311.973 181.901 312.406 181.707C314.752 180.665 317.081 179.748 319.531 178.982C318.711 179.875 317.976 180.42 316.877 180.926C316.595 181.057 316.313 181.188 316.022 181.323C315.725 181.459 315.427 181.594 315.12 181.733C314.814 181.875 314.507 182.016 314.191 182.162C313.329 182.559 312.466 182.952 311.602 183.344C311.267 183.496 310.932 183.648 310.587 183.805C310.061 184.041 309.533 184.275 309.004 184.505C308.16 184.874 307.32 185.249 306.48 185.627C305.907 185.882 305.335 186.137 304.762 186.392C304.49 186.515 304.218 186.638 303.937 186.764C300.416 188.323 300.416 188.323 298.69 187.784C298.335 187.614 297.979 187.445 297.613 187.27C297.216 187.084 296.82 186.898 296.411 186.706C295.786 186.403 295.786 186.403 295.147 186.094C294.719 185.892 294.291 185.69 293.849 185.482C293.003 185.082 292.159 184.681 291.315 184.277C289.996 183.647 288.671 183.035 287.342 182.427C286.573 182.072 285.805 181.717 285.037 181.361C284.071 180.915 283.104 180.469 282.138 180.023C281.386 179.676 280.634 179.329 279.883 178.982C279.883 178.852 279.883 178.721 279.883 178.586Z" fill="#BFF5B0"/>
<path d="M387.727 252.332C388.183 252.701 388.637 253.073 389.089 253.447C389.342 253.654 389.595 253.861 389.856 254.074C390.502 254.711 390.502 254.711 390.898 255.9C391.426 256.167 391.955 256.431 392.484 256.693C393.263 257.482 393.263 257.482 394.046 258.403C395.2 259.741 396.37 261.015 397.639 262.244C397.508 262.637 397.377 263.029 397.242 263.434C395.287 261.519 393.381 259.588 391.602 257.508C390.535 256.272 389.427 255.074 388.323 253.872C387.727 253.125 387.727 253.125 387.727 252.332Z" fill="#BFF5B1"/>
<path d="M302.611 364.954C302.92 365.119 303.229 365.284 303.548 365.454C305.266 366.345 307.001 367.077 308.814 367.751C309.619 368.106 309.619 368.106 310.412 368.899C309.06 368.666 307.905 368.324 306.658 367.756C306.333 367.612 306.009 367.468 305.674 367.32C304.999 367.017 304.325 366.712 303.652 366.404C303.327 366.261 303.003 366.118 302.668 365.971C302.376 365.839 302.083 365.707 301.782 365.57C300.148 365.128 298.982 365.696 297.477 366.371C296.139 366.916 296.139 366.916 294.949 366.52C297.594 364.836 299.597 363.591 302.611 364.954Z" fill="#C0F5AF"/>
<path d="M245.785 346.695C246.888 346.589 246.888 346.589 248.164 346.695C248.92 347.409 248.92 347.409 249.552 348.405C249.898 348.946 249.898 348.946 250.25 349.497C253.422 354.85 253.422 354.85 254.111 357.4C253.517 356.855 253.517 356.855 252.922 356.211C252.922 355.949 252.922 355.688 252.922 355.418C252.66 355.418 252.399 355.418 252.129 355.418C251.675 354.818 251.675 354.818 251.184 353.985C250.92 353.537 250.92 353.537 250.65 353.08C250.467 352.764 250.285 352.448 250.097 352.122C249.911 351.811 249.726 351.499 249.535 351.178C248.164 348.831 248.164 348.831 248.164 347.488C246.987 347.292 246.987 347.292 245.785 347.092C245.785 346.961 245.785 346.83 245.785 346.695Z" fill="#BFF5B1"/>
<path d="M210.102 255.107C210.102 256.666 209.549 257.155 208.516 258.279C208.254 258.279 207.992 258.279 207.723 258.279C207.64 258.488 207.557 258.696 207.472 258.911C206.701 260.267 205.668 261.314 204.6 262.442C204.39 262.668 204.18 262.893 203.964 263.125C202.859 264.307 201.738 265.47 200.586 266.605C201.114 264.73 202.248 263.554 203.536 262.153C204.182 261.48 204.182 261.48 204.551 260.658C204.812 260.658 205.074 260.658 205.344 260.658C205.344 260.397 205.344 260.135 205.344 259.865C205.605 259.865 205.867 259.865 206.137 259.865C206.243 259.634 206.349 259.402 206.459 259.164C206.935 258.27 207.457 257.58 208.119 256.817C208.324 256.579 208.528 256.34 208.739 256.094C209.309 255.504 209.309 255.504 210.102 255.107Z" fill="#BFF5B4"/>
</g>
<defs>
<clipPath id="clip0_328_214">
<rect width="203" height="203" fill="white" transform="translate(199 177)"/>
</clipPath>
</defs>
</svg>
