<svg width="390" height="337" viewBox="0 0 390 337" fill="none" xmlns="http://www.w3.org/2000/svg">
<rect width="390" height="337" rx="20" fill="#2B456F"/>
<path d="M90.3985 54.0762C169.598 54.0762 248.798 54.0762 330.398 54.0762C330.398 56.0562 330.398 58.0362 330.398 60.0762C329.408 60.4062 328.418 60.7362 327.398 61.0762C326.89 62.9405 326.398 64.811 325.996 66.7012C325.35 69.2693 324.431 71.5762 323.398 74.0137C321.471 78.6519 320.352 83.1493 319.398 88.0762C318.738 88.0762 318.078 88.0762 317.398 88.0762C317.3 88.7658 317.203 89.4555 317.102 90.166C315.863 97.949 313.785 104.497 309.398 111.076C308.947 113.125 308.947 113.125 308.773 115.264C308.588 117.151 308.588 117.151 308.398 119.076C307.738 119.076 307.078 119.076 306.398 119.076C304.324 126.338 304.749 132.479 308.398 139.076C308.75 140.505 309.059 141.944 309.336 143.389C310.506 149.173 312.683 154.495 315.953 159.416C317.684 162.601 318.115 165.304 318.586 168.889C318.745 170.05 318.903 171.212 319.066 172.408C319.176 173.289 319.286 174.169 319.398 175.076C320.058 175.076 320.718 175.076 321.398 175.076C321.671 176.128 321.671 176.128 321.949 177.201C323.152 181.741 324.371 186.2 326.086 190.576C327.398 194.076 327.398 194.076 327.398 197.076C328.058 197.076 328.718 197.076 329.398 197.076C329.441 198.742 329.439 200.41 329.398 202.076C327.486 203.988 324.647 203.205 322.102 203.215C320.731 203.212 320.731 203.212 319.332 203.21C317.887 203.213 317.887 203.213 316.414 203.217C313.16 203.223 309.906 203.222 306.653 203.221C304.331 203.224 302.009 203.228 299.687 203.232C293.36 203.24 287.034 203.243 280.708 203.243C275.436 203.244 270.165 203.248 264.894 203.252C253.174 203.259 241.455 203.262 229.736 203.262C229.032 203.262 228.328 203.262 227.603 203.261C226.898 203.261 226.193 203.261 225.467 203.261C214.042 203.261 202.617 203.271 191.193 203.285C179.474 203.299 167.756 203.306 156.038 203.305C149.454 203.305 142.87 203.308 136.286 203.318C130.096 203.328 123.907 203.328 117.717 203.321C115.439 203.32 113.162 203.322 110.884 203.328C107.786 203.336 104.689 203.331 101.592 203.323C100.68 203.329 99.7682 203.334 98.8288 203.339C92.6267 203.304 92.6267 203.304 90.3985 201.076C90.1555 199.213 90.1555 199.213 90.168 196.979C90.1699 196.177 90.1719 195.376 90.1739 194.551C90.1922 193.295 90.1922 193.295 90.211 192.014C90.2116 191.173 90.2122 190.331 90.2129 189.465C90.2582 183.216 90.2582 183.216 91.3985 182.076C104.928 182.076 118.458 182.076 132.398 182.076C132.398 147.096 132.398 112.116 132.398 76.0762C118.868 76.0762 105.338 76.0762 91.3985 76.0762C91.0685 75.7462 90.7385 75.4162 90.3985 75.0762C90.3985 68.1462 90.3985 61.2162 90.3985 54.0762Z" fill="#F58222"/>
<path d="M101.398 203.076C108.328 203.076 115.258 203.076 122.398 203.076C122.398 239.706 122.398 276.336 122.398 314.076C115.798 314.076 109.198 314.076 102.398 314.076C102.068 277.446 101.738 240.816 101.398 203.076Z" fill="#414859"/>
<path d="M90.3985 54.0762C169.598 54.0762 248.798 54.0762 330.398 54.0762C330.398 56.0562 330.398 58.0362 330.398 60.0762C329.408 60.4062 328.418 60.7362 327.398 61.0762C326.89 62.9405 326.398 64.811 325.996 66.7012C325.35 69.2693 324.431 71.5762 323.398 74.0137C321.471 78.6519 320.352 83.1493 319.398 88.0762C318.738 88.0762 318.078 88.0762 317.398 88.0762C317.068 90.3862 316.738 92.6962 316.398 95.0762C316.068 95.0762 315.738 95.0762 315.398 95.0762C315.513 93.138 315.64 91.2006 315.773 89.2637C315.843 88.1847 315.913 87.1058 315.984 85.9941C316.398 83.0762 316.398 83.0762 318.398 80.0762C318.764 78.6302 319.073 77.1692 319.336 75.7012C320.123 71.9013 321.31 69.3693 323.398 66.0762C324.718 62.7762 326.038 59.4762 327.398 56.0762C280.868 56.0762 234.338 56.0762 186.398 56.0762C186.068 57.0662 185.738 58.0562 185.398 59.0762C184.72 58.9132 184.041 58.7502 183.341 58.5823C179.945 57.9982 176.763 57.9641 173.317 57.9785C172.277 57.9807 172.277 57.9807 171.216 57.9829C169.717 57.9867 168.218 57.9928 166.719 58.001C164.344 58.0138 161.968 58.0203 159.593 58.0251C153.694 58.0385 147.795 58.0627 141.895 58.0865C136.907 58.1063 131.919 58.1219 126.93 58.1321C124.596 58.1386 122.262 58.1511 119.928 58.1638C118.488 58.1675 117.049 58.1708 115.61 58.1738C114.359 58.1791 113.108 58.1843 111.82 58.1897C108.582 58.0823 105.578 57.6661 102.398 57.0762C100.941 57.0153 99.4817 56.9885 98.0235 57.0137C96.2291 57.0446 96.2291 57.0446 94.3985 57.0762C94.0685 62.0262 93.7385 66.9762 93.3985 72.0762C95.147 72.0526 95.147 72.0526 96.9309 72.0286C101.253 71.9743 105.574 71.9398 109.896 71.9114C111.767 71.8963 113.639 71.8758 115.51 71.8499C118.198 71.8135 120.886 71.7965 123.574 71.7832C124.831 71.76 124.831 71.76 126.112 71.7363C131.814 71.7346 131.814 71.7346 134.121 73.0834C136.161 76.266 135.797 79.6411 135.755 83.301C135.758 84.5604 135.758 84.5604 135.761 85.8452C135.764 88.6321 135.746 91.4183 135.727 94.2051C135.724 96.1531 135.722 98.1011 135.721 100.049C135.716 104.146 135.702 108.242 135.68 112.339C135.652 117.539 135.641 122.74 135.636 127.941C135.631 132.946 135.616 137.95 135.602 142.955C135.6 143.888 135.598 144.821 135.596 145.782C135.571 155.31 135.445 164.817 134.948 174.334C134.91 175.103 134.871 175.872 134.832 176.664C134.522 181.952 134.522 181.952 133.398 183.076C130.369 183.165 127.362 183.191 124.332 183.174C123.423 183.172 122.515 183.171 121.579 183.17C118.664 183.164 115.75 183.151 112.836 183.139C110.865 183.134 108.895 183.129 106.924 183.125C102.082 183.115 97.2403 183.095 92.3985 183.076C92.3985 189.016 92.3985 194.956 92.3985 201.076C169.948 201.076 247.498 201.076 327.398 201.076C325.418 194.641 325.418 194.641 323.398 188.076C323.068 186.426 322.738 184.776 322.398 183.076C324.969 186.091 325.921 188.436 326.586 192.326C326.745 193.218 326.903 194.11 327.066 195.029C327.176 195.705 327.286 196.38 327.398 197.076C328.058 197.076 328.718 197.076 329.398 197.076C329.441 198.742 329.439 200.41 329.398 202.076C327.486 203.988 324.647 203.205 322.102 203.215C320.731 203.212 320.731 203.212 319.332 203.21C317.887 203.213 317.887 203.213 316.414 203.217C313.16 203.223 309.906 203.222 306.653 203.221C304.331 203.224 302.009 203.228 299.687 203.232C293.36 203.24 287.034 203.243 280.708 203.243C275.436 203.244 270.165 203.248 264.894 203.252C253.174 203.259 241.455 203.262 229.736 203.262C229.032 203.262 228.328 203.262 227.603 203.261C226.898 203.261 226.193 203.261 225.467 203.261C214.042 203.261 202.617 203.271 191.193 203.285C179.474 203.299 167.756 203.306 156.038 203.305C149.454 203.305 142.87 203.308 136.286 203.318C130.096 203.328 123.907 203.328 117.717 203.321C115.439 203.32 113.162 203.322 110.884 203.328C107.786 203.336 104.689 203.331 101.592 203.323C100.68 203.329 99.7682 203.334 98.8288 203.339C92.6267 203.304 92.6267 203.304 90.3985 201.076C90.1555 199.213 90.1555 199.213 90.168 196.979C90.1699 196.177 90.1719 195.376 90.1739 194.551C90.1922 193.295 90.1922 193.295 90.211 192.014C90.2116 191.173 90.2122 190.331 90.2129 189.465C90.2582 183.216 90.2582 183.216 91.3985 182.076C104.928 182.076 118.458 182.076 132.398 182.076C132.398 147.096 132.398 112.116 132.398 76.0762C118.868 76.0762 105.338 76.0762 91.3985 76.0762C91.0685 75.7462 90.7385 75.4162 90.3985 75.0762C90.3985 68.1462 90.3985 61.2162 90.3985 54.0762Z" fill="#D79955"/>
<path d="M101.398 75.0762C108.328 75.0762 115.258 75.0762 122.398 75.0762C122.068 106.426 121.738 137.776 121.398 170.076C115.128 170.076 108.858 170.076 102.398 170.076C102.376 161.321 102.357 152.567 102.347 143.812C102.341 139.745 102.334 135.679 102.323 131.612C102.312 127.677 102.306 123.741 102.304 119.805C102.302 118.315 102.298 116.825 102.293 115.335C102.259 105.865 102.58 96.5124 103.398 87.0762C102.738 86.7462 102.078 86.4162 101.398 86.0762C101.398 82.4462 101.398 78.8162 101.398 75.0762Z" fill="#4E5566"/>
<path d="M89.3984 51.0765C119.778 51.0309 150.157 50.9955 180.536 50.9744C184.121 50.9719 187.706 50.9693 191.291 50.9667C192.004 50.9661 192.718 50.9656 193.453 50.9651C205.016 50.9564 216.579 50.9406 228.141 50.9222C240.002 50.9035 251.863 50.8924 263.723 50.8883C270.387 50.8858 277.05 50.8796 283.714 50.8651C289.981 50.8515 296.249 50.8473 302.516 50.8503C304.82 50.8498 307.125 50.8458 309.429 50.8381C312.567 50.8282 315.706 50.8305 318.844 50.836C319.762 50.8302 320.681 50.8244 321.627 50.8184C322.467 50.8223 323.308 50.8263 324.174 50.8304C324.898 50.8297 325.623 50.8289 326.369 50.8281C328.72 51.1159 330.351 51.9151 332.398 53.0765C332.648 58.7015 332.648 58.7015 330.398 62.0765C330.068 63.0665 329.738 64.0565 329.398 65.0765C328.398 68.0765 328.398 68.0765 326.398 71.0765C326.005 73.4004 325.664 75.7345 325.398 78.0765C324.408 78.4065 323.418 78.7365 322.398 79.0765C321.19 81.0767 321.19 81.0767 320.398 83.0765C321.047 77.9907 322.529 73.5254 324.336 68.764C324.601 68.0363 324.866 67.3087 325.139 66.5589C327.151 61.2001 327.151 61.2001 329.398 60.0765C329.728 58.0965 330.058 56.1165 330.398 54.0765C251.198 54.0765 171.998 54.0765 90.3984 54.0765C90.7284 61.0065 91.0584 67.9365 91.3984 75.0765C94.6984 75.4065 97.9984 75.7365 101.398 76.0765C101.398 79.3765 101.398 82.6765 101.398 86.0765C102.388 86.4065 103.378 86.7365 104.398 87.0765C104.326 87.9302 104.254 88.7839 104.18 89.6634C103.426 99.5244 103.308 109.308 103.38 119.194C103.498 136.186 103.23 153.102 102.398 170.077C108.668 170.077 114.938 170.077 121.398 170.077C121.393 167.584 121.388 165.092 121.383 162.524C121.366 154.262 121.355 146 121.347 137.738C121.341 132.732 121.334 127.726 121.323 122.72C121.312 117.883 121.306 113.046 121.304 108.209C121.302 106.369 121.298 104.53 121.293 102.69C121.242 84.9481 121.242 84.9481 122.398 76.0765C125.698 76.0765 128.998 76.0765 132.398 76.0765C132.398 111.057 132.398 146.037 132.398 182.077C118.868 182.407 105.338 182.737 91.3984 183.077C91.3984 189.017 91.3984 194.957 91.3984 201.077C92.9812 202.659 94.7788 202.424 96.9609 202.639C97.7872 202.723 98.6135 202.807 99.4648 202.893C100.103 202.954 100.741 203.014 101.398 203.077C101.398 203.407 101.398 203.737 101.398 204.077C99.6297 204.212 97.858 204.309 96.0859 204.389C94.6067 204.476 94.6067 204.476 93.0977 204.565C90.3984 204.077 90.3984 204.077 88.5664 202.026C87.1235 198.382 87 195.491 87.0234 191.577C87.0157 190.287 87.008 188.998 87 187.67C87.4393 183.708 87.753 182.046 90.3984 179.077C93.4816 178.358 96.5097 178.496 99.6602 178.588C101.019 178.599 101.019 178.599 102.405 178.61C105.299 178.638 108.192 178.7 111.086 178.764C113.047 178.789 115.009 178.812 116.971 178.832C121.781 178.888 126.589 178.974 131.398 179.077C131.328 177.863 131.257 176.649 131.184 175.398C130.513 163.343 130.238 151.336 130.273 139.264C130.275 137.942 130.275 137.942 130.276 136.592C130.299 117.079 130.784 97.5796 131.398 78.0765C129.418 78.7365 127.438 79.3965 125.398 80.0765C124.336 84.4016 124.257 88.6061 124.269 93.0321C124.267 93.818 124.266 94.604 124.264 95.4138C124.259 98.0019 124.262 100.59 124.266 103.178C124.265 104.98 124.264 106.781 124.263 108.583C124.261 112.354 124.263 116.125 124.268 119.896C124.274 124.733 124.27 129.569 124.264 134.406C124.261 138.124 124.262 141.842 124.265 145.56C124.265 147.344 124.264 149.127 124.262 150.911C124.26 153.401 124.263 155.89 124.269 158.38C124.267 159.119 124.265 159.857 124.263 160.618C124.276 163.714 124.411 166.115 125.398 169.077C122.361 172.114 120.099 172.05 115.832 172.209C114.513 172.207 113.195 172.204 111.836 172.202C111.164 172.205 110.491 172.209 109.799 172.213C106.723 172.207 104.338 172.056 101.398 171.077C99.136 166.216 99.1238 161.65 99.1714 156.409C99.1711 155.56 99.1708 154.71 99.1705 153.835C99.1719 151.043 99.1874 148.251 99.2031 145.459C99.2069 143.517 99.2097 141.575 99.2117 139.633C99.2193 134.534 99.239 129.434 99.2611 124.335C99.2816 119.126 99.2907 113.918 99.3008 108.709C99.3222 98.4983 99.3563 88.2874 99.3984 78.0765C98.1184 78.0984 96.8384 78.1204 95.5195 78.1429C91.6406 78.2093 91.6406 78.2093 89.4609 77.014C86.3872 71.409 86.878 63.2772 87.3984 57.0765C88.0407 55.0685 88.7047 53.0673 89.3984 51.0765Z" fill="#506692"/>
<path d="M122.398 75.0762C124.211 75.0493 126.023 75.0298 127.836 75.0137C128.845 75.0021 129.855 74.9905 130.895 74.9785C133.398 75.0762 133.398 75.0762 134.398 76.0762C134.496 77.4526 134.525 78.834 134.525 80.2139C134.528 81.1057 134.531 81.9975 134.534 82.9164C134.532 83.9024 134.53 84.8884 134.528 85.9043C134.53 86.9367 134.531 87.9691 134.533 89.0328C134.538 92.464 134.535 95.895 134.531 99.3262C134.532 101.699 134.533 104.072 134.534 106.444C134.536 111.424 134.533 116.405 134.529 121.385C134.523 127.784 134.526 134.184 134.532 140.584C134.536 145.486 134.535 150.387 134.532 155.289C134.532 157.649 134.532 160.01 134.535 162.37C134.537 165.663 134.533 168.955 134.528 172.248C134.53 173.234 134.532 174.22 134.534 175.236C134.531 176.128 134.528 177.02 134.525 177.938C134.525 178.718 134.525 179.497 134.524 180.3C134.398 182.076 134.398 182.076 133.398 183.076C130.369 183.165 127.362 183.191 124.332 183.174C123.423 183.172 122.515 183.171 121.579 183.17C118.664 183.164 115.75 183.151 112.836 183.139C110.865 183.134 108.895 183.129 106.924 183.125C102.082 183.115 97.2403 183.095 92.3985 183.076C92.3985 189.016 92.3985 194.956 92.3985 201.076C169.948 201.076 247.498 201.076 327.398 201.076C326.078 196.786 324.758 192.496 323.398 188.076C323.068 186.426 322.738 184.776 322.398 183.076C324.969 186.091 325.921 188.436 326.586 192.326C326.745 193.218 326.903 194.11 327.066 195.029C327.176 195.705 327.286 196.38 327.398 197.076C328.058 197.076 328.718 197.076 329.398 197.076C329.441 198.742 329.439 200.41 329.398 202.076C327.486 203.988 324.647 203.205 322.102 203.215C320.731 203.212 320.731 203.212 319.332 203.21C317.887 203.213 317.887 203.213 316.414 203.217C313.16 203.223 309.906 203.222 306.653 203.221C304.331 203.224 302.009 203.228 299.687 203.232C293.36 203.24 287.034 203.243 280.708 203.243C275.436 203.244 270.165 203.248 264.894 203.252C253.174 203.259 241.455 203.262 229.736 203.262C229.032 203.262 228.328 203.262 227.603 203.261C226.898 203.261 226.193 203.261 225.467 203.261C214.042 203.261 202.617 203.271 191.193 203.285C179.474 203.299 167.756 203.306 156.038 203.305C149.454 203.305 142.87 203.308 136.286 203.318C130.096 203.328 123.907 203.328 117.717 203.321C115.439 203.32 113.162 203.322 110.884 203.328C107.786 203.336 104.689 203.331 101.592 203.323C100.68 203.329 99.7682 203.334 98.8288 203.339C92.6267 203.304 92.6267 203.304 90.3985 201.076C90.1555 199.213 90.1555 199.213 90.168 196.979C90.1699 196.177 90.1719 195.376 90.1739 194.551C90.1922 193.295 90.1922 193.295 90.211 192.014C90.2116 191.173 90.2122 190.331 90.2129 189.465C90.2582 183.216 90.2582 183.216 91.3985 182.076C104.928 182.076 118.458 182.076 132.398 182.076C132.398 147.096 132.398 112.116 132.398 76.0762C129.098 76.0762 125.798 76.0762 122.398 76.0762C122.398 75.7462 122.398 75.4162 122.398 75.0762Z" fill="#C2765C"/>
<path d="M179.6 50.9081C182.71 50.9073 185.821 50.9052 188.931 50.9026C199.822 50.8934 210.714 50.8892 221.605 50.89C231.712 50.8906 241.818 50.8799 251.925 50.8643C260.683 50.8512 269.44 50.8458 278.198 50.8465C283.396 50.8467 288.595 50.8439 293.793 50.8333C298.642 50.8237 303.491 50.8235 308.34 50.8308C310.117 50.8319 311.894 50.8295 313.671 50.8235C316.091 50.8158 318.511 50.8204 320.931 50.8281C321.636 50.8229 322.341 50.8178 323.067 50.8125C326.68 50.8381 329.323 51.1006 332.398 53.0753C332.648 58.7003 332.648 58.7003 330.398 62.0753C330.068 63.0653 329.738 64.0553 329.398 65.0753C328.398 68.0753 328.398 68.0753 326.398 71.0753C326.005 73.3992 325.664 75.7333 325.398 78.0753C324.408 78.4053 323.418 78.7353 322.398 79.0753C321.19 81.0755 321.19 81.0755 320.398 83.0753C321.047 77.9894 322.529 73.5242 324.336 68.7628C324.601 68.0351 324.866 67.3075 325.139 66.5577C327.151 61.1989 327.151 61.1989 329.398 60.0753C329.728 58.0953 330.058 56.1153 330.398 54.0753C251.198 54.0753 171.998 54.0753 90.3984 54.0753C90.7284 53.4153 91.0584 52.7553 91.3984 52.0753C120.802 51.3038 150.186 50.9119 179.6 50.9081Z" fill="#626987"/>
<path d="M113.086 22.8885C114.298 22.9291 114.298 22.9291 115.535 22.9706C116.15 23.0054 116.765 23.0402 117.398 23.076C117.398 24.066 117.398 25.056 117.398 26.076C118.718 26.406 120.038 26.736 121.398 27.076C121.398 32.356 121.398 37.636 121.398 43.076C117.5 43.107 117.5 43.107 113.523 43.1385C112.706 43.1476 111.889 43.1567 111.047 43.1661C105.621 43.1871 105.621 43.1871 103.398 42.076C102.214 37.3488 101.98 33.2269 103.648 28.6385C106.51 24.4478 107.824 22.6598 113.086 22.8885Z" fill="#61697B"/>
<path d="M122.398 76.0762C125.698 76.0762 128.998 76.0762 132.398 76.0762C132.398 111.056 132.398 146.036 132.398 182.076C118.868 182.406 105.338 182.736 91.3984 183.076C91.3984 189.016 91.3984 194.956 91.3984 201.076C92.9812 202.659 94.7788 202.424 96.9609 202.639C98.2004 202.764 98.2004 202.764 99.4648 202.893C100.103 202.953 100.741 203.014 101.398 203.076C101.398 203.406 101.398 203.736 101.398 204.076C99.6297 204.211 97.858 204.308 96.0859 204.389C94.6067 204.476 94.6067 204.476 93.0977 204.564C90.3984 204.076 90.3984 204.076 88.5664 202.025C87.1235 198.382 87 195.491 87.0234 191.576C87.0157 190.287 87.008 188.998 87 187.67C87.4393 183.708 87.753 182.046 90.3984 179.076C93.4816 178.358 96.5097 178.496 99.6602 178.588C101.019 178.599 101.019 178.599 102.405 178.609C105.299 178.637 108.192 178.7 111.086 178.764C113.047 178.789 115.009 178.812 116.971 178.832C121.781 178.887 126.589 178.973 131.398 179.076C131.328 177.862 131.257 176.647 131.184 175.396C130.514 163.362 130.238 151.377 130.273 139.326C130.275 138.006 130.275 138.006 130.276 136.659C130.299 116.79 130.792 96.935 131.398 77.0762C128.428 77.0762 125.458 77.0762 122.398 77.0762C122.398 76.7462 122.398 76.4162 122.398 76.0762Z" fill="#5E6B9E"/>
<path d="M318.398 167.076C318.728 167.076 319.058 167.076 319.398 167.076C319.398 168.726 319.398 170.376 319.398 172.076C320.015 172.303 320.631 172.53 321.266 172.764C325.403 175.31 326.109 180.616 327.398 185.076C328.009 187.77 328.544 190.454 329.004 193.178C329.218 195.078 329.218 195.078 330.398 196.076C330.523 199.576 330.523 199.576 330.398 203.076C328.617 204.858 326.224 204.199 323.852 204.205C323.049 204.202 322.246 204.199 321.42 204.196C320.574 204.197 319.727 204.198 318.856 204.199C315.998 204.201 313.141 204.195 310.283 204.19C308.243 204.189 306.204 204.19 304.164 204.19C298.609 204.19 293.053 204.185 287.498 204.178C281.699 204.171 275.9 204.171 270.101 204.17C259.111 204.166 248.122 204.158 237.132 204.148C224.625 204.137 212.117 204.132 199.609 204.126C173.872 204.116 148.135 204.098 122.398 204.076C122.398 203.746 122.398 203.416 122.398 203.076C224.368 202.581 224.368 202.581 328.398 202.076C328.728 200.426 329.058 198.776 329.398 197.076C328.738 197.076 328.078 197.076 327.398 197.076C327.205 196.401 327.012 195.725 326.812 195.029C326.552 194.137 326.292 193.245 326.023 192.326C325.768 191.444 325.513 190.563 325.25 189.654C324.484 187.111 324.484 187.111 323.336 185.014C321.789 181.816 321.75 178.59 321.398 175.076C320.738 175.076 320.078 175.076 319.398 175.076C318.044 172.367 318.333 170.067 318.398 167.076Z" fill="#736887"/>
<path d="M89.3985 51.0762C104.579 51.0762 119.759 51.0762 135.399 51.0762C135.399 51.4062 135.399 51.7362 135.399 52.0762C120.879 52.4062 106.359 52.7362 91.3985 53.0762C91.3985 60.3362 91.3985 67.5962 91.3985 75.0762C94.6985 75.4062 97.9985 75.7362 101.399 76.0762C101.399 106.766 101.399 137.456 101.399 169.076C99.1879 164.655 99.1283 161.427 99.1715 156.636C99.1712 155.787 99.1709 154.937 99.1706 154.063C99.172 151.26 99.1875 148.457 99.2032 145.654C99.2069 143.709 99.2098 141.765 99.2118 139.82C99.2194 134.704 99.2391 129.588 99.2612 124.472C99.2817 119.25 99.2908 114.028 99.3009 108.807C99.3223 98.5631 99.3564 88.3196 99.3985 78.0762C98.1185 78.0981 96.8384 78.12 95.5196 78.1426C91.6407 78.209 91.6407 78.209 89.461 77.0137C86.3873 71.4087 86.8781 63.2768 87.3985 57.0762C88.0585 55.0962 88.7185 53.1162 89.3985 51.0762Z" fill="#526DA6"/>
<path d="M322.398 183.076C324.969 186.091 325.921 188.436 326.586 192.326C326.744 193.218 326.903 194.11 327.066 195.029C327.176 195.705 327.286 196.38 327.398 197.076C328.058 197.076 328.718 197.076 329.398 197.076C329.441 198.742 329.439 200.41 329.398 202.076C327.622 203.853 325.244 203.199 322.878 203.205C322.079 203.202 321.28 203.199 320.458 203.196C319.195 203.198 319.195 203.198 317.906 203.199C315.062 203.201 312.218 203.195 309.375 203.19C307.345 203.189 305.315 203.19 303.286 203.19C297.757 203.19 292.228 203.185 286.7 203.178C280.929 203.171 275.158 203.171 269.387 203.17C258.45 203.166 247.514 203.158 236.578 203.148C224.13 203.137 211.683 203.132 199.236 203.126C173.624 203.116 148.011 203.098 122.398 203.076C122.398 202.746 122.398 202.416 122.398 202.076C190.048 202.076 257.698 202.076 327.398 202.076C325.418 195.146 325.418 195.146 323.398 188.076C323.068 186.426 322.738 184.776 322.398 183.076Z" fill="#AE756B"/>
<path d="M187.398 55.0762C234.258 55.0762 281.118 55.0762 329.398 55.0762C326.059 68.4347 326.059 68.4347 323.836 73.2637C321.683 78.1847 320.366 82.7988 319.398 88.0762C318.738 88.0762 318.078 88.0762 317.398 88.0762C317.068 90.3862 316.738 92.6962 316.398 95.0762C316.068 95.0762 315.738 95.0762 315.398 95.0762C315.513 93.138 315.64 91.2006 315.773 89.2637C315.843 88.1847 315.913 87.1058 315.984 85.9941C316.398 83.0762 316.398 83.0762 318.398 80.0762C318.764 78.6302 319.073 77.1692 319.336 75.7012C320.123 71.9013 321.31 69.3693 323.398 66.0762C324.718 62.7762 326.038 59.4762 327.398 56.0762C281.198 56.0762 234.998 56.0762 187.398 56.0762C187.398 55.7462 187.398 55.4162 187.398 55.0762Z" fill="#E19A53"/>
<path d="M120.398 259.076C122.261 262.248 122.644 264.553 122.625 268.212C122.625 269.233 122.625 270.253 122.625 271.305C122.615 272.4 122.604 273.495 122.594 274.623C122.591 275.749 122.588 276.876 122.585 278.036C122.574 281.633 122.549 285.229 122.523 288.826C122.513 291.265 122.504 293.704 122.496 296.143C122.474 302.121 122.44 308.098 122.398 314.076C115.798 314.076 109.198 314.076 102.398 314.076C102.398 313.746 102.398 313.416 102.398 313.076C107.348 313.076 112.298 313.076 117.398 313.076C118.21 309.83 118.514 307.71 118.48 304.463C118.474 303.555 118.467 302.647 118.46 301.712C118.449 300.739 118.438 299.766 118.426 298.764C118.413 296.699 118.401 294.633 118.389 292.568C118.364 289.316 118.336 286.064 118.302 282.812C118.272 279.671 118.255 276.53 118.238 273.389C118.218 271.929 118.218 271.929 118.197 270.44C118.194 269.532 118.191 268.625 118.187 267.689C118.18 266.893 118.172 266.097 118.165 265.277C118.425 262.822 119.173 261.201 120.398 259.076Z" fill="#2C3653"/>
<path d="M101.398 203.076C107.998 203.076 114.598 203.076 121.398 203.076C121.398 206.376 121.398 209.676 121.398 213.076C115.128 213.076 108.858 213.076 102.398 213.076C102.068 209.776 101.738 206.476 101.398 203.076Z" fill="#201C26"/>
<path d="M101.398 76.0762C107.998 76.0762 114.598 76.0762 121.398 76.0762C121.398 79.0462 121.398 82.0162 121.398 85.0762C115.128 85.0762 108.858 85.0762 102.398 85.0762C102.068 82.1062 101.738 79.1362 101.398 76.0762Z" fill="#1A1D26"/>
<path d="M123.398 25.0768C123.866 27.9616 124.139 30.6134 124.273 33.5143C124.333 34.291 124.392 35.0676 124.453 35.8678C124.768 41.5759 124.768 41.5759 123.124 43.8048C120.185 45.971 116.711 45.3835 113.211 45.2643C112.461 45.2508 111.712 45.2372 110.939 45.2233C109.092 45.188 107.245 45.1342 105.398 45.0768C105.398 44.4168 105.398 43.7568 105.398 43.0768C110.678 43.0768 115.958 43.0768 121.398 43.0768C121.398 37.7968 121.398 32.5168 121.398 27.0768C120.078 26.7468 118.758 26.4168 117.398 26.0768C117.398 25.0868 117.398 24.0968 117.398 23.0768C115.96 23.1643 114.522 23.2725 113.086 23.3893C112.285 23.4473 111.485 23.5053 110.66 23.5651C107.994 24.1684 107.093 24.9739 105.398 27.0768C102.875 31.5931 103.202 36.0563 103.398 41.0768C102.408 41.0768 101.418 41.0768 100.398 41.0768C100.176 38.8282 99.971 36.5778 99.7735 34.3268C99.6574 33.0738 99.5414 31.8209 99.4219 30.5299C99.3995 27.2314 99.5121 25.7202 101.398 23.0768C108.553 19.4994 116.964 20.7874 123.398 25.0768Z" fill="#536B9E"/>
<path d="M101.398 75.0762C108.328 75.0762 115.258 75.0762 122.398 75.0762C122.068 106.426 121.738 137.776 121.398 170.076C118.758 170.076 116.118 170.076 113.398 170.076C115.398 169.076 117.398 168.076 119.398 167.076C119.728 140.346 120.058 113.616 120.398 86.0762C114.128 86.0762 107.858 86.0762 101.398 86.0762C101.398 83.1062 101.398 80.1362 101.398 77.0762C101.728 77.0762 102.058 77.0762 102.398 77.0762C102.398 79.7162 102.398 82.3562 102.398 85.0762C108.668 85.0762 114.938 85.0762 121.398 85.0762C121.398 82.1062 121.398 79.1362 121.398 76.0762C114.798 76.0762 108.198 76.0762 101.398 76.0762C101.398 75.7462 101.398 75.4162 101.398 75.0762Z" fill="#3C4050"/>
<path d="M303.398 123.076C303.728 123.076 304.058 123.076 304.398 123.076C304.436 123.728 304.473 124.381 304.512 125.053C304.922 130.507 305.808 134.206 308.398 139.076C308.748 140.505 309.057 141.944 309.336 143.389C310.506 149.173 312.683 154.495 315.953 159.416C317.684 162.601 318.115 165.304 318.586 168.889C318.745 170.05 318.903 171.212 319.066 172.408C319.176 173.289 319.286 174.169 319.398 175.076C320.058 175.076 320.718 175.076 321.398 175.076C321.728 177.056 322.058 179.036 322.398 181.076C322.068 180.416 321.738 179.756 321.398 179.076C319.913 178.581 319.913 178.581 318.398 178.076C317.555 175.643 317.555 175.643 316.898 172.639C316.02 168 316.02 168 312.398 165.076C311.52 162.939 311.52 162.939 310.836 160.389C310.591 159.494 310.346 158.599 310.094 157.678C309.864 156.819 309.635 155.961 309.398 155.076C309.007 153.818 308.615 152.56 308.211 151.264C307.472 148.365 307.219 146.045 307.398 143.076C306.738 143.076 306.078 143.076 305.398 143.076C302.456 136.333 301.012 130.236 303.398 123.076Z" fill="#D99251"/>
<path d="M317.398 88.0762C319.068 93.6677 318.275 99.0053 316.023 104.326C314.398 107.076 314.398 107.076 312.836 109.264C310.998 112.86 310.571 116.306 309.938 120.271C309.2 124.108 307.894 127.474 306.398 131.076C307.058 131.076 307.718 131.076 308.398 131.076C308.563 132.128 308.563 132.128 308.73 133.201C309.497 137.787 310.276 142.129 312.023 146.451C313.256 149.7 313.718 151.671 313.398 155.076C312.732 153.743 312.065 152.41 311.398 151.076C310.903 150.169 310.408 149.261 309.898 148.326C308.707 145.745 307.978 143.672 307.336 140.951C306.628 137.305 306.628 137.305 305.355 135.146C304.202 132.651 304.132 130.816 304.148 128.076C304.143 127.231 304.138 126.385 304.133 125.514C304.413 122.941 305.104 121.296 306.398 119.076C307.058 119.076 307.718 119.076 308.398 119.076C308.316 117.901 308.233 116.725 308.148 115.514C307.873 111.589 309.342 109.313 311.343 106.01C313.135 102.726 314.107 99.2168 315.148 95.6387C315.369 94.9071 315.589 94.1756 315.816 93.4219C316.351 91.6423 316.876 89.8595 317.398 88.0762Z" fill="#6B6A89"/>
<path d="M332.398 53.0757C332.648 58.7007 332.648 58.7007 330.398 62.0757C330.068 63.0657 329.738 64.0557 329.398 65.0757C328.398 68.0757 328.398 68.0757 326.398 71.0757C326.005 73.3996 325.664 75.7336 325.398 78.0757C324.408 78.4057 323.418 78.7357 322.398 79.0757C321.19 81.0758 321.19 81.0758 320.398 83.0757C321.047 77.9898 322.529 73.5245 324.336 68.7632C324.601 68.0355 324.866 67.3078 325.139 66.5581C327.151 61.1992 327.151 61.1992 329.398 60.0757C329.398 58.0957 329.398 56.1157 329.398 54.0757C311.908 53.7457 294.418 53.4157 276.398 53.0757C276.398 52.7457 276.398 52.4157 276.398 52.0757C283.409 51.8816 290.42 51.7043 297.431 51.5386C299.815 51.4802 302.199 51.4181 304.583 51.352C308.014 51.2577 311.444 51.1771 314.875 51.0991C315.938 51.0669 317 51.0347 318.095 51.0015C323.29 50.8968 327.543 50.9427 332.398 53.0757Z" fill="#546494"/>
<path d="M95.3892 179.85C97.1136 179.85 98.8381 179.861 100.562 179.881C101.923 179.886 101.923 179.886 103.312 179.89C106.216 179.901 109.119 179.926 112.023 179.952C113.99 179.962 115.956 179.971 117.922 179.979C122.748 180.001 127.573 180.036 132.398 180.077C132.398 180.737 132.398 181.397 132.398 182.077C118.868 182.407 105.338 182.737 91.3984 183.077C91.3984 189.017 91.3984 194.957 91.3984 201.077C92.9812 202.659 94.7788 202.424 96.9609 202.639C97.7872 202.723 98.6135 202.807 99.4648 202.893C100.422 202.984 100.422 202.984 101.398 203.077C101.398 203.407 101.398 203.737 101.398 204.077C99.586 204.104 97.7735 204.123 95.9609 204.139C94.9516 204.151 93.9423 204.162 92.9023 204.174C90.3984 204.077 90.3984 204.077 89.3984 203.077C89.1474 199.605 89.2132 196.119 89.2109 192.639C89.1987 191.659 89.1864 190.678 89.1738 189.668C89.1709 188.264 89.1709 188.264 89.168 186.831C89.1639 185.968 89.1598 185.105 89.1555 184.216C89.633 180.011 91.4102 180.076 95.3892 179.85Z" fill="#816985"/>
<path d="M275.398 56.0761C277.613 55.7153 277.613 55.7153 280.399 55.7355C281.96 55.7358 281.96 55.7358 283.553 55.7362C284.68 55.7517 285.807 55.7672 286.969 55.7831C288.696 55.7895 288.696 55.7895 290.458 55.796C294.147 55.8128 297.835 55.8505 301.523 55.8886C304.02 55.9036 306.516 55.9173 309.012 55.9296C315.141 55.9627 321.27 56.013 327.398 56.0761C327.068 57.3961 326.738 58.7161 326.398 60.0761C325.408 59.4161 324.418 58.7561 323.398 58.0761C320.828 57.8922 318.37 57.8199 315.801 57.8456C315.052 57.8461 314.303 57.8465 313.531 57.847C311.944 57.85 310.356 57.8579 308.768 57.8703C306.369 57.8883 303.971 57.8908 301.572 57.8905C294.391 57.9077 287.29 57.9885 280.151 58.8639C278.398 59.0761 278.398 59.0761 276.398 59.0761C275.738 60.3961 275.078 61.7161 274.398 63.0761C273.773 61.2636 273.773 61.2636 273.398 59.0761C274.058 58.0861 274.718 57.0961 275.398 56.0761Z" fill="#F7A03B"/>
<path d="M120.398 266.076C120.728 266.076 121.058 266.076 121.398 266.076C121.398 281.916 121.398 297.756 121.398 314.076C115.128 314.076 108.858 314.076 102.398 314.076C102.398 313.746 102.398 313.416 102.398 313.076C107.348 313.076 112.298 313.076 117.398 313.076C120.005 302.649 119.656 291.532 119.961 280.826C120.004 279.387 120.048 277.949 120.092 276.51C120.197 273.032 120.299 269.554 120.398 266.076Z" fill="#26314C"/>
<path d="M89.3984 54.0762C89.7284 54.0762 90.0584 54.0762 90.3984 54.0762C90.7284 61.0062 91.0584 67.9362 91.3984 75.0762C94.6984 75.4062 97.9984 75.7362 101.398 76.0762C101.398 85.6462 101.398 95.2162 101.398 105.076C101.068 105.076 100.738 105.076 100.398 105.076C100.068 96.1662 99.7384 87.2562 99.3984 78.0762C96.7584 78.0762 94.1184 78.0762 91.3984 78.0762C89.3984 76.0762 89.3984 76.0762 89.1714 73.8296C89.1819 72.9184 89.1923 72.0072 89.2031 71.0684C89.2096 70.0822 89.216 69.0961 89.2227 68.0801C89.2394 67.0475 89.2562 66.015 89.2734 64.9512C89.2825 63.9109 89.2915 62.8706 89.3008 61.7988C89.3244 59.2244 89.3573 56.6504 89.3984 54.0762Z" fill="#5B6B96"/>
<path d="M323.398 66.0762C323.728 66.0762 324.058 66.0762 324.398 66.0762C323.765 71.2014 322.717 76.0415 321.336 81.0137C321.15 81.6975 320.963 82.3814 320.771 83.0859C320.318 84.7504 319.859 86.4134 319.398 88.0762C318.738 88.0762 318.078 88.0762 317.398 88.0762C317.068 90.3862 316.738 92.6962 316.398 95.0762C316.068 95.0762 315.738 95.0762 315.398 95.0762C315.513 93.138 315.64 91.2006 315.773 89.2637C315.843 88.1847 315.913 87.1058 315.984 85.9941C316.398 83.0762 316.398 83.0762 318.398 80.0762C318.764 78.6302 319.073 77.1692 319.336 75.7012C320.099 71.9876 321.105 69.1672 323.398 66.0762Z" fill="#D89252"/>
<path d="M313.398 95.0762C314.058 95.0762 314.718 95.0762 315.398 95.0762C314.497 100.845 312.635 106.222 309.398 111.076C308.947 113.125 308.947 113.125 308.773 115.264C308.65 116.522 308.526 117.78 308.398 119.076C307.738 119.076 307.078 119.076 306.398 119.076C306.068 120.396 305.738 121.716 305.398 123.076C305.068 122.416 304.738 121.756 304.398 121.076C304.849 120.177 304.849 120.177 305.309 119.26C306.56 116.753 306.694 114.922 306.836 112.139C307.172 107.976 308.011 105.557 310.398 102.076C311.105 99.3836 311.105 99.3836 311.398 97.0762C312.058 97.0762 312.718 97.0762 313.398 97.0762C313.398 96.4162 313.398 95.7562 313.398 95.0762Z" fill="#D28446"/>
<path d="M311.398 144.076C313.398 145.076 313.398 145.076 314.328 147.447C314.64 148.459 314.952 149.471 315.273 150.514C316.826 155.416 318.594 160.117 320.664 164.822C321.488 167.351 321.529 169.433 321.398 172.076C320.738 172.076 320.078 172.076 319.398 172.076C319.398 170.426 319.398 168.776 319.398 167.076C318.738 167.076 318.078 167.076 317.398 167.076C317.11 166.169 316.821 165.261 316.523 164.326C315.545 161.243 315.545 161.243 314.398 159.154C313.343 156.96 312.786 154.953 312.273 152.576C312.106 151.823 311.938 151.071 311.766 150.295C311.398 148.076 311.398 148.076 311.398 144.076Z" fill="#57699C"/>
<path d="M327.398 61.0762C328.058 61.0762 328.718 61.0762 329.398 61.0762C329.718 65.7599 329.163 67.4271 326.398 71.0762C325.674 74.7289 325.674 74.7289 325.398 78.0762C324.408 78.4062 323.418 78.7362 322.398 79.0762C321.19 81.0763 321.19 81.0763 320.398 83.0762C321.039 77.9386 322.595 73.4883 324.461 68.7012C324.743 67.9651 325.024 67.2291 325.314 66.4707C326.004 64.6706 326.701 62.8731 327.398 61.0762Z" fill="#786D7C"/>
<path d="M314.398 159.076C316.907 160.98 317.4 162.082 318.129 165.213C318.28 166.385 318.431 167.556 318.586 168.764C318.744 169.943 318.903 171.123 319.066 172.338C319.176 173.242 319.286 174.145 319.398 175.076C320.058 175.076 320.718 175.076 321.398 175.076C321.728 177.056 322.058 179.036 322.398 181.076C322.068 180.416 321.738 179.756 321.398 179.076C320.408 178.746 319.418 178.416 318.398 178.076C316.407 172.939 316.206 168.552 316.398 163.076C315.738 163.076 315.078 163.076 314.398 163.076C314.398 161.756 314.398 160.436 314.398 159.076Z" fill="#B88365"/>
<path d="M90.3984 181.076C91.0584 181.406 91.7184 181.736 92.3984 182.076C92.0684 182.406 91.7384 182.736 91.3984 183.076C91.3001 184.407 91.2677 185.742 91.2656 187.076C91.2643 187.881 91.263 188.685 91.2617 189.514C91.2656 190.359 91.2695 191.205 91.2734 192.076C91.2696 192.922 91.2657 193.767 91.2617 194.639C91.263 195.443 91.2643 196.247 91.2656 197.076C91.2668 197.819 91.2679 198.561 91.269 199.326C91.209 201.104 91.209 201.104 92.3984 202.076C93.9131 202.308 95.436 202.488 96.9609 202.639C97.7872 202.722 98.6135 202.806 99.4648 202.893C100.422 202.983 100.422 202.983 101.398 203.076C101.398 203.406 101.398 203.736 101.398 204.076C99.586 204.103 97.7735 204.123 95.9609 204.139C94.9516 204.15 93.9423 204.162 92.9023 204.174C90.3984 204.076 90.3984 204.076 89.3984 203.076C89.2994 201.527 89.2676 199.973 89.2656 198.42C89.2643 197.48 89.263 196.54 89.2617 195.572C89.2656 194.584 89.2695 193.595 89.2734 192.576C89.2696 191.587 89.2657 190.599 89.2617 189.58C89.263 188.64 89.2643 187.701 89.2656 186.732C89.2668 185.864 89.2679 184.996 89.269 184.102C89.3984 182.076 89.3984 182.076 90.3984 181.076Z" fill="#7E6A8B"/>
<path d="M306.398 135.076C307.388 135.406 308.378 135.736 309.398 136.076C310.312 138.553 310.312 138.553 311.023 141.701C311.27 142.781 311.516 143.862 311.77 144.975C312.452 148.342 313.011 151.664 313.398 155.076C312.732 153.743 312.065 152.41 311.398 151.076C310.903 150.21 310.408 149.344 309.898 148.451C307.963 144.098 307.184 139.755 306.398 135.076Z" fill="#6E6F85"/>
<path d="M103.398 24.0762C104.718 24.4062 106.038 24.7362 107.398 25.0762C106.738 25.7362 106.078 26.3962 105.398 27.0762C102.913 31.6333 103.201 36.0361 103.398 41.0762C102.738 40.7462 102.078 40.4162 101.398 40.0762C101.344 37.9723 101.306 35.868 101.273 33.7637C101.25 32.5919 101.227 31.4202 101.203 30.2129C101.398 27.0762 101.398 27.0762 103.398 24.0762Z" fill="#5F6D90"/>
<path d="M322.398 79.0762C322.728 79.0762 323.058 79.0762 323.398 79.0762C324.069 84.2756 321.808 88.5997 319.398 93.0762C318.738 93.7362 318.078 94.3962 317.398 95.0762C318.373 89.2745 319.411 84.2363 322.398 79.0762Z" fill="#596897"/>
<path d="M327.398 55.0762C328.058 55.0762 328.718 55.0762 329.398 55.0762C328.949 57.0365 328.488 58.9944 328.023 60.9512C327.768 62.0417 327.513 63.1323 327.25 64.2559C326.398 67.0762 326.398 67.0762 324.398 69.0762C324.052 63.4222 324.964 60.0461 327.398 55.0762Z" fill="#D19C64"/>
<path d="M313.398 95.0762C314.058 95.0762 314.718 95.0762 315.398 95.0762C314.678 99.6847 313.085 103.749 311.398 108.076C310.138 105.556 310.48 104.222 310.836 101.451C310.938 100.634 311.04 99.8166 311.144 98.9746C311.228 98.3481 311.312 97.7216 311.398 97.0762C312.058 97.0762 312.718 97.0762 313.398 97.0762C313.398 96.4162 313.398 95.7562 313.398 95.0762Z" fill="#BA8258"/>
<path d="M120.398 27.0762C120.728 27.0762 121.058 27.0762 121.398 27.0762C121.398 32.3562 121.398 37.6362 121.398 43.0762C120.078 43.0762 118.758 43.0762 117.398 43.0762C117.398 42.4162 117.398 41.7562 117.398 41.0762C118.058 40.7462 118.718 40.4162 119.398 40.0762C119.868 37.0304 119.868 37.0304 120.023 33.5137C120.098 32.3161 120.173 31.1186 120.25 29.8848C120.299 28.9579 120.348 28.0311 120.398 27.0762Z" fill="#4E5D7B"/>
<path d="M313.398 107.076C314.398 109.076 314.398 109.076 313.648 112.576C312.398 116.076 312.398 116.076 309.398 118.076C309.681 116.616 309.975 115.158 310.273 113.701C310.436 112.889 310.598 112.077 310.766 111.24C311.398 109.076 311.398 109.076 313.398 107.076Z" fill="#5368A8"/>
<path d="M326.398 51.0762C328.378 51.7362 330.358 52.3962 332.398 53.0762C332.768 58.6146 332.768 58.6146 330.898 60.9512C330.403 61.3224 329.908 61.6937 329.398 62.0762C329.46 60.818 329.522 59.5599 329.586 58.2637C329.635 54.9066 329.635 54.9066 327.898 52.0762C327.403 51.7462 326.908 51.4162 326.398 51.0762Z" fill="#4E689D"/>
<path d="M117.398 41.0757C117.398 41.7357 117.398 42.3957 117.398 43.0757C113.438 43.0757 109.478 43.0757 105.398 43.0757C110.092 39.9464 111.819 40.1457 117.398 41.0757Z" fill="#586B8C"/>
<path d="M327.398 61.0762C328.058 61.0762 328.718 61.0762 329.398 61.0762C329.586 63.9512 329.586 63.9512 329.398 67.0762C327.913 68.0662 327.913 68.0662 326.398 69.0762C326.273 63.3262 326.273 63.3262 327.398 61.0762Z" fill="#646A86"/>
<path d="M186.398 56.0762C189.368 56.0762 192.338 56.0762 195.398 56.0762C195.068 56.7362 194.738 57.3962 194.398 58.0762C193.285 57.9834 193.285 57.9834 192.148 57.8887C188.945 58.1071 187.758 58.9787 185.398 61.0762C185.728 59.4262 186.058 57.7762 186.398 56.0762Z" fill="#F09224"/>
</svg>
