<svg width="420" height="417" viewBox="0 0 420 417" fill="none" xmlns="http://www.w3.org/2000/svg">
<path d="M8.75 251.938C8.75 293.411 25.3437 333.185 54.8807 362.511C84.4177 391.837 124.478 408.313 166.25 408.312C208.022 408.312 248.082 391.837 277.619 362.511C307.156 333.185 323.75 293.411 323.75 251.938V165.062C323.75 123.589 307.156 83.8147 277.619 54.4887C248.082 25.1627 208.022 8.6875 166.25 8.6875C124.478 8.6875 84.4177 25.1627 54.8807 54.4887C25.3437 83.8147 8.75 123.589 8.75 165.062V251.938Z" fill="#C1FF94"/>
<path d="M166.25 8.6875C124.478 8.6875 84.4177 25.1627 54.8807 54.4887C25.3437 83.8147 8.75 123.589 8.75 165.062V251.938C8.75 293.411 25.3437 333.185 54.8807 362.511C84.4177 391.837 124.478 408.312 166.25 408.312V8.6875Z" fill="white"/>
<path d="M323.75 165.062C323.799 126.585 309.505 89.4507 283.623 60.8125" stroke="#565656" stroke-linecap="round" stroke-linejoin="round"/>
<path d="M8.75001 199.812V251.938C8.74161 282.694 17.8683 312.769 34.9882 338.402C52.1081 364.034 76.461 384.085 105 396.046" stroke="#565656" stroke-linecap="round" stroke-linejoin="round"/>
<path d="M245 29.6418C221.7 16.2858 195.342 9.07866 168.44 8.70748C141.538 8.33631 114.989 14.8135 91.3237 27.5215C67.6587 40.2295 47.667 58.7445 33.2548 81.3011C18.8427 103.858 10.4906 129.704 8.99512 156.375" stroke="#565656" stroke-linecap="round" stroke-linejoin="round"/>
<path d="M127 70.4806C142.999 63.2 160.584 60.0288 178.14 61.2585C195.695 62.4883 212.658 68.0795 227.469 77.5183C242.279 86.9571 254.463 99.9406 262.899 115.276C271.336 130.611 275.755 147.805 275.75 165.279V190.055" stroke="#565656" stroke-width="5" stroke-linecap="round" stroke-linejoin="round"/>
<path d="M87.7401 101C70.4878 120.093 60.9628 144.85 61.0001 170.5V257.375C60.9883 275.68 65.8313 293.666 75.0422 309.523C84.253 325.381 97.5069 338.551 113.471 347.708C129.435 356.866 147.546 361.689 165.983 361.692C184.42 361.695 202.533 356.878 218.5 347.725" stroke="#565656" stroke-width="5" stroke-linecap="round" stroke-linejoin="round"/>
<path d="M113.75 251.938C113.75 265.762 119.281 279.02 129.127 288.795C138.973 298.571 152.326 304.062 166.25 304.062C180.174 304.062 193.527 298.571 203.373 288.795C213.219 279.02 218.75 265.762 218.75 251.938V165.062C218.75 151.238 213.219 137.98 203.373 128.205C193.527 118.429 180.174 112.938 166.25 112.938C152.326 112.938 138.973 118.429 129.127 128.205C119.281 137.98 113.75 151.238 113.75 165.062V217.188" stroke="#565656" stroke-width="5" stroke-linecap="round" stroke-linejoin="round"/>
<path d="M166.25 165.062V217.188" stroke="#565656" stroke-width="5" stroke-linecap="round" stroke-linejoin="round"/>
<path d="M166.25 251.938V269.312" stroke="#565656" stroke-width="5" stroke-linecap="round" stroke-linejoin="round"/>
<path d="M166.25 408.312C181.19 408.324 196.056 406.23 210.402 402.092" stroke="#565656" stroke-linecap="round" stroke-linejoin="round"/>
<path d="M271.25 269.312H393.75C393.75 269.312 411.25 269.312 411.25 286.688V390.92C411.25 390.92 411.25 408.295 393.75 408.295H271.25C271.25 408.295 253.75 408.295 253.75 390.92V286.688C253.75 286.688 253.75 269.312 271.25 269.312Z" fill="#CDFFA8"/>
<path d="M332.5 269.312H271.25C266.609 269.312 262.158 271.143 258.876 274.402C255.594 277.66 253.75 282.079 253.75 286.688V390.938C253.75 395.546 255.594 399.965 258.876 403.223C262.158 406.482 266.609 408.312 271.25 408.312H332.5V269.312Z" fill="#C1FF94"/>
<path d="M271.25 269.312H393.75C393.75 269.312 411.25 269.312 411.25 286.688V390.92C411.25 390.92 411.25 408.295 393.75 408.295H271.25C271.25 408.295 253.75 408.295 253.75 390.92V286.688C253.75 286.688 253.75 269.312 271.25 269.312Z" stroke="#565656" stroke-width="5" stroke-linecap="round" stroke-linejoin="round"/>
<path d="M310.625 339.907C310.625 342.759 311.191 345.584 312.29 348.219C313.389 350.854 315.001 353.248 317.032 355.265C319.063 357.281 321.475 358.881 324.129 359.973C326.783 361.064 329.627 361.626 332.5 361.626C335.373 361.626 338.217 361.064 340.871 359.973C343.525 358.881 345.937 357.281 347.968 355.265C349.999 353.248 351.611 350.854 352.71 348.219C353.809 345.584 354.375 342.759 354.375 339.907C354.375 337.055 353.809 334.231 352.71 331.596C351.611 328.961 349.999 326.567 347.968 324.55C345.937 322.533 343.525 320.933 340.871 319.842C338.217 318.75 335.373 318.188 332.5 318.188C329.627 318.188 326.783 318.75 324.129 319.842C321.475 320.933 319.063 322.533 317.032 324.55C315.001 326.567 313.389 328.961 312.29 331.596C311.191 334.231 310.625 337.055 310.625 339.907Z" fill="#CDFFA8" stroke="#565656" stroke-width="5" stroke-linecap="round" stroke-linejoin="round"/>
<path d="M376.25 243.25C376.25 231.73 371.641 220.681 363.436 212.535C355.231 204.389 344.103 199.812 332.5 199.812C320.897 199.812 309.769 204.389 301.564 212.535C293.359 220.681 288.75 231.73 288.75 243.25V269.312H376.25V243.25Z" stroke="#565656" stroke-width="5" stroke-linecap="round" stroke-linejoin="round"/>
</svg>
