<svg width="1087" height="922" viewBox="0 0 1087 922" fill="none" xmlns="http://www.w3.org/2000/svg">
<rect width="1087" height="922" rx="120" fill="black" fill-opacity="0.25"/>
<path d="M972.809 251.141L975.756 251.677V248.682V143.754C975.756 130.814 966.316 119.783 954.14 119.783H142.86C130.673 119.783 121.244 130.815 121.244 143.754V248.682V251.636L124.157 251.147L124.223 251.136C124.939 251.016 125.4 250.939 125.865 250.939H971.125C971.61 250.939 972.114 251.015 972.809 251.141ZM124.195 800.721L121.213 800.302L121.349 803.31C121.912 815.68 131.054 826.07 142.86 826.07H954.13C965.935 826.07 975.078 815.68 975.64 803.31L975.777 800.302L972.795 800.721C972.534 800.758 972.32 800.791 972.137 800.82C971.709 800.886 971.442 800.928 971.115 800.928H125.865C125.547 800.928 125.285 800.887 124.862 800.821C124.676 800.792 124.46 800.758 124.195 800.721ZM142.86 110.48H954.13C970.057 110.48 983.49 125.118 983.5 143.755V265.135V786.732V802.11C983.5 820.747 970.066 835.395 954.14 835.395H142.86C126.944 835.395 113.5 820.747 113.5 802.11V143.766C113.5 125.129 126.944 110.48 142.86 110.48ZM125.865 260.253C123.063 260.253 121.244 262.709 121.244 265.135V786.732C121.244 789.138 123.055 791.614 125.865 791.614H971.115C973.927 791.614 975.746 789.147 975.746 786.732V265.135C975.746 262.701 973.919 260.253 971.115 260.253H125.865Z" fill="#68B82D" stroke="#68B82D" stroke-width="5"/>
<path d="M323.861 216.11C338.787 216.11 350.934 202.455 350.934 185.69C350.934 168.925 338.787 155.27 323.861 155.27C308.935 155.27 296.777 168.925 296.777 185.69C296.777 202.455 308.935 216.11 323.861 216.11ZM323.861 169.595C331.767 169.595 338.2 176.822 338.2 185.701C338.2 194.581 331.767 201.808 323.861 201.808C315.945 201.808 309.521 194.581 309.521 185.701C309.521 176.822 315.945 169.595 323.861 169.595Z" fill="#FF0000"/>
<path d="M254.683 216.11C269.619 216.11 281.766 202.455 281.766 185.69C281.766 168.925 269.619 155.27 254.683 155.27C239.756 155.27 227.609 168.925 227.609 185.69C227.609 202.455 239.756 216.11 254.683 216.11ZM254.683 169.595C262.599 169.595 269.022 176.822 269.022 185.701C269.022 194.581 262.599 201.808 254.683 201.808C246.777 201.808 240.343 194.581 240.343 185.701C240.343 176.822 246.777 169.595 254.683 169.595Z" fill="#FFE342"/>
<path d="M185.507 216.11C200.443 216.11 212.59 202.455 212.59 185.69C212.59 168.925 200.443 155.27 185.507 155.27C170.581 155.27 158.434 168.925 158.434 185.69C158.434 202.455 170.581 216.11 185.507 216.11ZM185.507 169.595C193.423 169.595 199.846 176.822 199.846 185.701C199.846 194.581 193.423 201.808 185.507 201.808C177.601 201.808 171.167 194.581 171.167 185.701C171.167 176.822 177.611 169.595 185.507 169.595Z" fill="#68B82D"/>
<path d="M752.924 537.587L671.879 628.813C662.625 640.017 667.844 649.117 683.038 665.269C691.438 674.207 698.716 678.739 704.686 678.739C708.052 678.739 710.986 677.34 713.796 674.357L823.428 551.277C826.516 547.126 828.225 540.663 827.761 534.766C827.339 529.632 825.301 525.25 822.336 522.533L713.282 400.169C709.864 396.365 706.591 394.504 703.255 394.504C696.523 394.504 689.822 402.008 681.988 410.807C675.812 417.744 670.469 423.745 668.215 429.491C666.557 433.619 665.507 439.285 672.065 446.65L752.924 537.587ZM691.098 420.82C694.598 416.888 700.291 410.518 702.988 409.038C703.286 409.28 703.719 409.674 704.264 410.298L813.792 533.136C814.359 533.644 814.935 534.384 815.069 536.049C815.254 538.454 814.359 541.148 814.039 541.611L704.738 664.402L704.686 671.559V664.402C704.645 664.402 700.682 664.286 691.809 654.852C681.37 643.763 680.176 640.353 679.96 640.237C680.053 640.04 680.331 639.589 681.072 638.699L770.928 537.552L681.072 436.521C680.506 435.885 680.156 435.411 679.95 435.076C681.381 431.723 686.281 426.242 691.098 420.82Z" fill="#68B82D"/>
<path d="M383.326 674.485C386.013 677.34 388.947 678.739 392.313 678.739C398.263 678.739 405.551 674.207 413.961 665.269C429.155 649.117 434.364 640.006 424.945 628.629L344.075 537.587L424.934 446.662C431.481 439.331 430.431 433.642 428.805 429.538C426.509 423.734 421.146 417.721 414.929 410.749C407.177 402.031 400.486 394.516 393.733 394.516C390.388 394.516 387.104 396.377 383.707 400.181L275.105 522.082C271.667 525.262 269.639 529.667 269.238 534.801C268.764 540.651 270.473 547.115 273.942 551.763L383.326 674.485ZM283.66 532.685L392.725 410.298C393.28 409.674 393.702 409.281 393.991 409.049C396.729 410.541 402.411 416.935 405.932 420.878C410.492 426 415.207 431.272 417.039 435.122C416.823 435.446 416.473 435.92 415.927 436.533L326.071 537.564L415.773 638.526C416.462 639.358 416.74 639.844 416.905 639.751C416.627 640.827 414.939 644.504 405.191 654.852C396.307 664.287 392.354 664.402 392.313 664.402L283.341 542.108C282.651 541.16 281.735 538.466 281.92 536.084C282.054 534.396 282.651 533.656 283.66 532.685Z" fill="#68B82D"/>
<path d="M479.585 696.81C489.21 702.059 495.335 704.314 500.132 704.314C508.871 704.314 512.063 696.972 513.421 693.838L642.807 395.948C649.508 380.512 640.367 371.586 624.586 362.949C615.96 358.232 609.619 356.023 604.616 356.023C595.053 356.023 591.656 363.816 590.215 367.146L460.84 665.014C459.532 668.02 456.485 675.003 461.004 682.345C463.794 686.936 469.178 691.11 479.585 696.81ZM472.297 671.292L601.661 373.425C603.01 370.326 603.35 370.326 604.616 370.326C606.613 370.326 610.751 371.274 618.997 375.806C633.841 383.935 632.677 386.606 631.349 389.681L501.964 687.56C501.11 689.514 500.719 689.907 500.698 689.942C500.698 689.942 500.533 690 500.121 690C497.548 690 492.514 687.965 485.164 683.953C472.914 677.223 471.504 674.448 471.36 674.078C471.37 673.963 471.412 673.35 472.297 671.292Z" fill="#68B82D"/>
</svg>
