<svg width="930" height="690" viewBox="0 0 930 690" fill="none" xmlns="http://www.w3.org/2000/svg">
<path d="M915.13 135.451L918.03 135.92V132.983V33.8112C918.03 21.2389 907.793 11.0179 895.233 11.0179H33.8284C21.2558 11.0179 11.0313 21.2398 11.0313 33.8112V132.983V135.884L13.9003 135.455L13.9933 135.442C14.7326 135.331 15.2532 135.253 15.7829 135.253H913.267C913.824 135.253 914.392 135.331 915.13 135.451ZM13.9507 654.598L10.9918 654.228L11.1439 657.206C11.7572 669.213 21.6442 678.834 33.8284 678.834H895.222C907.406 678.834 917.293 669.213 917.906 657.206L918.058 654.228L915.099 654.598C914.213 654.709 913.792 654.797 913.256 654.797H15.7829C15.4111 654.797 15.0932 654.753 14.6232 654.688C14.4296 654.661 14.2103 654.631 13.9507 654.598ZM33.8284 2.5H895.222C912.5 2.5 926.551 16.5394 926.561 33.8127V148.533V641.517V656.052C926.561 673.324 912.51 687.374 895.233 687.374H33.8284C16.5615 687.374 2.5 673.324 2.5 656.052V33.8222C2.5 16.5497 16.5615 2.5 33.8284 2.5ZM15.7829 143.782C13.1755 143.782 11.0313 145.899 11.0313 148.533V641.517C11.0313 644.133 13.1675 646.268 15.7829 646.268H913.256C915.875 646.268 918.019 644.141 918.019 641.517V148.533C918.019 145.891 915.867 143.782 913.256 143.782H15.7829Z" fill="#68B82D" stroke="#68B82D" stroke-width="5"/>
<path d="M226.011 102.198C241.859 102.198 254.757 89.2925 254.757 73.4469C254.757 57.6013 241.859 44.6953 226.011 44.6953C210.162 44.6953 197.254 57.6013 197.254 73.4469C197.254 89.2925 210.162 102.198 226.011 102.198ZM226.011 58.2351C234.405 58.2351 241.236 65.0651 241.236 73.4578C241.236 81.8505 234.405 88.6805 226.011 88.6805C217.606 88.6805 210.785 81.8505 210.785 73.4578C210.785 65.0651 217.606 58.2351 226.011 58.2351Z" fill="#FF0000"/>
<path d="M152.558 102.198C168.418 102.198 181.315 89.2925 181.315 73.4469C181.315 57.6013 168.418 44.6953 152.558 44.6953C136.71 44.6953 123.812 57.6013 123.812 73.4469C123.812 89.2925 136.71 102.198 152.558 102.198ZM152.558 58.2351C160.964 58.2351 167.784 65.0651 167.784 73.4578C167.784 81.8505 160.964 88.6805 152.558 88.6805C144.164 88.6805 137.333 81.8505 137.333 73.4578C137.333 65.0651 144.164 58.2351 152.558 58.2351Z" fill="#FFE342"/>
<path d="M79.1092 102.198C94.9686 102.198 107.866 89.2925 107.866 73.4469C107.866 57.6013 94.9686 44.6953 79.1092 44.6953C63.2607 44.6953 50.3633 57.6013 50.3633 73.4469C50.3633 89.2925 63.2607 102.198 79.1092 102.198ZM79.1092 58.2351C87.5144 58.2351 94.3347 65.0651 94.3347 73.4578C94.3347 81.8505 87.5144 88.6805 79.1092 88.6805C70.7149 88.6805 63.8837 81.8505 63.8837 73.4578C63.8837 65.0651 70.7259 58.2351 79.1092 58.2351Z" fill="#68B82D"/>
<path d="M681.583 406.039L595.531 492.261C585.705 502.85 591.246 511.45 607.379 526.717C616.298 535.164 624.025 539.448 630.365 539.448C633.939 539.448 637.054 538.125 640.038 535.306L756.442 418.977C759.721 415.054 761.535 408.946 761.044 403.372C760.595 398.52 758.431 394.379 755.283 391.81L639.491 276.159C635.862 272.564 632.387 270.805 628.845 270.805C621.697 270.805 614.582 277.897 606.264 286.213C599.706 292.77 594.033 298.442 591.64 303.873C589.88 307.774 588.765 313.129 595.727 320.09L681.583 406.039ZM615.937 295.677C619.653 291.961 625.697 285.94 628.561 284.541C628.878 284.771 629.337 285.142 629.916 285.732L746.212 401.831C746.813 402.312 747.425 403.012 747.567 404.585C747.764 406.858 746.813 409.405 746.474 409.842L630.419 525.897L630.365 532.661V525.897C630.321 525.897 626.113 525.788 616.691 516.87C605.608 506.391 604.34 503.167 604.111 503.057C604.209 502.872 604.504 502.445 605.291 501.604L700.699 406.006L605.291 310.517C604.69 309.916 604.318 309.468 604.1 309.151C605.619 305.982 610.822 300.802 615.937 295.677Z" fill="#68B82D"/>
<path d="M289.153 535.427C292.006 538.126 295.121 539.449 298.695 539.449C305.013 539.449 312.751 535.165 321.681 526.717C337.814 511.451 343.344 502.84 333.343 492.087L247.477 406.039L333.332 320.102C340.284 313.173 339.169 307.797 337.442 303.917C335.005 298.431 329.31 292.749 322.708 286.159C314.478 277.92 307.373 270.816 300.203 270.816C296.651 270.816 293.164 272.576 289.558 276.171L174.246 391.385C170.595 394.39 168.442 398.554 168.016 403.406C167.513 408.935 169.328 415.044 173.011 419.437L289.153 535.427ZM183.329 401.406L299.132 285.733C299.722 285.143 300.171 284.771 300.477 284.553C303.384 285.963 309.417 292.006 313.155 295.732C317.997 300.573 323.003 305.557 324.949 309.196C324.719 309.502 324.348 309.95 323.769 310.529L228.361 406.018L323.605 501.441C324.337 502.228 324.632 502.687 324.807 502.599C324.512 503.616 322.719 507.091 312.368 516.871C302.936 525.789 298.739 525.898 298.695 525.898L182.99 410.312C182.258 409.416 181.285 406.87 181.482 404.619C181.624 403.023 182.258 402.324 183.329 401.406Z" fill="#68B82D"/>
<path d="M391.357 556.529C401.577 561.491 408.08 563.622 413.173 563.622C422.453 563.622 425.841 556.682 427.284 553.721L564.663 272.172C571.779 257.583 562.073 249.147 545.317 240.983C536.158 236.525 529.425 234.438 524.113 234.438C513.959 234.438 510.352 241.803 508.822 244.95L371.453 526.477C370.065 529.319 366.83 535.919 371.628 542.858C374.59 547.197 380.307 551.142 391.357 556.529ZM383.619 532.411L520.976 250.884C522.408 247.955 522.768 247.955 524.113 247.955C526.233 247.955 530.627 248.852 539.382 253.135C555.143 260.818 553.908 263.342 552.498 266.249L415.119 547.787C414.212 549.634 413.796 550.005 413.774 550.038C413.774 550.038 413.6 550.093 413.162 550.093C410.43 550.093 405.085 548.169 397.281 544.377C384.274 538.017 382.777 535.395 382.624 535.045C382.635 534.936 382.679 534.356 383.619 532.411Z" fill="#68B82D"/>
</svg>
