<svg width="234" height="234" viewBox="0 0 234 234" fill="none" xmlns="http://www.w3.org/2000/svg">
<path d="M83.9467 0.145082C86.514 0.144407 89.0812 0.143436 91.6484 0.142183C97.01 0.140715 102.372 0.142735 107.733 0.147524C113.891 0.152961 120.048 0.151202 126.206 0.145697C132.18 0.140574 138.155 0.141165 144.13 0.144079C146.649 0.144741 149.168 0.143945 151.687 0.141599C202.492 0.104667 202.492 0.104668 219.513 16.1529C231.854 29.2655 233.824 46.3016 233.788 63.5953C233.793 64.8686 233.798 66.1418 233.803 67.4537C233.817 70.9106 233.817 74.3674 233.815 77.8243C233.814 80.7287 233.819 83.6332 233.823 86.5376C233.834 93.4011 233.835 100.265 233.829 107.128C233.823 114.165 233.835 121.202 233.856 128.238C233.874 134.319 233.88 140.399 233.877 146.479C233.875 150.093 233.877 153.708 233.891 157.322C234.051 202.201 234.051 202.201 217.865 219.09C205.026 231.034 189.805 233.586 172.84 233.553C171.492 233.557 170.144 233.562 168.796 233.568C165.161 233.581 161.527 233.582 157.892 233.579C154.843 233.578 151.795 233.583 148.746 233.588C141.544 233.599 134.342 233.6 127.141 233.594C119.746 233.588 112.351 233.6 104.957 233.621C98.5775 233.639 92.1984 233.645 85.8193 233.641C82.0228 233.64 78.2264 233.642 74.4299 233.656C70.8544 233.669 67.2791 233.667 63.7035 233.654C61.7907 233.65 59.8778 233.662 57.9651 233.673C41.7599 233.577 26.3462 229.925 14.5131 218.278C3.00168 204.408 0.374006 190.575 0.336134 172.977C0.329859 171.633 0.323212 170.288 0.316221 168.944C0.295289 164.546 0.284825 160.148 0.274855 155.751C0.270802 154.228 0.266683 152.706 0.262503 151.183C0.243471 144.024 0.22924 136.865 0.220892 129.706C0.211142 121.484 0.184874 113.262 0.144392 105.039C0.114067 98.6575 0.0994097 92.2759 0.0961131 85.8942C0.0937803 82.0953 0.0850542 78.2967 0.0596523 74.4978C-0.211381 31.7092 -0.211383 31.7092 15.2631 14.9029C34.0071 -2.43801 60.332 0.123114 83.9467 0.145082Z" fill="url(#paint0_linear_388_126)"/>
<path d="M192.514 41.2785C193.07 71.1536 187.281 99.1901 168.514 123.279C167.837 124.158 167.161 125.037 166.463 125.943C157.983 136.638 147.532 148.988 135.288 155.454C131.901 158.938 132.294 164.312 131.825 168.968C131.077 175.01 129.585 179.64 125.514 184.279C123.097 185.988 121.168 187.091 118.514 188.279C117.589 188.717 116.663 189.156 115.709 189.609C112.473 191.122 109.217 192.58 105.952 194.029C104.841 194.535 103.731 195.042 102.586 195.564C101.509 196.042 100.432 196.52 99.3228 197.013C98.3514 197.448 97.38 197.884 96.3792 198.332C93.2648 199.361 90.7724 199.453 87.5142 199.279C86.1792 193.939 87.0017 190.439 88.5142 185.279C87.9367 184.99 87.3592 184.701 86.7642 184.404C84.6809 183.362 82.5976 182.32 80.5142 181.279C80.1507 181.798 79.7872 182.318 79.4127 182.853C70.902 194.659 59.7561 199.804 45.5142 202.279C40.8513 202.763 36.1975 203.078 31.5142 203.279C31.0254 187.474 34.2433 172.807 44.5142 160.279C46.7371 158.116 49.0789 156.193 51.5142 154.279C52.5042 153.289 52.5042 153.289 53.5142 152.279C52.6892 151.495 51.8642 150.711 51.0142 149.904C48.5142 147.279 48.5142 147.279 48.5142 145.279C47.8542 145.444 47.1942 145.609 46.5142 145.779C42.7579 146.405 39.3231 146.405 35.5142 146.279C35.1842 145.949 34.8542 145.619 34.5142 145.279C34.7289 137.524 37.8601 131.172 41.0767 124.216C41.5775 123.071 42.0783 121.925 42.5943 120.745C45.7197 113.931 48.779 108.018 55.5142 104.279C59.1158 103.123 62.7158 102.572 66.4517 102.029C75.8179 100.295 75.8179 100.295 82.8267 94.091C84.0773 92.1673 85.3069 90.2297 86.5142 88.2785C88.0177 86.4956 89.5596 84.7444 91.1392 83.0285C92.2684 81.7968 92.2684 81.7968 93.4205 80.5403C94.1114 79.7939 94.8023 79.0475 95.5142 78.2785C96.3031 77.391 96.3031 77.391 97.108 76.4856C121.678 50.0973 157.633 40.0551 192.514 41.2785ZM99.0142 83.341C91.3601 91.0404 84.8456 99.4799 78.5142 108.279C77.7382 109.343 76.9622 110.408 76.1627 111.505C73.878 114.72 71.6757 117.98 69.5142 121.279C68.692 122.527 68.692 122.527 67.8531 123.8C66.0123 126.614 64.1977 129.444 62.3892 132.279C61.7956 133.188 61.202 134.097 60.5904 135.033C60.0471 135.898 59.5037 136.763 58.9439 137.654C58.4513 138.424 57.9587 139.195 57.4512 139.989C56.1915 143.067 56.276 144.17 57.5142 147.279C59.4801 149.838 61.7156 152.088 63.9986 154.364C64.6512 155.026 65.3038 155.687 65.9762 156.368C67.3565 157.76 68.742 159.146 70.1324 160.528C72.2603 162.65 74.3602 164.797 76.4595 166.947C77.8043 168.296 79.1506 169.643 80.4986 170.989C81.1259 171.635 81.7531 172.281 82.3994 172.946C85.7306 176.419 85.7306 176.419 90.2315 177.286C93.6794 175.764 96.9156 173.968 100.139 172.029C100.874 171.59 101.609 171.152 102.366 170.701C115.377 162.834 128.06 154.301 139.514 144.279C140.35 143.553 141.185 142.827 142.045 142.079C144.57 139.847 147.049 137.576 149.514 135.279C150.338 134.521 151.162 133.763 152.01 132.982C165.471 120.13 175.991 103.12 181.514 85.2785C181.514 84.2885 181.514 83.2985 181.514 82.2785C180.359 81.8867 179.204 81.4948 178.014 81.091C168.2 77.391 159.619 70.7897 155.03 61.1653C154.612 60.1095 154.195 59.0538 153.764 57.966C153.336 56.8974 152.908 55.8288 152.467 54.7278C152.153 53.9195 151.838 53.1113 151.514 52.2785C132.728 52.2785 111.544 71.0453 99.0142 83.341Z" fill="#FEF8F8"/>
<path d="M198.514 62.2773C204.309 68.0732 202.777 80.5201 202.792 88.3323C202.788 89.8257 202.784 91.3191 202.779 92.8125C202.781 94.3833 202.783 95.954 202.785 97.5248C202.788 100.797 202.784 104.068 202.774 107.34C202.763 111.504 202.77 115.668 202.782 119.833C202.789 123.07 202.786 126.307 202.781 129.544C202.78 131.078 202.782 132.613 202.786 134.147C202.827 151.121 200.947 166.943 189.514 180.277C179.601 190.04 165.042 193.506 151.52 193.504C150.587 193.494 149.654 193.483 148.693 193.473C147.216 193.468 147.216 193.468 145.71 193.464C142.602 193.453 139.496 193.428 136.389 193.402C134.266 193.392 132.144 193.383 130.021 193.375C124.852 193.353 119.683 193.319 114.514 193.277C117.09 191.297 119.387 189.826 122.389 188.59C125.848 186.969 127.15 185.483 129.006 182.188C130.955 179.486 131.923 178.436 135.175 177.565C138.394 177.335 141.538 177.319 144.764 177.402C162.315 177.54 162.315 177.54 177.459 169.555C186.675 159.857 186.646 147.735 186.619 135.051C186.633 132.862 186.648 130.673 186.664 128.484C186.687 125.075 186.701 121.666 186.689 118.256C186.652 104.711 187.116 94.3186 193.514 82.2773C194.712 78.6493 195.654 74.9989 196.514 71.2773C196.719 70.393 196.924 69.5088 197.135 68.5977C197.61 66.4943 198.064 64.3863 198.514 62.2773Z" fill="#FEFBFC"/>
<path d="M101.385 30.8169C103.045 30.8193 104.704 30.8202 106.364 30.8197C109.809 30.8228 113.253 30.8391 116.697 30.8662C121.091 30.9004 125.483 30.9079 129.876 30.9064C133.29 30.9069 136.704 30.9179 140.117 30.9324C141.737 30.9387 143.357 30.9426 144.977 30.9441C153.045 30.9598 160.687 31.0511 168.514 33.2779C168.514 33.9379 168.514 34.5979 168.514 35.2779C166.718 35.7149 166.718 35.7149 164.885 36.1607C163.241 36.5742 161.596 36.9883 159.952 37.4029C159.171 37.5911 158.391 37.7793 157.586 37.9732C153.672 38.9713 150.067 40.011 146.416 41.7744C134.193 47.5952 122.221 47.04 108.889 46.9029C85.7811 45.8755 85.7811 45.8755 65.3891 55.1529C57.1151 63.3513 56.3893 72.6314 56.3247 83.7388C56.326 86.2806 56.3471 88.8224 56.3872 91.3638C56.286 100.438 56.286 100.438 53.9814 102.945C52.104 103.993 52.104 103.993 48.5141 105.278C45 108.89 43.3273 112.654 41.5141 117.278C41.1841 117.278 40.8541 117.278 40.5141 117.278C40.4391 111.553 40.3851 105.828 40.3493 100.103C40.3344 98.1611 40.314 96.2197 40.2878 94.2784C40.0497 76.1746 40.6273 58.2998 53.8266 44.3404C67.2005 32.0736 84.0374 30.6484 101.385 30.8169Z" fill="#FDFBFD"/>
<path d="M144.971 75.8909C150.285 78.2703 154.287 82.4896 157.514 87.2776C159.766 93.4902 159.815 101.907 157.455 108.02C153.608 114.213 148.383 117.988 141.514 120.278C134.376 120.981 128.38 120.665 122.514 116.278C117.021 111.122 113.422 105.683 113.014 98.0276C113.241 91.0627 115.422 85.1858 120.557 80.3557C128.006 74.657 135.68 73.572 144.971 75.8909Z" fill="#FEFCFD"/>
<path d="M58.9656 158.44C61.8734 159.394 63.1682 160.467 65.2832 162.655C65.9438 163.329 66.6045 164.002 67.2852 164.696C68.2955 165.757 68.2955 165.757 69.3262 166.839C70.019 167.55 70.7119 168.261 71.4258 168.993C73.1311 170.745 74.8264 172.506 76.5137 174.276C74.1891 180.765 70.0485 186.224 63.8887 189.526C55.8213 193.058 47.2993 195.587 38.5137 196.276C38.7828 182.918 42.0047 171.879 51.4277 162.167C55.7748 158.227 55.7748 158.227 58.9656 158.44Z" fill="#FF924B"/>
<path d="M70.5137 108.279C68.7582 113.239 65.9904 117.395 63.1052 121.744C61.1824 124.657 59.379 127.528 57.7168 130.603C53.7282 137.868 53.7282 137.868 49.8574 139.177C47.343 139.439 45.0289 139.496 42.5137 139.279C44.3089 133.365 46.496 127.66 48.8887 121.966C49.3084 120.926 49.3084 120.926 49.7366 119.865C52.076 114.412 54.826 111.447 60.3887 109.029C63.8602 108.196 66.9561 108.137 70.5137 108.279Z" fill="#F85650"/>
<path d="M126.513 162.277C126.114 164.51 125.693 166.738 125.263 168.965C125.031 170.206 124.799 171.448 124.56 172.727C123.369 176.766 122.636 178.444 119.513 181.277C115.744 183.313 111.845 184.957 107.888 186.59C106.295 187.271 106.295 187.271 104.669 187.967C96.8436 191.277 96.8436 191.277 94.5132 191.277C94.3431 187.767 94.5088 184.658 95.5132 181.277C98.0892 178.497 101.132 176.871 104.451 175.09C106.189 174.083 107.926 173.073 109.662 172.062C110.499 171.588 111.337 171.114 112.2 170.625C115.921 168.457 119.335 165.943 122.798 163.387C124.513 162.277 124.513 162.277 126.513 162.277Z" fill="#FF7D49"/>
<defs>
<linearGradient id="paint0_linear_388_126" x1="207" y1="9" x2="16" y2="221" gradientUnits="userSpaceOnUse">
<stop stop-color="#AC30BD"/>
<stop offset="0.500492" stop-color="#EE4B5F"/>
<stop offset="1" stop-color="#FFDA55"/>
</linearGradient>
</defs>
</svg>
