<svg width="314" height="314" viewBox="0 0 314 314" fill="none" xmlns="http://www.w3.org/2000/svg">
<g clip-path="url(#clip0_340_3)">
<path d="M0 0C103.62 0 207.24 0 314 0C314 103.62 314 207.24 314 314C210.38 314 106.76 314 0 314C0 210.38 0 106.76 0 0Z" fill="#555D6A"/>
<path d="M188.891 44.1564C186.132 51.4469 183.437 57.2424 179.078 63.7814C176.988 79.5976 175.777 95.9089 185.211 109.471C195.078 120.416 207.062 125.443 220.781 130.016C220.502 134.413 220.189 138.808 219.861 143.201C219.691 145.649 219.52 148.096 219.344 150.618C218.328 157 218.328 157 213.422 161.906C211.939 167.052 211.939 167.052 210.969 172.792C209.486 180.83 208.302 184.305 203.609 191.344C203.074 208.556 205.722 225.007 213.422 240.406C219.835 245.216 222.503 245.313 230.594 245.313C233.022 240.455 233.022 240.455 235.5 235.5C232.616 234.362 232.616 234.362 229.674 233.2C223.234 230.594 223.234 230.594 218.328 228.141C218.328 225.712 218.328 223.284 218.328 220.781C225.688 223.235 233.047 225.688 240.406 228.141C241.405 226.401 242.404 224.662 243.434 222.87C254.654 203.346 265.916 183.845 277.203 164.36C278.467 162.171 279.731 159.982 281.034 157.727C284.081 152.464 287.152 147.216 290.235 141.975C291.103 140.469 291.971 138.964 292.865 137.413C294.866 134.044 297.053 130.786 299.281 127.563C300.9 127.563 302.519 127.563 304.188 127.563C304.188 185.849 304.188 244.135 304.188 304.188C207.044 304.188 109.9 304.188 9.8125 304.188C9.8125 246.711 9.8125 189.234 9.8125 130.016C13.4554 128.801 13.4554 128.801 17.1719 127.563C18.1709 129.302 19.17 131.041 20.1994 132.834C47.721 180.724 47.721 180.724 76.0469 228.141C83.3327 225.712 90.6184 223.284 98.125 220.781C98.125 223.21 98.125 225.639 98.125 228.141C93.2678 230.569 88.4106 232.998 83.4062 235.5C84.2158 238.738 85.0253 241.976 85.8594 245.313C94.715 243.704 94.715 243.704 103.031 240.406C109.172 224.941 115.235 208.084 112.844 191.344C109.573 183.78 109.573 183.78 105.484 176.625C103.849 171.719 102.214 166.813 100.578 161.906C98.9591 159.478 97.34 157.049 95.6719 154.547C94.5699 148.012 94.5699 148.012 93.9854 140.748C93.7735 138.339 93.5616 135.929 93.3433 133.446C93.3022 131.505 93.2611 129.563 93.2188 127.563C94.0283 126.753 94.8378 125.944 95.6719 125.11C95.9682 121.454 96.1123 117.785 96.1893 114.118C96.2937 110.743 96.2937 110.743 96.4001 107.3C96.5266 102.561 96.6356 97.8205 96.726 93.08C97.163 80.0328 97.7963 69.9289 105.484 58.8751C130.794 38.167 158.511 35.3186 188.891 44.1564Z" fill="#FDFDFD"/>
<path d="M0 0C103.62 0 207.24 0 314 0C314 103.62 314 207.24 314 314C210.38 314 106.76 314 0 314C0 210.38 0 106.76 0 0ZM9.8125 9.8125C9.8125 106.956 9.8125 204.1 9.8125 304.188C106.956 304.188 204.1 304.188 304.188 304.188C304.188 207.044 304.188 109.9 304.188 9.8125C207.044 9.8125 109.9 9.8125 9.8125 9.8125Z" fill="#555D6A"/>
<path d="M248.206 38.5989C252.672 41.7036 252.672 41.7036 254.531 46.9549C254.727 48.4601 254.923 49.9653 255.125 51.5161C256.399 50.4821 257.674 49.448 258.987 48.3827C275.979 35.0341 275.979 35.0341 287.016 34.3443C281.186 40.6598 275.276 45.4329 268.157 50.1363C249.858 63.5348 237.747 85.3635 228.141 105.485C219.143 101.797 214.185 96.5622 207.902 89.2329C206.169 87.2281 204.437 85.2232 202.651 83.1576C201.348 81.6208 200.045 80.0839 198.703 78.5005C199.513 76.0719 200.322 73.6433 201.156 71.1411C205.909 69.3013 205.909 69.3013 210.969 68.688C212.588 69.4975 214.207 70.3071 215.875 71.1411C211.449 63.1326 208.923 59.1471 201.156 53.9693C196.067 53.6036 196.067 53.6036 191.344 56.4224C184.196 67.1434 182.448 75.5802 183.984 88.313C189.171 103.175 196.627 113.033 210.969 120.204C227.433 122.01 237.294 120.731 250.219 110.391C251.838 110.391 253.457 110.391 255.125 110.391C260.286 97.6614 262.775 88.1934 262.638 74.3609C262.616 71.4674 262.593 68.574 262.571 65.5929C262.542 63.3761 262.514 61.1594 262.484 58.8755C264.103 58.8755 265.723 58.8755 267.391 58.8755C273.538 68.0966 273.784 77.6424 272.297 88.313C267.687 104.628 259.549 115.861 245.313 125.11C229.962 130.227 211.939 130.347 197.323 123.423C187.605 114.203 177.43 104.218 175.628 90.5841C175.18 73.2981 175.191 61.1284 187.118 47.961C206.662 30.367 224.164 28.33 248.206 38.5989Z" fill="#555D6A"/>
<path d="M9.8125 159.453C17.1108 168.576 22.794 176.62 28.5463 186.61C30.1638 189.415 31.7813 192.22 33.4478 195.11C34.2741 196.555 35.1004 198.001 35.9518 199.49C38.49 203.928 41.0464 208.354 43.6053 212.78C56.0932 234.514 56.0932 234.514 58.875 242.859C53.2083 246.098 47.5416 249.336 41.7031 252.672C43.3222 253.481 44.9412 254.291 46.6094 255.125C50.7428 252.748 54.8317 250.293 58.875 247.766C60.4941 247.766 62.1131 247.766 63.7812 247.766C64.5908 251.004 65.4003 254.242 66.2344 257.578C60.0536 260.702 53.8692 263.818 47.6826 266.931C45.9545 267.805 44.2263 268.679 42.4458 269.58C40.7303 270.442 39.0147 271.304 37.2473 272.191C35.6928 272.975 34.1384 273.759 32.5368 274.566C25.0617 278.116 17.4187 281.303 9.8125 284.562C9.8125 243.276 9.8125 201.99 9.8125 159.453Z" fill="#555D6A"/>
<path d="M301.734 161.906C302.544 161.906 303.353 161.906 304.188 161.906C304.188 201.573 304.188 241.24 304.188 282.109C292.109 278.083 280.711 273.677 269.077 268.617C267.292 267.861 265.507 267.106 263.668 266.327C250.509 260.612 250.509 260.612 247.766 255.125C249.385 252.696 251.004 250.268 252.672 247.766C254.493 248.525 256.315 249.283 258.191 250.065C263.728 252.205 268.973 253.841 274.75 255.125C266.603 248.33 266.603 248.33 257.578 242.859C261.292 232.783 266.184 223.638 271.549 214.371C272.414 212.863 273.278 211.356 274.168 209.803C276.91 205.026 279.663 200.254 282.416 195.483C284.285 192.231 286.154 188.977 288.022 185.724C292.584 177.78 297.157 169.841 301.734 161.906Z" fill="#555D6A"/>
<path d="M204.165 123.269C208.516 127.562 208.516 127.562 210.509 135.075C208.09 143.82 205.394 148.398 198.703 154.546C190.338 155.934 187.273 155.143 180.305 150.167C176.213 146.44 172.124 142.709 168.039 138.975C162.255 134.329 162.255 134.329 155.601 134.988C148.744 137.733 145.229 140.961 140.135 146.267C132.609 153.209 131.203 154.489 120.51 155.006C112.844 152.093 112.844 152.093 109.317 148.107C107.398 140.001 107.048 133.412 107.938 125.109C111.32 119.695 111.32 119.695 117.75 115.296C126.211 114.133 134.532 114.491 143.048 114.836C147.587 114.966 152.125 115.084 156.665 115.191C158.829 115.248 160.994 115.306 163.224 115.365C169.873 115.445 169.873 115.445 178.733 113.706C190.132 112.43 195.263 116.706 204.165 123.269Z" fill="#555D6A"/>
<path d="M149.849 192.787C153.122 197.021 153.122 197.021 156.461 201.34C165.305 212.526 165.305 212.526 175.809 222.113C185.151 231.924 188.247 239.027 192.953 251.439C196.833 254.019 200.712 256.6 204.709 259.259C207.526 271.179 207.029 282.462 204.709 294.45C194.913 306.425 194.913 306.425 185.116 314C182.53 312.71 179.944 311.42 177.279 310.09C178.572 303.639 179.865 297.187 181.198 290.54C178.611 290.54 176.025 290.54 173.36 290.54C172.067 294.411 170.774 298.282 169.442 302.27C163.791 290.993 163.218 279.496 161.604 267.079C144.292 283.964 144.292 283.964 136.623 305.936C137.108 308.597 137.593 311.258 138.093 314C124.88 308.545 117.519 303.197 110.662 290.54C108.422 273.294 109.606 265.101 118.01 249.728C120.758 246.422 123.506 243.115 126.337 239.708C128.923 239.708 131.509 239.708 134.174 239.708C134.174 246.16 134.174 252.612 134.174 259.259C136.76 259.259 139.347 259.259 142.011 259.259C140.718 246.356 139.425 233.452 138.093 220.158C141.972 221.448 145.852 222.739 149.849 224.068C148.555 222.778 147.262 221.487 145.93 220.158C145.44 208.428 145.44 208.428 145.93 196.697C147.223 195.407 148.516 194.117 149.849 192.787Z" fill="#FE7507"/>
<path d="M193.797 51.5156C201.491 51.7809 204.3 54.5629 210.202 59.6416C215.354 65.6294 217.478 68.394 218.328 76.0469C216.405 75.1867 214.483 74.3266 212.502 73.4404C210.377 72.6815 208.252 71.9226 206.062 71.1406C203.634 72.3549 203.634 72.3549 201.156 73.5938C204.124 80.6084 207.062 84.43 212.502 89.999C219.691 98.2001 219.369 105.342 218.759 115.891C218.617 117.314 218.475 118.737 218.328 120.203C209.952 120.036 203.509 119.72 196.911 114.195C187.437 103.411 182.082 94.371 180.765 79.8799C181.802 68.0521 185.397 59.9157 193.797 51.5156Z" fill="#FAFCF9"/>
<path d="M184.88 238.963C195.399 247.201 203.274 253.786 206.404 267.241C207.289 285.088 206.156 292.103 194.65 306.348C191.426 308.873 188.202 311.398 184.88 314C182.301 312.696 179.722 311.393 177.065 310.05C178.354 303.534 179.644 297.018 180.972 290.304C178.393 290.304 175.814 290.304 173.157 290.304C171.867 294.214 170.578 298.123 169.249 302.152C164.038 291.62 166.627 285.696 169.249 274.507C175.697 275.81 182.145 277.113 188.788 278.456C187.499 275.849 186.209 273.243 184.88 270.557C184.356 260.003 184.712 249.537 184.88 238.963Z" fill="#FE8819"/>
<path d="M152.094 208.516C153.51 210.337 154.927 212.159 156.387 214.035C161.226 219.949 166.225 225.296 171.719 230.594C170.909 232.213 170.1 233.832 169.266 235.5C165.218 235.5 161.17 235.5 157 235.5C155.381 239.548 153.762 243.595 152.094 247.766C146.881 239.946 145.956 234.85 144.734 225.688C147.163 226.497 149.592 227.307 152.094 228.141C151.284 227.331 150.475 226.522 149.641 225.688C149.334 218.328 149.334 218.328 149.641 210.969C150.45 210.159 151.26 209.35 152.094 208.516Z" fill="#FE540E"/>
<path d="M314.565 -4.61719L234.534 94.7251C234.024 95.3629 233.384 95.8857 232.657 96.2591C231.931 96.6325 231.133 96.8482 230.318 96.892C229.502 96.9358 228.686 96.8068 227.923 96.5133C227.161 96.2198 226.469 95.7685 225.893 95.189L201.478 70.7739" stroke="#68B82D" stroke-width="15" stroke-linecap="round" stroke-linejoin="round"/>
<path d="M284.234 64.9105C286.96 76.4572 285.67 88.5879 280.578 99.3035C275.486 110.019 266.895 118.68 256.221 123.859C245.547 129.038 233.427 130.426 221.859 127.794C210.29 125.163 199.964 118.668 192.581 109.381C185.197 100.095 181.199 88.5696 181.243 76.7056C181.287 64.8417 185.372 53.3469 192.825 44.1155C200.277 34.8842 210.652 28.4673 222.24 25.9222C233.828 23.3771 245.937 24.8558 256.572 30.1146" stroke="#68B82D" stroke-width="15" stroke-linecap="round" stroke-linejoin="round"/>
</g>
<defs>
<clipPath id="clip0_340_3">
<rect width="314" height="314" rx="30" fill="white"/>
</clipPath>
</defs>
</svg>
