<svg width="420" height="417" viewBox="0 0 420 417" fill="none" xmlns="http://www.w3.org/2000/svg">
<path d="M323.75 165.062C323.799 126.585 309.505 89.4507 283.623 60.8125" stroke="black" stroke-width="15" stroke-linecap="round" stroke-linejoin="round"/>
<path d="M8.75001 199.812V251.938C8.74161 282.694 17.8683 312.769 34.9882 338.402C52.1081 364.034 76.461 384.085 105 396.046" stroke="black" stroke-width="15" stroke-linecap="round" stroke-linejoin="round"/>
<path d="M245 29.6418C221.7 16.2858 195.342 9.07866 168.44 8.70748C141.538 8.33631 114.989 14.8135 91.3237 27.5215C67.6587 40.2295 47.667 58.7445 33.2548 81.3011C18.8427 103.858 10.4906 129.704 8.99512 156.375" stroke="black" stroke-width="15" stroke-linecap="round" stroke-linejoin="round"/>
<path d="M127 70.4806C142.999 63.2 160.584 60.0288 178.14 61.2585C195.695 62.4883 212.658 68.0795 227.469 77.5183C242.279 86.9571 254.463 99.9406 262.899 115.276C271.336 130.611 275.755 147.805 275.75 165.279V190.055" stroke="black" stroke-width="15" stroke-linecap="round" stroke-linejoin="round"/>
<path d="M87.7401 101C70.4878 120.093 60.9628 144.85 61.0001 170.5V257.375C60.9883 275.68 65.8313 293.666 75.0422 309.523C84.253 325.381 97.5069 338.551 113.471 347.708C129.435 356.866 147.546 361.689 165.983 361.692C184.42 361.695 202.533 356.878 218.5 347.725" stroke="black" stroke-width="15" stroke-linecap="round" stroke-linejoin="round"/>
<path d="M113.75 251.938C113.75 265.762 119.281 279.02 129.127 288.795C138.973 298.571 152.326 304.062 166.25 304.062C180.174 304.062 193.527 298.571 203.373 288.795C213.219 279.02 218.75 265.762 218.75 251.938V165.062C218.75 151.238 213.219 137.98 203.373 128.205C193.527 118.429 180.174 112.938 166.25 112.938C152.326 112.938 138.973 118.429 129.127 128.205C119.281 137.98 113.75 151.238 113.75 165.062V217.188" stroke="black" stroke-width="15" stroke-linecap="round" stroke-linejoin="round"/>
<path d="M166.25 165.062V217.188" stroke="black" stroke-width="15" stroke-linecap="round" stroke-linejoin="round"/>
<path d="M166.25 251.938V269.312" stroke="black" stroke-width="15" stroke-linecap="round" stroke-linejoin="round"/>
<path d="M166.25 408.312C181.19 408.324 196.056 406.23 210.402 402.092" stroke="black" stroke-width="15" stroke-linecap="round" stroke-linejoin="round"/>
<path d="M312.183 182.16L338.391 235.069C338.987 236.412 339.924 237.575 341.11 238.443C342.296 239.31 343.688 239.852 345.148 240.014L403.003 248.585C404.677 248.8 406.256 249.488 407.555 250.567C408.854 251.646 409.82 253.073 410.339 254.68C410.857 256.287 410.908 258.009 410.484 259.644C410.06 261.279 409.18 262.76 407.947 263.913L366.247 305.285C365.182 306.279 364.382 307.524 363.923 308.906C363.463 310.287 363.354 311.762 363.609 313.196L373.664 371.38C373.954 373.051 373.771 374.772 373.133 376.344C372.493 377.917 371.427 379.278 370.054 380.274C368.679 381.271 367.054 381.861 365.36 381.978C363.667 382.097 361.976 381.736 360.478 380.939L308.392 353.414C307.059 352.759 305.593 352.418 304.107 352.418C302.621 352.418 301.155 352.759 299.821 353.414L247.737 380.939C246.238 381.736 244.546 382.097 242.853 381.978C241.16 381.861 239.534 381.271 238.161 380.274C236.787 379.278 235.72 377.917 235.082 376.344C234.443 374.772 234.259 373.051 234.551 371.38L244.605 312.537C244.86 311.103 244.752 309.628 244.291 308.246C243.831 306.864 243.032 305.62 241.968 304.625L199.772 263.913C198.524 262.728 197.646 261.207 197.245 259.533C196.844 257.859 196.937 256.104 197.512 254.482C198.088 252.86 199.122 251.439 200.488 250.393C201.855 249.346 203.495 248.718 205.212 248.585L263.065 240.014C264.526 239.852 265.918 239.31 267.104 238.443C268.289 237.575 269.227 236.412 269.823 235.069L296.03 182.16C296.744 180.619 297.884 179.314 299.315 178.4C300.746 177.486 302.409 177 304.107 177C305.805 177 307.468 177.486 308.899 178.4C310.33 179.314 311.47 180.619 312.183 182.16Z" fill="#68B82D" fill-opacity="0.13" stroke="#68B82D" stroke-width="15" stroke-linecap="round" stroke-linejoin="round"/>
</svg>
