<svg width="420" height="417" viewBox="0 0 420 417" fill="none" xmlns="http://www.w3.org/2000/svg">
<g clip-path="url(#clip0_323_131)">
<path d="M323.75 165.062C323.799 126.585 309.505 89.4507 283.623 60.8125" stroke="#68B82D" stroke-width="15" stroke-linecap="round" stroke-linejoin="round"/>
<path d="M8.75001 199.812V251.938C8.74161 282.694 17.8683 312.769 34.9882 338.402C52.1081 364.034 76.461 384.085 105 396.046" stroke="#68B82D" stroke-width="15" stroke-linecap="round" stroke-linejoin="round"/>
<path d="M245 29.6418C221.7 16.2858 195.342 9.07866 168.44 8.70748C141.538 8.33631 114.989 14.8135 91.3237 27.5215C67.6587 40.2295 47.667 58.7445 33.2548 81.3011C18.8427 103.858 10.4906 129.704 8.99512 156.375" stroke="#68B82D" stroke-width="15" stroke-linecap="round" stroke-linejoin="round"/>
<path d="M127 70.4806C142.999 63.2 160.584 60.0288 178.14 61.2585C195.695 62.4883 212.658 68.0795 227.469 77.5183C242.279 86.9571 254.463 99.9406 262.899 115.276C271.336 130.611 275.755 147.805 275.75 165.279V190.055" stroke="#68B82D" stroke-width="15" stroke-linecap="round" stroke-linejoin="round"/>
<path d="M87.7401 101C70.4878 120.093 60.9628 144.85 61.0001 170.5V257.375C60.9883 275.68 65.8313 293.666 75.0422 309.523C84.253 325.381 97.5069 338.551 113.471 347.708C129.435 356.866 147.546 361.689 165.983 361.692C184.42 361.695 202.533 356.878 218.5 347.725" stroke="#68B82D" stroke-width="15" stroke-linecap="round" stroke-linejoin="round"/>
<path d="M113.75 251.938C113.75 265.762 119.281 279.02 129.127 288.795C138.973 298.571 152.326 304.062 166.25 304.062C180.174 304.062 193.527 298.571 203.373 288.795C213.219 279.02 218.75 265.762 218.75 251.938V165.062C218.75 151.238 213.219 137.98 203.373 128.205C193.527 118.429 180.174 112.938 166.25 112.938C152.326 112.938 138.973 118.429 129.127 128.205C119.281 137.98 113.75 151.238 113.75 165.062V217.188" stroke="#68B82D" stroke-width="15" stroke-linecap="round" stroke-linejoin="round"/>
<path d="M166.25 165.062V217.188" stroke="#68B82D" stroke-width="15" stroke-linecap="round" stroke-linejoin="round"/>
<path d="M166.25 251.938V269.312" stroke="#68B82D" stroke-width="15" stroke-linecap="round" stroke-linejoin="round"/>
<path d="M166.25 408.312C181.19 408.324 196.056 406.23 210.402 402.092" stroke="#68B82D" stroke-width="15" stroke-linecap="round" stroke-linejoin="round"/>
<path d="M388.381 338.644C376.468 387.035 327.462 416.578 278.923 404.629C230.384 392.68 200.694 343.764 212.607 295.372C224.519 246.98 273.525 217.437 322.064 229.387C338.021 233.315 351.941 241.238 363.015 251.824M363.015 251.824L359.427 211.252M363.015 251.824L363.352 255.634L318.856 259.486" stroke="#68B82D" stroke-width="15" stroke-linecap="round" stroke-linejoin="round"/>
</g>
<defs>
<clipPath id="clip0_323_131">
<rect width="420" height="417" fill="white"/>
</clipPath>
</defs>
</svg>
