<svg width="512" height="512" viewBox="0 0 512 512" fill="none" xmlns="http://www.w3.org/2000/svg">
<g clip-path="url(#clip0_323_61)">
<mask id="path-1-inside-1_323_61" fill="white">
<path d="M80.5904 212.733C82.1626 212.729 83.7348 212.725 85.307 212.719C89.607 212.707 93.9069 212.707 98.207 212.71C102.853 212.71 107.498 212.699 112.144 212.69C121.239 212.673 130.334 212.667 139.429 212.666C146.826 212.665 154.223 212.661 161.62 212.655C182.614 212.637 203.608 212.628 224.602 212.63C226.298 212.63 226.298 212.63 228.029 212.63C229.161 212.63 230.293 212.63 231.46 212.63C249.8 212.631 268.14 212.612 286.479 212.584C305.332 212.555 324.184 212.541 343.037 212.543C353.612 212.543 364.188 212.538 374.763 212.516C383.77 212.498 392.776 212.494 401.783 212.507C406.372 212.514 410.961 212.514 415.551 212.497C419.764 212.481 423.976 212.484 428.189 212.501C429.702 212.504 431.214 212.501 432.727 212.489C453.677 212.344 472.185 217.689 488 232C488.77 232.677 489.539 233.354 490.332 234.051C503.281 246.117 511.628 263.862 512.336 281.602C512.658 302.924 508.611 321.667 494 338C493.357 338.736 492.714 339.472 492.051 340.231C479.509 353.7 461.844 362.257 443.392 363.181C439.045 363.271 434.699 363.248 430.351 363.227C428.685 363.227 427.018 363.227 425.352 363.228C420.854 363.229 416.357 363.217 411.86 363.203C407.15 363.191 402.44 363.189 397.731 363.187C388.824 363.181 379.917 363.165 371.01 363.144C360.865 363.122 350.72 363.111 340.575 363.101C319.717 363.08 298.858 363.043 278 363C278 376.86 278 390.72 278 405C281.3 405 284.6 405 288 405C292.987 407.494 296.497 410.994 299 416C299.07 417.707 299.084 419.417 299.063 421.125C299.054 422.035 299.045 422.946 299.035 423.883C299.018 424.931 299.018 424.931 299 426C299.672 425.997 300.344 425.993 301.036 425.989C317.413 425.901 333.789 425.835 350.166 425.793C358.085 425.773 366.005 425.744 373.925 425.699C380.83 425.659 387.735 425.633 394.641 425.624C398.295 425.619 401.949 425.607 405.603 425.577C409.689 425.545 413.775 425.544 417.861 425.546C419.063 425.532 420.265 425.518 421.503 425.503C429.19 425.54 436.086 426.288 441.876 431.78C447.597 438.085 448.511 443.01 448.379 451.512C447.689 457.866 444.661 461.666 440.063 465.875C435.306 469.176 431.014 470.252 425.267 470.241C424.148 470.244 423.029 470.246 421.877 470.249C420.664 470.242 419.451 470.235 418.202 470.227C416.269 470.228 416.269 470.228 414.298 470.228C410.777 470.229 407.257 470.217 403.737 470.203C400.054 470.191 396.37 470.19 392.686 470.187C385.717 470.181 378.747 470.165 371.777 470.144C363.84 470.122 355.903 470.111 347.966 470.101C331.644 470.08 315.322 470.045 299 470C299.029 471.024 299.029 471.024 299.059 472.069C299.075 472.967 299.09 473.865 299.106 474.789C299.135 476.123 299.135 476.123 299.165 477.483C298.839 482.467 295.957 485.157 292.375 488.313C288.63 490.974 286.577 491.137 281.993 491.177C280.731 491.19 279.47 491.203 278.17 491.216C276.785 491.224 275.4 491.232 274.016 491.239C273.319 491.243 272.622 491.247 271.904 491.251C268.215 491.272 264.525 491.286 260.835 491.296C257.031 491.307 253.227 491.341 249.423 491.381C246.492 491.407 243.562 491.415 240.631 491.419C239.229 491.424 237.828 491.435 236.426 491.454C234.459 491.478 232.492 491.475 230.525 491.47C229.407 491.476 228.289 491.482 227.138 491.488C222.094 490.704 219.002 488.137 215.688 484.375C213.209 480.886 212.883 479.116 212.938 474.875C212.947 473.965 212.956 473.055 212.965 472.118C212.982 471.07 212.982 471.07 213 470C212.328 470.004 211.656 470.008 210.964 470.012C194.587 470.1 178.211 470.166 161.834 470.208C153.915 470.228 145.995 470.256 138.076 470.302C131.17 470.342 124.265 470.368 117.359 470.377C113.705 470.382 110.051 470.394 106.398 470.423C102.311 470.456 98.2254 470.456 94.139 470.454C92.9371 470.469 91.7351 470.483 90.4968 470.498C82.8097 470.46 75.9144 469.712 70.1237 464.221C64.4027 457.916 63.4887 452.991 63.6212 444.489C64.3113 438.135 67.3396 434.335 71.9376 430.125C76.6941 426.825 80.9866 425.749 86.7328 425.76C87.8518 425.757 88.9707 425.754 90.1235 425.752C91.9426 425.762 91.9426 425.762 93.7984 425.773C95.0868 425.773 96.3751 425.773 97.7025 425.772C101.223 425.772 104.743 425.784 108.263 425.798C111.947 425.81 115.63 425.811 119.314 425.814C126.283 425.82 133.253 425.836 140.223 425.856C148.16 425.879 156.097 425.89 164.034 425.9C180.356 425.921 196.678 425.956 213 426C212.981 425.318 212.961 424.635 212.941 423.932C212.918 422.585 212.918 422.585 212.895 421.211C212.875 420.322 212.855 419.433 212.835 418.517C213.162 413.533 216.043 410.844 219.625 407.688C225.139 403.77 225.073 405 234 405C234 391.14 234 377.28 234 363C226.454 363.032 226.454 363.032 218.756 363.064C202.096 363.13 185.436 363.175 168.776 363.208C158.68 363.228 148.584 363.256 138.487 363.302C129.68 363.342 120.873 363.368 112.066 363.377C107.409 363.382 102.752 363.394 98.0956 363.423C93.6986 363.451 89.3019 363.459 84.9048 363.453C83.3042 363.454 81.7035 363.462 80.103 363.477C58.8293 363.673 40.1215 358.589 24.0001 344C23.2305 343.324 22.4609 342.647 21.6681 341.95C9.00791 330.152 0.386001 312.509 -0.371009 295.129C-0.835012 270.294 4.85361 251.92 22.0626 233.5C38.3969 217.664 58.4165 212.683 80.5904 212.733ZM52.7657 265.082C45.9475 272.386 42.598 279.612 42.7891 289.762C43.63 298.684 47.2761 305.766 53.922 311.723C60.8851 317.215 68.4409 320.67 77.4493 319.75C87.4985 318.027 94.5205 313.931 101 306C105.833 298.312 106.778 291.005 106 282C103.743 272.509 97.7246 265.289 89.6798 259.961C77.5706 253.034 62.7104 255.816 52.7657 265.082ZM158.75 265.75C151.687 273.188 149.604 280.755 149.727 290.836C150.555 300.418 155.646 307.426 162.797 313.536C169.143 318.351 176.421 320.412 184.383 319.825C193.969 318.337 201.524 313.505 207.598 306.016C212.196 299.406 213.752 291.981 213 284C211.143 274.104 206.237 266.815 198 261C184.514 253.567 170.098 255.073 158.75 265.75Z"/>
</mask>
<path d="M80.5904 212.733C82.1626 212.729 83.7348 212.725 85.307 212.719C89.607 212.707 93.9069 212.707 98.207 212.71C102.853 212.71 107.498 212.699 112.144 212.69C121.239 212.673 130.334 212.667 139.429 212.666C146.826 212.665 154.223 212.661 161.62 212.655C182.614 212.637 203.608 212.628 224.602 212.63C226.298 212.63 226.298 212.63 228.029 212.63C229.161 212.63 230.293 212.63 231.46 212.63C249.8 212.631 268.14 212.612 286.479 212.584C305.332 212.555 324.184 212.541 343.037 212.543C353.612 212.543 364.188 212.538 374.763 212.516C383.77 212.498 392.776 212.494 401.783 212.507C406.372 212.514 410.961 212.514 415.551 212.497C419.764 212.481 423.976 212.484 428.189 212.501C429.702 212.504 431.214 212.501 432.727 212.489C453.677 212.344 472.185 217.689 488 232C488.77 232.677 489.539 233.354 490.332 234.051C503.281 246.117 511.628 263.862 512.336 281.602C512.658 302.924 508.611 321.667 494 338C493.357 338.736 492.714 339.472 492.051 340.231C479.509 353.7 461.844 362.257 443.392 363.181C439.045 363.271 434.699 363.248 430.351 363.227C428.685 363.227 427.018 363.227 425.352 363.228C420.854 363.229 416.357 363.217 411.86 363.203C407.15 363.191 402.44 363.189 397.731 363.187C388.824 363.181 379.917 363.165 371.01 363.144C360.865 363.122 350.72 363.111 340.575 363.101C319.717 363.08 298.858 363.043 278 363C278 376.86 278 390.72 278 405C281.3 405 284.6 405 288 405C292.987 407.494 296.497 410.994 299 416C299.07 417.707 299.084 419.417 299.063 421.125C299.054 422.035 299.045 422.946 299.035 423.883C299.018 424.931 299.018 424.931 299 426C299.672 425.997 300.344 425.993 301.036 425.989C317.413 425.901 333.789 425.835 350.166 425.793C358.085 425.773 366.005 425.744 373.925 425.699C380.83 425.659 387.735 425.633 394.641 425.624C398.295 425.619 401.949 425.607 405.603 425.577C409.689 425.545 413.775 425.544 417.861 425.546C419.063 425.532 420.265 425.518 421.503 425.503C429.19 425.54 436.086 426.288 441.876 431.78C447.597 438.085 448.511 443.01 448.379 451.512C447.689 457.866 444.661 461.666 440.063 465.875C435.306 469.176 431.014 470.252 425.267 470.241C424.148 470.244 423.029 470.246 421.877 470.249C420.664 470.242 419.451 470.235 418.202 470.227C416.269 470.228 416.269 470.228 414.298 470.228C410.777 470.229 407.257 470.217 403.737 470.203C400.054 470.191 396.37 470.19 392.686 470.187C385.717 470.181 378.747 470.165 371.777 470.144C363.84 470.122 355.903 470.111 347.966 470.101C331.644 470.08 315.322 470.045 299 470C299.029 471.024 299.029 471.024 299.059 472.069C299.075 472.967 299.09 473.865 299.106 474.789C299.135 476.123 299.135 476.123 299.165 477.483C298.839 482.467 295.957 485.157 292.375 488.313C288.63 490.974 286.577 491.137 281.993 491.177C280.731 491.19 279.47 491.203 278.17 491.216C276.785 491.224 275.4 491.232 274.016 491.239C273.319 491.243 272.622 491.247 271.904 491.251C268.215 491.272 264.525 491.286 260.835 491.296C257.031 491.307 253.227 491.341 249.423 491.381C246.492 491.407 243.562 491.415 240.631 491.419C239.229 491.424 237.828 491.435 236.426 491.454C234.459 491.478 232.492 491.475 230.525 491.47C229.407 491.476 228.289 491.482 227.138 491.488C222.094 490.704 219.002 488.137 215.688 484.375C213.209 480.886 212.883 479.116 212.938 474.875C212.947 473.965 212.956 473.055 212.965 472.118C212.982 471.07 212.982 471.07 213 470C212.328 470.004 211.656 470.008 210.964 470.012C194.587 470.1 178.211 470.166 161.834 470.208C153.915 470.228 145.995 470.256 138.076 470.302C131.17 470.342 124.265 470.368 117.359 470.377C113.705 470.382 110.051 470.394 106.398 470.423C102.311 470.456 98.2254 470.456 94.139 470.454C92.9371 470.469 91.7351 470.483 90.4968 470.498C82.8097 470.46 75.9144 469.712 70.1237 464.221C64.4027 457.916 63.4887 452.991 63.6212 444.489C64.3113 438.135 67.3396 434.335 71.9376 430.125C76.6941 426.825 80.9866 425.749 86.7328 425.76C87.8518 425.757 88.9707 425.754 90.1235 425.752C91.9426 425.762 91.9426 425.762 93.7984 425.773C95.0868 425.773 96.3751 425.773 97.7025 425.772C101.223 425.772 104.743 425.784 108.263 425.798C111.947 425.81 115.63 425.811 119.314 425.814C126.283 425.82 133.253 425.836 140.223 425.856C148.16 425.879 156.097 425.89 164.034 425.9C180.356 425.921 196.678 425.956 213 426C212.981 425.318 212.961 424.635 212.941 423.932C212.918 422.585 212.918 422.585 212.895 421.211C212.875 420.322 212.855 419.433 212.835 418.517C213.162 413.533 216.043 410.844 219.625 407.688C225.139 403.77 225.073 405 234 405C234 391.14 234 377.28 234 363C226.454 363.032 226.454 363.032 218.756 363.064C202.096 363.13 185.436 363.175 168.776 363.208C158.68 363.228 148.584 363.256 138.487 363.302C129.68 363.342 120.873 363.368 112.066 363.377C107.409 363.382 102.752 363.394 98.0956 363.423C93.6986 363.451 89.3019 363.459 84.9048 363.453C83.3042 363.454 81.7035 363.462 80.103 363.477C58.8293 363.673 40.1215 358.589 24.0001 344C23.2305 343.324 22.4609 342.647 21.6681 341.95C9.00791 330.152 0.386001 312.509 -0.371009 295.129C-0.835012 270.294 4.85361 251.92 22.0626 233.5C38.3969 217.664 58.4165 212.683 80.5904 212.733ZM52.7657 265.082C45.9475 272.386 42.598 279.612 42.7891 289.762C43.63 298.684 47.2761 305.766 53.922 311.723C60.8851 317.215 68.4409 320.67 77.4493 319.75C87.4985 318.027 94.5205 313.931 101 306C105.833 298.312 106.778 291.005 106 282C103.743 272.509 97.7246 265.289 89.6798 259.961C77.5706 253.034 62.7104 255.816 52.7657 265.082ZM158.75 265.75C151.687 273.188 149.604 280.755 149.727 290.836C150.555 300.418 155.646 307.426 162.797 313.536C169.143 318.351 176.421 320.412 184.383 319.825C193.969 318.337 201.524 313.505 207.598 306.016C212.196 299.406 213.752 291.981 213 284C211.143 274.104 206.237 266.815 198 261C184.514 253.567 170.098 255.073 158.75 265.75Z" fill="#68B82D" fill-opacity="0.24" stroke="#8CFF37" stroke-width="10" mask="url(#path-1-inside-1_323_61)"/>
<path d="M80.5964 23.233L80.5848 23.233C58.822 23.1836 39.5467 28.0577 23.847 43.2524C7.189 61.1026 1.67984 78.7967 2.12797 103.051C2.86297 119.712 11.1561 136.724 23.3464 148.096L25.651 150.123L25.6644 150.135L25.6775 150.147C40.9298 163.949 58.7839 169.153 79.2557 169.011C80.7766 169 82.2969 168.997 83.8164 169L83.8217 169C88.0289 169.017 92.2346 169.02 96.4399 169.004C101.036 168.987 105.63 168.987 110.221 168.993C119.224 169.007 128.228 169.003 137.232 168.984C147.81 168.963 158.387 168.957 168.964 168.958C187.815 168.96 206.666 168.946 225.517 168.917C243.857 168.889 262.199 168.87 280.54 168.871L283.972 168.871L287.399 168.871C308.392 168.873 329.385 168.863 350.378 168.846C357.775 168.84 365.173 168.835 372.571 168.834C381.665 168.833 390.758 168.828 399.851 168.811C399.851 168.811 399.851 168.811 399.851 168.811L401.549 168.808C405.628 168.799 409.711 168.791 413.793 168.791H413.795C418.094 168.794 422.39 168.794 426.685 168.782C428.258 168.776 429.831 168.772 431.404 168.768L431.415 168.768C435.455 168.777 439.479 168.764 443.501 168.689C461.186 167.702 478.13 159.498 490.194 146.556L492.118 144.355L492.127 144.344L492.137 144.334C506.175 128.641 510.149 110.615 509.837 89.6707C509.148 72.6286 501.111 55.5261 488.654 43.9047L486.349 41.8777L486.336 41.866L486.323 41.8541C471.071 28.0522 453.217 22.8476 432.746 22.9894L80.5964 23.233ZM80.5964 23.233C82.169 23.2292 83.7416 23.2246 85.3141 23.2192L80.5964 23.233ZM98.2067 23.2096L98.2056 23.2096C93.9065 23.2073 89.6106 23.207 85.3156 23.2192L98.2067 23.2096ZM98.2067 23.2096C102.293 23.21 106.379 23.2015 110.463 23.193C111.025 23.1918 111.587 23.1906 112.149 23.1895M98.2067 23.2096L112.149 23.1895M428.184 23.0012L428.178 23.0012C423.971 22.9839 419.766 22.9808 415.56 22.9966C410.965 23.0141 406.371 23.0139 401.779 23.0073C392.776 22.9938 383.772 22.9981 374.769 23.0163C364.191 23.0379 353.613 23.0434 343.036 23.0427C324.185 23.041 305.334 23.0547 286.483 23.0835C268.143 23.1117 249.801 23.1308 231.46 23.13L228.028 23.1298L224.601 23.1295C203.609 23.128 182.616 23.1373 161.623 23.1549C154.225 23.1612 146.827 23.1653 139.429 23.1663C130.335 23.1674 121.242 23.1729 112.149 23.1895C112.149 23.1895 112.149 23.1895 112.149 23.1895M428.184 23.0012L110.457 20.693C111.02 20.6918 111.582 20.6906 112.144 20.6895L112.149 23.1895M428.184 23.0012C429.703 23.0043 431.224 23.0007 432.744 22.9894L428.184 23.0012ZM51.0614 71.2534L50.9977 71.3128L50.9383 71.3764C43.7519 79.0742 40.0843 86.9069 40.2896 97.8092L40.2914 97.9031L40.3002 97.9967C41.2013 107.558 45.1491 115.217 52.2533 121.585L52.3119 121.637L52.3737 121.686C59.6295 127.409 67.8179 131.246 77.7032 130.237L77.7879 130.229L77.8719 130.214C88.5173 128.389 96.0762 123.978 102.936 115.582L103.034 115.462L103.117 115.331C108.326 107.045 109.3 99.145 108.491 89.7851L108.475 89.6014L108.432 89.422C105.995 79.1734 99.5006 71.4664 91.0601 65.8769L90.9921 65.8319L90.9212 65.7913C77.7344 58.2473 61.6949 61.3449 51.0614 71.2534ZM157.037 71.9297L156.986 71.9779L156.937 72.0289C149.318 80.052 147.098 88.3081 147.227 98.8667L147.228 98.9593L147.236 99.0516C148.141 109.528 153.743 117.089 161.173 123.436L161.228 123.483L161.286 123.527C168.134 128.724 176.019 130.948 184.567 130.318L184.667 130.31L184.766 130.295C195.044 128.7 203.129 123.495 209.539 115.591L209.597 115.519L209.65 115.444C214.635 108.279 216.288 100.244 215.489 91.7658L215.478 91.6519L215.457 91.5394C213.474 80.9665 208.178 73.125 199.442 66.958L199.328 66.8779L199.207 66.811C184.806 58.8728 169.203 60.4815 157.037 71.9297Z" fill="#68B82D" fill-opacity="0.28" stroke="#84FC2C" stroke-width="5"/>
<ellipse cx="72.5" cy="96.5" rx="34.5" ry="36.5" fill="#68B82D"/>
<ellipse cx="178.5" cy="96.5" rx="34.5" ry="36.5" fill="#68B82D"/>
<ellipse cx="183.5" cy="284.5" rx="34.5" ry="36.5" fill="#68B82D"/>
<ellipse cx="72.5" cy="284.5" rx="34.5" ry="36.5" fill="#68B82D"/>
</g>
<defs>
<clipPath id="clip0_323_61">
<rect width="512" height="512" fill="white"/>
</clipPath>
</defs>
</svg>
