<svg width="512" height="512" viewBox="0 0 512 512" fill="none" xmlns="http://www.w3.org/2000/svg">
<g clip-path="url(#clip0_323_53)">
<path d="M39.3307 -0.131006C40.0868 -0.133059 40.8429 -0.135112 41.6219 -0.137227C44.1758 -0.142917 46.7297 -0.141437 49.2837 -0.140021C51.1251 -0.142603 52.9665 -0.145616 54.8078 -0.149024C59.8841 -0.157111 64.9603 -0.158885 70.0365 -0.159621C75.5049 -0.161469 80.9734 -0.169015 86.4418 -0.175757C98.4066 -0.189353 110.371 -0.195367 122.336 -0.199767C129.803 -0.202528 137.27 -0.206765 144.738 -0.211272C165.401 -0.223466 186.065 -0.233765 206.729 -0.237147C208.065 -0.237368 209.402 -0.23759 210.738 -0.237812C212.078 -0.238033 213.418 -0.238253 214.757 -0.238473C217.445 -0.238916 220.133 -0.239363 222.821 -0.239813C223.821 -0.239977 223.821 -0.239977 224.84 -0.240145C246.452 -0.243776 268.063 -0.259697 289.674 -0.283003C312.518 -0.307594 335.362 -0.321312 358.206 -0.322515C370.66 -0.323432 383.115 -0.329208 395.569 -0.347334C406.174 -0.362713 416.778 -0.367869 427.382 -0.359596C432.795 -0.355682 438.207 -0.356658 443.619 -0.370653C448.573 -0.383345 453.526 -0.382237 458.479 -0.370063C460.272 -0.368097 462.066 -0.371222 463.859 -0.379907C466.295 -0.390958 468.73 -0.383541 471.166 -0.371516C471.864 -0.379111 472.562 -0.386706 473.281 -0.394531C480.862 -0.313627 487.452 2.91574 493 8.00042C499.905 16.1623 500.303 26.2333 500.275 36.4921C500.283 37.987 500.283 37.987 500.29 39.512C500.304 42.7764 500.303 46.0406 500.301 49.3051C500.305 51.5938 500.309 53.8824 500.314 56.1711C500.321 60.9572 500.321 65.7432 500.316 70.5292C500.31 76.6373 500.327 82.7452 500.35 88.8532C500.365 93.5769 500.366 98.3006 500.363 103.024C500.363 105.275 500.368 107.526 500.379 109.777C500.496 139.525 500.496 139.525 492.875 147.5C492.171 148.274 491.468 149.047 490.742 149.844C481.641 157 472.117 156.571 461.053 156.515C459.213 156.52 457.373 156.527 455.532 156.536C450.487 156.555 445.442 156.548 440.396 156.538C434.95 156.531 429.504 156.547 424.058 156.56C413.394 156.582 402.73 156.581 392.066 156.573C383.398 156.567 374.73 156.568 366.062 156.575C364.212 156.576 364.212 156.576 362.324 156.577C359.818 156.579 357.311 156.581 354.805 156.583C331.974 156.599 309.142 156.592 286.31 156.575C265.477 156.561 244.645 156.569 223.812 156.597C200.396 156.629 176.98 156.644 153.564 156.634C151.066 156.633 148.569 156.632 146.072 156.631C144.843 156.63 143.614 156.63 142.348 156.629C133.692 156.627 125.036 156.637 116.38 156.651C105.829 156.669 95.2785 156.669 84.7279 156.646C79.3453 156.635 73.9631 156.632 68.5805 156.65C63.6513 156.667 58.7226 156.661 53.7933 156.636C52.0121 156.631 50.2309 156.635 48.4498 156.648C37.5546 156.721 28.9487 156.109 20.3439 148.719C19.7355 147.987 19.1271 147.255 18.5002 146.5C17.8711 145.768 17.2421 145.036 16.5939 144.282C11.4922 136.979 11.8508 128.382 11.8549 119.818C11.8516 118.818 11.8482 117.819 11.8447 116.789C11.8353 113.499 11.8333 110.209 11.8322 106.918C11.829 104.621 11.8256 102.323 11.8221 100.025C11.8161 95.2128 11.8143 90.4004 11.8149 85.5881C11.815 79.4383 11.8013 73.2886 11.7841 67.1388C11.773 62.3937 11.771 57.6487 11.7715 52.9036C11.7703 50.6371 11.7659 48.3706 11.7582 46.1041C11.7483 42.9265 11.7513 39.7491 11.7573 36.5715C11.7516 35.6459 11.746 34.7204 11.7402 33.7668C11.7885 23.6551 13.0276 14.7085 20.0002 7.00042C26.2911 1.89036 31.2398 -0.151249 39.3307 -0.131006ZM307 70.0004C305.224 72.9358 304.982 74.5734 305.125 78.0004C306.135 81.4622 307.54 83.3908 310 86.0004C312.573 87.2868 314.412 87.1321 317.294 87.1409C318.417 87.1466 319.54 87.1523 320.697 87.1582C322.554 87.1598 322.554 87.1598 324.449 87.1616C325.748 87.1665 327.047 87.1715 328.386 87.1766C331.956 87.1897 335.526 87.1962 339.097 87.2006C341.327 87.2035 343.557 87.2076 345.788 87.2121C352.765 87.2258 359.742 87.2355 366.718 87.2393C374.774 87.2438 382.83 87.2613 390.885 87.2903C397.11 87.3119 403.336 87.322 409.561 87.3234C413.279 87.3244 416.998 87.3303 420.716 87.3482C424.866 87.3677 429.014 87.3634 433.164 87.3569C434.395 87.3661 435.627 87.3753 436.896 87.3848C438.594 87.3764 438.594 87.3764 440.325 87.3679C441.306 87.3694 442.287 87.3708 443.298 87.3724C446.531 86.9274 448.38 85.9216 451 84.0004C453.459 80.3117 453.816 77.282 453 73.0004C451.256 69.9783 449.167 67.5839 446 66.0004C444.253 65.8987 442.501 65.861 440.751 65.8532C439.081 65.8425 439.081 65.8425 437.378 65.8316C436.151 65.8289 434.924 65.8262 433.659 65.8234C431.728 65.8136 431.728 65.8136 429.757 65.8035C426.217 65.7861 422.678 65.7755 419.138 65.7673C416.927 65.7622 414.715 65.7561 412.504 65.7498C405.584 65.7307 398.664 65.7165 391.744 65.7082C383.758 65.6984 375.771 65.6721 367.785 65.6317C361.611 65.6015 355.438 65.5867 349.265 65.5834C345.578 65.581 341.891 65.5721 338.204 65.5469C334.089 65.5193 329.974 65.5235 325.859 65.5304C324.03 65.5112 324.03 65.5112 322.165 65.4916C315.849 65.5306 311.734 65.6128 307 70.0004ZM60.0002 73.0004C58.3792 76.2425 58.4411 79.4965 59.0002 83.0004C60.8984 86.2629 62.293 88.3878 65.9377 89.6957C69.4333 90.3181 71.5094 90.2076 74.8127 88.8129C78.6729 85.6145 79.8653 84.214 80.4377 79.0629C80.2928 74.9751 78.9633 72.8764 76.0002 70.0004C70.2957 67.1482 64.2632 68.4709 60.0002 73.0004ZM123 74.0004C122.67 74.3304 122.34 74.6604 122 75.0004C121.484 80.7482 121.484 80.7482 123.75 85.8754C127.414 89.3361 128.764 90.02 133.938 89.9379C137.115 89.4222 138.201 88.8549 140.938 86.8754C143.46 83.3596 144.076 81.3261 144 77.0004C142.021 73.2537 140.53 71.3536 137 69.0004C130.633 67.8677 127.099 68.749 123 74.0004ZM186 74.0004C184.567 76.8665 184.694 78.8134 185 82.0004C186.65 85.0651 188.056 87.3082 190.875 89.3754C195.367 90.6964 198.102 90.4843 202.25 88.2504C205.909 85.2571 206.818 83.7168 207.313 79.0629C206.953 75.5426 206.164 73.7824 204 71.0004C201.029 68.6897 197.749 68.5295 194.035 68.6059C190.383 69.3139 188.562 71.3758 186 74.0004Z" fill="black"/>
<path d="M40.7985 355.617C41.9357 355.609 41.9357 355.609 43.0958 355.601C45.6327 355.589 48.1692 355.597 50.7062 355.605C52.5447 355.6 54.3833 355.594 56.2219 355.587C61.2719 355.57 66.3218 355.573 71.3718 355.578C76.8191 355.581 82.2664 355.566 87.7137 355.554C98.3849 355.533 109.056 355.528 119.727 355.53C128.401 355.532 137.074 355.528 145.748 355.52C148.245 355.518 150.743 355.516 153.24 355.514C154.483 355.513 155.727 355.512 157.007 355.511C177.843 355.494 198.678 355.491 219.513 355.497C220.507 355.498 220.507 355.498 221.521 355.498C222.861 355.498 224.201 355.499 225.541 355.499C246.387 355.505 267.232 355.49 288.078 355.458C311.504 355.422 334.929 355.402 358.355 355.407C370.756 355.409 383.158 355.404 395.559 355.379C406.117 355.358 416.675 355.355 427.233 355.374C432.62 355.383 438.006 355.384 443.392 355.363C448.326 355.345 453.258 355.349 458.191 355.372C459.974 355.376 461.756 355.372 463.539 355.358C474.487 355.281 482.705 356.112 491.621 363.035C502.285 374.937 500.43 390.57 500.363 405.57C500.363 407.861 500.363 410.151 500.365 412.442C500.364 417.224 500.354 422.007 500.336 426.789C500.313 432.9 500.313 439.01 500.319 445.12C500.323 449.844 500.316 454.568 500.306 459.291C500.303 461.544 500.301 463.796 500.303 466.049C500.303 469.202 500.291 472.355 500.274 475.508C500.278 476.884 500.278 476.884 500.282 478.289C500.196 488.813 498.787 496.565 491.687 504.625C485.569 510.032 479.809 512.151 471.69 512.134C470.56 512.137 470.56 512.137 469.406 512.141C466.86 512.148 464.314 512.147 461.768 512.147C459.932 512.15 458.096 512.154 456.26 512.158C451.199 512.168 446.138 512.172 441.077 512.174C435.625 512.178 430.173 512.188 424.721 512.197C411.546 512.216 398.371 512.226 385.196 512.235C378.995 512.24 372.794 512.245 366.592 512.25C345.984 512.267 325.375 512.282 304.766 512.289C299.416 512.291 294.066 512.293 288.716 512.295C287.719 512.295 287.719 512.295 286.702 512.296C265.153 512.303 243.604 512.327 222.055 512.359C199.275 512.394 176.494 512.413 153.713 512.417C141.294 512.419 128.876 512.428 116.457 512.453C105.882 512.475 95.3064 512.483 84.731 512.473C79.3345 512.469 73.9382 512.471 68.5417 512.49C63.6006 512.507 58.6598 512.507 53.7187 512.491C51.932 512.489 50.1452 512.493 48.3585 512.505C31.1937 512.612 31.1937 512.612 23.9998 508C23.0923 507.422 22.1848 506.845 21.2498 506.25C13.3464 498.346 11.7986 489.109 11.7287 478.255C11.7328 477.333 11.7368 476.411 11.741 475.46C11.7375 474.459 11.734 473.458 11.7304 472.426C11.7216 469.147 11.7274 465.868 11.7342 462.589C11.7328 460.294 11.7309 457.998 11.7284 455.702C11.7254 450.903 11.7297 446.105 11.739 441.306C11.7504 435.171 11.7439 429.036 11.7319 422.9C11.7246 418.164 11.727 413.428 11.7321 408.691C11.7335 406.429 11.7319 404.168 11.7272 401.906C11.7221 398.74 11.7299 395.575 11.741 392.41C11.7369 391.485 11.7329 390.561 11.7287 389.608C11.7898 380.16 13.0415 371.206 19.7927 364.117C26.2179 358.176 32.0186 355.535 40.7985 355.617ZM308 425C305.773 428.232 304.982 430.131 305.062 434.062C306.141 437.443 307.576 439.429 310 442C312.58 443.29 314.441 443.134 317.332 443.147C319.029 443.158 319.029 443.158 320.76 443.168C322.631 443.173 322.631 443.173 324.54 443.177C325.849 443.183 327.158 443.19 328.507 443.197C332.104 443.214 335.701 443.224 339.298 443.233C341.545 443.238 343.792 443.244 346.039 443.25C353.069 443.269 360.098 443.284 367.127 443.292C375.244 443.302 383.36 443.328 391.476 443.368C397.748 443.399 404.019 443.413 410.291 443.417C414.038 443.419 417.784 443.428 421.531 443.453C425.711 443.481 429.891 443.477 434.071 443.47C435.933 443.489 435.933 443.489 437.833 443.508C438.973 443.501 440.112 443.495 441.287 443.487C442.275 443.49 443.263 443.492 444.282 443.495C447.769 442.86 449.456 441.415 452 439C453.615 435.769 453.589 432.492 453 429C451.043 425.472 448.891 423.297 445 422C443.237 421.903 441.471 421.865 439.706 421.859C438.608 421.853 437.511 421.848 436.38 421.842C434.573 421.84 434.573 421.84 432.729 421.838C431.461 421.834 430.192 421.829 428.885 421.823C425.404 421.81 421.922 421.804 418.44 421.799C416.265 421.796 414.089 421.792 411.913 421.788C405.103 421.774 398.293 421.765 391.483 421.761C383.626 421.756 375.77 421.739 367.913 421.71C361.837 421.688 355.761 421.678 349.686 421.677C346.058 421.676 342.431 421.67 338.803 421.652C334.755 421.632 330.707 421.637 326.659 421.643C325.46 421.634 324.261 421.625 323.026 421.615C315.077 421.614 315.077 421.614 308 425ZM60.9998 428C58.5406 431.688 58.1839 434.718 58.9998 439C60.7443 442.022 62.8328 444.416 65.9998 446C70.5588 446.529 70.5588 446.529 74.7576 444.953C78.631 441.772 79.885 440.166 80.3748 435.187C80.3549 431.541 80.0659 431.079 77.5623 428.062C76.7167 427.381 75.871 426.701 74.9998 426C74.6698 425.67 74.3398 425.34 73.9998 425C68.6693 424.644 65.3425 424.551 60.9998 428ZM124 428C121.428 431.429 121.498 434.839 122 439C124.05 442.571 125.235 444.39 129.125 445.734C133.317 446.442 135.534 446.22 139.437 444.375C142.14 441.87 143.233 440.579 144 437C143.796 432.114 142.329 429.531 139 426C133.92 423.459 128.241 424.507 124 428ZM186 430C184.943 432.75 184.65 435.073 185 438C187.034 442.068 188.767 444.359 193 446C197.206 446.222 200.879 445.672 204.5 443.5C206.728 439.786 207.463 436.32 207 432C205.351 428.87 203.204 426.602 200 425C193.587 424.358 190.419 424.826 186 430Z" fill="black"/>
<path d="M40.6783 177.743C41.8141 177.738 41.8141 177.738 42.9729 177.732C45.5129 177.723 48.0526 177.728 50.5926 177.733C52.4311 177.729 54.2695 177.724 56.1079 177.719C61.1621 177.707 66.2162 177.707 71.2704 177.709C76.7204 177.71 82.1704 177.699 87.6205 177.689C98.2988 177.673 108.977 177.667 119.656 177.666C128.334 177.665 137.013 177.661 145.692 177.655C170.291 177.637 194.891 177.628 219.49 177.629C220.485 177.629 220.485 177.629 221.499 177.63C222.84 177.63 224.181 177.63 225.521 177.63C246.38 177.631 267.24 177.616 288.099 177.589C311.535 177.558 334.972 177.541 358.408 177.543C370.817 177.543 383.226 177.538 395.634 177.516C406.199 177.498 416.763 177.494 427.327 177.507C432.718 177.514 438.108 177.514 443.498 177.497C448.434 177.481 453.369 177.484 458.304 177.501C460.089 177.504 461.873 177.5 463.658 177.489C473.906 177.43 482.556 177.423 490.75 184.313C491.492 185.2 492.235 186.087 493 187C493.442 187.503 493.884 188.006 494.34 188.524C500.358 195.955 500.299 205.344 500.259 214.524C500.264 216.023 500.264 216.023 500.269 217.553C500.278 220.827 500.272 224.101 500.265 227.375C500.267 229.669 500.269 231.962 500.271 234.256C500.274 239.05 500.27 243.844 500.261 248.639C500.249 254.765 500.256 260.891 500.268 267.017C500.275 271.75 500.273 276.482 500.267 281.214C500.266 283.472 500.268 285.73 500.272 287.988C500.277 291.151 500.27 294.314 500.259 297.477C500.263 298.398 500.267 299.318 500.271 300.267C500.206 310.26 499.057 319.469 492 327C485.386 331.896 479.9 334.151 471.693 334.137C470.94 334.14 470.186 334.143 469.41 334.145C466.865 334.153 464.32 334.154 461.774 334.154C459.939 334.158 458.104 334.163 456.269 334.167C451.21 334.179 446.151 334.185 441.092 334.19C435.642 334.196 430.192 334.207 424.742 334.218C411.571 334.242 398.401 334.257 385.23 334.27C381.511 334.274 377.792 334.278 374.073 334.282C350.988 334.307 327.903 334.329 304.818 334.341C299.469 334.344 294.12 334.347 288.771 334.35C287.774 334.351 287.774 334.351 286.757 334.351C265.215 334.364 243.674 334.395 222.132 334.436C199.357 334.48 176.582 334.506 153.807 334.511C141.392 334.515 128.978 334.527 116.563 334.559C105.99 334.587 95.4173 334.598 84.8445 334.587C79.4499 334.582 74.0555 334.585 68.6609 334.61C63.7203 334.632 58.7803 334.632 53.8396 334.613C52.0542 334.61 50.2688 334.615 48.4834 334.63C37.3972 334.718 28.9003 334.003 20.1248 326.563C12.6168 317.509 11.6905 308.957 11.741 297.477C11.7375 296.477 11.734 295.477 11.7304 294.447C11.7216 291.173 11.7274 287.899 11.7342 284.625C11.7328 282.332 11.7309 280.038 11.7284 277.745C11.7254 272.95 11.7297 268.156 11.739 263.362C11.7504 257.235 11.7439 251.109 11.7319 244.983C11.7246 240.251 11.727 235.519 11.7321 230.787C11.7335 228.528 11.7319 226.27 11.7272 224.012C11.7221 220.849 11.7299 217.687 11.741 214.524C11.7369 213.603 11.7329 212.682 11.7287 211.733C11.7947 201.5 13.1667 192.912 19.9998 185C26.0702 179.407 32.491 177.695 40.6783 177.743ZM60.1873 248.688C58.4403 252.09 58.188 255.314 58.9998 259C61.2918 261.961 61.2918 261.961 63.9998 264C64.3298 264.33 64.6598 264.66 64.9998 265C69.6152 265.582 73.0011 265.624 76.9998 263.125C80.0343 259.901 80.4168 257.556 80.3357 253.106C79.7205 249.25 77.8958 247.474 74.9998 245C68.798 242.775 64.9074 244.293 60.1873 248.688ZM123.187 248.75C121.471 252.002 121.618 254.375 122 258C123.651 261.539 124.716 262.811 128 265C132.503 265.725 135.993 265.6 139.937 263.25C143.109 259.79 144.024 258.35 143.937 253.563C142.829 249.352 141.313 247.748 138 245C132.227 242.114 127.461 244.624 123.187 248.75ZM187 248C184.745 250.745 185 252.295 185 255.938C185.56 259.381 186.142 260.166 188.562 263C192.626 265.364 195.413 266.167 200 265C203.013 263.23 205.412 261.176 207 258C207.083 254.906 206.793 251.994 206 249C203.029 245.953 200.49 244.17 196.25 243.688C192.142 244.083 190.171 245.406 187 248ZM305.625 252.813C304.651 256.22 305.103 258.593 306 262C308.19 264.583 309.968 266.484 313 268C314.737 268.1 316.478 268.135 318.218 268.141C319.877 268.149 319.877 268.149 321.57 268.158C322.789 268.159 324.008 268.16 325.265 268.161C326.544 268.166 327.824 268.171 329.143 268.176C332.659 268.19 336.176 268.196 339.693 268.2C341.889 268.203 344.086 268.207 346.283 268.212C353.155 268.226 360.027 268.235 366.9 268.239C374.834 268.244 382.769 268.261 390.703 268.29C396.835 268.312 402.967 268.322 409.098 268.323C412.761 268.324 416.424 268.33 420.086 268.348C424.173 268.368 428.26 268.363 432.347 268.357C433.56 268.366 434.773 268.375 436.023 268.385C437.138 268.379 438.252 268.373 439.401 268.368C440.367 268.369 441.333 268.371 442.329 268.372C446.294 267.82 448.92 266.005 451.812 263.313C453.559 259.911 453.812 256.686 453 253C450.708 250.04 450.708 250.04 448 248C447.67 247.67 447.34 247.34 447 247C445.265 246.895 443.526 246.861 441.788 246.853C440.093 246.842 440.093 246.842 438.364 246.831C437.113 246.829 435.862 246.826 434.573 246.823C433.264 246.817 431.955 246.81 430.607 246.803C427.005 246.786 423.404 246.775 419.803 246.767C417.553 246.762 415.304 246.756 413.055 246.75C406.02 246.731 398.986 246.716 391.951 246.708C383.826 246.698 375.702 246.672 367.577 246.632C361.301 246.601 355.025 246.587 348.749 246.583C344.999 246.581 341.249 246.572 337.499 246.547C333.314 246.519 329.129 246.523 324.944 246.53C323.701 246.517 322.459 246.505 321.178 246.491C319.466 246.502 319.466 246.502 317.719 246.513C316.235 246.509 316.235 246.509 314.721 246.505C310.614 247.252 308.109 249.538 305.625 252.813Z" fill="black"/>
<circle cx="72.5" cy="78.5" r="17.5" fill="white"/>
<circle cx="71.5" cy="256.5" r="17.5" fill="white"/>
<circle cx="71.5" cy="434.5" r="17.5" fill="white"/>
</g>
<defs>
<clipPath id="clip0_323_53">
<rect width="512" height="512" fill="white"/>
</clipPath>
</defs>
</svg>
