<svg width="132" height="68" viewBox="0 0 132 68" fill="none" xmlns="http://www.w3.org/2000/svg">
<path d="M45.9471 8H48.6462V10.6667H51.1152V8H53.8145V16.0753H51.1154V13.3711H48.6464V16.0753H45.9473L45.9471 8ZM57.3638 10.678H54.9878V8H62.4402V10.678H60.063V16.0753H57.364L57.3638 10.678ZM63.6229 8H66.4377L68.1687 10.8375L69.8982 8H72.7134V16.0753H70.0254V12.0729L68.1686 14.9439H68.1223L66.2641 12.0729V16.0753H63.6229V8ZM74.057 8H76.7568V13.4062H80.5526V16.0753H74.057V8ZM42 19.7686L45.8609 63.0732L63.1863 67.8826L80.5598 63.0663L84.4248 19.7684L42 19.7686ZM76.3713 30.0452L76.1296 32.7378L76.0234 33.9317H76.0059H63.2125H63.1939H55.6991L56.1845 39.37H63.1939H63.2125H74.1086H75.5399L75.4103 40.7964L74.1622 54.7793L74.0823 55.676L63.2125 58.6888L63.1881 58.6966L52.3085 55.6762L51.5643 47.337H54.0217H56.8959L57.2741 51.5729L63.189 53.1704L63.1939 53.1689L69.1179 51.57L69.7339 44.6816H63.2125H63.1939H51.3271L50.0217 30.0452L49.8946 28.6205H63.1939H63.2125H76.4985L76.3713 30.0452Z" fill="url(#paint0_linear_358_452)"/>
<path d="M84 19.6933L87.8609 62.9979L105.186 67.8073L122.56 62.991L126.425 19.6932L84 19.6933Z" fill="url(#paint1_linear_358_452)"/>
<path d="M89 24.8516L92.0032 58.2867L105.48 62L118.994 58.2814L122 24.8515L89 24.8516Z" fill="#BFAC00"/>
<path d="M21.1743 67.8485L3.8587 63.0416L0 19.7617H42.4005L38.5377 63.0348L21.1743 67.8485Z" fill="#264DE4"/>
<path d="M35.2307 60.2796L38.5317 23.3008H21.2002V64.1694L35.2307 60.2796Z" fill="#2965F1"/>
<path d="M8.84595 39.3516L9.3217 44.6596H21.2002V39.3516H8.84595Z" fill="#EBEBEB"/>
<path d="M7.89001 28.6094L8.37254 33.9175H21.2002V28.6094H7.89001Z" fill="#EBEBEB"/>
<path d="M21.2003 53.138L21.177 53.1442L15.2654 51.5479L14.8875 47.3145H9.55896L10.3026 55.6489L21.1759 58.6674L21.2003 58.6606V53.138Z" fill="#EBEBEB"/>
<path d="M9.97864 8H16.4077V10.6885H12.6671V13.377H16.4077V16.0655H9.97864V8Z" fill="url(#paint2_linear_358_452)"/>
<path d="M17.6935 8H24.1225V10.3378H20.382V10.8054H24.1225V16.1824H17.6935V13.7277H21.434V13.2601H17.6935V8Z" fill="url(#paint3_linear_358_452)"/>
<path d="M25.4083 8H31.8374V10.3378H28.0968V10.8054H31.8374V16.1824H25.4083V13.7277H29.1489V13.2601H25.4083V8Z" fill="url(#paint4_linear_358_452)"/>
<path d="M33.5205 39.3531L34.4788 28.6094H21.1819V33.9175H28.6615L28.1785 39.3531H21.1819V44.6611H27.7182L27.1021 51.5453L21.1819 53.1432V58.6657L32.0638 55.6498L32.1436 54.753L33.391 40.7785L33.5205 39.3531Z" fill="white"/>
<path d="M90.564 47V35.304H98.35V36.936H92.485V40.285H97.551V41.917H92.485V45.368H98.35V47H90.564ZM104.852 47.136C104.432 47.136 103.968 47.1247 103.458 47.102C102.959 47.0793 102.466 47.0453 101.979 47C101.503 46.966 101.066 46.9263 100.67 46.881V45.3C101.078 45.334 101.503 45.368 101.945 45.402C102.398 45.436 102.829 45.4643 103.237 45.487C103.645 45.4983 103.996 45.504 104.291 45.504C104.891 45.504 105.362 45.4757 105.702 45.419C106.042 45.3623 106.314 45.2717 106.518 45.147C106.654 45.0563 106.75 44.943 106.807 44.807C106.875 44.671 106.914 44.5123 106.926 44.331C106.948 44.1383 106.96 43.9287 106.96 43.702C106.96 43.396 106.948 43.141 106.926 42.937C106.903 42.733 106.852 42.5743 106.773 42.461C106.693 42.3477 106.569 42.2683 106.399 42.223C106.229 42.1663 106.008 42.121 105.736 42.087L102.948 41.764C102.404 41.696 101.956 41.5827 101.605 41.424C101.265 41.254 100.998 41.033 100.806 40.761C100.624 40.489 100.5 40.166 100.432 39.792C100.364 39.418 100.33 39.0043 100.33 38.551C100.33 37.7917 100.432 37.191 100.636 36.749C100.84 36.307 101.129 35.9727 101.503 35.746C101.888 35.508 102.341 35.355 102.863 35.287C103.384 35.2077 103.962 35.168 104.597 35.168C105.039 35.168 105.492 35.185 105.957 35.219C106.421 35.2417 106.858 35.2757 107.266 35.321C107.685 35.355 108.031 35.406 108.303 35.474V37.021C108.019 36.9757 107.685 36.936 107.3 36.902C106.926 36.868 106.535 36.8453 106.127 36.834C105.719 36.8113 105.339 36.8 104.988 36.8C104.398 36.8 103.922 36.8283 103.56 36.885C103.208 36.9303 102.936 37.0097 102.744 37.123C102.517 37.2477 102.381 37.4233 102.336 37.65C102.29 37.8653 102.268 38.1373 102.268 38.466C102.268 38.8513 102.29 39.1517 102.336 39.367C102.392 39.571 102.511 39.7127 102.693 39.792C102.885 39.8713 103.174 39.9337 103.56 39.979L106.348 40.302C106.699 40.336 107.016 40.3927 107.3 40.472C107.583 40.54 107.832 40.659 108.048 40.829C108.274 40.999 108.45 41.2427 108.575 41.56C108.654 41.7187 108.711 41.9 108.745 42.104C108.79 42.308 108.824 42.5347 108.847 42.784C108.881 43.022 108.898 43.294 108.898 43.6C108.898 44.246 108.83 44.7843 108.694 45.215C108.569 45.6457 108.388 45.9913 108.15 46.252C107.923 46.5013 107.64 46.694 107.3 46.83C106.96 46.9547 106.586 47.034 106.178 47.068C105.77 47.1133 105.328 47.136 104.852 47.136ZM115.783 47.136C115.012 47.136 114.349 47.102 113.794 47.034C113.25 46.966 112.797 46.8243 112.434 46.609C112.083 46.3823 111.805 46.0423 111.601 45.589C111.476 45.3057 111.374 44.9657 111.295 44.569C111.216 44.1723 111.159 43.6963 111.125 43.141C111.102 42.5857 111.091 41.9567 111.091 41.254C111.091 40.6193 111.102 40.047 111.125 39.537C111.159 39.0157 111.21 38.5567 111.278 38.16C111.357 37.7633 111.454 37.412 111.567 37.106C111.771 36.596 112.054 36.205 112.417 35.933C112.78 35.6497 113.244 35.4513 113.811 35.338C114.378 35.2247 115.075 35.168 115.902 35.168C116.208 35.168 116.565 35.185 116.973 35.219C117.392 35.253 117.817 35.2927 118.248 35.338C118.69 35.3833 119.104 35.44 119.489 35.508V37.038C119.115 36.9927 118.73 36.953 118.333 36.919C117.936 36.885 117.562 36.8567 117.211 36.834C116.86 36.8113 116.554 36.8 116.293 36.8C115.568 36.8 114.984 36.851 114.542 36.953C114.111 37.0437 113.788 37.2307 113.573 37.514C113.358 37.786 113.216 38.177 113.148 38.687C113.08 39.197 113.046 39.877 113.046 40.727H113.148C113.25 40.6023 113.409 40.4777 113.624 40.353C113.839 40.217 114.151 40.1037 114.559 40.013C114.978 39.9223 115.528 39.877 116.208 39.877C116.899 39.877 117.489 39.9223 117.976 40.013C118.475 40.1037 118.883 40.268 119.2 40.506C119.517 40.7327 119.75 41.067 119.897 41.509C120.056 41.9397 120.135 42.512 120.135 43.226C120.135 43.974 120.073 44.603 119.948 45.113C119.835 45.6117 119.619 46.0083 119.302 46.303C118.996 46.5977 118.56 46.813 117.993 46.949C117.426 47.0737 116.69 47.136 115.783 47.136ZM115.647 45.504C116.168 45.504 116.599 45.487 116.939 45.453C117.279 45.4077 117.54 45.3227 117.721 45.198C117.914 45.062 118.044 44.8693 118.112 44.62C118.191 44.3593 118.231 44.0023 118.231 43.549C118.231 43.0843 118.191 42.716 118.112 42.444C118.044 42.1607 117.919 41.9567 117.738 41.832C117.557 41.696 117.296 41.611 116.956 41.577C116.627 41.5317 116.191 41.509 115.647 41.509C115.069 41.509 114.604 41.543 114.253 41.611C113.913 41.6677 113.658 41.764 113.488 41.9C113.329 42.036 113.222 42.206 113.165 42.41C113.12 42.614 113.097 42.869 113.097 43.175C113.097 43.719 113.137 44.1497 113.216 44.467C113.307 44.773 113.448 45.0053 113.641 45.164C113.834 45.3113 114.089 45.4077 114.406 45.453C114.735 45.487 115.148 45.504 115.647 45.504Z" fill="black"/>
<path d="M96.288 18V15.472C96.8107 15.472 97.216 15.4613 97.504 15.44C97.8027 15.408 98.016 15.3333 98.144 15.216C98.2827 15.0987 98.368 14.9173 98.4 14.672C98.432 14.4267 98.448 14.0907 98.448 13.664V6.992H102.192V12.752C102.192 13.7547 102.165 14.5867 102.112 15.248C102.059 15.8987 101.936 16.4107 101.744 16.784C101.552 17.1573 101.243 17.4293 100.816 17.6C100.4 17.7707 99.824 17.8827 99.088 17.936C98.3627 17.9787 97.4293 18 96.288 18ZM108.136 18.128C107.677 18.128 107.186 18.112 106.664 18.08C106.141 18.0587 105.634 18.0267 105.144 17.984C104.653 17.9413 104.226 17.8933 103.864 17.84V15.296C104.258 15.328 104.642 15.36 105.016 15.392C105.4 15.4133 105.757 15.4293 106.088 15.44C106.429 15.4507 106.717 15.456 106.952 15.456C107.378 15.456 107.698 15.4507 107.912 15.44C108.125 15.4187 108.269 15.3813 108.344 15.328C108.397 15.2853 108.434 15.2373 108.456 15.184C108.477 15.1307 108.488 15.0667 108.488 14.992C108.498 14.9173 108.504 14.832 108.504 14.736C108.504 14.576 108.488 14.4533 108.456 14.368C108.424 14.2827 108.36 14.2187 108.264 14.176C108.168 14.1227 108.024 14.08 107.832 14.048C107.64 14.016 107.384 13.9787 107.064 13.936L105.192 13.696C104.861 13.6533 104.589 13.5467 104.376 13.376C104.162 13.1947 103.992 12.96 103.864 12.672C103.746 12.3733 103.661 12.0213 103.608 11.616C103.565 11.2 103.544 10.7413 103.544 10.24C103.544 9.51467 103.656 8.93333 103.88 8.496C104.104 8.048 104.413 7.70667 104.808 7.472C105.213 7.23733 105.677 7.07733 106.2 6.992C106.722 6.90667 107.288 6.864 107.896 6.864C108.344 6.864 108.802 6.88 109.272 6.912C109.752 6.944 110.2 6.98667 110.616 7.04C111.042 7.08267 111.394 7.136 111.672 7.2V9.712C111.405 9.68 111.085 9.65333 110.712 9.632C110.349 9.6 109.976 9.57867 109.592 9.568C109.208 9.54667 108.845 9.536 108.504 9.536C108.248 9.536 108.04 9.54133 107.88 9.552C107.72 9.56267 107.597 9.59467 107.512 9.648C107.426 9.70133 107.362 9.77067 107.32 9.856C107.288 9.93067 107.272 10.0267 107.272 10.144C107.272 10.3253 107.288 10.464 107.32 10.56C107.352 10.656 107.432 10.7253 107.56 10.768C107.688 10.8 107.89 10.8373 108.168 10.88L109.848 11.088C110.125 11.12 110.386 11.1733 110.632 11.248C110.877 11.3227 111.106 11.44 111.32 11.6C111.533 11.7493 111.72 11.9787 111.88 12.288C111.954 12.416 112.013 12.5813 112.056 12.784C112.109 12.9867 112.152 13.2267 112.184 13.504C112.216 13.7707 112.232 14.08 112.232 14.432C112.232 15.104 112.162 15.664 112.024 16.112C111.896 16.56 111.704 16.9173 111.448 17.184C111.202 17.4507 110.909 17.6533 110.568 17.792C110.226 17.9307 109.848 18.0213 109.432 18.064C109.026 18.1067 108.594 18.128 108.136 18.128Z" fill="url(#paint5_linear_358_452)"/>
<defs>
<linearGradient id="paint0_linear_358_452" x1="44" y1="43" x2="81.5" y2="44" gradientUnits="userSpaceOnUse">
<stop stop-color="#AB3F22"/>
<stop offset="1" stop-color="#FF6524"/>
</linearGradient>
<linearGradient id="paint1_linear_358_452" x1="86" y1="42.9238" x2="123.5" y2="43.9238" gradientUnits="userSpaceOnUse">
<stop stop-color="#FFE609"/>
<stop offset="1" stop-color="#BFAF21"/>
</linearGradient>
<linearGradient id="paint2_linear_358_452" x1="9.97864" y1="12.0328" x2="16.4077" y2="12.0328" gradientUnits="userSpaceOnUse">
<stop stop-color="#1535B0"/>
<stop offset="1" stop-color="#6593FF"/>
</linearGradient>
<linearGradient id="paint3_linear_358_452" x1="17.6935" y1="12.0912" x2="24.1225" y2="12.0912" gradientUnits="userSpaceOnUse">
<stop stop-color="#1535B0"/>
<stop offset="1" stop-color="#6593FF"/>
</linearGradient>
<linearGradient id="paint4_linear_358_452" x1="25.4083" y1="12.0912" x2="31.8374" y2="12.0912" gradientUnits="userSpaceOnUse">
<stop stop-color="#1535B0"/>
<stop offset="1" stop-color="#6593FF"/>
</linearGradient>
<linearGradient id="paint5_linear_358_452" x1="106" y1="0" x2="106" y2="20" gradientUnits="userSpaceOnUse">
<stop stop-color="#FFF628"/>
<stop offset="1" stop-color="#9A8B00"/>
</linearGradient>
</defs>
</svg>
