<svg xmlns="http://www.w3.org/2000/svg"  viewBox="0 0 100 100" width="100px" height="100px"><path fill="#444445" d="M30.361,19H70.64C76.903,19,82,24.097,82,30.361V70.64C82,76.903,76.903,82,70.639,82H30.361 C24.097,82,19,76.903,19,70.639V30.361C19,24.097,24.097,19,30.361,19z"/><path fill="#fff" d="M51.784,31.082C41.528,30.146,32.791,37.372,31.259,47H44v-2c0-0.552,0.448-1,1-1h10 c0.552,0,1,0.448,1,1v10c0,0.552-0.448,1-1,1H45c-0.552,0-1-0.448-1-1v-2H31.259C32.701,62.064,40.53,69,50,69 c11.211,0,20.154-9.709,18.879-21.178C67.895,38.977,60.647,31.89,51.784,31.082z"/><path fill="#212121" d="M33.857,23.001c-5.976,0-10.836,4.862-10.836,10.838v33.326c0,5.976,4.86,10.836,10.836,10.836 h33.326c5.976,0,10.838-4.86,10.838-10.836V48.503c0-0.277-0.224-0.5-0.5-0.5s-0.5,0.224-0.5,0.5v18.662 c0,5.424-4.414,9.838-9.838,9.838H33.857c-5.424,0-9.836-4.414-9.836-9.838V33.839c0-5.424,4.412-9.838,9.836-9.838h33.664 c0.276,0,0.5-0.224,0.5-0.5s-0.224-0.5-0.5-0.5H33.857z M77.521,38.003c-0.276,0-0.5,0.223-0.5,0.5v2c0,0.276,0.224,0.5,0.5,0.5 s0.5-0.224,0.5-0.5v-2C78.021,38.227,77.797,38.003,77.521,38.003z M77.521,42.003c-0.276,0-0.5,0.224-0.5,0.5v4 c0,0.276,0.224,0.5,0.5,0.5s0.5-0.224,0.5-0.5v-4C78.021,42.226,77.797,42.003,77.521,42.003z"/><path fill="#212121" d="M31.021,18.003c-7.168,0-13,5.832-13,13v39c0,7.168,5.832,13,13,13h39c7.168,0,13-5.832,13-13v-39 c0-7.169-5.832-13-13-13C70.021,18.003,31.021,18.003,31.021,18.003z M31.021,20.003h39c6.065,0,11,4.935,11,11v39 c0,6.065-4.935,11-11,11h-39c-6.065,0-11-4.935-11-11v-39C20.021,24.938,24.956,20.003,31.021,20.003z"/><path fill="#212121" d="M50,69c-9.453,0-17.538-7.064-18.807-16.433c-0.019-0.144,0.024-0.288,0.119-0.396 S31.544,52,31.688,52H43.5c0.276,0,0.5,0.224,0.5,0.5v2c0,0.827,0.673,1.5,1.5,1.5h9c0.827,0,1.5-0.673,1.5-1.5v-9 c0-0.827-0.673-1.5-1.5-1.5h-9c-0.827,0-1.5,0.673-1.5,1.5v2c0,0.276-0.224,0.5-0.5,0.5H31.688c-0.145,0-0.282-0.063-0.376-0.171 c-0.095-0.108-0.138-0.253-0.119-0.396C32.461,38.064,40.547,31,50,31c10.477,0,19,8.523,19,19S60.477,69,50,69z M32.27,53 c1.445,8.591,8.967,15,17.73,15c9.925,0,18-8.075,18-18s-8.075-18-18-18c-8.763,0-16.286,6.409-17.73,15H43v-1.5 c0-1.379,1.122-2.5,2.5-2.5h9c1.378,0,2.5,1.121,2.5,2.5v9c0,1.379-1.122,2.5-2.5,2.5h-9c-1.378,0-2.5-1.121-2.5-2.5V53H32.27z"/></svg>