<svg width="210" height="184" viewBox="0 0 210 184" fill="none" xmlns="http://www.w3.org/2000/svg">
<rect width="210" height="184" rx="30" fill="#204F46"/>
<path d="M167.262 34.625C171.513 34.625 174.721 38.3542 173.005 45.2904L152.196 143.368C150.742 150.341 146.528 152.019 140.711 148.775L91.0753 112.117C90.8829 111.979 90.726 111.797 90.6179 111.586C90.5097 111.375 90.4533 111.142 90.4533 110.905C90.4533 110.668 90.5097 110.435 90.6179 110.224C90.726 110.013 90.8829 109.831 91.0753 109.693L148.393 57.9323C151.003 55.6202 147.833 54.5015 144.402 56.5898L72.4668 101.974C72.2486 102.116 72.0009 102.207 71.7425 102.239C71.484 102.271 71.2216 102.244 70.9751 102.16L40.4333 92.5017C33.6462 90.5252 33.6462 85.8638 41.9622 82.5448L164.167 35.4081C165.136 34.9432 166.189 34.6769 167.262 34.625Z" stroke="#01A746" stroke-width="5" stroke-linecap="round" stroke-linejoin="round"/>
</svg>
