<?xml version="1.0" encoding="utf-8"?>
<svg viewBox="0 0 500 500" xmlns="http://www.w3.org/2000/svg">
  <path d="M 252.011 250.998 C 248.32 250.998 245.743 249.134 245.284 246.26 C 245.209 245.786 245.583 245.358 246.075 245.358 L 248.787 245.358 C 249.152 245.358 249.465 245.602 249.561 245.945 C 249.845 246.958 250.842 247.463 252.174 247.463 C 253.389 247.463 254.478 246.926 254.478 245.872 C 254.478 244.794 253.074 244.468 251.363 244.188 C 248.776 243.77 245.486 243.095 245.486 239.378 C 245.486 236.394 248.091 234.333 252 234.333 C 255.523 234.333 257.954 236.054 258.412 238.701 C 258.493 239.173 258.113 239.603 257.622 239.603 L 255.027 239.603 C 254.666 239.603 254.355 239.367 254.256 239.029 C 254.003 238.161 253.164 237.731 251.893 237.731 C 250.53 237.731 249.726 238.34 249.726 239.243 C 249.726 240.294 251.108 240.538 252.79 240.836 C 255.431 241.298 258.802 241.842 258.802 245.684 C 258.801 248.903 256.1 250.999 252.011 250.998 Z" fill="white"/>
  <path d="M 284.924 240.662 L 284.924 249.774 C 284.924 250.205 284.566 250.553 284.124 250.553 L 281.346 250.553 C 280.904 250.553 280.546 250.205 280.546 249.774 L 280.546 241.366 C 280.546 239.261 279.698 238.15 278.112 238.15 C 276.157 238.15 274.999 239.552 274.999 242.021 L 274.999 249.773 C 274.999 250.203 274.641 250.552 274.199 250.552 L 271.53 250.552 C 271.088 250.552 270.73 250.203 270.73 249.773 L 270.73 241.365 C 270.73 239.26 269.907 238.149 268.339 238.149 C 266.36 238.149 265.178 239.551 265.178 242.02 L 265.178 249.771 C 265.178 250.202 264.82 250.55 264.378 250.55 L 261.599 250.55 C 261.157 250.55 260.799 250.202 260.799 249.771 L 260.799 235.561 C 260.799 235.131 261.157 234.782 261.599 234.782 L 263.32 234.782 C 263.645 234.782 263.938 234.974 264.061 235.266 L 264.21 235.623 C 264.417 236.115 265.063 236.275 265.472 235.924 C 266.571 234.983 267.998 234.409 269.508 234.409 C 271.205 234.409 272.66 235.047 273.645 236.159 C 273.956 236.51 274.501 236.531 274.834 236.199 C 275.948 235.091 277.509 234.409 279.219 234.409 C 282.572 234.408 284.924 236.967 284.924 240.662 Z" fill="white"/>
  <path d="M 311.848 240.662 L 311.848 249.774 C 311.848 250.205 311.49 250.553 311.048 250.553 L 308.269 250.553 C 307.827 250.553 307.469 250.205 307.469 249.774 L 307.469 241.366 C 307.469 239.261 306.622 238.15 305.036 238.15 C 303.081 238.15 301.923 239.552 301.923 242.021 L 301.923 249.773 C 301.923 250.203 301.565 250.552 301.123 250.552 L 298.454 250.552 C 298.012 250.552 297.654 250.203 297.654 249.773 L 297.654 241.365 C 297.654 239.26 296.831 238.149 295.263 238.149 C 293.284 238.149 292.102 239.551 292.102 242.02 L 292.102 249.771 C 292.102 250.202 291.744 250.55 291.302 250.55 L 288.523 250.55 C 288.081 250.55 287.723 250.202 287.723 249.771 L 287.723 235.561 C 287.723 235.131 288.081 234.782 288.523 234.782 L 290.244 234.782 C 290.569 234.782 290.862 234.974 290.985 235.266 L 291.135 235.623 C 291.342 236.115 291.988 236.275 292.398 235.924 C 293.496 234.983 294.923 234.409 296.433 234.409 C 298.13 234.409 299.585 235.047 300.57 236.159 C 300.882 236.51 301.426 236.531 301.759 236.199 C 302.873 235.091 304.435 234.409 306.145 234.409 C 309.496 234.408 311.848 236.967 311.848 240.662 Z" fill="white"/>
  <path d="M 320.551 251.07 C 316.54 251.07 313.959 249.194 313.483 246.288 C 313.406 245.813 313.78 245.383 314.273 245.383 L 318.061 245.383 C 318.421 245.383 318.749 245.606 318.848 245.941 C 319.075 246.708 319.785 247.066 320.654 247.066 C 321.469 247.066 322.244 246.66 322.244 245.846 C 322.244 244.936 321.018 244.677 319.462 244.426 C 316.952 244.029 313.624 243.292 313.624 239.467 C 313.624 236.306 316.39 234.265 320.538 234.265 C 324.254 234.265 326.791 236.001 327.302 238.683 C 327.393 239.159 327.012 239.598 326.514 239.598 L 322.854 239.598 C 322.5 239.598 322.2 239.368 322.087 239.042 C 321.873 238.418 321.269 238.123 320.468 238.123 C 319.573 238.123 318.974 238.554 318.974 239.286 C 318.974 240.184 320.212 240.392 321.75 240.66 C 324.308 241.102 327.708 241.62 327.708 245.62 C 327.708 248.913 324.852 251.07 320.551 251.07 Z" fill="white"/>
  <path d="M 347.065 242.667 C 347.065 247.58 343.526 251.087 338.576 251.087 C 337.56 251.087 336.604 250.907 335.733 250.571 C 335.204 250.368 334.63 250.737 334.63 251.292 L 334.63 255.47 C 334.63 255.901 334.272 256.249 333.83 256.249 L 329.916 256.249 C 329.474 256.249 329.116 255.901 329.116 255.47 L 329.116 235.561 C 329.116 235.131 329.474 234.782 329.916 234.782 L 332.434 234.782 C 332.728 234.782 332.996 234.939 333.137 235.189 L 333.162 235.234 C 333.385 235.634 333.917 235.77 334.306 235.514 C 335.518 234.716 336.975 234.265 338.577 234.265 C 343.526 234.265 347.065 237.754 347.065 242.667 Z M 341.454 242.667 C 341.454 240.595 339.919 239.057 337.83 239.057 C 335.742 239.057 334.206 240.595 334.206 242.667 C 334.206 244.739 335.742 246.277 337.83 246.277 C 339.906 246.277 341.454 244.739 341.454 242.667 Z" fill="white"/>
  <path d="M 347.481 242.667 C 347.481 237.778 351.28 234.265 356.558 234.265 C 361.82 234.265 365.635 237.778 365.635 242.667 C 365.635 247.538 361.82 251.07 356.558 251.07 C 351.28 251.07 347.481 247.54 347.481 242.667 Z M 356.558 246.19 C 358.591 246.19 360.051 244.754 360.051 242.668 C 360.051 240.596 358.593 239.146 356.558 239.146 C 354.524 239.146 353.066 240.583 353.066 242.668 C 353.067 244.752 354.525 246.19 356.558 246.19 Z" fill="white"/>
  <path d="M 377.932 246.574 L 377.932 249.774 C 377.932 250.205 377.574 250.553 377.132 250.553 L 374.095 250.553 C 370.515 250.553 368.338 248.421 368.338 244.917 L 368.338 239.745 C 368.338 239.314 367.98 238.966 367.538 238.966 L 366.174 238.966 C 365.732 238.966 365.374 238.618 365.374 238.187 L 365.374 238.004 C 365.374 237.806 365.452 237.615 365.592 237.47 L 372.391 230.417 C 372.543 230.26 372.753 230.172 372.974 230.172 C 373.416 230.172 373.774 230.52 373.774 230.951 L 373.774 234.004 C 373.774 234.435 374.132 234.783 374.574 234.783 L 377.043 234.783 C 377.485 234.783 377.843 235.132 377.843 235.563 L 377.843 238.188 C 377.843 238.619 377.485 238.967 377.043 238.967 L 374.715 238.967 C 374.273 238.967 373.915 239.316 373.915 239.746 L 373.915 243.986 C 373.915 245.115 374.614 245.798 375.792 245.798 L 377.132 245.798 C 377.574 245.795 377.932 246.143 377.932 246.574 Z" fill="white"/>
  <path d="M 228.265 240.668 C 228.265 235.972 226.463 231.569 223.19 228.271 C 216.409 221.437 205.376 221.437 198.594 228.271 C 195.323 231.569 193.52 235.971 193.52 240.668 C 193.52 245.364 195.322 249.766 198.594 253.064 L 201.527 256.019 C 201.67 256.164 201.903 256.164 202.047 256.019 L 206.772 251.259 C 206.915 251.114 207.148 251.114 207.292 251.259 L 210.633 254.626 C 210.776 254.771 211.009 254.771 211.152 254.626 L 214.493 251.258 C 214.637 251.113 214.869 251.113 215.013 251.258 L 219.739 256.018 C 219.883 256.163 220.116 256.163 220.259 256.018 L 223.192 253.062 C 226.463 249.766 228.265 245.364 228.265 240.668 Z M 221.364 249.595 L 220.259 250.708 C 220.116 250.853 219.883 250.853 219.739 250.708 L 217.522 248.473 C 217.4 248.35 217.377 248.158 217.47 248.013 C 219.465 244.917 219.066 240.763 216.438 238.115 C 213.38 235.033 208.404 235.033 205.346 238.115 C 202.72 240.763 202.321 244.917 204.315 248.013 C 204.408 248.158 204.385 248.35 204.263 248.473 L 202.048 250.707 C 201.904 250.852 201.672 250.852 201.528 250.707 L 200.423 249.594 C 197.441 246.588 196.241 242.181 197.29 238.095 C 199.034 231.304 204.373 226.916 210.894 226.916 C 217.414 226.916 222.754 231.304 224.497 238.095 C 225.547 242.183 224.346 246.59 221.364 249.595 Z M 211.051 249.419 C 210.965 249.506 210.824 249.506 210.737 249.419 L 207.982 246.643 C 207.771 246.432 207.582 246.193 207.421 245.936 C 206.398 244.305 206.635 242.134 207.982 240.775 C 208.784 239.965 209.839 239.561 210.894 239.561 C 211.948 239.561 213.003 239.965 213.806 240.775 C 215.155 242.134 215.392 244.305 214.367 245.936 C 214.209 246.189 214.02 246.426 213.806 246.642 L 211.051 249.419 Z" style="fill: rgb(38, 51, 123);"/>
  <path d="M 216.397 260.291 C 214.597 260.813 212.725 261.076 210.833 261.076 C 208.951 261.076 207.086 260.814 205.291 260.297 C 205.149 260.257 204.995 260.305 204.903 260.422 L 202.812 263.066 C 202.654 263.266 202.739 263.565 202.979 263.648 C 205.499 264.533 208.141 264.981 210.833 264.981 C 213.528 264.981 216.179 264.529 218.709 263.641 C 218.949 263.557 219.034 263.258 218.876 263.059 L 216.785 260.415 C 216.693 260.298 216.539 260.249 216.397 260.291 Z" style="fill: rgb(38, 51, 123);"/>
  <path d="M 210.833 216.801 C 197.655 216.801 186.932 227.607 186.932 240.891 C 186.932 248.939 190.898 256.424 197.538 260.913 C 197.682 261.01 197.872 260.993 197.996 260.873 L 200.325 258.629 C 200.498 258.462 200.47 258.174 200.265 258.046 C 198.97 257.232 197.761 256.261 196.669 255.163 C 192.887 251.353 190.804 246.283 190.804 240.891 C 190.804 235.497 192.888 230.429 196.671 226.618 C 200.452 222.805 205.481 220.705 210.833 220.705 C 216.185 220.705 221.214 222.805 224.995 226.618 C 228.778 230.429 230.861 235.497 230.861 240.891 C 230.861 246.284 228.778 251.353 224.995 255.163 C 223.915 256.252 222.711 257.217 221.417 258.034 C 221.214 258.162 221.184 258.451 221.358 258.618 L 223.687 260.861 C 223.811 260.981 224.002 260.998 224.146 260.9 C 230.776 256.411 234.734 248.931 234.734 240.891 C 234.734 227.607 224.012 216.801 210.833 216.801 Z" style="fill: rgb(38, 51, 123);"/>
</svg>