<svg width="156" height="32" viewBox="0 0 156 32" fill="none" xmlns="http://www.w3.org/2000/svg">
<g clip-path="url(#clip0_1_951)">
<path d="M12.9897 5.55104C11.1442 5.55104 10.6828 6.49303 10.6828 8.14152V11.203H15.5272L15.0658 16.1485H10.6828V30.9849H4.91575V16.1485H0.994141V11.203H4.91575V8.37702C4.91575 3.43155 6.76122 0.841064 12.2976 0.841064C13.451 0.841064 14.8351 0.841064 15.5272 1.07656V5.55104" fill="#1B2245"/>
<path d="M15.9883 20.3875C15.9883 14.971 18.5258 10.7321 23.8315 10.7321C26.8304 10.7321 28.4452 12.145 29.3679 14.2645V11.2031H34.9043V30.7494H29.3679V27.688C28.4452 29.5719 26.8304 30.9849 23.8315 30.9849C18.5258 30.9849 15.9883 26.9815 15.9883 21.3295V20.3875ZM21.7554 21.8005C21.7554 24.6265 22.9088 26.746 25.4463 26.746C27.7531 26.746 29.1372 24.862 29.1372 22.2715V20.152C29.1372 17.326 27.9838 15.6775 25.4463 15.6775C22.9088 15.442 21.7554 17.5615 21.7554 20.3875V21.8005Z" fill="#1B2245"/>
<path d="M47.1303 10.9674C49.4371 10.9674 51.5133 11.4384 52.6667 12.3804L51.2826 16.6194C50.3599 16.1484 48.9758 15.6774 47.361 15.6774C44.1314 15.6774 42.7473 17.5614 42.7473 20.6228V21.8003C42.7473 24.8618 44.1314 26.7458 47.361 26.7458C48.9758 26.7458 50.3599 26.2748 51.2826 25.8038L52.6667 30.0428C51.5133 30.9848 49.4371 31.4558 47.1303 31.4558C40.2098 31.4558 37.2109 27.6878 37.2109 21.8003V20.6228C37.2109 14.4999 40.2098 10.9674 47.1303 10.9674Z" fill="#1B2245"/>
<path d="M53.3594 21.8003V20.1519C53.3594 14.4999 56.3582 10.9674 62.8174 10.9674C68.8151 10.9674 71.3526 14.7354 71.3526 20.1519V23.2133H59.1264C59.3571 25.8038 60.5105 26.9813 63.7401 26.9813C65.8163 26.9813 68.1231 26.5103 69.9685 25.8038L71.122 29.8073C69.5072 30.5138 66.5083 31.2203 63.7401 31.2203C56.1276 31.2203 53.3594 27.6878 53.3594 21.8003ZM59.1264 19.2099H66.0469V18.7389C66.0469 16.6194 65.1242 14.9709 62.5867 14.9709C60.2799 14.9709 59.1264 16.6194 59.1264 19.2099Z" fill="#1B2245"/>
<path d="M93.0363 21.8004C93.0363 27.2169 90.4988 31.4559 85.1931 31.4559C82.1942 31.4559 80.3488 30.0429 79.426 28.1589V31.2204H73.8896V1.31206L79.6567 0.841064V14.029C80.5794 12.3805 82.4249 10.9675 84.9624 10.9675C90.2681 10.9675 92.8056 14.971 92.8056 20.6229L93.0363 21.8004ZM87.2693 20.3874C87.2693 17.5615 86.1158 15.6775 83.3476 15.6775C81.0408 15.6775 79.6567 17.326 79.6567 20.1519V22.0359C79.6567 24.8619 81.0408 26.5104 83.3476 26.5104C86.1158 26.5104 87.2693 24.3909 87.2693 21.8004V20.3874Z" fill="#1B2245"/>
<path d="M94.8818 21.5648V20.6228C94.8818 14.9709 98.1114 10.9674 104.34 10.9674C110.799 10.9674 114.029 14.9709 114.029 20.6228V21.5648C114.029 27.2168 110.799 31.2203 104.571 31.2203C98.1114 31.2203 94.8818 27.2168 94.8818 21.5648ZM108.261 20.1519C108.261 17.5614 107.108 15.4419 104.571 15.4419C101.802 15.4419 100.88 17.5614 100.88 20.1519V22.0358C100.88 24.6263 102.033 26.7458 104.571 26.7458C107.339 26.7458 108.261 24.6263 108.261 22.0358V20.1519Z" fill="#1B2245"/>
<path d="M115.874 21.5648V20.6228C115.874 14.9709 119.104 10.9674 125.332 10.9674C131.791 10.9674 134.79 14.9709 134.79 20.6228V21.5648C134.79 27.2168 131.56 31.2203 125.332 31.2203C119.104 31.2203 115.874 27.2168 115.874 21.5648ZM129.254 20.1519C129.254 17.5614 128.1 15.4419 125.563 15.4419C122.795 15.4419 121.872 17.5614 121.872 20.1519V22.0358C121.872 24.6263 123.025 26.7458 125.563 26.7458C128.331 26.7458 129.254 24.6263 129.254 22.0358V20.1519Z" fill="#1B2245"/>
<path d="M143.095 20.6229L148.862 11.203H155.091L148.862 20.8584L155.321 30.9849H149.093L143.095 21.3294V30.9849H137.328V1.31206L143.095 0.841064" fill="#1B2245"/>
</g>
<defs>
<clipPath id="clip0_1_951">
<rect width="154.327" height="30.3793" fill="white" transform="translate(0.994141 0.841064)"/>
</clipPath>
</defs>
</svg>
