<?xml version="1.0" encoding="UTF-8"?>
<!DOCTYPE svg PUBLIC "-//W3C//DTD SVG 1.1//EN" "http://www.w3.org/Graphics/SVG/1.1/DTD/svg11.dtd">
<!-- Creator: CorelDRAW 2020 (64 Bit) -->
<svg xmlns="http://www.w3.org/2000/svg" xml:space="preserve" width="42.418mm" height="17.526mm" version="1.1" style="shape-rendering:geometricPrecision; text-rendering:geometricPrecision; image-rendering:optimizeQuality; fill-rule:evenodd; clip-rule:evenodd"
viewBox="0 0 863.74 356.88"
 xmlns:xlink="http://www.w3.org/1999/xlink"
 xmlns:xodm="http://www.corel.com/coreldraw/odm/2003">
 <defs>
  <style type="text/css">
   <![CDATA[
    .str0 {stroke:#1A1E2B;stroke-width:1.55;stroke-miterlimit:10}
    .fil21 {fill:none}
    .fil19 {fill:#2DFAD5}
    .fil20 {fill:#F71E83}
    .fil6 {fill:#047065;fill-rule:nonzero}
    .fil5 {fill:#14998E;fill-rule:nonzero}
    .fil2 {fill:#1A1E2B;fill-rule:nonzero}
    .fil13 {fill:#1C1A31;fill-rule:nonzero}
    .fil11 {fill:#222737;fill-rule:nonzero}
    .fil12 {fill:#2B3145;fill-rule:nonzero}
    .fil4 {fill:#371A45;fill-rule:nonzero}
    .fil14 {fill:#3B3D4D;fill-rule:nonzero}
    .fil18 {fill:#735F7C;fill-rule:nonzero}
    .fil17 {fill:#8C7ED0;fill-rule:nonzero}
    .fil0 {fill:#9184DA;fill-rule:nonzero}
    .fil9 {fill:#B72E73;fill-rule:nonzero}
    .fil10 {fill:#B9AFBE;fill-rule:nonzero}
    .fil16 {fill:#BCBCBC;fill-rule:nonzero}
    .fil7 {fill:#C3BAC7;fill-rule:nonzero}
    .fil3 {fill:#CDC6D0;fill-rule:nonzero}
    .fil15 {fill:#E5E5E5;fill-rule:nonzero}
    .fil8 {fill:#FF5AA5;fill-rule:nonzero}
    .fil1 {fill:white;fill-rule:nonzero}
   ]]>
  </style>
   <clipPath id="id0">
    <path d="M-0 0l863.74 0 0 356.88 -863.74 0 0 -356.88z"/>
   </clipPath>
    <clipPath id="id1">
     <path d="M0.14 0l486.34 0c-6.79,15.81 -13.6,39.78 -23.85,78.69 -17.36,65.85 -44.6,174.5 -54.92,231.07 -4.25,23.27 -5.63,37.72 -4.73,47.12l-402.83 0 0 -356.88zm863.6 0l0 31.95c-7.34,-3.08 -15.22,-6.11 -23.68,-9.08 -23.02,-8.09 -50.35,-15.82 -78.93,-22.87l102.61 0z"/>
    </clipPath>
    <clipPath id="id2">
     <path d="M-0 0l863.74 0 0 356.88 -863.74 0 0 -356.88z"/>
    </clipPath>
      <mask id="id3">
  <linearGradient id="id4" gradientUnits="userSpaceOnUse" x1="492.5" y1="27.99" x2="500.91" y2="19.52">
   <stop offset="0" style="stop-opacity:1; stop-color:white"/>
   <stop offset="0.878431" style="stop-opacity:0.501961; stop-color:white"/>
   <stop offset="1" style="stop-opacity:0; stop-color:white"/>
  </linearGradient>
       <rect style="fill:url(#id4)" x="479.99" y="18.65" width="23.08" height="23.08"/>
      </mask>
      <mask id="id5">
  <linearGradient id="id6" gradientUnits="userSpaceOnUse" x1="497.04" y1="44.48" x2="497.04" y2="50.69">
   <stop offset="0" style="stop-opacity:1; stop-color:white"/>
   <stop offset="1" style="stop-opacity:0; stop-color:white"/>
  </linearGradient>
       <rect style="fill:url(#id6)" x="490.09" y="39.79" width="13.83" height="13.83"/>
      </mask>
 </defs>
 <g id="Camada_x0020_1">
  <metadata id="CorelCorpID_0Corel-Layer"/>
  <g>
  </g>
  <g style="clip-path:url(#id0)">
   <g>
   </g>
   <g style="clip-path:url(#id1)">
    <image x="0.14" y="0" width="913.74" height="356.88" xlink:href="mascoteservico_Images\mascoteservico_ImgID1.png"/>
   </g>
   <g style="clip-path:url(#id2)">
    <path class="fil0" d="M630.18 458.26c-57.66,0 -104.41,-10.01 -104.41,-22.35 0,-6.31 12.21,-12 31.84,-16.07 -0.41,0.93 -0.74,1.91 -0.97,2.92 -0.27,1.19 -0.4,2.41 -0.39,3.62 0.01,0.3 0.01,0.61 0.03,0.9l0.03 0.45 0.02 0.23 0.04 0.31c0.12,0.77 0.32,1.41 0.57,2.03 1,2.46 2.69,4.33 4.51,5.8 1.83,1.47 3.84,2.55 5.88,3.42 2.04,0.87 4.12,1.51 6.21,2.03 4.18,1.01 8.4,1.52 12.58,1.76 2.23,0.13 4.44,0.19 6.66,0.19 1.96,0 3.91,-0.04 5.86,-0.12 4.16,-0.18 8.35,-0.51 12.57,-1.33 2.11,-0.41 4.22,-0.95 6.31,-1.73 2.08,-0.77 4.14,-1.8 6.02,-3.18 1.88,-1.38 3.54,-3.15 4.79,-5.15 0.32,-0.5 0.6,-1.01 0.87,-1.53 0.13,-0.26 0.26,-0.51 0.38,-0.79l0.36 -0.9c0.14,-0.42 0.27,-0.83 0.38,-1.23 0.13,0.45 0.27,0.91 0.45,1.39 0.12,0.3 0.24,0.61 0.37,0.89l0.4 0.8c0.29,0.53 0.59,1.04 0.93,1.54 1.35,1.99 3.1,3.67 5.02,4.95 1.92,1.3 3.97,2.26 6.04,3.01 2.08,0.75 4.18,1.3 6.28,1.72 4.2,0.86 8.4,1.24 12.57,1.47 2.46,0.11 4.93,0.19 7.4,0.19 1.71,0 3.42,-0.03 5.13,-0.12 4.19,-0.21 8.42,-0.63 12.62,-1.58 2.1,-0.47 4.2,-1.1 6.26,-1.95 2.06,-0.85 4.09,-1.96 5.93,-3.5 1.82,-1.54 3.48,-3.58 4.25,-6.19 0.19,-0.65 0.32,-1.33 0.36,-2.07l0.01 -0.27c0,-0 0,-0.01 0,-0.01 0,-0.01 0,-0.01 0,-0.01l0.03 -0.43c0.03,-0.29 0.03,-0.6 0.04,-0.9 0.01,-1.21 -0.12,-2.44 -0.38,-3.63 -0.22,-1 -0.55,-1.97 -0.95,-2.89 19.43,4.06 31.5,9.73 31.5,15.99 0,12.34 -46.74,22.35 -104.41,22.35zm74.16 -30.38l0.01 -0.1 0 -0.01c-0,0 -0,0.01 -0,0.01 0,0 0,0.01 0,0.01l-0.01 0.08zm0.01 -0.11c0,-0 0,-0 0,-0 0,0 0,0 0,0l0 0z"/>
    <path class="fil1" d="M705.38 214.14l0 97.71c0,13.02 -10.54,23.56 -23.55,23.56l-103.01 0c-13,0 -23.55,-10.54 -23.55,-23.56l0 -97.71c0,-5.48 1.88,-10.55 5.04,-14.54 0.03,-0.04 0.06,-0.08 0.09,-0.11 2.43,-3.05 5.59,-5.48 9.22,-7.03 2.83,-1.2 5.93,-1.87 9.2,-1.87l103.01 0c3.28,0 6.41,0.67 9.25,1.89 2.32,0.98 4.44,2.33 6.31,3.97 0.21,0.18 0.41,0.36 0.6,0.54 4.56,4.29 7.4,10.38 7.4,17.14z"/>
    <path class="fil2" d="M576.93 193.09c-10.56,0 -19.15,8.59 -19.15,19.15l0 101.5c0,10.56 8.59,19.15 19.15,19.15l106.8 0c10.56,0 19.15,-8.59 19.15,-19.15l0 -101.5c0,-10.56 -8.59,-19.15 -19.15,-19.15l-106.8 0zm106.8 144.81l-106.8 0c-13.32,0 -24.16,-10.84 -24.16,-24.16l0 -101.5c0,-13.32 10.84,-24.16 24.16,-24.16l106.8 0c13.32,0 24.16,10.84 24.16,24.16l0 101.5c0,13.32 -10.84,24.16 -24.16,24.16z"/>
    <path class="fil1" d="M725.23 268.44c-28.38,3.83 -49.11,-18.37 -49.11,-18.37l-4.14 -32.52 -3.72 -29.3c0,0 39.17,34.81 51.5,11.4 1.95,-3.69 3.23,-8.84 3.58,-15.8 0.03,-0.59 0.05,-1.21 0.07,-1.83l0.28 0.09 43.29 14.51c0,0 5.3,65.48 -41.75,71.83z"/>
    <path class="fil3" d="M718.69 266.38c-10.69,0 -20.02,-3.67 -27.06,-7.7 -1.82,-10.13 -3.72,-20.24 -6.25,-30.19 4.33,7.72 12.07,16.73 25.5,20.58 4.76,1.37 8.8,1.95 12.17,1.95 14.64,0 16.97,-10.94 13.12,-16.42 -5.17,-7.35 -16.11,-14.35 -16.57,-30.22 0.79,-0.94 1.51,-2 2.15,-3.16l5.97 20.87c0.69,2.41 2.28,4.41 4.47,5.63 1.41,0.78 2.97,1.18 4.54,1.18 0.87,0 1.74,-0.12 2.6,-0.37l23.68 -6.78c-0.45,2.57 -1.01,5.21 -1.72,7.87 -5.78,21.63 -18.03,33.86 -36.4,36.35 -2.12,0.29 -4.18,0.42 -6.21,0.42z"/>
    <path class="fil2" d="M718.53 271.39c-25.61,0 -43.44,-18.75 -44.25,-19.62 -0.94,-1.01 -0.89,-2.59 0.12,-3.54 1.01,-0.94 2.59,-0.89 3.54,0.12 0.2,0.21 20.23,21.21 46.95,17.6 18.38,-2.48 30.62,-14.71 36.4,-36.35 3.6,-13.49 3.46,-26.66 3.27,-31.17l-38.82 -13.01c-0.9,12.44 -4.94,20.31 -12.05,23.38 -17.32,7.51 -45.9,-17.63 -47.11,-18.71 -1.03,-0.92 -1.13,-2.5 -0.21,-3.53 0.92,-1.03 2.5,-1.13 3.53,-0.21 7.57,6.72 29.84,23.04 41.8,17.85 5.78,-2.51 8.87,-10 9.2,-22.28l0.09 -3.38 48.34 16.2 0.13 1.65c0.05,0.69 1.31,17 -3.3,34.37 -6.24,23.51 -20.28,37.39 -40.6,40.14 -2.4,0.32 -4.75,0.47 -7.03,0.47z"/>
    <path class="fil1" d="M531.42 301c0,0 -7.74,24.13 17.7,29.31 4.58,0.94 8.96,0.56 12.87,-0.88 16.88,-6.22 25.04,-32.24 2.88,-58.27 -1.17,-1.38 -2.43,-2.76 -3.77,-4.14 -0.05,-0.06 -0.11,-0.11 -0.17,-0.17 0,0 1.18,-1.95 4.94,-4.69 2.36,-1.73 5.76,-3.77 10.5,-5.83l9.12 -27.89 0.01 -0.05 11.47 -35.06c0,0 -9.04,3.06 -20.58,8.3 -4.87,2.2 -10.2,4.8 -15.47,7.72 0,0 -2.51,1.35 -6.42,3.78 -20.06,12.49 -77.08,53.5 -23.08,87.88z"/>
    <path class="fil3" d="M558.93 265.32c-2.96,-2.24 -6.53,-4.49 -10.23,-5.88 0,0 8.58,-4.71 11.44,-8.08 9.34,-11 9.8,-18.61 14.49,-21.02 -0.49,2.08 -0.96,4.17 -1.4,6.26 -1.44,6.81 -2.81,13.63 -4.05,20.49 -6.96,3.9 -9.6,7.27 -10.26,8.24z"/>
    <path class="fil2" d="M554.01 333.32c-1.78,0 -3.58,-0.18 -5.39,-0.55 -8.33,-1.7 -14.28,-5.5 -17.68,-11.31 -4.28,-7.32 -3.19,-15.67 -2.39,-19.34 -15.23,-10.12 -22.71,-21.75 -22.24,-34.6 1.17,-31.92 51.29,-59.23 53.42,-60.38 17.74,-9.79 36.25,-16.11 36.44,-16.17 1.31,-0.44 2.73,0.26 3.17,1.57 0.44,1.31 -0.26,2.73 -1.57,3.17 -0.18,0.06 -18.29,6.25 -35.65,15.82 -0.52,0.28 -49.75,27.11 -50.81,56.18 -0.42,11.36 6.8,21.85 21.45,31.18l1.63 1.04 -0.59 1.84c-0.03,0.09 -2.97,9.65 1.47,17.2 2.65,4.5 7.48,7.5 14.34,8.9 9.45,1.92 18.24,-2.27 22.95,-10.95 5.86,-10.8 5.41,-29.16 -13.43,-48.3l-1.37 -1.39 1.01 -1.67c0.32,-0.53 3.42,-5.29 14.19,-10.41 1.25,-0.59 2.74,-0.07 3.34,1.18 0.59,1.25 0.07,2.74 -1.18,3.34 -6,2.86 -9.25,5.53 -10.83,7.09 19.18,20.52 19.22,40.5 12.68,52.55 -4.81,8.87 -13.47,14.02 -22.96,14.02z"/>
    <path class="fil2" d="M533.18 299.01c0.97,0.55 1.98,1.16 2.97,1.76 1,0.59 1.99,1.21 2.99,1.81l6.09 3.68c-1.22,-0.02 -2.42,-0.17 -3.62,-0.35 -1.19,-0.19 -2.37,-0.43 -3.54,-0.72 -1.17,-0.29 -2.33,-0.6 -3.47,-0.97 -1.15,-0.36 -2.27,-0.75 -3.4,-1.22l1.98 -3.99z"/>
    <path class="fil3" d="M554.1 328.32c-1.47,0 -2.97,-0.15 -4.49,-0.46 -6.87,-1.4 -11.69,-4.39 -14.34,-8.9 -2.6,-4.42 -2.67,-9.54 -2.27,-13.03 2.26,5.35 7.38,13.15 18.06,13.15 2.23,0 4.7,-0.34 7.44,-1.11 1.77,-0.5 3.31,-1.25 4.64,-2.19 -0.01,3.45 0.05,6.91 0.18,10.36 -2.81,1.43 -5.94,2.18 -9.22,2.18z"/>
    <path class="fil2" d="M554.09 330.83c-1.62,0 -3.29,-0.17 -4.98,-0.51 -25.13,-5.12 -17.87,-28.75 -17.7,-29.31l0.01 -0.01c0,0 0.07,0.39 0.25,1.05l-0.47 0.94c0.28,0.12 0.56,0.23 0.84,0.34 0.24,0.75 0.55,1.63 0.96,2.59 -0.4,3.49 -0.33,8.61 2.27,13.03 2.65,4.5 7.48,7.5 14.34,8.9 1.52,0.31 3.02,0.46 4.49,0.46 3.28,0 6.4,-0.75 9.22,-2.18 0.03,0.9 0.08,1.8 0.12,2.7 -2.87,1.29 -6.02,1.99 -9.35,1.99z"/>
    <path class="fil4" d="M532.04 303.34c-0.28,-0.11 -0.56,-0.22 -0.84,-0.34l0.47 -0.94c0.09,0.36 0.22,0.79 0.37,1.29z"/>
    <path class="fil2" d="M514.44 288.18c-1.38,0 -2.5,-1.12 -2.5,-2.49 -0.02,-7.41 6.09,-15.08 15.57,-19.52 10.7,-5.02 26.96,-6.35 40.52,4.96 1.06,0.89 1.2,2.47 0.32,3.53 -0.89,1.06 -2.46,1.2 -3.53,0.32 -11.75,-9.81 -25.88,-8.64 -35.18,-4.28 -7.72,3.62 -12.71,9.5 -12.69,14.98 0,1.38 -1.11,2.5 -2.5,2.51l-0.01 0z"/>
    <path class="fil2" d="M560.29 268.61c-0.82,-0.86 -1.74,-1.75 -2.64,-2.59 -0.91,-0.85 -1.85,-1.68 -2.81,-2.49 -1.92,-1.6 -3.93,-3.13 -6.14,-4.38 2.49,0.57 4.93,1.47 7.31,2.48 1.19,0.52 2.37,1.06 3.53,1.63 1.17,0.58 2.31,1.16 3.49,1.83l-2.74 3.51z"/>
    <path class="fil4" d="M608.99 414.71c-0.46,0 -0.92,-0.12 -1.33,-0.38 -12.27,-7.71 -30.29,-4.3 -30.47,-4.26 -1.36,0.26 -2.67,-0.62 -2.94,-1.98 -0.27,-1.36 0.61,-2.67 1.97,-2.94 0.81,-0.16 20.13,-3.84 34.1,4.93 1.17,0.74 1.52,2.28 0.79,3.45 -0.48,0.76 -1.29,1.17 -2.12,1.17z"/>
    <path class="fil1" d="M680.32 215.49c7.08,33.72 18.03,79.49 13.2,124.83 -3.09,29.08 -9.57,67.3 -9.57,67.3 0,0 19.27,6.35 17.89,20.03 -0.03,0.37 0.82,14.67 -37.35,13.24 -16.18,-0.61 -27.18,-3.7 -31.12,-12.22 -3.53,-7.63 -3.02,-41.55 -3.02,-41.55l0 -47.99 -0.05 0 0 47.99c0,0 0.51,33.92 -3.02,41.55 -3.94,8.51 -13.14,11.61 -29.32,12.22 -38.16,1.43 -39.11,-12.87 -39.15,-13.24 -1.38,-13.68 17.89,-20.03 17.89,-20.03 0,0 -6.48,-38.22 -9.57,-67.3 -4.94,-46.43 6.48,-93.46 13.72,-127.23l99.47 2.4z"/>
    <path class="fil2" d="M681.55 215.23c5.06,15.43 7.94,31.41 10.79,47.41 2.72,16.03 4.66,32.25 5.1,48.59 0.1,4.09 0.07,8.18 -0.02,12.27 -0.13,4.09 -0.34,8.18 -0.68,12.27 -0.35,4.1 -0.81,8.13 -1.29,12.16 -0.48,4.03 -0.99,8.05 -1.53,12.07 -1.06,8.04 -2.29,16.05 -3.53,24.05 -1.25,8 -2.56,15.99 -3.98,23.98l-1.68 -2.8 0 0c1.14,0.39 2.09,0.79 3.09,1.24 0.99,0.45 1.96,0.92 2.92,1.44 1.91,1.03 3.76,2.21 5.51,3.59 1.74,1.38 3.38,2.97 4.76,4.85 1.38,1.87 2.48,4.07 3.01,6.45 0.27,1.19 0.39,2.42 0.38,3.63 -0.01,0.3 -0.01,0.61 -0.04,0.9l-0.03 0.45 -0.01 0.1 0.01 -0.08c0,-0.04 0,-0.04 0,-0l-0.01 0.27c-0.04,0.75 -0.17,1.42 -0.36,2.07 -0.77,2.61 -2.43,4.65 -4.25,6.19 -1.84,1.54 -3.87,2.65 -5.93,3.5 -2.06,0.85 -4.16,1.48 -6.26,1.95 -4.21,0.96 -8.43,1.38 -12.62,1.58 -4.2,0.2 -8.36,0.12 -12.53,-0.07 -4.17,-0.23 -8.36,-0.61 -12.57,-1.47 -2.1,-0.42 -4.2,-0.98 -6.28,-1.72 -2.07,-0.75 -4.13,-1.71 -6.04,-3.01 -1.92,-1.29 -3.67,-2.97 -5.02,-4.95 -0.34,-0.5 -0.64,-1.01 -0.93,-1.54l-0.4 -0.8c-0.13,-0.28 -0.25,-0.59 -0.37,-0.89 -0.42,-1.17 -0.7,-2.26 -0.91,-3.34 -0.85,-4.28 -1.16,-8.4 -1.44,-12.55 -0.51,-8.28 -0.63,-16.5 -0.58,-24.75l0.01 -49.14 2.5 2.5 -0.05 0 2.5 -2.5 0.01 49.07c0.05,8.24 -0.06,16.45 -0.57,24.71 -0.28,4.14 -0.59,8.26 -1.42,12.53 -0.22,1.07 -0.48,2.16 -0.88,3.31l-0.36 0.9c-0.13,0.28 -0.25,0.53 -0.38,0.79 -0.27,0.52 -0.55,1.03 -0.87,1.53 -1.25,1.99 -2.9,3.77 -4.79,5.15 -1.88,1.38 -3.94,2.42 -6.02,3.18 -2.09,0.78 -4.2,1.32 -6.31,1.73 -4.22,0.82 -8.41,1.15 -12.57,1.33 -4.16,0.16 -8.33,0.18 -12.52,-0.07 -4.19,-0.24 -8.4,-0.75 -12.58,-1.76 -2.09,-0.52 -4.17,-1.16 -6.21,-2.03 -2.03,-0.87 -4.04,-1.95 -5.88,-3.42 -1.82,-1.47 -3.51,-3.34 -4.51,-5.8 -0.25,-0.62 -0.45,-1.26 -0.57,-2.03l-0.04 -0.31 -0.02 -0.23 -0.03 -0.45c-0.02,-0.3 -0.03,-0.6 -0.03,-0.9 -0,-1.21 0.12,-2.43 0.39,-3.62 0.54,-2.38 1.65,-4.57 3.02,-6.44 1.38,-1.87 3.02,-3.46 4.76,-4.83 1.74,-1.38 3.59,-2.55 5.5,-3.58 0.96,-0.52 1.93,-0.99 2.91,-1.44 1.01,-0.45 1.95,-0.85 3.09,-1.24l0 0 -1.68 2.8c-1.44,-8.09 -2.77,-16.17 -4.03,-24.28 -1.26,-8.1 -2.5,-16.22 -3.57,-24.36 -0.54,-4.07 -1.05,-8.15 -1.54,-12.23l-0.69 -6.13c-0.2,-2.06 -0.43,-4.13 -0.57,-6.19 -0.66,-8.27 -0.81,-16.57 -0.62,-24.84 0.5,-16.55 2.52,-32.97 5.32,-49.19 1.4,-8.11 3,-16.18 4.7,-24.21 0.84,-4.02 1.79,-8.01 2.83,-11.98 1.05,-3.96 2.19,-7.9 3.56,-11.8 0.23,-0.66 0.95,-1 1.61,-0.77 0.55,0.2 0.89,0.74 0.84,1.3 -0.35,4.12 -0.96,8.18 -1.64,12.22 -0.69,4.04 -1.45,8.05 -2.28,12.05 -1.62,8 -3.15,16.02 -4.47,24.06 -2.64,16.07 -4.48,32.26 -4.85,48.47 -0.2,8.1 -0.06,16.2 0.57,24.26 0.14,2.02 0.36,4.02 0.55,6.04l0.68 6.08c0.47,4.05 0.98,8.1 1.51,12.15 1.07,8.1 2.16,16.2 3.35,24.29l1.81 12.13 1.87 12.11 0.33 2.13 -2.01 0.66 -0 0c-0.8,0.28 -1.75,0.66 -2.6,1.05 -0.88,0.4 -1.74,0.82 -2.59,1.28 -1.69,0.91 -3.3,1.94 -4.78,3.1 -2.93,2.31 -5.28,5.21 -6.01,8.46 -0.18,0.81 -0.27,1.63 -0.27,2.47 0.01,0.21 0.01,0.42 0.02,0.63l0.03 0.32 0.01 0.15 0.01 0.07c0.04,0.24 0.14,0.59 0.27,0.92 0.54,1.35 1.64,2.67 2.99,3.75 2.75,2.18 6.41,3.56 10.15,4.48 1.88,0.47 3.82,0.79 5.77,1.07 1.96,0.24 3.93,0.45 5.92,0.55 3.98,0.24 8,0.22 12.02,0.07 4.01,-0.17 8,-0.49 11.82,-1.24 3.8,-0.75 7.48,-1.94 10.32,-4.03 1.42,-1.04 2.6,-2.31 3.52,-3.79 0.23,-0.36 0.44,-0.75 0.65,-1.14l0.29 -0.59 0.21 -0.52c0.27,-0.78 0.5,-1.68 0.68,-2.62 0.74,-3.77 1.07,-7.83 1.33,-11.84 0.49,-8.07 0.61,-16.23 0.56,-24.35l-0.01 -49.11 0 -2.5 5.06 0 0 2.5 -0.01 49.18c-0.05,8.14 0.07,16.31 0.57,24.39 0.27,4.02 0.6,8.09 1.35,11.85 0.19,0.94 0.43,1.83 0.7,2.59 0.08,0.18 0.13,0.34 0.22,0.53l0.29 0.57c0.21,0.37 0.42,0.74 0.66,1.09 0.96,1.41 2.2,2.62 3.68,3.62 2.96,2.01 6.69,3.19 10.5,3.97 3.83,0.78 7.82,1.15 11.83,1.37 4.02,0.19 8.05,0.26 12.04,0.07 3.98,-0.19 7.95,-0.6 11.73,-1.46 1.9,-0.42 3.73,-0.98 5.46,-1.69 1.73,-0.71 3.32,-1.61 4.63,-2.7 1.3,-1.09 2.28,-2.41 2.67,-3.76 0.1,-0.33 0.16,-0.67 0.17,-0.94l0 -0.11 0.01 -0.28 0.01 -0.09 0.02 -0.32c0.02,-0.21 0.01,-0.42 0.03,-0.63 0,-0.83 -0.08,-1.66 -0.26,-2.47 -0.71,-3.25 -3.06,-6.17 -6,-8.48 -1.47,-1.16 -3.09,-2.19 -4.78,-3.11 -0.85,-0.46 -1.71,-0.88 -2.59,-1.28 -0.86,-0.39 -1.81,-0.77 -2.61,-1.05l0 0 -2.03 -0.55 0.35 -2.25 1.84 -11.96 1.8 -11.98c1.17,-7.99 2.25,-15.99 3.32,-23.98 0.53,-4 1.03,-8 1.5,-12 0.47,-4 0.92,-8 1.25,-11.96 0.32,-3.98 0.52,-7.97 0.64,-11.96 0.09,-3.99 0.1,-7.99 0.01,-11.99 -0.3,-16 -2.08,-31.99 -4.64,-47.87 -1.28,-7.94 -2.76,-15.86 -4.34,-23.77 -0.76,-3.96 -1.52,-7.93 -2.16,-11.92 -0.66,-3.99 -1.25,-8 -1.61,-12.06l0 -0.01c-0.06,-0.69 0.45,-1.3 1.14,-1.37 0.59,-0.05 1.13,0.32 1.31,0.86z"/>
    <path class="fil4" d="M683.47 410.07l-1.91 -0.21c-0.66,-0.07 -1.32,-0.11 -1.98,-0.17 -1.32,-0.11 -2.65,-0.19 -3.98,-0.24 -2.66,-0.11 -5.31,-0.08 -7.96,0.07 -2.65,0.17 -5.25,0.58 -7.83,1.15 -2.58,0.59 -5.05,1.5 -7.48,2.6l-0.07 0.03c-0.63,0.29 -1.37,0 -1.66,-0.63 -0.25,-0.55 -0.07,-1.18 0.4,-1.52 2.34,-1.72 4.91,-3.18 7.65,-4.22 0.68,-0.28 1.38,-0.47 2.07,-0.71l1.04 -0.33c0.35,-0.1 0.71,-0.18 1.06,-0.27 0.71,-0.17 1.41,-0.36 2.13,-0.51l2.15 -0.38c2.87,-0.44 5.77,-0.63 8.66,-0.58 1.44,0.04 2.89,0.12 4.32,0.28 0.72,0.07 1.44,0.19 2.15,0.3 0.73,0.12 1.41,0.24 2.2,0.43 1.34,0.32 2.17,1.67 1.85,3.02 -0.3,1.24 -1.47,2.04 -2.71,1.91l-0.12 -0.01z"/>
    <path class="fil4" d="M576.51 405.16c0.79,-0.19 1.47,-0.32 2.2,-0.44 0.72,-0.12 1.44,-0.21 2.15,-0.3 1.44,-0.16 2.88,-0.25 4.32,-0.29 2.89,-0.07 5.79,0.11 8.67,0.53 2.88,0.43 5.72,1.17 8.46,2.2 2.74,1.03 5.32,2.52 7.63,4.28 0.55,0.42 0.66,1.2 0.24,1.75 -0.34,0.45 -0.92,0.6 -1.42,0.42l-0.14 -0.05c-1.27,-0.46 -2.42,-1.1 -3.71,-1.44 -0.64,-0.19 -1.23,-0.45 -1.88,-0.6 -0.64,-0.15 -1.28,-0.33 -1.91,-0.49 -2.58,-0.55 -5.17,-0.98 -7.82,-1.14 -2.64,-0.18 -5.29,-0.21 -7.95,-0.12 -1.33,0.05 -2.66,0.12 -3.98,0.23 -1.31,0.08 -2.68,0.24 -3.89,0.36l-0.13 0.02c-1.37,0.14 -2.61,-0.86 -2.75,-2.23 -0.13,-1.27 0.7,-2.41 1.92,-2.7z"/>
    <path class="fil3" d="M656.21 320.9l-55.56 0c-5.6,0 -10.17,-4.76 -10.17,-10.57l0 -3.36c-3.08,0.49 -6.37,0.68 -9.64,0.68 -4.17,0 -8.3,-0.31 -11.91,-0.71 0.08,-2.18 0.18,-4.37 0.3,-6.55 3.61,0.38 7.59,0.66 11.59,0.66 3.27,0 6.56,-0.19 9.66,-0.65l0 0.82c0,5.81 4.57,10.57 10.17,10.57l55.56 0c5.59,0 10.17,-4.76 10.17,-10.57l0 -1.61c4.19,1.05 8.95,1.44 13.68,1.44 3.92,0 7.82,-0.26 11.36,-0.64 0.13,2.19 0.23,4.37 0.31,6.56 -3.56,0.39 -7.61,0.69 -11.68,0.69 -4.75,0 -9.54,-0.4 -13.67,-1.53l0 4.21c0,5.81 -4.58,10.57 -10.17,10.57z"/>
    <path class="fil3" d="M697.23 305.6c-0.1,-2.06 -0.22,-4.12 -0.36,-6.18 0.2,-0.08 0.39,-0.15 0.58,-0.24 0.06,2.07 0.1,4.14 0.12,6.21 -0.11,0.07 -0.23,0.14 -0.34,0.2z"/>
    <path class="fil3" d="M563.39 305.46c-0.1,-0.06 -0.2,-0.12 -0.3,-0.19 0.02,-2.06 0.07,-4.12 0.12,-6.18 0.18,0.08 0.35,0.16 0.53,0.23 -0.14,2.04 -0.26,4.09 -0.35,6.14z"/>
    <path class="fil2" d="M691.73 306.96c-0.08,-2.18 -0.18,-4.37 -0.31,-6.56 0.94,-0.1 1.85,-0.2 2.73,-0.31 0.94,-0.12 1.86,-0.35 2.73,-0.67 0.14,2.06 0.26,4.12 0.36,6.18 -1.03,0.58 -2.17,0.97 -3.4,1.12 -0.68,0.09 -1.38,0.17 -2.11,0.25zm-122.81 -0.02c-0.65,-0.07 -1.27,-0.15 -1.89,-0.22 -1.32,-0.17 -2.55,-0.6 -3.64,-1.26 0.1,-2.05 0.21,-4.09 0.35,-6.14 0.95,0.38 1.95,0.64 2.98,0.77 0.81,0.1 1.64,0.2 2.49,0.29 -0.13,2.18 -0.23,4.37 -0.3,6.55z"/>
    <path class="fil1" d="M597.79 295.9c-8.54,3.59 -21.75,2.84 -30.75,1.71 -5.4,-0.68 -9.19,-5.86 -8.4,-11.45 0.73,-5.1 5.05,-8.81 10.01,-8.57 8.43,0.41 21.06,0.6 29.06,-1.24l0.08 19.55z"/>
    <path class="fil3" d="M580.75 296.04c-4.06,0 -8.56,-0.3 -13.4,-0.91 -1.87,-0.24 -3.55,-1.22 -4.73,-2.76 -1.27,-1.66 -1.8,-3.74 -1.5,-5.85 0.06,-0.45 0.16,-0.88 0.3,-1.29 1.47,1.51 3.41,2.54 5.62,2.82 4.02,0.5 8.89,0.94 13.81,0.94 3.27,0 6.56,-0.19 9.63,-0.67l0 7.02c-2.84,0.47 -6.11,0.71 -9.72,0.71z"/>
    <path class="fil2" d="M568.19 280.09c-3.53,0 -6.54,2.71 -7.07,6.43 -0.3,2.11 0.23,4.19 1.5,5.85 1.18,1.55 2.86,2.52 4.73,2.76 12.83,1.61 23.29,1.07 29.47,-1.53 1.15,-0.48 2,-2.16 2.35,-4.6 0.59,-4.2 -0.56,-8.78 -1.49,-10.07 -8.15,1.74 -20.29,1.6 -29.15,1.17 -0.11,-0.01 -0.23,-0.01 -0.34,-0.01zm12.62 20.96c-4.95,0 -9.87,-0.42 -14.09,-0.95 -3.21,-0.41 -6.08,-2.07 -8.08,-4.69 -2.06,-2.7 -2.97,-6.19 -2.48,-9.59 0.91,-6.41 6.34,-11.03 12.61,-10.71 12.38,0.6 22.46,0.18 28.38,-1.18 1.23,-0.28 4.28,-0.33 6.1,5.31 2.04,6.31 1.61,16.42 -4.49,18.98 -5.05,2.12 -11.52,2.84 -17.95,2.84z"/>
    <path class="fil1" d="M663.08 295.9c8.54,3.59 21.75,2.84 30.75,1.71 5.4,-0.68 9.19,-5.86 8.4,-11.45 -0.73,-5.1 -5.05,-8.81 -10.01,-8.57 -8.43,0.41 -21.06,0.6 -29.06,-1.24l-0.08 19.55z"/>
    <path class="fil3" d="M680.12 296.04c-5.46,0 -10.12,-0.54 -13.74,-1.61l0 -6.94c4.12,1.12 8.9,1.52 13.65,1.52 4.91,0 9.78,-0.43 13.81,-0.93 2.21,-0.28 4.16,-1.32 5.63,-2.83 0.13,0.41 0.23,0.84 0.29,1.28 0.3,2.11 -0.23,4.19 -1.5,5.85 -1.18,1.55 -2.86,2.52 -4.73,2.76 -4.84,0.61 -9.34,0.91 -13.4,0.91z"/>
    <path class="fil2" d="M663.2 278.93c-0.93,1.29 -2.09,5.87 -1.49,10.07 0.34,2.44 1.2,4.12 2.35,4.6 6.18,2.6 16.65,3.14 29.47,1.53 1.87,-0.24 3.55,-1.22 4.73,-2.76 1.27,-1.66 1.8,-3.74 1.5,-5.85 -0.55,-3.84 -3.74,-6.61 -7.41,-6.42 -8.85,0.43 -21,0.57 -29.15,-1.17zm16.86 22.12c-6.42,0 -12.9,-0.71 -17.95,-2.84 -6.1,-2.56 -6.52,-12.67 -4.49,-18.98 1.82,-5.64 4.87,-5.59 6.1,-5.31 5.92,1.36 16,1.78 28.38,1.18 6.28,-0.3 11.69,4.3 12.61,10.71 0.49,3.4 -0.42,6.89 -2.48,9.59 -2,2.62 -4.87,4.28 -8.08,4.69 -4.21,0.53 -9.14,0.95 -14.09,0.95z"/>
    <path class="fil1" d="M666.38 269.89l0 31.33c0,5.81 -4.58,10.57 -10.17,10.57l-55.56 0c-5.6,0 -10.17,-4.76 -10.17,-10.57l0 -31.33c0,-5.81 4.57,-10.56 10.17,-10.56l55.56 0c4.47,0 8.29,3.04 9.65,7.22 0.34,1.05 0.53,2.17 0.53,3.34z"/>
    <path class="fil3" d="M656.21 311.79l-55.56 0c-5.6,0 -10.17,-4.76 -10.17,-10.57l0 -10.55c7.01,4.03 19.05,9.54 32.46,9.54 4.93,0 10.05,-0.75 15.17,-2.58 9.31,-3.34 19.98,-14.78 19.98,-14.78 0,0 0.41,11.81 2.09,11.81 0.01,0 0.03,0 0.04,-0 4.77,-0.53 4.73,-24.81 5.63,-28.12 0.34,1.05 0.53,2.17 0.53,3.34l0 31.33c0,5.81 -4.58,10.57 -10.17,10.57z"/>
    <path class="fil2" d="M600.01 261.83c-3.88,0 -7.03,3.15 -7.03,7.03l0 33.4c0,3.88 3.15,7.03 7.03,7.03l56.84 0c3.88,0 7.03,-3.15 7.03,-7.03l0 -33.4c0,-3.88 -3.15,-7.03 -7.03,-7.03l-56.84 0zm56.84 52.46l-56.84 0c-6.64,0 -12.04,-5.4 -12.04,-12.04l0 -33.4c0,-6.64 5.4,-12.03 12.04,-12.03l56.84 0c6.64,0 12.03,5.4 12.03,12.03l0 33.4c0,6.64 -5.4,12.04 -12.03,12.04z"/>
    <path class="fil5" d="M656.88 285.56c0,5.03 -3.93,9.11 -8.77,9.11 -4.85,0 -8.77,-4.08 -8.77,-9.11 0,-5.03 3.93,-9.11 8.77,-9.11 4.85,0 8.77,4.08 8.77,9.11z"/>
    <path class="fil1" d="M656.88 285.56c0,0.62 -0.06,1.22 -0.17,1.81 -0.81,-4.17 -4.36,-7.31 -8.61,-7.31 -4.25,0 -7.79,3.14 -8.6,7.31 -0.12,-0.58 -0.17,-1.19 -0.17,-1.81 0,-5.03 3.93,-9.11 8.77,-9.11 4.85,0 8.78,4.08 8.78,9.11z"/>
    <path class="fil6" d="M656.88 285.56c0,5.03 -3.93,9.11 -8.77,9.11 -4.84,0 -8.77,-4.08 -8.77,-9.11 0,-0.85 0.11,-1.67 0.32,-2.44 1.03,3.84 4.43,6.66 8.45,6.66 4.02,0 7.42,-2.82 8.45,-6.66 0.21,0.77 0.32,1.6 0.32,2.44z"/>
    <path class="fil2" d="M648.11 278.33c-3.8,0 -6.9,3.25 -6.9,7.23 0,3.99 3.09,7.23 6.9,7.23 3.8,0 6.89,-3.25 6.89,-7.23 0,-3.99 -3.09,-7.23 -6.89,-7.23zm0 18.22c-5.87,0 -10.65,-4.93 -10.65,-10.99 0,-6.06 4.78,-10.99 10.65,-10.99 5.87,0 10.65,4.93 10.65,10.99 0,6.06 -4.78,10.99 -10.65,10.99z"/>
    <path class="fil2" d="M623.25 314.3c-1.38,0 -2.5,-1.12 -2.5,-2.5l0 -16.04c0,-3.18 -1.45,-6.22 -3.89,-8.12l-1.41 -1.1c-3.64,-2.84 -5.81,-7.36 -5.81,-12.07l0 -15.13c0,-1.38 1.12,-2.5 2.5,-2.5 1.38,0 2.5,1.12 2.5,2.5l0 15.13c0,3.18 1.45,6.22 3.89,8.12l1.41 1.1c3.64,2.84 5.81,7.35 5.81,12.07l0 16.04c0,1.38 -1.12,2.5 -2.5,2.5z"/>
    <path class="fil2" d="M599.65 367.04c-9.99,0 -21.15,-1.8 -31.64,-7.43 -1.22,-0.65 -1.68,-2.17 -1.02,-3.39 0.66,-1.22 2.17,-1.68 3.39,-1.02 26.39,14.16 58.74,1.68 59.07,1.56 1.28,-0.51 2.74,0.12 3.25,1.41 0.51,1.28 -0.12,2.74 -1.41,3.25 -0.89,0.35 -14.53,5.63 -31.63,5.63z"/>
    <path class="fil2" d="M661.02 367.04c-17.09,0 -30.73,-5.28 -31.62,-5.63 -1.28,-0.51 -1.92,-1.96 -1.41,-3.25 0.51,-1.28 1.96,-1.91 3.25,-1.41 0.32,0.13 32.66,12.6 59.04,-1.56 1.22,-0.65 2.74,-0.19 3.39,1.02 0.65,1.22 0.2,2.73 -1.02,3.39 -10.49,5.63 -21.66,7.43 -31.64,7.43z"/>
    <path class="fil1" d="M605.88 337.92c0,0 9.91,4.43 24.45,4.43 14.53,0 24.5,-4.43 24.5,-4.43 0,0 -6.59,-5.2 -24.5,-5.2 -17.92,0 -24.45,5.2 -24.45,5.2z"/>
    <path class="fil4" d="M602.72 336.39c2.22,0.64 4.58,1.21 6.9,1.67 2.33,0.48 4.67,0.87 7.02,1.2 2.36,0.28 4.7,0.59 7.07,0.71 1.18,0.09 2.36,0.13 3.54,0.19 1.18,0.05 2.36,0.03 3.54,0.05 2.36,-0.02 4.73,-0.07 7.08,-0.27 2.36,-0.11 4.71,-0.43 7.06,-0.71l1.76 -0.25 1.76 -0.29c1.17,-0.19 2.34,-0.4 3.5,-0.65 2.32,-0.45 4.68,-1.02 6.9,-1.65l0.07 -0.02c0.67,-0.19 1.36,0.2 1.55,0.87 0.16,0.57 -0.11,1.16 -0.6,1.44 -2.27,1.25 -4.57,2.14 -6.94,2.97 -2.37,0.79 -4.78,1.47 -7.23,1.98 -1.22,0.26 -2.45,0.5 -3.69,0.68 -1.24,0.19 -2.48,0.37 -3.72,0.49 -2.49,0.26 -5,0.36 -7.51,0.4 -5.01,-0.04 -10.02,-0.53 -14.92,-1.58 -2.45,-0.51 -4.86,-1.19 -7.23,-1.98 -2.37,-0.83 -4.67,-1.72 -6.94,-2.97 -0.61,-0.33 -0.83,-1.1 -0.5,-1.7 0.29,-0.52 0.89,-0.76 1.45,-0.6l0.07 0.02z"/>
    <path class="fil3" d="M661.11 215.02l-64.94 -1.57c-1.68,-0.82 -3.33,-1.69 -4.92,-2.6l1.71 -5.23c9.38,4.04 19.57,6.62 30.31,7.43 2.4,0.18 4.79,0.27 7.16,0.27 14.15,0 27.7,-3.16 39.88,-8.86l0.7 5.49c-3.13,1.89 -6.44,3.6 -9.91,5.08zm-85.39 -15.82c-1.71,-1.66 -3.31,-3.38 -4.79,-5.14 0.54,-0.18 1.09,-0.33 1.65,-0.46 1.95,1.51 3.98,2.95 6.06,4.31 -0.95,0.41 -1.92,0.84 -2.91,1.29zm110.42 -1.13c-0.76,-0.45 -1.52,-0.9 -2.26,-1.37 1.44,-0.99 2.86,-2.02 4.25,-3.09 0.56,0.13 1.11,0.29 1.65,0.47 -1.14,1.36 -2.36,2.69 -3.64,3.99z"/>
    <path class="fil2" d="M689.78 194.07c-0.54,-0.18 -1.09,-0.34 -1.65,-0.47 0.65,-0.5 1.3,-1.01 1.93,-1.53 0.34,0.13 0.68,0.26 1.02,0.41 -0.42,0.53 -0.85,1.06 -1.3,1.59zm-118.86 -0.02c-0.44,-0.53 -0.88,-1.06 -1.3,-1.6 0.33,-0.14 0.67,-0.27 1.01,-0.4 0.64,0.52 1.28,1.03 1.94,1.54 -0.56,0.13 -1.11,0.29 -1.65,0.46z"/>
    <path class="fil3" d="M671.01 209.94l-0.7 -5.49c3.07,-1.43 6.05,-3.03 8.93,-4.77 1,0.66 2.03,1.31 3.1,1.96 -3.42,3.02 -7.22,5.81 -11.34,8.3z"/>
    <path class="fil2" d="M682.35 201.64c-1.07,-0.65 -2.11,-1.31 -3.1,-1.96 1.57,-0.95 3.12,-1.95 4.63,-2.99 0.74,0.46 1.49,0.92 2.26,1.37 -1.2,1.22 -2.47,2.42 -3.79,3.58z"/>
    <path class="fil3" d="M591.25 210.85c-4.14,-2.38 -7.98,-5.07 -11.46,-7.98 1.42,-0.62 2.78,-1.21 4.09,-1.76 2.93,1.66 5.96,3.17 9.09,4.51l-1.71 5.23z"/>
    <path class="fil2" d="M579.78 202.86c-1.42,-1.19 -2.78,-2.41 -4.07,-3.67 0.99,-0.45 1.96,-0.88 2.91,-1.29 1.71,1.12 3.46,2.19 5.25,3.2 -1.31,0.55 -2.67,1.14 -4.09,1.76z"/>
    <path class="fil3" d="M630.35 221.42c-12.39,0 -24.03,-3.03 -34.18,-7.96l64.94 1.57c-9.31,4 -19.74,6.39 -30.75,6.39z"/>
    <path class="fil7" d="M669.78 438.47c-2.38,0 -4.76,-0.07 -7.14,-0.18 -4.01,-0.22 -8,-0.59 -11.83,-1.37 -3.81,-0.78 -7.54,-1.96 -10.5,-3.97 -1.48,-0.99 -2.73,-2.21 -3.68,-3.62 -0.24,-0.35 -0.45,-0.72 -0.66,-1.09l-0.29 -0.57c-0.08,-0.19 -0.14,-0.35 -0.22,-0.53 -0.27,-0.76 -0.51,-1.65 -0.7,-2.59 -0.75,-3.76 -1.08,-7.84 -1.35,-11.85 -0.5,-8.08 -0.61,-16.25 -0.57,-24.39l0 -25.7c1.42,0.45 3.24,0.99 5.39,1.53 -3.45,18.34 -0.75,45.67 1.11,52.46 2.74,10 15.74,13.74 30.5,13.74 4.52,0 9.2,-0.35 13.81,-0.98 8.59,-1.18 13.16,-3.17 15.58,-5.04 0.12,0.67 0.18,1.36 0.18,2.05 -0.01,0.21 -0.01,0.42 -0.03,0.63l-0.02 0.32 -0.01 0.09 -0.01 0.28 -0 0.11c-0.02,0.28 -0.07,0.61 -0.17,0.94 -0.39,1.35 -1.37,2.67 -2.67,3.76 -1.31,1.09 -2.9,1.99 -4.63,2.7 -1.72,0.71 -3.56,1.27 -5.46,1.69 -3.78,0.87 -7.75,1.27 -11.73,1.46 -1.63,0.08 -3.26,0.11 -4.9,0.11zm-77 -0c-2.13,0 -4.25,-0.05 -6.36,-0.18 -1.99,-0.11 -3.96,-0.31 -5.92,-0.55 -1.95,-0.29 -3.89,-0.6 -5.77,-1.07 -3.74,-0.93 -7.4,-2.3 -10.15,-4.48 -1.35,-1.08 -2.45,-2.4 -2.99,-3.75 -0.13,-0.33 -0.23,-0.67 -0.27,-0.92l-0.01 -0.07 -0.01 -0.15 -0.03 -0.32c-0.01,-0.21 -0.01,-0.42 -0.02,-0.63 0,-0.68 0.05,-1.35 0.18,-2.01 2.42,1.87 6.99,3.85 15.57,5.03 4.6,0.63 9.29,0.98 13.81,0.98 14.76,0 27.76,-3.75 30.5,-13.74 1.86,-6.79 4.56,-34.12 1.11,-52.46 2.14,-0.54 3.97,-1.07 5.39,-1.52l0.01 25.62c0.05,8.12 -0.07,16.29 -0.56,24.35 -0.27,4.02 -0.59,8.08 -1.33,11.84 -0.19,0.93 -0.42,1.83 -0.68,2.62l-0.21 0.52 -0.29 0.59c-0.2,0.39 -0.41,0.77 -0.65,1.14 -0.92,1.47 -2.11,2.74 -3.52,3.79 -2.84,2.09 -6.51,3.28 -10.32,4.03 -3.82,0.75 -7.81,1.07 -11.82,1.24 -1.89,0.07 -3.78,0.11 -5.66,0.11z"/>
    <path class="fil4" d="M667.88 440.99c-1.65,0 -3.38,-0.03 -5.19,-0.1 -16.18,-0.61 -25.38,-3.71 -29.32,-12.22 -1.38,-2.99 -2.14,-9.4 -2.56,-16.08l-0.36 -25.63 -0.61 25.63c-0.42,6.68 -1.18,13.09 -2.56,16.08 -3.94,8.51 -13.14,11.61 -29.32,12.22 -1.81,0.07 -3.55,0.1 -5.2,0.1 -33.06,0 -33.92,-12.99 -33.95,-13.34 -0.2,-1.98 0.04,-3.81 0.58,-5.49 0.4,0.66 1.03,1.41 2.03,2.17 -0.12,0.66 -0.18,1.33 -0.18,2.01 0.01,0.21 0.01,0.42 0.02,0.63l0.03 0.32 0.01 0.15 0.01 0.07c0.04,0.24 0.14,0.59 0.27,0.92 0.54,1.35 1.64,2.67 2.99,3.75 2.75,2.18 6.41,3.56 10.15,4.48 1.88,0.47 3.82,0.79 5.77,1.07 1.96,0.24 3.93,0.45 5.92,0.55 2.11,0.12 4.23,0.18 6.36,0.18 1.88,0 3.77,-0.04 5.66,-0.11 4.01,-0.17 8,-0.49 11.82,-1.24 3.8,-0.75 7.48,-1.94 10.32,-4.03 1.42,-1.04 2.6,-2.31 3.52,-3.79 0.23,-0.36 0.44,-0.75 0.65,-1.14l0.29 -0.59 0.21 -0.52c0.27,-0.78 0.5,-1.68 0.68,-2.62 0.74,-3.77 1.07,-7.83 1.33,-11.84 0.49,-8.07 0.61,-16.23 0.56,-24.35l-0.01 -25.62c1.08,-0.35 1.94,-0.64 2.54,-0.86 0.59,0.21 1.44,0.51 2.51,0.85l-0 25.7c-0.05,8.14 0.07,16.31 0.57,24.39 0.27,4.02 0.6,8.09 1.35,11.85 0.19,0.94 0.43,1.83 0.7,2.59 0.08,0.18 0.13,0.34 0.22,0.53l0.29 0.57c0.21,0.37 0.42,0.74 0.66,1.09 0.96,1.41 2.2,2.62 3.68,3.62 2.96,2.01 6.69,3.19 10.5,3.97 3.83,0.78 7.82,1.15 11.83,1.37 2.38,0.11 4.76,0.18 7.14,0.18 1.64,0 3.27,-0.03 4.9,-0.11 3.98,-0.19 7.95,-0.6 11.73,-1.46 1.9,-0.42 3.73,-0.98 5.46,-1.69 1.73,-0.71 3.32,-1.61 4.63,-2.7 1.3,-1.09 2.28,-2.41 2.67,-3.76 0.1,-0.33 0.16,-0.67 0.17,-0.94l0 -0.11 0.01 -0.28 0.01 -0.09 0.02 -0.32c0.02,-0.21 0.01,-0.42 0.03,-0.63 0,-0.69 -0.05,-1.38 -0.18,-2.05 0.99,-0.77 1.62,-1.51 2.02,-2.17 0.54,1.68 0.78,3.51 0.58,5.49 -0.03,0.35 -0.9,13.34 -33.95,13.34z"/>
    <path class="fil7" d="M621.27 359.22c-1.64,-5.77 -4.13,-10.08 -7.77,-11.63 -23.08,-9.86 -31.55,-17.79 -25.13,-19.07 0.35,-0.07 0.76,-0.1 1.25,-0.1 4.1,0 13.83,2.15 40.7,2.15 26.87,0 36.6,-2.15 40.7,-2.15 0.49,0 0.9,0.03 1.25,0.1 6.42,1.28 -2.05,9.21 -25.13,19.07 -3.63,1.55 -6.12,5.86 -7.76,11.62 -2.89,-0.71 -5.14,-1.42 -6.53,-1.88l0 -12.17c1.82,-0.06 3.63,-0.16 5.44,-0.35 1.25,-0.13 2.49,-0.3 3.72,-0.49 1.24,-0.18 2.47,-0.42 3.69,-0.68 2.45,-0.51 4.86,-1.19 7.23,-1.98 2.37,-0.83 4.67,-1.72 6.94,-2.97 0.5,-0.27 0.76,-0.87 0.6,-1.44 -0.16,-0.56 -0.66,-0.92 -1.21,-0.92 -0.11,0 -0.23,0.01 -0.34,0.05l-0.07 0.02c-1.48,0.41 -3.03,0.81 -4.58,1.16 -1.9,-1.19 -8.96,-4.83 -23.95,-4.83 -14.46,0 -21.51,3.39 -23.69,4.7 -1.33,-0.32 -2.65,-0.66 -3.92,-1.02l-0.07 -0.02c-0.11,-0.03 -0.23,-0.05 -0.35,-0.05 -0.44,0 -0.87,0.24 -1.1,0.65 -0.33,0.61 -0.11,1.37 0.5,1.7 2.27,1.25 4.57,2.14 6.94,2.97 2.37,0.79 4.78,1.47 7.23,1.98 3.92,0.84 7.92,1.33 11.93,1.5l0 12.21c-1.4,0.47 -3.65,1.17 -6.54,1.88z"/>
    <path class="fil2" d="M627.81 357.34l-0 -12.21c1,0.04 1.99,0.07 2.99,0.08 0.69,-0.01 1.38,-0.02 2.07,-0.05l-0 12.17c-0.7,-0.23 -1.18,-0.41 -1.43,-0.5 -0.33,-0.16 -0.69,-0.24 -1.07,-0.24 -0.01,0 -0.02,0 -0.03,0 -0.38,0 -0.75,0.09 -1.08,0.25 -0.25,0.09 -0.74,0.27 -1.44,0.51z"/>
    <path class="fil4" d="M622.41 364.15c-0.33,-1.73 -0.7,-3.38 -1.14,-4.93 2.89,-0.71 5.14,-1.41 6.54,-1.88 0.7,-0.24 1.19,-0.41 1.44,-0.51 -0.55,0.26 -1.01,0.72 -1.25,1.34 -0.51,1.28 0.12,2.74 1.41,3.25 0.11,0.04 0.43,0.17 0.93,0.35 -0.59,0.21 -1.45,0.51 -2.54,0.86 -1.43,0.45 -3.25,0.99 -5.39,1.52zm9.01 -7.32c-0.1,-0.04 -0.16,-0.06 -0.18,-0.07 -0.29,-0.11 -0.59,-0.17 -0.89,-0.18 0.37,0 0.74,0.09 1.07,0.24z"/>
    <path class="fil2" d="M638.24 364.14c-2.15,-0.54 -3.97,-1.07 -5.39,-1.53 -1.07,-0.34 -1.92,-0.64 -2.51,-0.85 -0.5,-0.18 -0.82,-0.31 -0.93,-0.35 -1.28,-0.51 -1.92,-1.96 -1.41,-3.25 0.24,-0.61 0.7,-1.07 1.25,-1.34 0.33,-0.16 0.7,-0.25 1.08,-0.25 0.01,0 0.02,0 0.03,0 0.3,0 0.6,0.06 0.89,0.18 0.01,0.01 0.07,0.03 0.18,0.07 0.24,0.09 0.73,0.27 1.43,0.5 1.39,0.47 3.64,1.17 6.53,1.88 -0.44,1.55 -0.82,3.2 -1.14,4.93z"/>
    <path class="fil7" d="M630.79 340.21c-1.18,-0.02 -2.36,-0.01 -3.54,-0.05 -1.18,-0.05 -2.36,-0.1 -3.54,-0.19 -2.36,-0.12 -4.71,-0.43 -7.07,-0.71 -2.35,-0.32 -4.69,-0.71 -7.02,-1.2 -0.99,-0.2 -1.99,-0.41 -2.98,-0.65 2.18,-1.31 9.22,-4.7 23.69,-4.7 14.99,0 22.05,3.64 23.95,4.83 -0.78,0.18 -1.55,0.34 -2.33,0.49 -1.16,0.25 -2.33,0.46 -3.5,0.65l-1.76 0.29 -1.76 0.25c-2.35,0.28 -4.7,0.6 -7.06,0.71 -2.36,0.2 -4.72,0.24 -7.08,0.27z"/>
    <path class="fil2" d="M630.79 345.21c-1,-0.01 -1.99,-0.03 -2.99,-0.08 -4.01,-0.18 -8.01,-0.66 -11.93,-1.5 -2.45,-0.51 -4.86,-1.19 -7.23,-1.98 -2.37,-0.83 -4.67,-1.72 -6.94,-2.97 -0.61,-0.33 -0.83,-1.1 -0.5,-1.7 0.23,-0.42 0.66,-0.65 1.1,-0.65 0.12,0 0.23,0.02 0.35,0.05l0.07 0.02c1.27,0.36 2.59,0.71 3.92,1.02 0.99,0.23 1.99,0.45 2.98,0.65 2.33,0.48 4.67,0.87 7.02,1.2 2.36,0.28 4.7,0.59 7.07,0.71 1.18,0.09 2.36,0.13 3.54,0.19 1.18,0.05 2.36,0.03 3.54,0.05 2.36,-0.02 4.73,-0.07 7.08,-0.27 2.36,-0.11 4.71,-0.43 7.06,-0.71l1.76 -0.25 1.76 -0.29c1.17,-0.19 2.34,-0.4 3.5,-0.65 0.77,-0.15 1.55,-0.31 2.33,-0.49 1.55,-0.35 3.1,-0.75 4.58,-1.16l0.07 -0.02c0.11,-0.03 0.23,-0.05 0.34,-0.05 0.55,0 1.05,0.36 1.21,0.92 0.16,0.57 -0.11,1.16 -0.6,1.44 -2.27,1.25 -4.57,2.14 -6.94,2.97 -2.37,0.79 -4.78,1.47 -7.23,1.98 -1.22,0.26 -2.45,0.5 -3.69,0.68 -1.24,0.19 -2.48,0.37 -3.72,0.49 -1.81,0.19 -3.62,0.29 -5.44,0.35 -0.69,0.02 -1.38,0.04 -2.07,0.05z"/>
    <path class="fil8" d="M719.55 147.88l0 0c-1.04,-0 -1.88,-0.85 -1.87,-1.89l0.22 -54.11c0,-1.04 0.85,-1.88 1.89,-1.87 10.89,0.04 19.67,8.9 19.63,19.79l-0.07 18.45c-0.04,10.88 -8.9,19.67 -19.79,19.63z"/>
    <path class="fil4" d="M719.55 147.43c0.02,0 0.05,0 0.08,0 10.58,0 19.22,-8.59 19.26,-19.18l0.08 -18.45c0.02,-5.14 -1.96,-9.99 -5.59,-13.64 -3.62,-3.65 -8.45,-5.68 -13.59,-5.7l-0.01 0c-0.78,0 -1.43,0.64 -1.43,1.43l-0.22 54.11c-0,0.79 0.64,1.43 1.42,1.44l0 0zm0.08 0.9c-0.03,0 -0.05,0 -0.08,0l0 0c-1.28,-0.01 -2.32,-1.05 -2.32,-2.34l0.22 -54.11c0,-1.28 1.05,-2.32 2.33,-2.32l0.01 0c5.38,0.02 10.44,2.14 14.23,5.96 3.79,3.82 5.87,8.89 5.85,14.28l-0.07 18.45c-0.04,11.09 -9.08,20.08 -20.16,20.08z"/>
    <path class="fil9" d="M723.21 137.7c0.12,-0.7 0.24,-1.39 0.34,-2.1 0.19,-1.04 0.36,-2.09 0.52,-3.14 5.26,-0.88 9.81,-3.84 12.78,-8.01l-0.02 3.79c-0.01,2.06 -0.38,4.03 -1.05,5.86l-12.57 3.6z"/>
    <path class="fil2" d="M720.39 92.53l-0.21 52.84c9.2,-0.29 16.61,-7.85 16.65,-17.13l0.07 -18.45c0.04,-9.28 -7.31,-16.89 -16.51,-17.26zm-0.77 57.86c-0.03,0 -0.06,0 -0.09,0l0 0c-1.17,-0 -2.27,-0.46 -3.09,-1.3 -0.82,-0.83 -1.28,-1.93 -1.27,-3.1l0.21 -54.12c0.01,-2.41 1.98,-4.36 4.38,-4.36l0.02 0c5.93,0.02 11.5,2.36 15.68,6.57 4.18,4.22 6.47,9.8 6.44,15.73l-0.07 18.45c-0.05,12.22 -10.01,22.12 -22.21,22.12z"/>
    <path class="fil8" d="M541.16 89.3c1.04,0.01 1.88,0.85 1.87,1.89l-0.22 54.11c-0,1.04 -0.85,1.88 -1.89,1.87 -10.89,-0.04 -19.67,-8.9 -19.63,-19.79l0.08 -18.45c0.04,-10.88 8.9,-19.67 19.79,-19.63z"/>
    <path class="fil4" d="M541.08 89.75c-10.58,0 -19.22,8.59 -19.26,19.19l-0.07 18.45c-0.02,5.15 1.96,9.99 5.59,13.64 3.62,3.65 8.45,5.68 13.6,5.7l0.01 0c0.78,0 1.43,-0.64 1.43,-1.42l0.22 -54.11c0,-0.38 -0.14,-0.74 -0.41,-1.01 -0.27,-0.27 -0.63,-0.42 -1.01,-0.42 -0.02,0 -0.05,0 -0.08,0zm-0.14 57.87l-0.01 0c-5.39,-0.02 -10.44,-2.14 -14.23,-5.96 -3.79,-3.82 -5.87,-8.89 -5.85,-14.28l0.07 -18.45c0.04,-11.09 9.08,-20.08 20.16,-20.08 0.03,0 0.05,0 0.08,0 0.62,0 1.21,0.25 1.64,0.69 0.44,0.44 0.68,1.03 0.68,1.65l-0.22 54.11c-0.01,1.28 -1.05,2.32 -2.33,2.32z"/>
    <path class="fil9" d="M539.28 144.58c-3.97,-0.39 -7.64,-2.14 -10.48,-5 -3.24,-3.26 -5.01,-7.59 -4.99,-12.19l0.01 -3.67c3.05,3.88 7.53,6.59 12.64,7.33 0.61,4.61 1.56,9.13 2.82,13.53z"/>
    <path class="fil2" d="M540.53 91.81c-9.2,0.3 -16.61,7.85 -16.65,17.13l-0.07 18.45c-0.02,4.6 1.75,8.92 4.99,12.19 3.09,3.12 7.16,4.9 11.52,5.08l0.21 -52.84zm0.41 57.86l-0.02 0c-5.94,-0.02 -11.5,-2.36 -15.68,-6.57 -4.18,-4.21 -6.47,-9.8 -6.44,-15.73l0.08 -18.46c0.05,-12.22 10,-22.12 22.21,-22.12 0.03,0 0.06,0 0.09,0 1.17,0 2.27,0.46 3.09,1.3 0.82,0.83 1.28,1.93 1.27,3.1l-0.22 54.11c-0.01,2.41 -1.97,4.37 -4.38,4.37z"/>
    <path class="fil8" d="M722.32 125.5c-3.81,50.78 -48.08,88.86 -98.86,85.05 -50.79,-3.81 -88.86,-48.08 -85.05,-98.86 3.81,-50.78 48.08,-88.86 98.86,-85.05 50.79,3.81 88.86,48.08 85.05,98.86z"/>
    <path class="fil4" d="M630.3 26.82c-47.51,0 -87.83,36.76 -91.44,84.9 -3.79,50.45 34.18,94.59 84.63,98.38 24.44,1.83 48.14,-5.96 66.72,-21.94 18.58,-15.98 29.83,-38.25 31.66,-62.69 3.79,-50.46 -34.18,-94.59 -84.63,-98.38 -2.33,-0.18 -4.64,-0.26 -6.94,-0.26zm0.21 184.44c-2.35,0 -4.72,-0.09 -7.09,-0.27 -50.95,-3.83 -89.29,-48.39 -85.46,-99.35 3.83,-50.95 48.4,-89.28 99.35,-85.46 50.95,3.82 89.29,48.39 85.46,99.34l-0.45 -0.03 0.45 0.03c-1.86,24.68 -13.21,47.16 -31.97,63.31 -16.96,14.59 -38.14,22.42 -60.29,22.42z"/>
    <path class="fil10" d="M630.5 208.31c-2.27,0 -4.57,-0.08 -6.86,-0.26 -20.55,-1.54 -38.98,-9.93 -53.22,-22.76 13.98,8.36 33.33,15.89 54.44,16.97 2.21,0.11 4.4,0.16 6.56,0.16 19.69,0 37.02,-4.5 50.1,-10.12 -15.01,10.45 -32.67,16.01 -51.02,16.01z"/>
    <path class="fil2" d="M630.3 28.87c-46.44,0 -85.86,35.94 -89.39,83 -3.71,49.33 33.41,92.47 82.74,96.18 23.89,1.79 47.06,-5.82 65.23,-21.45 18.17,-15.63 29.16,-37.39 30.96,-61.29 3.7,-49.33 -33.41,-92.47 -82.74,-96.18 -2.27,-0.17 -4.54,-0.26 -6.78,-0.26zm0.13 184.44c-2.37,0 -4.76,-0.09 -7.16,-0.27 -52.08,-3.91 -91.27,-49.46 -87.36,-101.55 3.91,-52.08 49.47,-91.27 101.55,-87.35 52.08,3.91 91.27,49.46 87.36,101.55l-2.5 -0.19 2.5 0.19c-3.73,49.67 -45.35,87.62 -94.38,87.62z"/>
    <path class="fil11" d="M721.85 127.83c-1.08,18.01 -7.93,34.39 -18.76,47.62 -8.12,9.92 -40.03,26.23 -78.1,24.29 -35.3,-1.8 -66.28,-22.54 -73.16,-33.36 -9.17,-14.44 -14.02,-31.51 -12.94,-49.52 2.86,-47.66 45,-64.97 95.52,-61.95 50.52,3.03 90.29,25.24 87.44,72.91z"/>
    <path class="fil11" d="M623.49 57.1c-21.44,0 -39.76,4.08 -53.46,11.96 -17.7,10.19 -27.34,26.33 -28.63,47.96 -1.01,16.9 3.33,33.51 12.55,48.03 6.55,10.31 36.76,30.45 71.17,32.2 38.14,1.94 68.81,-14.54 76.04,-23.38 10.89,-13.31 17.18,-29.28 18.2,-46.18l2.5 0.15 -2.5 -0.15c3.51,-58.6 -58.33,-68.66 -85.09,-70.26 -3.67,-0.22 -7.27,-0.33 -10.78,-0.33zm7.94 145.32c-2.16,0 -4.35,-0.05 -6.56,-0.16 -36.62,-1.87 -67.91,-23.13 -75.14,-34.52 -9.79,-15.41 -14.4,-33.05 -13.32,-51.01 1.4,-23.43 11.88,-40.92 31.13,-52 16.78,-9.67 39.96,-13.92 67.03,-12.29 27.07,1.62 49.57,8.61 65.09,20.21 17.79,13.31 26.1,31.93 24.7,55.35 -1.08,17.96 -7.76,34.93 -19.32,49.06 -7.58,9.27 -36.36,25.37 -73.61,25.37z"/>
    <path class="fil12" d="M690.72 135.68c-0.69,0 -1.38,-0.08 -2.07,-0.25 -6.35,-1.55 -9.76,-9.9 -7.62,-18.66 1.9,-7.81 7.58,-13.3 13.28,-13.3 0.69,0 1.38,0.08 2.07,0.25 5.13,1.25 8.34,6.94 8.26,13.71 -0.93,3.94 -2.09,7.8 -3.45,11.56 -2.68,4.12 -6.56,6.69 -10.46,6.69z"/>
    <path class="fil12" d="M675.43 158.34c-0.7,0 -1.4,-0.13 -2.07,-0.39 -3.3,-1.31 -4.74,-5.49 -3.21,-9.33 1.21,-3.06 3.94,-4.99 6.66,-4.99 0.7,0 1.4,0.13 2.07,0.4 3.3,1.31 4.74,5.49 3.21,9.33 -1.21,3.06 -3.94,4.98 -6.66,4.98z"/>
    <path class="fil13" d="M631.31 197.41c-2.04,0 -4.11,-0.05 -6.19,-0.16 -10.74,-0.55 -21.06,-2.88 -30.39,-6.15 43.65,-0.69 79.15,-19.32 88.7,-31.01 7.58,-9.26 13.62,-19.74 17.75,-31.1 1.24,-1.9 2.22,-4.14 2.82,-6.61 0.41,-1.68 0.61,-3.35 0.64,-4.95 1.36,-5.76 2.24,-11.69 2.6,-17.78 0.28,-4.59 0.24,-8.99 -0.09,-13.21 8.26,9.98 13.28,23.35 12.21,41.25l2.5 0.15 0 0 -2.5 -0.15c-0.23,3.91 -0.75,7.77 -1.54,11.56l-3.73 1.07c-2.41,0.69 -4.41,2.28 -5.63,4.47 -0.78,1.41 -1.18,2.97 -1.18,4.54 0,0.87 0.12,1.74 0.37,2.6l2.45 8.57c-2.5,4.69 -5.49,9.17 -8.93,13.37 -6.84,8.35 -34.61,23.54 -69.85,23.54z"/>
    <path class="fil13" d="M631.22 199.91c-2.06,0 -4.13,-0.05 -6.23,-0.16 -13.44,-0.68 -26.26,-4.11 -37.36,-8.7 1.55,0.05 3.08,0.07 4.61,0.07 0.83,0 1.66,-0.01 2.49,-0.02 9.33,3.27 19.65,5.61 30.39,6.15 2.09,0.11 4.15,0.16 6.19,0.16 35.24,0 63.01,-15.18 69.85,-23.54 3.44,-4.21 6.43,-8.68 8.93,-13.37l0.97 3.4c-2.33,4.07 -5,7.93 -7.97,11.56 -7.67,9.38 -36.59,24.45 -71.87,24.45zm86.59 -60.66c0.79,-3.79 1.31,-7.65 1.54,-11.56l2.5 0.15c-0.22,3.62 -0.67,7.17 -1.33,10.64l-2.71 0.77zm4.04 -11.41l-2.5 -0.15c1.07,-17.9 -3.95,-31.27 -12.21,-41.25 -0.11,-1.4 -0.25,-2.78 -0.42,-4.14 10.54,11.34 16.27,26.39 15.13,45.53 0,0 0,0 0,0z"/>
    <path class="fil14" d="M701.18 128.99c1.37,-3.76 2.52,-7.61 3.45,-11.56 -0.02,1.6 -0.23,3.27 -0.64,4.95 -0.6,2.47 -1.58,4.71 -2.82,6.61z"/>
    <path class="fil2" d="M716.48 88.07c-0.61,0 -1.23,-0.23 -1.71,-0.68l-0.23 -0.22 -0.18 -0.28c-14.18,-22.63 -43.35,-36.87 -80.03,-39.07 -36.88,-2.21 -67.54,8.85 -84.11,30.34l-0.21 0.24c-0.95,1.01 -2.51,1.03 -3.52,0.08 -0.97,-0.91 -1.03,-2.44 -0.18,-3.45 17.6,-22.78 49.79,-34.52 88.32,-32.21 38.29,2.3 68.88,17.37 83.94,41.36 0.63,0.95 0.55,2.24 -0.26,3.1 -0.49,0.52 -1.16,0.79 -1.82,0.79z"/>
    <path class="fil12" d="M557.74 146.46c0,0 -11.95,-47.91 14.52,-65.13 17.43,-11.34 39.19,-14.23 51.73,-14.23 6.51,0 10.54,0.78 10.2,1.56 0,0 -40.95,7.35 -58.65,38.32 -13.65,23.88 -17.79,39.48 -17.79,39.48z"/>
    <path class="fil15" d="M777.78 214.91l-39.14 11.21c-3.66,1.05 -7.46,-1.07 -8.51,-4.72l-20.09 -70.16c-1.04,-3.65 1.07,-7.46 4.72,-8.51l39.14 -11.21c3.65,-1.05 7.46,1.07 8.51,4.72l20.09 70.16c1.05,3.66 -1.07,7.47 -4.72,8.51z"/>
    <path class="fil16" d="M777.78 214.91l-39.14 11.21c-3.65,1.04 -7.46,-1.07 -8.51,-4.72l-20.09 -70.16c-0.74,-2.59 0.11,-5.26 1.96,-6.96 0.01,0.04 0.01,0.08 0.02,0.11l20.09 70.16c1.04,3.66 4.85,5.77 8.51,4.73l39.14 -11.21c1.07,-0.31 2,-0.85 2.77,-1.55 0.97,3.62 -1.14,7.37 -4.76,8.4z"/>
    <path class="fil4" d="M755.8 133.75c-0.4,0 -0.81,0.05 -1.21,0.17l-39.14 11.21c-1.12,0.32 -2.06,1.06 -2.62,2.09 -0.57,1.02 -0.7,2.21 -0.38,3.33l20.08 70.16c0.32,1.12 1.06,2.06 2.09,2.62 1.02,0.57 2.21,0.7 3.33,0.38l39.14 -11.21 0.69 2.4 -0.69 -2.4c2.32,-0.67 3.67,-3.1 3.01,-5.42l-20.09 -70.16c-0.32,-1.13 -1.06,-2.06 -2.09,-2.62 -0.66,-0.37 -1.39,-0.55 -2.12,-0.55zm-19.07 95.14c-1.57,0 -3.13,-0.4 -4.54,-1.18 -2.2,-1.22 -3.78,-3.22 -4.47,-5.63l-20.09 -70.16c-0.69,-2.41 -0.4,-4.95 0.81,-7.14 1.22,-2.2 3.22,-3.78 5.63,-4.47l39.14 -11.21c2.41,-0.69 4.94,-0.4 7.14,0.82 2.19,1.22 3.78,3.21 4.47,5.62l20.09 70.16c1.42,4.98 -1.46,10.18 -6.44,11.61l-39.14 11.21c-0.86,0.24 -1.73,0.37 -2.6,0.37z"/>
    <path class="fil2" d="M755.8 133.75c-0.4,0 -0.81,0.05 -1.21,0.17l-39.14 11.21c-1.12,0.32 -2.06,1.06 -2.62,2.09 -0.57,1.02 -0.7,2.21 -0.38,3.33l20.08 70.16c0.32,1.12 1.06,2.06 2.09,2.62 1.02,0.57 2.21,0.7 3.33,0.38l39.14 -11.21 0.69 2.4 -0.69 -2.4c2.32,-0.67 3.67,-3.1 3.01,-5.42l-20.09 -70.16c-0.32,-1.13 -1.06,-2.06 -2.09,-2.62 -0.66,-0.37 -1.39,-0.55 -2.12,-0.55zm-19.07 95.14c-1.57,0 -3.13,-0.4 -4.54,-1.18 -2.2,-1.22 -3.78,-3.22 -4.47,-5.63l-20.09 -70.16c-0.69,-2.41 -0.4,-4.95 0.81,-7.14 1.22,-2.2 3.22,-3.78 5.63,-4.47l39.14 -11.21c2.41,-0.69 4.94,-0.4 7.14,0.82 2.19,1.22 3.78,3.21 4.47,5.62l20.09 70.16c1.42,4.98 -1.46,10.18 -6.44,11.61l-39.14 11.21c-0.86,0.24 -1.73,0.37 -2.6,0.37z"/>
    <path class="fil5" d="M770.42 202.87l-21.3 6.09 -10.62 3.04c-0.19,0.05 -0.39,0.09 -0.57,0.11 -1.47,0.14 -2.87,-0.78 -3.29,-2.25l-2.82 -9.85 -6.68 -23.35 -6.83 -23.89c-0.47,-1.66 0.48,-3.39 2.15,-3.87l17.72 -5.07 14.2 -4.07c1.12,-0.32 2.27,0.01 3.05,0.78 0.37,0.36 0.66,0.83 0.82,1.37l4 13.97 4.17 14.57 8.17 28.54c0.47,1.66 -0.48,3.39 -2.15,3.87z"/>
    <path class="fil6" d="M732.88 197.32l-0.29 -1.02c0.45,-0.95 0.7,-2.09 0.7,-3.44 0,-0.99 -0.14,-1.89 -0.4,-2.72 -0.03,-0.1 -0.06,-0.2 -0.1,-0.3 -0,0 -0,0 -0,0 -0.65,-1.87 -1.88,-3.36 -3.36,-4.54l-3.24 -11.32 11.14 -28.07 15.51 -4.44c0.12,-0.04 0.25,-0.05 0.38,-0.05 0.59,0 1.14,0.39 1.32,0.99l0.06 0.21 -21.72 54.72z"/>
    <path class="fil6" d="M738.72 210.11l16.84 -42.47c0.94,1.91 2.5,3.15 4.32,3.79 -1.81,2.85 -2.76,6.28 -1.54,10.17 0.22,0.7 0.5,1.37 0.85,1.98l-9.25 23.31 -11.22 3.21z"/>
    <path class="fil2" d="M753.22 141.41c-0.12,0 -0.25,0.02 -0.38,0.05l-31.92 9.14c-0.72,0.21 -1.14,0.97 -0.94,1.69l16.34 57.08c0.1,0.35 0.33,0.64 0.65,0.82 0.32,0.18 0.69,0.22 1.04,0.12l31.92 -9.14c0.72,-0.21 1.15,-0.97 0.94,-1.69l-16.34 -57.08c-0.17,-0.6 -0.72,-0.99 -1.32,-0.99zm-15.59 72.48c-0.82,0 -1.63,-0.21 -2.37,-0.61 -1.14,-0.63 -1.97,-1.68 -2.33,-2.93l-16.34 -57.08c-0.74,-2.59 0.76,-5.31 3.36,-6.05l31.92 -9.14c2.59,-0.74 5.31,0.76 6.05,3.36l16.34 57.08c0.75,2.59 -0.76,5.3 -3.36,6.05l-31.92 9.14c-0.45,0.13 -0.9,0.19 -1.35,0.19z"/>
    <path class="fil1" d="M718.54 180.94c0,0 14.75,1.9 14.75,11.91 0,6.78 -6.37,8.31 -12.85,7.05 -7.6,-1.48 -12.37,-14.86 -1.9,-18.97z"/>
    <path class="fil17" d="M717.46 198.65c-3.08,-2.06 -5.16,-6.09 -4.94,-9.91 -0.21,3.81 1.86,7.84 4.94,9.9l0 0z"/>
    <path class="fil4" d="M721.42 200.08c-0.32,-0.05 -0.65,-0.11 -0.98,-0.17 -1.06,-0.21 -2.07,-0.65 -2.99,-1.26l0 -0c0.92,0.61 1.93,1.05 2.99,1.26 0.33,0.06 0.65,0.12 0.98,0.17l0 0z"/>
    <path class="fil4" d="M724.4 200.31c-0.97,0 -1.96,-0.08 -2.97,-0.23l0 0c1.01,0.15 2.01,0.23 2.98,0.23 0.19,0 0.38,-0 0.57,-0.01 -0.19,0.01 -0.38,0.01 -0.57,0.01z"/>
    <path class="fil18" d="M732.89 190.13c-0.03,-0.1 -0.06,-0.2 -0.1,-0.3 0,0 0,0 0,-0 0.03,0.1 0.07,0.2 0.1,0.3z"/>
    <path class="fil17" d="M712.51 188.74l0 -0c0,0 0,0 0,0z"/>
    <path class="fil3" d="M724.4 200.31c-0.97,0 -1.96,-0.08 -2.98,-0.23 -0.32,-0.05 -0.65,-0.11 -0.98,-0.17 -1.06,-0.21 -2.07,-0.65 -2.99,-1.26 -3.08,-2.06 -5.16,-6.09 -4.94,-9.9 0,-0 0,-0.01 0,-0.01 0,-0 0,-0 0,-0 0.05,-0.79 0.19,-1.57 0.44,-2.32 1.09,3.66 3.99,6.86 7.49,7.54 1.34,0.26 2.68,0.4 3.95,0.4 3.88,0 7.19,-1.3 8.4,-4.51 0.03,0.1 0.07,0.2 0.1,0.3 0.25,0.83 0.4,1.74 0.4,2.72 0,5.17 -3.7,7.29 -8.32,7.44 -0.19,0.01 -0.38,0.01 -0.57,0.01z"/>
    <path class="fil2" d="M718.86 183.53c-3.48,1.62 -4.02,4.38 -3.83,6.45 0.33,3.55 2.97,6.9 5.89,7.47 3.66,0.71 6.82,0.34 8.44,-1 0.96,-0.79 1.43,-1.97 1.43,-3.6 0,-6.67 -9.37,-8.86 -11.93,-9.33zm5.55 19.29c-1.4,0 -2.88,-0.15 -4.44,-0.45 -5.13,-0.99 -9.39,-6.12 -9.92,-11.93 -0.49,-5.35 2.35,-9.77 7.58,-11.83l0.6 -0.23 0.64 0.08c0.69,0.09 16.93,2.32 16.93,14.4 0,3.95 -1.77,6.24 -3.25,7.46 -2,1.65 -4.81,2.5 -8.14,2.5z"/>
    <path class="fil1" d="M776.39 179.48c0,0 -14.29,6.75 -11.27,16.4 2.16,6.88 11.34,6.88 15.7,2.39 4.69,-4.83 6.77,-14.1 -4.43,-18.79z"/>
    <path class="fil3" d="M773.15 198.89c-0.59,0 -1.19,-0.07 -1.75,-0.2 -1.37,-0.33 -3.16,-1.21 -3.89,-3.56 -0.24,-0.76 -0.32,-1.5 -0.29,-2.22 1.46,0.98 3.23,1.44 5.05,1.44 2.82,0 5.73,-1.11 7.68,-3.12 0.77,-0.8 1.48,-1.72 2.06,-2.72 0.41,2.59 -0.74,5.7 -2.98,8.01 -1.45,1.49 -3.69,2.36 -5.87,2.36z"/>
    <path class="fil2" d="M776.47 182.26c-2.88,1.6 -10.89,6.7 -8.96,12.87 0.74,2.35 2.52,3.23 3.89,3.56 2.64,0.63 5.78,-0.26 7.62,-2.16 2.32,-2.39 3.47,-5.64 2.93,-8.28 -0.5,-2.44 -2.34,-4.45 -5.48,-5.99zm-3.34 21.63c-0.98,0 -1.95,-0.11 -2.89,-0.33 -3.67,-0.87 -6.4,-3.4 -7.51,-6.93 -3.63,-11.6 11.93,-19.1 12.59,-19.41l1.01 -0.48 1.03 0.43c6.73,2.82 8.88,7.04 9.51,10.08 1.04,5.12 -1.51,9.95 -4.25,12.77 -2.4,2.47 -5.96,3.88 -9.48,3.88z"/>
    <path class="fil1" d="M772 164.45c0,0 -14.29,6.75 -11.27,16.4 2.15,6.88 11.34,6.88 15.7,2.39 4.69,-4.83 6.77,-14.1 -4.43,-18.8z"/>
    <path class="fil3" d="M768.77 183.87c-0.59,0 -1.19,-0.07 -1.75,-0.2 -1.37,-0.33 -3.16,-1.21 -3.89,-3.56 -0.24,-0.76 -0.33,-1.5 -0.29,-2.23 1.45,0.98 3.23,1.44 5.05,1.44 2.81,0 5.72,-1.11 7.67,-3.11 0.77,-0.8 1.48,-1.72 2.06,-2.72 0.41,2.59 -0.74,5.7 -2.98,8.01 -1.45,1.49 -3.69,2.36 -5.87,2.36z"/>
    <path class="fil2" d="M772.09 167.24c-2.88,1.6 -10.9,6.7 -8.97,12.87 0.73,2.35 2.52,3.23 3.89,3.56 2.64,0.63 5.78,-0.26 7.62,-2.16 2.32,-2.39 3.47,-5.64 2.93,-8.28 -0.5,-2.44 -2.34,-4.46 -5.48,-5.99zm-3.34 21.63c-0.98,0 -1.95,-0.11 -2.9,-0.33 -3.67,-0.87 -6.41,-3.4 -7.51,-6.93 -3.63,-11.6 11.93,-19.1 12.59,-19.41l1.01 -0.48 1.03 0.43c6.73,2.82 8.88,7.04 9.51,10.08 1.04,5.12 -1.51,9.95 -4.25,12.77 -2.39,2.47 -5.96,3.88 -9.48,3.88z"/>
    <path class="fil1" d="M766.37 150.06c0,0 -14.29,6.75 -11.27,16.4 2.15,6.88 11.34,6.88 15.7,2.39 4.69,-4.83 6.77,-14.1 -4.43,-18.79z"/>
    <path class="fil3" d="M769.66 169.86c0,0 0,-0 0.01,-0 -0,0 -0,0 -0.01,0zm0.02 -0.01c0,-0 0.01,-0.01 0.02,-0.01 -0,0 -0.01,0.01 -0.02,0.01zm0.02 -0.01c0.4,-0.3 0.77,-0.62 1.11,-0.97 0.21,-0.22 0.42,-0.45 0.62,-0.68 -0.2,0.24 -0.41,0.47 -0.62,0.69 -0.34,0.35 -0.71,0.68 -1.11,0.97zm1.75 -1.67l0 0 0 0z"/>
    <path class="fil4" d="M774.24 162.82l0 -0 0 0zm0.01 -0.03c0,0 0,0 0,-0 0,0 0,0 0,0zm0.01 -0.03c0,-0 0,-0.01 0,-0.01 0,0 0,0.01 0,0.01z"/>
    <path class="fil17" d="M774.27 162.73l0 0 0 0c0,0 0,0 0,0z"/>
    <path class="fil4" d="M774.26 162.75c0,-0 0,-0.01 0,-0.01l0 0c0,0.01 0,0.01 -0,0.01z"/>
    <path class="fil17" d="M774.27 162.73c0.55,-2.27 0.42,-4.68 -0.8,-6.92 1.22,2.24 1.35,4.65 0.8,6.92zm-0.81 -6.93c0,-0 0,-0.01 -0,-0.01 0,0 0,0.01 0,0.01z"/>
    <path class="fil3" d="M763.13 171.97c-3.49,0 -6.83,-1.7 -8.02,-5.51 -0.58,-1.85 -0.52,-3.6 -0.05,-5.21 1.55,2.53 4.33,3.68 7.19,3.68 2.82,0 5.73,-1.11 7.67,-3.12 1.6,-1.65 2.9,-3.82 3.46,-6.16 0.02,0.04 0.05,0.09 0.07,0.13 0,0 0,0.01 0,0.01 0,0 0.01,0.01 0.01,0.01 1.22,2.24 1.35,4.65 0.8,6.92l-0 0 0 0c0,0.01 0,0.01 -0,0.01 0,0.01 0,0.01 -0,0.01 0,0 0,0.01 0,0.01 -0,0.01 -0,0.02 -0.01,0.02 0,0 0,0 0,0 0,0.01 -0,0.02 -0.01,0.02l0 0c-0.5,1.97 -1.52,3.82 -2.81,5.34l0 0c-0,0.01 -0.01,0.01 -0.01,0.01 -0.2,0.24 -0.41,0.47 -0.62,0.68 -0.34,0.35 -0.71,0.68 -1.11,0.97l0 0c-0,0 -0.01,0.01 -0.02,0.01 -0,0 -0.01,0.01 -0.01,0.01 -0,0 -0,0 -0.01,0 -1.85,1.37 -4.22,2.12 -6.53,2.12z"/>
    <path class="fil2" d="M766.46 152.85c-2.88,1.6 -10.9,6.7 -8.97,12.87 0.73,2.35 2.52,3.23 3.89,3.56 2.64,0.63 5.78,-0.26 7.63,-2.16 2.32,-2.39 3.47,-5.64 2.93,-8.28 -0.5,-2.44 -2.34,-4.46 -5.48,-5.99zm-3.34 21.63c-0.98,0 -1.95,-0.11 -2.89,-0.33 -3.67,-0.87 -6.4,-3.4 -7.51,-6.93 -3.63,-11.6 11.93,-19.1 12.59,-19.41l1.01 -0.48 1.03 0.43c6.73,2.82 8.88,7.04 9.5,10.08 1.05,5.11 -1.51,9.95 -4.24,12.77 -2.4,2.47 -5.96,3.88 -9.48,3.88z"/>
    <path class="fil2" d="M737.15 267.45c-10.19,0 -17.98,-3.41 -23.16,-10.15 -13.24,-17.22 -4.29,-49.98 -3.9,-51.36 0.37,-1.33 1.75,-2.11 3.08,-1.74 1.33,0.37 2.11,1.75 1.74,3.08 -0.09,0.32 -8.66,31.74 3.05,46.97 4.26,5.54 10.9,8.3 19.7,8.19 1.37,-0 2.52,1.09 2.53,2.47 0.02,1.38 -1.09,2.52 -2.47,2.54 -0.2,0 -0.39,0 -0.58,0z"/>
    <path class="fil11" d="M523.62 58.17c3.98,-5.47 6.27,-12.24 6.11,-19.52 -0.39,-17.69 -15.04,-31.71 -32.73,-31.32 -17.69,0.39 -31.71,15.04 -31.32,32.72 0.39,17.69 15.04,31.71 32.73,31.32 4.92,-0.11 9.55,-1.32 13.68,-3.39l14.51 4.5 -2.97 -14.31z"/>
    <path class="fil11" d="M468.21 33.33c1.11,-5.52 3.77,-10.62 7.76,-14.79 5.56,-5.81 13.05,-9.1 21.08,-9.28 0.23,-0 0.46,-0.01 0.69,-0.01 7.79,0 15.14,2.96 20.78,8.35 4.17,3.99 7.04,8.97 8.4,14.44 -5.1,-10.99 -16.23,-18.57 -29.06,-18.57 -0.24,0 -0.48,0 -0.71,0.01 -13.13,0.29 -24.24,8.43 -28.93,19.85z"/>
    <path class="fil2" d="M512.09 66.04c0.19,0 0.39,0.03 0.57,0.09l11.37 3.53 -2.31 -11.09c-0.11,-0.53 0.01,-1.09 0.33,-1.53 3.9,-5.36 5.89,-11.7 5.74,-18.34 -0.18,-8.04 -3.47,-15.52 -9.28,-21.08 -5.81,-5.56 -13.43,-8.52 -21.47,-8.35 -8.04,0.18 -15.52,3.47 -21.08,9.28 -5.56,5.81 -8.52,13.43 -8.35,21.47 0.36,16.59 14.17,29.79 30.75,29.43 4.52,-0.1 8.84,-1.17 12.85,-3.19 0.27,-0.14 0.57,-0.21 0.87,-0.21zm14.51 8.38c-0.19,0 -0.38,-0.03 -0.57,-0.09l-13.78 -4.27c-4.33,2.05 -8.96,3.15 -13.79,3.25 -9.07,0.19 -17.68,-3.15 -24.23,-9.42 -6.55,-6.27 -10.27,-14.73 -10.47,-23.8 -0.2,-9.07 3.15,-17.68 9.42,-24.23 6.28,-6.56 14.73,-10.27 23.8,-10.47 9.08,-0.2 17.68,3.15 24.23,9.42 6.55,6.27 10.27,14.73 10.47,23.8 0.16,7.2 -1.91,14.1 -5.98,20l2.8 13.48c0.14,0.67 -0.09,1.37 -0.59,1.83 -0.36,0.33 -0.83,0.5 -1.3,0.5z"/>
    <path class="fil2" d="M524.03 69.65l-11.37 -3.53c-0.19,-0.06 -0.38,-0.09 -0.57,-0.09 -0.3,0 -0.6,0.07 -0.87,0.21 -4.01,2.02 -8.33,3.09 -12.85,3.19 -0.22,0 -0.45,0.01 -0.67,0.01 -15.96,-0 -29.19,-12.56 -30.04,-28.47 3.8,9.99 11.87,18.26 22.79,21.93 3.91,1.32 7.88,1.94 11.79,1.94 7,0 13.8,-2.01 19.62,-5.64l2.17 10.46z"/>
    <path class="fil2 str0" d="M526.59 72.48l-14.51 -4.5c-4.12,2.07 -8.76,3.29 -13.68,3.39 -0.24,0.01 -0.48,0.01 -0.71,0.01 -17.37,0 -31.63,-13.88 -32.01,-31.33 -0.04,-1.68 0.06,-3.34 0.27,-4.96 0.41,2.01 0.98,3.98 1.7,5.88 0.85,15.91 14.08,28.47 30.04,28.47 0.22,0 0.45,-0 0.67,-0.01 4.52,-0.1 8.84,-1.17 12.85,-3.19 0.27,-0.14 0.57,-0.21 0.87,-0.21 0.19,0 0.39,0.03 0.57,0.09l11.37 3.53 -2.17 -10.46c0.67,-0.42 1.33,-0.86 1.97,-1.32 -0.07,0.1 -0.13,0.2 -0.21,0.29l2.97 14.31z"/>
    <polygon class="fil1" points="495.14,26.72 500.65,26.79 500.68,24.59 495.17,24.52 "/>
    <path class="fil2" d="M760.7 214.55l-5.72 1.61c-0.69,0.2 -1.41,-0.21 -1.61,-0.9l-0.38 -1.37c-0.2,-0.69 0.21,-1.41 0.9,-1.6l5.72 -1.61c0.69,-0.19 1.41,0.21 1.61,0.9l0.38 1.37c0.2,0.69 -0.21,1.41 -0.9,1.6z"/>
    <g id="_3099489585376">
     <rect class="fil19" transform="matrix(0.0936115 0.0936115 -0.0832099 0.0832099 497.69 19.3127)" width="182.28" height="56.57" rx="274.9" ry="274.9"/>
     <path class="fil20" style="mask:url(#id3)" d="M483 34.02l12.36 -12.36c1.3,-1.3 3.41,-1.3 4.71,0l0 0c1.3,1.29 1.3,3.41 0,4.71l-12.36 12.36c-1.3,1.29 -3.41,1.29 -4.71,0l-0 -0c-1.29,-1.3 -1.29,-3.41 0,-4.71z"/>
     <path class="fil20" d="M493.7 43.53c1.82,-1.82 4.78,-1.82 6.6,0 1.82,1.82 1.82,4.78 0,6.6 -1.82,1.82 -4.78,1.82 -6.6,0 -1.82,-1.82 -1.82,-4.78 0,-6.6z"/>
     <path class="fil19" style="mask:url(#id5)" d="M493.55 43.26c1.91,-1.9 4.99,-1.9 6.9,0 1.91,1.91 1.91,4.99 0,6.9 -1.9,1.91 -4.99,1.91 -6.9,0 -1.9,-1.9 -1.9,-4.99 0,-6.9z"/>
    </g>
   </g>
  </g>
  <polygon class="fil21" points="-0,0 863.74,0 863.74,356.88 -0,356.88 "/>
 </g>
</svg>
