<?xml version="1.0" encoding="UTF-8"?>
<!DOCTYPE svg PUBLIC "-//W3C//DTD SVG 1.1//EN" "http://www.w3.org/Graphics/SVG/1.1/DTD/svg11.dtd">
<!-- Creator: CorelDRAW 2020 (64 Bit) -->
<svg xmlns="http://www.w3.org/2000/svg" xml:space="preserve" width="42.418mm" height="17.526mm" version="1.1" style="shape-rendering:geometricPrecision; text-rendering:geometricPrecision; image-rendering:optimizeQuality; fill-rule:evenodd; clip-rule:evenodd"
viewBox="0 0 863.74 356.88"
 xmlns:xlink="http://www.w3.org/1999/xlink"
 xmlns:xodm="http://www.corel.com/coreldraw/odm/2003">
 <defs>
  <style type="text/css">
   <![CDATA[
    .fil15 {fill:none}
    .fil8 {fill:#14998E;fill-rule:nonzero}
    .fil13 {fill:#1C1A31;fill-rule:nonzero}
    .fil0 {fill:#222737;fill-rule:nonzero}
    .fil14 {fill:#2B3145;fill-rule:nonzero}
    .fil5 {fill:#371A45;fill-rule:nonzero}
    .fil4 {fill:#39005E;fill-rule:nonzero}
    .fil7 {fill:#390559;fill-rule:nonzero}
    .fil1 {fill:#A9A3DA;fill-rule:nonzero}
    .fil11 {fill:#B72E73;fill-rule:nonzero}
    .fil9 {fill:#C7E0FC;fill-rule:nonzero}
    .fil3 {fill:#CED5ED;fill-rule:nonzero}
    .fil6 {fill:#D7D1DA;fill-rule:nonzero}
    .fil12 {fill:#D8D8D8;fill-rule:nonzero}
    .fil10 {fill:#FF5AA5;fill-rule:nonzero}
    .fil2 {fill:white;fill-rule:nonzero}
   ]]>
  </style>
   <clipPath id="id0">
    <path d="M-0 0l863.74 0 0 356.88 -863.74 0 0 -356.88z"/>
   </clipPath>
 </defs>
 <g id="Camada_x0020_1">
  <metadata id="CorelCorpID_0Corel-Layer"/>
  <g>
  </g>
  <g style="clip-path:url(#id0)">
   <g>
    <path class="fil0" d="M413.52 112.05c-0.55,4.57 -4.76,7.88 -9.32,7.33 -4.68,-0.55 -7.99,-4.77 -7.45,-9.33 0.56,-4.68 4.77,-7.99 9.45,-7.43 4.56,0.54 7.88,4.76 7.32,9.43zm-12.1 -57.57c-1,1.62 -3.05,2.3 -4.82,1.62l-5.2 -2.01c-2.33,-0.86 -3.38,-3.65 -2.2,-5.82 5.42,-9.53 15.29,-12.75 24.99,-11.59 13.58,1.62 22.98,13.04 21.65,24.11 -1.96,16.43 -16.94,16.84 -20.69,28.89 -0.69,1.89 -2.46,3.17 -4.4,2.94l-5.7 -0.68c-2.51,-0.3 -4.18,-2.82 -3.42,-5.27 4.25,-13.26 18.18,-15.65 19.37,-25.57 0.68,-5.7 -2.34,-10.46 -9.41,-11.31 -5.02,-0.6 -8.3,1.67 -10.16,4.69z"/>
    <path class="fil1" d="M577.33 509.45c-63.06,0 -114.18,-8.25 -114.18,-18.42 0,-4.75 11.14,-9.08 29.44,-12.35 0.33,4.74 3,13.25 17.34,16.39 6.84,1.5 14.74,2.05 22.68,2.05 19.39,0 39.02,-3.29 43.98,-4.18 8.51,4.3 20.12,5.99 31.65,5.99 12.41,0 24.75,-1.95 33.05,-4.69 7.3,-2.4 11.81,-5.39 13.42,-8.87 0.85,-1.84 1.43,-4.48 1.81,-7.6 21.56,3.35 34.97,8.06 34.97,13.27 0,10.18 -51.12,18.42 -114.18,18.42z"/>
    <path class="fil2" d="M686.1 366.02c-0.27,1.22 -0.64,2.39 -1.09,3.52 -2.76,6.95 -8.76,12.22 -16.19,13.96 -20.72,4.87 -64.56,10.78 -116.03,-8.04 0,0 -11.02,-101.55 10.33,-152.47 0,0 47.64,-9.89 111.76,10 5.48,1.69 9.96,5.31 12.82,9.99 2.02,3.32 3.24,7.18 3.37,11.25 0.93,26.96 1.78,81.54 -4.98,111.78z"/>
    <path class="fil0" d="M555.84 373.09c49.51,17.58 91.48,12.12 112.24,7.24 7.36,-1.73 13.18,-7.63 14.83,-15.02 6.58,-29.46 5.89,-82.16 4.9,-110.96 -0.29,-8.42 -5.87,-15.74 -13.89,-18.23 -55.86,-17.32 -99.49,-11.68 -108.45,-10.22 -18.3,46.09 -11,132.85 -9.63,147.19zm69.22 18.59c-20.9,0 -46.08,-3.15 -73.4,-13.14 -1.17,-0.43 -1.99,-1.48 -2.13,-2.72 -0.45,-4.18 -10.87,-102.98 10.57,-154.09 0.42,-0.99 1.3,-1.72 2.35,-1.94 1.98,-0.41 49.2,-9.82 113.39,10.08 10.67,3.31 18.1,13.06 18.49,24.25 1.01,29.11 1.69,82.44 -5.05,112.61 -2.2,9.83 -9.94,17.67 -19.72,19.96 -10.31,2.42 -25.67,4.98 -44.51,4.98z"/>
    <path class="fil0" d="M685.42 244.23c0.01,-0.01 -0.08,-0.04 -0.15,-0.07 -0.06,-0.03 -0.14,-0.06 -0.22,-0.09 -0.15,-0.06 -0.32,-0.11 -0.49,-0.16 -0.33,-0.11 -0.69,-0.2 -1.04,-0.3 -0.71,-0.17 -1.45,-0.32 -2.19,-0.43 -1.49,-0.22 -3.02,-0.31 -4.55,-0.23 -1.53,0.07 -3.08,0.26 -4.6,0.64 -1.54,0.33 -3.02,0.89 -4.51,1.51l-0.07 0.03c-0.61,0.25 -1.31,-0.04 -1.56,-0.65 -0.22,-0.53 -0.03,-1.13 0.43,-1.44 1.44,-0.99 2.93,-1.94 4.56,-2.68 1.6,-0.78 3.31,-1.36 5.06,-1.82 1.76,-0.46 3.57,-0.74 5.41,-0.86 0.92,-0.06 1.85,-0.07 2.79,-0.04 0.47,0.03 0.94,0.04 1.43,0.1 0.24,0.02 0.49,0.05 0.74,0.08l0.38 0.06c0.14,0.02 0.25,0.04 0.46,0.09 1.73,0.52 2.71,2.34 2.2,4.07 -0.52,1.73 -2.34,2.71 -4.07,2.2z"/>
    <path class="fil3" d="M657.34 382.48c0.74,-5.36 1.71,-10 2.97,-13.16 0.12,-0.29 0.23,-0.58 0.34,-0.88 0.4,0.91 0.91,1.77 1.58,2.55 2.07,2.42 5.19,3.5 8.4,3.5 2.32,0 4.68,-0.56 6.74,-1.58 1.22,-0.6 2.36,-1.34 3.43,-2.16 -2.7,4.75 -7.3,8.3 -12.73,9.57 -3.12,0.73 -6.71,1.48 -10.73,2.15zm5 -46.94c-0.05,-0.3 -0.1,-0.58 -0.15,-0.86 0.08,0 0.16,0.01 0.24,0.01 -0.03,0.28 -0.07,0.56 -0.1,0.84zm10.8 -82.32c-5.07,-7 -12.89,-13.16 -23.21,-18.25 1.85,-1.25 3.66,-2.55 5.43,-3.91 6,1.42 12.21,3.09 18.56,5.06 1.54,0.48 3,1.14 4.34,1.95 -0.73,0.13 -1.46,0.29 -2.17,0.47 -1.75,0.46 -3.46,1.04 -5.06,1.82 -1.62,0.73 -3.12,1.69 -4.56,2.68 -0.45,0.31 -0.65,0.91 -0.43,1.44 0.19,0.46 0.63,0.74 1.1,0.74 0.15,0 0.31,-0.03 0.46,-0.09l0.07 -0.03c1.49,-0.62 2.97,-1.18 4.51,-1.51 1.52,-0.38 3.07,-0.57 4.6,-0.64 0.36,-0.02 0.73,-0.03 1.09,-0.03 1.17,0 2.33,0.09 3.46,0.26 0.07,0.01 0.13,0.02 0.2,0.03 -1.27,0.55 -2.43,1.29 -3.42,2.22 -2.3,2.17 -3.86,4.85 -4.97,7.79z"/>
    <path class="fil0" d="M657.06 384.66c0.09,-0.74 0.19,-1.46 0.28,-2.18 4.03,-0.68 7.62,-1.42 10.73,-2.15 5.43,-1.28 10.03,-4.83 12.73,-9.57 0.84,-0.65 1.64,-1.35 2.4,-2.09 -2.76,6.95 -8.76,12.22 -16.19,13.96 -2.89,0.68 -6.22,1.38 -9.96,2.03zm21.2 -146.59c-1.34,-0.81 -2.8,-1.47 -4.34,-1.95 -6.36,-1.97 -12.56,-3.64 -18.56,-5.06 1.24,-0.94 2.45,-1.92 3.65,-2.91 4.59,1.17 9.29,2.49 14.08,3.98 3.57,1.1 6.71,3.02 9.26,5.52 -0.29,0.01 -0.56,0.02 -0.84,0.04 -1.1,0.07 -2.18,0.2 -3.24,0.38z"/>
    <path class="fil0" d="M667.14 245.22c-0.47,0 -0.91,-0.28 -1.1,-0.74 -0.22,-0.53 -0.03,-1.13 0.43,-1.44 1.44,-0.99 2.93,-1.94 4.56,-2.68 1.6,-0.78 3.31,-1.36 5.06,-1.82 0.71,-0.19 1.44,-0.35 2.17,-0.47 1.06,-0.19 2.15,-0.31 3.24,-0.38 0.28,-0.02 0.56,-0.03 0.84,-0.04 1.36,1.34 2.56,2.84 3.56,4.47 -1.5,0.13 -3,0.5 -4.38,1.1 -0.07,-0.01 -0.13,-0.02 -0.2,-0.03 -1.13,-0.16 -2.29,-0.26 -3.46,-0.26 -0.36,0 -0.73,0.01 -1.09,0.03 -1.53,0.07 -3.08,0.26 -4.6,0.64 -1.54,0.33 -3.02,0.89 -4.51,1.51l-0.07 0.03c-0.15,0.06 -0.31,0.09 -0.46,0.09z"/>
    <path class="fil2" d="M744.78 281.39c-2.36,5.52 -18.91,0 -18.91,0 0,0 3.94,11.04 11.03,18.13 1.52,1.52 2.9,3.37 3.93,5.41 3.8,7.48 3.05,17.56 -11.81,23.76 -18.93,7.88 -31.54,-7.09 -38.63,-17.35 0,0 -7.89,24.13 -32.33,19.55 0,0 5.52,21.44 -0.78,37.21 -6.31,15.77 -5.52,64.65 -5.52,64.65 0,0 4.72,40.99 0,51.24 -4.73,10.25 -53.09,17.34 -74.64,5.52 0,0 -41.25,7.88 -66.48,2.36 -15.62,-3.42 -17.04,-14.1 -12.66,-22.29 2.68,-5.04 7.55,-9.13 12.66,-10.03 0,0 -10.15,-97.75 -7.05,-141.9 0,0 -24.49,6.3 -38.68,-2.37 -14.19,-8.67 -27.59,-38.63 -27.59,-38.63 0,0 -13.4,10.25 -24.44,-0.79 -11.04,-11.04 22.07,-20.5 22.07,-20.5 0,0 -7.1,-4.64 -3.94,-11.3 1.91,-4.04 4.21,-3.31 7.99,-2.58 2.45,0.47 5.53,0.95 9.52,0.12 10.16,-2.11 24.18,0.69 41,18.21 0,0 5.97,-12.17 23.4,-22.51 13.57,-8.08 34.11,-15.04 64.19,-14.27 33.55,0.86 65.3,8.4 83.6,22.31 8.24,6.26 13.76,13.82 15.47,22.63 0,0 22.07,-6.52 40.21,-5.23 18.14,1.28 30.74,13.11 28.38,18.63z"/>
    <path class="fil3" d="M608.6 492.4c-11.45,0 -22.6,-1.75 -29.91,-5.76 -0.48,-0.27 -1.03,-0.4 -1.57,-0.4 -0.2,0 -0.41,0.02 -0.61,0.06 -0.3,0.06 -22.66,4.26 -44.09,4.26 -7.46,0 -14.81,-0.51 -21.08,-1.88 -5.6,-1.22 -12.24,-4.14 -12.24,-11.07 0,-0.08 0,-0.15 0,-0.23 0.04,-1.89 0.57,-3.83 1.46,-5.66 7.53,5.7 17.05,8.67 26.53,8.67 8.07,-0 16.11,-2.14 22.88,-6.57 0.07,-10.14 -0.78,-21.63 -1.63,-33.13 -2.39,-13.86 -2.59,-28.08 -0.73,-42.03 -19.9,-4.33 -35.51,-23.31 -35.79,-43.53 15.82,14.02 36.85,22 57.99,22 15.31,-0.01 30.58,-4.21 43.84,-11.86 4.05,-2.34 2.26,-8.43 -2.25,-8.43 -0.13,0 -0.27,0.01 -0.4,0.02 -8.15,0.64 -16.29,0.97 -24.39,0.97 -27.44,0 -54.5,-3.75 -80.26,-11.73 -0.05,-2.92 -0.07,-5.76 -0.07,-8.53 0,-0.59 0,-1.18 0,-1.76 1.99,1.87 4.57,3.16 7.48,3.56l67.7 9.3c0.02,0 0.04,0.01 0.07,0.01l15.03 2.07c0.63,0.09 1.25,0.13 1.87,0.13 6.73,0 12.61,-4.98 13.55,-11.82l1.31 -9.52c5.97,1.18 15.7,2.61 27.62,2.61 3.92,0 7.83,-0.15 11.63,-0.46 0.92,-0.07 1.73,-0.52 2.28,-1.21 -0.02,0.14 -0.03,0.29 -0.03,0.43 0,0.27 0.03,0.54 0.1,0.81 0.03,0.13 2.14,8.47 2.14,18.29 -0,5.57 -0.68,11.6 -2.79,16.89 -5.24,13.11 -5.79,46.83 -5.79,60.3 0,3.18 0.03,5.23 0.04,5.62 0,0.11 0.01,0.21 0.02,0.32 1.09,9.45 2.1,22.48 2.09,33.03 0,7.42 -0.5,13.62 -1.81,16.47 -0.57,1.23 -3.4,3.38 -9.53,5.4 -8.4,2.77 -19.67,4.38 -30.65,4.38zm-29.52 -22.26c-0.91,2.6 -1.64,5.6 -1.74,8.9 6.34,3.01 13.17,5.17 20.09,5.17 0.94,0 1.89,-0.04 2.83,-0.12 7.86,-0.69 15.76,-4.86 19.3,-11.92 2.96,-5.91 2.57,-12.88 2.11,-19.47 -1.48,-21.28 -2.95,-42.56 -4.44,-63.84 -0.3,-4.24 -3.84,-7.34 -7.82,-7.34 -0.79,0 -1.61,0.12 -2.42,0.39 -11.25,3.67 -22.88,6.18 -34.65,7.46 4.14,6.17 7.48,13.17 9.88,20.61 -0.77,-1.95 -1.33,-3.12 -1.44,-3.35 -0.56,-1.15 -1.71,-1.84 -2.94,-1.84 -0.26,0 -0.53,0.03 -0.79,0.1 -1.5,0.37 -2.54,1.74 -2.48,3.29 0.32,9.09 -5.05,24.94 -5.11,25.11 -0.28,0.81 -0.22,1.71 0.15,2.48 4.96,10.25 7.73,31.71 7.76,31.93 0.14,1.07 0.78,1.98 1.69,2.47zm2.17 -18.5c-1.27,-5.97 -3,-12.56 -5.17,-17.52 0.68,-2.11 2.06,-6.61 3.21,-11.67 1.91,7.68 3.43,18.07 1.96,29.19zm74.26 -122.79c0.17,-1.28 -0.44,-2.56 -1.57,-3.23 -3.53,-2.11 -8.88,-6.41 -14.31,-14.93 -0.58,-0.91 -1.57,-1.47 -2.65,-1.51 -9.32,-0.3 -16.64,-1.56 -20.58,-2.39l2.14 -15.6c1.29,-2.68 2.08,-5.58 2.41,-8.55 0.8,-7.07 -4.85,-13.13 -11.83,-13.13 -0.31,0 -0.62,0.01 -0.94,0.04 -2.5,0.19 -5.34,0.33 -8.52,0.33 -18.16,0 -47.21,-4.6 -83.83,-30.47 2.05,-1.16 4.29,-2.32 6.74,-3.44 15.34,10.04 33.22,16.5 52.44,18.25 3.53,0.32 7.05,0.48 10.54,0.48 20.7,0 40.55,-5.58 57.76,-15.6 5.7,2.49 10.82,5.35 15.15,8.6 -2.48,2.48 -5.17,4.78 -8.03,6.86 -4.2,3.06 -5.21,9 -2.2,13.24 2.04,2.88 4.95,5.12 8.31,6.12 1.4,0.42 2.85,0.63 4.31,0.63 4.59,0 9.2,-2.01 12.26,-5.44 0.16,0.45 0.43,0.85 0.76,1.19 -4.58,6.63 -8.82,12.85 -13.07,19.06 2.33,2.25 5.21,3.12 8.19,3.12 2.27,0 4.6,-0.51 6.78,-1.3 3.52,-1.27 6.74,-3.21 9.84,-5.33 0.56,-0.38 1.17,-0.56 1.78,-0.56 1.35,0 2.64,0.88 3.04,2.33 2.73,9.99 10.49,18.59 20.3,22.05 3.32,1.17 6.83,1.74 10.35,1.74 5.94,0 11.91,-1.62 17.01,-4.66 0.85,1.77 1.41,3.73 1.41,5.75 0,0.68 -0.06,1.37 -0.2,2.06 -0.89,4.48 -4.88,8.31 -11.54,11.09 -3.27,1.36 -6.33,1.96 -9.19,1.96 -11.25,0 -19.39,-9.32 -25.5,-18.15 -0.61,-0.89 -1.62,-1.41 -2.69,-1.41 -0.15,0 -0.31,0.01 -0.46,0.03 -1.23,0.18 -2.25,1.03 -2.64,2.21 -0.27,0.79 -6.17,17.88 -23.32,17.88 -1.66,0 -3.43,-0.16 -5.31,-0.51 -0.2,-0.04 -0.4,-0.05 -0.6,-0.05 -0.89,0 -1.76,0.37 -2.39,1.03 -0.05,0.06 -0.11,0.12 -0.16,0.18z"/>
    <path class="fil0" d="M576.08 434.13c2.18,4.96 3.91,11.55 5.17,17.52 1.46,-11.12 -0.05,-21.51 -1.96,-29.19 -1.15,5.06 -2.53,9.56 -3.21,11.67zm4.56 36.41c-0.13,0 -0.27,-0.01 -0.4,-0.02 -1.48,-0.18 -2.65,-1.35 -2.84,-2.83 -0.03,-0.22 -2.8,-21.67 -7.76,-31.93 -0.38,-0.78 -0.43,-1.67 -0.15,-2.48 0.05,-0.16 5.43,-16.02 5.11,-25.11 -0.05,-1.55 0.98,-2.92 2.48,-3.29 1.5,-0.37 3.05,0.36 3.73,1.75 0.61,1.26 14.83,31.24 2.88,61.83 -0.49,1.27 -1.71,2.08 -3.04,2.08zm-3.51 15.71c0.55,0 1.09,0.14 1.57,0.4 14.31,7.85 43.4,7.03 60.56,1.38 6.13,-2.02 8.96,-4.17 9.53,-5.4 1.31,-2.85 1.81,-9.05 1.81,-16.47 0,-10.55 -1,-23.57 -2.09,-33.03 -0.01,-0.11 -0.02,-0.21 -0.02,-0.32 -0.01,-0.38 -0.04,-2.44 -0.04,-5.62 -0,-13.47 0.55,-47.19 5.79,-60.3 2.11,-5.28 2.79,-11.32 2.79,-16.89 0,-9.82 -2.1,-18.16 -2.14,-18.29 -0.07,-0.27 -0.1,-0.54 -0.1,-0.81 0,-0.82 0.31,-1.62 0.88,-2.24 0.76,-0.81 1.89,-1.19 2.99,-0.98 21.26,3.97 28.33,-16.49 28.62,-17.37 0.39,-1.18 1.41,-2.03 2.64,-2.21 1.23,-0.18 2.45,0.35 3.15,1.37 7.66,11.07 18.52,22.92 34.68,16.19 6.67,-2.78 10.66,-6.62 11.54,-11.09 0.14,-0.69 0.2,-1.38 0.2,-2.06 0,-4.21 -2.4,-8.17 -4.92,-10.68 -7.53,-7.53 -11.63,-18.87 -11.81,-19.35 -0.13,-0.36 -0.19,-0.73 -0.19,-1.1 0,-0.84 0.32,-1.67 0.93,-2.29 0.88,-0.89 2.18,-1.21 3.37,-0.81 6.86,2.28 13.7,2.83 14.89,1.78 0.01,-0.03 0.01,-0.08 0.01,-0.13 0,-0.3 -0.13,-0.97 -0.77,-2.02 -3.13,-5.14 -12.91,-11.05 -24.85,-11.9l0 0c-17.34,-1.23 -38.84,5.04 -39.05,5.11 -0.88,0.26 -1.84,0.14 -2.62,-0.34 -0.79,-0.48 -1.34,-1.27 -1.51,-2.17 -5.38,-27.66 -52.06,-41.18 -95.94,-42.3 -34.32,-0.89 -55.5,8.7 -67.22,16.88 -12.64,8.83 -17.31,17.99 -17.36,18.09 -0.47,0.95 -1.39,1.62 -2.44,1.78 -1.05,0.16 -2.12,-0.2 -2.85,-0.96 -13.36,-13.92 -26.14,-19.73 -37.98,-17.28 -5.01,1.04 -8.74,0.3 -11.47,-0.25 -3.04,-0.6 -3.04,-0.6 -3.74,0.89 -0.33,0.7 -0.47,1.37 -0.47,2 0,2.88 2.87,4.91 3.26,5.18 0.91,0.61 1.45,1.64 1.45,2.72 0,0.17 -0.01,0.34 -0.04,0.51 -0.2,1.25 -1.1,2.29 -2.32,2.64 -8.15,2.33 -20.75,7.85 -21.89,12.27 -0.03,0.1 -0.07,0.25 -0.07,0.46 0,0.47 0.21,1.23 1.3,2.32 8.84,8.84 19.69,0.84 20.15,0.49 0.79,-0.6 1.82,-0.81 2.79,-0.56 0.97,0.25 1.77,0.92 2.18,1.83 0.13,0.29 13.15,29.14 26.31,37.18 12.83,7.84 35.93,2.05 36.16,1.99 1.02,-0.26 2.1,-0.02 2.91,0.66 0.75,0.62 1.18,1.54 1.18,2.51 0,0.08 -0,0.15 -0.01,0.23 -0.4,5.74 -0.58,12.41 -0.58,19.68 -0,47.66 7.53,120.81 7.62,121.65 0.01,0.11 0.02,0.22 0.02,0.34 0,1.57 -1.13,2.94 -2.7,3.22 -6.09,1.07 -11.98,8.17 -12.11,14.6 -0,0.08 -0,0.15 -0,0.23 0,6.93 6.64,9.85 12.24,11.07 24.28,5.31 64.77,-2.3 65.17,-2.38 0.2,-0.04 0.41,-0.06 0.61,-0.06zm31.13 12.68c-11.53,0 -23.14,-1.68 -31.65,-5.99 -6.98,1.26 -43.12,7.29 -66.66,2.13 -15.55,-3.4 -17.38,-13.13 -17.38,-17.5 0,-0.11 0,-0.22 0.01,-0.32 0.17,-8.48 6.67,-17.16 14.55,-20.1 -1.41,-14.01 -7.38,-76.17 -7.38,-119.23 0,-5.79 0.11,-11.24 0.35,-16.18 -8,1.45 -25.27,3.42 -36.87,-3.67 -12.1,-7.39 -23.23,-28.41 -27.28,-36.7 -6.39,3.32 -16.79,5.38 -25.36,-3.19 -2.49,-2.49 -3.21,-4.92 -3.21,-6.92 0,-0.78 0.11,-1.5 0.27,-2.12 1.9,-7.34 13.95,-12.66 21.33,-15.28 -1.17,-1.78 -2.04,-3.95 -2.04,-6.39 0,-1.51 0.33,-3.13 1.13,-4.81 2.89,-6.11 7.53,-5.19 10.93,-4.51 2.42,0.48 5.17,1.02 8.87,0.26 9.23,-1.91 23.67,-0.51 41.05,16.18 2.7,-3.9 7.95,-10.25 16.76,-16.48 12.55,-8.88 35.15,-19.27 71.52,-18.34 25.35,0.65 49.11,5.1 66.89,12.55 18.68,7.82 30.51,18.7 34.46,31.64 6.94,-1.78 23.56,-5.49 38.08,-4.47 14.29,1.01 25.89,8.32 29.98,15.01 1.3,2.12 1.73,3.93 1.73,5.41 0,1.11 -0.24,2.04 -0.55,2.76 -2.25,5.26 -9.81,4.98 -16.13,3.68 1.75,3.41 4.31,7.62 7.55,10.86 3.5,3.5 6.83,9.14 6.83,15.35 0,1.08 -0.1,2.18 -0.32,3.29 -0.92,4.68 -4.35,11.24 -15.44,15.86 -19.13,7.96 -32.46,-5.15 -39.21,-13.86 -4.54,8.19 -13.94,17.64 -28.87,16.84 0.65,3.66 1.38,9.14 1.38,15.23 0,6.28 -0.79,13.21 -3.26,19.41 -4.83,12.08 -5.31,45.58 -5.31,58.35l0 0.02c0,2.6 0.02,4.33 0.03,4.85 0.36,3.16 2.1,19.15 2.1,33.18 0,8.19 -0.59,15.72 -2.4,19.64 -1.61,3.48 -6.13,6.47 -13.42,8.87 -8.3,2.73 -20.64,4.69 -33.05,4.69z"/>
    <path class="fil0" d="M657.51 334.12l-0.4 -0.09 -0.28 -0.08 -0.56 -0.16 -1 -0.36c-0.66,-0.25 -1.26,-0.54 -1.88,-0.82l-1.76 -0.94c-0.56,-0.34 -1.11,-0.69 -1.66,-1.04 -0.56,-0.34 -1.07,-0.74 -1.58,-1.12 -0.51,-0.39 -1.04,-0.76 -1.53,-1.17l-1.44 -1.26c-0.48,-0.42 -0.97,-0.83 -1.39,-1.29l-1.32 -1.35c-0.44,-0.45 -0.89,-0.89 -1.28,-1.38 -0.8,-0.96 -1.62,-1.9 -2.39,-2.87l-2.18 -3.01c-0.38,-0.49 -0.69,-1.02 -1.02,-1.54l-0.97 -1.57c-1.36,-2.05 -2.4,-4.26 -3.56,-6.4 -0.58,-1.07 -1.02,-2.2 -1.53,-3.3 -0.49,-1.11 -1.01,-2.21 -1.48,-3.32 -0.85,-2.26 -1.74,-4.51 -2.54,-6.78l-2.17 -6.87c-0.33,-1.04 0.25,-2.16 1.3,-2.49 1.02,-0.32 2.1,0.22 2.46,1.21l0.04 0.11 2.4 6.57c0.87,2.16 1.83,4.27 2.74,6.41 0.49,1.05 1.04,2.07 1.55,3.1 0.54,1.02 1.01,2.08 1.6,3.07 1.19,1.96 2.26,4.01 3.61,5.85l0.97 1.41c0.32,0.47 0.64,0.95 1,1.38l2.11 2.66c0.74,0.85 1.52,1.65 2.27,2.48 0.37,0.43 0.78,0.79 1.19,1.17l1.22 1.14c0.4,0.39 0.83,0.72 1.26,1.06l1.28 1.03c0.43,0.33 0.89,0.61 1.34,0.92 0.45,0.3 0.89,0.62 1.36,0.87 0.46,0.26 0.92,0.54 1.38,0.79l1.41 0.67c0.47,0.18 0.94,0.38 1.4,0.53l0.68 0.21 0.3 0.07 0.14 0.04 0.03 0 0.5 0.15c1.72,0.5 2.71,2.31 2.21,4.03 -0.48,1.65 -2.17,2.62 -3.82,2.26z"/>
    <path class="fil0" d="M500.35 317.22c0.9,-5.44 1.97,-10.71 3.16,-16.01 1.2,-5.29 2.53,-10.54 4,-15.76 1.46,-5.22 3.14,-10.38 4.94,-15.5 1.83,-5.11 3.9,-10.14 6.18,-15.09 0.44,-0.94 1.56,-1.36 2.5,-0.92 0.92,0.43 1.33,1.5 0.96,2.42l-0.02 0.04c-2.01,4.9 -3.82,9.88 -5.39,14.96 -1.54,5.08 -2.97,10.2 -4.18,15.39 -1.22,5.18 -2.31,10.39 -3.26,15.62 -0.94,5.22 -1.79,10.53 -2.41,15.71l-0.01 0.06c-0.22,1.8 -1.84,3.07 -3.64,2.85 -1.79,-0.21 -3.07,-1.84 -2.85,-3.64 0,-0.04 0.01,-0.1 0.02,-0.14z"/>
    <path class="fil4" d="M501.92 307.62c1.44,-5.34 3.02,-10.63 4.73,-15.86 0.33,-0.99 1.39,-1.54 2.39,-1.21 0.89,0.29 1.42,1.18 1.28,2.08 -0.8,5.38 -1.46,10.77 -1.97,16.15 -0.17,1.81 -1.77,3.13 -3.58,2.96 -1.8,-0.17 -3.13,-1.77 -2.96,-3.58 0.02,-0.18 0.05,-0.36 0.09,-0.53l0.01 -0.02z"/>
    <path class="fil0" d="M461.65 315.42c-0.2,-5.5 -0.08,-11.05 0.59,-16.59 0.69,-5.53 1.86,-11.05 3.83,-16.37 1.94,-5.32 4.69,-10.43 8.36,-14.92 1.84,-2.23 3.89,-4.32 6.19,-6.14 1.14,-0.92 2.36,-1.76 3.62,-2.54 0.63,-0.39 1.29,-0.76 1.97,-1.11 0.34,-0.17 0.68,-0.34 1.05,-0.5l0.56 -0.24 0.3 -0.12 0.37 -0.14 0 0 0.33 -0.12c1.63,-0.56 3.4,0.3 3.97,1.92 0.31,0.91 0.18,1.87 -0.27,2.63 -0.15,0.24 -0.35,0.66 -0.52,1.01l-0.53 1.12c-0.34,0.76 -0.67,1.54 -1,2.32 -0.64,1.57 -1.23,3.18 -1.79,4.8 -0.55,1.62 -1.07,3.27 -1.55,4.94 -0.48,1.66 -0.92,3.34 -1.34,5.03l-0 0.02c-0.21,0.82 -1.04,1.33 -1.87,1.12 -0.74,-0.19 -1.22,-0.88 -1.16,-1.61 0.14,-1.77 0.3,-3.55 0.52,-5.32 0.21,-1.77 0.45,-3.55 0.75,-5.32 0.3,-1.78 0.63,-3.55 1.03,-5.33 0.2,-0.89 0.42,-1.78 0.66,-2.67l0.38 -1.35c0.14,-0.47 0.26,-0.87 0.46,-1.43l4.03 4.44 -0.27 0.11 -0.36 0.16c-0.25,0.11 -0.51,0.24 -0.76,0.37 -0.52,0.27 -1.03,0.55 -1.54,0.86 -1.01,0.63 -2.01,1.31 -2.95,2.08 -1.9,1.51 -3.64,3.27 -5.2,5.17 -3.13,3.83 -5.54,8.28 -7.28,13.03 -1.76,4.74 -2.83,9.79 -3.47,14.9 -0.63,5.12 -0.75,10.33 -0.55,15.54l0 0.02c0.07,1.8 -1.34,3.32 -3.15,3.39 -1.8,0.07 -3.32,-1.34 -3.39,-3.15z"/>
    <path class="fil0" d="M667.06 334.58c-1.01,0 -2.01,-0.47 -2.65,-1.35 -14.03,-19.4 -10.59,-36.88 -5.24,-48.13 5.7,-11.97 14.57,-19.33 14.95,-19.64 1.39,-1.14 3.46,-0.94 4.6,0.45 1.15,1.4 0.94,3.45 -0.45,4.6 -0.12,0.1 -8.25,6.9 -13.28,17.59 -6.57,13.97 -4.98,27.86 4.72,41.29 1.06,1.46 0.73,3.51 -0.73,4.57 -0.58,0.42 -1.25,0.62 -1.91,0.62z"/>
    <path class="fil0" d="M687.53 312.94c-0.34,-0.84 -0.57,-1.54 -0.82,-2.3 -0.24,-0.74 -0.47,-1.48 -0.68,-2.23 -0.42,-1.49 -0.81,-2.97 -1.14,-4.46 -0.67,-2.98 -1.19,-5.98 -1.55,-8.97 -0.05,-0.42 0.25,-0.8 0.67,-0.86 0.35,-0.04 0.67,0.15 0.8,0.46l0 0.01c1.15,2.73 2.44,5.38 3.85,7.93 0.7,1.28 1.45,2.53 2.21,3.75 0.38,0.61 0.78,1.21 1.17,1.8 0.39,0.57 0.82,1.2 1.19,1.66 1.15,1.43 0.92,3.51 -0.51,4.66 -1.43,1.15 -3.51,0.92 -4.66,-0.51 -0.2,-0.26 -0.37,-0.53 -0.49,-0.82l-0.05 -0.14z"/>
    <path class="fil0" d="M729.13 281.22c0,0.3 -0.02,0.43 -0.03,0.62l-0.05 0.52c-0.04,0.34 -0.09,0.67 -0.14,0.99 -0.12,0.65 -0.26,1.28 -0.44,1.9 -0.35,1.25 -0.82,2.47 -1.44,3.62 -1.22,2.31 -3.04,4.35 -5.22,5.72 -1.09,0.69 -2.24,1.21 -3.41,1.62 -1.18,0.36 -2.36,0.65 -3.54,0.78 -2.36,0.3 -4.67,0.19 -6.91,-0.12 -0.57,-0.08 -0.97,-0.6 -0.89,-1.17 0.07,-0.51 0.49,-0.88 1,-0.9l0.01 0c2.12,-0.07 4.23,-0.34 6.15,-0.94 0.98,-0.27 1.88,-0.68 2.74,-1.11 0.84,-0.47 1.61,-1.01 2.29,-1.62 1.35,-1.23 2.28,-2.78 2.83,-4.47 0.28,-0.85 0.46,-1.73 0.54,-2.63 0.05,-0.45 0.07,-0.89 0.07,-1.34 0,-0.22 -0.01,-0.44 -0.02,-0.65l-0.02 -0.31c-0.01,-0.08 -0.02,-0.22 -0.03,-0.2 -0.09,-1.8 1.3,-3.34 3.1,-3.43 1.8,-0.09 3.34,1.3 3.43,3.1z"/>
    <path class="fil5" d="M574.04 490.58c-1.74,-4.3 -2.64,-9.25 -1.8,-14.25 0.42,-2.48 1.27,-4.94 2.59,-7.15 0.67,-1.1 1.43,-2.15 2.34,-3.13 0.48,-0.5 0.89,-0.94 1.66,-1.51 0.56,-0.39 1.06,-0.7 1.59,-1 4.16,-2.37 8.69,-3.72 13.3,-4.11 4.6,-0.39 9.21,0.27 13.39,1.81 0.65,0.24 0.97,0.95 0.74,1.6 -0.2,0.54 -0.74,0.86 -1.3,0.81l-0.01 -0c-4.14,-0.43 -8.22,-0.28 -12.08,0.63 -1.93,0.45 -3.8,1.07 -5.59,1.85 -1.78,0.8 -3.51,1.71 -5.04,2.8 -0.37,0.26 -0.76,0.55 -1.05,0.81 -0.09,0.08 -0.41,0.42 -0.64,0.71 -0.51,0.63 -0.97,1.35 -1.36,2.1 -0.79,1.51 -1.31,3.17 -1.57,4.91 -0.53,3.48 -0.01,7.23 1.02,10.99l0.01 0.04c0.47,1.74 -0.55,3.55 -2.3,4.02 -1.62,0.44 -3.29,-0.41 -3.9,-1.93z"/>
    <path class="fil5" d="M509.83 456.39c0.23,-0.05 0.38,-0.07 0.55,-0.09 0.17,-0.02 0.33,-0.04 0.48,-0.06 0.31,-0.04 0.63,-0.07 0.93,-0.09 0.62,-0.06 1.22,-0.08 1.83,-0.11 1.21,-0.04 2.42,-0.02 3.61,0.05 2.39,0.13 4.76,0.49 7.07,1.06 1.16,0.25 2.29,0.64 3.41,0.99 1.1,0.44 2.22,0.81 3.27,1.34 2.16,0.94 4.13,2.23 6.02,3.57 0.53,0.37 0.66,1.1 0.28,1.63 -0.34,0.48 -0.96,0.63 -1.47,0.38l-0.07 -0.03c-1.94,-0.95 -3.89,-1.83 -5.96,-2.37 -1.01,-0.33 -2.06,-0.5 -3.09,-0.73 -1.05,-0.14 -2.08,-0.34 -3.13,-0.39 -2.09,-0.18 -4.19,-0.16 -6.26,0.05 -1.03,0.11 -2.06,0.25 -3.06,0.44 -0.5,0.1 -1,0.2 -1.49,0.33 -0.25,0.05 -0.48,0.12 -0.71,0.19 -0.12,0.03 -0.23,0.07 -0.34,0.1 -0.11,0.03 -0.23,0.07 -0.27,0.09 -1.64,0.82 -3.64,0.16 -4.46,-1.48 -0.82,-1.64 -0.16,-3.64 1.48,-4.46 0.27,-0.13 0.55,-0.23 0.83,-0.29l0.54 -0.11z"/>
    <path class="fil5" d="M616.07 443.79c-17.19,0 -30.67,-2.74 -31.6,-2.93 -1.77,-0.37 -2.9,-2.1 -2.53,-3.87 0.37,-1.77 2.1,-2.9 3.87,-2.54 0.36,0.08 36.48,7.4 65.2,-2.18 1.71,-0.57 3.57,0.35 4.14,2.07 0.57,1.71 -0.35,3.57 -2.07,4.14 -12.23,4.08 -25.46,5.31 -37.01,5.31z"/>
    <path class="fil5" d="M540.63 444.75c-17.49,0 -32.15,-4.58 -33.13,-4.89 -1.72,-0.55 -2.67,-2.39 -2.12,-4.11 0.55,-1.72 2.38,-2.67 4.11,-2.12 0.36,0.12 36.72,11.43 61.52,-2.17 1.58,-0.87 3.57,-0.29 4.44,1.3 0.87,1.58 0.29,3.57 -1.3,4.44 -10.5,5.76 -22.57,7.55 -33.52,7.55z"/>
    <path class="fil5" d="M577.85 411.32c-1.33,0 -2.58,-0.82 -3.07,-2.15l-7.03 -19.19c-0.62,-1.7 0.25,-3.57 1.94,-4.2 1.7,-0.62 3.58,0.25 4.2,1.95l7.04 19.18c0.62,1.7 -0.25,3.57 -1.94,4.2 -0.37,0.14 -0.75,0.2 -1.13,0.2z"/>
    <path class="fil5" d="M520.3 370.24c1.42,0.94 3.03,1.87 4.59,2.73 1.59,0.85 3.19,1.69 4.82,2.46 3.25,1.56 6.6,2.9 9.98,4.11 0.85,0.3 1.69,0.6 2.55,0.86 0.85,0.28 1.71,0.55 2.58,0.79 1.71,0.53 3.45,0.97 5.19,1.39 3.49,0.82 7.01,1.46 10.56,1.9 1.77,0.25 3.56,0.35 5.34,0.53 1.79,0.09 3.57,0.24 5.36,0.22 0.89,0 1.79,0.03 2.68,0.02l2.69 -0.05c0.9,0 1.79,-0.09 2.68,-0.13 0.9,-0.07 1.79,-0.09 2.69,-0.18 7.16,-0.6 14.28,-1.9 21.39,-3.62l0.01 -0c0.85,-0.21 1.7,0.32 1.91,1.16 0.18,0.76 -0.21,1.52 -0.9,1.82 -6.89,3.04 -14.27,5.05 -21.8,6.14 -3.77,0.47 -7.58,0.83 -11.4,0.79 -1.91,0.04 -3.82,-0.09 -5.72,-0.16 -1.9,-0.14 -3.81,-0.31 -5.7,-0.59 -3.78,-0.52 -7.54,-1.21 -11.22,-2.24 -1.84,-0.51 -3.67,-1.05 -5.47,-1.67 -0.91,-0.3 -1.8,-0.64 -2.68,-0.98 -0.89,-0.33 -1.77,-0.69 -2.65,-1.06 -3.51,-1.46 -6.91,-3.18 -10.18,-5.11 -1.62,-0.98 -3.23,-2 -4.78,-3.11 -1.56,-1.11 -3.03,-2.25 -4.51,-3.59 -0.64,-0.57 -0.69,-1.56 -0.11,-2.2 0.52,-0.58 1.38,-0.67 2.01,-0.26l0.07 0.05z"/>
    <path class="fil2" d="M652.27 328.42c-3.96,0.32 -7.77,0.45 -11.37,0.45 -19.07,0 -32.41,-3.77 -33.13,-3.98 -4.34,-1.26 -6.84,-5.79 -5.58,-10.13 1.25,-4.33 5.78,-6.83 10.11,-5.58 0.25,0.07 10.13,2.8 24.58,3.27 5.68,8.9 11.36,13.57 15.4,15.98z"/>
    <path class="fil0" d="M610.04 312.13c-2.13,0 -4.09,1.4 -4.71,3.54 -0.37,1.26 -0.22,2.59 0.41,3.74 0.63,1.15 1.68,1.98 2.94,2.35 0.14,0.04 13.41,3.85 32.23,3.85 0.8,0 1.6,-0 2.4,-0.02 -2.6,-2.49 -5.42,-5.73 -8.24,-9.93 -14.06,-0.64 -23.59,-3.3 -23.68,-3.33 -0.45,-0.13 -0.9,-0.19 -1.35,-0.19zm30.86 20.01c-19.74,0 -33.48,-3.94 -34.05,-4.11 -2.93,-0.85 -5.36,-2.79 -6.84,-5.47 -1.48,-2.68 -1.82,-5.77 -0.97,-8.71 1.75,-6.05 8.09,-9.55 14.15,-7.82 0.1,0.03 9.64,2.69 23.79,3.15 1.08,0.03 2.07,0.6 2.65,1.51 5.44,8.52 10.79,12.82 14.31,14.93 1.22,0.73 1.83,2.16 1.51,3.55 -0.32,1.39 -1.5,2.4 -2.92,2.52 -3.8,0.31 -7.71,0.46 -11.63,0.46z"/>
    <path class="fil5" d="M505.71 293.92c-0.16,0.3 -0.12,0.54 -0.15,0.49 0.06,-0.01 -0.27,-0.15 -0.47,-0.23 -0.22,-0.1 -0.43,-0.15 -0.65,-0.22 -0.88,-0.2 -1.84,-0.13 -2.71,0.2 -0.87,0.35 -1.63,0.95 -2.22,1.66 -0.58,0.72 -0.98,1.59 -1.17,2.5 -0.4,1.82 0.22,3.8 1.52,5.09 0.63,0.67 1.44,1.15 2.3,1.41 0.12,0.03 0.19,0.07 0.34,0.1l0.46 0.1 0.92 0.2 1.84 0.41 -3.15 2.09 0.65 -4.07 0.68 -4.07 0.7 -4.07 0.37 -2.04 0.09 -0.51 0.04 -0.25 0.01 -0.06c0.01,-0.03 0.01,-0.04 0,-0.01 -0.01,0.04 -0.02,0.08 -0.02,0.13 -0.05,0.37 0.21,0.92 0.64,1.15zm5.56 -3.45c0.27,0.9 0.38,2.12 0.17,3.14l-0.08 0.37 -0.05 0.18 -0.07 0.24 -0.14 0.49c-0.19,0.65 -0.36,1.3 -0.54,1.95l-1.03 3.92c-0.34,1.31 -0.65,2.62 -0.95,3.94 -0.3,1.32 -0.6,2.64 -0.87,3.96l-0.03 0.16c-0.27,1.36 -1.6,2.24 -2.96,1.97 -0.05,-0.01 -0.11,-0.02 -0.16,-0.04l-1.98 -0.53 -0.99 -0.27 -0.49 -0.13c-0.17,-0.05 -0.4,-0.14 -0.59,-0.21 -1.62,-0.59 -3.09,-1.55 -4.24,-2.82 -2.34,-2.49 -3.32,-6.15 -2.59,-9.46 0.36,-1.64 1.1,-3.22 2.18,-4.53 1.09,-1.3 2.48,-2.32 4.02,-3.01 1.55,-0.67 3.24,-1.05 4.98,-1.06 0.42,0.03 0.88,0.02 1.3,0.07 0.44,0.06 0.75,0.07 1.44,0.22 1.24,0.26 2.56,0.81 3.67,1.43z"/>
    <path class="fil0" d="M432.31 253.46c0.12,-0.15 0.21,-0.24 0.29,-0.32 0.08,-0.09 0.17,-0.18 0.25,-0.25 0.16,-0.15 0.32,-0.31 0.48,-0.45 0.32,-0.29 0.65,-0.55 0.99,-0.81 0.66,-0.51 1.37,-0.96 2.08,-1.38 1.44,-0.82 3.01,-1.42 4.62,-1.76 1.61,-0.34 3.26,-0.44 4.84,-0.22 0.79,0.06 1.55,0.27 2.31,0.46 0.75,0.19 1.45,0.51 2.16,0.76 0.66,0.24 1.01,0.97 0.78,1.63 -0.2,0.56 -0.75,0.89 -1.32,0.84l-0.23 -0.02c-0.65,-0.06 -1.27,-0.19 -1.9,-0.19 -0.63,0.01 -1.24,-0.03 -1.85,0.08 -1.21,0.12 -2.35,0.48 -3.38,0.99 -1.04,0.5 -1.99,1.17 -2.83,1.96 -0.41,0.41 -0.8,0.82 -1.15,1.26 -0.18,0.22 -0.34,0.44 -0.49,0.67 -0.08,0.11 -0.14,0.22 -0.21,0.33 -0.04,0.06 -0.06,0.11 -0.09,0.15 -0.03,0.05 -0.05,0.1 -0.03,0.09 -1.06,1.46 -3.1,1.79 -4.57,0.73 -1.46,-1.06 -1.79,-3.11 -0.73,-4.57z"/>
    <path class="fil3" d="M484.97 316.6c-5.74,0 -11.89,-0.78 -16.84,-3.27 -0.1,-4.6 0.05,-9.2 0.61,-13.72 0.57,-4.52 1.47,-8.98 2.89,-13.24 1.43,1.82 3.47,3.23 5.66,3.87 1.33,0.38 2.68,0.55 4.05,0.55 3.21,0 6.47,-0.92 9.5,-2.1 6.43,-2.5 12.4,-6.18 17.54,-10.77l-1.2 8.73c-0.2,0.74 -0.41,1.48 -0.61,2.22 -0.14,-0.02 -0.27,-0.03 -0.42,-0.05 -0.41,-0.05 -0.87,-0.04 -1.3,-0.07 -1.74,0.01 -3.43,0.38 -4.98,1.06 -1.54,0.69 -2.93,1.71 -4.02,3.01 -1.08,1.31 -1.82,2.88 -2.18,4.53 -0.73,3.31 0.24,6.97 2.59,9.46 1.15,1.26 2.62,2.23 4.24,2.82 0.2,0.07 0.42,0.16 0.59,0.21l0.49 0.13 0.06 0.02c-0.32,1.64 -0.63,3.3 -0.92,4.96 -3.05,0.62 -9.13,1.66 -15.77,1.66z"/>
    <path class="fil0" d="M489.08 317.85c-7.17,0 -14.33,-1.48 -20.94,-4.27 -0,-0.08 -0,-0.16 -0.01,-0.25 4.95,2.49 11.1,3.27 16.84,3.27 6.64,0 12.72,-1.04 15.77,-1.66 -0.09,0.54 -0.19,1.09 -0.28,1.63 -3.75,0.86 -7.57,1.28 -11.38,1.28z"/>
    <path class="fil3" d="M461.58 308.47c-11.25,-10.95 -21.16,-32.9 -21.27,-33.15 -0.41,-0.91 -1.21,-1.58 -2.18,-1.83 -0.27,-0.07 -0.54,-0.1 -0.81,-0.1 -0.7,0 -1.4,0.23 -1.98,0.66 -0.3,0.23 -4.94,3.65 -10.58,3.65 -3.08,0 -6.45,-1.02 -9.57,-4.14 -1.08,-1.08 -1.3,-1.84 -1.3,-2.32 0,-0.2 0.04,-0.36 0.07,-0.46 0.05,-0.19 0.12,-0.38 0.21,-0.57 1.1,0.06 2.19,0.09 3.29,0.09 8.16,0 16.31,-1.61 23.86,-4.7 1.31,-0.54 2.68,-0.8 4.03,-0.8 3.3,0 6.5,1.54 8.53,4.35 3.34,4.61 8.1,8.2 13.49,10.03 -0.47,1.08 -0.91,2.17 -1.31,3.27 -1.97,5.32 -3.13,10.85 -3.83,16.37 -0.39,3.21 -0.6,6.43 -0.66,9.64z"/>
    <path class="fil0" d="M461.56 310.25c-11.96,-7.13 -21.09,-18.89 -25,-32.26 -2.84,1.98 -6.3,3.02 -9.75,3.02 -1.69,0 -3.38,-0.25 -4.99,-0.76 -4.91,-1.54 -9.02,-5.46 -10.8,-10.29 1.05,0.11 2.1,0.19 3.16,0.25 -0.09,0.19 -0.16,0.38 -0.21,0.57 -0.03,0.1 -0.07,0.25 -0.07,0.46 0,0.47 0.21,1.23 1.3,2.32 3.12,3.12 6.49,4.14 9.57,4.14 5.64,0 10.28,-3.42 10.58,-3.65 0.57,-0.43 1.27,-0.66 1.98,-0.66 0.27,0 0.55,0.03 0.81,0.1 0.97,0.25 1.77,0.92 2.18,1.83 0.11,0.25 10.02,22.2 21.27,33.15 -0.01,0.59 -0.02,1.19 -0.02,1.78z"/>
    <path class="fil0" d="M500.46 316.57c0.09,-0.54 0.19,-1.09 0.28,-1.63 0.29,-1.67 0.6,-3.32 0.92,-4.96l0.6 0.16c0.35,0.59 0.87,1.06 1.51,1.35l-0.6 4.38c-0.9,0.26 -1.8,0.5 -2.71,0.71zm6.41 -27.66c-0.1,-0.02 -0.2,-0.03 -0.3,-0.04 0.2,-0.74 0.4,-1.48 0.61,-2.22l-0.31 2.25z"/>
    <path class="fil0" d="M503.77 311.49c-0.64,-0.28 -1.17,-0.76 -1.51,-1.35l0.33 0.09 1.31 0.35 -0.12 0.91z"/>
    <path class="fil0" d="M468.14 313.58c-1.96,-0.83 -3.87,-1.77 -5.71,-2.83 -0.29,-0.16 -0.58,-0.33 -0.86,-0.5 0,-0.59 0.01,-1.19 0.02,-1.78 0.06,-3.21 0.27,-6.43 0.66,-9.64 0.69,-5.53 1.86,-11.05 3.83,-16.37 0.4,-1.1 0.84,-2.19 1.31,-3.27 0.73,0.25 1.47,0.46 2.22,0.64 -0.28,2.36 0.55,4.67 2.02,6.55 -1.42,4.25 -2.32,8.72 -2.89,13.24 -0.55,4.52 -0.71,9.11 -0.61,13.72 0,0.08 0,0.16 0.01,0.25z"/>
    <path class="fil6" d="M502.65 304.97l-0.16 -0.03c-0.14,-0.04 -0.22,-0.07 -0.34,-0.1 -0.86,-0.26 -1.67,-0.74 -2.3,-1.41 -1.29,-1.3 -1.92,-3.27 -1.52,-5.09 0.19,-0.92 0.59,-1.78 1.17,-2.5 0.59,-0.71 1.35,-1.31 2.22,-1.66 0.55,-0.21 1.13,-0.31 1.7,-0.31 0.34,0 0.68,0.04 1,0.11 0.14,0.04 0.27,0.08 0.4,0.12l-0.26 1.43 -0.7 4.07 -0 0.02c-0.12,0.53 -0.25,1.06 -0.36,1.6 -0.24,1.05 -0.47,2.11 -0.7,3.16 -0.05,0.2 -0.11,0.4 -0.17,0.6z"/>
    <path class="fil5" d="M502.82 304.37c0.23,-1.05 0.46,-2.11 0.7,-3.16 0.12,-0.53 0.24,-1.06 0.36,-1.6l-0.41 2.46c-0.22,0.76 -0.44,1.53 -0.66,2.29z"/>
    <path class="fil7" d="M502.99 305.04l-0.04 -0.01 -0.3 -0.07c0.05,-0.2 0.11,-0.4 0.17,-0.6 0.22,-0.77 0.43,-1.53 0.66,-2.29l-0.26 1.59 -0.22 1.38z"/>
    <path class="fil6" d="M505.07 292.81c0,-0.01 0,-0.03 0.01,-0.04 0,-0.04 0.01,-0.09 0.02,-0.13 0,-0.01 0,-0.02 0,-0.02 0,0 -0,0.01 -0,0.03l-0.01 0.06 -0.02 0.1z"/>
    <path class="fil0" d="M503.9 310.58l-1.31 -0.35 -0.33 -0.09 -0.6 -0.16 -0.06 -0.02 -0.49 -0.13c-0.17,-0.05 -0.4,-0.14 -0.59,-0.21 -1.62,-0.59 -3.09,-1.55 -4.24,-2.82 -2.34,-2.49 -3.32,-6.15 -2.59,-9.46 0.36,-1.64 1.1,-3.22 2.18,-4.53 1.09,-1.3 2.48,-2.32 4.02,-3.01 1.55,-0.67 3.24,-1.05 4.98,-1.06 0.42,0.03 0.88,0.02 1.3,0.07 0.15,0.02 0.28,0.03 0.42,0.05 0.1,0.01 0.19,0.02 0.3,0.04l-2.97 21.67zm-1.25 -5.62l0.3 0.07 0.04 0.01 0.22 -1.38 0.26 -1.59 0.41 -2.46 0 -0.02 0.7 -4.07 0.26 -1.43c-0.13,-0.04 -0.26,-0.08 -0.4,-0.12 -0.33,-0.08 -0.66,-0.11 -1,-0.11 -0.57,0 -1.16,0.1 -1.7,0.31 -0.87,0.35 -1.63,0.95 -2.22,1.66 -0.58,0.72 -0.98,1.59 -1.17,2.5 -0.4,1.82 0.22,3.8 1.52,5.09 0.63,0.67 1.44,1.15 2.3,1.41 0.12,0.03 0.19,0.07 0.34,0.1l0.16 0.03zm2.45 -12.34c0,0 -0,0.01 -0,0.02 -0.01,0.04 -0.02,0.08 -0.02,0.13 -0,0.01 -0,0.03 -0.01,0.04l0.02 -0.1 0.01 -0.06c0,-0.02 0.01,-0.03 0,-0.03z"/>
    <path class="fil2" d="M597 347.5l-82.8 -11.37c-5.7,-0.78 -9.68,-6.04 -8.9,-11.74l6.63 -48.29c0.78,-5.7 6.04,-9.69 11.74,-8.9l82.8 11.37c5.7,0.78 9.68,6.04 8.9,11.74l-6.63 48.29c-0.78,5.7 -6.04,9.68 -11.74,8.9z"/>
    <path class="fil0" d="M522.25 270.37c-3.51,0 -6.58,2.6 -7.07,6.17l-6.63 48.29c-0.54,3.9 2.2,7.52 6.11,8.05l82.8 11.37c3.9,0.54 7.52,-2.2 8.05,-6.11l6.63 -48.29c0.54,-3.9 -2.2,-7.52 -6.11,-8.05l-82.8 -11.37c-0.33,-0.04 -0.65,-0.07 -0.98,-0.07zm76.18 80.5c-0.62,0 -1.24,-0.04 -1.87,-0.13l-82.8 -11.37c-7.48,-1.03 -12.72,-7.95 -11.7,-15.42l6.63 -48.29c1.03,-7.48 7.95,-12.72 15.42,-11.7l82.79 11.37c7.48,1.03 12.72,7.95 11.7,15.42l-6.63 48.29c-0.94,6.85 -6.82,11.82 -13.55,11.82z"/>
    <path class="fil0" d="M522.25 270.37c-3.51,0 -6.58,2.6 -7.07,6.17l-6.63 48.29c-0.54,3.9 2.2,7.52 6.11,8.05l67.7 9.3c1.89,0.27 3.77,-0.23 5.29,-1.38 1.52,-1.15 2.5,-2.83 2.76,-4.72l6.64 -48.29c0.54,-3.9 -2.21,-7.52 -6.11,-8.05l-67.7 -9.3c-0.33,-0.04 -0.65,-0.07 -0.98,-0.07zm61.1 78.42c-0.63,0 -1.26,-0.04 -1.89,-0.13l-67.7 -9.3c-7.48,-1.03 -12.72,-7.95 -11.7,-15.42l6.63 -48.29c1.03,-7.48 7.95,-12.72 15.42,-11.7l67.7 9.3c7.48,1.03 12.72,7.95 11.7,15.42l-6.63 48.29c-0.5,3.62 -2.38,6.83 -5.29,9.04 -2.4,1.82 -5.28,2.78 -8.24,2.78z"/>
    <path class="fil8" d="M585.55 302.59c0,6.19 -5.02,11.21 -11.21,11.21 -6.19,0 -11.21,-5.02 -11.21,-11.21 0,-6.19 5.02,-11.21 11.21,-11.21 6.19,0 11.21,5.02 11.21,11.21z"/>
    <path class="fil2" d="M563.12 302.68c0,-0 0,-0.01 0,-0.01 0,0 0,0.01 0,0.01zm0 -0.02c0,-0.01 0,-0.02 0,-0.03 0,0.01 0,0.02 0,0.03zm0 -0.03c0,-0.01 0,-0.02 0,-0.03l0 0c0,0.01 0,0.02 0,0.03zm22.42 -0.01c0,-0.01 0,-0.02 0,-0.02l0 0c0,0.01 0,0.02 0,0.02z"/>
    <path class="fil9" d="M564.28 307.52c-0.72,-1.47 -1.14,-3.1 -1.15,-4.84 0,-0 0,-0.01 0,-0.01 0,-0 0,-0.01 0,-0.01 0,-0.01 0,-0.02 0,-0.03 0,-0 0,-0.01 0,-0.01 0,-0.01 0,-0.02 0,-0.03 0,-6.19 5.02,-11.21 11.21,-11.21 6.19,0 11.21,5.02 11.21,11.21 0,0.01 0,0.02 0,0.02 -0,0.45 -0.04,0.88 -0.09,1.31 -1.83,-3.71 -5.64,-6.28 -10.06,-6.28 -5.74,0 -10.46,4.31 -11.12,9.87z"/>
    <path class="fil0" d="M574.34 294.64c-4.38,0 -7.94,3.56 -7.94,7.94 0,4.38 3.56,7.94 7.94,7.94 4.38,0 7.94,-3.56 7.94,-7.94 0,-4.38 -3.56,-7.94 -7.94,-7.94zm0 22.42c-7.99,0 -14.48,-6.5 -14.48,-14.48 0,-7.99 6.5,-14.48 14.48,-14.48 7.98,0 14.48,6.5 14.48,14.48 0,7.98 -6.5,14.48 -14.48,14.48z"/>
    <path class="fil0" d="M544.67 341.71c-0.13,0 -0.26,-0.01 -0.39,-0.02 -1.79,-0.22 -3.07,-1.84 -2.86,-3.64l2.55 -21.21c0.26,-2.15 -0.57,-4.28 -2.21,-5.69l-4.92 -4.22c-3.28,-2.81 -4.94,-7.04 -4.46,-11.33l3 -26.71c0.2,-1.8 1.82,-3.08 3.61,-2.89 1.8,0.2 3.09,1.82 2.89,3.61l-3 26.71c-0.24,2.13 0.59,4.24 2.22,5.64l4.92 4.22c3.3,2.83 4.97,7.11 4.45,11.43l-2.55 21.21c-0.2,1.66 -1.61,2.88 -3.24,2.88z"/>
    <path class="fil3" d="M598.43 344.33c-0.32,0 -0.65,-0.02 -0.99,-0.07l-3.53 -0.48c1.59,-1.93 2.61,-4.27 2.96,-6.81l1.4 -10.16c1.86,-0.26 3.66,-0.77 5.35,-1.65 1.6,-0.84 2.96,-1.95 4.11,-3.26l-2.23 16.26c-0.49,3.57 -3.56,6.18 -7.07,6.18zm-15.09 -2.07c-0.31,0 -0.62,-0.02 -0.92,-0.06l-34.34 -4.72 1.82 -15.11c12.71,1.55 25.45,2.97 38.2,4.27 1.17,0.12 2.37,0.23 3.57,0.31l-1.26 9.13c-0.26,1.89 -1.24,3.57 -2.76,4.72 -1.25,0.95 -2.75,1.46 -4.29,1.46z"/>
    <path class="fil0" d="M596.22 347.58c-1.66,0 -3.36,-0.21 -5,-0.43 -0.37,-0.05 -0.75,-0.1 -1.12,-0.15 0.51,-0.29 1.01,-0.62 1.49,-0.99 0.87,-0.66 1.65,-1.41 2.33,-2.24l3.53 0.48c0.33,0.05 0.66,0.07 0.99,0.07 3.51,0 6.58,-2.6 7.07,-6.18l2.23 -16.26c3.74,-4.24 5.3,-10.57 5.53,-16.41 0.31,-7.65 -0.95,-15.48 1.03,-22.87 1.16,17.73 -1.05,35.83 -5.93,53.19 -1.13,4.02 -2.69,8.37 -6.31,10.45 -1.77,1.01 -3.77,1.33 -5.83,1.33zm-13.8 -5.38c-0.02,-0 -0.05,-0.01 -0.07,-0.01l-34.27 -4.71 0 0 34.34 4.72z"/>
    <path class="fil0" d="M590.1 347c-14.53,-1.96 -29.05,-3.92 -43.58,-5.87 0.75,-0.52 1.27,-1.33 1.39,-2.3l0.16 -1.34 34.27 4.71c0.03,0 0.05,0.01 0.07,0.01 0.31,0.04 0.62,0.06 0.92,0.06 1.55,0 3.04,-0.5 4.29,-1.46 1.52,-1.15 2.5,-2.83 2.76,-4.72l1.26 -9.13c0.97,0.06 1.94,0.1 2.91,0.1 1.25,0 2.49,-0.07 3.71,-0.24l-1.4 10.16c-0.35,2.54 -1.37,4.88 -2.96,6.81 -0.68,0.82 -1.46,1.57 -2.33,2.24 -0.48,0.36 -0.98,0.69 -1.49,0.99z"/>
    <path class="fil3" d="M541.59 336.59l-26.95 -3.7c-3.58,-0.49 -6.17,-3.56 -6.17,-7.08 0,-0.32 0.02,-0.65 0.07,-0.98l1.08 -7.83c11.24,1.62 22.51,3.14 33.78,4.56l-1.8 15.03z"/>
    <path class="fil5" d="M541.59 336.59l-26.95 -3.7c-3.58,-0.49 -6.17,-3.56 -6.17,-7.08 0,3.51 2.6,6.59 6.17,7.08l26.95 3.7 0 0z"/>
    <path class="fil0" d="M542.16 340.54c-4.61,-0.62 -9.22,-1.24 -13.84,-1.87 -6.1,-0.82 -12.54,-1.78 -17.35,-5.64 -4.81,-3.85 -7,-11.66 -2.89,-16.24 0.51,0.07 1.02,0.14 1.53,0.22l-1.08 7.83c-0.04,0.33 -0.07,0.65 -0.07,0.98 0,3.51 2.6,6.59 6.17,7.08l26.95 3.7 -0.18 1.45c-0.11,0.94 0.18,1.83 0.74,2.5z"/>
    <path class="fil0" d="M546.52 341.13c-1.45,-0.2 -2.91,-0.39 -4.36,-0.59 -0.56,-0.67 -0.86,-1.56 -0.74,-2.5l0.18 -1.45 0 0 1.8 -15.03c2.16,0.27 4.33,0.54 6.49,0.8l-1.82 15.11 0 0 -0.16 1.34c-0.12,0.97 -0.65,1.79 -1.39,2.3z"/>
    <path class="fil3" d="M707.97 294.81c-1.78,-0.59 -3.44,-1.55 -4.81,-2.82 -1.96,-1.82 -3.4,-4.67 -2.38,-7.14 0.77,-1.86 2.7,-2.95 4.57,-3.69 3.12,-1.23 6.46,-1.87 9.76,-1.87 2.6,0 5.18,0.4 7.61,1.22 -0.09,0.33 -0.14,0.69 -0.12,1.05l0 -0c0.01,0.15 0.02,0.3 0.05,0.45l0 0.06c0.01,0.21 0.02,0.43 0.02,0.65 0,0.44 -0.02,0.89 -0.07,1.34 -0.09,0.9 -0.27,1.78 -0.54,2.63 -0.55,1.69 -1.48,3.24 -2.83,4.47 -0.68,0.61 -1.45,1.15 -2.29,1.62 -0.86,0.43 -1.76,0.84 -2.74,1.11 -1.93,0.6 -4.03,0.87 -6.15,0.94l-0.01 0c-0.02,0 -0.05,0 -0.07,0.01z"/>
    <path class="fil5" d="M722.65 282c-0.03,-0.15 -0.04,-0.3 -0.05,-0.45l0 0c0.01,0 0.02,0.13 0.03,0.2l0.02 0.25z"/>
    <path class="fil0" d="M712.47 295.55c-1.53,0 -3.06,-0.25 -4.51,-0.73 0.02,-0 0.05,-0 0.07,-0.01l0.01 0c2.12,-0.07 4.23,-0.34 6.15,-0.94 0.98,-0.27 1.88,-0.68 2.74,-1.11 0.84,-0.47 1.61,-1.01 2.29,-1.62 1.35,-1.23 2.28,-2.78 2.83,-4.47 0.28,-0.85 0.46,-1.73 0.54,-2.63 0.05,-0.45 0.07,-0.89 0.07,-1.34 0,-0.22 -0.01,-0.44 -0.02,-0.65l-0 -0.06 -0.02 -0.25c-0.01,-0.07 -0.02,-0.2 -0.03,-0.2l0 0 0 0c-0.02,-0.36 0.02,-0.72 0.12,-1.05 1.09,0.36 2.14,0.81 3.15,1.35 0.09,5.26 -3.2,10.43 -8,12.57 -1.69,0.76 -3.54,1.12 -5.38,1.12z"/>
    <path class="fil10" d="M691.82 119.03c0,0 23.14,11.28 25.19,15.94 3.81,8.64 -1.46,56.92 -15.24,68.37 -5.4,4.48 -42.16,5.77 -42.16,5.77l32.21 -90.08z"/>
    <path class="fil11" d="M659.61 209.11c0,0 36.76,-1.29 42.16,-5.77 5.38,-4.47 9.47,-14.55 12.21,-25.7 -0.43,0.32 -14.28,10.23 -37.83,-14.63 -0.01,-0.01 -0.03,-0.03 -0.04,-0.04l-16.5 46.15z"/>
    <polygon class="fil12" points="583.3,159.98 583.26,160.4 583.02,160.17 "/>
    <polygon class="fil12" points="583.02,160.17 582.74,160.35 582.78,159.94 "/>
    <path class="fil10" d="M500.06 194.51c0,0 -35.92,-7.94 -40.41,-13.33 -4.48,-5.37 -6.67,-16.03 -7.35,-27.49l-0.01 -0.01c-1.06,-17.88 1.53,-37.73 4.77,-42.5 2.87,-4.21 27.67,-11.11 27.67,-11.11l7.48 46.05 7.85 48.38z"/>
    <path class="fil11" d="M500.06 194.51c0,0 -35.92,-7.94 -40.41,-13.33 -4.48,-5.37 -6.67,-16.03 -7.35,-27.49 0.37,0.4 12.19,12.65 39.86,-7.52 0.01,-0.01 0.03,-0.02 0.05,-0.04l7.85 48.38z"/>
    <path class="fil0" d="M693.66 123.6l-29.34 82.03c15.92,-0.79 32.82,-2.7 35.36,-4.81 5.31,-4.41 10.2,-16.85 13.09,-33.28 2.8,-15.9 2.52,-28.36 1.25,-31.24 -1.18,-2.06 -10.91,-7.88 -20.36,-12.69zm-34.05 88.77c-1.04,0 -2.02,-0.5 -2.64,-1.34 -0.64,-0.88 -0.8,-2.01 -0.44,-3.03l32.21 -90.08c0.32,-0.87 0.99,-1.57 1.84,-1.92 0.86,-0.35 1.83,-0.32 2.67,0.09 7.28,3.55 24.46,12.37 26.75,17.56 4.27,9.68 -0.96,59.59 -16.14,72.2 -5.81,4.82 -35.25,6.21 -44.14,6.52 -0.04,0 -0.08,0 -0.11,0z"/>
    <path class="fil0" d="M482.09 104.24c-10.17,3.02 -20.8,6.98 -22.36,8.83 -1.75,2.57 -4.27,14.77 -4.41,30.91 -0.14,16.69 2.42,29.81 6.83,35.11 2.12,2.54 18.39,7.49 33.9,11.15l-13.96 -86zm17.97 93.54c-0.24,0 -0.47,-0.02 -0.71,-0.08 -8.68,-1.92 -37.39,-8.63 -42.22,-14.42 -12.65,-15.16 -8.73,-65.19 -2.78,-73.93 3.2,-4.69 21.69,-10.24 29.5,-12.41 0.89,-0.25 1.86,-0.11 2.64,0.4 0.78,0.5 1.32,1.31 1.47,2.23l15.33 94.43c0.17,1.07 -0.2,2.16 -0.98,2.9 -0.61,0.58 -1.42,0.89 -2.25,0.89z"/>
    <path class="fil10" d="M696.61 150.02c-5.61,61.37 -59.92,106.57 -121.29,100.96 -61.37,-5.61 -106.57,-59.92 -100.96,-121.29 5.62,-61.37 59.92,-106.57 121.29,-100.96 61.37,5.62 106.58,59.92 100.96,121.29z"/>
    <path class="fil10" d="M696.62 150.02c-5.62,61.37 -59.92,106.57 -121.29,100.96 -61.37,-5.62 -106.58,-59.92 -100.96,-121.29 0.59,-6.48 1.73,-12.78 3.36,-18.86 4.23,53.14 46.19,97.11 101.08,102.13 54.89,5.02 104.12,-30.61 117.93,-82.09 0.51,6.27 0.48,12.67 -0.12,19.15z"/>
    <path class="fil5" d="M585.3 30.93c-25.38,0 -49.73,8.77 -69.48,25.22 -22.36,18.61 -36.13,44.81 -38.78,73.78 -2.65,28.97 6.14,57.24 24.75,79.59 18.61,22.36 44.81,36.13 73.78,38.78 28.97,2.65 57.24,-6.14 79.6,-24.75 22.36,-18.61 36.13,-44.81 38.78,-73.78l2.67 0.24 -2.67 -0.24c2.65,-28.97 -6.14,-57.24 -24.75,-79.6 -18.61,-22.36 -44.81,-36.13 -73.78,-38.78 -3.38,-0.31 -6.76,-0.46 -10.11,-0.46zm0.4 223.2c-3.52,0 -7.06,-0.16 -10.62,-0.48 -30.4,-2.78 -57.89,-17.23 -77.41,-40.69 -19.53,-23.46 -28.75,-53.12 -25.97,-83.51 2.78,-30.39 17.23,-57.89 40.69,-77.42 23.46,-19.53 53.12,-28.75 83.51,-25.97 30.4,2.78 57.89,17.23 77.41,40.69 19.53,23.46 28.75,53.12 25.97,83.52 -2.78,30.4 -17.23,57.89 -40.69,77.42 -20.72,17.25 -46.28,26.45 -72.9,26.45z"/>
    <path class="fil5" d="M585.3 30.93c-25.38,0 -49.73,8.77 -69.48,25.22 -22.36,18.61 -36.13,44.81 -38.78,73.78 -2.65,28.97 6.14,57.24 24.75,79.59 18.61,22.36 44.81,36.13 73.78,38.78 28.97,2.65 57.24,-6.14 79.6,-24.75 22.36,-18.61 36.13,-44.81 38.78,-73.78l2.67 0.24 -2.67 -0.24c2.65,-28.97 -6.14,-57.24 -24.75,-79.6 -18.61,-22.36 -44.81,-36.13 -73.78,-38.78 -3.38,-0.31 -6.76,-0.46 -10.11,-0.46zm0.4 223.2c-3.52,0 -7.06,-0.16 -10.62,-0.48 -30.4,-2.78 -57.89,-17.23 -77.41,-40.69 -19.53,-23.46 -28.75,-53.12 -25.97,-83.51 2.78,-30.39 17.23,-57.89 40.69,-77.42 23.46,-19.53 53.12,-28.75 83.51,-25.97 30.4,2.78 57.89,17.23 77.41,40.69 19.53,23.46 28.75,53.12 25.97,83.52 -2.78,30.4 -17.23,57.89 -40.69,77.42 -20.72,17.25 -46.28,26.45 -72.9,26.45z"/>
    <path class="fil5" d="M585.3 30.93c-25.38,0 -49.73,8.77 -69.48,25.22 -22.36,18.61 -36.13,44.81 -38.78,73.78 -2.65,28.97 6.14,57.24 24.75,79.59 18.61,22.36 44.81,36.13 73.78,38.78 28.97,2.65 57.24,-6.14 79.6,-24.75 22.36,-18.61 36.13,-44.81 38.78,-73.78l2.67 0.24 -2.67 -0.24c2.65,-28.97 -6.14,-57.24 -24.75,-79.6 -18.61,-22.36 -44.81,-36.13 -73.78,-38.78 -3.38,-0.31 -6.76,-0.46 -10.11,-0.46zm0.4 223.2c-3.52,0 -7.06,-0.16 -10.62,-0.48 -30.4,-2.78 -57.89,-17.23 -77.41,-40.69 -19.53,-23.46 -28.75,-53.12 -25.97,-83.51 2.78,-30.39 17.23,-57.89 40.69,-77.42 23.46,-19.53 53.12,-28.75 83.51,-25.97 30.4,2.78 57.89,17.23 77.41,40.69 19.53,23.46 28.75,53.12 25.97,83.52 -2.78,30.4 -17.23,57.89 -40.69,77.42 -20.72,17.25 -46.28,26.45 -72.9,26.45z"/>
    <path class="fil0" d="M696.61 150.02l0.01 0 -0.01 0zm-218.03 7.38c7.94,48.68 47.84,85.82 97.03,90.32 49.19,4.5 95.17,-24.78 111.83,-71.22 0.03,-0.08 0.06,-0.16 0.09,-0.24 3.03,-8.51 4.98,-17.43 5.82,-26.54 0.37,-4.03 0.52,-8.1 0.43,-12.11 -1.06,-55.18 -43.38,-100.59 -98.43,-105.62 -55.03,-5.05 -104.88,31.92 -115.95,85.98 -0.81,3.91 -1.42,7.95 -1.79,12.02 -0.83,9.11 -0.53,18.25 0.91,27.15 0.02,0.09 0.04,0.18 0.05,0.26zm106.98 97.32c-3.49,0 -7.01,-0.16 -10.54,-0.48 -52.11,-4.77 -94.38,-44.07 -102.87,-95.62 -0.01,-0.07 -0.03,-0.14 -0.04,-0.22 -1.56,-9.51 -1.9,-19.27 -1.01,-29.01 0.39,-4.31 1.03,-8.6 1.89,-12.74 11.74,-57.31 64.6,-96.5 122.95,-91.17 58.37,5.34 103.24,53.49 104.37,112.01 0.09,4.24 -0.06,8.56 -0.46,12.83 -0.89,9.73 -2.99,19.26 -6.24,28.34 -0.02,0.07 -0.05,0.14 -0.08,0.21 -16.51,45.82 -59.96,75.85 -107.98,75.85z"/>
    <path class="fil0" d="M583.2 38.82c3.81,0 7.64,0.18 11.49,0.53 34.63,3.17 65.29,20.31 85.19,46.15 -17.33,-30 -48.5,-50.81 -84.47,-54.1 -35.95,-3.29 -70.38,11.52 -92.86,37.86 21.57,-19.36 50.23,-30.44 80.64,-30.44zm112.21 84.39c-1.14,0 -2.18,-0.73 -2.55,-1.85 -13.83,-42.36 -52.55,-72.46 -98.67,-76.67 -46.07,-4.22 -89.62,18.33 -110.91,57.44 -0.67,1.23 -2.18,1.74 -3.47,1.16 -1.28,-0.58 -1.89,-2.06 -1.4,-3.38 17.92,-48.17 66.23,-78.53 117.48,-73.85 51.29,4.69 93.29,43.35 102.15,94 0.24,1.38 -0.63,2.72 -1.99,3.06 -0.22,0.06 -0.44,0.08 -0.65,0.08z"/>
    <path class="fil0" d="M696.61 150.02c-0.88,9.62 -2.96,18.85 -6.06,27.54l-0.01 0.01c-22.69,35.48 -66.56,63.78 -113.94,59.44 -47.38,-4.33 -85.38,-40.13 -101.25,-79.13l-0.01 -0.01c-1.49,-9.11 -1.86,-18.56 -0.98,-28.18 0.38,-4.2 1,-8.34 1.84,-12.38 18.78,-40.11 65.3,-66.11 116.96,-61.39 51.68,4.73 92.71,38.77 103.89,81.63 0.08,4.11 -0.06,8.28 -0.44,12.47z"/>
    <path class="fil13" d="M586.28 234.78c-3.12,0 -6.27,-0.14 -9.44,-0.43 -48.31,-4.42 -84.45,-41.92 -98.91,-77.22 -0.65,-4.03 -1.06,-8.11 -1.25,-12.21 22.37,28.51 55.58,50.45 94.27,53.99 3.68,0.34 7.35,0.5 11,0.5 19.75,0 38.76,-4.82 56.02,-12.99 0.58,2.31 2.06,4.22 4.23,5.11 0.83,0.34 1.7,0.5 2.56,0.5 3.25,0 6.51,-2.27 7.99,-5.9 1.1,-2.68 0.99,-5.52 -0.08,-7.73 16.38,-10.16 30.64,-23.33 41.72,-37.98 -0.02,3.12 -0.17,6.26 -0.46,9.37l0 0c-0.83,9.11 -2.78,18.05 -5.81,26.58 -19.27,29.98 -57.5,58.42 -101.85,58.42z"/>
    <path class="fil0" d="M477.93 157.12c14.46,35.3 50.6,72.8 98.91,77.22 48.32,4.42 90.67,-25.91 111.29,-57.99 3.02,-8.52 4.98,-17.46 5.81,-26.58l0 0c0.36,-3.95 0.51,-7.93 0.44,-11.86 -11.36,-42.95 -52.09,-74.81 -101.46,-79.33 -49.36,-4.51 -95.19,19.42 -114.16,59.57 -0.78,3.83 -1.36,7.78 -1.73,11.77 -0.83,9.12 -0.53,18.27 0.9,27.19zm108.26 83.01c-3.29,0 -6.57,-0.15 -9.84,-0.45 -22.8,-2.09 -44.9,-11.48 -63.9,-27.17 -17.21,-14.2 -31.25,-33.2 -39.53,-53.49 -0.11,-0.22 -0.18,-0.46 -0.22,-0.72 -1.55,-9.46 -1.89,-19.17 -1,-28.86 0.39,-4.29 1.03,-8.55 1.88,-12.68 0.04,-0.2 0.11,-0.4 0.2,-0.59 9.58,-20.46 25.94,-37.31 47.31,-48.73 21.74,-11.62 46.74,-16.52 72.32,-14.19 25.58,2.34 49.29,11.71 68.55,27.09 18.95,15.12 31.98,34.67 37.69,56.53 0.05,0.2 0.08,0.41 0.08,0.62 0.09,4.23 -0.07,8.52 -0.46,12.78l0 -0c-0.88,9.67 -2.97,19.16 -6.21,28.2 -0.09,0.25 -0.21,0.47 -0.35,0.67 -11.83,18.45 -29.08,34.58 -48.59,45.43 -18.45,10.26 -38.29,15.57 -57.94,15.57z"/>
    <path class="fil14" d="M663.47 165.02c-0.87,0 -1.74,-0.11 -2.6,-0.33 -7.6,-1.94 -11.59,-12.02 -8.91,-22.51 2.38,-9.3 9.2,-15.8 16.01,-15.8 0.87,0 1.74,0.11 2.6,0.33 7.6,1.94 11.59,12.02 8.91,22.5 -2.38,9.3 -9.2,15.8 -16.01,15.8z"/>
    <path class="fil14" d="M637.97 186.41c-0.48,-1.9 -0.35,-4.06 0.49,-6.14 1.49,-3.63 4.74,-5.9 7.99,-5.9 0.87,0 1.73,0.16 2.56,0.5 1.64,0.67 2.89,1.94 3.65,3.52 -4.73,2.93 -9.64,5.62 -14.7,8.02z"/>
    <path class="fil14" d="M644.76 192.03c-0.87,0 -1.73,-0.16 -2.56,-0.5 -2.16,-0.89 -3.65,-2.8 -4.23,-5.11 5.06,-2.39 9.97,-5.08 14.7,-8.02 1.07,2.21 1.18,5.05 0.08,7.73 -1.49,3.63 -4.74,5.9 -7.99,5.9z"/>
    <path class="fil14" d="M496.04 165.19c0,0 -13.68,-57.6 18.28,-77.89 20.53,-13.04 45.9,-16.38 61.09,-16.38 8.46,0 13.76,1.03 13.33,2.01 0,0 -49.2,8.27 -70.84,45.16 -16.69,28.44 -21.86,47.1 -21.86,47.1z"/>
    <path class="fil10" d="M290.71 283.63c-1.45,12.12 -12.64,20.92 -24.75,19.46 -12.42,-1.47 -21.21,-12.67 -19.77,-24.78 1.48,-12.42 12.67,-21.21 25.08,-19.73 12.11,1.44 20.91,12.63 19.43,25.04zm-32.12 -152.8c-2.66,4.29 -8.1,6.11 -12.8,4.31l-13.8 -5.33c-6.18,-2.28 -8.98,-9.68 -5.83,-15.45 14.39,-25.3 40.59,-33.85 66.33,-30.78 36.03,4.3 60.98,34.62 57.47,63.99 -5.21,43.61 -44.96,44.69 -54.92,76.68 -1.82,5.01 -6.53,8.43 -11.68,7.81l-15.14 -1.8c-6.66,-0.79 -11.09,-7.47 -9.08,-13.98 11.27,-35.2 48.27,-41.54 51.41,-67.88 1.81,-15.14 -6.2,-27.76 -24.98,-30.01 -13.32,-1.59 -22.03,4.43 -26.98,12.44z"/>
    <path class="fil0" d="M785.47 217.7c-0.86,7.25 -7.55,12.5 -14.79,11.64 -7.42,-0.88 -12.68,-7.57 -11.82,-14.81 0.89,-7.42 7.57,-12.68 15,-11.79 7.24,0.86 12.5,7.55 11.61,14.97zm-19.2 -91.34c-1.59,2.57 -4.84,3.65 -7.65,2.58l-8.25 -3.19c-3.69,-1.36 -5.37,-5.79 -3.49,-9.23 8.6,-15.13 24.26,-20.23 39.65,-18.4 21.54,2.57 36.45,20.7 34.35,38.25 -3.11,26.07 -26.87,26.72 -32.83,45.84 -1.09,2.99 -3.91,5.04 -6.98,4.67l-9.05 -1.08c-3.98,-0.47 -6.63,-4.47 -5.43,-8.36 6.74,-21.04 28.85,-24.83 30.73,-40.58 1.08,-9.05 -3.71,-16.6 -14.93,-17.94 -7.96,-0.95 -13.17,2.65 -16.13,7.43z"/>
   </g>
  </g>
  <polygon class="fil15" points="-0,0 863.74,0 863.74,356.88 -0,356.88 "/>
 </g>
</svg>
