<svg width="153" height="47" viewBox="0 0 153 47" fill="none" xmlns="http://www.w3.org/2000/svg">
<path d="M23.0664 0.619263C10.4898 0.619263 0.293945 10.7984 0.293945 23.3547C0.293945 35.9115 10.4898 46.0898 23.0664 46.0898C35.6444 46.0898 45.8391 35.9115 45.8391 23.3547C45.8391 10.7992 35.6444 0.620349 23.0661 0.620349L23.0664 0.619263ZM33.5097 33.4103C33.1018 34.0781 32.2262 34.2899 31.5572 33.88C26.2105 30.6193 19.4796 29.8809 11.5528 31.689C10.7889 31.8628 10.0275 31.3849 9.85347 30.622C9.67862 29.8591 10.1553 29.0989 10.9211 28.9252C19.5957 26.9465 27.0366 27.7985 33.0393 31.4609C33.7082 31.8709 33.9203 32.7424 33.5097 33.4103ZM36.297 27.2197C35.7831 28.0537 34.6899 28.317 33.8551 27.8039C27.7339 24.0475 18.403 22.9597 11.1628 25.1539C10.2238 25.437 9.2321 24.9087 8.94712 23.9729C8.66431 23.0354 9.19376 22.0472 10.1311 21.7621C18.4014 19.2568 28.6829 20.4703 35.7124 24.783C36.5472 25.2961 36.811 26.3873 36.297 27.2197ZM36.5363 20.7733C29.1969 16.421 17.0877 16.0208 10.0803 18.1442C8.955 18.4849 7.76502 17.8507 7.42402 16.7273C7.08302 15.6033 7.71771 14.416 8.84378 14.0745C16.8878 11.6365 30.2601 12.1075 38.7102 17.1158C39.7245 17.7155 40.0562 19.0206 39.4552 20.0297C38.857 21.0402 37.5463 21.3733 36.5374 20.7733H36.5363ZM62.2503 21.6074C58.3181 20.6712 57.6193 20.0142 57.6193 18.6337C57.6193 17.3294 58.8484 16.4517 60.6785 16.4517C62.4515 16.4517 64.2082 17.1182 66.0519 18.4903C66.1063 18.5319 66.177 18.5484 66.245 18.5376C66.3157 18.5273 66.3755 18.4895 66.4163 18.4328L68.3361 15.7309C68.415 15.6196 68.3932 15.4662 68.2872 15.3812C66.0927 13.6238 63.6235 12.7694 60.7356 12.7694C56.4907 12.7694 53.524 15.313 53.524 18.9524C53.524 22.8551 56.0828 24.237 60.5045 25.3037C64.2653 26.169 64.9016 26.8939 64.9016 28.1894C64.9016 29.6256 63.6181 30.5189 61.5514 30.5189C59.2563 30.5189 57.3827 29.7451 55.2888 27.937C55.2371 27.8908 55.1664 27.8718 55.1012 27.8745C55.0305 27.8799 54.9679 27.9125 54.9244 27.9641L52.7707 30.5216C52.681 30.6302 52.6918 30.7876 52.7952 30.8799C55.2317 33.0519 58.2284 34.1976 61.4644 34.1976C66.0383 34.1976 68.9942 31.7026 68.9942 27.8392C69.0024 24.5794 67.0472 22.774 62.2584 21.6109L62.2503 21.6074ZM79.344 17.7359C77.3616 17.7359 75.7354 18.5156 74.3921 20.1133V18.3149C74.3921 18.173 74.2779 18.0573 74.1365 18.0573H70.6149C70.4735 18.0573 70.3593 18.173 70.3593 18.3149V38.2972C70.3593 38.4383 70.4735 38.5551 70.6149 38.5551H74.1365C74.2779 38.5551 74.3921 38.4383 74.3921 38.2972V31.9904C75.7354 33.4917 77.3616 34.2275 79.344 34.2275C83.0287 34.2275 86.7596 31.3958 86.7596 25.9825C86.765 20.5681 83.0341 17.7356 79.3467 17.7356L79.344 17.7359ZM82.6643 25.9825C82.6643 28.7379 80.9647 30.6628 78.5282 30.6628C76.1216 30.6628 74.3051 28.651 74.3051 25.9825C74.3051 23.3137 76.1216 21.3025 78.5282 21.3025C80.9239 21.3022 82.6643 23.2703 82.6643 25.9825ZM96.318 17.7359C91.5728 17.7359 87.8555 21.3836 87.8555 26.0414C87.8555 30.6492 91.5483 34.2573 96.2609 34.2573C101.022 34.2573 104.751 30.622 104.751 25.9825C104.751 21.3587 101.047 17.7359 96.318 17.7359ZM96.318 30.6899C93.7945 30.6899 91.8909 28.6646 91.8909 25.9811C91.8909 23.2855 93.7292 21.3293 96.2609 21.3293C98.8008 21.3293 100.715 23.3539 100.715 26.04C100.715 28.7351 98.866 30.6899 96.318 30.6899ZM114.883 18.0573H111.008V14.1027C111.008 13.961 110.894 13.8453 110.752 13.8453H107.231C107.089 13.8453 106.972 13.961 106.972 14.1027V18.0573H105.281C105.14 18.0573 105.025 18.173 105.025 18.3149V21.3359C105.025 21.4776 105.14 21.5935 105.281 21.5935H106.972V29.4112C106.972 32.5686 108.547 34.1705 111.655 34.1705C112.917 34.1705 113.964 33.9098 114.951 33.3505C115.032 33.3071 115.081 33.2202 115.081 33.1279V30.2501C115.081 30.1632 115.035 30.079 114.959 30.0329C114.883 29.984 114.788 29.9813 114.709 30.022C114.032 30.3614 113.376 30.5189 112.642 30.5189C111.514 30.5189 111.008 30.0057 111.008 28.86V21.5949H114.883C115.024 21.5949 115.138 21.4792 115.138 21.3372V18.3166C115.144 18.1746 115.03 18.0589 114.886 18.0589L114.883 18.0573ZM128.382 18.0728V17.5871C128.382 16.1582 128.931 15.521 130.16 15.521C130.894 15.521 131.484 15.6665 132.145 15.8864C132.227 15.912 132.311 15.8992 132.376 15.8506C132.444 15.802 132.482 15.7241 132.482 15.6416V12.6796C132.482 12.5663 132.412 12.4662 132.3 12.4328C131.604 12.2256 130.712 12.013 129.374 12.013C126.125 12.013 124.403 13.8413 124.403 17.2982V18.0421H122.712C122.57 18.0421 122.453 18.1578 122.453 18.2995V21.3359C122.453 21.4776 122.57 21.5935 122.712 21.5935H124.403V33.6492C124.403 33.7931 124.52 33.9071 124.662 33.9071H128.18C128.324 33.9071 128.439 33.7931 128.439 33.6492V21.5943H131.726L136.763 33.6492C136.192 34.9143 135.629 35.1668 134.862 35.1668C134.242 35.1668 133.586 34.9822 132.92 34.6157C132.858 34.5831 132.781 34.5777 132.716 34.5967C132.648 34.6211 132.591 34.67 132.564 34.7352L131.37 37.3496C131.313 37.4745 131.362 37.6184 131.482 37.6836C132.727 38.3569 133.85 38.6447 135.24 38.6447C137.839 38.6447 139.278 37.4338 140.542 34.1813L146.65 18.4246C146.683 18.3454 146.672 18.2558 146.623 18.1854C146.577 18.1157 146.498 18.0736 146.413 18.0736H142.748C142.636 18.0736 142.538 18.1434 142.503 18.2463L138.748 28.9523L134.636 18.2392C134.598 18.1396 134.503 18.0736 134.397 18.0736L128.382 18.0728ZM120.555 18.0573H117.034C116.892 18.0573 116.776 18.173 116.776 18.3149V33.6492C116.776 33.7931 116.892 33.9071 117.034 33.9071H120.555C120.697 33.9071 120.814 33.7931 120.814 33.6492V18.316C120.814 18.174 120.7 18.0584 120.555 18.0584V18.0573ZM118.815 11.0748C117.42 11.0748 116.289 12.202 116.289 13.5945C116.289 14.9878 117.42 16.1164 118.815 16.1164C120.21 16.1164 121.339 14.9878 121.339 13.5945C121.339 12.2023 120.207 11.0748 118.815 11.0748ZM149.658 22.9879C148.265 22.9879 147.18 21.8707 147.18 20.514C147.18 19.1574 148.279 18.0274 149.671 18.0274C151.064 18.0274 152.149 19.1444 152.149 20.4999C152.149 21.8566 151.05 22.9879 149.658 22.9879ZM149.671 18.2734C148.401 18.2734 147.441 19.2807 147.441 20.514C147.441 21.7469 148.396 22.7406 149.658 22.7406C150.928 22.7406 151.887 21.7341 151.887 20.4999C151.887 19.2671 150.933 18.2734 149.671 18.2734ZM150.221 20.7543L150.922 21.7339H150.329L149.698 20.8352H149.157V21.7339H148.662V19.1373H149.821C150.427 19.1373 150.824 19.446 150.824 19.9656C150.827 20.3913 150.579 20.6514 150.223 20.7543H150.221ZM149.802 19.5828H149.157V20.4041H149.802C150.123 20.4041 150.316 20.2469 150.316 19.9931C150.316 19.7259 150.123 19.5828 149.802 19.5828Z" fill="#1B2245"/>
</svg>
