<svg width="141" height="23" viewBox="0 0 141 23" fill="none" xmlns="http://www.w3.org/2000/svg">
<path d="M47.4186 19.6868C45.4983 19.1695 43.7362 17.7107 42.8347 15.892C42.1438 14.4982 42.1446 14.5079 42.143 8.10213C42.0611 2.56093 42.0924 2.38213 42.4618 1.84772C43.2464 0.539364 44.9765 0.259965 46.1108 1.25844C46.9072 1.95946 46.9705 2.19752 46.9705 4.49125V6.48042H50.3164C52.363 6.48042 53.8571 6.52221 54.1641 6.58804C55.9102 6.96251 56.573 9.05058 55.3607 10.3575C55.2178 10.5116 54.9235 10.7333 54.7067 10.8503C54.3262 11.0556 54.185 11.0641 50.6415 11.0931L46.9705 11.1233V12.0104C46.9705 13.3006 47.1043 13.7227 47.7032 14.3216C48.4025 15.0209 48.5892 15.0539 51.8678 15.0565C54.4113 15.0584 54.64 15.0731 55.0516 15.2594C56.6132 15.9662 57.0022 17.8483 55.8508 19.1254C55.1777 19.872 55.1333 19.8794 51.4053 19.8752C48.4955 19.8719 48.0226 19.8495 47.4186 19.6868ZM62.318 19.7291C60.8019 19.3618 59.2372 18.2099 58.2809 16.7571C57.3995 15.4183 57.2277 14.4762 57.2232 10.9577C57.2193 7.92335 57.2802 7.5412 57.864 6.94016C58.4043 6.38381 58.7485 6.23961 59.5434 6.23664C60.1504 6.23425 60.3036 6.27276 60.7234 6.53229C61.0221 6.71698 61.3194 7.01414 61.5041 7.31264C61.8738 7.9534 61.806 8.22215 61.8516 10.8578C61.8999 13.8577 61.9057 13.9287 62.132 14.2927C62.8964 15.5222 64.4771 15.7034 65.5256 14.6816C66.131 14.0918 66.1878 13.7452 66.1878 10.647C66.1878 8.09944 66.1993 7.92795 66.3961 7.53591C66.7902 6.7505 67.3617 6.33477 68.2064 6.21899C69.1103 6.09509 70.0851 6.62792 70.5521 7.50115C70.7603 7.89033 70.7727 8.05007 70.8197 10.9227C70.8029 13.3125 70.9154 14.0119 71.1409 14.3465C71.862 15.4354 73.3779 15.6696 74.3246 14.8384C75.0031 14.2427 75.0027 14.2448 75.0585 10.9152C75.1064 8.05721 75.1196 7.88933 75.3261 7.50115C76.1931 5.87185 78.3876 5.76916 79.3417 7.31323C79.9589 8.16886 79.6888 9.9795 79.6888 11.1471C79.7336 12.6836 79.6434 14.6537 79.3748 15.2609C78.6439 17.3239 77.0159 18.9624 75.0574 19.6064C74.169 19.8985 72.2113 19.9686 71.3292 19.7399C70.4787 19.5194 69.7428 19.1816 69.0425 18.6903L68.4545 18.2779L67.8667 18.6903C67.1558 19.1889 66.4362 19.5267 65.6498 19.7308C64.9167 19.9211 63.1065 19.9202 62.318 19.7291ZM82.7859 19.7435C82.337 19.548 81.7763 19.0201 81.5313 18.5622C81.3171 18.1619 81.3153 18.1177 81.3153 13.0833C81.3153 8.23875 81.3242 7.99023 81.5087 7.61799C82.2762 6.07032 84.2577 5.72199 85.4593 6.92356C86.2066 7.67083 86.2045 7.65235 86.1725 13.2425C86.1448 18.0675 86.1404 18.166 85.9312 18.5529C85.656 19.0619 85.1562 19.5376 84.6939 19.7305C84.2468 19.9169 83.2006 19.9241 82.7859 19.7435ZM93.1278 19.688C90.9371 19.1137 89.0299 17.383 88.2245 15.2385C87.7899 14.0813 87.7556 13.4918 87.7887 7.76159C87.8192 2.47629 87.8231 2.38429 88.0324 1.99638C89.0762 0.0619428 91.9333 0.306821 92.5529 2.38383C92.6575 2.73425 92.6979 3.37091 92.6979 4.66604V6.46225L95.0385 6.49792C97.2027 6.53089 97.4088 6.54947 97.7733 6.74436C99.4862 7.66022 99.494 9.93254 97.7873 10.8445C97.4047 11.049 97.2318 11.0647 95.0304 11.0954L92.6818 11.1281L92.7145 12.2782C92.7527 13.6203 92.9055 14.0225 93.5714 14.533C94.1546 14.98 94.5217 15.053 96.1965 15.0547C97.5402 15.056 97.72 15.0773 98.173 15.2882C100.066 16.1696 100.064 18.8385 98.1697 19.6989C97.5842 19.9648 94.1556 19.9574 93.1278 19.688ZM105.674 19.6928C103.193 19.0139 101.155 16.9291 100.512 14.4111C100.354 13.792 100.337 13.1672 100.336 8.10654C100.374 2.85358 100.113 3.05899 100.605 1.97789C101.172 0.903617 102.341 0.430261 103.578 0.773934C104.094 0.917211 104.963 1.78541 105.106 2.30142C105.165 2.51621 105.213 3.52458 105.213 4.58337L105.214 6.48047H107.221C109.519 6.48047 110.13 6.5656 110.683 6.9635C111.882 7.82503 111.91 9.75553 110.735 10.6066C110.149 11.0312 109.594 11.1123 107.279 11.1123H105.214V12.0049C105.214 13.1806 105.349 13.6748 105.814 14.2034C106.448 14.9241 106.684 14.9928 108.721 15.0519C110.493 15.1034 110.505 15.1052 110.987 15.4028C111.539 15.7437 112.05 16.4971 112.149 17.1169C112.293 18.014 111.823 19.0243 111.012 19.5611L110.6 19.834L108.474 19.8554C106.658 19.8736 106.249 19.8498 105.674 19.6928ZM117.976 19.7373C116.535 19.3483 115.474 18.7089 114.435 17.6043C113.172 16.2625 112.603 14.7836 112.607 12.8552C112.609 11.6771 112.811 10.7563 113.28 9.7819C113.776 8.7527 114.319 8.08156 115.12 7.51011C117.452 5.8462 121.597 5.74223 124.207 7.28215C125.142 7.83337 126.113 8.87658 126.587 9.8369C127.544 11.7788 127.448 13.5376 126.353 14.1094C125.974 14.3072 125.797 14.3163 121.795 14.3429L117.631 14.3706V14.6292C117.631 15.0323 118.273 15.5785 118.979 15.7767C119.461 15.9118 120.042 15.9414 122.22 15.9419C123.694 15.9419 125.033 15.9864 125.231 16.0414C126.928 16.5127 127.268 18.7595 125.775 19.6343C125.291 19.9612 125 19.879 121.909 19.8769C119.347 19.872 118.343 19.8364 117.976 19.7373ZM122.309 10.9891C122.123 10.3673 121.591 9.99923 120.619 9.81942C119.584 9.62815 118.137 10.0561 117.858 10.636C117.735 10.8914 117.618 11.1821 117.618 11.1821C117.618 11.1821 118.479 11.2109 120.006 11.2109H122.375L122.309 10.9891ZM129.746 19.6936C129.238 19.4176 128.697 18.7768 128.568 18.2983C128.493 18.0186 128.469 16.9245 128.493 14.9174C128.529 11.994 128.534 11.938 128.8 11.1405C129.5 9.03969 131.371 7.29725 133.547 6.71969C134.347 6.50737 138.041 6.40564 138.846 6.57373C139.965 6.80714 140.692 7.6705 140.692 8.76578C140.692 9.69991 140.268 10.4228 139.472 10.843C139.098 11.0408 138.883 11.0619 136.75 11.1097C134.538 11.1593 134.417 11.172 134.062 11.3927C133.594 11.684 133.252 12.1331 133.114 12.6398C133.049 12.8776 133.006 14.0528 133.006 15.6017C133.005 18.1686 133.005 18.1694 132.749 18.6834C132.576 19.0305 132.344 19.3006 132.034 19.5148C131.632 19.7934 131.486 19.8353 130.837 19.8585C130.256 19.8793 130.022 19.844 129.746 19.6936ZM82.665 4.74692C81.1005 3.96731 80.8161 1.90827 82.1154 0.767501C82.6215 0.323109 83.0287 0.173218 83.7298 0.173218C84.7102 0.173218 85.4717 0.631257 85.912 1.48575C86.9649 3.52894 84.7284 5.77515 82.665 4.74692Z" fill="#1B2245"/>
<path d="M8.98801 22.5358C19.4258 22.5358 25.1159 13.9154 25.1159 6.48524C25.1159 6.23276 25.1159 5.98027 25.1159 5.76386C26.2394 4.97035 27.1817 3.96043 27.9428 2.8423C26.928 3.27512 25.8408 3.59974 24.681 3.74402C25.8408 3.05871 26.7468 1.94058 27.1817 0.606042C26.0945 1.25528 24.8622 1.72417 23.5937 1.97665C22.5427 0.858523 21.093 0.173218 19.4621 0.173218C16.309 0.173218 13.772 2.69803 13.772 5.836C13.772 6.26882 13.8083 6.70165 13.917 7.13447C9.20547 6.88199 5.03758 4.64573 2.21067 1.21921C1.73952 2.04879 1.44958 3.02264 1.44958 4.03257C1.44958 5.98027 2.46437 7.71157 3.98655 8.72149C3.04425 8.68543 2.17443 8.43294 1.41334 8.00012C1.41334 8.03619 1.41334 8.03619 1.41334 8.07226C1.41334 10.8135 3.37043 13.0858 5.97989 13.5908C5.50873 13.735 5.00134 13.8072 4.49395 13.8072C4.13152 13.8072 3.7691 13.7711 3.44291 13.699C4.16776 15.9352 6.26983 17.5583 8.73431 17.6305C6.77722 19.1453 4.34898 20.0471 1.70328 20.0471C1.23212 20.0471 0.797214 20.011 0.362305 19.9749C2.82679 21.598 5.79867 22.5358 8.98801 22.5358Z" fill="#1B2245"/>
</svg>
